<svg xmlns="http://www.w3.org/2000/svg" width="24" height="24"><g fill="none" fill-rule="evenodd"><g fill-rule="nonzero"><path fill="#F5F5F5" d="M23.5 12H.5C.5 5.6 5.6.5 12 .5S23.5 5.6 23.5 12Z"/><path fill="#73AF00" d="M23.5 12c0 6.4-5.1 11.5-11.5 11.5S.5 18.4.5 12h23Z"/></g><g fill="#FF4B55" fill-rule="nonzero"><path d="M18.222 8.716c.1.3.2.6.3.8.3-.7.4-1.3.7-2-.6.1-1.8.7-2 1.3.1 0 .9-.1 1-.1Z"/><path d="M18.722 16.216c-.2 0-.5.1-.6 0-.2-.2-.2-.6-.2-.7 0-.3-.3-1.5.4-1 .2-.7-.2-.5-.6-.8-.4-.2-.6-.6-.8-.9 1.3-.8 1.9-1.9 1-3.3-.3 0-.6-.3-1-.2-.4.1-.8.5-.7 1 .1.4.5.6.9.5.3 0 .8-.4.6.2-.3 1-2.8-.1-3.4-.2.3-.2.9-.1 1.1-.3.2-.2 0-.6.2-.8.1-.2.4-.3.5-.4.2-.1.3 0 .4-.2.1-.2-.2-.7-.2-.9 0-.4.2-.9.4-1.3-.8.1-1.6.3-2.4.5-.8.1-1.5-.1-2.2.2-.7.4-1 1-1.1 1.7-.1.7 0 1.4-.7 1.8-.1-.1-.1-.3-.2-.4.1 0 .3-.1.4-.1-.1-.4-.5-.4-.3-.8.1.1.3.2.4.2.2-.5-.4-.6-.2-1.1.1.1.3.2.4.2 0-.2 0-.5-.1-.6-.1-.2-.5-.1-.3-.5.1.1.3.1.4.1.1-.4-.4-.3-.5-.6 0-.2.3-.6.4-.7-.2 0-.4.1-.5 0-.1 0 0-.3-.2-.3s-.5.2-.7.3h-.7c-.2 0-.4.1-.5.1-.1 0 0 .2-.1.2s-.2-.1-.4-.1c-.4 0-.8-.3-1 .2.5 0 .3.5.3.8 0 .2.2.2.1.4.1.1-.1.4-.2.5.4.1.7 0 1.1 0v.2c.3 0 .6-.1.8-.1-.3.1-.7 1.3-.9 1.6-.3.6-.3 1.2-.5 1.8-.6-.6-.7-1.5-1-2.3 0-.1-.1-.4-.2-.5-.2-.2-.2 0-.4.1-.3.1-.9.1-.4.6-.2 0-.4.1-.4.3.1.3.2 0 .4.1.3.2.5.2.6.6 0 .2-.3.5-.3.7.1.4.4.4.6 0 .1.2 1.2 2.8.4 2.8.6 0 .7-.3 1.2-.6.4-.2.9-.1 1 .4.1.5-.4 1.1-.6 1.5-.5.7-.4.2-.9-.1-.2-.2-.2-.2-.4 0 0-.1-.2.5-.2.5 0 .4.1.8.5.9.1 0 .6-.1.7-.1h.5c.5-.2.9-.3 1.5-.2-.2-.5-.9-.3-1-.8 0-.2.6-.9.8-1 .2-.1.2-.3.5-.2.2 0 .1.3.2.3.6 0 .3-.5.3-.9.4 0 .9-.6 1.3-.5.2 0 .6.5.9.6-.2.4-.5 1.3-1 1.4-.2 0-1.4-1-1 0-.5-.2-.3.5-.2.7.2.4-.1.2.4.3.2 0 .4-.1.6-.1.4 0 .8-.2 1.2-.3.2 0 .5.1.6 0 .1 0 .3-.5.2-.5h-.5c0-.5 1.2-1.7 1.5-1.1.8-.3-.4-1-.1-1.5.4.2.6.4 1 .6.4.2.8.2 1.2.4.7.3.5 1 .4 1.7-.5-.1-.4-.4-.7-.6-.3-.1-.5.1-.3.4-.2 0-.3.1-.4.3 0 0 .1.5.1.6.3.4.8.1 1.2 0 .4 0 .9-.1 1.3-.2.1 0 .3.1.5 0 .1-.1.1-.4-.2-.5Zm-1.6-5.9c-.9.1.1-1.1.4-.1-.2.1-.3.1-.4.1Z"/><path d="m5.922 8.316.1-.5.4-.1-1-.6s.2.8.2.9c0 .1.3.3.3.3Z"/></g><circle cx="12" cy="12" r="11.5" stroke="#FFF"/></g></svg>