<svg width="24" height="24" viewBox="0 0 24 24" fill="none" xmlns="http://www.w3.org/2000/svg">
<path d="M12 24C18.6274 24 24 18.6274 24 12C24 5.37258 18.6274 0 12 0C5.37258 0 0 5.37258 0 12C0 18.6274 5.37258 24 12 24Z" fill="white"/>
<path d="M12 0C18.6274 0 24 5.37258 24 12C24 18.6274 18.6274 24 12 24C5.37258 24 0 18.6274 0 12C0 5.37258 5.37258 0 12 0ZM12 1C5.92487 1 1 5.92487 1 12C1 18.0751 5.92487 23 12 23C18.0751 23 23 18.0751 23 12C23 5.92487 18.0751 1 12 1Z" fill="white"/>
<path d="M12 1C5.92487 1 1 5.92487 1 12C1 18.0751 5.92487 23 12 23C18.0751 23 23 18.0751 23 12C23 5.92487 18.0751 1 12 1Z" fill="#503F32"/>
<path fill-rule="evenodd" clip-rule="evenodd" d="M17.7559 6.54432C17.1948 6.96519 16.6321 7.38394 16.0756 7.81087C16.0172 7.85571 15.977 7.94481 15.9609 8.02034C15.9207 8.20837 15.9085 8.40252 15.8661 8.58991C15.8482 8.66902 15.7995 8.75947 15.7364 8.80731C14.798 9.51888 13.8542 10.223 12.9143 10.9325C12.8127 11.0091 12.7331 11.0349 12.6016 10.9801C12.0561 10.7532 11.4266 11.0603 11.2486 11.6246C11.1216 12.0274 11.2575 12.4625 11.5951 12.734C11.9223 12.9971 12.3815 13.0292 12.7558 12.815C13.1112 12.6116 13.3155 12.1888 13.2477 11.7771C13.2331 11.6891 13.2331 11.6289 13.3139 11.5711C13.5269 11.419 13.7332 11.2575 13.9427 11.1002C14.6923 10.5376 15.4433 9.97663 16.1904 9.41054C16.2797 9.34284 16.3597 9.32263 16.4697 9.34481C16.6528 9.38172 16.8394 9.40764 17.0257 9.41979C17.1021 9.42478 17.1963 9.40212 17.2575 9.35767C17.6603 9.06484 18.0566 8.76302 18.4544 8.46332C18.6312 8.33019 18.8065 8.19528 19 8.0478C18.5547 7.9618 18.1415 7.88198 17.7122 7.79907C17.7509 7.36547 17.7886 6.94321 17.8281 6.5C17.79 6.52324 17.7718 6.53233 17.7559 6.54432ZM10.0611 9.73135C8.89515 10.8973 8.83625 12.7216 9.92392 13.9822C10.9364 15.1558 12.7782 15.3604 14.0342 14.4476C15.434 13.4302 15.567 11.6634 15.0318 10.6592C14.782 10.844 14.5302 11.0248 14.2867 11.2162C14.2492 11.2456 14.2307 11.3248 14.2355 11.3782C14.2534 11.5799 14.3127 11.7814 14.306 11.9814C14.2692 13.0842 13.4189 13.9523 12.3183 13.9928C11.4564 14.0245 10.7997 13.6384 10.4033 12.8788C10.0135 12.1317 10.0727 11.3836 10.5758 10.7013C11.2104 9.84056 12.3474 9.61559 13.2777 10.1385C13.325 10.1651 13.4155 10.1742 13.4545 10.1467C13.7127 9.96515 13.9622 9.77138 14.226 9.57294C13.0187 8.5414 11.1765 8.61602 10.0611 9.73135ZM15.9208 9.98936C16.0594 9.88469 16.1854 9.77483 16.3266 9.68992C16.3855 9.65446 16.4764 9.67223 16.5527 9.66562C16.9233 9.63361 17.0729 9.84059 17.1784 10.1701C17.7805 12.0514 17.4883 13.7694 16.2418 15.3013C15.4292 16.3 14.3604 16.9089 13.0905 17.0979C11.1464 17.3871 9.50418 16.7804 8.21661 15.2883C7.42223 14.3677 7.02092 13.2775 7.00087 12.0625C6.97318 10.3869 7.60359 8.99569 8.8807 7.90758C9.68192 7.22489 10.6166 6.83055 11.6604 6.72291C13.1135 6.57308 14.4172 6.96197 15.5574 7.8793C15.6051 7.9177 15.6209 8.00125 15.6405 8.06705C15.6505 8.10038 15.6307 8.14138 15.6333 8.17829C15.6612 8.56976 15.3705 8.72778 15.0926 8.91146C14.1054 8.01827 12.9439 7.63531 11.6194 7.82431C10.6183 7.96718 9.77779 8.43605 9.10971 9.19897C7.74101 10.7619 7.75887 13.024 9.01074 14.5432C10.3355 16.1508 12.5439 16.5473 14.3188 15.5276C15.9029 14.6176 17.0777 12.3836 15.9208 9.98936Z" fill="#DEBB69"/>
</svg>
