<?xml version="1.0" encoding="UTF-8"?>
<svg width="24px" height="24px" viewBox="0 0 24 24" version="1.1" xmlns="http://www.w3.org/2000/svg" xmlns:xlink="http://www.w3.org/1999/xlink">
    <!-- Generator: Sketch 55.1 (78136) - https://sketchapp.com -->
    <title>Flags/san_marino</title>
    <desc>Created with Sketch.</desc>
    <g id="Icons" stroke="none" stroke-width="1" fill="none" fill-rule="evenodd">
        <g id="Flags/san_marino">
            <g id="san_marino">
                <g id="Group-2" transform="translate(0.500000, 0.500000)" fill-rule="nonzero">
                    <path d="M23,11.5 L0,11.5 C0,5.14872538 5.14872538,0 11.5,0 C17.8512746,0 23,5.14872538 23,11.5 Z" id="Combined-Shape" fill="#F5F5F5"></path>
                    <path d="M23,11.5 C23,17.8512746 17.8512746,23 11.5,23 C5.14872538,23 0,17.8512746 0,11.5 L23,11.5 Z" id="Combined-Shape" fill="#82AFFF"></path>
                </g>
                <path d="M12.0586406,17.1499219 C11.9516719,17.1452813 9.42642188,17.0160937 8.1590625,15.27975 C7.42045313,14.268 7.27307813,12.922125 7.72096875,11.2798125 L7.90195313,11.329125 C7.46995313,12.9133125 7.60720313,14.2049531 8.31004688,15.168375 C9.5233125,16.8316875 12.0414844,16.9613906 12.0668906,16.962375 L12.0586406,17.1499219 Z" id="Shape" fill="#B46446" fill-rule="nonzero"></path>
                <g id="Group" transform="translate(6.468750, 9.890625)" fill="#41AA5A" fill-rule="nonzero">
                    <path d="M1.25039062,0.660984375 C1.12584375,0.9853125 1.15429687,1.324875 1.2984375,1.58240625 C1.57785937,1.48753125 1.82625,1.25423438 1.95075,0.92990625 C2.07529687,0.605578125 2.04684375,0.266015625 1.90270312,0.008484375 C1.62328125,0.1033125 1.3749375,0.336609375 1.25039062,0.660984375 Z" id="Shape"></path>
                    <path d="M2.83223437,5.144625 C2.69404687,5.372625 2.65776562,5.67834375 2.76014062,5.97510937 C2.85576562,6.25242187 3.0530625,6.45703125 3.28176562,6.56020312 C3.05957812,6.4438125 2.77701562,6.41460937 2.49979687,6.5101875 C2.20303125,6.61251562 1.98464062,6.8295 1.89028125,7.078875 C2.11828125,7.2170625 2.424,7.25334375 2.72076562,7.15096875 C3.01753125,7.04864062 3.23592187,6.83165625 3.33028125,6.58228125 L3.32995312,6.58214063 C3.46701562,6.354375 3.50292187,6.049875 3.40092187,5.75414063 C3.29859375,5.45742187 3.08160937,5.23898437 2.83223437,5.144625 Z" id="Shape"></path>
                    <path d="M2.29139063,4.31695313 C2.07815625,4.47698438 1.9305,4.747125 1.91479688,5.06067188 C1.900125,5.35364063 2.00690625,5.61703125 2.180625,5.7980625 C2.017875,5.6071875 1.76657813,5.47476563 1.47370313,5.46009375 C1.16015625,5.44439063 0.87665625,5.56429688 0.69609375,5.76046875 C0.856125,5.97370313 1.12626563,6.12135938 1.4398125,6.1370625 C1.75335938,6.15276563 2.03685938,6.03285938 2.21742188,5.8366875 C2.21732813,5.83659375 2.21728125,5.83654688 2.21728125,5.83654688 C2.42929688,5.6761875 2.57615625,5.40707813 2.59176563,5.09460938 C2.60751563,4.7810625 2.48760937,4.49746875 2.29139063,4.31695313 Z" id="Shape"></path>
                    <path d="M2.05757813,3.38385938 C1.79971875,3.45154688 1.56103125,3.64603125 1.4281875,3.93046875 C1.30401563,4.19625 1.3035,4.48045313 1.39607813,4.71365625 C1.317375,4.47548437 1.13465625,4.25798438 0.86896875,4.13390625 C0.58453125,4.0010625 0.27675,4.00504687 0.035484375,4.118625 C0.10321875,4.37648437 0.29765625,4.61517188 0.58209375,4.74801563 C0.86653125,4.88085938 1.1743125,4.876875 1.41557813,4.76329688 C1.41557813,4.76329688 1.41548438,4.76310938 1.4154375,4.76296875 C1.6723125,4.694625 1.90992188,4.50079688 2.04229688,4.21739063 C2.17514062,3.93295313 2.17115625,3.625125 2.05757813,3.38385938 Z" id="Shape"></path>
                    <path d="M2.1901875,2.4579375 C1.924875,2.43154687 1.63340625,2.5306875 1.40976563,2.751 C1.20079688,2.956875 1.10128125,3.22307812 1.1068125,3.47390625 C1.11604688,3.22321875 1.02051563,2.95570312 0.814734375,2.74682812 C0.594421875,2.5231875 0.3045,2.41973437 0.0388125,2.44209375 C0.012421875,2.70740625 0.1115625,2.998875 0.331875,3.22251562 C0.5521875,3.44615625 0.842109375,3.54960937 1.10779688,3.52725 C1.10779688,3.52725 1.10779688,3.52701562 1.10779688,3.526875 C1.37240625,3.55232812 1.66260938,3.45342187 1.8855,3.23385937 C2.10909375,3.01354687 2.21259375,2.723625 2.1901875,2.4579375 Z" id="Shape"></path>
                    <path d="M2.37778125,1.57664062 C2.12048438,1.50670313 1.81664063,1.55625 1.559625,1.73648437 C1.3194375,1.90490625 1.17726563,2.151 1.14121875,2.39929688 C1.19179688,2.153625 1.141875,1.87396875 0.9735,1.633875 C0.793265625,1.37685937 0.5244375,1.2268125 0.258703125,1.20492187 C0.1888125,1.46221875 0.2383125,1.7660625 0.418546875,2.02307812 C0.59878125,2.28009375 0.867609375,2.43014063 1.13334375,2.45203125 C1.13339063,2.45189063 1.13339063,2.45179688 1.13339063,2.45179688 C1.390125,2.52051563 1.69275,2.47101563 1.948875,2.29139062 C2.20584375,2.11115625 2.3559375,1.84232812 2.37778125,1.57664062 Z" id="Shape"></path>
                </g>
                <g id="Group" transform="translate(6.937500, 11.156250)" fill="#FFE15A" fill-rule="nonzero">
                    <path d="M2.46403839,5.11515825 C2.70788583,5.494201 2.30468274,5.89735567 1.92568443,5.65344755 C1.90057984,5.63725298 1.87871455,5.61539032 1.86251804,5.59028875 C1.6186706,5.21124599 2.02187369,4.80809133 2.400872,5.05199945 C2.42597659,5.06819401 2.44793186,5.09005667 2.46403839,5.11515825 Z" id="Shape"></path>
                    <path d="M3.36272589,5.2245645 C3.60657333,5.60360725 3.20337024,6.00676192 2.82437193,5.7628538 C2.79926734,5.74665923 2.77740205,5.72479657 2.76120554,5.699695 C2.5173581,5.32065224 2.92056119,4.91749758 3.2995595,5.1614057 C3.32475407,5.17760026 3.34661936,5.19946292 3.36272589,5.2245645 Z" id="Shape"></path>
                    <path d="M1.94827276,3.63817387 C2.1921202,4.01721663 1.78891711,4.42037129 1.4099188,4.17646317 C1.38481421,4.16026861 1.36294892,4.13840595 1.34675242,4.11330437 C1.10290497,3.73426162 1.50610807,3.33110695 1.88510638,3.57501507 C1.91021097,3.59120964 1.93207625,3.6130723 1.94827276,3.63817387 Z" id="Shape"></path>
                    <path d="M0.705710263,2.16897075 C0.949557704,2.5480135 0.546354611,2.95116817 0.167356301,2.70726005 C0.142251712,2.69106548 0.120386425,2.66920282 0.104189916,2.64410125 C-0.139657525,2.26505849 0.263545568,1.86190383 0.642543878,2.10581195 C0.667648467,2.12200651 0.689603735,2.14386917 0.705710263,2.16897075 Z" id="Shape"></path>
                    <path d="M1.57317901,1.17390825 C1.81702645,1.552951 1.41382336,1.95610567 1.03482505,1.71219755 C1.00972046,1.69600298 0.987855175,1.67414032 0.971658666,1.64903875 C0.727811225,1.26999599 1.13101432,0.866841327 1.51001263,1.11074945 C1.53511722,1.12694401 1.5569825,1.14880667 1.57317901,1.17390825 Z" id="Shape"></path>
                    <path d="M1.24430401,0.154376997 C1.48815145,0.533419754 1.08494836,0.936574417 0.705950051,0.692666295 C0.680845462,0.676471732 0.658980175,0.654609071 0.642783666,0.629507498 C0.398936225,0.25046474 0.802139318,-0.152689923 1.18113763,0.0912181987 C1.2063322,0.107322792 1.22819749,0.129275423 1.24430401,0.154376997 Z" id="Shape"></path>
                </g>
                <path d="M12.0667031,17.1499219 L12.0585,16.962375 C12.0839062,16.9613906 14.6020781,16.8317344 15.8153437,15.168375 C16.5181875,14.2049531 16.6554375,12.9133125 16.2234375,11.329125 L16.4044219,11.2798125 C16.8523125,12.922125 16.7049375,14.268 15.9663281,15.27975 C14.6989219,17.0160937 12.1736719,17.1452812 12.0667031,17.1499219 Z" id="Shape" fill="#B46446" fill-rule="nonzero"></path>
                <g id="Group" transform="translate(14.156250, 9.890625)" fill="#41AA5A" fill-rule="nonzero">
                    <path d="M2.24995313,0.660984375 C2.3745,0.9853125 2.34604688,1.324875 2.20190625,1.58240625 C1.92248438,1.48753125 1.67409375,1.25423438 1.54959375,0.92990625 C1.42504688,0.605578125 1.4535,0.266015625 1.59764063,0.008484375 C1.8770625,0.1033125 2.12545313,0.336609375 2.24995313,0.660984375 Z" id="Shape"></path>
                    <path d="M0.668109375,5.144625 C0.806296875,5.372625 0.842578125,5.67834375 0.740203125,5.97510937 C0.644578125,6.25242187 0.44728125,6.45703125 0.218578125,6.56020312 C0.440765625,6.4438125 0.723328125,6.41460937 1.00054687,6.5101875 C1.2973125,6.61251562 1.51570312,6.8295 1.6100625,7.078875 C1.3820625,7.2170625 1.07634375,7.25334375 0.779578125,7.15096875 C0.4828125,7.04859375 0.264421875,6.83165625 0.1700625,6.58228125 C0.17015625,6.58223438 0.17025,6.5821875 0.17025,6.5821875 C0.033328125,6.354375 -0.002578125,6.049875 0.099421875,5.75414062 C0.201796875,5.45742187 0.41878125,5.23898437 0.668109375,5.144625 Z" id="Shape"></path>
                    <path d="M1.20895312,4.31695313 C1.4221875,4.47698438 1.56984375,4.747125 1.58554687,5.06067188 C1.60021875,5.35364063 1.4934375,5.61703125 1.31971875,5.7980625 C1.48246875,5.6071875 1.73376562,5.47476563 2.02664062,5.46009375 C2.3401875,5.44439063 2.6236875,5.56429688 2.80425,5.76046875 C2.64421875,5.97370313 2.37407812,6.12135938 2.06053125,6.1370625 C1.74698437,6.15276563 1.46348437,6.03285938 1.28292187,5.8366875 C1.28301562,5.83659375 1.2830625,5.83654688 1.2830625,5.83654688 C1.07104687,5.6761875 0.9241875,5.40707813 0.908578125,5.09460938 C0.892875,4.7810625 1.01273437,4.49746875 1.20895312,4.31695313 Z" id="Shape"></path>
                    <path d="M1.44276563,3.38385938 C1.700625,3.45154688 1.9393125,3.64603125 2.07215625,3.93046875 C2.19632813,4.19625 2.19684375,4.48045313 2.10426563,4.71365625 C2.18296875,4.47548437 2.3656875,4.25798438 2.631375,4.13390625 C2.9158125,4.0010625 3.22359375,4.00504687 3.46485937,4.118625 C3.397125,4.37648437 3.2026875,4.61517188 2.91825,4.74801563 C2.6338125,4.88085938 2.32603125,4.876875 2.08476563,4.76329688 C2.08476563,4.76329688 2.08485938,4.76310938 2.08490625,4.76296875 C1.82803125,4.694625 1.59046875,4.50079688 1.45804688,4.21739063 C1.32520313,3.93295313 1.32923438,3.625125 1.44276563,3.38385938 Z" id="Shape"></path>
                    <path d="M1.31015625,2.4579375 C1.57546875,2.43154687 1.8669375,2.5306875 2.09057812,2.751 C2.29954687,2.956875 2.3990625,3.22307812 2.39353125,3.47390625 C2.38429687,3.22321875 2.47982812,2.95570312 2.68560937,2.74682812 C2.90592187,2.5231875 3.19584375,2.41973437 3.46153125,2.44209375 C3.48792187,2.70740625 3.38878125,2.998875 3.16846875,3.22251562 C2.94815625,3.44615625 2.65823437,3.54960937 2.39254687,3.52725 C2.39254687,3.52725 2.39254687,3.52701562 2.39254687,3.526875 C2.1279375,3.55232812 1.83773437,3.45342187 1.61484375,3.23385937 C1.39125,3.01354687 1.28775,2.723625 1.31015625,2.4579375 Z" id="Shape"></path>
                    <path d="M1.1225625,1.57664062 C1.37985937,1.50670312 1.68370312,1.55625 1.94071875,1.73648437 C2.18090625,1.90490625 2.32307812,2.151 2.359125,2.39929688 C2.30854687,2.153625 2.35846875,1.87396875 2.52684375,1.633875 C2.707125,1.37685937 2.97590625,1.2268125 3.24164062,1.20492187 C3.31153125,1.46221875 3.26203125,1.7660625 3.08179687,2.02307812 C2.9015625,2.28009375 2.63273437,2.43014063 2.367,2.45203125 C2.36695312,2.45189063 2.36695312,2.45179688 2.36695312,2.45179688 C2.11021875,2.52051563 1.80759375,2.47101563 1.55146875,2.29139062 C1.2945,2.11115625 1.14445313,1.84232812 1.1225625,1.57664062 Z" id="Shape"></path>
                </g>
                <g id="Group" transform="translate(14.109375, 11.156250)" fill="#FFE15A" fill-rule="nonzero">
                    <path d="M0.973721166,5.11515825 C0.729873725,5.494201 1.13307682,5.89735567 1.51207513,5.65344755 C1.53717972,5.63725298 1.559045,5.61539032 1.57524151,5.59028875 C1.81908895,5.21124599 1.41588586,4.80809133 1.03688755,5.05199945 C1.01178296,5.06819401 0.989917675,5.09005667 0.973721166,5.11515825 Z" id="Shape"></path>
                    <path d="M0.0750336658,5.2245645 C-0.168813775,5.60360725 0.234389318,6.00676192 0.613387628,5.7628538 C0.638492217,5.74665923 0.660357504,5.72479657 0.676554013,5.699695 C0.920401454,5.32065224 0.517198361,4.91749758 0.138200051,5.1614057 C0.113095462,5.17760026 0.0911401942,5.19946292 0.0750336658,5.2245645 Z" id="Shape"></path>
                    <path d="M1.48948679,3.63817387 C1.24563935,4.01721663 1.64884244,4.42037129 2.02784075,4.17646317 C2.05294534,4.16026861 2.07481063,4.13840595 2.09100714,4.11330437 C2.33485458,3.73426162 1.93165149,3.33110695 1.55265318,3.57501507 C1.52754859,3.59120964 1.5056833,3.6130723 1.48948679,3.63817387 Z" id="Shape"></path>
                    <path d="M2.73204929,2.16897075 C2.48820185,2.5480135 2.89140494,2.95116817 3.27040325,2.70726005 C3.29550784,2.69106548 3.31737313,2.66920282 3.33356964,2.64410125 C3.57741708,2.26505849 3.17421399,1.86190383 2.79521568,2.10581195 C2.77011109,2.12200651 2.7482458,2.14386917 2.73204929,2.16897075 Z" id="Shape"></path>
                    <path d="M1.86462742,1.17390825 C1.62077997,1.552951 2.02398307,1.95610567 2.40298138,1.71219755 C2.42808597,1.69600298 2.44995125,1.67414032 2.46614776,1.64903875 C2.7099952,1.26999599 2.30679211,0.866841327 1.9277938,1.11074945 C1.90268921,1.12694401 1.88073394,1.14880667 1.86462742,1.17390825 Z" id="Shape"></path>
                    <path d="M2.19345554,0.154376997 C1.9496081,0.533419754 2.35281119,0.936574417 2.7318095,0.692666295 C2.75691409,0.676471732 2.77877938,0.654609071 2.79497589,0.629507498 C3.03882333,0.25046474 2.63562024,-0.152689923 2.25662193,0.0912181987 C2.23151734,0.107322792 2.20956207,0.129275423 2.19345554,0.154376997 Z" id="Shape"></path>
                </g>
                <path d="M13.1624531,10.5864844 L10.9212656,10.5864844 C10.223625,10.5864844 9.658125,11.1519844 9.658125,11.849625 L9.658125,13.8239063 C9.658125,14.5216406 10.223625,15.0870469 10.9212656,15.0870469 L13.1624531,15.0870469 C13.8600469,15.0870469 14.4255937,14.5215938 14.4255937,13.8239063 L14.4255937,11.849625 C14.4255937,11.1520313 13.8600469,10.5864844 13.1624531,10.5864844 Z" id="Shape" fill="#8CD7FF" fill-rule="nonzero"></path>
                <g id="Group" transform="translate(10.265625, 11.109375)" fill="#F5F5F5" fill-rule="nonzero">
                    <polygon id="Shape" points="2.14603125 1.19535937 2.14603125 1.4454375 1.89595313 1.4454375 1.89595313 1.19535937 1.70339062 1.19535937 1.70339062 1.4454375 1.4533125 1.4454375 1.4533125 1.19535937 1.29689063 1.19535937 1.29689063 1.69551562 1.42195313 1.85390625 1.42195313 3.69609375 2.17214062 3.69609375 2.17214062 1.85390625 2.29720313 1.69551562 2.29720313 1.19535937"></polygon>
                    <path d="M1.88230531,0.403453125 C2.02604038,0.343546875 2.06382528,0.59625 2.06382528,0.59625 C2.36637671,0.465984375 2.28743131,0.254578125 2.21512822,0.153421875 C2.11827038,0.017953125 1.73100238,-0.034125 1.56766707,0.24721875 C1.40427732,0.5285625 1.84599043,1.08604688 1.84599043,1.08604688 C1.8702185,0.9140625 1.69474194,0.4816875 1.88230531,0.403453125 Z" id="Shape"></path>
                    <polygon id="Shape" points="3.43153125 1.66167188 3.43153125 1.91175 3.18145312 1.91175 3.18145312 1.66167188 2.9889375 1.66167188 2.9889375 1.91175 2.73885937 1.91175 2.73885937 1.66167188 2.5824375 1.66167188 2.5824375 2.16182813 2.70745312 2.32017188 2.70745312 4.16240625 3.4576875 4.16240625 3.4576875 2.32017188 3.58275 2.16182813 3.58275 1.66167188"></polygon>
                    <path d="M3.16785816,0.86971875 C3.3115967,0.8098125 3.34938252,1.06251563 3.34938252,1.06251563 C3.65194127,0.93225 3.57299396,0.72084375 3.50068912,0.6196875 C3.40382894,0.48421875 3.01655156,0.432140625 2.8532123,0.713484375 C2.68987304,0.994828125 3.1315424,1.5523125 3.1315424,1.5523125 C3.15577105,1.38032813 2.98029024,0.947953125 3.16785816,0.86971875 Z" id="Shape"></path>
                    <polygon id="Shape" points="0.860484375 1.66167188 0.860484375 1.91175 0.61040625 1.91175 0.61040625 1.66167188 0.41784375 1.66167188 0.41784375 1.91175 0.1678125 1.91175 0.1678125 1.66167188 0.011390625 1.66167188 0.011390625 2.16182813 0.13640625 2.32017188 0.13640625 4.16240625 0.886640625 4.16240625 0.886640625 2.32017188 1.01165625 2.16182813 1.01165625 1.66167188"></polygon>
                    <path d="M0.596759609,0.86971875 C0.740495359,0.8098125 0.778280439,1.06251563 0.778280439,1.06251563 C1.0808333,0.93225 1.00188753,0.72084375 0.929584094,0.6196875 C0.832725799,0.48421875 0.445455954,0.432140625 0.282119875,0.713484375 C0.11872935,0.994828125 0.560499,1.5523125 0.560499,1.5523125 C0.584672739,1.38032813 0.409195345,0.947953125 0.596759609,0.86971875 Z" id="Shape"></path>
                </g>
                <path d="M14.1144844,14.9388281 C13.9475156,14.8562344 13.7620313,14.8054688 13.5631406,14.8054688 C13.3499531,14.8054688 13.152375,14.8637813 12.9767344,14.9578594 C12.7483594,14.7117656 12.424875,14.5553906 12.0626719,14.5553906 C11.7004688,14.5553906 11.3769844,14.7117656 11.1486094,14.9578594 C10.9729687,14.8637812 10.7753906,14.8054688 10.5622031,14.8054688 C10.3633125,14.8054688 10.1778281,14.8561875 10.0108594,14.9388281 C10.3678594,15.593625 11.0515781,16.6517344 12.0626719,17.056125 C13.0737656,16.6517344 13.7574844,15.593625 14.1144844,14.9388281 Z" id="Shape" fill="#6EC86E" fill-rule="nonzero"></path>
                <g id="Group" transform="translate(9.656250, 5.015625)" fill="#FFE15A" fill-rule="nonzero">
                    <path d="M2.39517187,1.62745313 L2.57517188,1.53745313 C2.57517188,1.53745313 2.51517188,1.55320312 2.39517187,1.62745313 Z" id="Shape"></path>
                    <path d="M2.40642187,1.53745313 L2.58642188,1.62745313 C2.46642187,1.55320312 2.40642187,1.53745313 2.40642187,1.53745313 Z" id="Shape"></path>
                    <path d="M4.80557812,2.60807813 C4.73526562,2.20171875 4.21167187,2.13135938 3.6099375,2.0923125 C3.00820312,2.05321875 2.75029687,1.70939063 2.75029687,1.70939063 L2.06259375,1.70939063 C2.06259375,1.70939063 1.8046875,2.05321875 1.20295312,2.0923125 C0.60121875,2.13140625 0.077625,2.20171875 0.0073125,2.60807813 C-0.063,3.0144375 0.452765625,3.65526563 0.452765625,3.65526563 L0.906,3.28795313 C0.906,3.28795313 0.351140625,2.75653125 0.62465625,2.56115625 C0.89475,2.36821875 1.68225,2.50185938 2.03301562,2.0386875 C2.01815625,2.1354375 2.02340625,2.25501563 2.08340625,2.40225 C2.19801562,2.68359375 2.15634375,3.037875 2.15634375,3.037875 L2.40642187,3.037875 L2.6565,3.037875 C2.6565,3.037875 2.61482812,2.68359375 2.7294375,2.40225 C2.7894375,2.25496875 2.7946875,2.1354375 2.77982812,2.0386875 C3.13059375,2.50190625 3.91809375,2.36826563 4.1881875,2.56115625 C4.46170312,2.75653125 3.90684375,3.28795313 3.90684375,3.28795313 L4.36007812,3.65526563 C4.360125,3.65526563 4.87589062,3.0144375 4.80557812,2.60807813 Z" id="Shape"></path>
                    <path d="M2.66170313,0.30271875 L2.53148438,0.30271875 L2.53148438,0.162046875 C2.53148438,0.093 2.47551562,0.03703125 2.40646875,0.03703125 C2.33742188,0.03703125 2.28145313,0.093 2.28145313,0.162046875 L2.28145313,0.30271875 L2.14598438,0.30271875 C2.0769375,0.30271875 2.02096875,0.3586875 2.02096875,0.427734375 C2.02096875,0.49678125 2.0769375,0.55275 2.14598438,0.55275 L2.28145313,0.55275 L2.28145313,0.912234375 C2.28145313,0.98128125 2.33742188,1.03725 2.40646875,1.03725 C2.47551563,1.03725 2.53148438,0.98128125 2.53148438,0.912234375 L2.53148438,0.55275 L2.66170313,0.55275 C2.73075,0.55275 2.78671875,0.49678125 2.78671875,0.427734375 C2.78671875,0.3586875 2.73075,0.30271875 2.66170313,0.30271875 Z" id="Shape"></path>
                </g>
                <path d="M12.4869643,5.93807131 C12.7342531,6.31849398 12.328244,6.7245031 11.9478213,6.4772143 C11.9241328,6.46182026 11.9036777,6.44129487 11.8882836,6.41767661 C11.6409948,6.03725394 12.0470039,5.63124482 12.4274266,5.87853361 C12.4510449,5.89385737 12.4715703,5.91438276 12.4869643,5.93807131 Z" id="Shape" fill="#FFF0E1" fill-rule="nonzero"></path>
                <g id="Group" transform="translate(8.765625, 9.796875)" fill="#FFC75A" fill-rule="nonzero">
                    <path d="M1.504875,1.28878125 C1.60560937,1.33907813 1.72326562,1.38257813 1.8435,1.38257813 C2.25782812,1.38257813 2.46089062,1.14829688 2.46089062,0.73396875 C2.46089062,0.319640625 2.21095312,0.007171875 1.796625,0.007171875 C1.796625,0.007171875 1.74989062,0.00796875 1.67503125,0.019453125 C1.65895312,0.022078125 1.64296875,0.02446875 1.62721875,0.028078125 C1.22896875,0.104015625 0.24459375,0.47109375 0.046078125,2.257875 C-0.23146875,4.75570312 1.79657812,7.00926563 3.29704687,7.50942188 L3.29704687,7.25934375 C3.29704687,7.25925 -0.245671875,4.55015625 1.504875,1.28878125 Z" id="Shape"></path>
                    <polygon id="Shape" points="1.796625 0.257203125 3.29704687 0.757359375 1.796625 1.25751562"></polygon>
                </g>
                <g id="Group" transform="translate(8.765625, 9.796875)" fill="#FFE15A" fill-rule="nonzero">
                    <polygon id="Shape" points="4.79746875 1.25751562 3.29704687 0.757359375 4.79746875 0.257203125"></polygon>
                    <path d="M0.29465625,2.2854375 C0.4738125,0.672984375 1.31901562,0.341390625 1.68314062,0.27178125 C1.69110937,0.269953125 1.69921875,0.268828125 1.71295312,0.266578125 C1.75870312,0.259546875 1.79034375,0.257625 1.80014062,0.257203125 C2.0743125,0.259125 2.2550625,0.465609375 2.2550625,0.7156875 C2.2550625,0.991453125 2.09357812,1.09598438 1.93204687,1.10123437 C1.93204687,1.10123437 2.0623125,0.83034375 1.79657812,0.75740625 C1.61723437,0.7081875 1.39021875,0.851203125 1.41103125,1.1116875 C1.42565625,1.29473437 1.59942187,1.47117187 1.79657812,1.47117187 C2.21090625,1.47117187 2.5468125,1.17178125 2.5468125,0.75740625 C2.5468125,0.34303125 2.21090625,0.007171875 1.79657812,0.007171875 C1.79657812,0.007171875 1.74984375,0.00796875 1.67498437,0.019453125 C1.65890625,0.022078125 1.64292187,0.02446875 1.62717187,0.028078125 C1.22892187,0.104015625 0.244546875,0.47109375 0.04603125,2.257875 C-0.231515625,4.75570312 1.79653125,7.00926562 3.297,7.50942188 L3.297,7.25934375 C3.297,7.25934375 2.76557812,6.99365625 2.40229687,6.7355625 C1.279875,5.93798437 0.092015625,4.10915625 0.29465625,2.2854375 Z" id="Shape"></path>
                </g>
                <g id="Group" transform="translate(12.046875, 9.796875)" fill="#FFC75A" fill-rule="nonzero">
                    <path d="M1.80796875,1.28878125 C1.70723437,1.33907813 1.58957812,1.38257813 1.46934375,1.38257813 C1.05501563,1.38257813 0.851953125,1.14829688 0.851953125,0.73396875 C0.851953125,0.319640625 1.10189062,0.007171875 1.51621875,0.007171875 C1.51621875,0.007171875 1.56295313,0.00796875 1.6378125,0.019453125 C1.65389063,0.022078125 1.669875,0.02446875 1.685625,0.028078125 C2.083875,0.104015625 3.06825,0.47109375 3.26676562,2.257875 C3.5443125,4.75570312 1.51626562,7.00926563 0.015796875,7.50942188 L0.015796875,7.25934375 C0.015796875,7.25925 3.55851563,4.55015625 1.80796875,1.28878125 Z" id="Shape"></path>
                    <polygon id="Shape" points="1.51621875 0.257203125 0.015796875 0.757359375 1.51621875 1.25751562"></polygon>
                </g>
                <g id="Group" transform="translate(11.812500, 9.796875)" fill="#FFE15A" fill-rule="nonzero">
                    <path d="M3.2525625,2.2854375 C3.07340625,0.672984375 2.22820312,0.341390625 1.86407812,0.27178125 C1.85610937,0.269953125 1.848,0.268828125 1.83426562,0.266578125 C1.78851562,0.259546875 1.756875,0.257625 1.74707812,0.257203125 C1.47290625,0.259125 1.29215625,0.465609375 1.29215625,0.7156875 C1.29215625,0.991453125 1.45364062,1.09598438 1.61517187,1.10123437 C1.61517187,1.10123437 1.48490625,0.83034375 1.75064062,0.75740625 C1.92998437,0.7081875 2.157,0.851203125 2.1361875,1.1116875 C2.1215625,1.29473437 1.94779687,1.47117187 1.75064062,1.47117187 C1.3363125,1.47117187 1.00040625,1.17178125 1.00040625,0.75740625 C1.00040625,0.34303125 1.33626563,0.007171875 1.75064062,0.007171875 C1.75064062,0.007171875 1.797375,0.00796875 1.87223437,0.019453125 C1.8883125,0.022078125 1.90429687,0.02446875 1.92004687,0.028078125 C2.31829687,0.104015625 3.30267187,0.47109375 3.5011875,2.257875 C3.77873437,4.75570312 1.7506875,7.00926563 0.25021875,7.50942188 L0.25021875,7.25934375 C0.25021875,7.25934375 0.781640625,6.99365625 1.14492187,6.7355625 C2.26734375,5.93798438 3.45520312,4.10915625 3.2525625,2.2854375 Z" id="Shape"></path>
                    <path d="M0.674464305,0.642508808 C0.9217531,1.02293148 0.515743981,1.4289406 0.135321308,1.1816518 C0.111632757,1.16625776 0.0911776575,1.14573237 0.0757836137,1.12211411 C-0.171505182,0.741691438 0.234503938,0.335682318 0.61492661,0.582971114 C0.638544869,0.598365157 0.659070261,0.618820257 0.674464305,0.642508808 Z" id="Shape"></path>
                </g>
                <path d="M13.848375,8.54582812 C13.9147969,8.37389062 13.8249375,8.14335937 13.8249375,8.14335937 C13.5944062,8.13553125 13.4341875,8.30357812 13.4341875,8.30357812 C13.4537344,8.09648437 13.363875,7.9089375 13.363875,7.9089375 C13.0669219,7.94409375 12.9692344,8.11992187 12.9692344,8.11992187 C12.953625,7.79559375 12.75825,7.66275 12.75825,7.66275 C12.5003437,7.74089062 12.4222031,8.02223438 12.4222031,8.02223438 C12.3831094,7.70184375 12.0627188,7.55334375 12.0627188,7.55334375 C12.0627188,7.55334375 11.7423281,7.70184375 11.7032344,8.02223437 C11.7032344,8.02223437 11.6250937,7.74089062 11.3671875,7.66275 C11.3671875,7.66275 11.1718125,7.79559375 11.1562031,8.11992187 C11.1562031,8.11992187 11.0585156,7.94409375 10.7615625,7.9089375 C10.7615625,7.9089375 10.6717031,8.09648437 10.69125,8.30357812 C10.69125,8.30357812 10.5310312,8.13557812 10.3005,8.14335937 C10.3005,8.14335937 10.2106406,8.37389062 10.2770625,8.54582812 C10.2770625,8.54582812 10.0152656,8.46375 9.80034375,8.5888125 C9.80034375,8.5888125 10.1943281,8.74120312 10.3255312,8.92875 L13.7998594,8.92875 C13.9311094,8.74120312 14.3250469,8.5888125 14.3250469,8.5888125 C14.1101719,8.46379687 13.848375,8.54582812 13.848375,8.54582812 Z" id="Shape" fill="#FFC75A" fill-rule="nonzero"></path>
                <path d="M13.7998594,8.92875 C13.7998594,9.04129688 13.5369375,9.38910938 13.5369375,9.38910938 C13.5369375,9.38910938 12.6845156,9.50779688 12.0626719,9.50779688 C11.4367969,9.50779688 10.5824531,9.38592188 10.5824531,9.38592188 C10.5824531,9.38592188 10.3254844,9.0399375 10.3254844,8.92875 C10.3254844,8.60896875 11.1032344,8.34970313 12.0626719,8.34970313 C13.0221094,8.34970313 13.7998594,8.60896875 13.7998594,8.92875 Z" id="Shape" fill="#FFE15A" fill-rule="nonzero"></path>
                <g id="Group" transform="translate(10.546875, 6.234375)" fill="#FFC75A" fill-rule="nonzero">
                    <ellipse id="Oval" cx="1.5159375" cy="3.31921875" rx="1.50046875" ry="1"></ellipse>
                    <path d="M1.88310938,0.333449324 C1.88310938,0.146633081 1.76067187,-0.0906091406 1.51579687,0.0754497424 C1.27092187,-0.0906091406 1.14848437,0.146633081 1.14848437,0.333449324 C1.14848437,0.520265568 0.9609375,0.54694598 0.9375,0.529123465 C0.9375,0.529123465 1.09378125,0.760442635 1.27354688,0.6091647 C1.27354688,0.6091647 1.36992188,0.769300531 1.51579687,0.769300531 C1.66167187,0.769300531 1.75804687,0.6091647 1.75804687,0.6091647 C1.93776562,0.760389274 2.09409375,0.529123465 2.09409375,0.529123465 C2.07065625,0.54694598 1.88310938,0.520265568 1.88310938,0.333449324 Z" id="Shape"></path>
                </g>
                <g id="Group" transform="translate(11.437500, 17.437500)" fill="#B46446" fill-rule="nonzero">
                    <path d="M0.133395465,1.21284375 C0.11806134,1.21284375 0.10252276,1.20965625 0.0878531141,1.2028125 C0.0372505023,1.17984375 0.0167538888,1.12345313 0.0420551948,1.07704688 L0.5874389,0.076734375 C0.612740206,0.03084375 0.674127819,0.01153125 0.724577089,0.03496875 C0.775179701,0.0579375 0.795676315,0.114328125 0.770375009,0.160734375 L0.224991304,1.16104688 C0.206999264,1.1938125 0.170912957,1.21284375 0.133395465,1.21284375 Z" id="Shape"></path>
                    <path d="M1.17914411,1.21284375 C1.14157551,1.21284375 1.1054892,1.1938125 1.08754828,1.16109375 L0.54216457,0.16078125 C0.516863264,0.114375 0.537359877,0.057984375 0.587962489,0.035015625 C0.638309532,0.01134375 0.699799373,0.030609375 0.725100679,0.07678125 L1.27048438,1.07709375 C1.29578569,1.1235 1.27528908,1.17989063 1.22468646,1.20285938 C1.21006793,1.20970313 1.19447824,1.21284375 1.17914411,1.21284375 Z" id="Shape"></path>
                </g>
                <g id="Group" transform="translate(8.109375, 16.781250)" fill="#F5F5F5" fill-rule="nonzero">
                    <path d="M6.20395312,0.99384375 C4.7218125,1.32515625 3.18478125,1.32515625 1.70264062,0.99384375 C1.70264062,0.743765625 1.70264062,0.275671875 1.70264062,0.02559375 C3.18478125,0.35690625 4.7218125,0.35690625 6.20395312,0.02559375 C6.20395312,0.275671875 6.20395312,0.743765625 6.20395312,0.99384375 Z" id="Shape"></path>
                    <path d="M2.94257813,0.629296875 C1.98548438,0.8139375 1.00467188,0.86465625 0.028734375,0.7734375 C0.045140625,0.90234375 0.816984375,1.28559375 0.816984375,1.28559375 C0.816984375,1.28559375 0.135984375,1.61475 0.151171875,1.73390625 C1.08548437,1.82123437 2.0244375,1.7795625 2.942625,1.61390625 L2.94257813,0.629296875 L2.94257813,0.629296875 Z" id="Shape"></path>
                    <path d="M4.96767187,0.629296875 C5.92476562,0.8139375 6.90557812,0.86465625 7.88151562,0.7734375 C7.86510937,0.90234375 7.09326562,1.28559375 7.09326562,1.28559375 C7.09326562,1.28559375 7.77426562,1.61475 7.75907812,1.73390625 C6.82476562,1.82123438 5.8858125,1.7795625 4.967625,1.61390625 L4.967625,0.629296875 L4.96767187,0.629296875 Z" id="Shape"></path>
                </g>
                <circle id="Oval" stroke="#FFFFFF" cx="12" cy="12" r="11.5"></circle>
            </g>
        </g>
    </g>
</svg>