<?xml version="1.0" encoding="UTF-8"?>
<svg width="24px" height="24px" viewBox="0 0 24 24" version="1.1" xmlns="http://www.w3.org/2000/svg" xmlns:xlink="http://www.w3.org/1999/xlink">
    <!-- Generator: Sketch 63.1 (92452) - https://sketch.com -->
    <title>esports_mobilelegends</title>
    <desc>Created with Sketch.</desc>
    <g id="Classifier" stroke="none" stroke-width="1" fill="none" fill-rule="evenodd">
        <g id="esports_mobilelegends">
            <path d="M12,0 C18.627417,0 24,5.372583 24,12 C24,18.627417 18.627417,24 12,24 C5.372583,24 0,18.627417 0,12 C0,5.372583 5.372583,0 12,0 Z M12,1 C5.92486775,1 1,5.92486775 1,12 C1,18.0751322 5.92486775,23 12,23 C18.0751322,23 23,18.0751322 23,12 C23,5.92486775 18.0751322,1 12,1 Z" id="Oval" fill="#FFFFFF" fill-rule="nonzero"></path>
            <path d="M12,1 C5.92486775,1 1,5.92486775 1,12 C1,18.0751322 5.92486775,23 12,23 C18.0751322,23 23,18.0751322 23,12 C23,5.92486775 18.0751322,1 12,1 Z" id="Path-Copy" fill="#503F32" fill-rule="nonzero"></path>
            <path d="M8.37761722,8.57877537 C9.13167707,8.07684276 9.89652676,7.8879522 10.7476952,8.25016316 C10.9185572,8.32296046 11.1492413,8.25330451 11.3524728,8.25316793 C13.0448393,8.25248503 14.7370693,8.25275819 16.4318942,8.25275819 C16.6745974,8.98605783 16.8968136,9.65735002 17.1847249,10.5269568 C17.6672631,9.62361468 16.9222175,8.88649079 17.3602305,8.12123136 L19.5063168,8.12123136 C19.6512285,8.31449248 19.8421678,8.56935133 20.0709398,8.87447172 C19.9021266,9.0792056 19.74902,9.26495481 19.5989183,9.44701635 C20.4334239,9.93515435 20.4403895,9.96055829 20.0494967,10.8211508 C20.7102722,11.2411352 21.3552044,11.6508761 22,12.060617 C21.9823811,12.1350533 21.9647623,12.2096261 21.94728,12.2840624 C21.5389049,12.3306363 21.1306664,12.376937 20.6652007,12.4299302 C20.5168745,12.7091003 20.3520221,13.0194107 20.1647705,13.3717879 C20.4574621,14.1422374 21.2262726,14.9787918 20.1788382,15.7504705 C19.6065668,16.1720939 18.481828,15.8238141 18.0211426,15.1638581 C16.859254,15.7187838 15.6354945,15.3205157 14.4466995,15.4450769 C14.1800948,15.1506098 13.944084,14.8901511 13.6546704,14.5704167 C13.6295396,14.8594206 13.6123305,15.0578718 13.5865168,15.354251 C13.0724285,15.3833426 12.5760957,15.4150292 12.0793532,15.4387942 C11.0813609,15.4868705 10.0896513,15.2593277 9.08332764,15.4068344 C8.75621782,15.4546375 8.39673846,15.2807708 8.18094158,15.2352896 C6.40594397,15.4693882 4.8296707,15.6772634 3.17445402,15.8953822 C3.05480968,14.5764262 3.6897715,13.4870617 3.69141046,12.2634388 L3.04324624,12.165243 C2.71721048,12.115861 2.38073125,12.0649056 2,12.0072141 C2.17782755,11.8110848 2.22767936,11.7154786 2.3058033,11.6764166 C3.11640739,11.2710463 3.5469085,10.6550691 3.59785296,9.71689903 C3.62653482,9.18928932 3.85762869,8.67260604 4.0136034,8.09118369 L5.51653305,8.09118369 C5.63877242,8.51253392 5.74380267,8.87433514 5.89486048,9.395389 C6.20366855,8.89755379 6.43967931,8.51731423 6.70232323,8.09377871 C7.32417335,7.97140276 7.95531093,7.84520256 8.37761722,8.57877537 Z M18.7799828,12.3875903 C18.5604982,12.4196866 18.2402174,12.5669202 18.1864048,12.7336847 C18.1112856,12.9665542 18.1683762,13.3152437 18.3059126,13.5238018 C18.4513706,13.7439692 18.761681,13.8526872 18.9930481,14.0197249 C19.2061133,14.1735143 19.4098911,14.3401423 19.7958671,14.6391165 C19.1741535,14.7436005 18.7914555,14.8079298 18.343199,14.8833221 C18.9310406,15.3952251 19.3145581,15.5122744 19.7255282,15.351656 C20.2274608,15.1556632 20.4181269,14.6505893 20.0799541,14.2158542 C19.8711228,13.9473373 19.5322671,13.7755193 19.2397121,13.5778876 C19.0098474,13.4227324 18.6735867,13.3555349 18.8477266,12.8441782 C19.0867422,12.856607 19.3615417,12.9078246 19.6233662,12.8695821 C19.7647268,12.8489585 19.8838248,12.6752284 20.0128932,12.5706079 C19.555076,12.3721567 19.1604955,12.3318655 18.7799828,12.3875903 Z M4.72532335,12.0722263 C3.92865045,12.5850854 3.83809771,12.9020883 3.7174973,15.1911741 C4.1772266,15.1911741 4.63886802,15.2171244 5.09463649,15.1758771 C5.23749949,15.1627654 5.36397285,14.9684117 5.62197304,14.7539806 C5.12126965,14.6272341 4.79607195,14.5450127 4.40791073,14.4469481 C4.5093899,13.6871518 4.60663507,12.9602715 4.72532335,12.0722263 Z M15.4303509,12.4139503 C15.5535463,13.3293114 15.656801,14.0975756 15.7763088,14.9858939 C16.2947676,14.9858939 16.7043719,15.0545938 17.0742314,14.9632216 C17.3498504,14.8952046 17.6753213,14.6725787 17.8026141,14.4274171 C18.2026579,13.6569676 17.6462297,12.5693786 16.7835885,12.4132674 C16.3846374,12.341153 15.9605556,12.4086236 15.4303509,12.4139503 Z M14.6365462,12.3591816 C14.2124643,12.8684895 14.6245271,13.3746561 14.4540749,13.9746534 C14.1298332,13.5776144 13.8808473,13.2864252 13.6475682,12.983217 C13.4213912,12.689023 13.2919131,12.2410396 12.6992911,12.4830599 C12.691654,13.2219821 12.5320675,13.9693969 12.8334362,14.6886942 L12.927,14.883 L12.992458,14.746178 C13.0675663,14.5621508 13.0987066,14.3777565 13.1093052,14.1922258 C13.125012,13.9182457 13.1129929,13.6427632 13.1129929,13.3342283 C14.0213885,13.6075255 13.9858776,14.8062908 15.0014887,14.9674556 C15.0330388,14.0541431 15.2603084,13.1920482 14.6365462,12.3591816 Z M12.0908259,12.4233743 L10.6990726,12.4233743 C10.6990726,12.9537156 10.6926533,13.4159034 10.7011213,13.8778179 C10.7069943,14.1948208 10.7334909,14.511414 10.7561632,14.9260718 C11.3248836,14.9152819 11.7809252,15.1014409 12.2392887,14.735952 C11.819714,14.5450127 11.4909652,14.3953207 11.2467596,14.2841443 C11.1544313,13.3966455 12.0498518,14.08542 12.1349413,13.4683502 C11.9868883,13.4070256 11.8321428,13.3383257 11.6737097,13.2789133 C11.5201934,13.2215496 11.3629895,13.1740196 11.2324187,13.1305871 C11.2190338,12.46708 11.8664245,12.7697419 12.0908259,12.4233743 Z M7.54051655,12.2664435 L6.19683953,12.2664435 C6.11694005,13.1874045 5.70706257,14.0052474 6.03786006,14.905175 L6.39415539,14.9417102 C6.75313964,14.9735932 7.13125367,14.9638362 7.62806452,14.6632913 C7.16355491,14.4464017 6.870317,14.3094117 6.60412199,14.184987 C6.5417048,13.5866287 7.01290684,13.757081 7.25834164,13.6225494 C7.30559843,13.5967357 7.3203491,13.5112364 7.36255241,13.4288785 C7.11056175,13.2995369 6.85843452,13.1701954 6.47573651,12.9736563 C6.78386167,12.7995165 6.95376757,12.6976275 7.1290001,12.6059822 C7.27951159,12.5274485 7.43603262,12.4607973 7.58995862,12.3888195 C7.5734324,12.3481186 7.55690618,12.307281 7.54051655,12.2664435 Z M8.34702323,12.510376 C7.86038761,12.8809183 7.69321332,13.8985781 8.03848833,14.3876722 C8.46830654,14.9965472 9.26566235,15.0884657 10.1582146,14.6296925 L10.1582146,13.4940273 L9.13181365,13.4940273 C9.08660557,13.5564445 9.04153407,13.6187251 8.99646257,13.6811423 C9.21294235,13.7895871 9.42955871,13.8980318 9.6708961,14.0189054 C9.34870317,14.6010106 9.03757324,14.5116871 8.75416911,14.305724 C8.44140022,14.078591 8.29744458,13.7771583 8.45082426,13.3665979 C8.73163336,12.6152696 9.30540721,12.4963082 10.1106847,12.7204365 C9.56053922,12.120166 8.90550009,12.0853381 8.34702323,12.510376 Z M17.3885436,13.9695043 C17.1607277,14.4504035 16.8221451,14.6764439 16.2205089,14.4379747 L16.0604368,12.9477471 L16.0604368,12.9477471 C16.9237609,12.7757925 17.0292009,12.8562383 17.3885436,13.9695043 Z M15.6136416,8.71439961 C15.7466709,9.75705364 15.8760124,10.7717087 16.0183291,11.88716 C16.7090157,11.8826529 17.3055984,12.070724 17.9180245,11.7513992 C17.6937596,11.0089487 16.9615526,11.5181201 16.6628515,11.1257248 C16.2248385,8.8621795 16.2248385,8.8621795 15.6136416,8.71439961 Z M9.85992324,8.49778325 C8.72712621,8.53984998 8.09994947,9.21605906 8.09926636,10.2823415 C8.09885682,11.205078 8.72958466,11.904096 9.60479124,11.9270415 C10.6477184,11.954221 11.3474193,11.2460521 11.357936,10.1524536 C11.3666771,9.25156994 10.6997555,8.46664294 9.85992324,8.49778325 Z M11.8176653,8.66195277 L11.8176653,11.9060081 C12.40059,11.9060081 12.8993813,11.952582 13.3858803,11.8948085 C14.0798448,11.8124506 14.4087302,11.1647868 14.1025172,10.5275031 C14.0151058,10.3457147 13.8192496,10.2161 13.6686016,10.0576669 C14.1600175,9.06076726 13.9653906,8.71439961 12.854583,8.66441122 C12.5016595,8.6485679 12.1475067,8.66195277 11.8176653,8.66195277 Z M15.058033,8.68776645 L14.3673464,8.68776645 C14.4701913,9.75322939 14.5723534,10.8119999 14.679569,11.923627 C14.9495882,11.9105153 15.2601718,11.895628 15.5161233,11.8833358 C15.4246145,11.3045085 15.3359739,10.7820888 15.2607181,10.2574839 C15.1871014,9.74380535 15.1271426,9.22794155 15.058033,8.68776645 Z M17.6996326,8.82530281 C17.8845623,9.82821197 18.070175,10.8348088 18.2623434,11.8769165 L20.8729393,11.8769165 C20.3503831,11.1057841 19.5240723,11.4088558 18.8336588,11.1952442 C18.8172692,10.9696136 18.8026551,10.76966 18.7859923,10.5411612 C19.1439693,10.4456915 19.4613819,10.3610117 19.879864,10.249289 C18.6190912,9.65366235 18.6190912,9.65366235 18.5331822,9.12646238 C18.7130584,9.11417015 18.890886,9.11171171 19.0657088,9.08726383 C19.226737,9.06486466 19.3846238,9.01911026 19.5886748,8.97349244 C19.1914992,8.54544977 18.8126255,8.52523589 17.6996326,8.82530281 Z M5.19256457,8.51526553 L4.31886037,8.51526553 C3.72255077,9.53989096 4.20604504,10.9275468 2.95483289,11.6481445 L4.21833727,11.6481445 C4.3741754,10.8938115 4.51676523,10.2035346 4.7104361,9.26632061 C4.86531816,9.88543912 4.95218324,10.2334457 5.03959463,10.5811792 C5.13315214,10.95418 5.22725597,11.3270442 5.35454881,11.8328011 C6.47109278,11.3566821 6.37097942,10.2064028 7.05005668,9.60886401 L7.05005668,11.6440471 C7.35230889,11.7164347 7.62383053,11.7828127 7.89671798,11.8430446 C7.91133207,11.8461859 7.93728233,11.797017 7.97921248,11.7467555 C7.56769603,11.3441168 7.65087343,10.8416378 7.71643198,10.3334225 C7.78062472,9.83490441 7.82296461,9.33324496 7.85601705,8.83158551 C7.86202658,8.73980354 7.77693705,8.64187547 7.72995343,8.53807444 L6.89298933,8.53807444 C6.52763702,9.22384414 6.18645943,9.86399601 5.75254381,10.6784244 C5.52650341,9.80553964 5.35837306,9.15569057 5.19256457,8.51526553 Z M13.1822664,10.5152246 C13.344797,10.6192987 13.5153858,10.9496865 13.4619829,11.1051149 C13.3247197,11.5044757 12.9737083,11.5701708 12.4848874,11.3573787 L12.4848874,10.4925522 C12.7415218,10.4925522 13.0209651,10.4118333 13.1822664,10.5152246 Z M10.2929238,9.11554961 C10.8377426,9.43419146 10.7619405,9.96972283 10.7167325,10.4635972 C10.6687928,10.9880656 10.2992065,11.375817 9.8601008,11.459131 C9.24945026,11.5749511 8.72074791,10.9843779 8.72989879,10.1590231 C8.68373465,9.65941238 8.98748924,9.32451748 9.38944507,9.04152309 C9.71423303,8.81288766 10.0062417,8.947829 10.2929238,9.11554961 Z M9.75807531,10.0239452 C9.65700589,10.0220331 9.49379243,10.1274731 9.46838849,10.2173429 C9.44312113,10.3062567 9.57328216,10.5336629 9.60537853,10.5280631 C9.74960733,10.5032055 9.88318287,10.4167502 10.1168718,10.3076225 C9.94136608,10.1609352 9.85094992,10.0257207 9.75807531,10.0239452 Z M12.4716118,8.90872606 C12.8211208,9.1047188 13.0661458,9.241982 13.4741112,9.47075401 C13.073248,9.69788705 12.8495295,9.82477015 12.4716118,10.0389281 L12.4716118,8.90872606 Z" id="Combined-Shape" fill="#DEBB69"></path>
        </g>
    </g>
</svg>