<?xml version="1.0" encoding="UTF-8"?>
<svg width="24px" height="24px" viewBox="0 0 24 24" version="1.1" xmlns="http://www.w3.org/2000/svg" xmlns:xlink="http://www.w3.org/1999/xlink">
    <!-- Generator: Sketch 55.1 (78136) - https://sketchapp.com -->
    <title>Flags/montenegro</title>
    <desc>Created with Sketch.</desc>
    <g id="Icons" stroke="none" stroke-width="1" fill="none" fill-rule="evenodd">
        <g id="Flags/montenegro">
            <g id="montenegro">
                <path d="M12,23.5 C5.64872538,23.5 0.5,18.3512746 0.5,12 C0.5,5.64872538 5.64872538,0.5 12,0.5 C18.3512746,0.5 23.5,5.64872538 23.5,12 C23.5,18.3512746 18.3512746,23.5 12,23.5 Z" id="Combined-Shape" fill="#C8414B" fill-rule="nonzero"></path>
                <path d="M12,23 C18.0751322,23 23,18.0751322 23,12 C23,5.92486775 18.0751322,1 12,1 C5.92486775,1 1,5.92486775 1,12 C1,18.0751322 5.92486775,23 12,23 Z M12,24 C5.372583,24 0,18.627417 0,12 C0,5.372583 5.372583,-5.55111512e-15 12,-5.55111512e-15 C18.627417,-5.55111512e-15 24,5.372583 24,12 C24,18.627417 18.627417,24 12,24 Z" id="Combined-Shape" fill="#E6B432" fill-rule="nonzero"></path>
                <circle id="Oval" fill="#41479B" fill-rule="nonzero" cx="17.1820312" cy="15.9614062" r="1"></circle>
                <g id="Group" transform="translate(5.109375, 5.812500)" fill="#E6B432" fill-rule="nonzero">
                    <path d="M13.7593125,4.63078125 C13.0519688,5.2254375 12.5762812,5.25046875 12.5762812,5.25046875 C13.8344531,4.7371875 13.7029688,3.76073437 13.7029688,3.76073437 C13.1083125,4.54317188 12.5011406,4.76226562 12.5011406,4.76226562 C13.7655469,3.90473437 13.56525,2.75296875 13.56525,2.75296875 C13.1521406,3.66684375 12.6294844,4.02365625 12.6294844,4.02365625 C13.6810781,2.62467187 13.1646563,1.7233125 13.1646563,1.7233125 C12.7515469,3.01903125 12.4041094,3.39459375 12.4041094,3.39459375 C13.2115781,1.2350625 12.5199375,0.612234375 12.5199375,0.612234375 C12.5199375,1.77023437 12.0880312,2.43375 12.0880312,2.43375 C12.5387344,0.906421875 11.8313906,0.03009375 11.8313906,0.03009375 C11.8313906,0.03009375 11.8247812,1.27523437 11.5849219,1.9275 C11.5273594,1.840125 11.493375,1.85160937 11.493375,1.85160937 C11.3714531,2.6514375 10.9416094,3.21445312 10.7560312,3.426375 C10.7148281,3.22701562 10.5908906,3.16598437 10.5908906,3.16598437 C10.5908906,3.16598437 10.5685312,3.3616875 10.3929375,3.65025 C10.2779062,3.83929687 9.7344375,4.28025 9.64682812,4.66832812 C9.5765625,4.97948437 9.88467187,5.23795312 9.98484375,5.30053125 C10.0849687,5.36310937 10.1914219,5.47579687 10.1475937,5.65734375 C10.1037656,5.83884375 9.7783125,5.82009375 9.54670312,5.8138125 C9.31509375,5.80757812 9.28382812,6.189375 9.0271875,6.17685937 L8.9836875,6.461625 L8.88323437,6.48360937 C8.88323437,6.48360937 7.83164062,8.57910937 7.74210937,9.29217187 L6.96782812,9.39426562 L6.19354687,9.29217187 C6.10401562,8.57910937 5.05242187,6.48360937 5.05242187,6.48360937 L4.95196875,6.461625 L4.90846875,6.17685937 C4.65182812,6.189375 4.62051562,5.80757813 4.38895312,5.8138125 C4.15734375,5.82004687 3.83184375,5.83884375 3.7880625,5.65734375 C3.74423437,5.47579688 3.85064062,5.36315625 3.9508125,5.30053125 C4.05098437,5.23790625 4.35909375,4.97948438 4.28882813,4.66832813 C4.20121875,4.28025 3.65775,3.83929687 3.54271875,3.65025 C3.367125,3.3616875 3.34476562,3.16598438 3.34476562,3.16598438 C3.34476562,3.16598438 3.22082812,3.22701562 3.179625,3.426375 C2.99404687,3.21445313 2.56420312,2.65139062 2.44228125,1.85160938 C2.44228125,1.85160938 2.40829687,1.840125 2.35073437,1.9275 C2.11092187,1.27523438 2.10426562,0.03009375 2.10426562,0.03009375 C2.10426562,0.03009375 1.39692187,0.906421875 1.847625,2.43375 C1.847625,2.43375 1.41571875,1.77023437 1.41571875,0.612234375 C1.41571875,0.612234375 0.72403125,1.2350625 1.53154687,3.39459375 C1.53154687,3.39459375 1.18415625,3.01903125 0.771,1.7233125 C0.771,1.7233125 0.254578125,2.62467188 1.30617187,4.02365625 C1.30617187,4.02365625 0.783515625,3.66684375 0.37040625,2.75296875 C0.37040625,2.75296875 0.170109375,3.9046875 1.43451562,4.76226562 C1.43451562,4.76226562 0.82734375,4.54317187 0.2326875,3.76073437 C0.2326875,3.76073437 0.10125,4.73723437 1.359375,5.25046875 C1.359375,5.25046875 0.883640625,5.2254375 0.17634375,4.63078125 C0.17634375,4.63078125 0.0511875,5.49459375 1.69115625,5.93901563 C1.69115625,5.93901563 1.02140625,5.9265 0.33909375,5.4695625 C0.33909375,5.4695625 0.320296875,6.32085938 1.72242188,6.48984375 C1.72242188,6.48984375 1.25920313,6.55870313 0.7396875,6.37092188 C0.7396875,6.37092188 0.758484375,7.05946875 1.9790625,7.14707813 C1.9790625,7.14707813 1.49709375,7.184625 1.18410938,7.10953125 C1.18410938,7.10953125 1.21542188,7.816875 2.17935938,7.69790625 C2.17935938,7.69790625 1.85385938,7.8043125 1.74745313,7.835625 C1.74745313,7.835625 1.76625,8.41307813 2.770875,8.2065 C2.770875,8.2065 2.59246875,8.31759375 2.34834375,8.35514063 C2.34834375,8.35514063 2.55492188,8.83710938 3.39370312,8.62429688 L3.22157812,8.81207813 C3.22157812,8.81207813 3.8694375,9.18764063 4.3670625,8.67121875 L4.18865625,8.9904375 C4.18865625,8.9904375 4.6111875,9.15004687 4.8740625,8.7369375 C4.8740625,8.7369375 4.8020625,9.356625 3.92573437,9.4693125 C3.92573437,9.4693125 3.95704687,9.60075 3.99459375,9.6508125 C3.99459375,9.6508125 3.93825,9.75721875 3.43125,9.844875 C3.43125,9.844875 3.53765625,10.007625 3.65029687,10.0576875 C3.65029687,10.0576875 3.43125,10.2454688 3.31228125,10.2830156 C3.31228125,10.2830156 3.5000625,10.3769063 3.61903125,10.3957031 C3.61903125,10.3957031 3.35615625,10.6523438 3.03060937,10.6585781 C2.70510937,10.6648125 2.12296875,10.6272656 2.12296875,10.6272656 C2.12296875,10.6272656 2.11673437,10.3142813 1.9665,10.045125 C1.81626562,9.77596875 1.76620312,9.755625 1.76620312,9.755625 C1.76620312,9.755625 1.7990625,9.53967188 1.70517187,9.45046875 C1.61128125,9.36126563 1.559625,9.31903125 1.559625,9.31903125 C1.559625,9.31903125 1.6096875,8.887125 1.47196875,8.61796875 C1.33425,8.3488125 0.846046875,7.7604375 0.821015625,7.32225 C0.795984375,6.88410938 0.814734375,6.72135938 0.814734375,6.72135938 L0.6645,6.75890625 L0.564375,6.55232813 L0.733359375,6.53353125 L0.6645,6.22054688 L0.432890625,6.30815625 L0.401578125,6.039 L0.1261875,6.1516875 L0.26390625,6.3958125 L0.01978125,6.46467188 L0.163734375,6.75257813 L0.351515625,6.63365625 L0.401578125,6.88401563 C0.401578125,6.88401563 0.288890625,6.90904688 0.2263125,7.00921875 C0.2263125,7.00921875 0.536015625,7.2148125 0.62690625,7.45992188 C0.770859375,7.848 0.727078125,8.72432813 0.93365625,8.98725 C1.14023438,9.250125 1.3029375,9.43167188 1.3029375,9.43167188 C1.3029375,9.43167188 1.24504687,9.61007813 1.31076562,9.70865625 C1.37648437,9.80723438 1.470375,9.83540625 1.470375,9.83540625 C1.470375,9.83540625 1.41403125,10.2344531 1.55957812,10.4973281 C1.705125,10.7602031 1.78959375,10.8259688 1.78959375,10.8259688 C1.78959375,10.8259688 1.25910937,11.149875 1.63467187,11.5254844 C1.63467187,11.5254844 1.58460937,11.8665938 1.941375,11.9480156 C1.941375,11.9480156 1.96017188,12.2171719 2.266875,12.1858594 C2.266875,12.1858594 2.41710938,12.1420313 2.45465625,12.2171719 C2.49220312,12.2922656 2.45465625,12.7241719 2.45465625,12.7241719 C2.45465625,12.7241719 2.592375,12.7116563 2.67998437,12.6490781 L2.955375,12.7867969 L2.96165625,12.4800938 L3.30590625,12.342375 C3.30590625,12.342375 3.15567187,12.3674063 2.84896875,12.0795 C2.84896875,12.0795 2.89903125,12.0481875 2.93657812,11.8040625 C2.93657812,11.8040625 3.18070312,11.6100469 3.23076562,11.4535313 C3.28082813,11.2970625 3.625125,10.9527656 4.02571875,10.840125 L4.08051563,11.08425 C4.08051563,11.08425 4.65323438,10.57725 4.89267187,10.5490781 L5.08982813,10.8088594 C5.08982813,10.8088594 5.8284375,9.7134375 6.1539375,9.51942188 C6.12890625,9.60703125 6.31040625,9.61959375 5.90667187,10.07025 C5.5029375,10.5209531 5.75329688,10.8777188 5.75329688,10.8777188 C5.5029375,11.0842969 5.553,11.2720781 5.5216875,11.4848906 C5.490375,11.6977031 4.657875,12.2485313 4.657875,12.2485313 C4.92075,12.5802656 5.21498437,12.5051719 5.21498437,12.5051719 C5.05223437,12.6115781 5.10229687,12.9683906 5.10229687,12.9683906 C5.34014063,13.0309688 5.57803125,12.9245625 5.57803125,12.9245625 C5.49665625,13.1498906 5.62185937,13.3064063 5.62185937,13.3064063 C5.77209375,13.2125156 6.11639062,13.1561719 6.11639062,13.1561719 C6.0725625,13.54425 6.32296875,13.7508281 6.32296875,13.7508281 L6.54201563,13.5129844 C6.5795625,13.951125 6.9676875,14.2015313 6.9676875,14.2015313 C6.9676875,14.2015313 7.35576563,13.951125 7.39335938,13.5129844 L7.61240625,13.7508281 C7.61240625,13.7508281 7.8628125,13.54425 7.81898438,13.1561719 C7.81898438,13.1561719 8.16328125,13.2125156 8.31351563,13.3064063 C8.31351563,13.3064063 8.43867188,13.1499375 8.35734375,12.9245625 C8.35734375,12.9245625 8.5951875,13.0309688 8.83307813,12.9683906 C8.83307813,12.9683906 8.88314063,12.6115781 8.72039063,12.5051719 C8.72039063,12.5051719 9.01457813,12.5802656 9.2775,12.2485313 C9.2775,12.2485313 8.445,11.6977031 8.4136875,11.4848906 C8.382375,11.2720781 8.43248438,11.0842969 8.18207813,10.8777188 C8.18207813,10.8777188 8.4324375,10.5209063 8.02870313,10.07025 C7.62496875,9.61954688 7.80646875,9.60703125 7.7814375,9.51942188 C8.1069375,9.71348438 8.84554688,10.8088594 8.84554688,10.8088594 L9.04270313,10.5490781 C9.28214063,10.57725 9.85485938,11.08425 9.85485938,11.08425 L9.90965625,10.840125 L9.91996875,10.828875 C10.2186094,10.9896563 10.7118281,11.2072031 10.9111875,11.3596406 C11.124,11.5223906 11.2992656,11.5349063 11.8125469,11.3596406 C12.3258281,11.184375 13.2808125,10.9148438 13.1395781,10.596 C13.1318906,10.5786094 13.123125,10.5669375 13.1147344,10.5533906 C13.1371875,10.4710313 13.146375,10.3273125 12.995625,10.2016406 C12.995625,10.2016406 12.9974063,10.2366563 12.9961875,10.2815156 L12.5068594,10.0991719 C12.4906406,10.0559063 12.4665,10.0134375 12.4197656,9.9763125 C12.4197656,9.9763125 12.4205156,10.0139063 12.4137656,10.0644844 L12.2882344,10.0177031 L12.5386875,9.31303125 C12.51975,9.3024375 12.4984219,9.29653125 12.4787813,9.28725 C12.4838438,9.22345313 12.4959375,9.1351875 12.5145,9.04298438 C12.5756719,9.06435938 12.6315469,9.09079688 12.6720469,9.1239375 L12.7427344,8.86589063 C12.7427344,8.86589063 12.66675,8.86092188 12.5664375,8.84217188 C12.5917969,8.76435938 12.6217969,8.69446875 12.6575156,8.64932813 L12.3257813,8.54915625 C12.3257813,8.54915625 12.3343594,8.64965625 12.3284531,8.77514063 C12.2651719,8.74945313 12.2047031,8.71682813 12.1559063,8.67501563 L12.0781406,8.96132813 C12.1048594,8.96292188 12.1954219,8.97075 12.300375,8.98940625 C12.2814375,9.07345313 12.2480625,9.14803125 12.2001094,9.204 C12.18825,9.20240625 12.177375,9.1981875 12.165375,9.19701563 L11.9221406,9.88134375 L11.2624688,9.63548438 C11.2341563,9.68001563 11.2124063,9.72848438 11.1919688,9.77760938 C11.1954844,9.7704375 11.1985781,9.75932813 11.2022813,9.75478125 C11.2022813,9.75478125 10.9470469,9.88823437 10.9505625,10.0843594 C10.9035938,10.1022187 10.8623906,10.1374688 10.8391406,10.1985469 C10.7640469,10.3957031 11.2240781,10.8370312 11.1114375,10.8933281 C11.0008594,10.9486406 10.4228906,10.472625 10.3303125,10.3927031 C10.4494219,10.3695469 10.6231875,10.2830156 10.6231875,10.2830156 C10.5042656,10.2454688 10.2851719,10.0576875 10.2851719,10.0576875 C10.3978594,10.007625 10.5042188,9.844875 10.5042188,9.844875 C9.99721875,9.75721875 9.940875,9.6508125 9.940875,9.6508125 C9.97842188,9.60075 10.0097344,9.4693125 10.0097344,9.4693125 C9.13340625,9.356625 9.06140625,8.7369375 9.06140625,8.7369375 C9.32428125,9.15004687 9.7468125,8.9904375 9.7468125,8.9904375 L9.56840625,8.67121875 C10.0660313,9.18764062 10.7138906,8.81207812 10.7138906,8.81207812 L10.5417656,8.62429687 C11.3805469,8.83710937 11.587125,8.35514062 11.587125,8.35514062 C11.343,8.31759375 11.1645938,8.2065 11.1645938,8.2065 C12.1692188,8.41307812 12.1880156,7.835625 12.1880156,7.835625 C12.0816094,7.8043125 11.7561094,7.69790625 11.7561094,7.69790625 C12.7200469,7.81682812 12.7513594,7.10953125 12.7513594,7.10953125 C12.438375,7.184625 11.9564063,7.14707812 11.9564063,7.14707812 C13.1769844,7.05942187 13.1957813,6.37092187 13.1957813,6.37092187 C12.6762188,6.55870312 12.2130469,6.48984375 12.2130469,6.48984375 C13.6151719,6.32085937 13.596375,5.4695625 13.596375,5.4695625 C12.9141094,5.9265 12.2443125,5.93901562 12.2443125,5.93901562 C13.8844687,5.49459375 13.7593125,4.63078125 13.7593125,4.63078125 Z M12.3368438,10.8229687 C12.27,10.7143125 12.429375,10.6172813 12.5011406,10.5138281 L12.7785469,10.6171875 C12.6842813,10.7294531 12.40575,10.9349531 12.3368438,10.8229687 Z M12.1514531,10.3835156 C12.0615,10.5229219 11.998875,10.6793437 11.7218438,10.6867969 C11.3744531,10.6961719 11.3181094,10.3863281 11.2430156,10.2173437 C11.221125,10.1680781 11.1833438,10.1308594 11.1399844,10.1053594 C11.1397969,10.0750781 11.1414375,10.0417031 11.1441094,10.0080938 L12.1514531,10.3835156 Z" id="Shape"></path>
                    <path d="M6.86446875,3.77010937 C6.86446875,3.77010937 6.4185,3.38985937 6.28701563,3.18328125 C6.28701563,3.18328125 6.43725,3.12225 6.51234375,3.02835937 C6.51234375,3.02835937 6.10860938,2.81240625 5.89265625,2.59176562 C5.89265625,2.59176562 6.03351563,2.56828125 6.14146875,2.47907812 C6.14146875,2.47907812 5.77889063,2.41359375 5.595,2.11664062 C6.01425,1.97353125 5.87390625,1.58240625 5.87390625,1.58240625 C5.78939063,1.69509375 5.442,1.83590625 5.0664375,1.67629688 C4.690875,1.5166875 4.27776563,1.62932813 4.27776563,1.83590625 C4.27776563,1.83590625 3.43275,1.59178125 3.64401563,2.40867188 C3.64401563,2.40867188 3.78014063,2.10351563 4.08060938,2.21620313 C4.38107813,2.32889063 4.68623438,2.71382813 4.68623438,2.71382813 C4.68623438,2.71382813 4.49845313,2.81709375 4.1510625,2.70445313 C4.1510625,2.70445313 4.29192187,3.2443125 4.92567188,2.9720625 C4.92567188,2.9720625 5.17603125,3.10664063 5.18854688,3.50095313 C5.18854688,3.50095313 5.29495313,3.44460938 5.3638125,3.31945313 C5.3638125,3.31945313 5.46398438,3.70129688 5.33254688,4.01423438 C5.33254688,4.01423438 5.5078125,3.98292188 5.56415625,3.92657813 C5.56415625,3.92657813 5.61421875,4.2583125 5.39517188,4.52746875 C5.39517188,4.52746875 6.3575625,4.986 6.967875,4.48364063 C6.967875,4.48364063 6.73785938,4.22076563 6.66271875,3.97664063 C6.662625,3.9766875 6.789375,3.92503125 6.86446875,3.77010937 Z" id="Shape"></path>
                    <path d="M9.65779688,1.83595313 C9.65779688,1.629375 9.2446875,1.51673438 8.869125,1.67634375 C8.4935625,1.83595313 8.14617188,1.69514063 8.06165625,1.58245313 C8.06165625,1.58245313 7.9213125,1.97357813 8.3405625,2.1166875 C8.15667188,2.41364063 7.79409375,2.479125 7.79409375,2.479125 C7.90204687,2.56832812 8.04290625,2.5918125 8.04290625,2.5918125 C7.82695312,2.81245313 7.42321875,3.02840625 7.42321875,3.02840625 C7.4983125,3.12229687 7.64854687,3.18332813 7.64854687,3.18332813 C7.51710938,3.38990625 7.07109375,3.77015625 7.07109375,3.77015625 C7.1461875,3.92507813 7.27298437,3.97673438 7.27298437,3.97673438 C7.19789063,4.22085938 6.96782812,4.48373438 6.96782812,4.48373438 C7.57814062,4.98604688 8.54053125,4.5275625 8.54053125,4.5275625 C8.3214375,4.25840625 8.37154687,3.92667188 8.37154687,3.92667188 C8.42789062,3.98301563 8.60315625,4.01432813 8.60315625,4.01432813 C8.47171875,3.70134375 8.57189062,3.31954688 8.57189062,3.31954688 C8.64075,3.44470313 8.74715625,3.50104688 8.74715625,3.50104688 C8.75967187,3.1066875 9.01003125,2.97215625 9.01003125,2.97215625 C9.64378125,3.24445313 9.78464062,2.70454688 9.78464062,2.70454688 C9.43725,2.81723438 9.24946875,2.71392188 9.24946875,2.71392188 C9.24946875,2.71392188 9.554625,2.32898438 9.85509375,2.21629688 C10.1555625,2.10360938 10.2916875,2.40876563 10.2916875,2.40876563 C10.5028125,1.59182813 9.65779688,1.83595313 9.65779688,1.83595313 Z" id="Shape"></path>
                    <path d="M9.27515625,6.823125 C9.19275,6.34335937 9.12173438,5.92898438 9.3286875,5.4541875 L9.36726563,5.3655 L8.54760938,4.42425 L8.45071875,4.45654688 C8.44232813,4.45940625 7.58559375,4.73948437 7.0363125,4.46475 L6.96782813,4.43048438 L6.89934375,4.46475 C6.35259375,4.73873438 5.49360938,4.45935938 5.48475,4.45635938 L5.38785938,4.42434375 L4.56834375,5.36545313 L4.60692188,5.45414063 C4.813875,5.9289375 4.74285938,6.34335938 4.66045313,6.82307813 C4.58282813,7.27607812 4.49475,7.78959375 4.64967188,8.41589063 C4.81790625,9.09571875 5.38425,9.33740625 5.88389063,9.55082813 C6.26896875,9.71517187 6.63267187,9.87042187 6.8383125,10.1962969 L6.96782812,10.4016094 L7.09734375,10.1962969 C7.30298437,9.87042187 7.6666875,9.71521875 8.05176562,9.55082813 C8.55140625,9.33740625 9.11775,9.09576562 9.28598437,8.41589063 C9.44085938,7.78964062 9.35273438,7.276125 9.27515625,6.823125 Z M4.92464062,5.42245312 L5.48723437,4.7765625 C5.74204687,4.84654687 6.430875,4.9981875 6.96773437,4.77028125 C7.50445312,4.9981875 8.19328125,4.84654688 8.44823437,4.7765625 L9.01082812,5.42245312 C8.81329687,5.94271875 8.8910625,6.39632812 8.97314062,6.874875 C9.03459375,7.23342187 9.09571875,7.60284375 9.0444375,8.02828125 L4.89103125,8.02828125 C4.83970313,7.60284375 4.900875,7.23342187 4.96232813,6.874875 C5.04445312,6.39632812 5.12221875,5.94271875 4.92464062,5.42245312 Z M7.9314375,9.26910937 C7.58329687,9.41775 7.225125,9.57060937 6.96773437,9.86071875 C6.71034375,9.57060937 6.35217187,9.41775 6.00403125,9.26910937 C5.5155,9.06051562 5.094,8.87821875 4.9550625,8.36634375 L8.98035937,8.36634375 C8.84146875,8.87821875 8.42001563,9.06051562 7.9314375,9.26910937 Z" id="Shape"></path>
                </g>
                <circle id="Oval" stroke="#FFFFFF" cx="12" cy="12" r="11.5"></circle>
                <path d="M10.0340156,11.2349531 L10.5966094,10.5890625 C10.8514219,10.6590469 11.54025,10.8106875 12.0771094,10.5827813 C12.6138281,10.8106875 13.3026563,10.6590469 13.5576094,10.5890625 L14.1202031,11.2349531 C13.9226719,11.7552187 14.0004375,12.2088281 14.0825156,12.687375 C14.1439688,13.0459219 14.2050938,13.4153437 14.1538125,13.8407812 L10.0004063,13.8407812 C9.94907813,13.4153437 10.01025,13.0459219 10.0717031,12.687375 C10.1538281,12.2088281 10.2315938,11.7552187 10.0340156,11.2349531 Z" id="Shape" fill="#41479B" fill-rule="nonzero"></path>
                <path d="M10.042875,14.0895469 C10.0477031,14.1115312 10.0507969,14.132625 10.0563281,14.1548906 C10.1879531,14.6865469 10.6168125,14.8695937 11.1135,15.0816562 C11.4616406,15.2302969 11.8198125,15.3831563 12.0772031,15.6732656 C12.3345937,15.3831562 12.6927188,15.2302969 13.0409063,15.0816562 C13.5375469,14.8695937 13.9664531,14.6865469 14.0980781,14.1548906 C14.1036094,14.132625 14.1066563,14.1114844 14.1115313,14.0895469 L10.042875,14.0895469 Z" id="Shape" fill="#73AF00" fill-rule="nonzero"></path>
                <g id="Group" transform="translate(10.265625, 3.750000)" fill="#E6B432" fill-rule="nonzero">
                    <path d="M3.64917187,8.56410937 C3.64917187,8.28717187 3.38596875,8.24348437 3.14667187,8.24826562 C2.907375,8.25304687 2.5573125,8.2093125 2.5485,8.02335937 C2.54296875,7.90739062 2.73754687,7.8965625 2.86434375,7.93720312 C2.9379375,7.96078125 3.39553125,8.04248437 3.53910937,7.73620312 C3.53910937,7.73620312 3.37171875,7.74159375 3.1951875,7.70198437 C3.0590625,7.67142187 2.5006875,7.74098437 2.4001875,7.95632812 C2.2996875,8.17167187 2.62378125,8.38659375 2.99704687,8.38659375 C3.3703125,8.38659375 3.42154687,8.4613125 3.41864062,8.55234375 C3.41479687,8.67192187 3.11882812,8.7058125 2.94867187,8.70421875 C2.68092187,8.60695312 2.05598437,8.68317187 2.05303125,8.67126562 C2.04942187,8.656875 1.90889062,8.41546875 1.90889062,8.41546875 C1.90889062,8.41546875 2.16473437,8.39746875 2.19717187,8.35059375 C2.22960937,8.30376562 2.0030625,8.12385937 2.0030625,8.12385937 C2.0030625,8.12385937 2.1935625,8.04792187 2.20078125,7.993875 C2.20870312,7.9344375 2.04614062,7.79367187 2.04614062,7.79367187 C2.04614062,7.79367187 2.10895312,7.73175 2.15620312,7.6261875 C2.19,7.55067187 1.92173437,7.53046875 1.92173437,7.53046875 C1.93607812,7.47304687 1.93059375,7.41735937 1.85953125,7.39167187 C1.80459375,7.37184375 1.60110937,7.44909375 1.4623125,7.44909375 C1.32351562,7.44909375 1.270875,7.54959375 1.270875,7.54959375 C1.270875,7.54959375 1.02679687,7.57832812 0.993328125,7.60701562 C0.9598125,7.63575 1.00289062,7.82235937 1.00289062,7.82235937 C0.878484375,7.80323437 0.8210625,7.69317187 0.8210625,7.69317187 C0.758859375,7.9755 1.05075,8.00423437 1.05075,8.00423437 L1.09860937,8.157375 C1.09860937,8.157375 1.09860937,8.157375 1.21823437,8.17171875 C1.33785937,8.1860625 1.2804375,8.30090625 1.09382812,8.30090625 C0.907171875,8.30090625 0.827953125,8.52351562 0.827953125,8.52351562 C0.69825,8.527125 0.62615625,8.42264062 0.597328125,8.28932812 C0.56559375,8.1425625 0.584296875,7.91714062 0.60815625,7.77407812 C0.636984375,7.60110937 0.5505,7.55067187 0.5505,7.55067187 L0.49284375,7.6948125 C0.489234375,7.5470625 0.35953125,7.53267187 0.35953125,7.53267187 L0.337921875,7.71285937 C0.273046875,7.5939375 0.16134375,7.64798437 0.16134375,7.64798437 C0.16134375,7.64798437 0.2694375,8.03714062 0.265828125,8.05875 C0.26221875,8.08035937 0.22621875,8.09835937 0.175734375,8.04435937 C0.125296875,7.9903125 0.08925,8.02635937 0.08925,8.02635937 C0.143296875,8.41551562 0.351984375,8.35842187 0.351984375,8.35842187 C0.351984375,8.35842187 0.3613125,8.48029687 0.4243125,8.72779687 C0.491578125,8.99203125 0.768328125,8.94225 0.768328125,8.94225 C0.768328125,9.02840625 0.8353125,9.1528125 0.854484375,9.43992187 C0.873609375,9.72703125 0.61040625,9.92803125 0.61040625,9.92803125 C0.371109375,9.92325 0.3950625,10.1577188 0.3950625,10.1577188 L1.05548437,10.1577188 C1.05548437,9.54707812 1.3179375,9.44235937 1.3179375,9.44235937 C1.70709375,9.46035937 2.0818125,9.29821875 2.0818125,9.29821875 C2.02415625,9.53240625 2.12507812,9.62971875 2.12507812,9.62971875 C2.28360937,9.60810937 2.20434375,9.9215625 2.15746875,9.9215625 C2.11064062,9.9215625 2.01332812,9.9215625 1.95567187,9.9215625 C1.89801562,9.9215625 1.73226562,10.10175 1.73226562,10.10175 L2.416875,10.10175 C2.416875,10.10175 2.52135937,9.95039062 2.55740625,9.87473437 C2.59340625,9.79907812 2.47814062,9.69454687 2.47092187,9.61528125 C2.46370312,9.53601562 2.58984375,9.48557812 2.58984375,9.48557812 C2.72315625,9.6729375 3.0294375,9.68376562 3.0294375,9.68376562 L3.02221875,9.54323437 C3.02221875,9.54323437 3.18075,9.59728125 3.21679687,9.64410937 C3.25279687,9.6909375 3.245625,9.907125 3.05465625,9.93239062 C2.8636875,9.95760937 2.84925,10.0945312 2.84925,10.0945312 C2.84925,10.0945312 3.28523437,10.0945312 3.37171875,10.0945312 C3.45820312,10.0945312 3.52664062,9.93239062 3.52664062,9.871125 C3.52664062,9.80985937 3.52664062,9.40992187 3.52664062,9.3234375 C3.52664062,9.23695312 3.45459375,9.24778125 3.28523437,9.22978125 C3.13139062,9.21342187 3.14610937,9.04514062 3.08273437,8.84976562 C3.30525,8.84221875 3.64917187,8.7935625 3.64917187,8.56410937 Z" id="Shape"></path>
                    <path d="M3.608625,2.01632812 C3.56578125,1.63846875 3.2645625,1.15734375 2.11729688,0.931828125 C2.1135,0.809953125 2.0385,0.70659375 1.93134375,0.66309375 L1.93134375,0.452578125 L2.119125,0.452578125 L2.119125,0.22725 L1.93134375,0.22725 L1.93134375,0.03946875 L1.70601563,0.03946875 L1.70601563,0.22725 L1.51823438,0.22725 L1.51823438,0.452578125 L1.70601563,0.452578125 L1.70601563,0.66309375 C1.59885938,0.70659375 1.52385938,0.809953125 1.5200625,0.931828125 C0.372796875,1.15734375 0.071578125,1.63846875 0.028734375,2.01632812 C-0.024703125,2.48746875 0.312703125,2.9341875 0.616875,3.10542187 L0.616875,3.34448437 L3.02053125,3.34448437 L3.02053125,3.10542187 C3.32465625,2.93423437 3.6620625,2.48746875 3.608625,2.01632812 Z M2.35035938,2.74354688 L2.0139375,2.74354688 L2.0139375,1.35782813 C2.29125,1.48307813 2.4628125,1.67521875 2.51273438,1.93903125 C2.5749375,2.26757813 2.44359375,2.60254687 2.35035938,2.74354688 Z M1.12457813,1.93889063 C1.1745,1.67507813 1.3460625,1.48298438 1.623375,1.35778125 L1.623375,2.74359375 L1.28690625,2.74359375 C1.19357812,2.60254687 1.06228125,2.2674375 1.12457813,1.93889063 Z M0.84646875,1.5583125 C0.791203125,1.66898437 0.756046875,1.77970312 0.738046875,1.881375 C0.683625,2.18920312 0.746015625,2.502 0.849,2.74354687 L0.770015625,2.74354687 C0.6015,2.62748437 0.3849375,2.3420625 0.416859375,2.06034375 C0.43921875,1.86332813 0.5885625,1.69420312 0.84646875,1.5583125 Z M2.86729687,2.74354687 L2.78821875,2.74354687 C2.89125,2.50204688 2.95364062,2.18925 2.8993125,1.88151563 C2.8813125,1.77979687 2.84610937,1.66898437 2.79079687,1.55826562 C3.04870312,1.69415625 3.19814062,1.86332812 3.22045312,2.06034375 C3.252375,2.3420625 3.0358125,2.62748437 2.86729687,2.74354687 Z" id="Shape"></path>
                </g>
            </g>
        </g>
    </g>
</svg>