<svg width="24" height="24" viewBox="0 0 24 24" fill="none" xmlns="http://www.w3.org/2000/svg">
<path d="M12 23.8C18.517 23.8 23.8 18.517 23.8 12C23.8 5.48304 18.517 0.199997 12 0.199997C5.48305 0.199997 0.200012 5.48304 0.200012 12C0.200012 18.517 5.48305 23.8 12 23.8Z" fill="#503F32"/>
<mask id="mask0" mask-type="alpha" maskUnits="userSpaceOnUse" x="0" y="0" width="24" height="24">
<path d="M12 23.8C18.517 23.8 23.8 18.517 23.8 12C23.8 5.48304 18.517 0.199997 12 0.199997C5.48305 0.199997 0.200012 5.48304 0.200012 12C0.200012 18.517 5.48305 23.8 12 23.8Z" fill="white"/>
</mask>
<g mask="url(#mask0)">
<path d="M5.05101 12.14L4.45401 13.275L5.67201 15.942L6.24101 17.144L6.70701 17.795L7.26501 18.228L8.32901 18.678L9.21401 18.514L10.71 18.678L11.315 18.28L10.9 16.964L12.025 16.895L13.134 16.358L14.626 16.778L16.132 16.167L18.025 16.133L18.795 15.007L19.747 12.673L13.601 9.744L5.05101 12.14Z" fill="url(#paint0_linear)"/>
<path d="M9.09099 17.669L9.01199 18.514L10.933 18.531L10.533 17.737L9.40099 17.595L9.09099 17.669Z" fill="#DEBB69"/>
<mask id="mask1" mask-type="alpha" maskUnits="userSpaceOnUse" x="4" y="5" width="17" height="14">
<path d="M4.25 5.5H20.053V18.882H4.25V5.5Z" fill="white"/>
</mask>
<g mask="url(#mask1)">
<path d="M19.304 13.579C19.288 13.609 19.283 13.643 19.27 13.676C18.776 14.979 18.948 14.874 17.53 15.085L18.169 15.282C17.878 15.329 17.663 15.364 17.449 15.397L17.452 15.468L18.408 15.422L18.45 15.478C18.263 15.598 18.087 15.748 17.884 15.826C17.637 15.921 17.368 15.972 17.104 16.014C16.59 16.094 16.516 16.003 16.594 15.476C16.644 15.134 16.674 14.786 16.714 14.442C16.753 14.098 16.794 13.754 16.828 13.474C16.711 13.332 16.6 13.244 16.548 13.129C16.292 12.559 16.052 11.982 15.808 11.406C15.691 11.127 15.014 10.709 14.723 10.757C14.658 10.767 14.593 10.839 14.543 10.895C14.257 11.225 13.952 11.542 13.7 11.895C13.556 12.097 13.465 12.353 13.412 12.599C13.238 13.41 13.075 14.226 12.94 15.047C12.89 15.346 12.749 15.473 12.47 15.507C12.106 15.55 11.742 15.602 11.367 15.711L12.113 15.884L12.127 15.942C11.739 15.998 11.35 16.056 10.902 16.12C11.508 16.304 12.062 16.24 12.618 16.117C12.635 16.141 12.653 16.163 12.668 16.187C12.575 16.294 12.496 16.423 12.382 16.502C11.727 16.952 10.767 16.842 10.232 16.25C10.152 16.162 10.109 16.01 10.11 15.886C10.118 15.048 10.14 14.208 10.166 13.368C10.176 13.022 10.184 12.698 10.041 12.358C9.794 11.771 9.621 11.154 9.414 10.552C9.374 10.438 9.323 10.329 9.268 10.201C8.484 10.372 7.816 10.731 7.192 11.185C7.836 10.488 8.652 10.121 9.566 9.938C11.311 9.592 12.995 9.875 14.648 10.451C15.184 10.637 15.707 10.858 16.277 11.001C15.666 10.64 15.07 10.251 14.442 9.922C13.14 9.242 11.704 9.036 10.28 8.795C9.827 8.72 9.367 8.685 8.919 8.591C8.173 8.431 7.529 8.679 6.907 9.036C6.632 9.193 6.37 9.371 6.103 9.541C7.011 8.687 8.021 8.123 9.329 8.393C10.523 8.638 11.724 8.843 12.916 9.097C13.938 9.313 14.854 9.776 15.686 10.403L19.144 13.013C19.343 13.163 19.428 13.341 19.303 13.579H19.304ZM16.268 14.646C16.115 15.237 15.786 15.526 15.177 15.591C14.833 15.627 14.487 15.643 14.143 15.67C14.133 15.7 14.126 15.729 14.118 15.76C14.406 15.814 14.696 15.926 14.978 15.91C15.266 15.896 15.547 15.756 15.858 15.663C15.751 16.053 15.553 16.343 15.153 16.418C14.847 16.476 14.531 16.513 14.222 16.5C13.81 16.482 13.419 16.13 13.408 15.694C13.388 14.914 13.442 14.134 13.473 13.352C13.475 13.303 13.541 13.239 13.593 13.21C14.352 12.788 15.113 12.369 15.873 11.949L15.931 12.02C15.694 12.183 15.456 12.349 15.217 12.512C15.974 13.397 16.539 13.928 16.681 13.862C16.581 13.842 16.581 13.842 16.506 13.8C16.432 13.757 16.496 14.028 16.434 13.99C16.377 14.216 16.324 14.431 16.268 14.645V14.646ZM9.907 12.747C9.963 13.428 9.811 14.159 9.763 14.841C9.746 15.071 9.676 15.157 9.433 15.197C8.787 15.301 8.148 15.367 7.499 15.192C8.114 15.772 8.889 15.605 9.642 15.659C9.606 15.758 9.592 15.837 9.552 15.896C9.216 16.4 8.128 16.526 7.7 16.104C7.037 15.45 6.583 14.717 6.737 13.718C6.825 13.143 6.836 12.558 6.897 11.978C6.911 11.853 6.995 11.736 7.046 11.616C7.089 11.63 7.131 11.643 7.173 11.658C7.233 11.626 7.305 11.605 7.39 11.605C7.412 11.605 7.434 11.608 7.454 11.61C7.974 11.53 8.439 11.603 8.898 11.778C9.107 11.858 9.86 12.176 9.908 12.747H9.907ZM11.054 18.239C11.01 18.199 10.932 18.163 10.924 18.117C10.857 17.644 10.527 17.554 10.124 17.529C9.834 17.512 9.547 17.463 9.262 17.409C9.015 17.363 8.904 17.464 8.882 17.698C8.866 17.888 8.849 18.076 8.83 18.266C8.812 18.458 8.693 18.576 8.515 18.514C8.098 18.368 7.635 18.262 7.303 17.996C7.083 17.823 7.062 17.403 6.961 17.121L6.727 17.612C6.402 17.122 6.61 16.681 6.65 16.248C6.623 16.242 6.597 16.234 6.57 16.227L6.24 17.143V15.717C5.93 15.957 5.738 15.804 5.642 15.589C5.325 14.879 5.038 14.155 4.742 13.435C4.709 13.355 4.695 13.269 4.662 13.151C5.237 12.845 5.852 12.622 6.547 12.683C6.551 12.97 6.551 12.97 5.717 12.986C5.907 13.196 6.073 13.374 6.234 13.55C6.193 13.592 6.181 13.612 6.164 13.619C6.008 13.684 5.851 13.746 5.694 13.809C5.81 13.934 5.933 14.054 6.038 14.185C6.123 14.29 6.207 14.405 6.256 14.528C6.472 15.076 6.655 15.639 6.889 16.18C7.075 16.608 7.446 16.86 7.903 16.92C8.388 16.983 8.881 17.03 9.368 17.011C9.956 16.989 10.492 17.095 10.924 17.495C11.066 17.625 11.104 17.875 11.168 18.077C11.181 18.115 11.095 18.184 11.054 18.239ZM10.653 18.515C10.233 18.48 9.836 18.449 9.44 18.417C9.13 18.391 9.23 18.159 9.226 17.986C9.222 17.796 9.281 17.654 9.513 17.67C9.692 17.682 9.871 17.678 10.049 17.694C10.582 17.744 10.676 17.862 10.653 18.514V18.515ZM6.58 11.941L5.325 10.616C6.055 10.866 6.58 11.445 6.581 11.94L6.58 11.941ZM19.035 10.252C18.188 9.766 17.362 9.236 16.485 8.812C15.605 8.387 14.674 8.066 13.808 7.718C15.754 8.064 17.538 8.855 19.035 10.252ZM17.228 7.52C17.122 7.504 16.983 7.446 16.934 7.364C16.463 6.577 15.742 6.289 14.869 6.286C14.713 6.286 14.553 6.275 14.401 6.302C14.16 6.342 13.998 6.241 13.797 6.117C13.397 5.869 12.95 5.701 12.522 5.498H11.916C11.456 5.692 10.999 5.893 10.533 6.071C10.435 6.109 10.299 6.079 10.189 6.051C9.177 5.788 8.126 5.671 7.339 6.464C6.638 7.17 6.074 8.029 5.539 8.877C5.323 9.224 5.359 9.722 5.254 10.144C5.094 10.795 4.928 11.442 4.736 12.082C4.598 12.539 4.413 12.983 4.25 13.435V13.637C4.829 14.765 5.406 15.893 5.99 17.019C6.055 17.146 6.158 17.253 6.24 17.371C6.435 17.651 6.508 18.071 6.99 18.021C7.24 18.628 7.856 18.661 8.352 18.883H8.487C8.82 18.736 9.146 18.621 9.529 18.736C9.819 18.824 10.133 18.836 10.437 18.883H10.84C10.864 18.846 10.878 18.798 10.91 18.777C11.069 18.677 11.334 18.617 11.373 18.487C11.483 18.117 11.551 17.716 11.273 17.364C11.245 17.33 11.221 17.294 11.163 17.214C11.42 17.187 11.648 17.18 11.867 17.134C12.139 17.077 12.436 17.04 12.662 16.898C12.907 16.746 13.086 16.758 13.329 16.865C14.296 17.296 15.169 16.975 16.003 16.479C16.25 16.332 16.463 16.295 16.75 16.351C17.085 16.415 17.44 16.399 17.784 16.375C18.148 16.351 18.411 16.16 18.612 15.832C19.285 14.728 19.645 13.509 19.985 12.278L20.053 12.023V11.282C19.693 10.711 19.485 10.096 19.366 9.422C19.21 8.534 18.171 7.675 17.228 7.519V7.52Z" fill="url(#paint1_radial)"/>
</g>
<path d="M7.13499 7.71799L5.50699 10.072L4.73599 12.082L6.58099 12.425L6.98799 11.278H8.80699L10.156 12.812L10.285 12.53L11.463 11.81C11.463 11.81 11.618 11.73 11.903 11.758C12.188 11.788 12.733 11.666 12.733 11.666L13.222 13.034L13.259 13.332L15.218 12.512L16.682 13.625L16.828 13.475L16.821 13.14L18.093 12.22L19.645 12.454L19.232 9.49699L14.874 7.22099L7.13399 7.71799H7.13499Z" fill="#DEBB69"/>
<path d="M10.285 12.531C10.338 12.427 10.389 12.321 10.445 12.22C10.81 11.567 11.186 10.918 11.539 10.257C11.625 10.094 11.716 10.047 11.879 10.084C11.91 10.091 11.944 10.099 11.977 10.097C12.645 10.062 12.949 10.342 13.083 11.039C13.209 11.701 13.369 12.336 13.223 13.035C12.935 12.472 12.596 11.969 11.903 11.759C12.244 11.524 12.541 11.321 12.838 11.118C11.894 11.416 11.159 12.072 10.285 12.531Z" fill="url(#paint2_linear)"/>
<path d="M10.284 11.99C10.459 11.347 10.634 10.705 10.809 10.053H11.502L10.206 12.276L9.47601 10.152L10.669 10L10.143 11.966L10.284 11.99Z" fill="url(#paint3_linear)"/>
<path d="M15.876 11.14L18.025 12.246L16.82 13.14L15.816 11.21L15.876 11.14Z" fill="url(#paint4_linear)"/>
<path d="M13.53 11.692V10.869L13.49 10.867C13.467 11.016 13.445 11.167 13.424 11.317L13.359 11.332L12.933 10.222C13.543 10.39 14.064 10.534 14.626 10.687L13.53 11.692Z" fill="url(#paint5_linear)"/>
<mask id="mask2" mask-type="alpha" maskUnits="userSpaceOnUse" x="4" y="5" width="17" height="9">
<path d="M4.25 5.50101H20.053V13.626H4.25V5.50101Z" fill="white"/>
</mask>
<g mask="url(#mask2)">
<path d="M5.324 10.616C6.054 10.866 6.58 11.445 6.581 11.94C6.181 11.519 5.763 11.08 5.324 10.616ZM19.035 10.252C18.187 9.76701 17.361 9.23701 16.485 8.81201C15.605 8.38701 14.675 8.06701 13.807 7.71901C15.754 8.06401 17.538 8.85501 19.035 10.252ZM10.28 8.79601C9.828 8.72001 9.368 8.68601 8.92 8.59101C8.174 8.43101 7.53 8.67901 6.907 9.03601C6.633 9.19301 6.371 9.37201 6.103 9.54101C7.011 8.68701 8.021 8.12301 9.33 8.39101C10.523 8.63801 11.724 8.84301 12.917 9.09601C13.938 9.31301 14.854 9.77601 15.687 10.404L19.064 12.953C19.294 13.072 19.472 13.273 19.625 13.507C19.755 13.101 19.871 12.69 19.985 12.277L20.053 12.023V11.282C19.693 10.711 19.484 10.095 19.366 9.42201C19.21 8.53501 18.171 7.67601 17.227 7.52001C17.122 7.50301 16.982 7.44601 16.933 7.36301C16.463 6.57701 15.743 6.28901 14.869 6.28601C14.713 6.28601 14.553 6.27401 14.4 6.30101C14.16 6.34101 13.998 6.24001 13.797 6.11601C13.397 5.87101 12.95 5.70201 12.521 5.50101H11.916C11.456 5.69301 10.999 5.89401 10.533 6.07301C10.434 6.11001 10.299 6.08101 10.188 6.05201C9.178 5.78901 8.126 5.67201 7.339 6.46501C6.637 7.17101 6.073 8.03001 5.539 8.87901C5.322 9.22401 5.359 9.72301 5.254 10.146C5.095 10.795 4.928 11.442 4.735 12.082C4.597 12.54 4.413 12.984 4.25 13.435V13.625C4.302 13.415 4.44 13.229 4.666 13.15C5.18 12.875 5.729 12.67 6.337 12.675C6.404 12.654 6.479 12.641 6.562 12.641C6.666 12.641 6.758 12.661 6.838 12.693C6.855 12.455 6.872 12.217 6.898 11.979C6.911 11.854 6.944 11.879 7.043 11.762C7.103 11.716 7.163 11.682 7.257 11.654L7.454 11.61C8.059 11.578 8.382 11.582 8.897 11.778C8.992 11.814 9.059 11.856 9.104 11.912C9.145 11.936 9.185 11.964 9.224 11.994C9.354 12.1 9.481 12.206 9.606 12.312C9.608 12.294 9.606 12.331 9.606 12.312C9.757 12.392 9.787 12.41 9.934 12.602C10.01 12.671 10.084 12.741 10.155 12.812C10.137 12.662 10.105 12.512 10.041 12.358C9.794 11.772 9.621 11.155 9.414 10.553C9.375 10.439 9.322 10.33 9.267 10.201C8.483 10.373 7.815 10.731 7.191 11.185C7.836 10.489 8.652 10.121 9.565 9.93901C11.31 9.59201 12.995 9.87601 14.647 10.451C15.183 10.637 15.707 10.858 16.277 11.001C15.667 10.639 15.069 10.251 14.441 9.92301C13.141 9.24101 11.704 9.03701 10.281 8.79601" fill="url(#paint6_linear)"/>
</g>
<path d="M6.83001 11.882V9.744C6.66501 10.12 6.62401 10.832 6.70701 11.882C6.78901 12.932 6.83001 12.932 6.83001 11.882Z" fill="#DEBB69"/>
<path d="M13.594 13.21C14.353 12.787 15.114 12.368 15.874 11.948L15.932 12.021L15.218 12.512C15.975 13.397 16.54 13.927 16.682 13.862L16.676 13.885C16.71 13.889 16.744 13.895 16.776 13.905L16.828 13.475C16.711 13.332 16.6 13.245 16.548 13.129C16.292 12.559 16.052 11.981 15.808 11.405C15.691 11.127 15.014 10.709 14.723 10.757C14.657 10.768 14.593 10.838 14.543 10.895C14.257 11.225 13.952 11.541 13.699 11.895C13.556 12.096 13.465 12.353 13.412 12.598C13.36 12.842 13.309 13.088 13.259 13.332C13.342 13.28 13.441 13.246 13.556 13.235C13.569 13.226 13.581 13.217 13.594 13.21Z" fill="url(#paint7_linear)"/>
</g>
<mask id="mask3" mask-type="alpha" maskUnits="userSpaceOnUse" x="0" y="0" width="24" height="24">
<path d="M12 23.8C18.517 23.8 23.8 18.517 23.8 12C23.8 5.48304 18.517 0.199997 12 0.199997C5.48305 0.199997 0.200012 5.48304 0.200012 12C0.200012 18.517 5.48305 23.8 12 23.8Z" fill="white"/>
</mask>
<g mask="url(#mask3)">
<path d="M12 23.5C18.3513 23.5 23.5 18.3513 23.5 12C23.5 5.64873 18.3513 0.5 12 0.5C5.64873 0.5 0.5 5.64873 0.5 12C0.5 18.3513 5.64873 23.5 12 23.5Z" stroke="white"/>
</g>
<defs>
<linearGradient id="paint0_linear" x1="12.1005" y1="9.744" x2="12.1005" y2="15.5532" gradientUnits="userSpaceOnUse">
<stop stop-color="white"/>
<stop offset="1" stop-color="white"/>
</linearGradient>
<radialGradient id="paint1_radial" cx="0" cy="0" r="1" gradientUnits="userSpaceOnUse" gradientTransform="translate(1.79841 12.2106) rotate(108.405) scale(14.7608 11.0051)">
<stop stop-color="#ECECEC"/>
<stop offset="0.23716" stop-color="#656565"/>
<stop offset="0.59905" stop-color="#545351"/>
<stop offset="1" stop-color="#5F5F5F"/>
</radialGradient>
<linearGradient id="paint2_linear" x1="10.9551" y1="11.7248" x2="13.1217" y2="11.8998" gradientUnits="userSpaceOnUse">
<stop offset="5e-05" stop-color="#DEBB69"/>
<stop offset="1" stop-color="#BD9332"/>
</linearGradient>
<linearGradient id="paint3_linear" x1="10.045" y1="11.2725" x2="11.2097" y2="11.3792" gradientUnits="userSpaceOnUse">
<stop offset="5e-05" stop-color="#DEBB69"/>
<stop offset="1" stop-color="#BB9845"/>
</linearGradient>
<linearGradient id="paint4_linear" x1="16.3101" y1="12.2369" x2="17.9061" y2="12.3548" gradientUnits="userSpaceOnUse">
<stop offset="5e-05" stop-color="#DEBB69"/>
<stop offset="1" stop-color="#E9C36A"/>
</linearGradient>
<linearGradient id="paint5_linear" x1="13.3117" y1="11.0225" x2="14.5346" y2="11.1092" gradientUnits="userSpaceOnUse">
<stop offset="5e-05" stop-color="#DEBB69"/>
<stop offset="1" stop-color="#DEBB69"/>
</linearGradient>
<linearGradient id="paint6_linear" x1="4.79931" y1="9.93094" x2="16.0358" y2="6.83518" gradientUnits="userSpaceOnUse">
<stop offset="5e-05" stop-color="#DEBB69"/>
<stop offset="1" stop-color="#CAA652"/>
</linearGradient>
<linearGradient id="paint7_linear" x1="14.0572" y1="12.4744" x2="16.6356" y2="12.6603" gradientUnits="userSpaceOnUse">
<stop offset="5e-05" stop-color="#DEBB69"/>
<stop offset="1" stop-color="#CEA441"/>
</linearGradient>
</defs>
</svg>
