<?xml version="1.0" encoding="UTF-8"?>
<svg width="24px" height="24px" viewBox="0 0 24 24" version="1.1" xmlns="http://www.w3.org/2000/svg" xmlns:xlink="http://www.w3.org/1999/xlink">
    <!-- Generator: Sketch 55.1 (78136) - https://sketchapp.com -->
    <title>Flags/west_indies</title>
    <desc>Created with Sketch.</desc>
    <g id="Icons" stroke="none" stroke-width="1" fill="none" fill-rule="evenodd">
        <g id="Flags/west_indies">
            <g id="west_indies">
                <rect id="Rectangle-4" x="0" y="0" width="24" height="24"></rect>
                <path d="M2.45499233,19.2737909 C4.3114371,18.2003927 7.04694979,18.3577337 8.6353,19.6927 C10.3773,21.1567 13.5153,21.1717 15.2913,19.6827 C16.9068199,18.328541 19.7032786,18.2108846 21.5154473,19.3123606 C19.5195619,21.9057061 16.4872546,23.6600974 13.0383602,23.9557 L10.9616398,23.9557 C7.49567471,23.6586343 4.45043079,21.8883032 2.45499233,19.2737909 Z" id="Combined-Shape" fill="#012D82"></path>
                <path d="M21.4536224,4.60799886 C19.7457526,5.61291482 17.9035726,5.57161299 16.0303,4.6948 C15.6223,4.5048 15.2763,4.1898 14.8803,3.9698 C12.9273,2.8818 10.9593,2.8688 9.0193,3.9848 C8.2463,4.4288 7.5483,5.0048 6.6373,5.1748 C5.16942982,5.44859962 3.78654079,5.34605413 2.51277215,4.65111739 C4.62465202,1.92869092 7.88245666,0.139704549 11.5625179,0.00782645656 C11.8540955,0.00782402067 12.1456731,0.00782112783 12.4372507,0.00781816416 C16.0979427,0.138932397 19.3408304,1.90975641 21.4536224,4.60799886 Z" id="Combined-Shape" fill="#012D82"></path>
                <path d="M0.434307206,8.78943549 C0.941812899,8.9604532 1.4081606,9.20560867 1.7983,9.5258 C3.0353,10.5388 4.4723,10.8228 6.0273,10.6588 C5.8563,11.5138 5.8523,12.3708 6.0103,13.2278 C4.4863,13.0748 3.0683,13.3308 1.8493,14.3258 C1.43291888,14.6658485 0.93997308,14.927014 0.406244192,15.1074541 C0.14126701,14.1163353 0,13.074665 0,12 C0,10.8880012 0.151252705,9.81132943 0.434307206,8.78943549 Z" id="Combined-Shape" fill="#012D82"></path>
                <path d="M1.68334291,5.86721101 C1.79493444,5.94844785 1.90411112,6.03301837 2.0113,6.1194 C3.7023,7.4814 6.8023,7.4784 8.4903,6.1124 C10.0413,4.8594 11.8063,4.6894 13.6773,5.1644 C14.3383,5.3314 14.9043,5.7004 15.4253,6.1194 C17.1163,7.4804 20.2163,7.4784 21.9043,6.1134 C22.0319649,6.01011497 22.1610884,5.91418369 22.29161,5.82536087 C22.5593736,6.27069902 22.7990495,6.73484404 23.0081869,7.21534501 C22.6730944,7.36200875 22.3626133,7.54303931 22.0883,7.7584 C20.6683,8.8754 19.0413,9.0614 17.3173,8.7454 L17.0923,8.7164 C17.0163,8.6184 16.9373,8.5204 16.8633,8.4184 C15.2843,6.2544 12.5043,5.3784 9.9733,6.2494 C8.6373,6.7084 7.6173,7.5724 6.8193,8.7174 L6.7053,8.7254 C4.8723,9.0924 3.1733,8.8424 1.6633,7.6594 C1.45223764,7.49394408 1.22486417,7.34958011 0.984460597,7.23227353 C1.18880719,6.76078748 1.42253796,6.30499664 1.68334291,5.86721101 Z" id="Combined-Shape" fill="#012D82"></path>
                <path d="M23.0294319,16.7355429 C22.8297187,17.200075 22.6015169,17.6494682 22.3470257,18.0815232 C22.3224671,18.0629755 22.2982219,18.0441345 22.2743,18.025 C20.7743,16.825 19.0933,16.525 17.2523,16.901 C16.5063,17.055 15.8673,17.431 15.2693,17.884 C13.7373,19.044 12.0333,19.178 10.2363,18.723 C9.6283,18.568 9.0893,18.249 8.6143,17.854 C6.8433,16.379 3.6573,16.377 1.8863,17.857 C1.80519159,17.9247114 1.72133816,17.9893396 1.63498921,18.0508859 C1.38109577,17.6169105 1.15367796,17.1655607 0.954951906,16.6990526 C1.23308191,16.5614467 1.50668667,16.3946164 1.7753,16.196 C2.3963,15.737 3.0443,15.331 3.8143,15.161 C4.8033,14.943 5.7913,14.98 6.7793,15.167 C6.8763,15.3 6.9713,15.432 7.0683,15.564 C8.5963,17.654 11.2913,18.539 13.7583,17.766 C15.2043,17.313 16.2973,16.41 17.1323,15.168 C17.8793,15.021 18.6313,14.977 19.3913,15.042 C20.4193,15.132 21.3003,15.563 22.1113,16.175 C22.4107627,16.4009725 22.7170596,16.5865961 23.0294319,16.7355429 Z" id="Combined-Shape" fill="#012D82"></path>
                <path d="M0.954941191,16.6990274 C0.736350109,16.1858831 0.552474066,15.6543983 0.406262493,15.1075226 C0.93976915,14.9270871 1.43252005,14.6659659 1.8488,14.326 C3.0688,13.331 4.4868,13.075 6.0098,13.228 C6.1748,13.911 6.4368,14.555 6.7798,15.167 C5.7918,14.98 4.8038,14.943 3.8138,15.161 C3.0438,15.331 2.3958,15.737 1.7748,16.196 C1.50637802,16.3946043 1.23293459,16.5614264 0.954941191,16.6990274 Z" id="Combined-Shape" fill="#FBFCFD"></path>
                <path d="M0.98435455,7.23251822 C1.22479731,7.34971712 1.45220661,7.49385014 1.6633,7.6588 C3.1733,8.8428 4.8723,9.0928 6.7053,8.7258 L6.8193,8.7178 C6.4783,9.3338 6.1933,9.9728 6.0273,10.6588 C4.4723,10.8238 3.0353,10.5388 1.7983,9.5258 C1.4081606,9.20560867 0.941812899,8.9604532 0.434307206,8.78943549 C0.582472408,8.25452395 0.766751446,7.7346216 0.98435455,7.23251822 Z" id="Combined-Shape" fill="#FBFCFD"></path>
                <path d="M6.06707954,10.6830266 C6.23317871,9.99602657 6.51834897,9.35802657 6.85955268,8.74202657 C7.65802941,7.59602657 8.67863876,6.73202657 10.0154369,6.27302657 C12.5479489,5.40202657 15.3296097,6.27902657 16.909553,8.44202657 C16.9835972,8.54402657 17.0626444,8.64202657 17.1386898,8.74102657 C17.4798935,9.35802657 17.7640632,9.99602657 17.9311629,10.6830266 C18.1012645,11.5300266 18.1102699,12.3750266 17.9521755,13.2250266 C17.7930805,13.9190266 17.5249204,14.5710266 17.1787137,15.1920266 C16.3432148,16.4340266 15.2495619,17.3360266 13.802698,17.7890266 C11.3342243,18.5630266 8.63761427,17.6780266 7.10870144,15.5870266 C7.01164349,15.4550266 6.91658674,15.3240266 6.81952879,15.1910266 C6.47732448,14.5790266 6.21416736,13.9350266 6.05006939,13.2510266 C5.891975,12.3950266 5.89597739,11.5370266 6.06707954,10.6830266" id="Fill-19" fill="#FDA001"></path>
                <path d="M17.9058,13.2012 C18.0628,12.3512 18.0548,11.5062 17.8848,10.6592 C19.4398,10.8222 20.8778,10.5392 22.1148,9.5232 C23.8018,8.1392 26.9208,8.1582 28.6268,9.5162 C30.2908,10.8412 32.1558,11.0152 34.1248,10.3092 C34.5758,10.1462 34.9658,9.8552 35.3658,9.5932 C35.5218,9.4912 35.6798,9.3952 35.8468,9.2902 C35.9168,9.6182 35.9308,14.0942 35.8688,14.5752 C35.5638,14.4722 35.3148,14.2742 35.0698,14.0932 C33.4058,12.8552 30.4978,12.8632 28.7578,14.2602 C27.2358,15.4812 25.4998,15.6252 23.6698,15.1652 C23.1248,15.0282 22.6328,14.7592 22.1998,14.4102 C20.9928,13.4402 19.6158,13.0832 18.0938,13.2062 L17.9058,13.2012 Z" id="Fill-21" fill="#012D82"></path>
                <path d="M2.51262805,4.65130316 C3.78643649,5.34590822 5.16937446,5.44905504 6.6373,5.1744 C7.5483,5.0044 8.2463,4.4284 9.0193,3.9844 C10.9593,2.8694 12.9273,2.8814 14.8803,3.9694 C15.2763,4.1894 15.6223,4.5044 16.0293,4.6954 C17.9035271,5.57134894 19.7458625,5.612529 21.4537899,4.60821274 C21.7570497,4.99552329 22.0370253,5.40194151 22.29161,5.82536087 C22.1610884,5.91418369 22.0319649,6.01011497 21.9043,6.1134 C20.2163,7.4784 17.1163,7.4804 15.4253,6.1194 C14.9043,5.7004 14.3383,5.3314 13.6773,5.1644 C11.8063,4.6894 10.0413,4.8594 8.4903,6.1124 C6.8023,7.4784 3.7023,7.4814 2.0113,6.1194 C1.90411112,6.03301837 1.79493444,5.94844785 1.68334291,5.86721101 C1.93521377,5.44442208 2.2123357,5.03842591 2.51262805,4.65130316 Z M10.9698398,23.9564 L13.0301602,23.9564 C12.690608,23.9852696 12.3470242,24 12,24 C11.6529758,24 11.309392,23.9852696 10.9698398,23.9564 Z M21.5156046,19.3121563 C19.7034405,18.2105778 16.9068667,18.3282018 15.2913,19.6824 C13.5153,21.1714 10.3773,21.1564 8.6353,19.6924 C7.04690448,18.3573957 4.31128104,18.2000837 2.45483348,19.2735828 C2.15760157,18.8841187 1.88366421,18.4759235 1.63510068,18.0510764 C1.72141033,17.9895953 1.8052265,17.9250369 1.8863,17.8574 C3.6573,16.3774 6.8433,16.3794 8.6143,17.8534 C9.0893,18.2494 9.6283,18.5684 10.2373,18.7224 C12.0333,19.1774 13.7373,19.0444 15.2693,17.8834 C15.8673,17.4304 16.5063,17.0544 17.2523,16.9014 C19.0933,16.5254 20.7743,16.8254 22.2743,18.0254 C22.2981691,18.0444923 22.3223599,18.063292 22.3468629,18.0817996 C22.0948434,18.5096323 21.8170454,18.9204631 21.5156046,19.3121563 Z M23.0295102,16.7353608 C22.7171107,16.5863429 22.4107877,16.4005879 22.1113,16.1744 C21.3003,15.5624 20.4193,15.1314 19.3913,15.0424 C18.6313,14.9764 17.8793,15.0204 17.1323,15.1684 C17.4783,14.5464 17.7463,13.8954 17.9053,13.2014 L18.0943,13.2064 C19.6163,13.0834 20.9933,13.4404 22.1993,14.4104 C22.6103921,14.7400315 23.0726258,14.9996798 23.5843012,15.1426026 C23.4361502,15.6900347 23.2502301,16.2219438 23.0295102,16.7353608 Z M23.5580018,8.7617985 C23.019346,8.93334153 22.5244676,9.18690208 22.1143,9.5234 C20.8783,10.5394 19.4403,10.8224 17.8843,10.6594 C17.7173,9.9724 17.4333,9.3344 17.0923,8.7164 L17.3173,8.7454 C19.0413,9.0614 20.6683,8.8754 22.0883,7.7584 C22.3626133,7.54303931 22.6730944,7.36200875 23.0081869,7.21534501 C23.2252778,7.71411961 23.4094632,8.23051788 23.5580018,8.7617985 Z" id="Combined-Shape" fill="#FBFCFD"></path>
                <circle id="Oval" stroke="#FFFFFF" cx="12" cy="12" r="11.5"></circle>
            </g>
        </g>
    </g>
</svg>