<?xml version="1.0" encoding="UTF-8"?>
<svg width="24px" height="24px" viewBox="0 0 24 24" version="1.1" xmlns="http://www.w3.org/2000/svg" xmlns:xlink="http://www.w3.org/1999/xlink">
    <!-- Generator: Sketch 63.1 (92452) - https://sketch.com -->
    <title>esports_dota</title>
    <desc>Created with Sketch.</desc>
    <g id="Classifier" stroke="none" stroke-width="1" fill="none" fill-rule="evenodd">
        <g id="esports_dota">
            <path d="M12,0 C18.627417,0 24,5.372583 24,12 C24,18.627417 18.627417,24 12,24 C5.372583,24 0,18.627417 0,12 C0,5.372583 5.372583,0 12,0 Z M12,1 C5.92486775,1 1,5.92486775 1,12 C1,18.0751322 5.92486775,23 12,23 C18.0751322,23 23,18.0751322 23,12 C23,5.92486775 18.0751322,1 12,1 Z" id="Oval" fill="#FFFFFF" fill-rule="nonzero"></path>
            <path d="M12,1 C5.92486775,1 1,5.92486775 1,12 C1,18.0751322 5.92486775,23 12,23 C18.0751322,23 23,18.0751322 23,12 C23,5.92486775 18.0751322,1 12,1 Z" id="Path-Copy" fill="#503F32" fill-rule="nonzero"></path>
            <path d="M13.0459092,8.6345637 C13.8052093,9.21328453 14.5141206,9.753445 15.2495274,10.3138713 C15.3197877,10.2089935 15.3765637,10.1243026 15.453369,10.0097255 C15.5183459,9.6083508 15.5937318,9.14333966 15.6778707,8.62376049 C15.4498205,8.44617781 15.1724067,8.23011362 14.894914,8.01404943 C14.8975162,8.06002221 14.9001973,8.10591614 14.9027996,8.15188892 C14.2817333,7.98905222 13.8223998,8.5022441 13.2559804,8.38892868 C13.168845,8.4908889 13.1175101,8.55089797 13.0459092,8.6345637 M10.5451634,15.4864796 C9.76946141,14.7107776 9.01323675,13.9545529 8.23430169,13.175539 C8.0608195,13.3060449 7.98070227,13.5281021 7.92100862,13.7906911 C7.87125077,14.0098307 7.72489488,14.2072061 7.62072671,14.4139653 C7.50630732,14.6409904 7.34291863,14.8567392 7.44345945,15.1022954 C7.72828567,15.3932723 7.98992836,15.6605926 8.24818027,15.9242855 L9.35113275,15.9242855 C9.84642442,15.7426812 10.2077405,15.6102039 10.5451634,15.4864796 M7.28251529,8.31046742 C7.31587118,8.41085052 7.31752715,8.45769072 7.34181466,8.48292449 C8.39059338,9.57704515 9.44158006,10.6690367 10.491857,11.761738 C11.5131152,12.8243164 12.538395,13.8830309 13.5516098,14.9531795 C13.8130948,15.2294105 14.0356252,15.5426247 14.2315023,15.7840015 L15.873117,15.7840015 C16.0752238,15.0565591 16.4488413,14.3791112 16.4937101,13.5941042 C16.1971344,13.3594301 15.9261079,13.1136374 15.6253529,12.9122404 C13.7918038,11.6849327 11.9528925,10.4655106 10.1113002,9.25011007 C9.91960236,9.12354692 9.6988857,9.04090631 9.49362472,8.9389461 C9.21684176,8.53197264 8.70672525,8.37331528 8.37222004,8.00805641 C8.27175808,8.00805641 8.15931007,7.98242836 8.06515655,8.01294545 C7.80816634,8.09637462 7.55882511,8.20346044 7.28251529,8.31046742 M17.8594093,17.5860084 C17.431618,17.4794746 17.0542942,17.3855576 16.6421163,17.2829665 C16.6205887,17.414813 16.6021365,17.5282073 16.5836843,17.6412861 C16.5467011,17.6557956 16.5083773,17.6863126 16.4751002,17.6815025 C16.1993424,17.6414438 15.8947234,17.7903231 15.6480633,17.558409 C15.3391073,17.7482931 14.9737695,17.3660803 14.6606342,17.6617097 C14.5929761,17.7255827 14.4215442,17.6831584 14.2978198,17.6834738 C13.7539532,17.6848932 13.2099288,17.6841047 12.6324696,17.6841047 C12.5703314,17.7629602 12.4934473,17.8605834 12.4271298,17.9448011 C12.0740147,17.8462317 11.7543343,17.7569672 11.3838709,17.6535087 C11.3250447,17.7501068 11.2600677,17.8567195 11.1727747,18 C10.9955074,17.7785736 10.8654746,17.6159735 10.7444313,17.4648074 C10.495169,17.6093496 10.2239059,17.5958653 9.94728066,17.4995039 C9.89255491,17.4804208 9.84051025,17.4373657 9.78657306,17.4361829 C9.64321368,17.4331075 9.45104273,17.3913141 9.36603645,17.4654383 C9.18687666,17.6219665 9.1014761,17.3665534 8.9457364,17.4230928 C8.81633446,17.4700907 8.65523258,17.422462 8.51045381,17.4383908 C8.46038054,17.4439107 8.41748312,17.5142499 8.38467921,17.5431898 C8.05908468,17.3192401 7.69705888,17.4652806 7.35821661,17.4384697 C7.02623477,17.4122108 6.69054672,17.4327132 6.36132483,17.4327132 C6.29729413,17.3687614 6.23807362,17.3095409 6.17609316,17.2475604 C6.15480216,16.576894 6.24627459,15.8958187 6.01546442,15.2618201 C6.50350138,14.826301 6.41581401,14.2799109 6.42440927,13.7723966 C6.29406105,13.5825125 6.17065213,13.4028007 6.04740091,13.2232466 C6.04740091,12.9306137 6.04740091,12.6379019 6.04740091,12.3191678 C6.15022854,12.2519829 6.26512107,12.1770701 6.40887472,12.0833109 L6.40887472,11.6462935 C6.28712176,11.3020102 6.01175821,11.0661532 6.2769494,10.7094108 C6.34720969,10.6147841 6.31590404,10.4166201 6.22876866,10.2481847 C5.96594314,9.74003956 5.95159143,9.15177721 6.07484264,8.63637738 C6.20881821,8.07602989 6.12625646,7.5342923 6.16536881,6.98664056 C6.17435834,6.86110253 6.0898252,6.72878293 6.05023971,6.60568943 C6.10425576,6.4986036 6.15645813,6.39490856 6.2207254,6.26732029 L9.0189932,6.26732029 C9.35720463,6.60040611 9.80344815,6.48078225 10.2104216,6.49970758 C10.3977035,6.37156732 10.5773364,6.24863153 10.7607544,6.1230935 C11.091238,6.1230935 11.4264529,6.13823377 11.7596965,6.11875645 C12.0706239,6.10054082 12.3793433,6.04565736 12.7440502,6 C12.6640118,6.09486322 12.6278171,6.13776063 12.5602379,6.21779901 C12.7360069,6.23577807 12.8878827,6.25131262 13.0399162,6.26684716 C13.0695659,6.33829028 13.0989002,6.4097334 13.1309155,6.48748497 L13.8287871,6.48748497 C13.8344647,6.3776392 13.8395114,6.27859663 13.8475547,6.1230935 C14.4634165,6.1230935 15.0844827,6.10787438 15.703893,6.13350243 C15.8643641,6.1401263 16.0194729,6.27473271 16.1940591,6.35879272 C16.5269083,6.1685143 16.9211072,6.27615211 17.1852733,6.25438798 C17.5824686,6.36376062 17.7453842,6.54891344 17.7972711,6.86070825 C17.8124114,6.95170755 17.7960094,6.97828187 17.7643095,7.04333769 C17.7311113,7.11146888 17.7152614,7.20972289 17.7378141,7.27998318 C18.0047401,8.11096289 17.7683311,8.96473186 17.8866933,9.81786998 C17.7512195,9.92724262 17.6222907,10.0312531 17.5465105,10.0923661 C17.4672607,10.351722 17.4105635,10.5376634 17.343694,10.7563298 C17.4126926,10.8910939 17.4920213,11.0462028 17.6060464,11.2688908 C17.5618085,11.7125321 17.7032753,12.2401546 17.5129969,12.7575258 C17.569694,12.7703004 17.6267066,12.7832327 17.6838769,12.7960861 C17.7005942,12.8310191 17.731269,12.8658733 17.7315845,12.900964 C17.7350541,13.2775781 17.6632956,13.6713038 17.7498001,14.0268635 C17.8889801,14.5983296 17.8472655,15.1659318 17.8572013,15.7362151 C17.8673737,16.3217963 17.8594093,16.9077719 17.8594093,17.5860084" id="Fill-1" fill="#DEBB69"></path>
        </g>
    </g>
</svg>