<?xml version="1.0" encoding="UTF-8"?>
<svg width="24px" height="24px" viewBox="0 0 24 24" version="1.1" xmlns="http://www.w3.org/2000/svg" xmlns:xlink="http://www.w3.org/1999/xlink">
    <!-- Generator: Sketch 55.1 (78136) - https://sketchapp.com -->
    <title>Flags/spain</title>
    <desc>Created with Sketch.</desc>
    <g id="Icons" stroke="none" stroke-width="1" fill="none" fill-rule="evenodd">
        <g id="Flags/spain">
            <g id="spain">
                <g id="Group" transform="translate(0.500000, 0.500000)" fill-rule="nonzero">
                    <path d="M11.5,23 C5.14872538,23 0,17.8512746 0,11.5 C0,5.14872538 5.14872538,0 11.5,0 C17.8512746,0 23,5.14872538 23,11.5 C23,17.8512746 17.8512746,23 11.5,23 Z" id="Combined-Shape" fill="#C8414B"></path>
                    <path d="M1.0427476,6.70833333 L21.9572524,6.70833333 C22.6267419,8.1670254 23,9.78992316 23,11.5 C23,13.2100768 22.6267419,14.8329746 21.9572524,16.2916667 L1.0427476,16.2916667 C0.373258062,14.8329746 0,13.2100768 0,11.5 C0,9.78992316 0.373258062,8.1670254 1.0427476,6.70833333 Z" id="Combined-Shape" fill="#FFD250"></path>
                </g>
                <path d="M10.4633882,12.0663059 L10.8488471,10.4943529 C10.8843294,10.3496 10.7627765,10.2122824 10.5991529,10.2122824 L10.3276235,10.2122824 C10.164,10.2122824 10.0424,10.3496 10.0779294,10.4943529 L10.4633882,12.0663059 Z" id="Shape" fill="#C8414B" fill-rule="nonzero"></path>
                <polygon id="Rectangle-path" fill="#F5F5F5" fill-rule="nonzero" points="10.0085176 11.2418824 10.9177882 11.2418824 10.9177882 14.744 10.0085176 14.744"></polygon>
                <polygon id="Rectangle-path" fill="#FAB446" fill-rule="nonzero" points="9.78169412 10.8301176 11.1456471 10.8301176 11.1456471 11.5801176 9.78169412 11.5801176"></polygon>
                <polygon id="Rectangle-path" fill="#C8414B" fill-rule="nonzero" points="8.87204706 12.0663529 11.1449882 12.0663529 11.1449882 12.8163529 8.87204706 12.8163529"></polygon>
                <polygon id="Shape" fill="#C8414B" fill-rule="nonzero" points="11.1453647 13.7143059 9.78145882 13.3023059 9.78145882 12.8903059 11.1453647 13.3023059"></polygon>
                <path d="M3.644,12.0663059 L4.02945882,10.4943529 C4.06494118,10.3496 3.94338824,10.2122824 3.77976471,10.2122824 L3.50823529,10.2122824 C3.34461176,10.2122824 3.22301176,10.3496 3.25854118,10.4943529 L3.644,12.0663059 Z" id="Shape" fill="#C8414B" fill-rule="nonzero"></path>
                <path d="M5.2352,10.8302588 C4.98414118,10.8302588 4.78056471,11.0146824 4.78056471,11.2423059 L4.78056471,13.9203294 C4.78056471,14.4209412 5.29609412,15.3623529 7.05374118,15.3623529 C8.81138824,15.3623529 9.32691765,14.4208941 9.32691765,13.9203294 L9.32691765,11.2423059 C9.32691765,11.0147765 9.12338824,10.8302588 8.87228235,10.8302588 L5.2352,10.8302588 L5.2352,10.8302588 Z" id="Shape" fill="#F5F5F5" fill-rule="nonzero"></path>
                <path d="M7.05369412,12.8903059 L4.78051765,12.8903059 L4.78051765,11.2630588 C4.78051765,11.0240471 4.97430588,10.8302588 5.21331765,10.8302588 L7.05364706,10.8302588 L7.05364706,12.8903059 L7.05369412,12.8903059 Z" id="Shape" fill="#C8414B" fill-rule="nonzero"></path>
                <path d="M7.05369412,12.8903059 L9.32687059,12.8903059 L9.32687059,13.8683765 C9.32687059,14.4659294 8.84244706,14.9503529 8.24489412,14.9503529 L8.13571765,14.9503529 C7.53816471,14.9503529 7.05374118,14.4659294 7.05374118,13.8683765 L7.05369412,12.8903059 L7.05369412,12.8903059 Z" id="Shape" fill="#C8414B" fill-rule="nonzero"></path>
                <path d="M4.78056471,12.8903059 L7.05374118,12.8903059 L7.05374118,13.8683765 C7.05374118,14.4659294 6.56931765,14.9503529 5.97176471,14.9503529 L5.86258824,14.9503529 C5.26503529,14.9503529 4.78061176,14.4659294 4.78061176,13.8683765 C4.78056471,13.8683765 4.78056471,12.8903059 4.78056471,12.8903059 Z" id="Shape" fill="#FAB446" fill-rule="nonzero"></path>
                <path d="M6.89447059,14.7396706 L6.89447059,12.8903059 L6.14447059,12.8903059 L6.14447059,14.9295529 C6.42332371,14.8984471 6.67547152,14.8305882 6.89447059,14.7396706 Z" id="Shape" fill="#C8414B" fill-rule="nonzero"></path>
                <path d="M5.9852,14.9295529 L5.9852,12.8903059 L5.2352,12.8903059 L5.2352,14.7396706 C5.45419907,14.8305882 5.70626925,14.8984471 5.9852,14.9295529 Z" id="Shape" fill="#C8414B" fill-rule="nonzero"></path>
                <polygon id="Rectangle-path" fill="#FFB441" fill-rule="nonzero" points="5.23487059 12.0663529 6.59882353 12.0663529 6.59882353 12.8163529 5.23487059 12.8163529"></polygon>
                <polygon id="Rectangle-path" fill="#FAB446" fill-rule="nonzero" points="5.23487059 11.2418824 6.59882353 11.2418824 6.59882353 11.9918824 5.23487059 11.9918824"></polygon>
                <polygon id="Rectangle-path" fill="#FAB446" fill-rule="nonzero" points="5.46263529 11.4870588 6.37190588 11.4870588 6.37190588 12.2370588 5.46263529 12.2370588"></polygon>
                <polygon id="Rectangle-path" fill="#F5F5F5" fill-rule="nonzero" points="3.18936471 11.2418824 4.09863529 11.2418824 4.09863529 14.744 3.18936471 14.744"></polygon>
                <polygon id="Rectangle-path" fill="#FAB446" fill-rule="nonzero" points="2.96192941 14.5383529 4.32588235 14.5383529 4.32588235 15.2883529 2.96192941 15.2883529"></polygon>
                <polygon id="Rectangle-path" fill="#FAB446" fill-rule="nonzero" points="2.96192941 10.8301176 4.32588235 10.8301176 4.32588235 11.5801176 2.96192941 11.5801176"></polygon>
                <polygon id="Rectangle-path" fill="#5064AA" fill-rule="nonzero" points="2.73463529 14.9505882 4.55312941 14.9505882 4.55312941 15.7005882 2.73463529 15.7005882"></polygon>
                <polygon id="Rectangle-path" fill="#FAB446" fill-rule="nonzero" points="10.0085176 14.5383529 11.3724706 14.5383529 11.3724706 15.2883529 10.0085176 15.2883529"></polygon>
                <polygon id="Rectangle-path" fill="#5064AA" fill-rule="nonzero" points="9.5544 14.9505882 11.3728941 14.9505882 11.3728941 15.7005882 9.5544 15.7005882"></polygon>
                <polygon id="Rectangle-path" fill="#FAB446" fill-rule="nonzero" points="5.68992941 10.4183529 8.41778824 10.4183529 8.41778824 11.1683529 5.68992941 11.1683529"></polygon>
                <polygon id="Rectangle-path" fill="#FFB441" fill-rule="nonzero" points="6.8264 9.18258824 7.5764 9.18258824 7.5764 10.4188235 6.8264 10.4188235"></polygon>
                <path d="M6.59910588,9.80023529 C6.22305882,9.80023529 5.91717647,9.52301176 5.91717647,9.18225882 C5.91717647,8.84150588 6.22305882,8.56428235 6.59910588,8.56428235 C6.97515294,8.56428235 7.28103529,8.84150588 7.28103529,9.18225882 C7.28098824,9.52301176 6.97510588,9.80023529 6.59910588,9.80023529 Z M6.59910588,8.97623529 C6.47369412,8.97623529 6.37181176,9.06861176 6.37181176,9.18225882 C6.37181176,9.29590588 6.47369412,9.38828235 6.59910588,9.38828235 C6.72451765,9.38828235 6.8264,9.29590588 6.8264,9.18225882 C6.8264,9.06856471 6.72451765,8.97623529 6.59910588,8.97623529 Z" id="Shape" fill="#F5F5F5" fill-rule="nonzero"></path>
                <path d="M7.50832941,9.80023529 C7.13228235,9.80023529 6.8264,9.52301176 6.8264,9.18225882 C6.8264,8.84150588 7.13228235,8.56428235 7.50832941,8.56428235 C7.88437647,8.56428235 8.19025882,8.84150588 8.19025882,9.18225882 C8.19021176,9.52301176 7.88437647,9.80023529 7.50832941,9.80023529 Z M7.50832941,8.97623529 C7.38291765,8.97623529 7.28103529,9.06861176 7.28103529,9.18225882 C7.28103529,9.29590588 7.38291765,9.38828235 7.50832941,9.38828235 C7.63374118,9.38828235 7.73562353,9.29590588 7.73562353,9.18225882 C7.73562353,9.06856471 7.63374118,8.97623529 7.50832941,8.97623529 Z" id="Shape" fill="#F5F5F5" fill-rule="nonzero"></path>
                <path d="M8.4176,10.2122824 C8.04155294,10.2122824 7.73567059,9.93505882 7.73567059,9.59430588 C7.73567059,9.25355294 8.04155294,8.97632941 8.4176,8.97632941 C8.79364706,8.97632941 9.09952941,9.25355294 9.09952941,9.59430588 C9.09952941,9.93505882 8.7936,10.2122824 8.4176,10.2122824 Z M8.4176,9.38823529 C8.29218824,9.38823529 8.19030588,9.48061176 8.19030588,9.59425882 C8.19030588,9.70790588 8.29218824,9.80028235 8.4176,9.80028235 C8.54301176,9.80028235 8.64489412,9.70790588 8.64489412,9.59425882 C8.64489412,9.48056471 8.54301176,9.38823529 8.4176,9.38823529 Z" id="Shape" fill="#F5F5F5" fill-rule="nonzero"></path>
                <path d="M5.68983529,10.2122824 C5.31378824,10.2122824 5.00790588,9.93505882 5.00790588,9.59430588 C5.00790588,9.25355294 5.31378824,8.97632941 5.68983529,8.97632941 C6.06588235,8.97632941 6.37176471,9.25355294 6.37176471,9.59430588 C6.37171765,9.93505882 6.06583529,10.2122824 5.68983529,10.2122824 Z M5.68983529,9.38823529 C5.56442353,9.38823529 5.46254118,9.48061176 5.46254118,9.59425882 C5.46254118,9.70790588 5.56442353,9.80028235 5.68983529,9.80028235 C5.81524706,9.80028235 5.91712941,9.70790588 5.91712941,9.59425882 C5.91712941,9.48056471 5.81524706,9.38823529 5.68983529,9.38823529 Z" id="Shape" fill="#F5F5F5" fill-rule="nonzero"></path>
                <path d="M8.4176,13.7143059 L8.4176,13.9203294 C8.4176,14.0339294 8.31562353,14.1263529 8.19030588,14.1263529 C8.06498824,14.1263529 7.96301176,14.0339294 7.96301176,13.9203294 L7.96301176,13.7143059 L8.4176,13.7143059 L8.4176,13.7143059 Z" id="Path" fill="#FAB446" fill-rule="nonzero"></path>
                <path d="M8.87218824,13.3023059 L7.50828235,13.3023059 L7.50828235,13.9202824 C7.50828235,14.2610353 7.81421176,14.5382588 8.19021176,14.5382588 C8.56625882,14.5382588 8.87214118,14.2610353 8.87214118,13.9202824 L8.87218824,13.3023059 L8.87218824,13.3023059 Z" id="Path" fill="#FAB446" fill-rule="nonzero"></path>
                <path d="M8.21209412,12.4782588 L8.16842353,12.4782588 C7.92941176,12.4782588 7.73562353,12.2844706 7.73562353,12.0454588 L7.73562353,11.6750118 C7.73562353,11.436 7.92941176,11.2422118 8.16842353,11.2422118 L8.21209412,11.2422118 C8.45110588,11.2422118 8.64489412,11.436 8.64489412,11.6750118 L8.64489412,12.0454588 C8.64489412,12.2845647 8.45110588,12.4782588 8.21209412,12.4782588 Z" id="Shape" fill="#FFA0D2" fill-rule="nonzero"></path>
                <circle id="Oval" fill="#5064AA" fill-rule="nonzero" cx="7.12176471" cy="13.0224706" r="1"></circle>
                <polygon id="Rectangle-path" fill="#FAB446" fill-rule="nonzero" points="6.8264 8.35811765 7.5764 8.35811765 7.5764 9.59435294 6.8264 9.59435294"></polygon>
                <path d="M5.68983529,10.4182588 L5.2352,10.0062118 L5.50150588,9.76484706 C5.91317647,9.39176471 6.47152941,9.18221176 7.05369412,9.18221176 L7.05369412,9.18221176 C7.63585882,9.18221176 8.19425882,9.39181176 8.60588235,9.76484706 L8.87218824,10.0062118 L8.41755294,10.4182588 L5.68983529,10.4182588 Z" id="Shape" fill="#C8414B" fill-rule="nonzero"></path>
                <circle id="Oval" fill="#FFD250" fill-rule="nonzero" cx="7.5764" cy="10.5571353" r="1"></circle>
                <circle id="Oval" fill="#FFD250" fill-rule="nonzero" cx="6.66722353" cy="10.5571353" r="1"></circle>
                <circle id="Oval" fill="#FFD250" fill-rule="nonzero" cx="8.48557647" cy="10.5571353" r="1"></circle>
                <polygon id="Rectangle-path" fill="#C8414B" fill-rule="nonzero" points="2.96192941 12.0663529 5.23487059 12.0663529 5.23487059 12.8163529 2.96192941 12.8163529"></polygon>
                <polygon id="Shape" fill="#C8414B" fill-rule="nonzero" points="2.96202353 13.7143059 4.32592941 13.3023059 4.32592941 12.8903059 2.96202353 13.3023059"></polygon>
                <circle id="Oval" stroke="#FFFFFF" cx="12" cy="12" r="11.5"></circle>
            </g>
        </g>
    </g>
</svg>