<svg xmlns="http://www.w3.org/2000/svg" width="24" height="24" viewBox="0 0 24 24">
  <g fill="none" fill-rule="evenodd">
    <path fill="#0089E9" fill-rule="nonzero" d="M11.99994,23.79924 C18.5169,23.79924 23.79996,18.51618 23.79996,11.99922 C23.79996,5.48226 18.5169,0.1992186 11.99994,0.1992186 C5.482992,0.1992186 0.1999512,5.48226 0.1999512,11.99922 C0.1999512,18.51618 5.482992,23.79924 11.99994,23.79924 Z"/>
    <path fill="#A8EF84" d="M16.2032993,6.94918665 C16.1439015,7.00858443 16.3868129,7.98299951 16.4462107,8.04239729 C16.5677028,8.40680083 16.5677028,8.16410807 16.4462107,8.52851161 C16.4462107,8.65000376 16.689195,8.77098573 16.689195,9.01389714 C16.689195,9.25688142 16.5677028,9.62128497 16.8106142,9.74270423 C16.9321064,9.86419637 16.8106142,10.3505293 16.9321064,10.3505293 C16.9321064,10.2291101 16.9321064,10.3500921 17.1750178,10.4715113 C17.2965099,10.5930035 17.1750178,10.5935136 17.2965099,10.7149329 C17.2965099,10.7149329 17.418002,10.7144956 17.418002,10.8359149 C17.418002,10.957407 17.5394213,10.9579172 17.5394213,11.0793364 C17.5394213,11.2008286 17.418002,11.2003184 17.418002,11.2003184 C17.5394213,11.3218105 17.5394213,11.564722 17.7824056,11.564722 C18.025317,11.4433027 18.1468091,11.564722 18.2682284,11.564722 C18.5112127,11.564722 18.6326319,11.6862141 18.7541241,11.564722 C18.8756162,11.564722 19.1185276,11.4435213 18.9970355,11.6864327 C18.9970355,11.8079249 18.9970355,11.8081435 18.9970355,11.8081435 C18.8756162,11.8081435 18.8756162,11.929417 18.8756162,12.0508363 C18.6326319,12.2938206 18.5112127,12.536732 18.2682284,12.7796434 C17.7824056,13.2655391 16.9321064,13.3870312 16.5677028,13.872854 C16.4462107,13.9943462 16.4462107,13.8731455 16.4462107,13.9945648 C16.3247914,13.9945648 16.3247914,13.9941275 16.2032993,14.1155468 C16.0818071,14.1155468 16.0818071,14.2372576 16.0818071,14.2372576 C15.9603879,14.3587497 15.9603879,14.3587497 15.8388957,14.6016611 C15.8388957,14.7231532 15.9603879,14.7231532 15.8388957,14.9660646 C15.8388957,15.0875568 15.7174036,15.2090489 15.8388957,15.3304682 L15.8388957,15.452179 C15.8388957,15.452179 15.8388957,15.4517417 15.9603879,15.573161 L15.9603879,15.6948717 C15.9603879,15.8163639 15.8388957,15.937856 15.9603879,16.0592753 C15.9603879,16.1807674 15.9603879,16.1805488 15.9603879,16.301968 C16.0818071,16.5449523 15.7174036,16.9097932 15.353,16.9097932 C15.2315808,16.9097932 15.1100886,17.0307751 14.9885965,17.0307751 C14.9885965,17.1522673 14.7456851,17.1524859 14.7456851,17.1524859 C14.6241929,17.1524859 14.5027737,17.3956888 14.5027737,17.2741967 C14.6241929,17.3956888 14.5027737,17.3954702 14.5027737,17.5168895 C14.6241929,17.5168895 14.5027737,17.881293 14.6241929,17.881293 C14.6241929,18.0027851 14.5027737,18.2456966 14.5027737,18.2456966 C14.3812815,18.4886808 14.016878,18.2454779 13.8953859,18.4883893 C13.7739666,18.4883893 14.016878,18.6101001 13.8953859,18.6101001 C13.7739666,18.7315922 13.7739666,18.9747952 13.5309823,19.0962144 C13.1665788,19.3391987 12.8021752,19.7030921 12.3163524,19.9460035 C12.1948603,20.0674956 12.0733681,19.9460035 11.9519489,19.9460035 C11.9519489,19.9460035 11.8304567,19.8245842 11.8304567,19.9460035 C11.5875453,19.9460035 11.344561,19.7036023 11.2231418,19.8250215 C11.1016496,19.7036023 10.9801575,19.8250215 10.8587382,19.8250215 C10.7372461,19.8250215 10.7372461,19.7033107 10.6157539,19.7033107 C10.6157539,19.4603993 10.4943347,19.7030921 10.4943347,19.5815999 L10.4943347,19.3389072 C10.4943347,19.2174879 10.4943347,19.3386885 10.6157539,19.2171964 C10.7372461,19.0957771 10.6157539,18.9747952 10.6157539,18.7318109 C10.6157539,18.4888995 10.6157539,18.2454779 10.3728425,18.1239858 C10.2513504,17.7595822 10.3728425,17.2741967 10.3728425,16.9097932 C10.2513504,16.5453896 10.008439,16.0592753 10.1299311,15.6948717 C10.1299311,15.4519603 10.3728425,15.2090489 10.4943347,14.9660646 C10.6157539,14.8446454 10.7372461,14.844864 10.8587382,14.7233719 C10.9801575,14.4804605 10.7372461,14.2375491 10.9801575,13.9945648 C10.9801575,13.8731455 10.7372461,13.5084505 10.9801575,13.5084505 C11.1016496,13.5084505 10.7372461,13.5084505 10.8587382,13.5084505 C10.7372461,13.5084505 10.8587382,13.2657577 10.7372461,13.2657577 C10.6157539,13.1443384 10.4943347,12.7794247 10.3728425,12.6579326 L10.2513504,12.4152398 C10.3728425,12.4152398 10.3728425,12.293529 10.3728425,12.293529 L10.4943347,12.293529 C10.4943347,12.293529 10.3728425,12.1725471 10.4943347,12.1725471 L10.4943347,12.0508363 C10.6157539,12.0508363 10.3728425,12.0506176 10.4943347,11.9291255 C10.6157539,11.9291255 10.7372461,11.564722 10.6157539,11.564722 C10.6157539,11.564722 10.7372461,11.44374 10.6157539,11.44374 C10.6157539,11.5652321 10.4943347,11.4435213 10.4943347,11.3220292 C10.4943347,11.4435213 10.3728425,11.3220292 10.2513504,11.3220292 C10.2513504,11.4435213 10.1299311,11.4435213 10.008439,11.3220292 C10.008439,11.2006099 10.008439,11.2008286 10.008439,11.0793364 C10.1299311,11.0793364 10.008439,11.0791178 10.008439,10.9576256 C9.88694686,10.7147142 9.76552759,10.836425 9.52254331,10.7149329 C9.40112405,10.7149329 9.27963191,10.7144956 9.15813976,10.4715113 C9.15813976,10.5930035 9.27963191,10.836425 9.15813976,10.7149329 C9.15813976,10.836425 8.91522836,10.8359149 8.79373622,10.8359149 C8.67231696,10.8359149 8.67231696,10.957407 8.55082482,10.8359149 C8.55082482,10.8359149 8.30791341,10.7149329 8.42933267,10.7149329 C8.42933267,10.5935136 8.42933267,10.7149329 8.30791341,10.7149329 C8.30791341,10.7149329 8.18642127,10.7149329 8.06492913,10.7149329 C7.94350987,10.7149329 7.70052558,10.7149329 7.57910632,10.7149329 C7.21470278,10.5935136 7.09321064,10.2291101 6.85029923,9.9861258 L6.72880709,9.86441501 C6.72880709,9.86441501 6.72880709,9.86419637 6.72880709,9.74270423 C6.60731495,9.74270423 6.60731495,9.50030299 6.60731495,9.62172225 C6.48589569,9.62172225 6.60731495,9.62150361 6.60731495,9.50001147 C6.60731495,9.3785922 6.60731495,9.37881085 6.48589569,9.2573187 C6.48589569,9.13589944 6.36440355,9.25688142 6.36440355,9.01389714 C6.36440355,9.01389714 6.2429114,8.89291516 6.36440355,8.89291516 C6.2429114,8.89291516 6.2429114,9.0144073 6.2429114,8.89291516 C6.2429114,8.89291516 6.12149214,8.77120438 6.2429114,8.77120438 C6.12149214,8.77120438 6.2429114,8.77120438 6.12149214,8.77120438 L6.12149214,8.64949359 C6,8.64949359 6,8.52851161 6.12149214,8.52851161 C6,8.52851161 6,8.40658219 6.12149214,8.28509005 C6.12149214,8.40658219 6.2429114,8.28509005 6.36440355,8.28509005 C6.2429114,8.28509005 6.2429114,8.28509005 6.12149214,8.28509005 C6.12149214,8.16367078 6,8.16410807 6.12149214,8.16410807 C6.12149214,8.16410807 6.12149214,8.16388943 6.12149214,8.04239729 C6.12149214,8.04239729 6.12149214,7.9206865 6,7.9206865 C6.12149214,7.9206865 6.12149214,7.79970452 6.2429114,7.79970452 C6.36440355,7.55679312 6.48589569,7.43486369 6.48589569,7.19187941 C6.48589569,7.07046015 6.48589569,7.07067879 6.60731495,6.94918665 C6.12149214,6.82776739 6,6.82798603 6,6.70649389 C6,6.58507463 6.12149214,6.58456446 6.12149214,6.46307232 C6.2429114,6.34165306 6.36440355,6.22016092 6.48589569,6.09866878 C6.72880709,5.97724951 6.72880709,5.85626754 6.85029923,5.61328325 C7.09321064,5.61328325 7.09321064,5.36986168 7.33612204,5.36986168 L7.45761418,5.36986168 C7.70052558,5.36986168 7.94350987,5.24844242 8.06492913,5.00545814 C7.94350987,4.88403888 8.06492913,4.7630569 8.18642127,4.52009448 C8.30791341,4.3986242 8.42933267,4.39839099 8.55082482,4.39839099 C8.79373622,4.39839099 8.91522836,4.15545772 8.91522836,4.03398744 C9.0367205,3.91251716 9.0367205,4.15569094 9.15813976,4.15569094 C9.52254331,4.27716121 9.27963191,4.03374693 9.52254331,4.27668749 C9.76552759,4.39815048 9.88694686,4.27716121 10.008439,4.15569094 C10.1299311,4.15569094 10.2513504,4.03398744 10.3728425,4.03398744 C10.6157539,4.03398744 10.7372461,4.03398744 10.9801575,4.03398744 C11.1016496,4.03398744 11.2231418,4.15569094 11.344561,4.15569094 C11.4660532,4.15569094 11.5875453,4.03422066 11.5875453,4.15569094 C11.7089646,4.15569094 11.7089646,4.15569094 11.8304567,4.15569094 C11.9519489,4.15569094 12.0733681,4.15569094 12.1948603,4.15569094 C12.4377717,4.15569094 12.3163524,4.39815048 12.4377717,4.27668749 C12.5592638,4.39815048 12.4377717,4.64105459 12.3163524,4.64105459 C12.1948603,4.76254674 12.3163524,4.7630569 12.3163524,4.88447616 C12.3163524,5.12746045 11.8304567,5.12746045 12.0733681,5.24887971 C12.0733681,5.24887971 12.0733681,5.37037185 12.1948603,5.24887971 L12.1948603,5.36986168 C12.4377717,5.49135383 12.8021752,5.61284597 13.0451595,5.73426523 C13.1665788,5.85575737 13.0451595,5.97724951 13.1665788,6.09866878 C13.409563,6.09866878 13.5309823,6.34165306 13.6524744,6.46307232 C14.016878,6.46307232 13.7739666,5.9776868 14.1383701,5.9776868 C14.3812815,5.9776868 14.5027737,5.97746816 14.5027737,6.22037956 C14.6241929,6.22037956 14.7456851,6.34209034 14.8671772,6.34209034 C14.8671772,6.46358249 14.8671772,6.46307232 14.9885965,6.46307232 C15.2315808,6.46307232 15.4744922,6.7060566 15.5959843,6.82747587 C15.7174036,6.82747587 15.8388957,6.82798603 15.9603879,6.70649389 C16.0818071,6.70649389 16.0818071,6.70649389 16.2032993,6.70649389 C16.3247914,6.70649389 16.2032993,6.82747587 16.2032993,6.82747587 C16.2032993,6.82747587 16.2032993,8.5761756 16.2032993,6.94918665 Z"/>
    <path fill="#FFF" fill-rule="nonzero" d="M12,0 C5.37258,0 0,5.37258 0,12 C0,18.62742 5.37258,24 12,24 C18.62742,24 24,18.62742 24,12 C24,5.37258 18.62742,0 12,0 Z M12,0.96 C18.0972,0.96 23.04,5.902776 23.04,12 C23.04,18.0972 18.0972,23.04 12,23.04 C5.902776,23.04 0.96,18.0972 0.96,12 C0.96,5.902776 5.902776,0.96 12,0.96 Z"/>
  </g>
</svg>
