<?xml version="1.0" encoding="UTF-8"?>
<svg width="24px" height="24px" viewBox="0 0 24 24" version="1.1" xmlns="http://www.w3.org/2000/svg" xmlns:xlink="http://www.w3.org/1999/xlink">
    <!-- Generator: Sketch 55.1 (78136) - https://sketchapp.com -->
    <title>Flags/dominican_republic</title>
    <desc>Created with Sketch.</desc>
    <g id="Icons" stroke="none" stroke-width="1" fill="none" fill-rule="evenodd">
        <g id="Flags/dominican_republic">
            <g id="dominican_republic">
                <path d="M12,24 C5.372583,24 0,18.627417 0,12 C0,5.372583 5.372583,0 12,0 C18.627417,0 24,5.372583 24,12 C24,18.627417 18.627417,24 12,24 Z" id="Combined-Shape" fill="#F5F5F5" fill-rule="nonzero"></path>
                <g id="Group" fill="#41479B" fill-rule="nonzero">
                    <path d="M9.673438,0.46644892 L9.673438,9.573438 L0.466448999,9.573438 C1.4521274,5.02378489 5.07382734,1.44142142 9.673438,0.46644892 Z" id="Combined-Shape"></path>
                    <path d="M23.5336517,14.5260938 C22.5694933,19.0261657 19.0261657,22.5694933 14.5260938,23.5336518 L14.5260937,14.5260938 L23.5336517,14.5260938 Z" id="Combined-Shape"></path>
                </g>
                <g id="Group" fill="#FF4B55" fill-rule="nonzero">
                    <path d="M23.5335508,9.473437 L14.5260937,9.473437 L14.5260937,0.466348 C19.0260115,1.43047259 22.5692501,4.97358811 23.5335508,9.473437 Z" id="Combined-Shape"></path>
                    <path d="M0.466348,14.5260938 L9.573437,14.5260938 L9.573437,23.6335508 C5.02362914,22.6585445 1.44117665,19.0759692 0.466348,14.5260938 Z" id="Combined-Shape"></path>
                </g>
                <circle id="Oval" stroke="#FFFFFF" cx="12" cy="12" r="11.5"></circle>
                <g id="Group" transform="translate(9.421875, 10.640625)" fill="#64B496" fill-rule="nonzero">
                    <path d="M2.2155,3.16555714 C2.2155,3.16555714 2.80429462,3.32643217 2.72749532,3.8781129 L2.9655,3.87483754 C2.9655,3.87483754 2.81533909,3.23734223 2.69121679,3.16091704 C2.56716764,3.08449184 2.2155,3.16555714 2.2155,3.16555714 Z" id="Shape"></path>
                    <path d="M2.59378125,3.08714062 C2.43379688,3.08714062 2.15395313,3.08695312 1.8598125,3.0075 C1.92539063,2.93920312 2.016,2.80176562 2.016,2.562 C2.016,2.18653125 1.75729688,2.4260625 1.75729688,2.4260625 C1.75729688,2.4260625 1.58714063,2.56917187 1.69003125,2.95195312 C1.58967188,2.91370312 1.49025,2.86429687 1.39528125,2.80110937 C1.45434375,2.727 1.57204688,2.55421875 1.64053125,2.28042187 C1.64053125,2.28042187 1.20942188,2.19520312 1.09148438,2.5198125 C1.01925,2.428125 0.957421875,2.32504687 0.9058125,2.21095312 C1.016625,2.2123125 1.17121875,2.1391875 1.17121875,1.71721875 C1.17121875,1.71721875 0.8896875,1.71764062 0.81440625,1.96190625 C0.784828125,1.85985937 0.762234375,1.75045312 0.745640625,1.6348125 C0.858046875,1.6674375 1.14867188,1.69082812 1.14867188,1.06017187 C1.14867188,1.06017187 0.799734375,1.06078125 0.718921875,1.369875 C0.714515625,1.29084375 0.71278125,1.20909375 0.713578125,1.1248125 C0.882984375,1.03626562 1.11689063,0.841125 1.09251563,0.4408125 C1.09251563,0.4408125 0.93159375,0.47728125 0.784125,0.600984375 C0.8131875,0.44925 0.801140625,0.2270625 0.568453125,0.04171875 C0.568453125,0.04171875 0.3545625,0.4201875 0.6669375,0.727453125 C0.639796875,0.765703125 0.616125,0.80915625 0.59653125,0.857484375 C0.526359375,0.750609375 0.413765625,0.651234375 0.232546875,0.5908125 C0.232546875,0.5908125 0.1490625,1.09776562 0.622359375,1.30982812 C0.6335625,1.60589062 0.679921875,1.86740625 0.759421875,2.09489062 C0.62390625,1.97540625 0.514125,1.8110625 0.514125,1.8110625 C0.514125,1.24785937 0.052453125,1.23365625 0.052453125,1.23365625 C-0.03375,1.8765 0.4415625,1.90251562 0.4415625,1.90251562 L0.701859375,2.18653125 C0.13865625,2.0926875 0.13865625,2.562 0.13865625,2.562 C0.514125,2.65584375 0.701859375,2.46815625 0.701859375,2.46815625 L0.904921875,2.5725 C0.54478125,2.583 0.42028125,2.93746875 0.42028125,2.93746875 C0.872953125,3.01289062 1.20389063,2.90657812 1.31653125,2.86185937 C1.7724375,3.18060937 2.33428125,3.18103125 2.59378125,3.18103125 L2.59378125,3.08714062 L2.59378125,3.08714062 Z" id="Shape"></path>
                    <path d="M2.5618125,3.08714062 C2.72184375,3.08714062 3.00164062,3.08695312 3.29578125,3.0075 C3.23020312,2.93920312 3.13959375,2.80176562 3.13959375,2.562 C3.13959375,2.18653125 3.39829687,2.4260625 3.39829687,2.4260625 C3.39829687,2.4260625 3.56845312,2.56917187 3.4655625,2.95195312 C3.56592188,2.91370312 3.66534375,2.86429687 3.7603125,2.80110937 C3.70125,2.727 3.58354687,2.55421875 3.5150625,2.28042187 C3.5150625,2.28042187 3.94617187,2.19520312 4.06410938,2.5198125 C4.13634375,2.428125 4.19817188,2.32504687 4.24978125,2.21095312 C4.13896875,2.2123125 3.984375,2.1391875 3.984375,1.71721875 C3.984375,1.71721875 4.26590625,1.71764062 4.3411875,1.96190625 C4.37076563,1.85985937 4.39335938,1.75045312 4.40995313,1.6348125 C4.29754688,1.6674375 4.00692188,1.69082812 4.00692188,1.06017187 C4.00692188,1.06017187 4.35585938,1.06078125 4.43667188,1.369875 C4.44107813,1.29084375 4.4428125,1.20909375 4.44201563,1.1248125 C4.27260938,1.03626562 4.03870313,0.841125 4.06307813,0.4408125 C4.06307813,0.4408125 4.224,0.47728125 4.37151562,0.600984375 C4.34245312,0.44925 4.3545,0.2270625 4.5871875,0.04171875 C4.5871875,0.04171875 4.80107813,0.4201875 4.48870312,0.727453125 C4.51584375,0.765703125 4.53951562,0.80915625 4.55910938,0.857484375 C4.62928125,0.750609375 4.741875,0.651234375 4.92309375,0.5908125 C4.92309375,0.5908125 5.00657812,1.09776562 4.53328125,1.30982812 C4.52207813,1.60589062 4.47571875,1.86740625 4.39621875,2.09489062 C4.53173438,1.97540625 4.64151563,1.8110625 4.64151563,1.8110625 C4.64151563,1.24785937 5.1031875,1.23365625 5.1031875,1.23365625 C5.18939063,1.8765 4.71407813,1.90251562 4.71407813,1.90251562 L4.45378125,2.18653125 C5.01698438,2.0926875 5.01698438,2.562 5.01698438,2.562 C4.64151563,2.65584375 4.45378125,2.46815625 4.45378125,2.46815625 L4.25071875,2.5725 C4.61085938,2.583 4.73535938,2.93746875 4.73535938,2.93746875 C4.2826875,3.01289062 3.95175,2.90657812 3.83910938,2.86185937 C3.38320313,3.18060937 2.82135938,3.18103125 2.56185938,3.18103125 L2.56185938,3.08714062 L2.5618125,3.08714062 L2.5618125,3.08714062 Z" id="Shape"></path>
                </g>
                <path d="M10.4161406,9.63571875 C10.0860469,9.84726563 9.79504688,10.1166563 9.56053125,10.4346563 C9.66126563,10.5089531 9.762,10.5832031 9.86273438,10.6575 C10.0696406,10.3768594 10.326375,10.1391094 10.6176094,9.9523125 L10.4161406,9.63571875 Z" id="Shape" fill="#41479B" fill-rule="nonzero"></path>
                <path d="M12.0010781,12.0762187 L13.3151719,12.0762187 L13.3151719,12.8271562 C13.3151719,13.0345312 13.1470781,13.202625 12.9397031,13.202625 L12.3765,13.202625 C12.2222344,13.202625 12.0865781,13.2780469 12.0010313,13.3929375 L12.0010313,12.0762187 L12.0010781,12.0762187 Z" id="Shape" fill="#FF6B71" fill-rule="nonzero"></path>
                <polygon id="Shape" fill="#5F64B9" fill-rule="nonzero" points="12.2826563 11.2314375 12.2826563 10.1989219 13.6906406 10.1989219 13.3151719 10.5743906 13.3151719 11.6069062 12.2826563 11.6069062"></polygon>
                <polygon id="Rectangle-path" fill="#F5F5F5" fill-rule="nonzero" points="12.8460937 11.6067188 13.5960937 11.6067188 13.5960937 12.3567188 12.8460937 12.3567188"></polygon>
                <path d="M12.0010781,12.0762187 L10.6869375,12.0762187 L10.6869375,12.8271562 C10.6869375,13.0345312 10.8550313,13.202625 11.0624063,13.202625 L11.6256094,13.202625 C11.779875,13.202625 11.9155312,13.2780469 12.0010781,13.3929375 L12.0010781,12.0762187 Z" id="Shape" fill="#FF6B71" fill-rule="nonzero"></path>
                <path d="M11.766375,13.2253125 C11.9159705,13.2552656 12.0451155,13.3135312 12.1379291,13.3903594 L12.1448209,13.3903594 C12.2376345,13.3134844 12.3667795,13.2552656 12.516375,13.2253125 L12.516375,12.4517344 L11.766375,12.4517344 L11.766375,13.2253125 L11.766375,13.2253125 Z" id="Shape" fill="#F5F5F5" fill-rule="nonzero"></path>
                <polygon id="Shape" fill="#5F64B9" fill-rule="nonzero" points="11.7194531 11.2314375 11.7194531 10.1989219 10.3114687 10.1989219 10.6869375 10.5743906 10.6869375 11.6069062 11.7194531 11.6069062"></polygon>
                <polygon id="Rectangle-path" fill="#F5F5F5" fill-rule="nonzero" points="10.6870313 11.6067188 11.4370313 11.6067188 11.4370313 12.3567188 10.6870313 12.3567188"></polygon>
                <polygon id="Shape" fill="#41479B" fill-rule="nonzero" points="11.15625 10.6682344 11.15625 11.1182494 11.90625 11.4182344 11.90625 11.1182494"></polygon>
                <polygon id="Shape" fill="#F5F5F5" fill-rule="nonzero" points="11.437875 10.9498594 11.437875 11.3998444 12.187875 11.6998594 12.187875 11.5498893"></polygon>
                <polygon id="Shape" fill="#41479B" fill-rule="nonzero" points="13.3142344 10.6682344 13.3142344 11.1182494 12.5642344 11.4182344 12.5642344 11.1182494"></polygon>
                <polygon id="Shape" fill="#F5F5F5" fill-rule="nonzero" points="12.9388125 10.9498594 12.9388125 11.3998444 12.1888125 11.6998594 12.1888125 11.5498893"></polygon>
                <path d="M12.5675156,12.7333125 L11.4350625,12.7333125 C11.1776719,12.7333125 10.9689844,12.5231719 10.9689844,12.264 L10.9689844,10.8121875 L12.0082031,11.5130156 L13.0336406,10.8121875 L13.0336406,12.2639531 C13.0335938,12.5231719 12.8249063,12.7333125 12.5675156,12.7333125 Z" id="Shape" fill="#FF4B55" fill-rule="nonzero"></path>
                <g id="Group" transform="translate(10.921875, 10.734375)" fill="#41479B" fill-rule="nonzero">
                    <polygon id="Shape" points="0.7966875 0.309328125 0.0466875 0.02775 0.0466875 1.06026562 0.7966875 1.248"></polygon>
                    <polygon id="Shape" points="1.73625 0.309328125 2.48625 0.02775 2.48625 1.06026562 1.73625 1.248"></polygon>
                    <polygon id="Rectangle-path" points="0.51609375 1.2478125 1.6425 1.2478125 1.6425 1.9978125 0.51609375 1.9978125"></polygon>
                </g>
                <polygon id="Shape" fill="#FF4B55" fill-rule="nonzero" points="11.437875 11.1375937 12.0010781 11.4191719 12.5642344 11.1375937 12.5642344 11.982375 11.437875 11.982375"></polygon>
                <g id="Group" transform="translate(10.968750, 11.015625)" fill="#F5F5F5" fill-rule="nonzero">
                    <path d="M1.45471875,0.210703125 L1.45471875,1.15448438 C1.45471875,1.23210938 1.39157813,1.29529688 1.31390625,1.29529688 L0.750703125,1.29529688 C0.673078125,1.29529688 0.609890625,1.23215625 0.609890625,1.15448438 L0.609890625,0.214546875 L0.3283125,0.02596875 L0.3283125,1.15448438 C0.3283125,1.38740625 0.51778125,1.576875 0.750703125,1.576875 L1.31390625,1.576875 C1.54682812,1.576875 1.73629687,1.38740625 1.73629687,1.15448438 L1.73629687,0.01959375 L1.45471875,0.210703125 Z" id="Shape"></path>
                    <path d="M1.55301562,0.96885405 C1.39490625,0.990084431 1.21692187,1.0139073 1.03232812,1.10996952 C0.847734375,1.0139073 0.66975,0.990084431 0.511640625,0.96885405 C0.247078125,0.933329947 0.09009375,0.898716718 0.000234375,0.660207749 L0.000234375,1.06519654 C0.1381875,1.19930528 0.312984375,1.22396896 0.4948125,1.24842244 C0.65803125,1.27035349 0.826734375,1.29298522 0.99909375,1.39051885 L1.03232812,1.40929688 L1.0655625,1.39051885 C1.23792187,1.29298522 1.40667187,1.27035349 1.56984375,1.24842244 C1.7518125,1.22396896 1.92684375,1.19972569 2.06484375,1.06547681 L2.06484375,0.659296875 C1.97503125,0.898646651 1.81795313,0.933189812 1.55301562,0.96885405 Z" id="Shape"></path>
                </g>
                <polygon id="Shape" fill="#FFE15A" fill-rule="nonzero" points="12.5633437 11.0166907 12.2820703 11.0166907 12.2820703 10.8559688 12.0945235 10.8559688 12.0945235 11.0166907 11.8133437 11.0166907 11.8133437 11.1238565 12.0945235 11.1238565 12.0945235 11.6059688 12.2820703 11.6059688 12.2820703 11.1238565 12.5633437 11.1238565"></polygon>
                <polygon id="Rectangle-path" fill="#464655" fill-rule="nonzero" transform="translate(11.764576, 10.796440) rotate(-45.000000) translate(-11.764576, -10.796440) " points="11.3895756 10.2132036 12.1395756 10.2132036 12.1395756 11.3796768 11.3895756 11.3796768"></polygon>
                <polygon id="Shape" fill="#FFE15A" fill-rule="nonzero" points="10.9467188 10.4416875 11.3216335 11.1916875 11.6967187 10.8167727"></polygon>
                <polygon id="Rectangle-path" fill="#464655" fill-rule="nonzero" transform="translate(11.911384, 10.753231) rotate(-36.071182) translate(-11.911384, -10.753231) " points="11.5363838 10.1699791 12.2863838 10.1699791 12.2863838 11.3364835 11.5363838 11.3364835"></polygon>
                <polygon id="Shape" fill="#FFE15A" fill-rule="nonzero" points="11.1577031 10.2816562 11.436799 11.0316562 11.9077031 10.7385675"></polygon>
                <polygon id="Rectangle-path" fill="#464655" fill-rule="nonzero" transform="translate(11.630905, 10.861217) rotate(-55.075102) translate(-11.630905, -10.861217) " points="11.2559052 10.2779766 12.0059052 10.2779766 12.0059052 11.4444565 11.2559052 11.4444565"></polygon>
                <polygon id="Shape" fill="#FFE15A" fill-rule="nonzero" points="10.7629688 10.6483125 11.2298899 11.3983125 11.5129688 10.9137673"></polygon>
                <polygon id="Rectangle-path" fill="#464655" fill-rule="nonzero" transform="translate(12.314205, 10.796979) rotate(-135.000000) translate(-12.314205, -10.796979) " points="11.939205 10.2137419 12.689205 10.2137419 12.689205 11.3802151 11.939205 11.3802151"></polygon>
                <polygon id="Shape" fill="#FFE15A" fill-rule="nonzero" points="13.5987656 10.4416875 13.2236804 11.1916875 12.8487656 10.8167727"></polygon>
                <polygon id="Rectangle-path" fill="#464655" fill-rule="nonzero" transform="translate(12.167555, 10.752743) rotate(-143.928818) translate(-12.167555, -10.752743) " points="11.7925552 10.1694907 12.5425552 10.1694907 12.5425552 11.3359951 11.7925552 11.3359951"></polygon>
                <polygon id="Shape" fill="#FFE15A" fill-rule="nonzero" points="13.40625 10.2816562 13.1271541 11.0316562 12.65625 10.7385675"></polygon>
                <polygon id="Rectangle-path" fill="#464655" fill-rule="nonzero" transform="translate(12.448424, 10.861522) rotate(-124.924898) translate(-12.448424, -10.861522) " points="12.0734236 10.2782821 12.8234236 10.2782821 12.8234236 11.4447619 12.0734236 11.4447619"></polygon>
                <polygon id="Shape" fill="#FFE15A" fill-rule="nonzero" points="13.7676094 10.6483125 13.3008473 11.3983125 13.0176094 10.9137673"></polygon>
                <path d="M12.085127,13.1759531 C12.085127,13.1759531 11.5636193,12.7860938 11.6647692,12.42825 C11.7461201,12.1404375 11.9929338,11.8231406 12.1860748,11.7459375 C12.1860748,11.7459375 12.4592198,11.7342188 12.3907315,11.8993594 C12.3222432,12.0645 12.238872,12.1071094 12.263183,12.2698594 C12.3052727,12.5514375 12.3706632,12.8852813 12.085127,13.1759531 Z" id="Shape" fill="#F5F5F5" fill-rule="nonzero"></path>
                <path d="M12.4017241,11.7479062 C12.3604078,11.7449062 12.3289938,11.7458906 12.3289938,11.7458906 C12.0841693,11.8231406 11.7713096,12.1403906 11.6681896,12.4282031 C11.6098859,12.591 11.7151399,12.7600781 11.8470276,12.8963906 C11.7636268,12.3062812 12.0773402,12.0969375 12.4017241,11.7479062 Z" id="Shape" fill="#41479B" fill-rule="nonzero"></path>
                <path d="M12.3823462,12.2698594 C12.3293122,12.1071094 12.5106828,12.0645469 12.6598227,11.8993594 C12.7641328,11.7837656 12.5048227,11.7548906 12.3394209,11.7479062 C12.3394209,11.7479062 11.9607109,12.0263437 11.9362449,12.2130937 C11.9147089,12.3774375 12.0462686,13.0461562 11.995139,13.1759062 C12.6161649,12.8852812 12.4739106,12.5514375 12.3823462,12.2698594 Z" id="Shape" fill="#FF4B55" fill-rule="nonzero"></path>
                <path d="M11.9387941,12.0667751 C12.0694753,11.9698853 12.2531092,11.9264328 12.4329375,11.9499157 C12.3476789,11.7409739 12.2623394,11.5319706 12.1770809,11.3230288 C11.9973335,11.299546 11.8136187,11.3429985 11.6829375,11.4398883 C11.7681961,11.64883 11.8535356,11.8578334 11.9387941,12.0667751 Z" id="Shape" fill="#F5F0F0" fill-rule="nonzero"></path>
                <path d="M12.2248723,11.9779001 C12.3555535,11.8810103 12.5391873,11.8375578 12.7190156,11.8610407 C12.6337571,11.6520989 12.5484175,11.4430956 12.463159,11.2341538 C12.2834116,11.210671 12.0996968,11.2541235 11.9690156,11.3510133 C12.0542742,11.559955 12.1395327,11.7689584 12.2248723,11.9779001 Z" id="Shape" fill="#F5F5F5" fill-rule="nonzero"></path>
                <path d="M11.5722187,9.74147019 C11.0626875,9.72953008 10.5593906,9.85668514 10.1148281,10.1096633 C10.0536094,9.99887238 9.99239063,9.88808146 9.93121875,9.77729053 C10.4344219,9.49096567 11.0041406,9.34706591 11.5808906,9.36052827 C11.5779844,9.48749305 11.575125,9.61445784 11.5722187,9.74147019 Z" id="Shape" fill="#5F64B9" fill-rule="nonzero"></path>
                <path d="M13.5859687,9.63571875 C13.9160625,9.84726563 14.2070625,10.1166563 14.4415781,10.4346563 C14.3408438,10.5089531 14.2401094,10.5832031 14.139375,10.6575 C13.9324687,10.3768594 13.6757344,10.1391094 13.3845,9.9523125 L13.5859687,9.63571875 Z" id="Shape" fill="#41479B" fill-rule="nonzero"></path>
                <path d="M12.4298906,9.74147019 C12.9394219,9.72953008 13.4427188,9.85668514 13.8872812,10.1096633 C13.9485,9.99887238 14.0097188,9.88808146 14.0708906,9.77729053 C13.5676875,9.49096567 12.9979687,9.34706591 12.4212187,9.36052827 C12.424125,9.48749305 12.4269844,9.61445784 12.4298906,9.74147019 Z" id="Shape" fill="#5F64B9" fill-rule="nonzero"></path>
                <path d="M12.7519687,9.90941016 C12.2603906,9.69764979 11.7417187,9.69764979 11.2501406,9.90941016 C11.2171406,9.71934988 11.1840938,9.52921579 11.1510469,9.33915551 C11.7075,9.09949504 12.2946094,9.09949504 12.8510625,9.33915551 C12.8180156,9.52921579 12.7850156,9.71934988 12.7519687,9.90941016 Z" id="Shape" fill="#41479B" fill-rule="nonzero"></path>
                <g id="Group" transform="translate(9.515625, 13.828125)" fill="#FF6B71" fill-rule="nonzero">
                    <path d="M1.22746875,0.014625 C0.82228125,0.120421875 0.42628125,0.26315625 0.044953125,0.442828125 C0.098296875,0.55603125 0.151640625,0.669234375 0.204984375,0.782484375 C0.572953125,0.609046875 0.9555,0.472171875 1.34685938,0.371625 L1.22746875,0.014625 Z" id="Shape"></path>
                    <path d="M3.7434375,0.014625 C4.148625,0.120421875 4.544625,0.26315625 4.92595312,0.442828125 C4.87260938,0.55603125 4.81926562,0.669234375 4.76592188,0.782484375 C4.39795312,0.609046875 4.01540625,0.472171875 3.62404687,0.371625 L3.7434375,0.014625 Z" id="Shape"></path>
                </g>
                <g id="Group" transform="translate(10.406250, 13.546875)" fill="#FF4B55" fill-rule="nonzero">
                    <path d="M3.10476563,0.783082031 C2.11757813,0.461787363 1.08829688,0.461787363 0.1010625,0.783082031 C0.071859375,0.618113487 0.042609375,0.453144943 0.01340625,0.288112852 C1.05820312,-0.0519282422 2.14757813,-0.0519282422 3.19242188,0.288112852 C3.16317188,0.453081396 3.13396875,0.61804994 3.10476563,0.783082031 Z" id="Shape"></path>
                    <path d="M1.96935938,1.02605817 L1.45231818,1.17632899 C1.33396612,1.21073883 1.21935938,1.10663818 1.21935938,0.964752035 L1.21935938,0.651143368 C1.21935938,0.509257224 1.33396612,0.405156569 1.45231818,0.439566409 L1.96935938,0.589837229 L1.96935938,1.02605817 Z" id="Shape"></path>
                    <path d="M1.59482813,0.589884104 L2.11186932,0.439613284 C2.23022138,0.405203444 2.34482813,0.509304099 2.34482813,0.651190243 L2.34482813,0.96479891 C2.34482813,1.10668505 2.23022138,1.21078571 2.11186932,1.17637587 L1.59482813,1.02610505 L1.59482813,0.589884104 Z" id="Shape"></path>
                </g>
                <path d="M12.3626182,14.7974062 L12.2017568,14.7974062 C12.0390227,14.7974062 11.9071875,14.665571 11.9071875,14.502837 L11.9071875,14.3419755 C11.9071875,14.1792415 12.0390227,14.0474062 12.2017568,14.0474062 L12.3626182,14.0474062 C12.5253523,14.0474062 12.6571875,14.1792415 12.6571875,14.3419755 L12.6571875,14.502837 C12.6571875,14.665571 12.5253523,14.7974062 12.3626182,14.7974062 Z" id="Shape" fill="#FF6B71" fill-rule="nonzero"></path>
            </g>
        </g>
    </g>
</svg>