<?xml version="1.0" encoding="UTF-8"?>
<svg width="24px" height="24px" viewBox="0 0 24 24" version="1.1" xmlns="http://www.w3.org/2000/svg" xmlns:xlink="http://www.w3.org/1999/xlink">
    <!-- Generator: Sketch 55.1 (78136) - https://sketchapp.com -->
    <title>Flags/el_salvador</title>
    <desc>Created with Sketch.</desc>
    <g id="Icons" stroke="none" stroke-width="1" fill="none" fill-rule="evenodd">
        <g id="Flags/el_salvador">
            <g id="el_salvador">
                <g id="Group" fill="#41479B" fill-rule="nonzero">
                    <path d="M23.3172324,8.00015625 L0.682767606,8.00015625 C2.33006912,3.33930514 6.77506631,0 12,0 C17.2249337,0 21.6699309,3.33930514 23.3172324,8.00015625 Z" id="Combined-Shape"></path>
                    <path d="M0.682767606,15.9998437 L23.3172324,15.9998437 C21.6699309,20.6606949 17.2249337,24 12,24 C6.77506631,24 2.33006912,20.6606949 0.682767606,15.9998437 Z" id="Combined-Shape"></path>
                </g>
                <path d="M0.682767606,8.00015625 L23.3172324,8.00015625 C23.7594031,9.2512278 24,10.5975167 24,12 C24,13.4026585 23.759343,14.7491085 23.3170667,16.0003125 L0.682933289,16.0003125 C0.240656953,14.7491085 0,13.4026585 0,12 C0,10.5975167 0.240596851,9.2512278 0.682767606,8.00015625 Z" id="Combined-Shape" fill="#F5F5F5" fill-rule="nonzero"></path>
                <g id="Group" transform="translate(8.812500, 9.890625)" fill="#50AF69" fill-rule="nonzero">
                    <path d="M3.17240625,4.7968125 C1.64882813,4.7968125 0.409265625,3.55725 0.409265625,2.03367187 C0.409265625,1.3828125 0.6399375,0.750796875 1.05890625,0.253828125 L1.17965625,0.35559375 C0.7846875,0.824015625 0.5671875,1.41998437 0.5671875,2.03367187 C0.5671875,3.47015625 1.73592187,4.6389375 3.17245312,4.6389375 L3.17240625,4.7968125 L3.17240625,4.7968125 Z" id="Shape"></path>
                    <path d="M2.16164063,3.98095313 C2.12714063,4.03982813 2.110125,4.12064063 2.10257813,4.20276563 C2.07135938,4.1803125 2.03835938,4.15945313 2.00235938,4.14192188 C2.00235938,4.14192188 1.94807813,4.33321875 1.99054688,4.47098438 C1.99054688,4.47098438 1.84654688,4.48884375 1.71435938,4.62145313 C1.71435938,4.62145313 1.75992188,4.65370313 1.83815625,4.68726563 C1.70685938,4.78973438 1.66635938,4.89098438 1.66635938,4.89098438 C2.44120313,5.27840625 2.81254688,4.7379375 2.82867188,4.71370313 C2.638875,4.1720625 2.16164063,3.98095313 2.16164063,3.98095313 Z" id="Shape"></path>
                    <path d="M2.82867187,4.7475 C2.83617187,4.76925 2.84592187,4.78875 2.85342187,4.8105 L2.85342187,4.7115 C2.85417187,4.7115 2.83467188,4.7385 2.82867187,4.7475 Z" id="Shape"></path>
                    <path d="M1.44609375,3.46448438 C1.39546875,3.50151563 1.35159375,3.5634375 1.31521875,3.62985938 C1.297125,3.59953125 1.27692187,3.56985938 1.25296875,3.54192188 C1.25296875,3.54192188 1.13723437,3.68334375 1.12270312,3.81501563 C1.12270312,3.81501563 0.99478125,3.77742188 0.83484375,3.84089063 C0.83484375,3.84089063 0.86146875,3.88471875 0.915140625,3.941625 C0.767015625,3.97996875 0.6958125,4.0505625 0.6958125,4.0505625 C1.2073125,4.6605 1.71801562,4.34067188 1.74046875,4.32614063 C1.77857812,3.80010938 1.44609375,3.46448438 1.44609375,3.46448438 Z" id="Shape"></path>
                    <path d="M1.74257812,4.34653125 C1.74107812,4.36753125 1.74182812,4.38703125 1.74032813,4.40878125 L1.77632813,4.32478125 C1.77707812,4.32478125 1.75082812,4.34128125 1.74257812,4.34653125 Z" id="Shape"></path>
                    <path d="M1.00214062,2.78939062 C0.946828125,2.80101562 0.887859375,2.83565625 0.83334375,2.87671875 C0.829734375,2.84507812 0.824109375,2.81325 0.81478125,2.78142187 C0.81478125,2.78142187 0.6673125,2.8546875 0.6065625,2.9574375 C0.6065625,2.9574375 0.5154375,2.87915625 0.360515625,2.87203125 C0.360515625,2.87203125 0.366140625,2.91792187 0.38915625,2.98453125 C0.253265625,2.96114062 0.16865625,2.99273437 0.16865625,2.99273437 C0.3628125,3.68325 0.90075,3.60979687 0.924609375,3.6061875 C1.15082812,3.18825 1.00214062,2.78939062 1.00214062,2.78939062 Z" id="Shape"></path>
                    <path d="M0.947859375,3.61115625 C0.938859375,3.62765625 0.932109375,3.64415625 0.923109375,3.66140625 L0.983859375,3.60590625 C0.983859375,3.60590625 0.956859375,3.60965625 0.947859375,3.61115625 Z" id="Shape"></path>
                    <path d="M0.82640625,2.02069999 C0.773953125,2.02422108 0.712921875,2.04775933 0.654421875,2.07766448 C0.658453125,2.04896518 0.66065625,2.01983178 0.659578125,1.9903125 C0.659578125,1.9903125 0.510046875,2.03738899 0.4318125,2.12155752 C0.4318125,2.12155752 0.367734375,2.04033127 0.22996875,2.01467073 C0.22996875,2.01467073 0.224484375,2.056345 0.229921875,2.11866347 C0.11296875,2.08089616 0.029578125,2.09854985 0.029578125,2.09854985 C0.045890625,2.73919533 0.5469375,2.74054588 0.56925,2.74030471 C0.868734375,2.39528611 0.82640625,2.02069999 0.82640625,2.02069999 Z" id="Shape"></path>
                    <path d="M0.6009375,2.719125 C0.5889375,2.732625 0.5791875,2.746125 0.5671875,2.759625 L0.6346875,2.719125 C0.6339375,2.719125 0.6084375,2.719125 0.6009375,2.719125 Z" id="Shape"></path>
                    <path d="M0.915345842,1.39919452 C0.868570496,1.3873949 0.808989361,1.3911211 0.74999475,1.40136813 C0.761040966,1.3766821 0.770620869,1.35111627 0.777414781,1.32420487 C0.777414781,1.32420487 0.634302751,1.3238426 0.543782438,1.37725138 C0.543782438,1.37725138 0.509030849,1.28585612 0.395245055,1.22339062 C0.395245055,1.22339062 0.379555519,1.25930699 0.367922779,1.31701124 C0.275545137,1.24957749 0.197977244,1.24165932 0.197977244,1.24165932 C0.0443077698,1.8228938 0.482197343,1.96723205 0.501748167,1.97339062 C0.85420064,1.74842168 0.915345842,1.39919452 0.915345842,1.39919452 Z" id="Shape"></path>
                    <path d="M0.524578125,1.90265625 C0.511078125,1.91090625 0.499828125,1.91990625 0.485578125,1.92815625 L0.552328125,1.91165625 C0.553078125,1.91165625 0.531328125,1.90490625 0.524578125,1.90265625 Z" id="Shape"></path>
                    <path d="M0.568018999,0.60885465 C0.568018999,0.60885465 0.375281492,1.07992319 0.674330811,1.35267187 C0.674330811,1.35267187 1.06416183,1.24520936 1.25689934,0.867117977 L1.09301248,0.838206145 L1.00885949,0.602671875 L0.729759416,0.718378085 L0.568018999,0.60885465 Z" id="Shape"></path>
                    <path d="M0.992859653,0.004875 C0.992859653,0.004875 0.698106849,0.424721275 0.917646868,0.754875 C0.917646868,0.754875 1.31360738,0.732525769 1.58636922,0.403613668 L1.43742203,0.340527345 L1.4132135,0.0923208021 L1.12055507,0.146242757 L0.992859653,0.004875 Z" id="Shape"></path>
                    <path d="M3.20259375,4.7968125 L3.20259375,4.6389375 C4.639125,4.6389375 5.80785938,3.47015625 5.80785938,2.03367187 C5.80785938,1.41998437 5.59035938,0.824015625 5.19539063,0.35559375 L5.31614063,0.253828125 C5.73510938,0.750796875 5.96578125,1.38285937 5.96578125,2.03367187 C5.96578125,3.55725 4.72621875,4.7968125 3.20259375,4.7968125 Z" id="Shape"></path>
                    <path d="M4.21335938,3.98095313 C4.24785937,4.03982813 4.264875,4.12064063 4.27242188,4.20276563 C4.30364062,4.1803125 4.3366875,4.15945313 4.37264062,4.14192188 C4.37264062,4.14192188 4.42692187,4.33321875 4.38445312,4.47098438 C4.38445312,4.47098438 4.52845312,4.48884375 4.66064062,4.62145313 C4.66064062,4.62145313 4.61507813,4.65370313 4.53684375,4.68726563 C4.66814062,4.78973438 4.70864062,4.89098438 4.70864062,4.89098438 C3.93379687,5.27840625 3.56245312,4.7379375 3.54632812,4.71370313 C3.736125,4.1720625 4.21335938,3.98095313 4.21335938,3.98095313 Z" id="Shape"></path>
                    <path d="M3.56955099,4.7475 C3.56205099,4.76925 3.55230099,4.78875 3.54480099,4.8105 L3.54480099,4.7115 C3.54405099,4.7115 3.56355099,4.7385 3.56955099,4.7475 Z" id="Shape"></path>
                    <path d="M4.92890625,3.46448438 C4.97953125,3.50151563 5.02340625,3.5634375 5.05978125,3.62985938 C5.077875,3.59953125 5.09807813,3.56985938 5.12203125,3.54192188 C5.12203125,3.54192188 5.23776563,3.68334375 5.25229688,3.81501563 C5.25229688,3.81501563 5.38021875,3.77742188 5.54015625,3.84089063 C5.54015625,3.84089063 5.51353125,3.88471875 5.45985938,3.941625 C5.60798438,3.97996875 5.6791875,4.0505625 5.6791875,4.0505625 C5.1676875,4.6605 4.65698437,4.34067188 4.63453125,4.32614063 C4.59642188,3.80010938 4.92890625,3.46448438 4.92890625,3.46448438 Z" id="Shape"></path>
                    <path d="M4.66618664,4.34653125 C4.66768664,4.36753125 4.66693664,4.38703125 4.66843664,4.40878125 L4.63243664,4.32478125 C4.63168664,4.32478125 4.65793664,4.34128125 4.66618664,4.34653125 Z" id="Shape"></path>
                    <path d="M5.37285937,2.78939062 C5.42817187,2.80101562 5.48714062,2.83565625 5.54165625,2.87671875 C5.54526562,2.84507812 5.55089062,2.81325 5.56021875,2.78142187 C5.56021875,2.78142187 5.7076875,2.8546875 5.7684375,2.9574375 C5.7684375,2.9574375 5.8595625,2.87915625 6.01448437,2.87203125 C6.01448437,2.87203125 6.00885937,2.91792187 5.98584375,2.98453125 C6.12173437,2.96114062 6.20634375,2.99273437 6.20634375,2.99273437 C6.0121875,3.68325 5.47425,3.60979687 5.45039062,3.6061875 C5.22417187,3.18825 5.37285937,2.78939062 5.37285937,2.78939062 Z" id="Shape"></path>
                    <path d="M5.48409375,3.61115625 C5.49309375,3.62765625 5.49984375,3.64415625 5.50884375,3.66140625 L5.44809375,3.60590625 C5.44809375,3.60590625 5.47509375,3.60965625 5.48409375,3.61115625 Z" id="Shape"></path>
                    <path d="M5.54859375,2.02069999 C5.60104687,2.02422108 5.66207812,2.04775933 5.72057812,2.07766448 C5.71654687,2.04896518 5.71434375,2.01983178 5.71542187,1.9903125 C5.71542187,1.9903125 5.86495312,2.03738899 5.9431875,2.12155752 C5.9431875,2.12155752 6.00726562,2.04033127 6.14503125,2.01467073 C6.14503125,2.01467073 6.15051562,2.056345 6.14507812,2.11866347 C6.26203125,2.08089616 6.34542187,2.09854985 6.34542187,2.09854985 C6.32910937,2.73919533 5.8280625,2.74054588 5.80575,2.74030471 C5.50626562,2.39528611 5.54859375,2.02069999 5.54859375,2.02069999 Z" id="Shape"></path>
                    <path d="M5.83734375,2.719125 C5.84934375,2.732625 5.85909375,2.746125 5.87109375,2.759625 L5.80359375,2.719125 C5.80434375,2.719125 5.82984375,2.719125 5.83734375,2.719125 Z" id="Shape"></path>
                    <path d="M5.490375,1.39919452 C5.53715035,1.3873949 5.59673148,1.3911211 5.65572609,1.40136813 C5.64467988,1.3766821 5.63509997,1.35111627 5.62830606,1.32420487 C5.62830606,1.32420487 5.77141809,1.3238426 5.8619384,1.37725138 C5.8619384,1.37725138 5.89668999,1.28585612 6.01047579,1.22339062 C6.01047579,1.22339062 6.02616532,1.25930699 6.03779806,1.31701124 C6.1301757,1.24957749 6.2077436,1.24165932 6.2077436,1.24165932 C6.36141307,1.8228938 5.9235235,1.96723205 5.90397267,1.97339062 C5.5515202,1.74842168 5.490375,1.39919452 5.490375,1.39919452 Z" id="Shape"></path>
                    <path d="M5.91301774,1.90265625 C5.92651774,1.91090625 5.93776774,1.91990625 5.95201774,1.92815625 L5.88526774,1.91165625 C5.88451774,1.91165625 5.90626774,1.90490625 5.91301774,1.90265625 Z" id="Shape"></path>
                    <path d="M6.00009909,0.60885465 C6.00009909,0.60885465 6.1928366,1.07992319 5.89378728,1.35267187 C5.89378728,1.35267187 5.50395626,1.24520936 5.31121875,0.867117977 L5.47510561,0.838206145 L5.5592586,0.602671875 L5.83835867,0.718378085 L6.00009909,0.60885465 Z" id="Shape"></path>
                    <path d="M5.56141582,0.004875 C5.56141582,0.004875 5.85616862,0.424721275 5.6366286,0.754875 C5.6366286,0.754875 5.24066809,0.732525769 4.96790625,0.403613668 L5.11685344,0.340527345 L5.14106197,0.0923208021 L5.4337204,0.146242757 L5.56141582,0.004875 Z" id="Shape"></path>
                </g>
                <path d="M12.1044243,13.0263281 L11.7661434,13.3924687 C11.7083881,13.455 11.7197573,13.5382969 11.7934294,13.5914062 L12.1044243,13.8157969 L12.4154192,13.5914062 C12.4890913,13.53825 12.5005254,13.455 12.4427052,13.3924687 L12.1044243,13.0263281 Z" id="Shape" fill="#41479B" fill-rule="nonzero"></path>
                <path d="M12.5979961,13.3924688 L12.2596993,13.0263281 L11.9214025,13.3924687 C11.8636222,13.455 11.8750563,13.53825 11.9486919,13.5914062 L12.2596993,13.8157969 L12.5707067,13.5914062 C12.6443423,13.53825 12.6557764,13.4549531 12.5979961,13.3924688 Z" id="Shape" fill="#F5F5F5" fill-rule="nonzero"></path>
                <g id="Group" transform="translate(10.078125, 8.718750)" fill="#41479B" fill-rule="nonzero">
                    <path d="M2.34973942,1.03125 L2.34973942,0.044390625 C2.34973942,0.044390625 1.47665983,0.583875 1.61449727,1.37334375" id="Shape"></path>
                    <path d="M0.240140625,1.034625 C-0.302296875,2.2119375 0.254109375,3.18075 0.370921875,3.36310799 C0.374015625,3.36796875 1.14557813,2.119875 1.14557813,2.119875 L0.240140625,1.034625" id="Shape"></path>
                </g>
                <path d="M11.1427824,11.3785312 C11.0129258,11.112 10.9940699,10.8008438 11.1500401,10.4437031 L10.6405044,10.0413281 C10.2217615,10.7845312 10.3950933,11.3333437 10.8141208,11.7270469 C10.917081,11.6181563 11.0313548,11.4969375 11.1427824,11.3785312 Z" id="Shape" fill="#F5F5F5" fill-rule="nonzero"></path>
                <path d="M11.210625,10.9044375 C11.1870938,10.9044375 11.1638438,10.8939375 11.1482344,10.8739219 L10.1582344,9.60103125 C10.1314219,9.566625 10.1376563,9.51698437 10.1720156,9.4903125 C10.2066094,9.4635 10.2560625,9.46978125 10.2827813,9.5041875 L11.2727813,10.7770781 C11.2995938,10.8114844 11.2933594,10.861125 11.259,10.8877969 C11.2446094,10.8990469 11.2275,10.9044375 11.210625,10.9044375 Z" id="Shape" fill="#FFE15A" fill-rule="nonzero"></path>
                <path d="M9.63159375,10.9768125 C9.31579688,14.1346875 11.842125,13.3452187 12,13.0294219 L10.4210625,12.2399531 L10.7368594,11.6083594 L9.63159375,10.9768125" id="Shape" fill="#41479B" fill-rule="nonzero"></path>
                <path d="M10.3950469,11.3401406 L9.95498437,11.0760938 C9.85598437,12.9525937 10.8580781,13.2651094 11.5971563,13.1720156 C10.9979062,13.0915781 10.3992656,12.649125 10.3950469,11.3401406 Z" id="Shape" fill="#F5F5F5" fill-rule="nonzero"></path>
                <path d="M10.7366719,11.6871563 C10.7224219,11.6871563 10.7079375,11.6833125 10.6949062,11.6751094 L9.4318125,10.8857813 C9.394875,10.8626719 9.383625,10.8139219 9.40673437,10.7770781 C9.42979687,10.7399063 9.47845312,10.7286563 9.51553125,10.7519531 L10.778625,11.5412813 C10.8155625,11.5643906 10.8268125,11.6131406 10.8037031,11.6499844 C10.78875,11.6740313 10.7629687,11.6871563 10.7366719,11.6871563 Z" id="Shape" fill="#FFE15A" fill-rule="nonzero"></path>
                <path d="M13.6817344,9.75028125 C14.2241719,10.9275937 13.6677656,11.8964062 13.5509531,12.0787642 C13.5478125,12.083625 12.7762969,10.8355312 12.7762969,10.8355312 L13.6817344,9.75028125" id="Shape" fill="#41479B" fill-rule="nonzero"></path>
                <path d="M13.1131327,11.3753906 C13.2429893,11.1088594 13.2618452,10.7977031 13.105875,10.4405625 L13.6154107,10.0381875 C14.0341536,10.7813906 13.8608218,11.3302031 13.4417943,11.7239063 C13.3388341,11.6150156 13.2245603,11.4937969 13.1131327,11.3753906 Z" id="Shape" fill="#F5F5F5" fill-rule="nonzero"></path>
                <path d="M12.789375,10.9013906 C12.7725,10.9013906 12.7553906,10.896 12.7409531,10.88475 C12.7065469,10.8580781 12.7003125,10.8084375 12.7271719,10.7740313 L13.7171719,9.50114063 C13.7439844,9.46673438 13.7934844,9.46059375 13.8279375,9.48726563 C13.8623438,9.5139375 13.8685781,9.56357813 13.8417188,9.59798438 L12.8517188,10.870875 C12.8362031,10.8908906 12.8129063,10.9013906 12.789375,10.9013906 Z" id="Shape" fill="#FFE15A" fill-rule="nonzero"></path>
                <path d="M14.3684062,10.9736719 C14.6842031,14.1315469 12.157875,13.3420781 12,13.0262813 L13.5789375,12.2368125 L13.2631406,11.6052188 L14.3684062,10.9736719" id="Shape" fill="#41479B" fill-rule="nonzero"></path>
                <path d="M13.6049531,11.337 L14.0450156,11.0729531 C14.1440156,12.9494531 13.1419219,13.2619687 12.4028438,13.168875 C13.0020938,13.0884844 13.6007344,12.6460313 13.6049531,11.337 Z" id="Shape" fill="#F5F5F5" fill-rule="nonzero"></path>
                <path d="M13.2633281,11.6840625 C13.2370313,11.6840625 13.2112969,11.6709375 13.1963438,11.6468906 C13.1732344,11.6100469 13.1844844,11.5612969 13.2214219,11.5381875 L14.4845156,10.7488594 C14.5215938,10.7255625 14.57025,10.7368125 14.5933125,10.7739844 C14.6164219,10.8108281 14.6051719,10.8595781 14.5682344,10.8826875 L13.3051406,11.6720156 C13.2920625,11.6802187 13.2775781,11.6840625 13.2633281,11.6840625 Z" id="Shape" fill="#FFE15A" fill-rule="nonzero"></path>
                <circle id="Oval" fill="#FFE6E6" fill-rule="nonzero" cx="12.1184062" cy="11.2498125" r="1"></circle>
                <circle id="Oval" fill="#F5F5F5" fill-rule="nonzero" cx="12.4342031" cy="11.5656094" r="1"></circle>
                <path d="M12.2960625,12.157875 C12.0887436,12.157875 11.9210625,12.1225781 11.9210625,12.0789375 L11.9210625,11.1315469 C11.9210625,11.0879062 12.0887436,11.0526094 12.2960625,11.0526094 C12.5033814,11.0526094 12.6710625,11.0879062 12.6710625,11.1315469 L12.6710625,12.0789375 C12.6710625,12.1225781 12.5033814,12.157875 12.2960625,12.157875 Z" id="Shape" fill="#FFE15A" fill-rule="nonzero"></path>
                <polygon id="Shape" fill="#5AA0E6" fill-rule="nonzero" points="14.1578906 13.0131562 9.92760937 13.0131562 10.4210625 12.07425 13.5921094 12.07425"></polygon>
                <path d="M12.1284844,12.5750853 L13.2286406,12.5750853 L12.8864063,11.9709988 C12.8702813,11.9425362 12.8506875,11.9211892 12.8290781,11.9084472 L12.7099688,11.8383662 C12.6670313,11.8131304 12.619875,11.8242176 12.5822344,11.8685664 L12.2018438,12.3161911 L12.1284844,12.5750853 Z" id="Shape" fill="#FFB750" fill-rule="nonzero"></path>
                <path d="M11.754375,12.5520691 L13.0674375,12.5520691 L12.6589687,11.9479665 C12.63975,11.919543 12.6163125,11.8981214 12.5905312,11.8854348 L12.4483594,11.8153467 C12.397125,11.7901123 12.3408281,11.8012043 12.295875,11.8455727 L11.8418906,12.2932076 L11.754375,12.5520691 Z" id="Shape" fill="#FFC455" fill-rule="nonzero"></path>
                <path d="M11.2975781,12.5125586 L12.8832187,12.5125586 L12.3899531,11.9085021 C12.36675,11.8800874 12.3384375,11.8586759 12.3073125,11.8459323 L12.1356094,11.7758427 C12.0737344,11.7505852 12.0057656,11.7617215 11.9514844,11.8060369 L11.4032812,12.2536116 L11.2975781,12.5125586 Z" id="Shape" fill="#FFCD55" fill-rule="nonzero"></path>
                <path d="M10.8456094,12.4829459 L12.6611719,12.4829459 L12.096375,11.8788913 C12.0697969,11.8504658 12.0374063,11.8290589 12.0017344,11.8163251 L11.8051406,11.7462389 C11.7342656,11.7209718 11.6564531,11.7321014 11.5942969,11.7764191 L10.9665938,12.2240081 L10.8456094,12.4829459 Z" id="Shape" fill="#FFD25A" fill-rule="nonzero"></path>
                <path d="M10.1052656,12.5526094 L12.4736719,12.5526094 L11.7368906,11.8158281 C11.7022031,11.7811406 11.6599687,11.7550312 11.6134687,11.7395625 L11.3570156,11.6540625 C11.2645781,11.6232656 11.1630469,11.6368594 11.082,11.6909062 L10.2631406,12.2368125 L10.1052656,12.5526094 Z" id="Shape" fill="#FFE15A" fill-rule="nonzero"></path>
                <g id="Group" transform="translate(11.765625, 10.921875)" fill="#FF4B55" fill-rule="nonzero">
                    <path d="M0.851475,0.788583333 L0.101475,0.788583333 L0.274171691,0.0385833333 L0.53481291,0.0385833333 C0.619256134,0.0385833333 0.692577568,0.0986302617 0.71224666,0.183634528 L0.851475,0.788583333 Z" id="Shape"></path>
                    <path d="M0.717507905,1.28033333 L0.138992095,1.28033333 C0.0916525484,1.28033333 0.05325,1.13637049 0.05325,0.958904762 L0.05325,0.851761905 C0.05325,0.674296182 0.0916525484,0.530333333 0.138992095,0.530333333 L0.717507905,0.530333333 C0.764847452,0.530333333 0.80325,0.674296182 0.80325,0.851761905 L0.80325,0.958904762 C0.803161515,1.13637049 0.764847452,1.28033333 0.717507905,1.28033333 Z" id="Shape"></path>
                    <path d="M0.878415928,0.788666667 L0.316290695,0.691696023 C0.146897211,0.662417447 0.0733673825,0.526564855 0.174384998,0.429359983 L0.58086064,0.0386666667 L0.878415928,0.788666667 Z" id="Shape"></path>
                </g>
                <path d="M11.6061562,10.6217742 C11.6024062,10.738011 11.5987031,10.85406 11.5949531,10.9702967 C11.717625,10.6720997 11.8530469,10.4929561 12,10.4931439 C12.1469531,10.4937073 12.2823281,10.6715363 12.4050469,10.9702967 C12.4012969,10.85406 12.3975937,10.7378232 12.3938438,10.6217742 C12.2717813,10.3665792 12.1404375,10.2199219 12,10.2202967 C11.8596094,10.2201096 11.7282187,10.3663914 11.6061562,10.6217742 Z" id="Shape" fill="#41479B" fill-rule="nonzero"></path>
                <path d="M11.6110312,10.5842677 C11.6072812,10.7002722 11.6035312,10.8160893 11.5998281,10.9320937 C11.7211875,10.6337429 11.8549219,10.4549573 12,10.4543951 C12.1450781,10.4549573 12.2788594,10.6337429 12.4001719,10.9320937 C12.3964219,10.8160893 12.3927187,10.7000848 12.3889688,10.5842677 C12.2682656,10.3277084 12.1386094,10.1824686 12,10.1820937 C11.8613906,10.1824686 11.7317344,10.3282707 11.6110312,10.5842677 Z" id="Shape" fill="#5AA0E6" fill-rule="nonzero"></path>
                <path d="M11.6155313,10.5496647 C11.6117812,10.6654378 11.6080312,10.7810238 11.6043281,10.8967968 C11.7244687,10.5981061 11.8566563,10.418181 12,10.418555 C12.1433906,10.418555 12.2755312,10.5981061 12.3956719,10.8967968 C12.3919219,10.7810238 12.3881719,10.6654378 12.3844687,10.5496647 C12.2650781,10.2938045 12.1369688,10.146984 12,10.1467968 C11.8630781,10.14661 11.7349688,10.2936174 11.6155313,10.5496647 Z" id="Shape" fill="#9BC800" fill-rule="nonzero"></path>
                <path d="M11.6206875,10.5099965 C11.6169375,10.625539 11.6131875,10.7410816 11.6094844,10.8564375 C11.7282187,10.5574081 11.858625,10.3774679 12,10.3776545 C12.141375,10.3782145 12.2717812,10.5572215 12.3905156,10.8564375 C12.3867656,10.7408949 12.3830156,10.625539 12.3793125,10.5099965 C12.2613281,10.2535256 12.1350469,10.1066242 12,10.1064375 C11.865,10.1066242 11.7386719,10.2535256 11.6206875,10.5099965 Z" id="Shape" fill="#FFE14E" fill-rule="nonzero"></path>
                <path d="M11.62575,10.4711145 C11.622,10.5863988 11.61825,10.7014969 11.6145469,10.8167813 C11.7319219,10.517489 11.8605,10.3375784 12,10.3373921 C12.1394531,10.3381371 12.2680781,10.5169302 12.3854531,10.8167813 C12.3817031,10.7014969 12.3779531,10.5863988 12.37425,10.4711145 C12.2577188,10.2146581 12.1331719,10.0671537 12,10.0667813 C11.866875,10.06734 11.7422813,10.2140994 11.62575,10.4711145 Z" id="Shape" fill="#FFB14E" fill-rule="nonzero"></path>
                <path d="M11.6279062,10.5192505 C11.6252812,10.6127302 11.6226563,10.7064258 11.6200781,10.7999055 C11.7359062,10.4525409 11.8626563,10.2420496 12,10.2422655 C12.1373437,10.2418337 12.2640938,10.4521091 12.3799219,10.7999055 C12.3772969,10.7064258 12.3746719,10.6127302 12.3720938,10.5192505 C12.2561719,10.2215402 12.1323281,10.0501247 12,10.0499055 C11.8676719,10.0490452 11.7438281,10.2206766 11.6279062,10.5192505 Z" id="Shape" fill="#FF4B55" fill-rule="nonzero"></path>
                <g id="Group" transform="translate(9.703125, 8.484375)" fill="#FFE15A" fill-rule="nonzero">
                    <path d="M4.50741149,4.62089063 L0.08634375,4.62089063 C0.0571875,4.62089063 0.03046875,4.60485938 0.016734375,4.57926563 C0.003,4.55353125 0.004546875,4.52235938 0.020671875,4.49817188 L2.23120312,1.182375 C2.2605,1.13859375 2.33329687,1.13859375 2.36259375,1.182375 L4.573125,4.49817188 C4.58925,4.52235938 4.59079687,4.55353125 4.5770625,4.57926563 C4.56328125,4.60485938 4.5365625,4.62089063 4.50741149,4.62089063 Z M0.2338125,4.46301563 L4.35989062,4.46301563 L2.296875,1.36846875 L0.2338125,4.46301563 Z" id="Shape"></path>
                    <path d="M2.5929375,0.791953125 C2.38561862,0.791953125 2.2179375,0.736064951 2.2179375,0.666965495 L2.2179375,0.166940755 C2.2179375,0.0978412992 2.38561862,0.041953125 2.5929375,0.041953125 C2.80025638,0.041953125 2.9679375,0.0978412992 2.9679375,0.166940755 L2.9679375,0.666965495 C2.9679375,0.736064951 2.80025638,0.791953125 2.5929375,0.791953125 Z" id="Shape"></path>
                    <path d="M2.68502793,1.10775 L2.18500324,1.10775 C2.11590379,1.10775 2.06001563,0.940068884 2.06001563,0.73275 C2.06001563,0.525431116 2.11590379,0.35775 2.18500324,0.35775 L2.68502793,0.35775 C2.75412738,0.35775 2.81001555,0.525431116 2.81001555,0.73275 C2.81008977,0.940068884 2.75412738,1.10775 2.68502793,1.10775 Z" id="Shape"></path>
                </g>
                <g id="Group" transform="translate(11.484375, 14.062500)" fill="#41479B" fill-rule="nonzero">
                    <path d="M0.662459575,0.7935 C0.65506486,0.7935 0.647609534,0.792709566 0.640336044,0.791128699 C0.540446789,0.768753344 0.206957297,0.68849392 0.108704577,0.590723348 C-0.0160963794,0.46632124 -0.0168843408,0.263301378 0.10700743,0.137926429 C0.167134942,0.0773062424 0.247082714,0.0437432104 0.332303766,0.0435 L0.333394789,0.0435 C0.418252166,0.0435 0.497957488,0.0765158087 0.558206226,0.136527969 C0.656519558,0.234541751 0.739073664,0.568165586 0.761985155,0.668125051 C0.769864769,0.702356911 0.759621271,0.738352047 0.73495202,0.763341913 C0.715495435,0.782920349 0.689371486,0.7935 0.662459575,0.7935 Z M0.333394789,0.248283137 C0.306301041,0.257281921 0.273570338,0.260504459 0.251871095,0.282271788 C0.207320972,0.327265707 0.207624034,0.400472031 0.252598444,0.445283543 C0.277328308,0.469482975 0.38770351,0.51131516 0.519959794,0.549073571 C0.481289075,0.416888731 0.438799774,0.30647122 0.414372972,0.281663762 L0.486259292,0.209065464 L0.414251747,0.281663762 C0.392613116,0.260078841 0.363882832,0.248283137 0.333394789,0.248283137 Z" id="Shape"></path>
                    <path d="M0.538773531,0.793453125 C0.511861086,0.793453125 0.485736618,0.782874331 0.466279647,0.763236685 C0.44167052,0.738248845 0.431366205,0.702256627 0.439245975,0.668027541 C0.462157922,0.568015382 0.544713666,0.234418592 0.64302895,0.136473553 L0.64302895,0.136473553 C0.703521338,0.0762838643 0.77565154,0.0488641172 0.868935894,0.043453125 C0.954158637,0.043635518 1.034108,0.0772566269 1.09411547,0.137871899 C1.21813093,0.263297483 1.21734295,0.46624009 1.09260013,0.59044972 C0.994224237,0.688455557 0.660728125,0.768647678 0.560836887,0.791021218 C0.553623867,0.792662755 0.546168392,0.793453125 0.538773531,0.793453125 Z M0.715037925,0.209065965 L0.786925672,0.281658378 C0.762498385,0.306463825 0.720008241,0.416872386 0.681336755,0.54904651 C0.813656277,0.511230362 0.923973057,0.469462366 0.948824639,0.445021705 C0.993678714,0.400396218 0.993981782,0.327195829 0.949309548,0.282205557 C0.927791714,0.260379195 0.898939633,0.248219662 0.868269144,0.248219662 L0.867844849,0.248219662 C0.8373562,0.248219662 0.808625347,0.260014409 0.786986286,0.28159758 L0.715037925,0.209065965 Z M0.715037925,0.209065965 L0.719987925,0.209065965 L0.715037925,0.209065965 Z" id="Shape"></path>
                    <path d="M0.24589976,1.21375108 C0.176788415,1.21375108 0.120890625,1.17183903 0.120890625,1.12001948 C0.120890625,0.691937651 0.66687767,0.482488697 0.690112741,0.473694401 C0.752246141,0.45042848 0.826628061,0.469464234 0.857509177,0.515439476 C0.888538761,0.561581698 0.863744787,0.617798399 0.802353722,0.641231301 C0.797973948,0.642901104 0.370983128,0.809102161 0.370983128,1.12001948 C0.370908894,1.17183903 0.315011104,1.21375108 0.24589976,1.21375108 Z" id="Shape"></path>
                    <path d="M1.06173249,1.21375108 C0.992621146,1.21375108 0.936723356,1.17183903 0.936723356,1.12001948 C0.936723356,0.809102161 0.509732535,0.642901104 0.505352761,0.641231301 C0.443961696,0.617798399 0.419167723,0.561581698 0.450197306,0.515439476 C0.481301123,0.469464234 0.555683042,0.45042848 0.617593742,0.473694401 C0.640828813,0.482488697 1.18681586,0.691937651 1.18681586,1.12001948 C1.18674162,1.17183903 1.13084383,1.21375108 1.06173249,1.21375108 Z" id="Shape"></path>
                </g>
                <circle id="Oval" stroke="#FFFFFF" cx="12" cy="12" r="11.5"></circle>
            </g>
        </g>
    </g>
</svg>