<?xml version="1.0" encoding="UTF-8"?>
<svg width="24px" height="24px" viewBox="0 0 24 24" version="1.1" xmlns="http://www.w3.org/2000/svg" xmlns:xlink="http://www.w3.org/1999/xlink">
    <!-- Generator: Sketch 55.1 (78136) - https://sketchapp.com -->
    <title>Flags/british_columbia</title>
    <desc>Created with Sketch.</desc>
    <g id="Icons" stroke="none" stroke-width="1" fill="none" fill-rule="evenodd">
        <g id="Flags/british_columbia">
            <g id="british_columbia">
                <path d="M11.9012138,0.201641 L12.2988018,0.201641 C18.70345,0.306543516 23.8776272,5.47120203 23.997844,11.8721226 L23.997844,12.100235 L0.203938,12.100235 L0.203938,11.7921466 C0.365543681,5.42823537 5.52326139,0.306106262 11.9012138,0.201641 Z" id="Combined-Shape" fill="#41479B" fill-rule="nonzero"></path>
                <path d="M23.9979844,12.2221812 C23.8807191,18.6804151 18.6614869,23.8925336 12.200465,23.9983594 L11.799535,23.9983594 C5.36797259,23.8930162 0.166901562,18.727839 0.0039375,12.3104433 L0.0039375,12 L23.9979844,12 L23.9979844,12.2221812 Z" id="Combined-Shape" fill="#F5F5F5" fill-rule="nonzero"></path>
                <path d="M20.055452,3.10551446 L17.4225937,4.42209375 L21.3050711,4.42209375 C22.0746597,5.36594738 22.7035016,6.4291001 23.1595919,7.57954687 L17.4225937,7.57954687 L23.9447494,10.8409966 C23.9742824,11.1491608 23.9921604,11.4607279 23.9979375,11.7752521 L23.9979375,12 L21.1020937,12 L13.438125,8.16754687 L13.438125,12 L10.56375,12 L10.56375,8.16754687 L2.89978125,12 L0.0039375,12 L0.0039375,11.6895567 C0.0111775641,11.4044487 0.0283617982,11.1218123 0.0551563111,10.8419814 L6.57928125,7.57954687 L0.840408132,7.57954687 C1.29649838,6.4291001 1.92534032,5.36594738 2.69492894,4.42209375 L6.57928125,4.42209375 L3.94521473,3.10491027 C4.58729143,2.52313417 5.29263763,2.00991155 6.04970207,1.57679369 L10.56375,3.83409375 L10.56375,0.0850641109 C10.9698001,0.036633143 11.3820755,0.00847823762 11.799535,0.001640625 L12.200465,0.001640625 C12.6185671,0.00848876245 13.0314691,0.0367198687 13.438125,0.0852878979 L13.438125,3.83409375 L17.9511724,1.57729402 C18.7081676,2.01045672 19.4134441,2.52371351 20.055452,3.10551446 Z" id="Combined-Shape" fill="#F5F5F5" fill-rule="nonzero"></path>
                <path d="M23.4041187,15.4353003 C22.6724308,15.3105512 22.5123241,14.9206875 21.511599,14.9206875 C20.3211559,14.9206875 20.3211559,15.4732031 19.1306664,15.4732031 C17.9412459,15.4732031 17.9412459,14.9206875 16.7518254,14.9206875 C15.5625444,14.9206875 15.5625444,15.4732031 14.3733098,15.4732031 C13.1837034,15.4732031 13.1837034,14.9206875 11.994097,14.9206875 C10.8044906,14.9206875 10.8044906,15.4732031 9.61493063,15.4732031 C8.4253707,15.4732031 8.42532422,14.9206875 7.23576429,14.9206875 C6.04671564,14.9206875 6.04671564,15.4732031 4.85762051,15.4732031 C3.66912962,15.4732031 3.66912962,14.9206875 2.48068521,14.9206875 C1.48362577,14.9206875 1.32250531,15.3090628 0.595668847,15.4345823 C0.440069502,14.9083306 0.319307204,14.3669328 0.23608,13.8131101 C1.29334992,13.7733337 1.33788983,13.2630469 2.48068521,13.2630469 C3.6691761,13.2630469 3.6691761,13.8155625 4.85762051,13.8155625 C6.04666916,13.8155625 6.04666916,13.2630469 7.23576429,13.2630469 C8.4253707,13.2630469 8.4253707,13.8155625 9.61493063,13.8155625 C10.8044906,13.8155625 10.8044906,13.2630469 11.994097,13.2630469 C13.1837034,13.2630469 13.1837034,13.8155625 14.3733098,13.8155625 C15.5625444,13.8155625 15.5625444,13.2630469 16.7518254,13.2630469 C17.9412459,13.2630469 17.9412459,13.8155625 19.1306664,13.8155625 C20.3211559,13.8155625 20.3211559,13.2630469 21.511599,13.2630469 C22.6577529,13.2630469 22.7011262,13.7745366 23.763899,13.8132487 C23.6806346,14.367275 23.5598075,14.9088669 23.4041187,15.4353003 Z M22.1293761,18.299524 C21.9616175,18.2606536 21.7631703,18.2360156 21.511599,18.2360156 C20.3211559,18.2360156 20.3211559,18.7885313 19.1306664,18.7885313 C17.9412459,18.7885313 17.9412459,18.2360156 16.7518254,18.2360156 C15.5625444,18.2360156 15.5625444,18.7885313 14.3733098,18.7885313 C13.1837034,18.7885313 13.1837034,18.2360156 11.994097,18.2360156 C10.8044906,18.2360156 10.8044906,18.7885313 9.61493063,18.7885313 C8.4253707,18.7885313 8.42532422,18.2360156 7.23576429,18.2360156 C6.04671564,18.2360156 6.04671564,18.7885313 4.85762051,18.7885313 C3.66912962,18.7885313 3.66912962,18.2360156 2.48068521,18.2360156 C2.2324537,18.2360156 2.03603609,18.2600882 1.86980277,18.298184 C1.5998224,17.8574634 1.35732939,17.3978034 1.1447358,16.9216367 C1.49974216,16.7652493 1.78911528,16.578375 2.48068521,16.578375 C3.6691761,16.578375 3.6691761,17.1308906 4.85762051,17.1308906 C6.04666916,17.1308906 6.04666916,16.578375 7.23576429,16.578375 C8.4253707,16.578375 8.4253707,17.1308906 9.61493063,17.1308906 C10.8044906,17.1308906 10.8044906,16.578375 11.994097,16.578375 C13.1837034,16.578375 13.1837034,17.1308906 14.3733098,17.1308906 C15.5625444,17.1308906 15.5625444,16.578375 16.7518254,16.578375 C17.9412459,16.578375 17.9412459,17.1308906 19.1306664,17.1308906 C20.3211559,17.1308906 20.3211559,16.578375 21.511599,16.578375 C22.2072962,16.578375 22.4966963,16.766823 22.8543844,16.9236063 C22.6417861,17.3995536 22.3993135,17.8590028 22.1293761,18.299524 Z M18.5176827,22.0412775 C17.8890061,21.8965895 17.6919769,21.5513906 16.7518254,21.5513906 C15.5625444,21.5513906 15.5625444,22.1039063 14.3733098,22.1039063 C13.1837034,22.1039063 13.1837034,21.5513906 11.994097,21.5513906 C10.8044906,21.5513906 10.8044906,22.1039063 9.61493063,22.1039063 C8.4253707,22.1039063 8.42532422,21.5513906 7.23576429,21.5513906 C6.30030354,21.5513906 6.10079822,21.8933673 5.47922864,22.0392337 C4.59441914,21.4535246 3.79170218,20.7520499 3.09225124,19.9561629 C3.72117723,20.1007231 3.91777307,20.4462656 4.85762051,20.4462656 C6.04666916,20.4462656 6.04666916,19.89375 7.23576429,19.89375 C8.4253707,19.89375 8.4253707,20.4462656 9.61493063,20.4462656 C10.8044906,20.4462656 10.8044906,19.89375 11.994097,19.89375 C13.1837034,19.89375 13.1837034,20.4462656 14.3733098,20.4462656 C15.5625444,20.4462656 15.5625444,19.89375 16.7518254,19.89375 C17.9412459,19.89375 17.9412459,20.4462656 19.1306664,20.4462656 C20.0775349,20.4462656 20.2713015,20.096745 20.909918,19.9536937 C20.2091442,20.7515252 19.4046279,21.4545513 18.5176827,22.0412775 Z" id="Combined-Shape" fill="#41479B" fill-rule="nonzero"></path>
                <path d="M2.30364532,5.05359375 L21.6963544,5.05359375 C22.1145995,5.64721486 22.4806687,6.2808923 22.787811,6.9478125 L1.212186,6.9478125 C1.51933121,6.28089194 1.88540032,5.64721469 2.30364532,5.05359375 Z" id="Combined-Shape" fill="#FF4B55" fill-rule="nonzero"></path>
                <polygon id="Rectangle-path" fill="#FF4B55" fill-rule="nonzero" points="11.3803125 0.001640625 12.621375 0.001640625 12.621375 12.0002344 11.3803125 12.0002344"></polygon>
                <polygon id="Shape" fill="#FF4B55" fill-rule="nonzero" points="8.30540345 7.57954688 0.0039375 11.6390858 0.0039375 11.8999999 0.977447067 11.8999999 9.8097495 7.57954688"></polygon>
                <polygon id="Shape" fill="#FF4B55" fill-rule="nonzero" points="23.8979374 11.8999999 23.8979374 11.3376716 16.2204687 7.57954688 14.7171094 7.57954688 23.5413063 11.8999999"></polygon>
                <path d="M4.30126936,2.7947593 C4.49205524,2.63502676 4.68788096,2.48111513 4.88847336,2.33329756 L9.10509375,4.42209375 L7.58540625,4.42209375 L4.30126936,2.7947593 Z" id="Combined-Shape" fill="#FF4B55" fill-rule="nonzero"></path>
                <path d="M18.7721354,2.09214241 C18.9824747,2.23618866 19.1879943,2.38675868 19.3884026,2.5435609 L15.5890781,4.42209375 L14.0693906,4.42209375 L18.7721354,2.09214241 Z" id="Combined-Shape" fill="#FF4B55" fill-rule="nonzero"></path>
                <path d="M12.2033067,23.9983125 L11.7966933,23.9983125 C9.3704094,23.9580076 7.11934225,23.1976118 5.24794885,21.921582 L2.81859375,18.9808125 L6.60182812,22.1060156 C6.71634375,22.003875 6.8341875,21.9055313 6.954375,21.8099063 C6.380625,20.8069688 6.316125,19.767 5.56621875,19.1894063 C4.75279687,18.562875 4.7473125,17.3922656 4.7473125,17.3922656 C4.7473125,17.3922656 5.10820312,18.3398438 5.55567187,18.5440781 C5.85103125,18.6789375 6.64617187,19.04925 7.17628125,20.0785781 C7.44946875,20.6091094 7.74389062,20.9437969 7.94498437,21.1349531 C8.1166875,21.035625 8.29129687,20.94075 8.47064062,20.8538906 L7.03195312,16.1656875 L9.33042187,20.4993281 C9.47507812,20.4488906 9.62165625,20.4028125 9.76996875,20.3604375 C9.62423437,19.2149531 9.9620625,18.2299219 9.4905,17.4096563 C8.97876562,16.5195938 9.42164062,15.4359844 9.42164062,15.4359844 C9.42164062,15.4359844 9.3924375,16.4495156 9.7276875,16.8094688 C9.9489375,17.0470313 10.5418125,17.6934375 10.6376719,18.8473125 C10.687125,19.4424844 10.8312187,19.8645 10.9438594,20.1180469 C11.1394687,20.0925469 11.3368594,20.0725781 11.5365937,20.0612813 L12.0017812,15.1770469 L12.4669687,20.0612813 C12.6212344,20.0700469 12.7740469,20.0837813 12.9259219,20.1010313 C13.2294844,18.9864844 13.918875,18.2056406 13.7970937,17.2672031 C13.6649062,16.2490313 14.4887812,15.417375 14.4887812,15.417375 C14.4887812,15.417375 14.0740312,16.3425938 14.2459219,16.8034688 C14.3594531,17.1076875 14.6598281,17.93175 14.3068594,19.0344375 C14.1252656,19.6017656 14.0965781,20.0459531 14.1034219,20.3234531 C14.2963594,20.3750156 14.4862031,20.4340313 14.6731875,20.4992344 L16.9716562,16.1655938 L15.5329687,20.8537969 C15.6716719,20.9209219 15.8075156,20.9929219 15.9417187,21.0675938 C16.6485937,20.1546563 17.5838437,19.6970156 17.8303594,18.7837031 C18.0979687,17.7924375 19.1773594,17.3393906 19.1773594,17.3393906 C19.1773594,17.3393906 18.4400156,18.0354375 18.4225312,18.5270156 C18.411,18.8514844 18.373125,19.7278125 17.6250469,20.6114531 C17.2392187,21.0672188 17.0427187,21.4674375 16.9430625,21.726375 C17.1006094,21.8475 17.2537031,21.973875 17.4018281,22.1059688 L21.184875,18.9808125 L18.7600027,21.9161555 C16.8870358,23.1954558 14.633028,23.9579505 12.2033067,23.9983125 Z" id="Combined-Shape" fill="#FFE15A" fill-rule="nonzero"></path>
                <path d="M15.2393906,4.9006875 L14.3077969,5.38232812 L13.939875,4.52639062 C13.9019062,4.43807812 13.7495625,4.42223437 13.6829531,4.49971875 L12.9241406,5.38232812 L12.1307344,4.15190625 C12.0775781,4.06945312 11.9257969,4.06945312 11.8726406,4.15190625 L11.0792344,5.38232812 L10.3204219,4.49971875 C10.2538125,4.42223437 10.1014687,4.43807812 10.0635,4.52639062 L9.69557812,5.38232812 L8.76398437,4.9006875 C8.64084375,4.83703125 8.48873437,4.9411875 8.55492187,5.04384375 L9.465,6.45529687 L9.425625,6.45529687 C9.31996875,6.45529687 9.23442187,6.52171875 9.23442187,6.60360937 L9.23442187,7.02234375 C9.23442187,7.10428125 9.3200625,7.17065625 9.425625,7.17065625 L14.57775,7.17065625 C14.6834062,7.17065625 14.7689531,7.10423437 14.7689531,7.02234375 L14.7689531,6.60360937 C14.7689531,6.52171875 14.6833125,6.45529687 14.57775,6.45529687 L14.538375,6.45529687 L15.4484531,5.04384375 C15.5145937,4.9411875 15.3624375,4.83703125 15.2393906,4.9006875 Z" id="Shape" fill="#FFE15A" fill-rule="nonzero"></path>
                <circle id="Oval" stroke="#FFFFFF" cx="12" cy="12" r="11.5"></circle>
            </g>
        </g>
    </g>
</svg>