<svg xmlns="http://www.w3.org/2000/svg" xmlns:xlink="http://www.w3.org/1999/xlink" width="24" height="24" viewBox="0 0 24 24">
  <defs>
    <circle id="classifier_international-a" cx="12" cy="12" r="12"/>
    <path id="classifier_international-b" d="M6.98415725,2 L8.01730148,2.83937532 L10.2,3.28113073 L9.83622378,4.60644701 L8.74485392,5.04820242 L7.65348406,7.25702952 L5.83456176,8.5823458 L3.28808703,9.02410121 L3.28808703,10.3494175 L4.01563947,11.2329283 L4.015,12.182 L5.10476396,11 L5.86665228,12.6551805 L8.53330457,12.6551805 L9.6761802,14.7241444 L11.2,14.7241444 L10.8190558,16.7931083 L9.29523604,18.4482888 L9.29523604,19.6896859 L7.77141624,20.9310361 L7.77141624,23 L6.62858376,22.5862166 L5.86665228,20.5172527 L5.86665228,16.3793249 L3.96188832,15.9655415 L3.2,14.310361 L3.2,13.0689639 L3.584,12.651 L2.92435202,12.1164391 L1.83298216,11.2329283 L1.2,8.92251948 C2.28951554,5.7695828 4.37220444,3.27712751 6.98415725,2 Z M16.5333717,6 L17.2741023,7.28441924 L19.4963361,7.71254282 L21.71857,6.85629566 L21.8296628,6.78355151 C23.8515268,10.9531493 23.0732603,15.9174843 20.68917,19.8228753 L20.2370668,18.8440469 L20.2370668,17.1315041 L19.4963361,15.4189613 L18.7556055,13.7064185 L18.7556055,11.9938756 L17.6444676,11.1376285 L16.1629644,11.5657521 L13.5703653,10.2813328 L13.2,7.28441924 L14.3111379,6 L16.5333717,6 Z M17.0577551,3 C18.2334154,3.56343921 19.2970115,4.32398395 20.2,5.24624317 L19.033326,6 L17.0888987,5.62312158 L15.9222247,5.24624317 L14.366674,5.62312158 L13.2,5.24624317 L13.9777533,3.73868682 L15.533304,3.73868682 L17.0577551,3 Z"/>
  </defs>
  <g fill="none" fill-rule="evenodd">
    <use fill="#0089E9" fill-rule="nonzero" xlink:href="#classifier_international-a"/>
    <use fill="#A8EF84" fill-rule="nonzero" xlink:href="#classifier_international-b"/>
    <circle cx="12" cy="12" r="11.5" stroke="#FFF"/>
    <path fill="#78D2F5" fill-rule="nonzero" d="M17.4245109,12.6741304 C18.6840217,10.7841712 19.6261277,8.66407609 20.1782337,6.3905163 C20.0451902,6.20130435 19.9057473,6.0169837 19.760231,5.83775815 C19.6891848,5.88014946 19.6348098,5.95017663 19.6147147,6.03711957 C19.1114402,8.21350543 18.2399321,10.247962 17.0674457,12.0697283 C16.7163723,11.2372283 16.2852853,10.4319158 15.7756114,9.66369565 C14.8894293,8.32804348 13.8090625,7.1691712 12.5780435,6.21589674 C14.0626766,5.20759511 15.7455707,4.49342391 17.5541304,4.12282609 C17.6466576,4.10387228 17.7212908,4.04607337 17.7645788,3.96993207 C17.5639538,3.82808424 17.3579076,3.69349185 17.1467663,3.56652174 C15.2881929,3.98529891 13.5619701,4.75315217 12.0418342,5.82047554 C10.5216984,4.75315217 8.79547554,3.98529891 6.93690217,3.56652174 C6.72576087,3.69349185 6.51971467,3.82808424 6.31908967,3.96993207 C6.36241848,4.04607337 6.43701087,4.10387228 6.5295788,4.12282609 C8.33813859,4.49346467 10.0210326,5.20759511 11.5056658,6.21589674 C10.2746467,7.1691712 9.19427989,8.32804348 8.30809783,9.66369565 C8.26900815,9.72259511 8.23052989,9.78177989 8.19237772,9.84112772 C6.20508152,9.7463587 4.20209239,9.95497283 2.25392663,10.4679891 C2.24430707,10.4705163 2.23497283,10.4735326 2.22580163,10.476875 C2.19519022,10.6586685 2.16942935,10.8421332 2.14872283,11.0271467 C2.22258152,11.0808288 2.3190625,11.1021875 2.41427989,11.0771196 C4.18741848,10.6102038 6.00730978,10.4037092 7.81725543,10.4569429 C6.12046196,13.4022011 5.51569293,16.8137636 6.10277174,20.1880707 C6.30274457,20.3376223 6.50850543,20.4797962 6.71960598,20.6142255 C10.8624185,19.3687772 14.4095109,16.8093207 16.8995516,13.4237636 C17.6169022,15.6383016 17.7658832,18.012337 17.3089946,20.3602446 C17.2911005,20.4522418 17.315231,20.5426495 17.3680163,20.6116984 C17.5778125,20.477962 17.7823098,20.3366033 17.9811005,20.1879076 C18.3734239,17.9327717 18.233288,15.6610054 17.5906929,13.5229348 C18.8150272,14.3195652 19.9494022,15.2571467 20.9667527,16.3194973 C20.9959375,16.3499457 21.0298505,16.3730163 21.0661277,16.3891576 C21.1585326,16.1904891 21.2444973,15.9881929 21.3240217,15.7827174 C20.1575679,14.5818207 18.8453125,13.5380978 17.4245109,12.6741304 Z M12.0419158,6.59933424 C13.2819429,7.53222826 14.3672418,8.68029891 15.2508152,10.0119565 C15.6918478,10.6766848 16.0714946,11.3704755 16.3885326,12.0863587 C15.2239946,11.4711549 13.9970924,10.9719565 12.7261685,10.6002582 C11.4790489,10.2355299 10.2024185,9.9985462 8.91555707,9.88918478 C9.78384511,8.60961957 10.8402038,7.50341033 12.0419158,6.59933424 L12.0419158,6.59933424 Z M6.70305707,19.9606658 C6.15841033,16.6641712 6.80096467,13.3369429 8.52877717,10.4914266 C9.88680707,10.5826495 11.2350543,10.8204076 12.5493071,11.2047826 C13.9353397,11.6101495 15.2673234,12.1721196 16.5197418,12.8749185 C14.1362908,16.193913 10.7134783,18.7152582 6.70305707,19.9606658 Z"/>
    <path fill="#F8FF20" fill-rule="nonzero" d="M6.90732316,19.5092987 C7.40762755,19.5092987 7.81468495,19.9183262 7.81468495,20.4210641 C7.81468495,20.923802 7.40762755,21.3328294 6.90732316,21.3328294 C6.40701878,21.3328294 6,20.923802 6,20.4210641 C6,19.9183262 6.40701878,19.5092987 6.90732316,19.5092987 Z M17.6941529,19 C18.1944573,19 18.6015147,19.4090274 18.6015147,19.9117653 C18.6015147,20.4145033 18.1944959,20.8235693 17.6941529,20.8235693 C17.1938485,20.8235693 16.7868297,20.4145419 16.7868297,19.9117653 C16.7868297,19.4089888 17.1938485,19 17.6941529,19 Z M20.6941529,15 C21.1944573,15 21.6015147,15.4090274 21.6015147,15.9117653 C21.6015147,16.4145033 21.1944959,16.8235693 20.6941529,16.8235693 C20.1938485,16.8235693 19.7868297,16.4145419 19.7868297,15.9117653 C19.7868297,15.4089888 20.1938485,15 20.6941529,15 Z M17.0632873,12 C17.5643881,12 17.9706105,12.4082112 17.9706105,12.9117653 C17.9706105,13.4153194 17.5643881,13.8235307 17.0632873,13.8235307 C16.5621866,13.8235307 16.1559641,13.4153194 16.1559641,12.9117653 C16.1559641,12.4082112 16.5621866,12 17.0632873,12 Z M2.90732316,9.48740316 C3.40842391,9.48740316 3.81464633,9.8956144 3.81464633,10.3991685 C3.81464633,10.9027226 3.40842391,11.3109338 2.90732316,11.3109338 C2.40622242,11.3109338 2,10.9027226 2,10.3991685 C2,9.8956144 2.40622242,9.48740316 2.90732316,9.48740316 Z M8.20732316,9.2 C8.70842391,9.2 9.11464633,9.60821125 9.11464633,10.1117653 C9.11464633,10.6153194 8.70842391,11.0235307 8.20732316,11.0235307 C7.70622242,11.0235307 7.3,10.6153194 7.3,10.1117653 C7.3,9.60821125 7.70622242,9.2 8.20732316,9.2 Z M12.3423407,5.01150989 C12.8434414,5.01150989 13.2496639,5.41972114 13.2496639,5.92327523 C13.2496639,6.42682932 12.8434414,6.83504056 12.3423407,6.83504056 C11.8412399,6.83504056 11.4350175,6.42682932 11.4350175,5.92327523 C11.4350175,5.41972114 11.8412399,5.01150989 12.3423407,5.01150989 Z M19.8096308,4.96531131 C20.3099352,4.96531131 20.716954,5.37433872 20.716954,5.87707664 C20.716954,6.37981456 20.3099352,6.78884198 19.8096308,6.78884198 C19.3093264,6.78884198 18.902269,6.37981456 18.902269,5.87707664 C18.902269,5.37433872 19.3093264,4.96531131 19.8096308,4.96531131 Z M17.7073232,2.82422332 C18.2076275,2.82422332 18.614685,3.23325074 18.614685,3.73598866 C18.614685,4.23872658 18.2076275,4.64775399 17.7073232,4.64775399 C17.2070188,4.64775399 16.8,4.23872658 16.8,3.73598866 C16.8,3.23325074 17.2070188,2.82422332 17.7073232,2.82422332 Z M7.0429461,2.82422332 C7.54325048,2.82422332 7.95030789,3.23325074 7.95030789,3.73598866 C7.95030789,4.23872658 7.54325048,4.64775399 7.0429461,4.64775399 C6.54264172,4.64775399 6.13562294,4.23872658 6.13562294,3.73598866 C6.13562294,3.23325074 6.54264172,2.82422332 7.0429461,2.82422332 Z"/>
    <path fill="#FFF" fill-rule="nonzero" d="M12,0 C5.372583,0 0,5.372583 0,12 C0,18.627417 5.372583,24 12,24 C18.627417,24 24,18.627417 24,12 C24,5.372583 18.627417,0 12,0 Z M12,0.96 C18.0972236,0.96 23.04,5.90277636 23.04,12 C23.04,18.0972236 18.0972236,23.04 12,23.04 C5.90277636,23.04 0.96,18.0972236 0.96,12 C0.96,5.90277636 5.90277636,0.96 12,0.96 Z"/>
  </g>
</svg>
