<?xml version="1.0" encoding="UTF-8"?>
<svg width="24px" height="24px" viewBox="0 0 24 24" version="1.1" xmlns="http://www.w3.org/2000/svg" xmlns:xlink="http://www.w3.org/1999/xlink">
    <!-- Generator: Sketch 55.1 (78136) - https://sketchapp.com -->
    <title>Flags/iran</title>
    <desc>Created with Sketch.</desc>
    <g id="Icons" stroke="none" stroke-width="1" fill="none" fill-rule="evenodd">
        <g id="Flags/iran">
            <g id="iran">
                <g id="Group" transform="translate(0.500000, 0.500000)" fill-rule="nonzero">
                    <path d="M22.3474262,7.67175781 L0.652573772,7.67175781 C2.22984163,3.20252782 6.49092559,-1.59872116e-14 11.5,-1.59872116e-14 C16.5090744,-1.59872116e-14 20.7701584,3.20252782 22.3474262,7.67175781 Z" id="Combined-Shape" fill="#73AF00"></path>
                    <path d="M0.652542066,15.3281523 L22.3474579,15.3281523 C20.7702155,19.7974293 16.509108,23 11.5,23 C6.49089202,23 2.22978452,19.7974293 0.652542066,15.3281523 Z" id="Combined-Shape" fill="#FF4B55"></path>
                    <path d="M1.12201451,16.4607227 C1.0836817,16.3806738 1.04624777,16.3001124 1.00972579,16.2190516 L1.01940892,16.2190516 C1.00841674,16.1851249 1.00247656,16.1489281 1.00247656,16.1113494 L1.00247656,16.091256 C1.00247656,15.9990882 1.03821005,15.9152331 1.09657288,15.8527949 L0.852331091,15.8527949 C0.302877887,14.5101392 1.77635684e-15,13.0404401 1.77635684e-15,11.5 C1.77635684e-15,10.0798332 0.25742852,8.71979204 0.728167961,7.46399414 L1.49504492,7.46399414 C1.54764844,7.46399414 1.59032422,7.54030309 1.59032422,7.63436392 L1.59032422,7.66412109 L1.78636328,7.66412109 L1.78636328,7.63436392 C1.78636328,7.54030309 1.82903906,7.46399414 1.88164258,7.46399414 L2.17975971,7.46399414 C2.17876842,7.45328025 2.17826172,7.44242647 2.17826172,7.43145489 L2.17826172,7.41136151 C2.17826172,7.21849803 2.33483418,7.0620332 2.52783034,7.0620332 L2.5474431,7.0620332 C2.5550901,7.0620332 2.56267992,7.06227884 2.57020508,7.06276266 L2.57020508,7.01621678 C2.57020508,7.00240732 2.5681692,6.9891671 2.56443867,6.97690625 L1.98803399,6.97690625 C1.98430346,6.9891671 1.98226758,7.00240732 1.98226758,7.01621678 L1.98226758,7.26425896 C1.98226758,7.32748434 1.9395918,7.37877734 1.88698828,7.37877734 L1.88164258,7.37877734 C1.82903906,7.37877734 1.78636328,7.32748434 1.78636328,7.26425896 L1.78636328,6.77454573 C1.78636328,6.76241955 1.78793309,6.7507323 1.79084167,6.73976167 C1.78793288,6.70711375 1.78636328,6.67233174 1.78636328,6.63624284 L1.78636328,6.59881966 C1.78636328,6.41074005 1.82903906,6.25815625 1.88164258,6.25815625 L4.24358984,6.25815625 C4.29619336,6.25815625 4.33886914,6.41074005 4.33886914,6.59881966 L4.33886914,6.63624284 C4.33886914,6.64425339 4.33879173,6.65219955 4.33863943,6.66007227 L4.43688867,6.66007227 C4.48949219,6.66007227 4.53216797,6.61739648 4.53216797,6.56479297 L4.53216797,6.35339063 C4.53216797,6.30078711 4.57484375,6.25811133 4.62744727,6.25811133 L4.63292773,6.25811133 C4.68553125,6.25811133 4.72820703,6.30078711 4.72820703,6.35339063 L4.72820703,6.96675391 C4.72820703,7.01935742 4.77088281,7.0620332 4.82348633,7.0620332 L4.83139258,7.0620332 C4.88399609,7.0620332 4.92667188,7.01935742 4.92667188,6.96675391 L4.92667188,6.35339063 C4.92667188,6.30078711 4.96934766,6.25811133 5.02195117,6.25811133 L5.02985742,6.25811133 C5.08246094,6.25811133 5.12513672,6.30078711 5.12513672,6.35339063 L5.12513672,6.96675391 C5.12513672,7.01935742 5.1678125,7.0620332 5.22041602,7.0620332 L5.22329102,7.0620332 C5.27589453,7.0620332 5.31857031,7.01935742 5.31857031,6.96675391 L5.31857031,6.35339063 C5.31857031,6.30078711 5.36124609,6.25811133 5.41384961,6.25811133 L5.41919531,6.25811133 C5.47184375,6.25811133 5.51451953,6.30078711 5.51451953,6.35339063 L5.51451953,7.16279297 C5.51451953,7.21539648 5.47184375,7.25807227 5.41924023,7.25807227 L4.62749219,7.25807227 C4.57488867,7.25807227 4.53221289,7.21539648 4.53221289,7.16279297 L4.53221289,6.95642188 C4.53221289,6.90381836 4.48953711,6.86114258 4.43693359,6.86114258 L4.31514392,6.86114258 C4.29768015,6.93210975 4.27209232,6.97690625 4.24358984,6.97690625 L3.94490028,6.97690625 C3.94997167,7.02474029 3.99047035,7.0620332 4.03964453,7.0620332 L4.24358984,7.0620332 C4.29619336,7.0620332 4.33886914,7.10470898 4.33886914,7.1573125 L4.33886914,7.16279297 C4.33886914,7.21539648 4.29619336,7.25807227 4.24358984,7.25807227 L3.84374023,7.25807227 C3.79113672,7.25807227 3.74846094,7.21539648 3.74846094,7.16279297 L3.74846094,6.97690625 L3.55242188,6.97690625 L3.55242188,7.26425896 C3.55242188,7.32748434 3.50974609,7.37877734 3.45714258,7.37877734 L2.89550957,7.37877734 C2.8965036,7.38950581 2.89701172,7.4003746 2.89701172,7.41136151 L2.89701172,7.43145489 C2.89701172,7.44242647 2.89650502,7.45328025 2.89551373,7.46399414 L3.45714258,7.46399414 C3.50974609,7.46399414 3.55242188,7.54030309 3.55242188,7.63436392 L3.55242188,7.66412109 L3.74846094,7.66412109 L3.74846094,7.63436392 C3.74846094,7.54030309 3.79113672,7.46399414 3.84374023,7.46399414 L5.41919531,7.46399414 C5.47184375,7.46399414 5.51451953,7.54030309 5.51451953,7.63436392 L5.51451953,7.66412109 L5.71051367,7.66412109 L5.71051367,7.63436392 C5.71051367,7.54030309 5.75318945,7.46399414 5.80579297,7.46399414 L6.10395502,7.46399414 C6.10296373,7.45328025 6.10245703,7.44242647 6.10245703,7.43145489 L6.10245703,7.41136151 C6.10245703,7.21849803 6.25902949,7.0620332 6.45202565,7.0620332 L6.47163841,7.0620332 C6.47923977,7.0620332 6.48678462,7.06227592 6.49426563,7.06275402 L6.49426563,7.01621678 C6.49426563,7.00240732 6.49222975,6.9891671 6.48849921,6.97690625 L5.9122293,6.97690625 C5.90849877,6.9891671 5.90646289,7.00240732 5.90646289,7.01621678 L5.90646289,7.26425896 C5.90646289,7.32748434 5.86378711,7.37877734 5.81118359,7.37877734 L5.80583789,7.37877734 C5.75323438,7.37877734 5.71055859,7.32748434 5.71055859,7.26425896 L5.71055859,6.77454573 C5.71055859,6.76246214 5.71211739,6.7508144 5.71500638,6.73987728 C5.71208863,6.70719587 5.71051367,6.67237435 5.71051367,6.63624284 L5.71051367,6.59881966 C5.71051367,6.41074005 5.75318945,6.25815625 5.80579297,6.25815625 L8.16513477,6.25815625 C8.21773828,6.25815625 8.26041406,6.41074005 8.26041406,6.59881966 L8.26041406,6.63624284 C8.26041406,6.64425339 8.26033665,6.65219955 8.26018435,6.66007227 L8.36364453,6.66007227 C8.41624805,6.66007227 8.45892383,6.61739648 8.45892383,6.56479297 L8.45892383,6.35339063 C8.45892383,6.30078711 8.50159961,6.25811133 8.55420313,6.25811133 L8.55954883,6.25811133 C8.61215234,6.25811133 8.65482813,6.30078711 8.65482813,6.35339063 L8.65482813,6.96675391 C8.65482813,7.01935742 8.69750391,7.0620332 8.75010742,7.0620332 L8.75298242,7.0620332 C8.80558594,7.0620332 8.84826172,7.01935742 8.84826172,6.96675391 L8.84826172,6.35339063 C8.84826172,6.30078711 8.8909375,6.25811133 8.94354102,6.25811133 L8.95144727,6.25811133 C9.00405078,6.25811133 9.04672656,6.30078711 9.04672656,6.35339063 L9.04672656,6.96675391 C9.04672656,7.01935742 9.08940234,7.0620332 9.14200586,7.0620332 L9.14748633,7.0620332 C9.20008984,7.0620332 9.24276563,7.01935742 9.24276563,6.96675391 L9.24276563,6.35339063 C9.24276563,6.30078711 9.28544141,6.25811133 9.33804492,6.25811133 L9.34339063,6.25811133 C9.39599414,6.25811133 9.43866992,6.30078711 9.43866992,6.35339063 L9.43866992,7.16279297 C9.43866992,7.21539648 9.39599414,7.25807227 9.34339063,7.25807227 L8.55420313,7.25807227 C8.50159961,7.25807227 8.45892383,7.21539648 8.45892383,7.16279297 L8.45892383,6.95642188 C8.45892383,6.90381836 8.41624805,6.86114258 8.36364453,6.86114258 L8.23668885,6.86114258 C8.21922508,6.93210975 8.19363724,6.97690625 8.16513477,6.97690625 L7.86905067,6.97690625 C7.87412206,7.02474029 7.91462074,7.0620332 7.96379492,7.0620332 L8.16517969,7.0620332 C8.2177832,7.0620332 8.26045898,7.10470898 8.26045898,7.1573125 L8.26045898,7.16279297 C8.26045898,7.21539648 8.2177832,7.25807227 8.16517969,7.25807227 L7.76533008,7.25807227 C7.71272656,7.25807227 7.67005078,7.21539648 7.67005078,7.16279297 L7.67005078,6.97690625 L7.47657227,6.97690625 L7.47657227,7.26425896 C7.47657227,7.32748434 7.43389648,7.37877734 7.38129297,7.37877734 L6.81970488,7.37877734 C6.82069891,7.38950581 6.82120703,7.4003746 6.82120703,7.41136151 L6.82120703,7.43145489 C6.82120703,7.44242647 6.82070033,7.45328025 6.81970904,7.46399414 L7.38129297,7.46399414 C7.43394141,7.46399414 7.47657227,7.54030309 7.47657227,7.63436392 L7.47657227,7.66412109 L7.67005078,7.66412109 L7.67005078,7.63436392 C7.67005078,7.54030309 7.71272656,7.46399414 7.76533008,7.46399414 L9.34339063,7.46399414 C9.39599414,7.46399414 9.43866992,7.54030309 9.43866992,7.63436392 L9.43866992,7.66412109 L9.63457422,7.66412109 L9.63457422,7.63436392 C9.63457422,7.54030309 9.67725,7.46399414 9.72985352,7.46399414 L10.0305952,7.46399414 C10.0295913,7.45328025 10.0290781,7.44242647 10.0290781,7.43145489 L10.0290781,7.41136151 C10.0290781,7.21849803 10.1876505,7.0620332 10.3831117,7.0620332 L10.3937945,7.0620332 C10.4020709,7.0620332 10.4102811,7.06231373 10.418416,7.06286567 L10.418416,7.01621678 C10.418416,7.00240732 10.4163801,6.9891671 10.4126496,6.97690625 L9.83637969,6.97690625 C9.83264916,6.9891671 9.83061328,7.00240732 9.83061328,7.01621678 L9.83061328,7.26425896 C9.83061328,7.32748434 9.7879375,7.37877734 9.73533398,7.37877734 L9.72985352,7.37877734 C9.67725,7.37877734 9.63457422,7.32748434 9.63457422,7.26425896 L9.63457422,6.77454573 C9.63457422,6.76241538 9.63614511,6.75072426 9.6390556,6.73975035 C9.63614511,6.70710571 9.63457422,6.67232757 9.63457422,6.63624284 L9.63457422,6.59881966 C9.63457422,6.41074005 9.67725,6.25815625 9.72985352,6.25815625 L12.0918008,6.25815625 C12.1444043,6.25815625 12.1870801,6.41074005 12.1870801,6.59881966 L12.1870801,6.63624284 C12.1870801,6.64425339 12.1870027,6.65219955 12.1868504,6.66007227 L12.2877949,6.66007227 C12.3403984,6.66007227 12.3830742,6.61739648 12.3830742,6.56479297 L12.3830742,6.35339063 C12.3830742,6.30078711 12.42575,6.25811133 12.4783535,6.25811133 L12.4836992,6.25811133 C12.5363027,6.25811133 12.5789785,6.30078711 12.5789785,6.35339063 L12.5789785,6.96675391 C12.5789785,7.01935742 12.6216543,7.0620332 12.6742578,7.0620332 L12.6797383,7.0620332 C12.7323418,7.0620332 12.7750176,7.01935742 12.7750176,6.96675391 L12.7750176,6.35339063 C12.7750176,6.30078711 12.8176934,6.25811133 12.8702969,6.25811133 L12.8756426,6.25811133 C12.9282461,6.25811133 12.9709219,6.30078711 12.9709219,6.35339063 L12.9709219,6.96675391 C12.9709219,7.01935742 13.0135977,7.0620332 13.0662012,7.0620332 L13.0715469,7.0620332 C13.1241504,7.0620332 13.1668262,7.01935742 13.1668262,6.96675391 L13.1668262,6.35339063 C13.1668262,6.30078711 13.209502,6.25811133 13.2621055,6.25811133 L13.2675859,6.25811133 C13.3201895,6.25811133 13.3628652,6.30078711 13.3628203,6.35339063 L13.3628203,7.16279297 C13.3628203,7.21539648 13.3201445,7.25807227 13.267541,7.25807227 L12.4783535,7.25807227 C12.42575,7.25807227 12.3830742,7.21539648 12.3830742,7.16279297 L12.3830742,6.95642188 C12.3830742,6.90381836 12.3403984,6.86114258 12.2877949,6.86114258 L12.1633549,6.86114258 C12.1458911,6.93210975 12.1203033,6.97690625 12.0918008,6.97690625 L11.7932011,6.97690625 C11.7982725,7.02474029 11.8387711,7.0620332 11.8879453,7.0620332 L12.0917559,7.0620332 C12.1443594,7.0620332 12.1870352,7.10470898 12.1870352,7.1573125 L12.1870352,7.16279297 C12.1870352,7.21539648 12.1443594,7.25807227 12.0917559,7.25807227 L11.6919062,7.25807227 C11.6393027,7.25807227 11.596627,7.21539648 11.596627,7.16279297 L11.596627,6.97690625 L11.4007227,6.97690625 L11.4007227,7.26425896 C11.4007227,7.32748434 11.3580469,7.37877734 11.3054434,7.37877734 L10.7463068,7.37877734 C10.7473135,7.38950581 10.7478281,7.4003746 10.7478281,7.41136151 L10.7478281,7.43145489 C10.7478281,7.44242647 10.7473149,7.45328025 10.746311,7.46399414 L11.3054883,7.46399414 C11.3580918,7.46399414 11.4007676,7.54030309 11.4007676,7.63436392 L11.4007676,7.66412109 L11.5966719,7.66412109 L11.5966719,7.63436392 C11.5966719,7.54030309 11.6393477,7.46399414 11.6919512,7.46399414 L13.2675859,7.46399414 C13.3201895,7.46399414 13.3628652,7.54030309 13.3628652,7.63436392 L13.3628652,7.66412109 L13.5587246,7.66412109 L13.5587246,7.63436392 C13.5587246,7.54030309 13.6014004,7.46399414 13.6540039,7.46399414 L13.9547906,7.46399414 C13.9537866,7.45328025 13.9532734,7.44242647 13.9532734,7.43145489 L13.9532734,7.41136151 C13.9532734,7.21849803 14.1118458,7.0620332 14.3073071,7.0620332 L14.3179898,7.0620332 C14.3262814,7.0620332 14.3345067,7.06231477 14.3426563,7.06286872 L14.3426563,7.01621678 C14.3426563,7.00240732 14.3406204,6.9891671 14.3368898,6.97690625 L13.760575,6.97690625 C13.7568445,6.9891671 13.7548086,7.00240732 13.7548086,7.01621678 L13.7548086,7.26425896 C13.7548086,7.32748434 13.7121328,7.37877734 13.6595293,7.37877734 L13.6540488,7.37877734 C13.6014453,7.37877734 13.5587695,7.32748434 13.5587695,7.26425896 L13.5587695,6.77454573 C13.5587695,6.76241955 13.5603393,6.7507323 13.5632479,6.73976167 C13.5603391,6.70711375 13.5587695,6.67233174 13.5587695,6.63624284 L13.5587695,6.59881966 C13.5587695,6.41074005 13.6014453,6.25815625 13.6540488,6.25815625 L16.0159961,6.25815625 C16.0685996,6.25815625 16.1112754,6.41074005 16.1112754,6.59881966 L16.1112754,6.63624284 C16.1112754,6.64425339 16.111198,6.65219955 16.1110457,6.66007227 L16.2118105,6.66007227 C16.2644141,6.66007227 16.3070898,6.61739648 16.3070898,6.56479297 L16.3070898,6.35339063 C16.3070898,6.30078711 16.3497656,6.25811133 16.4023691,6.25811133 L16.4078496,6.25811133 C16.4604531,6.25811133 16.5031289,6.30078711 16.5031289,6.35339063 L16.5031289,6.96675391 C16.5031289,7.01935742 16.5458047,7.0620332 16.5984082,7.0620332 L16.6037539,7.0620332 C16.6563574,7.0620332 16.6990332,7.01935742 16.6990332,6.96675391 L16.6990332,6.35339063 C16.6990332,6.30078711 16.741709,6.25811133 16.7943125,6.25811133 L16.799793,6.25811133 C16.8523965,6.25811133 16.8950723,6.30078711 16.8950723,6.35339063 L16.8950723,6.96675391 C16.8950723,7.01935742 16.937748,7.0620332 16.9903516,7.0620332 L16.9956973,7.0620332 C17.0483008,7.0620332 17.0909766,7.01935742 17.0909766,6.96675391 L17.0909766,6.35339063 C17.0909766,6.30078711 17.1336523,6.25811133 17.1862559,6.25811133 L17.1917363,6.25811133 C17.2443848,6.25811133 17.2870156,6.30078711 17.2869707,6.35339063 L17.2869707,7.16279297 C17.2869707,7.21539648 17.2442949,7.25807227 17.1916914,7.25807227 L16.4023691,7.25807227 C16.3497656,7.25807227 16.3070898,7.21539648 16.3070898,7.16279297 L16.3070898,6.95642188 C16.3070898,6.90381836 16.2644141,6.86114258 16.2118105,6.86114258 L16.0875502,6.86114258 C16.0700864,6.93210975 16.0444986,6.97690625 16.0159961,6.97690625 L15.7173514,6.97690625 C15.7224228,7.02474029 15.7629215,7.0620332 15.8120957,7.0620332 L16.0159063,7.0620332 C16.0685098,7.0620332 16.1111855,7.10470898 16.1111855,7.1573125 L16.1111855,7.16279297 C16.1111855,7.21539648 16.0685098,7.25807227 16.0159063,7.25807227 L15.6186621,7.25807227 C15.5660586,7.25807227 15.5233828,7.21539648 15.5233828,7.16279297 L15.5233828,6.97690625 L15.3249629,6.97690625 L15.3249629,7.26425896 C15.3249629,7.32748434 15.2822871,7.37877734 15.2296836,7.37877734 L14.6705021,7.37877734 C14.6715088,7.38950581 14.6720234,7.4003746 14.6720234,7.41136151 L14.6720234,7.43145489 C14.6720234,7.44242647 14.6715103,7.45328025 14.6705063,7.46399414 L15.2296387,7.46399414 C15.2822871,7.46399414 15.3249629,7.54030309 15.324918,7.63436392 L15.324918,7.66412109 L15.5234277,7.66412109 L15.5234277,7.63436392 C15.5234277,7.54030309 15.5661035,7.46399414 15.618707,7.46399414 L17.1917363,7.46399414 C17.2443848,7.46399414 17.2870156,7.54030309 17.2870156,7.63436392 L17.2870156,7.66412109 L17.4829199,7.66412109 L17.4829199,7.63436392 C17.4829199,7.54030309 17.5255957,7.46399414 17.5781992,7.46399414 L17.8763419,7.46399414 C17.8753634,7.45328025 17.8748633,7.44242647 17.8748633,7.43145489 L17.8748633,7.41136151 C17.8748633,7.21849803 18.0294157,7.0620332 18.2199218,7.0620332 L18.2485547,7.0620332 C18.2555121,7.0620332 18.2624216,7.06224189 18.2692773,7.06265342 L18.2692773,7.01621678 C18.2692773,7.00240732 18.2672415,6.9891671 18.2635109,6.97690625 L17.6847703,6.97690625 C17.6810398,6.9891671 17.6790039,7.00240732 17.6790039,7.01621678 L17.6790039,7.26425896 C17.6790039,7.32748434 17.6363281,7.37877734 17.5837246,7.37877734 L17.5782441,7.37877734 C17.5256406,7.37877734 17.4829648,7.32748434 17.4829648,7.26425896 L17.4829648,6.77454573 C17.4829648,6.76246214 17.4845236,6.7508144 17.4874126,6.73987728 C17.4844949,6.70719587 17.4829199,6.67237435 17.4829199,6.63624284 L17.4829199,6.59881966 C17.4829199,6.41074005 17.5255957,6.25815625 17.5781992,6.25815625 L19.9401016,6.25815625 C19.9927051,6.25815625 20.0353809,6.41074005 20.0353809,6.59881966 L20.0353809,6.63624284 C20.0353809,6.64425339 20.0353034,6.65219955 20.0351511,6.66007227 L20.1360059,6.66007227 C20.1886094,6.66007227 20.2312852,6.61739648 20.2312852,6.56479297 L20.2312852,6.35339063 C20.2312852,6.30078711 20.2739609,6.25811133 20.3265645,6.25811133 L20.3320449,6.25811133 C20.3846484,6.25811133 20.4273242,6.30078711 20.4273242,6.35339063 L20.4273242,6.96675391 C20.4273242,7.01935742 20.47,7.0620332 20.5226035,7.0620332 L20.5279492,7.0620332 C20.5805527,7.0620332 20.6232285,7.01935742 20.6232285,6.96675391 L20.6232285,6.35339063 C20.6232285,6.30078711 20.6659043,6.25811133 20.7185078,6.25811133 L20.7239883,6.25811133 C20.7765918,6.25811133 20.8192676,6.30078711 20.8192676,6.35339063 L20.8192676,6.96675391 C20.8192676,7.01935742 20.8619434,7.0620332 20.9145469,7.0620332 L20.9224531,7.0620332 C20.9750566,7.0620332 21.0177324,7.01935742 21.0177324,6.96675391 L21.0177324,6.35339063 C21.0177324,6.30078711 21.0604082,6.25811133 21.1130117,6.25811133 L21.1157969,6.25811133 C21.1684004,6.25811133 21.2110762,6.30078711 21.2110313,6.35339063 L21.2110313,7.16279297 C21.2110313,7.21539648 21.1683555,7.25807227 21.115752,7.25807227 L20.3265645,7.25807227 C20.2739609,7.25807227 20.2312852,7.21539648 20.2312852,7.16279297 L20.2312852,6.95642188 C20.2312852,6.90381836 20.1886094,6.86114258 20.1360059,6.86114258 L20.0116556,6.86114258 C19.9941919,6.93210975 19.968604,6.97690625 19.9401016,6.97690625 L19.6464432,6.97690625 C19.6515146,7.02474029 19.6920133,7.0620332 19.7411875,7.0620332 L19.9401016,7.0620332 C19.9927051,7.0620332 20.0353809,7.10470898 20.0353809,7.1573125 L20.0353809,7.16279297 C20.0353809,7.21539648 19.9927051,7.25807227 19.9401016,7.25807227 L19.5428574,7.25807227 C19.4902539,7.25807227 19.4475781,7.21539648 19.4475781,7.16279297 L19.4475781,6.97690625 L19.2491582,6.97690625 L19.2491582,7.26425896 C19.2491582,7.32748434 19.2064824,7.37877734 19.1538789,7.37877734 L18.5921305,7.37877734 C18.5931117,7.38950581 18.5936133,7.4003746 18.5936133,7.41136151 L18.5936133,7.43145489 C18.5936133,7.44242647 18.5931131,7.45328025 18.5921346,7.46399414 L19.153834,7.46399414 C19.2064375,7.46399414 19.2491133,7.54030309 19.2491133,7.63436392 L19.2491133,7.66412109 L19.4475781,7.66412109 L19.4475781,7.63436392 C19.4475781,7.54030309 19.4902539,7.46399414 19.5428574,7.46399414 L21.1157969,7.46399414 C21.1684004,7.46399414 21.2110762,7.54030309 21.2110762,7.63436392 L21.2110762,7.66412109 L21.409541,7.66412109 L21.409541,7.63436392 C21.409541,7.54030309 21.4522168,7.46399414 21.5048203,7.46399414 L21.802979,7.46399414 C21.8019899,7.45328104 21.8014844,7.4424273 21.8014844,7.43145489 L21.8014844,7.41136151 C21.8014844,7.23118836 21.938036,7.08278142 22.1132487,7.06403128 C22.6844596,8.42907575 23,9.92768866 23,11.5 C23,13.0733389 22.684047,14.5728829 22.1121285,15.9386448 C22.1083842,15.9381971 22.1045734,15.9379668 22.100709,15.9379668 L22.0928027,15.9379668 C22.0401992,15.9379668 21.9975234,15.9806426 21.9975234,16.0332461 L21.9975234,16.2029286 C21.9356606,16.3408022 21.8711614,16.4772358 21.8040898,16.6121653 L21.8040898,16.0332461 C21.8040898,15.9806426 21.7614141,15.9379668 21.7088105,15.9379668 L21.7009043,15.9379668 C21.6483008,15.9379668 21.605625,15.9806426 21.605625,16.0332461 L21.605625,16.6466094 C21.605625,16.6992129 21.5629492,16.7418887 21.5103457,16.7418887 L21.505,16.7418887 C21.4523965,16.7418887 21.4097207,16.6992129 21.4097207,16.6466094 L21.4097207,15.837207 C21.4097207,15.8165148 21.4163241,15.7973588 21.4275375,15.7817321 C21.4162968,15.7537696 21.4096758,15.7194744 21.4096758,15.6824251 L21.4096758,15.3358789 L21.2136367,15.3358789 L21.2136367,15.6824251 C21.2136367,15.7215992 21.2062345,15.7576942 21.1937957,15.78648 C21.1990036,15.794589 21.203326,15.8035628 21.2065892,15.8131936 C21.2904419,15.8770182 21.344584,15.9778439 21.344584,16.091256 L21.344584,16.1113494 C21.344584,16.2247805 21.2904239,16.3256208 21.2065474,16.3894437 C21.1923381,16.4312237 21.1581759,16.4606777 21.1183125,16.4606777 L20.329125,16.4606777 C20.2765215,16.4606777 20.2338457,16.4093886 20.2338457,16.346168 L20.2338457,16.0920977 C20.2338457,16.0288771 20.1911699,15.9775879 20.1385664,15.9775879 L19.7387168,15.9775879 C19.6861133,15.9775879 19.6434375,16.0288771 19.6434375,16.0920977 L19.6434375,16.1045151 C19.6434375,16.1677357 19.6861133,16.2190248 19.7387168,16.2190248 L19.9401016,16.2190248 C19.9927051,16.2190248 20.0353809,16.270314 20.0353809,16.3335346 L20.0353809,16.346114 C20.0353809,16.4093346 19.9927051,16.4606237 19.9401016,16.4606237 L19.5428574,16.4606237 C19.4902539,16.4606237 19.4475781,16.4093346 19.4475781,16.346114 L19.4475781,15.8564375 C19.4475781,15.8301041 19.4549824,15.8058407 19.4674242,15.7864918 C19.4549824,15.757704 19.4475781,15.7216046 19.4475781,15.6824251 L19.4475781,15.3358789 L19.251584,15.3358789 L19.251584,15.6824251 C19.251584,15.7194567 19.2449693,15.7537368 19.2337383,15.781692 C19.2449693,15.797326 19.251584,15.8164971 19.251584,15.837207 L19.251584,16.2446484 C19.251584,16.297252 19.2089082,16.3399277 19.1563047,16.3399277 L18.5631562,16.3399277 C18.5105527,16.3399277 18.467877,16.3826035 18.467877,16.435207 L18.467877,16.6466094 C18.467877,16.6992129 18.4252012,16.7418887 18.3725977,16.7418887 L18.3671172,16.7418887 C18.3145137,16.7418887 18.2718379,16.6992129 18.2718379,16.6466094 L18.2718379,16.0332461 C18.2718379,15.9806426 18.2291621,15.9379668 18.1765586,15.9379668 L18.1686523,15.9379668 C18.1160488,15.9379668 18.073373,15.9806426 18.073373,16.0332461 L18.073373,16.6466094 C18.073373,16.6992129 18.0306973,16.7418887 17.9780937,16.7418887 L17.9701875,16.7418887 C17.917584,16.7418887 17.8749082,16.6992129 17.8749082,16.6466094 L17.8749082,16.0332461 C17.8749082,15.9806426 17.8322324,15.9379668 17.7796289,15.9379668 L17.7767539,15.9379668 C17.7241504,15.9379668 17.6814746,15.9806426 17.6814746,16.0332461 L17.6814746,16.6466094 C17.6814746,16.6992129 17.6387988,16.7418887 17.5861953,16.7418887 L17.5808496,16.7418887 C17.5282461,16.7418887 17.4855703,16.6992129 17.4855703,16.6466094 L17.4855703,15.837207 C17.4855703,15.8165275 17.4921656,15.7973823 17.5033665,15.7817609 C17.4921225,15.7537931 17.4855077,15.7194871 17.4855254,15.6824251 L17.4855254,15.3358789 L17.2894863,15.3358789 L17.2894863,15.6824251 C17.2894863,15.721605 17.2820819,15.7577049 17.2696399,15.7864927 C17.2748537,15.7946095 17.2791808,15.8035927 17.2824464,15.8132335 C17.3662692,15.8770602 17.4203887,15.9778675 17.4203887,16.091256 L17.4203887,16.1113494 C17.4203887,16.2247531 17.3662547,16.3255722 17.2824127,16.3893976 C17.2682128,16.431202 17.2340402,16.4606777 17.1941621,16.4606777 L16.4049746,16.4606777 C16.3523711,16.4606777 16.3096953,16.4093886 16.3096953,16.346168 L16.3096953,16.0920977 C16.3096953,16.0288771 16.2670195,15.9775879 16.214416,15.9775879 L15.8171719,15.9775879 C15.7645684,15.9775879 15.7218926,16.0288771 15.7218926,16.0920977 L15.7218926,16.1045151 C15.7218926,16.1677357 15.7645684,16.2190248 15.8171719,16.2190248 L16.0185566,16.2190248 C16.0711602,16.2190248 16.1138359,16.270314 16.1138359,16.3335346 L16.1138359,16.346114 C16.1138359,16.4093346 16.0711602,16.4606237 16.0185566,16.4606237 L15.618707,16.4606237 C15.5661035,16.4606237 15.5234277,16.4093346 15.5234277,16.346114 L15.5234277,15.8564375 C15.5234277,15.8301041 15.530832,15.8058407 15.5432738,15.7864918 C15.530832,15.757704 15.5234277,15.7216046 15.5234277,15.6824251 L15.5234277,15.3358789 L15.3299492,15.3358789 L15.3299492,15.6824251 C15.3299492,15.7194567 15.3233345,15.7537368 15.3121036,15.781692 C15.3233345,15.797326 15.3299492,15.8164971 15.3299492,15.837207 L15.3299492,16.2446484 C15.3299492,16.297252 15.2873184,16.3399277 15.2346699,16.3399277 L14.6363555,16.3399277 C14.583752,16.3399277 14.5410762,16.3826035 14.5410762,16.435207 L14.5410762,16.6466094 C14.5410762,16.6992129 14.4984004,16.7418887 14.4457969,16.7418887 L14.4404512,16.7418887 C14.3878477,16.7418887 14.3451719,16.6992129 14.3451719,16.6466094 L14.3451719,16.0332461 C14.3451719,15.9806426 14.3024961,15.9379668 14.2498926,15.9379668 L14.2470176,15.9379668 C14.1944141,15.9379668 14.1517383,15.9806426 14.1517383,16.0332461 L14.1517383,16.6466094 C14.1517383,16.6992129 14.1090625,16.7418887 14.056459,16.7418887 L14.0485527,16.7418887 C13.9959492,16.7418887 13.9532734,16.6992129 13.9532734,16.6466094 L13.9532734,16.0332461 C13.9532734,15.9806426 13.9105977,15.9379668 13.8579941,15.9379668 L13.8525137,15.9379668 C13.7999102,15.9379668 13.7572344,15.9806426 13.7572344,16.0332461 L13.7572344,16.6466094 C13.7572344,16.6992129 13.7145586,16.7418887 13.6619551,16.7418887 L13.6566094,16.7418887 C13.6040059,16.7418887 13.5613301,16.6992129 13.5613301,16.6466094 L13.5613301,15.837207 C13.5613301,15.8164971 13.5679447,15.797326 13.5791757,15.781692 C13.5679447,15.7537368 13.5613301,15.7194567 13.5613301,15.6824251 L13.5613301,15.3358789 L13.3654258,15.3358789 L13.3654258,15.6824251 C13.3654258,15.7216012 13.3580228,15.7576979 13.3455829,15.7864844 C13.3511422,15.7951329 13.3556956,15.8047652 13.3590318,15.8151288 C13.4425011,15.8790457 13.4962383,15.9789835 13.4962383,16.091256 L13.4962383,16.1113494 C13.4962383,16.2236215 13.4425016,16.3235589 13.3590329,16.3874759 C13.3452385,16.4302959 13.3106329,16.4606777 13.2701465,16.4606777 L12.4783984,16.4606777 C12.4257949,16.4606777 12.3831191,16.4093886 12.3831191,16.346168 L12.3831191,16.0920977 C12.3831191,16.0288771 12.3404434,15.9775879 12.2878398,15.9775879 L11.8905508,15.9775879 C11.8379473,15.9775879 11.7952715,16.0288771 11.7952715,16.0920977 L11.7952715,16.1045151 C11.7952715,16.1677357 11.8379473,16.2190248 11.8905508,16.2190248 L12.0943613,16.2190248 C12.1469648,16.2190248 12.1896406,16.270314 12.1896406,16.3335346 L12.1896406,16.346114 C12.1896406,16.4093346 12.1469648,16.4606237 12.0943613,16.4606237 L11.6945117,16.4606237 C11.6419082,16.4606237 11.5992324,16.4093346 11.5992324,16.346114 L11.5992324,15.8564375 C11.5992324,15.8301041 11.6066367,15.8058407 11.6190785,15.7864918 C11.6066367,15.757704 11.5992324,15.7216046 11.5992324,15.6824251 L11.5992324,15.3358789 L11.4033281,15.3358789 L11.4033281,15.6824251 C11.4033281,15.7194567 11.3967135,15.7537368 11.3854825,15.781692 C11.3967135,15.797326 11.4033281,15.8164971 11.4033281,15.837207 L11.4033281,16.2446484 C11.4033281,16.297252 11.3606973,16.3399277 11.3080937,16.3399277 L10.7122051,16.3399277 C10.6596016,16.3399277 10.6169258,16.3826035 10.6169258,16.435207 L10.6169258,16.6466094 C10.6169258,16.6992129 10.57425,16.7418887 10.5216465,16.7418887 L10.5163008,16.7418887 C10.4636973,16.7418887 10.4210215,16.6992129 10.4210215,16.6466094 L10.4210215,16.0332461 C10.4210215,15.9806426 10.3783457,15.9379668 10.3257422,15.9379668 L10.3202617,15.9379668 C10.2676582,15.9379668 10.2249824,15.9806426 10.2249824,16.0332461 L10.2249824,16.6466094 C10.2249824,16.6992129 10.1823066,16.7418887 10.1297031,16.7418887 L10.1243574,16.7418887 C10.0717539,16.7418887 10.0290781,16.6992129 10.0290781,16.6466094 L10.0290781,16.0332461 C10.0290781,15.9806426 9.98640234,15.9379668 9.93379883,15.9379668 L9.92845312,15.9379668 C9.87584961,15.9379668 9.83317383,15.9806426 9.83317383,16.0332461 L9.83317383,16.6466094 C9.83317383,16.6992129 9.79049805,16.7418887 9.73789453,16.7418887 L9.73241406,16.7418887 C9.67981055,16.7418887 9.63713477,16.6992129 9.63713477,16.6466094 L9.63713477,15.837207 C9.63713477,15.8164971 9.64374943,15.797326 9.65498041,15.781692 C9.64374943,15.7537368 9.63713477,15.7194567 9.63713477,15.6824251 L9.63713477,15.3358789 L9.44123047,15.3358789 L9.44123047,15.6824251 C9.44123047,15.7215992 9.43382825,15.7576942 9.42138949,15.78648 C9.4269419,15.7951254 9.43148775,15.804754 9.43481666,15.8151136 C9.51829728,15.8790299 9.57204297,15.9789746 9.57204297,16.091256 L9.57204297,16.1113494 C9.57204297,16.2236482 9.51828068,16.3236065 9.43477797,16.3875215 C9.42097366,16.4303175 9.38637827,16.4606777 9.34590625,16.4606777 L8.5541582,16.4606777 C8.50155469,16.4606777 8.45887891,16.4093886 8.45887891,16.346168 L8.45887891,16.0920977 C8.45887891,16.0288771 8.41620313,15.9775879 8.36359961,15.9775879 L7.96878125,15.9775879 C7.91617773,15.9775879 7.87350195,16.0288771 7.87350195,16.0920977 L7.87350195,16.1045151 C7.87350195,16.1677357 7.91617773,16.2190248 7.96878125,16.2190248 L8.16769531,16.2190248 C8.22029883,16.2190248 8.26297461,16.270314 8.26297461,16.3335346 L8.26297461,16.346114 C8.26297461,16.4093346 8.22029883,16.4606237 8.16769531,16.4606237 L7.77031641,16.4606237 C7.71771289,16.4606237 7.67503711,16.4093346 7.67503711,16.346114 L7.67503711,15.8564375 C7.67503711,15.8301041 7.68244134,15.8058407 7.69488315,15.7864918 C7.68244134,15.757704 7.67503711,15.7216046 7.67503711,15.6824251 L7.67503711,15.3358789 L7.47657227,15.3358789 L7.47657227,15.6824251 C7.47657227,15.7194567 7.4699576,15.7537368 7.45872663,15.781692 C7.4699576,15.797326 7.47657227,15.8164971 7.47657227,15.837207 L7.47657227,16.2446484 C7.47657227,16.297252 7.43394141,16.3399277 7.38133789,16.3399277 L6.78818945,16.3399277 C6.73558594,16.3399277 6.69291016,16.3826035 6.69291016,16.435207 L6.69291016,16.6466094 C6.69291016,16.6992129 6.65023438,16.7418887 6.59763086,16.7418887 L6.59215039,16.7418887 C6.53954688,16.7418887 6.49687109,16.6992129 6.49687109,16.6466094 L6.49687109,16.0332461 C6.49687109,15.9806426 6.45419531,15.9379668 6.4015918,15.9379668 L6.39624609,15.9379668 C6.34364258,15.9379668 6.3009668,15.9806426 6.3009668,16.0332461 L6.3009668,16.6466094 C6.3009668,16.6992129 6.25829102,16.7418887 6.2056875,16.7418887 L6.20020703,16.7418887 C6.14760352,16.7418887 6.10492773,16.6992129 6.10492773,16.6466094 L6.10492773,16.0332461 C6.10492773,15.9806426 6.06225195,15.9379668 6.00964844,15.9379668 L6.00430273,15.9379668 C5.95169922,15.9379668 5.90902344,15.9806426 5.90902344,16.0332461 L5.90902344,16.6466094 C5.90902344,16.6992129 5.86634766,16.7418887 5.81374414,16.7418887 L5.80826367,16.7418887 C5.75566016,16.7418887 5.71298438,16.6992129 5.71298438,16.6466094 L5.71298438,15.837207 C5.71298438,15.8165021 5.71959585,15.7973352 5.73082189,15.7817033 C5.71959386,15.753746 5.71298438,15.7194617 5.71298438,15.6824251 L5.71298438,15.3358789 L5.51708008,15.3358789 L5.51708008,15.6824251 C5.51708008,15.721605 5.50967568,15.7577049 5.49723361,15.7864927 C5.50259442,15.7948383 5.50701775,15.8040997 5.51031365,15.8140501 C5.59245419,15.8779182 5.64542188,15.9783499 5.64542188,16.091256 L5.64542188,16.1113494 C5.64542188,16.2242706 5.59244006,16.3247141 5.51028077,16.3885809 C5.49625055,16.4308176 5.46189311,16.4606777 5.42175586,16.4606777 L4.63256836,16.4606777 C4.57996484,16.4606777 4.53728906,16.4093886 4.53728906,16.346168 L4.53728906,16.0920977 C4.53728906,16.0288771 4.49461328,15.9775879 4.44200977,15.9775879 L4.03959961,15.9775879 C3.98699609,15.9775879 3.94432031,16.0288771 3.94432031,16.0920977 L3.94432031,16.1045151 C3.94432031,16.1677357 3.98699609,16.2190248 4.03959961,16.2190248 L4.24354492,16.2190248 C4.29614844,16.2190248 4.33882422,16.270314 4.33882422,16.3335346 L4.33882422,16.346114 C4.33882422,16.4093346 4.29614844,16.4606237 4.24354492,16.4606237 L3.84616602,16.4606237 C3.7935625,16.4606237 3.75088672,16.4093346 3.75088672,16.346114 L3.75088672,15.8564375 C3.75088672,15.8301041 3.75829095,15.8058407 3.77073276,15.7864918 C3.75829095,15.757704 3.75088672,15.7216046 3.75088672,15.6824251 L3.75088672,15.3358789 L3.55242188,15.3358789 L3.55242188,15.6824251 C3.55242188,15.7194567 3.54580721,15.7537368 3.53457623,15.781692 C3.54580721,15.797326 3.55242188,15.8164971 3.55242188,15.837207 L3.55242188,16.2446484 C3.55242188,16.297252 3.50974609,16.3399277 3.45714258,16.3399277 L2.86399414,16.3399277 C2.81139063,16.3399277 2.76871484,16.3826035 2.76871484,16.435207 L2.76871484,16.6466094 C2.76871484,16.6992129 2.72603906,16.7418887 2.67343555,16.7418887 L2.66795508,16.7418887 C2.61535156,16.7418887 2.57267578,16.6992129 2.57267578,16.6466094 L2.57267578,16.0332461 C2.57267578,15.9806426 2.53,15.9379668 2.47739648,15.9379668 L2.47205078,15.9379668 C2.41944727,15.9379668 2.37677148,15.9806426 2.37677148,16.0332461 L2.37677148,16.6466094 C2.37677148,16.6992129 2.3340957,16.7418887 2.28149219,16.7418887 L2.27601172,16.7418887 C2.2234082,16.7418887 2.18073242,16.6992129 2.18073242,16.6466094 L2.18073242,16.0332461 C2.18073242,15.9806426 2.13805664,15.9379668 2.08545313,15.9379668 L2.07754688,15.9379668 C2.02494336,15.9379668 1.98226758,15.9806426 1.98226758,16.0332461 L1.98226758,16.6466094 C1.98226758,16.6992129 1.9395918,16.7418887 1.88698828,16.7418887 L1.88420313,16.7418887 C1.83159961,16.7418887 1.78892383,16.6992129 1.78892383,16.6466094 L1.78892383,15.837207 C1.78892383,15.8164971 1.7955385,15.797326 1.80676947,15.781692 C1.7955385,15.7537368 1.78892383,15.7194567 1.78892383,15.6824251 L1.78892383,15.3358789 L1.59045898,15.3358789 L1.59045898,15.6824251 C1.59045898,15.7216366 1.58304264,15.7577631 1.5705824,15.7865624 C1.57577502,15.7946424 1.58008947,15.8035789 1.58335355,15.8131648 C1.6671333,15.87696 1.72122656,15.9777592 1.72122656,16.091256 L1.72122656,16.1113494 C1.72122656,16.2247207 1.66716075,16.3255146 1.58341732,16.3893428 C1.56923687,16.4312004 1.53504283,16.4607227 1.49513477,16.4607227 L1.12201451,16.4607227 Z M22.076347,6.97686133 L21.6087996,6.97686133 C21.6050604,6.98913476 21.6030195,7.00239045 21.6030195,7.01621678 L21.6030195,7.26425896 C21.6030195,7.32748434 21.5603437,7.37877734 21.5077402,7.37877734 L21.5048652,7.37877734 C21.4522617,7.37877734 21.4095859,7.32748434 21.4095859,7.26425896 L21.4095859,6.77454573 C21.4095859,6.76245796 21.4111458,6.75080634 21.4140367,6.73986594 C21.4111171,6.7071748 21.409541,6.6723418 21.409541,6.63619792 L21.409541,6.59877474 C21.409541,6.41069513 21.4522168,6.25811133 21.5048203,6.25811133 L21.738577,6.25811133 C21.8591358,6.49311724 21.9718413,6.73281606 22.076347,6.97686133 Z M1.53026694,17.2357522 C1.39946874,17.0088921 1.27619122,16.7771489 1.16077495,16.5408633 L1.49517969,16.5408633 C1.5477832,16.5408633 1.59045898,16.6934471 1.59045898,16.8815267 L1.59045898,16.9189499 C1.59045898,17.0627335 1.56551781,17.1857722 1.53026694,17.2357522 Z M2.76871484,15.8527949 L2.76871484,16.0435781 C2.76871484,16.0961816 2.81139063,16.1388574 2.86399414,16.1388574 L3.2588125,16.1388574 C3.31141602,16.1388574 3.3540918,16.0961816 3.3540918,16.0435781 L3.3540918,16.0332461 C3.3540918,15.9806426 3.31141602,15.9379668 3.2588125,15.9379668 L3.05989844,15.9379668 C3.01070886,15.9379668 2.97020023,15.9006505 2.96514943,15.8527949 L2.76871484,15.8527949 Z M5.01961808,15.8527949 L4.7307239,15.8527949 C4.73075172,15.8540045 4.73076758,15.8552188 4.73076758,15.8564375 L4.73076758,16.1044611 C4.73076758,16.1676817 4.77344336,16.2189709 4.82604687,16.2189709 L4.94337144,16.2189709 C4.93253014,16.1850674 4.92667188,16.1488983 4.92667188,16.1113494 L4.92667188,16.091256 C4.92667188,15.9990882 4.9619686,15.9152331 5.01961808,15.8527949 Z M6.69286523,15.8527949 L6.69286523,16.0435781 C6.69286523,16.0961816 6.73554102,16.1388574 6.78814453,16.1388574 L7.18785938,16.1388574 C7.24046289,16.1388574 7.28313867,16.0961816 7.28313867,16.0435781 L7.28313867,16.0332461 C7.28313867,15.9806426 7.24046289,15.9379668 7.18785938,15.9379668 L6.98404883,15.9379668 C6.93485925,15.9379668 6.89435062,15.9006505 6.88929982,15.8527949 L6.69286523,15.8527949 Z M8.94865672,15.8527949 L8.65730008,15.8527949 C8.65732789,15.8540045 8.65734375,15.8552188 8.65734375,15.8564375 L8.65734375,16.1044611 C8.65734375,16.1676817 8.70001953,16.2189709 8.75262305,16.2189709 L8.87042689,16.2189709 C8.85930361,16.1850674 8.85329297,16.1488983 8.85329297,16.1113494 L8.85329297,16.091256 C8.85329297,15.9990882 8.88950777,15.9152331 8.94865672,15.8527949 Z M12.872852,15.8527949 L12.5815403,15.8527949 C12.5815681,15.8540045 12.581584,15.8552188 12.581584,15.8564375 L12.581584,16.1044611 C12.581584,16.1676817 12.6242598,16.2189709 12.6768633,16.2189709 L12.7946222,16.2189709 C12.7834989,16.1850674 12.7774883,16.1488983 12.7774883,16.1113494 L12.7774883,16.091256 C12.7774883,15.9990882 12.8137031,15.9152331 12.872852,15.8527949 Z M10.6168809,15.8527949 L10.6168809,16.0435781 C10.6168809,16.0961816 10.6595566,16.1388574 10.7121602,16.1388574 L11.1120098,16.1388574 C11.1646133,16.1388574 11.2072891,16.0961816 11.2072891,16.0435781 L11.2072891,16.0332461 C11.2072891,15.9806426 11.1646133,15.9379668 11.1120098,15.9379668 L10.9081992,15.9379668 C10.8590096,15.9379668 10.818501,15.9006505 10.8134502,15.8527949 L10.6168809,15.8527949 Z M14.5410762,15.8527949 L14.5410762,16.0435781 C14.5410762,16.0961816 14.583752,16.1388574 14.6363555,16.1388574 L15.0362051,16.1388574 C15.0888086,16.1388574 15.1314844,16.0961816 15.1314844,16.0435781 L15.1314844,16.0332461 C15.1314844,15.9806426 15.0888086,15.9379668 15.0362051,15.9379668 L14.8348203,15.9379668 C14.7856307,15.9379668 14.7451221,15.9006505 14.7400713,15.8527949 L14.5410762,15.8527949 Z M16.7957997,15.8527949 L16.5056907,15.8527949 C16.5057185,15.8540045 16.5057344,15.8552188 16.5057344,15.8564375 L16.5057344,16.1044611 C16.5057344,16.1676817 16.5484102,16.2189709 16.6010137,16.2189709 L16.7185565,16.2189709 C16.7075735,16.1850674 16.7016387,16.1488983 16.7016387,16.1113494 L16.7016387,16.091256 C16.7016387,15.9990882 16.7373967,15.9152331 16.7957997,15.8527949 Z M20.719995,15.8527949 L20.4297513,15.8527949 C20.4297791,15.8540045 20.4297949,15.8552188 20.4297949,15.8564375 L20.4297949,16.1044611 C20.4297949,16.1676817 20.4724707,16.2189709 20.5250742,16.2189709 L20.6427518,16.2189709 C20.6317688,16.1850674 20.625834,16.1488983 20.625834,16.1113494 L20.625834,16.091256 C20.625834,15.9990882 20.6615921,15.9152331 20.719995,15.8527949 Z M18.467877,15.8527949 L18.467877,16.0435781 C18.467877,16.0961816 18.5105527,16.1388574 18.5631562,16.1388574 L18.9604004,16.1388574 C19.0130039,16.1388574 19.0556797,16.0961816 19.0556797,16.0435781 L19.0556797,16.0332461 C19.0556797,15.9806426 19.0130039,15.9379668 18.9604004,15.9379668 L18.7564551,15.9379668 C18.7072655,15.9379668 18.6667569,15.9006505 18.6617061,15.8527949 L18.467877,15.8527949 Z M18.4627109,6.97690625 L18.4627109,7.02863508 C18.4627109,7.09186046 18.5053867,7.14315347 18.5579902,7.14315347 L18.9604004,7.14315347 C19.0130039,7.14315347 19.0556797,7.09186046 19.0556797,7.02863508 L19.0556797,7.01621678 C19.0556797,7.00240732 19.0536438,6.9891671 19.0499133,6.97690625 L18.4627109,6.97690625 Z M15.1206867,6.97690625 L14.5410762,6.97690625 L14.5410762,7.02863508 C14.5410762,7.09186046 14.583752,7.14315347 14.6363555,7.14315347 L15.0311738,7.14315347 C15.0837773,7.14315347 15.1264531,7.09186046 15.1264531,7.02863508 L15.1264531,7.01621678 C15.1264531,7.00240732 15.1244172,6.9891671 15.1206867,6.97690625 Z M10.6168809,6.97690625 L10.6168809,7.02863508 C10.6168809,7.09186046 10.6595566,7.14315347 10.7121602,7.14315347 L11.1094492,7.14315347 C11.1620527,7.14315347 11.2047285,7.09186046 11.2047285,7.02863508 L11.2047285,7.01621678 C11.2047285,7.00240732 11.2026926,6.9891671 11.1989621,6.97690625 L10.6168809,6.97690625 Z M6.69030469,6.97690625 L6.69030469,7.02863508 C6.69030469,7.09186046 6.73298047,7.14315347 6.78558398,7.14315347 L7.18282813,7.14315347 C7.23543164,7.14315347 7.27810742,7.09186046 7.27810742,7.02863508 L7.27810742,7.01621678 C7.27810742,7.00240732 7.27607154,6.9891671 7.27234101,6.97690625 L6.69030469,6.97690625 Z M2.7661543,6.97690625 L2.7661543,7.02863508 C2.7661543,7.09186046 2.80883008,7.14315347 2.86143359,7.14315347 L3.2612832,7.14315347 C3.31388672,7.14315347 3.3565625,7.09186046 3.3565625,7.02863508 L3.3565625,7.01621678 C3.3565625,7.00240732 3.35452662,6.9891671 3.35079609,6.97690625 L2.7661543,6.97690625 Z M21.1183574,16.5408184 C21.1710059,16.5408184 21.2136367,16.6934022 21.2136367,16.8814818 L21.2136367,16.918905 C21.2136367,17.1069846 21.1709609,17.2595684 21.1183574,17.2595684 L18.7564102,17.2595684 C18.7038066,17.2595684 18.6611309,17.1069846 18.6611309,16.918905 L18.6611309,16.8814818 C18.6611309,16.6934022 18.7038066,16.5408184 18.7564102,16.5408184 L21.1183574,16.5408184 Z M17.194207,16.5408184 C17.2468105,16.5408184 17.2894863,16.6934022 17.2894863,16.8814818 L17.2894863,16.918905 C17.2894863,17.1069846 17.2468105,17.2595684 17.194207,17.2595684 L14.8348652,17.2595684 C14.7822617,17.2595684 14.7395859,17.1069846 14.7395859,16.918905 L14.7395859,16.8814818 C14.7395859,16.6934022 14.7822617,16.5408184 14.8348652,16.5408184 L17.194207,16.5408184 Z M13.2701465,16.5408184 C13.32275,16.5408184 13.3654258,16.6934022 13.3654258,16.8814818 L13.3654258,16.918905 C13.3654258,17.1069846 13.32275,17.2595684 13.2701465,17.2595684 L10.9081992,17.2595684 C10.8555957,17.2595684 10.8129199,17.1069846 10.8129199,16.918905 L10.8129199,16.8814818 C10.8129199,16.6934022 10.8555957,16.5408184 10.9081992,16.5408184 L13.2701465,16.5408184 Z M9.34595117,16.5408184 C9.39859961,16.5408184 9.44123047,16.6934022 9.44123047,16.8814818 L9.44123047,16.918905 C9.44123047,17.1069846 9.39855469,17.2595684 9.34595117,17.2595684 L6.98400391,17.2595684 C6.93140039,17.2595684 6.88872461,17.1069846 6.88872461,16.918905 L6.88872461,16.8814818 C6.88872461,16.6934022 6.93140039,16.5408184 6.98400391,16.5408184 L9.34595117,16.5408184 Z M5.42180078,16.5408184 C5.4744043,16.5408184 5.51708008,16.6934022 5.51708008,16.8814818 L5.51708008,16.918905 C5.51708008,17.1069846 5.4744043,17.2595684 5.42180078,17.2595684 L3.05985352,17.2595684 C3.00725,17.2595684 2.96457422,17.1069846 2.96457422,16.918905 L2.96457422,16.8814818 C2.96457422,16.6934022 3.00725,16.5408184 3.05985352,16.5408184 L5.42180078,16.5408184 Z" id="Combined-Shape" fill="#F5F5F5"></path>
                </g>
                <circle id="Oval" stroke="#FFFFFF" cx="12" cy="12" r="11.5"></circle>
                <path d="M11.5906406,9.87317541 C11.3655,9.79571394 11.2284844,9.46401994 11.2871719,9.14325 C11.295,9.1598016 11.3067187,9.18184832 11.312625,9.19859854 C11.4771094,9.50268447 11.7844219,9.56352814 12.0017344,9.33677127 C12.0115781,9.34776153 12.0272344,9.358818 12.0389531,9.37000687 C12.27,9.57465082 12.5715469,9.46958128 12.714375,9.14325 C12.7535625,9.34776153 12.7085625,9.57458461 12.598875,9.72394622 C12.4305,9.95057068 12.16425,9.94507555 12.0017812,9.71275734 C11.8941562,9.86761408 11.7375,9.92852395 11.5906406,9.87317541 Z M12.5026875,14.2340625 C12.8382187,14.3488125 13.1911875,14.4096563 13.5475312,14.3995313 C13.585125,14.3984531 13.5926719,14.4513281 13.5566719,14.46225 C13.104,14.5995 12.638625,14.6091094 12.2011406,14.5112344 L12.0282187,14.8442813 C12.0162656,14.86725 11.9833594,14.8672031 11.9715,14.8441875 L11.79975,14.5109531 C11.3623125,14.6090156 10.8970781,14.5995469 10.4447344,14.46225 C10.4087344,14.4513281 10.4163281,14.3984063 10.4539219,14.3994844 C10.8099844,14.4097031 11.1621094,14.3488125 11.4970781,14.2340156 C10.9706719,13.945125 10.5315469,13.4899219 10.29075,12.8903906 C9.88073437,11.8627031 10.1405625,10.7027813 10.9235156,9.95034375 C10.9504687,9.92446875 10.9914375,9.95901563 10.9719375,9.99089063 C10.1994844,11.2534219 10.5049219,12.9128906 11.7022969,13.8209531 L11.6466562,10.1534063 C11.6459062,10.104 11.66775,10.0569375 11.7060469,10.025625 L11.8979062,9.86878125 C11.95725,9.82026563 12.0425156,9.82003125 12.1021406,9.86821875 L12.2968125,10.0255781 C12.3355312,10.0568906 12.3577031,10.1042344 12.3569062,10.1540156 L12.2996719,13.8189375 C13.4968594,12.9104531 13.8015937,11.2524375 13.0279687,9.99079688 C13.0084219,9.95892188 13.0493906,9.92432813 13.0763437,9.95020313 C13.8607031,10.7026406 14.1189844,11.8626563 13.7089219,12.8903906 C13.4680781,13.4899219 13.0289531,13.9451719 12.5026875,14.2340625 Z M14.6447812,10.8269063 C15.2477812,11.9428594 14.8347187,13.3367813 13.7187656,13.9357969 C13.7677031,13.8810938 13.8186094,13.8145313 13.865625,13.7518594 C14.7747187,12.5032031 14.5390312,10.7785781 13.3635469,9.81023438 C13.3362656,9.78778125 13.3622812,9.74371875 13.3956562,9.7554375 C13.9281094,9.94228125 14.3754375,10.3236563 14.6447812,10.8269063 Z M10.1360625,13.7518594 C10.1811094,13.8145313 10.2320156,13.8810469 10.2848437,13.9358438 C9.16701562,13.3368281 8.75001562,11.9429063 9.35685937,10.8269531 C9.62798437,10.32375 10.0721719,9.94242188 10.6039687,9.75553125 C10.6373437,9.7438125 10.6633594,9.78782813 10.6360781,9.81032813 C9.46078125,10.7786719 9.22701562,12.50325 10.1360625,13.7518594 Z" id="Combined-Shape" fill="#FF4B55" fill-rule="nonzero"></path>
            </g>
        </g>
    </g>
</svg>