<?xml version="1.0" encoding="UTF-8"?>
<svg width="24px" height="24px" viewBox="0 0 24 24" version="1.1" xmlns="http://www.w3.org/2000/svg" xmlns:xlink="http://www.w3.org/1999/xlink">
    <!-- Generator: Sketch 55.1 (78136) - https://sketchapp.com -->
    <title>Flags/saudi_arabia</title>
    <desc>Created with Sketch.</desc>
    <g id="Icons" stroke="none" stroke-width="1" fill="none" fill-rule="evenodd">
        <g id="Flags/saudi_arabia">
            <g id="saudi_arabia">
                <path d="M12,23.5 C5.64872538,23.5 0.5,18.3512746 0.5,12 C0.5,5.64872538 5.64872538,0.5 12,0.5 C18.3512746,0.5 23.5,5.64872538 23.5,12 C23.5,18.3512746 18.3512746,23.5 12,23.5 Z" id="Combined-Shape" fill="#73AF00" fill-rule="nonzero"></path>
                <g id="Group" transform="translate(3.328125, 6.515625)" fill="#F5F5F5" fill-rule="nonzero">
                    <path d="M0.27440625,2.47185938 C0.323109375,2.78390625 0.511734375,2.881875 0.67575,2.869125 C0.86915625,2.854125 1.03879688,2.67726563 1.03879688,2.49051563 L1.03879688,1.41951563 C1.03879688,1.36589063 1.0824375,1.32215625 1.13615625,1.32215625 C1.189875,1.32215625 1.23351563,1.36589063 1.23351563,1.41951563 L1.23351563,2.49510938 C1.23351563,2.6244375 1.29740625,2.745 1.4045625,2.81742188 C1.47,2.86171875 1.546125,2.88454688 1.62285938,2.88454688 C1.67175,2.88454688 1.72078125,2.87521875 1.7675625,2.85660938 L1.864875,2.81770313 C1.87382813,3.71671875 1.81917188,4.50684375 1.81814063,4.52132813 C1.81054688,4.62857813 1.89126563,4.72176563 1.99851563,4.72935938 C2.00325,4.72973438 2.0079375,4.72992187 2.01257813,4.72992187 C2.11382813,4.72992187 2.19932813,4.65159375 2.20664063,4.54907813 C2.2111875,4.48575 2.2711875,3.62048438 2.2531875,2.66235938 L2.31201563,2.63882813 C2.363625,2.61829688 2.4215625,2.62078125 2.47120313,2.64548438 C2.68570313,2.75235938 2.94375,2.71073438 3.11329688,2.54128125 L3.14835938,2.5063125 C3.30571875,2.34867188 3.3598125,2.1196875 3.28935938,1.90842188 L3.12351563,1.4109375 C3.2131875,1.4379375 3.31167188,1.3981875 3.3549375,1.31184375 C3.40303125,1.21560938 3.36407813,1.09865625 3.26784375,1.0505625 L2.87835938,0.85584375 C2.80790625,0.820453125 2.72339063,0.831328125 2.66367188,0.88284375 C2.60414063,0.934546875 2.58159375,1.01690625 2.60653125,1.091625 L2.91984375,2.03160938 C2.94332813,2.10196875 2.92528125,2.17842188 2.872875,2.23092188 L2.83790625,2.26589063 C2.78714063,2.31665625 2.70984375,2.32903125 2.64515625,2.2970625 C2.51892188,2.23401563 2.37529688,2.22220313 2.24048438,2.2565625 C2.21310938,1.63153125 2.14579688,1.009125 2.00240625,0.57890625 C1.96846875,0.477 1.85835938,0.421640625 1.75603125,0.455859375 C1.65398438,0.489703125 1.59885938,0.6 1.63289063,0.702140625 C1.7731875,1.1229375 1.83435938,1.7641875 1.85596875,2.40178125 L1.62290625,2.49501563 L1.62290625,1.41942188 C1.62290625,1.15092188 1.40451563,0.932578125 1.1360625,0.932578125 C0.867609375,0.932578125 0.64921875,1.150875 0.64921875,1.41942188 L0.64921875,2.36207813 L0.450609375,1.38079688 C0.429421875,1.27523438 0.3268125,1.20642188 0.22115625,1.22845313 C0.1156875,1.24992188 0.04753125,1.352625 0.06890625,1.458 L0.27440625,2.47185938 Z" id="Shape"></path>
                    <path d="M0.82959375,1.00115625 C1.0366833,1.00115625 1.20459375,0.889336317 1.20459375,0.75115625 L1.20459375,0.50115625 C1.20459375,0.362976183 1.0366833,0.25115625 0.82959375,0.25115625 C0.622504198,0.25115625 0.45459375,0.362976183 0.45459375,0.50115625 L0.45459375,0.75115625 C0.45459375,0.889276134 0.622504198,1.00115625 0.82959375,1.00115625 Z" id="Shape"></path>
                    <path d="M2.65192187,1.00110937 L2.90192186,1.00110937 C3.03998156,1.00110937 3.15192186,0.833379476 3.15192186,0.626109375 C3.15192186,0.418839274 3.03998156,0.251109375 2.90192186,0.251109375 L2.65192187,0.251109375 C2.51386218,0.251109375 2.40192186,0.418839274 2.40192186,0.626109375 C2.4018617,0.833379476 2.51380199,1.00110937 2.65192187,1.00110937 Z" id="Shape"></path>
                    <path d="M1.32801562,3.19982812 L0.354375,3.78403125 C0.262125,3.83939062 0.232265625,3.95896875 0.287625,4.05121875 C0.324140625,4.1120625 0.38859375,4.14571875 0.45478125,4.14571875 C0.48890625,4.14571875 0.523453125,4.13676562 0.5548125,4.11796875 L1.52845312,3.53376562 C1.62070312,3.47840625 1.6505625,3.35882812 1.59520312,3.26657812 C1.53984375,3.17432812 1.42035937,3.14446875 1.32801562,3.19982812 Z" id="Shape"></path>
                    <path d="M3.95334375,3.54426562 L3.95789062,3.54117187 C3.97425,3.60698437 4.00228125,3.6706875 4.04775,3.724125 C4.126875,3.8173125 4.24551562,3.86409375 4.37957812,3.85307812 C4.56975,3.83920312 4.69907812,3.75229687 4.784625,3.64007812 C4.79765625,3.64903125 4.81134375,3.6571875 4.8256875,3.66440625 C4.93092187,3.71746875 5.05265625,3.71348437 5.16857812,3.65339062 C5.46285937,3.50184375 5.52628125,3.15117187 5.51732812,2.96784375 C5.51207812,2.86096875 5.4211875,2.78545312 5.31459375,2.78339062 C5.207625,2.7879375 5.12442187,2.87864062 5.12821875,2.98551562 C5.1283125,2.988 5.13267187,3.21904687 4.99139062,3.30482812 C4.968375,3.27267187 4.941,3.2004375 4.93073437,3.14071875 C4.91428125,3.0405 4.82226562,2.97070312 4.72317187,2.97871875 C4.62220312,2.9866875 4.54420312,3.07153125 4.54382812,3.172875 C4.54373437,3.2011875 4.53745312,3.45107812 4.34451562,3.47198437 C4.3220625,3.441375 4.3216875,3.31242187 4.34376562,3.21717187 C4.36242187,3.13903125 4.33101562,3.05742187 4.26492187,3.0118125 C4.19864062,2.96596875 4.11126562,2.96596875 4.04479687,3.0110625 L3.93609375,3.08498437 C3.88448437,1.95571875 3.76560937,0.63975 3.76410937,0.62296875 C3.75440625,0.51609375 3.66028125,0.43640625 3.5525625,0.446671875 C3.44540625,0.456375 3.36646875,0.5510625 3.37617187,0.6583125 C3.37785937,0.6763125 3.51539062,2.1988125 3.5578125,3.36154687 C3.547875,3.37101562 3.53760937,3.381375 3.52785937,3.39042187 C3.45084375,3.19626562 3.29821875,3.07396875 3.101625,3.05535937 C2.82417187,3.03084375 2.52351562,3.21965625 2.41579687,3.48932812 C2.32289062,3.7213125 2.38139062,3.94935937 2.56471875,4.07010937 C2.69648437,4.15701562 2.89542187,4.18439062 3.1455,4.09673437 C3.08446875,4.31123437 2.97328125,4.52878125 2.82876562,4.69710937 C2.69934375,4.84790625 2.48325,5.02190625 2.20664062,5.014125 C2.04567187,5.00784375 1.92196875,4.95515625 1.8285,4.852875 C1.60307812,4.60659375 1.6224375,4.16085937 1.622625,4.156125 C1.62825,4.048875 1.54607812,3.95742187 1.43892187,3.95151562 C1.33101562,3.940125 1.23960937,4.02778125 1.23375,4.13521875 C1.2324375,4.15992187 1.20417187,4.74567187 1.53951562,5.11401562 C1.7045625,5.29560937 1.9239375,5.39278125 2.19140625,5.40328125 C2.2044375,5.40384375 2.21746875,5.40403125 2.23059375,5.40403125 C2.55632812,5.40403125 2.87240625,5.24428125 3.12417187,4.95084375 C3.36098437,4.67507812 3.5218125,4.3005 3.57009375,3.95273437 C3.5694375,4.618875 3.16804687,5.37023437 2.63573437,5.70121875 C2.40970312,5.8415625 2.05734375,5.96821875 1.66035937,5.77251562 C1.17107812,5.53101562 1.22934375,4.97170312 1.23192187,4.94892187 C1.24532812,4.84223437 1.16953125,4.744875 1.06284375,4.7315625 C0.956625,4.718625 0.858703125,4.79376562 0.845484375,4.90064062 C0.841125,4.93542187 0.7475625,5.75639062 1.48804687,6.1216875 C1.67821875,6.215625 1.87710937,6.26221875 2.07754687,6.26221875 C2.33503125,6.26221875 2.59490625,6.18520312 2.84123437,6.03192187 C3.48923437,5.62917187 3.959625,4.75401562 3.959625,3.95114062 C3.95971875,3.82560937 3.957375,3.68845312 3.95334375,3.54426562 Z M2.77917187,3.74503125 C2.74439062,3.72201562 2.77157812,3.64842187 2.7774375,3.63379687 C2.81840625,3.53109375 2.94670312,3.4423125 3.04917187,3.4423125 C3.05442187,3.4423125 3.05971875,3.4425 3.064875,3.4430625 C3.08976562,3.44535937 3.15585937,3.45164062 3.1843125,3.59864062 C3.18735937,3.61425 3.1899375,3.6301875 3.19190625,3.64654687 C2.974875,3.77395312 2.829375,3.7779375 2.77917187,3.74503125 Z" id="Shape"></path>
                    <path d="M0.747609375,5.53603125 C0.655359375,5.48184375 0.53615625,5.51282813 0.481359375,5.60507813 C0.47240625,5.62007813 0.460546875,5.6364375 0.448453125,5.65129688 C0.44634375,5.646375 0.44428125,5.64103125 0.442171875,5.6353125 C0.360984375,5.41870313 0.41878125,5.08495313 0.447984375,4.97465625 C0.475453125,4.87082813 0.413671875,4.76432813 0.30984375,4.73657813 C0.206203125,4.70995313 0.099609375,4.77042188 0.071765625,4.87425 C0.057609375,4.9269375 -0.062109375,5.39967188 0.077484375,5.77204688 C0.166875,6.010125 0.304078125,6.07021875 0.403546875,6.07842188 C0.41240625,6.07917188 0.421125,6.07954688 0.429796875,6.07954688 C0.63946875,6.07954688 0.778921875,5.86828125 0.817734375,5.80134375 C0.871546875,5.70848438 0.840046875,5.59040625 0.747609375,5.53603125 Z" id="Shape"></path>
                    <path d="M4.3411875,2.00367187 C4.38332812,2.00367187 4.42570312,1.99017187 4.461375,1.96204687 L5.443125,1.19128125 C5.45667187,1.18064062 5.46534375,1.16671875 5.47523437,1.15359375 C5.61660937,1.06832812 5.71228125,0.914765625 5.71228125,0.73790625 C5.71228125,0.46940625 5.49389062,0.2510625 5.2254375,0.2510625 C4.95698437,0.2510625 4.73859375,0.469359375 4.73859375,0.73790625 C4.73859375,0.888140625 4.80839062,1.0209375 4.91564062,1.11032812 L4.22076562,1.65585937 C4.13625,1.72223437 4.12148437,1.84467187 4.18785937,1.92914062 C4.22634375,1.97817187 4.28348437,2.00367187 4.3411875,2.00367187 Z M5.22548437,0.640546875 C5.27920312,0.640546875 5.32284375,0.68428125 5.32284375,0.73790625 C5.32284375,0.79153125 5.27920312,0.835265625 5.22548437,0.835265625 C5.17176563,0.835265625 5.128125,0.79153125 5.128125,0.73790625 C5.128125,0.68428125 5.17176562,0.640546875 5.22548437,0.640546875 Z" id="Shape"></path>
                    <path d="M4.995,1.81903125 C4.89239063,1.7848125 4.7825625,1.840125 4.748625,1.94207812 C4.7278125,2.00446875 4.6336875,2.32565625 4.82451563,2.51639062 C4.89857813,2.59054687 4.9959375,2.627625 5.11546875,2.6274375 C5.19534375,2.6274375 5.28510937,2.61107812 5.3844375,2.57779687 C5.48648437,2.54395312 5.54160938,2.43365625 5.50757813,2.33151562 C5.47354688,2.22960937 5.3634375,2.1740625 5.26120312,2.20846875 C5.15240625,2.24460937 5.10642188,2.23870312 5.10220313,2.2425 C5.09071875,2.21357812 5.0983125,2.12667187 5.11828125,2.06451562 C5.15189063,1.96279687 5.09671875,1.852875 4.995,1.81903125 Z" id="Shape"></path>
                    <path d="M7.2924476,1.01404687 C7.31962548,1.01939062 7.34701297,1.02182812 7.37391139,1.02182812 C7.49960039,1.02182812 7.6153684,0.966703125 7.6523974,0.881671875 L7.82175266,0.4921875 C7.86667652,0.388921875 7.77822612,0.280734375 7.62445099,0.2506875 C7.47011692,0.220828125 7.30942504,0.279796875 7.26450118,0.3830625 L7.09514592,0.7725 C7.05022206,0.8758125 7.13867246,0.984 7.2924476,1.01404687 Z" id="Shape"></path>
                    <path d="M6.13746673,0.99121875 C6.17501454,1.00926563 6.2161519,1.01784375 6.25671949,1.01784375 C6.33808258,1.01784375 6.41722357,0.9834375 6.46126675,0.921421875 C6.52724606,0.828609375 6.48924243,0.70921875 6.37642807,0.654984375 C6.32879534,0.63215625 6.33529071,0.567703125 6.33700002,0.554953125 C6.34406516,0.5038125 6.38115716,0.441421875 6.44565507,0.424875 C6.57049157,0.39290625 6.64017438,0.28378125 6.6013161,0.181078125 C6.56222991,0.0781875 6.42981547,0.021328125 6.30486502,0.052921875 C6.06886648,0.113390625 5.89691004,0.293109375 5.8665983,0.51065625 C5.83856564,0.713203125 5.94237765,0.89728125 6.13746673,0.99121875 Z" id="Shape"></path>
                    <path d="M4.59920312,4.14571875 C4.46114342,4.14571875 4.34920312,4.2328125 4.34920312,4.3404375 C4.34920312,4.4355 4.43658878,4.514625 4.5523206,4.53173437 C4.56550067,4.54673437 4.59920312,4.59829687 4.59920312,4.729875 C4.59920312,4.8375 4.71114342,4.92459375 4.84920312,4.92459375 C4.98726283,4.92459375 5.09920312,4.8375 5.09920312,4.729875 C5.09920312,4.152375 4.61960515,4.14571875 4.59920312,4.14571875 Z" id="Shape"></path>
                    <path d="M7.84757813,3.52469278 C7.872,3.53000279 7.896375,3.53256409 7.92079688,3.53256409 C8.07379688,3.53256409 8.22839063,3.42967488 8.38148438,3.22564565 C8.4575625,3.12425575 8.4575625,2.96002034 8.38148438,2.8586929 C8.30540625,2.757303 8.18217188,2.757303 8.10614063,2.8586929 C7.98965625,3.01405747 7.92698438,3.01736842 7.91095313,3.01255818 C7.87378125,3.00543652 7.840125,2.94084184 7.832625,2.92310017 C7.78373438,2.7969094 7.66795313,2.7464331 7.5725625,2.81009072 C7.47632813,2.87418563 7.437375,3.03004997 7.48546875,3.15830227 C7.49746875,3.19041219 7.60996875,3.47321694 7.84757813,3.52469278 Z" id="Shape"></path>
                    <path d="M11.1576094,2.01765644 C11.1563906,2.01359714 11.1552188,2.00978764 11.1542813,2.00622795 C11.1197813,1.87145916 11.0094844,1.79820439 10.9084688,1.84410572 C10.8063281,1.88919518 10.7512031,2.03614187 10.7852344,2.17222213 C10.8004688,2.23304919 10.8871406,2.53805882 11.1020625,2.57659095 C11.1164063,2.57915143 11.1307031,2.58040045 11.1448594,2.58040045 C11.2797656,2.58040045 11.4063281,2.46411709 11.5215,2.23404841 C11.581125,2.11495476 11.5569844,1.95383174 11.4675,1.87426944 C11.3779219,1.79495695 11.2569844,1.8268693 11.1974531,1.94621275 C11.1820781,1.97687608 11.1687656,2.00017022 11.1576094,2.01765644 Z" id="Shape"></path>
                    <path d="M10.7752969,5.50879688 C10.7752969,4.67835938 10.7387813,3.89934375 10.6881094,3.21679688 C10.964625,3.69632813 11.2133437,4.18092188 11.3718281,4.60364063 C11.4012188,4.68178125 11.475375,4.72992188 11.5542188,4.72992188 C11.5769531,4.72992188 11.6000625,4.7259375 11.6225625,4.71754688 C11.72325,4.67971875 11.7742969,4.5675 11.7365625,4.46671875 C11.4900938,3.809625 11.0470781,3.02704688 10.6104375,2.33240625 C10.5039844,1.2834375 10.3848281,0.617625 10.3826719,0.605765625 C10.3634531,0.499828125 10.2622969,0.42834375 10.1562656,0.4490625 C10.0504219,0.46828125 9.98025,0.569625 9.99946875,0.675375 C10.0010156,0.683859375 10.062375,1.02679688 10.1357344,1.6040625 C9.98615625,1.3820625 9.847125,1.18176563 9.7305,1.01690625 L9.74001563,1.01995313 C9.842625,1.05417188 9.95235938,0.998859375 9.98639063,0.89690625 C10.0204219,0.794765625 9.96529688,0.68446875 9.86325,0.650625 L9.27904688,0.45590625 C9.19804687,0.42853125 9.109125,0.45740625 9.05948438,0.526640625 C9.04621875,0.545109375 9.037125,0.565359375 9.03103125,0.5863125 C8.91445312,0.500109375 8.76496875,0.430078125 8.62457812,0.4888125 C8.5396875,0.524015625 8.43848437,0.612609375 8.43848437,0.8353125 C8.43848437,1.00626563 8.50373437,1.19109375 8.57282812,1.38698438 C8.68748438,1.71178125 8.75929687,1.95065625 8.63784375,2.0645625 C8.57071875,2.12751563 8.5036875,2.15128125 8.43825,2.13473438 C8.31815625,2.1043125 8.19932812,1.944375 8.12010937,1.70685938 C8.1166875,1.69654688 8.10946875,1.68909375 8.10459375,1.67976563 C8.1455625,1.378125 8.12770312,1.01470313 8.04520312,0.60234375 C8.02420312,0.49678125 7.921875,0.42815625 7.81603125,0.449625 C7.7105625,0.47071875 7.64221875,0.573234375 7.6633125,0.678796875 C7.7904375,1.31470313 7.75232812,1.83346875 7.56126562,2.0664375 C7.48739062,2.15657813 7.39485937,2.19839063 7.27003125,2.19839063 C7.2305625,2.19839063 7.20365625,2.18582813 7.17684375,2.15503125 C7.0231875,1.97798438 7.02384375,1.40671875 7.07339062,1.05740625 C7.08126562,1.00167188 7.06453125,0.945 7.02754687,0.9024375 C6.9905625,0.859828125 6.9369375,0.8353125 6.88054687,0.8353125 C6.54548437,0.8353125 6.41845312,1.21640625 6.30632812,1.55264063 C6.25715625,1.70039063 6.16551562,1.97517188 6.101625,2.00371875 C5.98373437,2.00371875 5.9075625,1.65759375 5.90690625,1.41932813 C5.906625,1.31189063 5.81953125,1.22498438 5.7121875,1.22498438 C5.7121875,1.22498438 5.712,1.22498438 5.71190625,1.22498438 C5.60446875,1.22498438 5.51746875,1.31207813 5.51746875,1.41951563 C5.51746875,1.86867188 5.67046875,2.39315625 6.10167187,2.39315625 C6.42276562,2.39315625 6.55284375,2.04323438 6.66173437,1.7180625 C6.68067187,1.97667188 6.73903125,2.24465625 6.88260937,2.41007813 C6.98348437,2.52646875 7.11745312,2.587875 7.27007812,2.587875 C7.51045312,2.587875 7.71525,2.493 7.8624375,2.31346875 C7.8890625,2.28098438 7.91207812,2.24367188 7.93476562,2.20598438 C8.047875,2.36676563 8.18653125,2.47270313 8.3428125,2.51217188 C8.38865625,2.52375 8.43478125,2.52965625 8.48039063,2.52965625 C8.63071875,2.52965625 8.777625,2.46764063 8.90446875,2.3484375 C8.93085938,2.32364063 8.94942188,2.29654688 8.96948438,2.269875 C9.01710938,2.28346875 9.06539063,2.29157813 9.11334375,2.29157813 C9.27107813,2.29157813 9.42295313,2.2280625 9.51717188,2.16759375 C9.6073125,2.10979688 9.633375,1.99035938 9.57614063,1.89984375 C9.5188125,1.80951563 9.3988125,1.78251563 9.30801562,1.8391875 C9.306375,1.83998438 9.17629688,1.91470313 9.0875625,1.89721875 C9.08779688,1.68375 9.01054688,1.45701563 8.94004688,1.25728125 C8.89992188,1.1435625 8.85876563,1.02698438 8.83935938,0.931734375 C8.8554375,0.945234375 8.87109375,0.959296875 8.88510938,0.972984375 C8.961,1.0490625 9.08432813,1.0490625 9.16035938,0.972984375 C9.17292188,0.960421875 9.18023438,0.94509375 9.188625,0.930375 C9.39046875,1.2084375 9.80564063,1.79278125 10.2326719,2.466375 C10.3141875,3.29428125 10.3857656,4.35051563 10.3857656,5.50884375 C10.3857656,5.61646875 10.4729531,5.7035625 10.5804844,5.7035625 C10.6880156,5.7035625 10.7752969,5.61646875 10.7752969,5.50879688 Z" id="Shape"></path>
                    <path d="M11.0252861,1.22475 C11.0252861,1.332375 11.1372122,1.41946875 11.2752543,1.41946875 C11.4132964,1.41946875 11.5252224,1.332375 11.5252224,1.22475 C11.5252224,0.995578125 11.2949918,0.625359375 11.2488975,0.553453125 C11.1871577,0.45740625 11.0371407,0.418640625 10.9134805,0.466359375 C10.7899406,0.514453125 10.7399349,0.63140625 10.8016748,0.727640625 C10.8918775,0.868171875 11.0252861,1.12321875 11.0252861,1.22475 Z" id="Shape"></path>
                    <path d="M10.0839375,5.530125 C9.98845312,5.48142187 9.871125,5.52004687 9.8225625,5.61590625 C9.80165625,5.65678125 9.76921875,5.70225 9.74184375,5.73154687 C9.73317187,5.65415625 9.75384375,5.4995625 9.79307812,5.37135937 C9.81923437,5.28576562 9.78375,5.193375 9.70710937,5.14734375 C9.63075,5.101125 9.53235937,5.113125 9.46921875,5.17645312 L9.07973437,5.5659375 C9.00365625,5.64201562 9.00365625,5.76525 9.07973437,5.84128125 C9.1558125,5.9173125 9.27904687,5.91735937 9.35507812,5.84128125 L9.36496875,5.83139062 C9.38179687,5.90953125 9.41404687,5.980875 9.46917187,6.036 C9.54220312,6.10903125 9.63042187,6.14760937 9.72220312,6.14760937 C9.73996875,6.14760937 9.757875,6.14610937 9.77573437,6.14325 C9.99632812,6.10748437 10.133625,5.86429687 10.1705156,5.79070312 C10.2184687,5.69460937 10.1797031,5.57840625 10.0839375,5.530125 Z" id="Shape"></path>
                    <path d="M10.0085625,3.96314062 L8.63610937,3.96314062 C8.64829687,3.914625 8.6608125,3.86845312 8.6735625,3.82453125 C9.220875,3.7108125 9.54614062,3.53414062 9.6418125,3.29835937 C9.67490625,3.21660937 9.70940625,3.05132812 9.56859375,2.86134375 C9.44165625,2.69020312 9.26240625,2.613375 9.07635937,2.65139062 C8.79965625,2.7075 8.55309375,3.00567187 8.3761875,3.483 C7.82648437,3.577125 7.47454687,3.77442187 7.25184375,3.9691875 C7.1728125,3.17123437 6.86301562,2.6971875 6.84801562,2.67459375 C6.78829687,2.58501562 6.66735937,2.560875 6.57796875,2.62059375 C6.48848437,2.6803125 6.46434375,2.8010625 6.52396875,2.89064062 C6.52748437,2.89598437 6.88073437,3.43621875 6.88073437,4.34048437 C6.88073437,5.22932812 6.17198437,5.89832812 5.712375,5.89832812 C5.49370312,5.89832812 5.39803125,5.63840625 5.3559375,5.41870313 C5.80598437,5.10328125 6.2030625,4.7383125 6.29076562,4.3876875 C6.40940625,3.91321875 6.2600625,3.56348437 6.16125,3.3320625 C6.15660937,3.32142187 6.15173437,3.30998437 6.1468125,3.29821875 C6.15098437,3.30201562 6.15496875,3.306 6.159,3.30979687 C6.23489062,3.385875 6.35821875,3.385875 6.43425,3.30979687 C6.51032812,3.23371875 6.51032812,3.11048437 6.43425,3.03445312 C6.3204375,2.92054687 6.099375,2.74157813 5.89846875,2.82567187 C5.81357812,2.860875 5.712375,2.94946875 5.712375,3.17217187 C5.712375,3.27276562 5.75442187,3.3710625 5.80307812,3.48520312 C5.89073437,3.690375 5.9998125,3.94579687 5.91290625,4.29342187 C5.86148437,4.49910937 5.60882812,4.74867187 5.2755,4.99640625 C5.23978125,4.95370312 5.188125,4.92496875 5.12817187,4.92496875 L5.12789062,4.92496875 C5.02045312,4.92515625 4.93345312,5.0120625 4.93345312,5.1195 C4.93345312,5.15451562 4.93495312,5.19201562 4.93725,5.23040625 C4.52053125,5.5003125 4.04892187,5.75010937 3.68442187,5.91590625 C3.58659375,5.96039063 3.54332812,6.07584375 3.5878125,6.17376562 C3.6204375,6.2454375 3.69117187,6.28785938 3.76514062,6.28785938 C3.79214062,6.28785938 3.81951562,6.28232813 3.84557812,6.270375 C3.95507812,6.22059375 4.47478125,5.97848438 5.00859375,5.64759375 C5.10689062,5.9814375 5.31525,6.28785938 5.71232812,6.28785938 C6.17948437,6.28785938 6.70945312,5.905875 7.01526562,5.33554688 C7.05215625,5.40075 7.094625,5.4631875 7.14520312,5.5215 C7.635375,6.08667188 8.59275,6.09314063 8.63325,6.09314063 C8.73810937,6.09314063 8.82407812,6.01021875 8.827875,5.90545312 C8.83157812,5.8006875 8.75170312,5.71167187 8.64721875,5.70426563 C8.64571875,5.70407812 8.49051562,5.68696875 8.40417187,5.5861875 C8.35204687,5.52534375 8.33123437,5.44167188 8.34046875,5.33039063 C8.3604375,5.09039063 9.13448437,4.91109375 9.81675,4.90040625 C9.89803125,4.89909375 9.97003125,4.84753125 9.9973125,4.77089062 L10.1920312,4.22320313 C10.2132187,4.16367188 10.204125,4.09729687 10.1676094,4.04578125 C10.1311875,3.9939375 10.07175,3.96314062 10.0085625,3.96314062 Z M9.15375,3.03323437 C9.15745312,3.03248437 9.16242187,3.0313125 9.1685625,3.0313125 C9.18721875,3.0313125 9.2165625,3.04045312 9.25575,3.09332812 C9.26315625,3.10321875 9.28682812,3.1370625 9.280875,3.15192187 C9.25851562,3.20704687 9.12407812,3.29817187 8.84395312,3.38067187 C8.9671875,3.14029687 9.08765625,3.04654687 9.15375,3.03323437 Z M7.97775,5.59307812 C7.77989062,5.5288125 7.57832812,5.42685938 7.43873437,5.26542187 C7.28535937,5.088 7.2286875,4.86360937 7.26585937,4.5796875 C7.27148438,4.56478125 7.2841875,4.53534375 7.30645312,4.49714062 C7.58067188,4.47201562 8.31323438,4.58010938 8.364,4.78992188 C8.13801562,4.90528125 7.97160937,5.06746875 7.95234375,5.298 C7.94278125,5.41354687 7.95454687,5.51146875 7.97775,5.59307812 Z" id="Shape"></path>
                    <path d="M12.1284375,1.16315625 L11.9337188,0.578953125 C11.9023594,0.485015625 11.8048594,0.42890625 11.7082969,0.4501875 C11.6112188,0.47090625 11.5453125,0.561234375 11.5552031,0.659953125 C11.6895469,2.00367187 11.9437031,4.62417187 11.9437031,4.92464062 C11.9437031,5.1945 11.4637031,5.72582812 10.6882031,6.11357812 C10.5919688,6.16167187 10.5530156,6.278625 10.6011094,6.37485937 C10.6352344,6.44310937 10.704,6.48248437 10.7754844,6.48248437 C10.8046875,6.48248437 10.8344531,6.47582812 10.8623906,6.46195312 C11.5707656,6.10767187 12.3331406,5.4755625 12.3331406,4.92464062 C12.3331406,4.63692187 12.1341094,2.56678125 12.0201094,1.40390625 C12.1125469,1.36453125 12.1607344,1.26014062 12.1284375,1.16315625 Z" id="Shape"></path>
                    <path d="M13.7533125,2.92026562 C13.7907656,2.95771875 13.8405937,2.9773125 13.8910781,2.9773125 C13.9239844,2.9773125 13.9571719,2.96892187 13.9873125,2.9518125 C14.0634844,2.90845312 14.1013125,2.8194375 14.07975,2.73445312 C14.044875,2.59753125 14.03325,2.42639062 14.0517187,2.35640625 C14.1492656,2.35945312 14.2397812,2.29003125 14.2541719,2.1894375 C14.2694062,2.0829375 14.1953906,1.98426562 14.0890312,1.96903125 C13.9603125,1.95154687 13.84725,1.989375 13.7682187,2.07721875 C13.7170781,2.13426562 13.6866562,2.20748437 13.6701094,2.28623437 L13.4445937,2.06071875 C13.3685156,1.98464062 13.2452812,1.98464062 13.16925,2.06071875 C13.0931719,2.13679687 13.0931719,2.26003125 13.16925,2.3360625 L13.7533125,2.92026562 Z" id="Shape"></path>
                    <path d="M14.1913594,3.123375 L13.4611406,3.64673437 C13.3737656,3.7093125 13.3536094,3.831 13.4162813,3.91846875 C13.4542969,3.97153125 13.5141094,3.99965625 13.5747656,3.99965625 C13.6140469,3.99965625 13.6537031,3.98784375 13.6880156,3.96314062 L14.4182344,3.43978125 C14.5056094,3.37720312 14.5257656,3.25551562 14.4630938,3.16804687 C14.4003281,3.08057812 14.2784531,3.06023437 14.1913594,3.123375 Z" id="Shape"></path>
                    <path d="M14.148706,3.85570313 C14.0545803,3.93464063 14.0679856,4.0456875 14.1748681,4.1139375 C14.1876968,4.128 14.246075,4.20257813 14.2355525,4.39425 C14.2297147,4.501875 14.3589393,4.59201563 14.5241278,4.5958125 C14.5278035,4.596 14.531407,4.596 14.5349386,4.596 C14.6954424,4.596 14.8281985,4.51326563 14.8340363,4.4083125 C14.855802,4.01085938 14.6558029,3.86559375 14.5688123,3.82167188 C14.4386507,3.75529688 14.250183,3.77090625 14.148706,3.85570313 Z" id="Shape"></path>
                    <path d="M15.826125,5.28975 C15.9336562,5.28975 16.0208437,5.20265625 16.0208437,5.09503125 C16.0208437,4.8076875 16.0060781,4.48696875 15.9819375,4.15326562 C16.1750156,4.46967187 16.3354219,4.761375 16.4382656,5.00128125 C16.4698125,5.07525 16.5417187,5.11935937 16.6173281,5.11935937 C16.6429219,5.11935937 16.6689375,5.1144375 16.6939687,5.1035625 C16.7927812,5.06114062 16.8385781,4.94667187 16.7962031,4.848 C16.6179375,4.4319375 16.28475,3.88082812 15.9052969,3.31185937 C15.8288906,2.59710937 15.7291406,1.89679687 15.6516094,1.39439062 C15.6928594,1.3985625 15.7356562,1.38848437 15.7732031,1.36415625 C15.8347031,1.32473437 15.8635781,1.25634375 15.8594062,1.18823437 C15.8644219,1.20735937 15.8697656,1.22657812 15.8809219,1.24415625 C15.8822344,1.24607812 16.0073906,1.45275 15.9518437,1.72092187 C15.9300469,1.8260625 15.9977812,1.92914062 16.1031094,1.95103125 C16.1164219,1.95370312 16.1297344,1.95501562 16.1427656,1.95501562 C16.2331875,1.95501562 16.3141875,1.8916875 16.3333125,1.79967187 C16.42125,1.37428125 16.2181875,1.0486875 16.2095156,1.035 C16.1517187,0.944484375 16.0313437,0.917859375 15.9406406,0.97528125 C15.8789062,1.01465625 15.8497031,1.08314062 15.8536875,1.15134375 C15.848625,1.13207812 15.8430937,1.11271875 15.83175,1.09504687 L15.5031562,0.583875 C15.4529531,0.505921875 15.35475,0.474328125 15.2685,0.507796875 C15.1820625,0.541640625 15.1314844,0.63159375 15.1475625,0.722859375 C15.1502812,0.7381875 15.2991094,1.59271875 15.4309687,2.62265625 C15.2816719,2.4118125 15.132375,2.20570312 14.987625,2.00901562 C14.9640937,1.71440625 14.9405156,1.44201562 14.9200781,1.21678125 C14.9308125,1.21354687 14.9413594,1.209375 14.9517187,1.20421875 C15.0479531,1.156125 15.0869062,1.03917187 15.0388125,0.9429375 L14.8440937,0.553453125 C14.8020469,0.46940625 14.7061406,0.427546875 14.6158125,0.453421875 C14.5255781,0.479671875 14.4667969,0.566390625 14.476125,0.659953125 C14.499375,0.892359375 14.5235156,1.14960937 14.5472812,1.41984375 C14.4240937,1.25746875 14.3101406,1.108875 14.2126406,0.9830625 C14.2316719,0.966703125 14.2479375,0.946359375 14.2598906,0.92240625 C14.3079844,0.826171875 14.2690312,0.70921875 14.1727969,0.661125 L13.7833125,0.46640625 C13.7016562,0.42571875 13.6024687,0.447 13.5447656,0.518109375 C13.4873437,0.58921875 13.4870625,0.690796875 13.5442031,0.76228125 C13.5547031,0.775359375 14.0341875,1.37639062 14.6077031,2.15217187 C14.7071719,3.43879687 14.7734062,4.77717187 14.6798437,5.05776562 C14.6627344,5.10909375 14.632875,5.1695625 14.6048437,5.17167187 C14.4871406,5.18803125 14.2062656,4.92482812 14.0651719,4.64282812 C13.9838906,4.48040625 13.8669375,4.46348437 13.8043594,4.46634375 C13.5950625,4.47928125 13.5134062,4.70957812 13.365,5.1275625 C13.2585937,5.42709375 13.1264531,5.79942187 12.978,5.95176562 C12.8976094,5.85351562 12.7936406,5.52384375 12.7358437,5.18507812 C12.7629844,5.25998437 12.8330625,5.314125 12.9173437,5.314125 C13.024875,5.314125 13.1120625,5.22703125 13.1120625,5.11940625 C13.1120625,4.82901562 12.9089531,2.61740625 12.7955156,1.40526562 C12.8902031,1.36725 12.9400312,1.2613125 12.9073125,1.16320312 L12.7125937,0.579 C12.6813281,0.4850625 12.5851875,0.429703125 12.4875469,0.450046875 C12.3906562,0.470578125 12.3245625,0.56053125 12.3339844,0.6590625 C12.4663125,2.04825 12.7144687,4.73146875 12.7222031,5.10178125 C12.7217344,5.09845312 12.7210312,5.09517187 12.7205625,5.09184375 C12.7054219,4.98534375 12.6060937,4.9123125 12.50025,4.92660937 C12.39375,4.94203125 12.319875,5.04051562 12.3351094,5.14701562 C12.3919687,5.54503125 12.5372344,6.22945312 12.8719687,6.340875 C12.8984062,6.34982812 12.9339844,6.35779688 12.9757031,6.35779688 C13.0524375,6.35779688 13.1499844,6.33060937 13.2497344,6.23076562 C13.4618437,6.01875 13.6053281,5.61445312 13.7319844,5.257875 C13.760625,5.17725 13.7944687,5.08176562 13.8263906,5.00001562 C14.0050312,5.26092187 14.31675,5.58571875 14.6325,5.56026562 C14.7435469,5.55229687 14.9455312,5.49257812 15.0493594,5.18109375 C15.1529062,4.87045312 15.1119844,3.78707812 15.0421875,2.74992187 C15.20625,2.97989062 15.3704531,3.21529687 15.5271562,3.44789062 C15.5879062,4.03101562 15.6313594,4.61526562 15.6313594,5.095125 C15.6313594,5.20265625 15.7185469,5.28975 15.826125,5.28975 Z" id="Shape"></path>
                    <path d="M17.3039063,4.26553125 C17.1659531,3.23789062 16.9737656,2.04745312 16.8520781,1.3168125 C16.9070156,1.3303125 16.9669219,1.31929687 17.01525,1.28221875 C17.1008438,1.21696875 17.1171563,1.09471875 17.0519531,1.0093125 L16.6989844,0.54684375 C16.6445156,0.475734375 16.5484688,0.450609375 16.4662031,0.4865625 C16.3839375,0.522515625 16.3369688,0.609984375 16.3522969,0.698390625 C16.3558125,0.718359375 16.7030625,2.71739062 16.9178438,4.31723437 C16.9999219,4.928625 16.8801094,5.47495312 16.5972188,5.77846875 C16.4154375,5.973375 16.1745,6.06164062 15.8829375,6.04471875 C15.775875,6.039 15.6830625,6.119625 15.6763125,6.22692187 C15.6695625,6.33417187 15.7510313,6.42660937 15.858375,6.43345312 C15.8912813,6.4355625 15.9237188,6.4365 15.9558281,6.4365 C16.3230469,6.4365 16.64175,6.301875 16.8820313,6.04401562 C17.2490156,5.6503125 17.4027656,5.00203125 17.3039063,4.26553125 Z" id="Shape"></path>
                    <path d="M15.1925454,5.54915625 C15.0797666,5.62692187 15.0884078,5.74940625 15.207686,5.8228125 C15.2243037,5.83307812 15.2442449,5.85323437 15.2443926,5.863125 C15.2445403,5.86865625 15.2321325,5.88501562 15.1979369,5.90667187 C15.0780679,5.98275 15.0780679,6.10598437 15.1979369,6.18201562 C15.2578345,6.22003125 15.3363439,6.2390625 15.4148533,6.2390625 C15.4933627,6.2390625 15.5718721,6.22003125 15.6317697,6.18201562 C15.8263814,6.05859375 15.8620541,5.93329687 15.8576966,5.8498125 C15.8482429,5.67009375 15.6554776,5.554125 15.6169245,5.53260937 C15.4917379,5.463375 15.3051765,5.47171875 15.1925454,5.54915625 Z" id="Shape"></path>
                    <path d="M14.4751875,9.81965625 L14.2804688,9.81965625 L13.1120625,9.81965625 L13.1120625,9.6249375 C13.1120625,9.5173125 13.024875,9.43021875 12.9173438,9.43021875 C12.8098125,9.43021875 12.722625,9.5173125 12.722625,9.6249375 L12.722625,9.81965625 L2.401875,9.81965625 C2.7913125,10.2091406 3.57023438,10.4038594 4.1544375,10.4038594 C4.57340625,10.4038594 9.7996875,10.4038594 12.7225781,10.4038594 L12.7225781,10.7933438 C12.7225781,10.9009688 12.8097656,10.9880625 12.9172969,10.9880625 L14.4751406,10.9880625 C14.7972656,10.9880625 15.0593438,10.7260313 15.0593438,10.4038594 C15.0593438,10.0817344 14.7973125,9.81965625 14.4751875,9.81965625 Z M14.4751875,10.5985781 L13.1120625,10.5985781 L13.1120625,10.4038594 C14.0505,10.4038594 14.6699062,10.4038594 14.6699062,10.4038594 L14.6349844,10.2990469 C14.6552344,10.32975 14.6699062,10.3643906 14.6699062,10.4038594 C14.6699062,10.5112969 14.5825312,10.5985781 14.4751875,10.5985781 Z" id="Shape"></path>
                </g>
                <circle id="Oval" stroke="#FFFFFF" cx="12" cy="12" r="11.5"></circle>
            </g>
        </g>
    </g>
</svg>