<svg xmlns="http://www.w3.org/2000/svg" width="24" height="24" viewBox="0 0 24 24">
  <g fill="none" fill-rule="evenodd">
    <circle cx="12" cy="12" r="11.8" fill="#0089E9"/>
    <path fill="#A8EF84" d="M12.535752,8.12990381 C13.435752,8.22990381 12.635752,8.32990381 13.135752,8.72990381 C13.235752,8.52990381 13.835752,9.12990381 13.535752,9.22990381 C13.635752,9.22990381 13.935752,9.22990381 13.735752,9.32990381 C13.935752,9.32990381 13.835752,9.72990381 13.935752,9.52990381 C13.935752,9.22990381 14.335752,9.52990381 14.135752,9.62990381 C14.235752,10.1299038 14.735752,9.32990381 14.535752,9.32990381 C14.535752,8.92990381 15.435752,9.52990381 14.935752,9.52990381 C15.235752,10.4299038 14.135752,9.72990381 14.435752,10.0299038 C12.935752,10.4299038 15.435752,10.0299038 13.635752,10.6299038 C12.735752,11.6299038 13.735752,12.2299038 14.835752,12.3299038 C15.135752,12.6299038 15.035752,13.1299038 15.335752,13.1299038 C15.835752,12.7299038 15.235752,10.8299038 15.935752,10.9299038 C16.535752,10.8299038 17.035752,11.3299038 16.835752,11.6299038 C16.635752,11.7299038 17.335752,11.5299038 16.935752,11.8299038 C17.035752,11.8299038 17.135752,11.6299038 17.035752,11.8299038 C17.135752,11.7299038 17.135752,11.7299038 17.135752,11.8299038 C17.535752,11.6299038 17.335752,11.6299038 17.535752,11.4299038 C17.235752,10.9299038 17.935752,11.5299038 17.835752,11.6299038 C18.035752,11.5299038 17.935752,11.7299038 17.935752,11.7299038 C18.035752,11.6299038 18.235752,12.1299038 18.035752,12.0299038 C18.235752,12.2299038 19.135752,12.5299038 18.235752,12.6299038 C18.435752,12.7299038 18.835752,12.4299038 18.735752,12.6299038 C19.535752,13.1299038 17.235752,13.3299038 16.835752,13.5299038 C16.835752,13.5299038 17.035752,13.5299038 16.935752,13.6299038 C16.535752,14.1299038 17.435752,13.1299038 17.735752,13.4299038 C17.235752,13.8299038 18.535752,14.0299038 18.035752,14.2299038 C16.635752,14.8299038 18.635752,13.6299038 17.035752,14.4299038 C16.735752,14.9299038 17.035752,14.7299038 16.435752,14.9299038 C16.535752,15.1299038 16.135752,15.3299038 16.235752,15.1299038 C16.235752,15.0299038 16.135752,15.8299038 16.135752,15.4299038 C15.935752,14.9299038 16.135752,15.6299038 15.935752,15.3299038 C15.935752,15.5299038 16.335752,15.6299038 16.035752,15.8299038 C16.235752,15.8299038 16.235752,15.9299038 16.035752,15.9299038 C15.035752,16.5299038 15.835752,17.7299038 15.335752,17.2299038 C14.835752,16.1299038 14.235752,16.9299038 13.435752,16.8299038 C11.935752,19.7299038 14.835752,17.6299038 14.535752,18.3299038 C13.935752,19.3299038 15.435752,18.5299038 15.035752,19.4299038 C15.535752,20.5299038 11.235752,17.8299038 10.835752,16.6299038 C10.435752,16.6299038 12.235752,18.7299038 11.135752,17.5299038 C10.935752,17.1299038 9.73575204,16.0299038 9.83575204,15.6299038 C9.13575204,15.8299038 9.43575204,13.2299038 9.63575204,14.0299038 C9.53575204,13.7299038 9.13575204,13.2299038 8.83575204,13.3299038 C8.93575204,13.3299038 8.93575204,13.3299038 8.83575204,13.3299038 C8.93575204,13.2299038 8.53575204,13.3299038 8.83575204,13.3299038 C8.53575204,13.3299038 9.03575204,13.1299038 8.73575204,13.1299038 C8.83575204,13.1299038 8.53575204,12.8299038 8.73575204,12.9299038 C8.63575204,12.9299038 8.43575204,12.7299038 8.53575204,12.7299038 C8.43575204,12.7299038 8.73575204,12.4299038 8.53575204,12.6299038 C8.43575204,12.6299038 8.13575204,12.2299038 7.83575204,11.7299038 C8.03575204,12.2299038 7.63575204,11.6299038 7.63575204,11.8299038 C8.13575204,12.2299038 6.73575204,11.4299038 7.03575204,11.4299038 C7.03575204,11.3299038 6.73575204,11.5299038 6.73575204,11.4299038 C5.73575204,11.0299038 4.73575204,12.0299038 5.53575204,11.2299038 C5.13575204,11.2299038 4.43575204,12.5299038 3.73575204,12.4299038 C3.93575204,12.3299038 4.93575204,11.8299038 4.43575204,11.6299038 C4.23575204,11.8299038 4.23575204,11.4299038 3.93575204,11.7299038 C3.73575204,11.5299038 4.03575204,11.2299038 3.73575204,11.5299038 C3.03575204,11.3299038 4.13575204,11.3299038 3.53575204,11.3299038 C3.03575204,11.0299038 4.23575204,10.9299038 4.13575204,10.6299038 C3.53575204,10.7299038 2.53575204,9.82990381 3.83575204,10.1299038 C4.23575204,10.1299038 3.73575204,9.92990381 3.93575204,9.92990381 C4.23575204,10.0299038 4.23575204,9.92990381 3.93575204,9.92990381 C2.93575204,9.72990381 3.43575204,9.12990381 4.13575204,9.12990381 C4.33575204,8.32990381 7.23575204,9.42990381 7.53575204,9.32990381 C8.33575204,9.12990381 8.53575204,9.02990381 10.435752,9.52990381 C10.735752,9.62990381 10.035752,9.72990381 10.735752,9.72990381 C11.435752,9.52990381 11.735752,10.4299038 11.435752,9.62990381 C11.635752,9.62990381 11.835752,9.32990381 11.635752,9.52990381 C11.035752,9.52990381 11.835752,9.32990381 12.135752,9.62990381 C13.035752,9.92990381 12.735752,9.42990381 13.135752,9.62990381 C13.035752,9.82990381 13.335752,10.0299038 13.235752,9.62990381 C13.335752,9.52990381 13.735752,9.22990381 13.435752,9.42990381 C13.235752,9.32990381 13.635752,9.32990381 13.335752,9.32990381 C13.035752,9.32990381 11.435752,8.52990381 12.535752,8.62990381 C12.635752,8.52990381 12.135752,8.32990381 12.535752,8.42990381 C12.235752,8.12990381 12.635752,8.22990381 12.535752,8.12990381 Z M16.335752,18.3299038 C17.235752,18.6299038 17.135752,18.7299038 16.635752,19.3299038 C15.535752,18.5299038 16.635752,19.6299038 16.335752,18.3299038 Z M15.135752,17.7299038 C15.735752,17.8299038 16.435752,18.6299038 15.735752,18.2299038 C15.335752,17.7299038 14.035752,18.0299038 15.135752,17.7299038 Z M14.735752,14.0299038 C13.935752,14.1299038 14.235752,15.5299038 14.535752,14.2299038 C14.935752,13.9299038 14.935752,14.9299038 15.135752,14.2299038 C15.035752,14.1299038 15.135752,14.3299038 15.235752,14.3299038 C15.635752,14.2299038 14.835752,14.0299038 14.735752,14.0299038 Z M14.135752,13.5299038 C14.035752,13.5299038 14.035752,13.6299038 14.035752,13.6299038 C12.835752,14.1299038 15.735752,14.1299038 14.135752,13.5299038 Z M11.035752,10.8299038 C11.035752,10.8299038 10.935752,10.9299038 11.035752,10.8299038 C10.735752,11.1299038 10.135752,10.6299038 10.535752,11.0299038 C9.33575204,11.8299038 11.635752,10.6299038 11.035752,10.8299038 Z M13.135752,7.22990381 C14.335752,7.32990381 13.435752,7.92990381 14.635752,7.72990381 C15.635752,7.42990381 15.235752,8.12990381 15.235752,8.42990381 C15.335752,8.32990381 15.135752,8.52990381 15.235752,8.52990381 C15.335752,8.52990381 15.535752,8.32990381 15.435752,8.52990381 C15.535752,8.42990381 15.535752,8.52990381 15.535752,8.52990381 C15.235752,8.22990381 16.335752,8.32990381 15.835752,8.52990381 C15.935752,8.42990381 16.335752,8.42990381 16.035752,8.62990381 C16.135752,8.62990381 16.735752,8.52990381 16.435752,8.82990381 C16.735752,8.62990381 16.535752,8.82990381 16.535752,8.82990381 C16.535752,8.82990381 17.235752,8.72990381 16.735752,8.92990381 C16.635752,8.92990381 17.135752,8.82990381 16.835752,9.02990381 C17.135752,8.82990381 17.335752,9.02990381 16.935752,9.12990381 C17.335752,9.12990381 17.335752,9.22990381 16.935752,9.22990381 C17.235752,9.32990381 16.635752,9.32990381 17.035752,9.32990381 C16.935752,9.32990381 17.435752,9.42990381 17.135752,9.42990381 C17.035752,9.42990381 17.235752,9.42990381 17.135752,9.52990381 C17.135752,9.42990381 17.335752,9.52990381 17.235752,9.62990381 C17.335752,9.52990381 17.735752,9.72990381 17.535752,9.72990381 C17.435752,9.72990381 17.735752,9.62990381 17.735752,9.72990381 C17.535752,9.82990381 18.235752,9.82990381 17.935752,9.92990381 C18.035752,10.0299038 17.635752,10.0299038 17.835752,10.1299038 C17.335752,10.5299038 17.435752,10.0299038 17.035752,9.92990381 C17.135752,10.0299038 16.935752,9.92990381 17.035752,9.92990381 C17.235752,10.1299038 16.835752,9.92990381 17.035752,10.1299038 C17.235752,10.1299038 17.735752,10.8299038 17.435752,10.5299038 C17.735752,11.1299038 16.235752,10.1299038 17.335752,10.9299038 C16.635752,10.9299038 16.335752,10.3299038 16.235752,10.4299038 C15.635752,10.7299038 15.635752,9.92990381 16.035752,10.3299038 C16.135752,9.92990381 17.135752,10.1299038 16.635752,9.82990381 C16.135752,9.72990381 15.935752,8.92990381 14.935752,9.12990381 C14.835752,9.42990381 13.535752,9.12990381 14.135752,8.22990381 C13.435752,8.72990381 13.835752,7.62990381 13.335752,7.62990381 C13.135752,7.72990381 12.735752,7.22990381 13.135752,7.22990381 Z M9.53575204,9.92990381 C8.63575204,10.2299038 9.33575204,9.92990381 9.43575204,10.1299038 C9.03575204,10.5299038 9.53575204,10.3299038 10.035752,10.2299038 C10.235752,9.92990381 9.93575204,10.2299038 9.73575204,10.1299038 C9.73575204,9.92990381 9.93575204,9.82990381 9.53575204,9.92990381 Z M11.435752,8.32990381 C11.635752,8.42990381 12.535752,9.42990381 12.235752,9.22990381 C11.835752,9.32990381 12.135752,9.22990381 12.235752,9.32990381 C11.935752,9.62990381 9.03575204,9.32990381 10.835752,9.12990381 C9.33575204,9.22990381 9.83575204,7.82990381 10.835752,8.62990381 C10.935752,8.62990381 11.135752,8.62990381 11.035752,8.52990381 C10.935752,8.12990381 11.535752,8.92990381 11.435752,8.62990381 C11.335752,8.52990381 11.335752,8.32990381 11.435752,8.32990381 Z M15.835752,5.32990381 C16.935752,5.22990381 19.135752,5.72990381 16.835752,5.82990381 C17.435752,5.92990381 16.835752,5.82990381 16.735752,6.02990381 C18.135752,5.52990381 16.635752,6.42990381 16.435752,6.32990381 C16.935752,6.32990381 16.235752,6.42990381 16.035752,6.42990381 C16.535752,6.52990381 15.735752,6.62990381 15.635752,6.52990381 C16.035752,6.62990381 16.135752,6.62990381 15.535752,6.62990381 C15.835752,6.62990381 15.635752,6.62990381 15.535752,6.72990381 C15.735752,6.62990381 16.235752,6.82990381 15.735752,6.82990381 C15.535752,6.82990381 15.935752,6.82990381 15.835752,6.92990381 C15.835752,7.02990381 15.035752,7.22990381 15.035752,7.22990381 C15.935752,7.32990381 15.135752,7.72990381 14.635752,7.42990381 C14.335752,7.52990381 13.635752,7.42990381 14.335752,7.12990381 C13.935752,6.92990381 14.535752,7.02990381 14.635752,7.12990381 C14.835752,7.22990381 15.035752,6.82990381 14.935752,6.92990381 C14.535752,7.32990381 14.635752,6.82990381 14.735752,6.82990381 C14.735752,6.72990381 14.135752,7.12990381 14.335752,6.72990381 C14.535752,6.52990381 15.035752,6.82990381 14.935752,6.62990381 C15.535752,6.62990381 14.335752,6.52990381 14.835752,6.52990381 C13.935752,5.82990381 15.035752,6.22990381 15.335752,6.32990381 C14.735752,6.12990381 15.235752,6.12990381 15.635752,6.02990381 C15.235752,6.02990381 15.735752,5.92990381 15.835752,5.92990381 C15.735752,5.92990381 15.335752,5.92990381 15.735752,5.72990381 C15.635752,5.72990381 14.835752,6.32990381 15.035752,5.92990381 C15.235752,5.82990381 14.735752,6.02990381 14.935752,5.92990381 C14.435752,6.22990381 14.335752,5.82990381 15.035752,5.82990381 C14.935752,5.82990381 13.835752,6.12990381 14.335752,5.82990381 C14.435752,5.82990381 14.935752,5.72990381 14.535752,5.72990381 C14.035752,5.92990381 13.835752,5.62990381 14.335752,5.62990381 C13.335752,5.72990381 14.335752,5.22990381 15.135752,5.52990381 C15.835752,5.62990381 14.535752,5.32990381 15.035752,5.32990381 C15.435752,5.02990381 15.235752,5.32990381 15.535752,5.42990381 C16.135752,5.62990381 15.535752,5.42990381 15.835752,5.32990381 Z M13.435752,5.92990381 C15.235752,6.42990381 14.135752,7.22990381 13.335752,6.72990381 C13.235752,6.62990381 14.135752,6.62990381 13.635752,6.62990381 C13.735752,6.62990381 12.535752,6.52990381 13.235752,6.32990381 C12.735752,6.32990381 13.035752,6.22990381 13.135752,6.12990381 C12.935752,6.12990381 13.035752,6.02990381 13.135752,6.02990381 C13.635752,6.02990381 13.135752,5.92990381 13.435752,5.92990381 Z"/>
    <path fill="#FFF" fill-rule="nonzero" d="M12,0 C5.372583,0 0,5.372583 0,12 C0,18.627417 5.372583,24 12,24 C18.627417,24 24,18.627417 24,12 C24,5.372583 18.627417,0 12,0 Z M12,0.96 C18.0972236,0.96 23.04,5.90277636 23.04,12 C23.04,18.0972236 18.0972236,23.04 12,23.04 C5.90277636,23.04 0.96,18.0972236 0.96,12 C0.96,5.90277636 5.90277636,0.96 12,0.96 Z"/>
  </g>
</svg>
