<svg width="24" height="24" viewBox="0 0 24 24" fill="none" xmlns="http://www.w3.org/2000/svg">
<g clip-path="url(#clip0)">
<path d="M12.02 24C18.6474 24 24.02 18.6274 24.02 12C24.02 5.37258 18.6474 0 12.02 0C5.39257 0 0.019989 5.37258 0.019989 12C0.019989 18.6274 5.39257 24 12.02 24Z" fill="#503F32"/>
<path fill-rule="evenodd" clip-rule="evenodd" d="M16.99 18.46C16.67 18.19 16.33 17.96 15.94 17.8C15.63 17.67 15.31 17.53 14.99 17.43C14.66 17.33 14.31 17.27 13.97 17.19C13.94 17.18 13.92 17.17 13.87 17.14C13.93 17.09 13.98 17.04 14.03 17.01C14.23 16.9 14.43 16.81 14.62 16.68C15.26 16.27 15.72 15.71 16.02 15.02C16.05 14.96 16.1 14.91 16.14 14.86C16.15 14.86 16.17 14.87 16.18 14.87C16.19 14.92 16.2 14.96 16.21 15.01C16.26 15.23 16.29 15.45 16.35 15.66C16.5 16.18 16.67 16.69 16.93 17.16C17.13 17.53 17.36 17.88 17.67 18.17C17.74 18.23 17.85 18.26 17.95 18.26C18.07 18.26 18.15 18.17 18.19 18.06C18.23 17.94 18.2 17.83 18.11 17.73C17.6 17.2 17.29 16.56 17.06 15.87C16.85 15.23 16.73 14.58 16.66 13.91C16.61 13.41 16.6 12.91 16.58 12.42C16.55 11.82 16.49 11.23 16.33 10.65C16.29 10.49 16.22 10.34 16.17 10.19C17.33 9.82999 18.18 8.76999 18.18 7.48999C18.18 5.91999 16.91 4.64999 15.34 4.64999C14.24 4.64999 13.29 5.27999 12.82 6.19999C12.68 6.11999 12.55 6.01999 12.4 5.94999C11.91 5.69999 11.4 5.50999 10.87 5.38999C10.41 5.28999 9.94002 5.21999 9.46002 5.26999C9.14002 5.28999 8.81002 5.31999 8.49002 5.39999C8.07001 5.49999 7.66002 5.63999 7.29002 5.86999C6.98002 6.05999 6.67002 6.24999 6.39002 6.46999C5.91002 6.82999 5.51002 7.27999 5.17002 7.77999C4.94002 8.12999 4.74002 8.48999 4.61002 8.88999C4.50002 9.21999 4.42002 9.55999 4.35002 9.89999C4.22002 10.57 4.28002 11.23 4.42002 11.89C4.52002 12.36 4.67002 12.83 4.91002 13.26C5.12002 13.65 5.34002 14.05 5.60002 14.41C5.90002 14.82 6.25002 15.21 6.60002 15.58C6.98002 15.98 7.41002 16.31 7.89002 16.58C8.26002 16.78 8.66002 16.95 9.04002 17.13C9.46002 17.32 9.92002 17.42 10.37 17.49C10.78 17.55 11.21 17.58 11.63 17.59C12.46 17.61 13.28 17.68 14.09 17.85C14.29 17.89 14.49 17.95 14.68 18.01C14.91 18.08 15.15 18.15 15.36 18.25C15.67 18.39 15.98 18.56 16.27 18.73C16.45 18.84 16.6 18.99 16.76 19.13C16.89 19.24 17.08 19.23 17.2 19.1C17.31 18.99 17.3 18.79 17.19 18.68C17.13 18.59 17.06 18.52 16.99 18.46ZM11.13 16.93C10.88 16.89 10.46 16.85 10.06 16.77C9.77002 16.71 9.49002 16.61 9.21002 16.51C8.95002 16.41 8.70002 16.29 8.45002 16.16C7.99002 15.93 7.58002 15.63 7.21002 15.28C6.75002 14.85 6.34001 14.38 5.99002 13.86C5.66001 13.38 5.39002 12.87 5.20002 12.32C4.98002 11.69 4.87002 11.04 4.92002 10.38C4.95002 9.95999 5.04002 9.53999 5.19002 9.13999C5.49002 8.31999 6.00002 7.64999 6.65002 7.06999C7.02002 6.73999 7.44002 6.46999 7.89002 6.25999C8.58002 5.94999 9.30002 5.81999 10.05 5.86999C10.48 5.89999 10.9 5.99999 11.31 6.13999C11.77 6.29999 12.21 6.50999 12.62 6.76999C12.56 6.99999 12.52 7.22999 12.52 7.47999C12.52 7.93999 12.64 8.36999 12.84 8.74999L12.21 9.37999L10.63 7.79999L11.18 7.24999C11.28 7.14999 11.28 6.98999 11.18 6.89999C11.08 6.80999 10.92 6.79999 10.83 6.89999L10.28 7.44999L9.64002 6.81999C9.54002 6.71999 9.38002 6.71999 9.29002 6.81999C9.20002 6.91999 9.19002 7.07999 9.29002 7.16999L9.93002 7.80999L8.55002 9.16999L7.20002 7.81999C7.10002 7.71999 6.94002 7.71999 6.85002 7.81999C6.76002 7.91999 6.75002 8.07999 6.85002 8.16999L8.20002 9.52999L6.83002 10.9L6.11002 10.19C6.01002 10.09 5.85002 10.09 5.76002 10.19C5.67002 10.29 5.66002 10.45 5.76002 10.54L6.48002 11.25L5.93002 11.8C5.83002 11.9 5.83002 12.06 5.93002 12.15C5.98002 12.2 6.04002 12.22 6.11002 12.22C6.18002 12.22 6.24002 12.2 6.29002 12.15L6.83002 11.61L8.40001 13.18L7.49002 14.09C7.39002 14.19 7.39002 14.35 7.49002 14.44C7.54001 14.49 7.60002 14.51 7.67002 14.51C7.73002 14.51 7.80002 14.49 7.85002 14.44L8.76002 13.53L10.33 15.1L9.81002 15.6C9.71002 15.7 9.71002 15.86 9.81002 15.95C9.86002 16 9.92001 16.02 9.99002 16.02C10.06 16.02 10.12 16 10.17 15.95L10.68 15.44L11.19 15.95C11.24 16 11.3 16.02 11.37 16.02C11.44 16.02 11.5 16 11.55 15.95C11.65 15.85 11.65 15.69 11.55 15.6L11.04 15.09L12.42 13.72L13.89 15.18C13.94 15.23 14 15.25 14.07 15.25C14.13 15.25 14.2 15.23 14.25 15.18C14.35 15.08 14.35 14.92 14.25 14.83L12.79 13.37L14.16 12.01L14.74 12.59C14.79 12.64 14.85 12.66 14.92 12.66C14.98 12.66 15.05 12.64 15.1 12.59C15.2 12.49 15.2 12.33 15.1 12.24L14.52 11.66L15 11.18C15.1 11.08 15.1 10.92 15 10.83C14.9 10.73 14.75 10.73 14.65 10.83L14.17 11.31L12.61 9.74999L13.16 9.20999C13.68 9.88999 14.49 10.34 15.41 10.34C15.48 10.34 15.55 10.32 15.62 10.32C15.67 10.47 15.73 10.62 15.78 10.78C15.93 11.33 16 11.89 16.01 12.46C16.02 12.96 15.97 13.45 15.84 13.93C15.65 14.65 15.32 15.3 14.77 15.82C14.47 16.11 14.12 16.34 13.73 16.52C12.92 16.85 12.11 16.94 11.13 16.93ZM10.13 11.45L8.75002 12.82L7.18002 11.25L8.55002 9.87999L10.13 11.45ZM8.91002 9.52999L10.28 8.15999L11.86 9.73999L10.49 11.1L8.91002 9.52999ZM10.48 11.81L12.05 13.38L10.67 14.75L9.10002 13.17L10.48 11.81ZM10.83 11.45L12.2 10.09L13.76 11.65L12.39 13.01L10.83 11.45Z" fill="#DEBB69"/>
<path fill-rule="evenodd" clip-rule="evenodd" d="M19.02 18.74C18.81 18.53 18.61 18.53 18.4 18.74C18.21 18.93 18.02 19.12 17.82 19.31C17.53 19.59 17.52 19.76 17.82 20.06C18.64 20.88 18.11 20.36 18.93 21.17C19.05 21.29 20.45 20.16 20.32 20.03C19.49 19.2 19.86 19.58 19.02 18.74Z" fill="#DEBB69"/>
<path fill-rule="evenodd" clip-rule="evenodd" d="M17.14 5.27999C17.19 5.31999 17.23 5.34999 17.27 5.38999C18.04 6.08999 18.34 7.11999 18.14 8.06999C17.92 8.07999 17.71 8.10999 17.5 8.16999C17.08 8.28999 16.7 8.50999 16.38 8.81999C16.21 8.98999 16 9.10999 15.77 9.16999C15.54 9.22999 15.3 9.23999 15.07 9.18999C14.83 9.13999 14.62 9.02999 14.45 8.86999C14.28 8.71999 14.15 8.51999 14.07 8.29999C13.99 8.06999 13.96 7.82999 13.98 7.58999C14 7.36999 14.06 7.14999 14.18 6.93999C14.32 6.69999 14.51 6.49999 14.75 6.34999C14.99 6.20999 15.26 6.11999 15.55 6.10999C15.91 6.08999 16.25 5.98999 16.54 5.80999C16.77 5.68999 16.98 5.49999 17.14 5.27999ZM15.41 4.64999C15.78 4.65999 16.14 4.72999 16.47 4.86999L16.48 4.87999C16.61 4.92999 16.73 5.00999 16.85 5.07999C16.72 5.25999 16.55 5.40999 16.36 5.51999C16.12 5.65999 15.83 5.74999 15.54 5.75999C15.19 5.76999 14.86 5.87999 14.57 6.04999C14.28 6.21999 14.04 6.46999 13.88 6.75999C13.74 7.00999 13.66 7.27999 13.64 7.55999C13.62 7.83999 13.66 8.12999 13.75 8.40999C13.84 8.68999 14.01 8.93999 14.23 9.12999C14.45 9.31999 14.71 9.45999 15.01 9.52999C15.31 9.59999 15.61 9.58999 15.89 9.50999C16.17 9.42999 16.44 9.27999 16.65 9.06999C16.92 8.79999 17.26 8.60999 17.62 8.50999C17.75 8.46999 17.89 8.44999 18.03 8.42999C18.01 8.47999 18 8.52999 17.98 8.57999C17.98 8.58999 17.97 8.59999 17.97 8.60999C17.9 8.76999 17.82 8.91999 17.73 9.05999C17.72 9.07999 17.71 9.08999 17.69 9.10999C17.6 9.23999 17.5 9.35999 17.39 9.46999C17.29 9.56999 17.18 9.65999 17.06 9.74999C16.58 10.11 16 10.33 15.36 10.33C13.79 10.33 12.52 9.05999 12.52 7.48999C12.52 7.05999 12.62 6.64999 12.8 6.27999C12.91 6.04999 13.05 5.82999 13.23 5.62999C13.25 5.60999 13.26 5.58999 13.28 5.56999C13.37 5.46999 13.47 5.37999 13.58 5.29999C13.61 5.26999 13.65 5.23999 13.68 5.20999C13.77 5.13999 13.87 5.08999 13.96 5.02999C14.02 4.99999 14.07 4.95999 14.13 4.93999C14.22 4.89999 14.31 4.85999 14.4 4.82999C14.48 4.79999 14.55 4.77999 14.63 4.75999C14.71 4.73999 14.8 4.71999 14.88 4.69999C14.99 4.67999 15.1 4.66999 15.21 4.66999C15.28 4.64999 15.34 4.64999 15.41 4.64999Z" fill="white"/>
<path d="M12.02 1C18.09 1 23.02 5.93 23.02 12C23.02 18.07 18.09 23 12.02 23C5.94999 23 1.01999 18.07 1.01999 12C1.01999 5.93 5.95999 1 12.02 1ZM12.02 0C5.38999 0 0.019989 5.37 0.019989 12C0.019989 18.63 5.38999 24 12.02 24C18.65 24 24.02 18.63 24.02 12C24.02 5.37 18.65 0 12.02 0Z" fill="white"/>
</g>
<defs>
<clipPath id="clip0">
<rect width="24" height="24" fill="white"/>
</clipPath>
</defs>
</svg>
