<?xml version="1.0" encoding="UTF-8"?>
<svg width="24px" height="24px" viewBox="0 0 24 24" version="1.1" xmlns="http://www.w3.org/2000/svg" xmlns:xlink="http://www.w3.org/1999/xlink">
    <!-- Generator: Sketch 55.1 (78136) - https://sketchapp.com -->
    <title>Flags/zimbabwe</title>
    <desc>Created with Sketch.</desc>
    <g id="Icons" stroke="none" stroke-width="1" fill="none" fill-rule="evenodd">
        <g id="Flags/zimbabwe">
            <g id="zimbabwe">
                <path d="M20.3981194,3.4284375 L3.60188056,3.4284375 C5.76621799,1.30762434 8.73040298,0 12,0 C15.269597,0 18.233782,1.30762434 20.3981194,3.4284375 Z" id="Combined-Shape" fill="#73AF00" fill-rule="nonzero"></path>
                <path d="M3.60188056,3.4284375 L20.3981194,3.4284375 C21.4024837,4.41260428 22.2346057,5.57188632 22.8450761,6.85687432 L1.15492041,6.856875 C1.76539427,5.57188632 2.59751627,4.41260428 3.60188056,3.4284375 Z" id="Combined-Shape" fill="#FFE15A" fill-rule="nonzero"></path>
                <path d="M1.15469773,6.85734375 L22.8453023,6.85734375 C23.3515555,7.92308954 23.7053467,9.07529779 23.8784858,10.2857812 L0.121514179,10.2857812 C0.294653303,9.07529779 0.648444486,7.92308954 1.15470117,6.85734308 Z" id="Combined-Shape" fill="#FF4B55" fill-rule="nonzero"></path>
                <path d="M3.60188056,20.5715625 L20.3981194,20.5715625 C18.233782,22.6923757 15.269597,24 12,24 C8.73040298,24 5.76621799,22.6923757 3.60188056,20.5715625 Z" id="Combined-Shape" fill="#73AF00" fill-rule="nonzero"></path>
                <path d="M1.15469773,17.1426562 L22.8453023,17.1426562 C22.234905,18.4276277 21.4028701,19.5869079 20.3985978,20.5710937 L3.60140221,20.5710937 C2.59712994,19.5869079 1.765095,18.4276277 1.15470117,17.1426569 Z" id="Combined-Shape" fill="#FFE15A" fill-rule="nonzero"></path>
                <path d="M0.121514179,13.7142188 L23.8784858,13.7142188 C23.7053467,14.9247022 23.3515555,16.0769105 22.8452988,17.1426569 L1.15469773,17.1426563 C0.648444486,16.0769105 0.294653303,14.9247022 0.121514179,13.7142188 Z" id="Combined-Shape" fill="#FF4B55" fill-rule="nonzero"></path>
                <path d="M23.8784724,13.7143125 L10.8188906,13.7143125 L3.87606403,20.8319432 C1.49311815,18.6388922 0,15.4938143 0,12 C0,8.5061857 1.49311815,5.36110783 3.87606403,3.16805682 L10.8188906,10.2856875 L23.8784724,10.2856875 C23.958561,10.8455869 24,11.4179541 24,12 C24,12.5820459 23.958561,13.1544131 23.8784724,13.7143125 Z" id="Combined-Shape" fill="#464655" fill-rule="nonzero"></path>
                <path d="M3.47114217,3.55851861 L11.43,11.7177188 C11.5831406,11.87475 11.5831406,12.12525 11.43,12.2822344 L3.47113518,20.4414743 C1.32518873,18.2734513 0,15.2914829 0,12 C0,8.70851357 1.32519161,5.72654223 3.47114217,3.55851861 Z" id="Combined-Shape" fill="#F5F5F5" fill-rule="nonzero"></path>
                <polygon id="Shape" fill="#FF4B55" fill-rule="nonzero" points="4.6258125 7.89721875 5.78920313 10.2545156 8.390625 10.6325156 6.50821875 12.4673906 6.95259375 15.0583125 4.6258125 13.8350625 2.29903125 15.0583125 2.74340625 12.4673906 0.861 10.6325156 3.46242187 10.2545156"></polygon>
                <path d="M7.6441875,12.2347031 L4.55245313,9.8413125 C4.19071875,8.993625 3.67654688,8.446875 3.24009375,8.446875 C2.86935938,8.446875 2.68804688,8.7905625 2.6360625,8.997 C2.36896875,9.12065625 2.30634375,9.36675 2.30371875,9.37748437 C2.29940625,9.39515625 2.30348438,9.4138125 2.3146875,9.42815625 C2.3259375,9.44240625 2.34309375,9.45075 2.36128125,9.45075 L2.41659375,9.44976562 C2.66498438,9.44404687 3.07889063,9.433125 3.18473438,10.2223125 C3.25078125,10.7150156 3.15271875,11.597625 2.84090625,12.2629219 C2.62303125,12.7277344 2.69503125,13.1035781 2.69817188,13.1192813 C2.704125,13.149 2.73173438,13.1684063 2.76253125,13.1665781 C2.7673125,13.1661094 2.77884375,13.1656406 2.79342188,13.165125 L3.04354688,14.5793906 C3.0485625,14.6077031 3.07307813,14.6282813 3.10185938,14.6282813 L6.83442188,14.6282813 C6.86175,14.6282813 6.88546875,14.609625 6.89198438,14.5830937 L7.3089375,12.8705156 C7.30907813,12.87 7.30964063,12.8697656 7.30978125,12.86925 C7.31001563,12.8683125 7.30973438,12.867375 7.30996875,12.8664375 L7.4424375,12.3224531 C7.54040625,12.3340313 7.59876563,12.340125 7.60195313,12.3404531 C7.63026563,12.3440625 7.65323438,12.3280313 7.66298438,12.3035156 C7.67273438,12.2789531 7.66509375,12.250875 7.6441875,12.2347031 Z" id="Shape" fill="#FFE15A" fill-rule="nonzero"></path>
                <g id="Group" transform="translate(2.296875, 8.437500)" fill="#464655" fill-rule="nonzero">
                    <path d="M5.3473125,3.79720313 L2.25557813,1.4038125 C1.89384375,0.556125 1.37967188,0.009375 0.94321875,0.009375 C0.572484375,0.009375 0.391171875,0.3530625 0.3391875,0.5595 C0.07209375,0.68315625 0.00946875,0.92925 0.00684375,0.939984375 C0.00253125,0.95765625 0.006609375,0.9763125 0.0178125,0.99065625 C0.0290625,1.00490625 0.04621875,1.01325 0.06440625,1.01325 L0.11971875,1.01226562 C0.368109375,1.00654687 0.782015625,0.995625 0.887859375,1.7848125 C0.95390625,2.27751562 0.85584375,3.160125 0.54403125,3.82542187 C0.32615625,4.29023437 0.39815625,4.66607813 0.401296875,4.68178125 C0.40725,4.7115 0.434859375,4.73090625 0.46565625,4.72907813 C0.4704375,4.72860938 0.48196875,4.72814063 0.496546875,4.727625 L0.746671875,6.14189062 C0.7516875,6.17020312 0.776203125,6.19078125 0.804984375,6.19078125 L4.53754687,6.19078125 C4.564875,6.19078125 4.58859375,6.172125 4.59510937,6.14559375 L5.0120625,4.43301563 C5.01220313,4.4325 5.01276562,4.43226563 5.01290625,4.43175 C5.01314063,4.4308125 5.01285938,4.429875 5.01309375,4.4289375 L5.1455625,3.88495313 C5.24353125,3.89653125 5.30189062,3.902625 5.30507812,3.90295313 C5.33339062,3.9065625 5.35635937,3.89053125 5.36610937,3.86601563 C5.37585938,3.84145313 5.36821875,3.813375 5.3473125,3.79720313 Z M0.651234375,3.87571875 C0.933421875,3.27384375 1.08557813,2.36817187 1.00523437,1.7690625 C0.890671875,0.914671875 0.411140625,0.887859375 0.15215625,0.893015625 C0.188859375,0.821671875 0.265171875,0.7168125 0.41259375,0.65671875 C0.430875,0.6493125 0.444234375,0.63309375 0.44821875,0.613734375 C0.452390625,0.59390625 0.55321875,0.127875 0.943171875,0.127875 C1.32834375,0.127875 1.81434375,0.66496875 2.15254687,1.46423438 C2.15648437,1.47365625 2.1628125,1.4818125 2.17082812,1.488 L5.10703125,3.7610625 C4.58953125,3.69825 3.2371875,3.51196875 2.4361875,3.19635938 C2.01754687,3.03140625 1.92210937,2.78048438 1.837875,2.559 C1.82629687,2.52839063 1.79189062,2.51325 1.76142187,2.5246875 C1.73085937,2.53635938 1.7154375,2.57057813 1.72710937,2.60114063 C1.81082812,2.82117188 1.9254375,3.12257813 2.39278125,3.30670313 C2.48803125,3.34420313 2.59082812,3.37992188 2.69896875,3.4138125 C2.680125,3.47090625 2.5603125,3.76190625 2.02903125,3.95278125 C1.59848437,4.10751562 1.29215625,4.36832812 1.25025,4.603875 C1.09289062,4.60326562 0.9525,4.6035 0.834515625,4.60425 L0.834515625,4.43315625 C0.834515625,4.30326562 0.95971875,4.11501562 1.09223437,3.91575 C1.27692187,3.63801562 1.48621875,3.32329687 1.48621875,3.00135937 C1.48621875,2.96864062 1.4596875,2.94210937 1.42696875,2.94210937 C1.39425,2.94210937 1.36771875,2.96864062 1.36771875,3.00135937 C1.36771875,3.28748437 1.16892187,3.58640625 0.9935625,3.850125 C0.84459375,4.07409375 0.716015625,4.2675 0.716015625,4.43320312 L0.716015625,4.60523437 C0.626578125,4.60617187 0.5565,4.60739062 0.510796875,4.60870312 C0.50025,4.4971875 0.49415625,4.21082812 0.651234375,3.87571875 Z M3.00089063,3.5004375 C2.93235938,3.69089062 2.72948438,3.7554375 2.57901563,3.7760625 C2.74209375,3.63117187 2.79707813,3.49715625 2.81254688,3.44817187 C2.874,3.46617188 2.93704688,3.48351563 3.00089063,3.5004375 Z M3.115125,3.52982812 C3.18032812,3.54614063 3.2461875,3.5619375 3.31260937,3.57721875 C3.25214062,3.70026563 3.09051562,3.76054688 2.91398437,3.7858125 C3.0015,3.73035938 3.07565625,3.64846875 3.115125,3.52982812 Z M4.79010937,4.84382812 C4.18945312,4.65871875 2.45615625,4.61142187 1.36978125,4.60453125 C1.40657812,4.46995312 1.57701562,4.29323437 1.86576562,4.15157812 C1.86871875,4.15204687 1.87139062,4.15335937 1.87448437,4.15335937 C3.49617187,4.159125 4.62492187,4.3996875 4.88348437,4.46020312 L4.79010937,4.84382812 Z M4.71365625,5.15779688 L4.47670312,4.89351563 C4.58967187,4.91315625 4.68585937,4.93509375 4.76198437,4.95932813 L4.71365625,5.15779688 Z M1.64892188,5.19960938 L1.79892188,5.34960938 C1.75270698,5.3492201 1.70722468,5.34876595 1.65997194,5.34844155 C1.65594263,5.3003663 1.65258488,5.24937149 1.64892188,5.19960938 Z M4.64282812,5.44879687 L4.34184375,5.1189375 C4.32201562,5.0971875 4.28925,5.09315625 4.26515625,5.10970313 L3.91167188,5.34632813 L3.64565625,5.0548125 C3.62507813,5.03221875 3.59020312,5.029125 3.565875,5.04778125 L3.24632813,5.29279688 L2.95640625,5.00653125 C2.93465625,4.98501562 2.899875,4.98360938 2.876625,5.00339062 L2.56448438,5.26589062 L2.27203125,4.99457812 C2.24990625,4.97404687 2.21554688,4.97357813 2.19267188,4.9935 L1.8875625,5.26157812 L1.63673438,5.0255625 C1.632375,4.95515625 1.62848438,4.88259375 1.6250625,4.80796875 L1.84959375,5.02842187 C1.87148438,5.05003125 1.9063125,5.05096875 1.92975,5.03104687 L2.24385938,4.76057812 L2.53082813,5.04314062 C2.55248438,5.06442187 2.58689063,5.06582812 2.610375,5.04646875 L2.92551563,4.783875 L3.22790625,5.06878125 C3.2491875,5.08875 3.28176563,5.0904375 3.30459375,5.072625 L3.62090625,4.83009375 L3.88551563,5.13375 C3.90548438,5.15671875 3.93975,5.16065625 3.96459375,5.14303125 L4.31639063,4.89239062 L4.66617187,5.28253125 C4.67034375,5.28717187 4.67559375,5.29003125 4.68070312,5.29303125 L4.64282812,5.44879687 Z M4.4649375,5.42971875 C4.370625,5.4178125 4.23895313,5.40365625 4.0605,5.38926563 L4.28864063,5.23654688 L4.4649375,5.42971875 Z M3.77160937,5.36864062 C3.65264063,5.36114062 3.51928125,5.353875 3.37035937,5.34703125 L3.59484375,5.17490625 L3.77160937,5.36864062 Z M3.12215625,5.33671875 C2.98654687,5.33160938 2.83917187,5.32701563 2.680875,5.3229375 L2.91164062,5.12878125 L3.12215625,5.33671875 Z M2.44589062,5.31745313 C2.30929687,5.31464063 2.164125,5.31229688 2.01145312,5.31046875 L2.23073437,5.1178125 L2.44589062,5.31745313 Z M1.7116875,4.72692188 C1.8346875,4.7285625 1.96275,4.73071875 2.09376563,4.73348438 L1.89379688,4.90570312 L1.7116875,4.72692188 Z M2.3926875,4.74070312 C2.52,4.74426563 2.64867188,4.74848437 2.7770625,4.75335937 L2.57582813,4.92103125 L2.3926875,4.74070312 Z M3.079875,4.76639062 C3.2158125,4.77290625 3.3500625,4.78026562 3.4801875,4.78870312 L3.27257812,4.9479375 L3.079875,4.76639062 Z M3.76007812,4.80928125 C3.90632812,4.8211875 4.04460937,4.83459375 4.17196875,4.84978125 L3.93960938,5.01529688 L3.76007812,4.80928125 Z M0.616359375,4.72514062 C0.794390625,4.7225625 1.1135625,4.7210625 1.50285938,4.72457812 C1.52507813,5.2876875 1.57429688,5.74007812 1.64901562,6.07232813 L0.854625,6.07232813 L0.616359375,4.72514062 Z M4.491,6.07232813 L1.77028125,6.07232813 C1.72870313,5.89415625 1.69495313,5.67773438 1.66917188,5.42573438 C3.65104688,5.43876563 4.40395313,5.53715625 4.59210938,5.56795313 C4.5976875,5.57339063 4.60382813,5.57779687 4.61071875,5.58060937 L4.491,6.07232813 Z M4.91151562,4.34507812 C4.66101562,4.28648437 3.62685937,4.06701562 2.13501562,4.03842188 C2.24015625,3.9965625 2.32973437,3.9511875 2.40529687,3.90426563 C2.44059375,3.90867188 2.54442188,3.92010938 2.67464062,3.92010938 C2.94501562,3.92010938 3.32479687,3.86896875 3.42970312,3.60342188 C4.04545312,3.7381875 4.676625,3.8266875 5.02710937,3.87046875 L4.91151562,4.34507812 Z" id="Shape"></path>
                    <path d="M1.46610938,0.71025 C1.46610938,0.50339028 1.29796909,0.33525 1.09110938,0.33525 C0.884249655,0.33525 0.716109375,0.50339028 0.716109375,0.71025 C0.716109375,0.91710972 0.884249655,1.08525 1.09110938,1.08525 C1.29796909,1.08525 1.46610938,0.91710972 1.46610938,0.71025 Z M1.09110937,0.860232198 C1.00832988,0.860232198 0.941127177,0.793029492 0.941127177,0.71025 C0.941127177,0.627470508 1.00832988,0.560267802 1.09110937,0.560267802 C1.17388887,0.560267802 1.24109157,0.627470508 1.24109157,0.71025 C1.24109157,0.793029492 1.17388887,0.860232198 1.09110937,0.860232198 Z" id="Shape"></path>
                    <path d="M2.74992511,4.20482812 C2.54319086,4.20482812 2.37501563,4.37304396 2.37501563,4.57982812 C2.37501563,4.78661229 2.54319086,4.95482812 2.74992511,4.95482812 C2.95665936,4.95482812 3.12501563,4.78661229 3.12501563,4.57982812 C3.12501563,4.37304396 2.95665936,4.20482812 2.74992511,4.20482812 Z M2.74992511,4.72604372 C2.66936754,4.72604372 2.60383532,4.66049568 2.60383532,4.57982812 C2.60383532,4.49916057 2.66936754,4.43370306 2.74992511,4.43370306 C2.83048268,4.43370306 2.89619593,4.49925111 2.89619593,4.57982812 C2.89619593,4.66040514 2.83057319,4.72604372 2.74992511,4.72604372 Z" id="Shape"></path>
                    <path d="M3.33060614,4.23792188 C3.12387189,4.23792188 2.95551562,4.40627814 2.95551562,4.61301239 C2.95551562,4.81974664 3.12387189,4.98792188 3.33060614,4.98792188 C3.53734039,4.98792188 3.70551562,4.81974664 3.70551562,4.61301239 C3.70551562,4.40627814 3.53734039,4.23792188 3.33060614,4.23792188 Z M3.33060614,4.75910218 C3.25004857,4.75910218 3.18433532,4.69356996 3.18433532,4.61292187 C3.18433532,4.53236431 3.25004857,4.46665106 3.33060614,4.46665106 C3.41116371,4.46665106 3.47669602,4.53236431 3.47669602,4.61292187 C3.47678644,4.69356996 3.41116371,4.75910218 3.33060614,4.75910218 Z" id="Shape"></path>
                </g>
                <circle id="Oval" stroke="#FFFFFF" cx="12" cy="12" r="11.5"></circle>
            </g>
        </g>
    </g>
</svg>