<svg xmlns="http://www.w3.org/2000/svg" width="16" height="14" viewBox="0 0 16 14">
    <g fill="#FFF" fill-rule="evenodd">
        <path d="M1.125 2.25h13.75c.619 0 1.125-.506 1.125-1.125S15.494 0 14.875 0H1.125C.506 0 0 .506 0 1.125S.506 2.25 1.125 2.25M14.875 5.87H1.125C.506 5.87 0 6.376 0 6.995 0 7.613.506 8.12 1.125 8.12h13.75c.619 0 1.125-.507 1.125-1.125 0-.619-.506-1.125-1.125-1.125M14.875 11.75H1.125C.506 11.75 0 12.256 0 12.875S.506 14 1.125 14h13.75c.619 0 1.125-.506 1.125-1.125s-.506-1.125-1.125-1.125"/>
    </g>
</svg>
