<svg xmlns="http://www.w3.org/2000/svg" width="15" height="16" viewBox="0 0 15 16">
    <path fill="#F3B932" fill-rule="evenodd" d="M8.729 10.966v1.214a.73.73 0 0 1-.73.728.73.73 0 0 1-.728-.728v-1.214c-.337-.236-.572-.607-.572-1.048 0-.716.586-1.301 1.3-1.301.717 0 1.301.585 1.301 1.3 0 .442-.235.813-.572 1.049zm-4.017-7.13c0-1.141.913-2.07 2.038-2.07h2.498c1.126 0 2.04.929 2.04 2.07v1.708H4.712V3.837zm8.318 1.708V3.837C13.03 1.72 11.334 0 9.248 0H6.75C4.667 0 2.97 1.72 2.97 3.837v1.707h-.274C1.76 5.544 1 6.304 1 7.24v7.044c0 .937.76 1.697 1.697 1.697h10.607c.938 0 1.696-.76 1.696-1.697V7.24c0-.937-.758-1.697-1.696-1.697h-.274z"/>
</svg>
