<?xml version="1.0" encoding="utf-8"?>
<!-- Generator: Adobe Illustrator 22.1.0, SVG Export Plug-In . SVG Version: 6.00 Build 0)  -->
<svg version="1.1" id="圖層_1" xmlns="http://www.w3.org/2000/svg" xmlns:xlink="http://www.w3.org/1999/xlink" x="0px" y="0px"
	 width="24px" height="58px" viewBox="0 0 24 58" style="enable-background:new 0 0 24 58;" xml:space="preserve">
<style type="text/css">
	.st0{fill:#666666;}
	.st1{fill:#C34235;}
</style>
<g>
	<path class="st0" d="M11.9,43.9c0.3,0,0.6,0,1,0.1l5.9-9.9H17c-0.5,0-0.9,0.2-1.1,0.6l-5.5,9.3C10.9,43.9,11.4,43.8,11.9,43.9
		 M21.8,34h-1.4l-6,10.2c0.8,0.2,1.5,0.4,2.2,0.8l5.9-9.9C22.7,34.5,22.4,34,21.8,34 M10.2,41.2l0.4-0.7c0.3-0.5,0.3-1.1,0-1.6
		l-2.5-4.2C7.9,34.3,7.4,34,6.9,34H5.2l4.3,7.2c0.1,0.2,0.4,0.2,0.5,0.1C10.1,41.3,10.1,41.3,10.2,41.2 M3.7,34H2.1
		c-0.4,0-0.6,0.3-0.6,0.6c0,0.1,0,0.2,0.1,0.3l6.1,10.4l1.7-1.5L3.7,34z"/>
	<path class="st0" d="M12,54.7c-2.4,0-4.4-2-4.4-4.4c0-2.4,2-4.4,4.4-4.4s4.4,2,4.4,4.4C16.4,52.7,14.4,54.7,12,54.7 M12,42.6
		c-4.3,0-7.7,3.5-7.7,7.7S7.7,58,12,58s7.7-3.5,7.7-7.7S16.3,42.6,12,42.6L12,42.6"/>
	<circle class="st0" cx="12" cy="50.2" r="3"/>
</g>
<g>
	<path class="st1" d="M11.9,9.9c0.3,0,0.6,0,1,0.1L18.8,0H17c-0.5,0-0.9,0.2-1.1,0.6l-5.5,9.3C10.9,9.9,11.4,9.8,11.9,9.9 M21.8,0
		h-1.4l-6,10.2c0.8,0.2,1.5,0.4,2.2,0.8L22.4,1C22.7,0.5,22.4,0,21.8,0 M10.2,7.2l0.4-0.7c0.3-0.5,0.3-1.1,0-1.6L8.1,0.7
		C7.9,0.3,7.4,0,6.9,0H5.2l4.3,7.2C9.6,7.4,9.9,7.4,10,7.3C10.1,7.3,10.1,7.3,10.2,7.2 M3.7,0H2.1C1.8,0,1.5,0.3,1.5,0.6
		c0,0.1,0,0.2,0.1,0.3l6.1,10.4l1.7-1.5L3.7,0z"/>
	<path class="st1" d="M12,20.7c-2.4,0-4.4-2-4.4-4.4s2-4.4,4.4-4.4s4.4,2,4.4,4.4S14.4,20.7,12,20.7 M12,8.6c-4.3,0-7.7,3.5-7.7,7.7
		S7.7,24,12,24s7.7-3.5,7.7-7.7S16.3,8.6,12,8.6L12,8.6"/>
	<circle class="st1" cx="12" cy="16.3" r="3"/>
</g>
</svg>
