<?xml version="1.0" encoding="UTF-8"?>
<svg width="32px" height="32px" viewBox="0 0 32 32" version="1.1" xmlns="http://www.w3.org/2000/svg" xmlns:xlink="http://www.w3.org/1999/xlink">
    <!-- Generator: Sketch 55.1 (78136) - https://sketchapp.com -->
    <title>Illustrations/contact_email</title>
    <desc>Created with Sketch.</desc>
    <g id="Icons" stroke="none" stroke-width="1" fill="none" fill-rule="evenodd">
        <g id="Illustrations/contact_email">
            <rect fill="#FFFFFF" x="0" y="0" width="32" height="32"></rect>
            <g id="contact_email">
                <circle id="Oval" fill="#E7DFD9" cx="16" cy="16" r="16"></circle>
                <g id="letter" transform="translate(8.000000, 8.000000)" fill-rule="nonzero">
                    <polygon id="Path" fill="#A59A93" points="0 6.0154297 7.98612277 1.27366337 15.9722455 6.0154297 15.9722455 13.0032792 0 13.0032792"></polygon>
                    <path d="M1.74694653,0.0258217822 L14.2252356,0.0258217822 C14.4997703,0.0258217822 14.7243723,0.250423762 14.7243723,0.524958416 L14.7243723,9.25975446 C14.7243723,9.53428911 14.4997703,9.75889109 14.2252356,9.75889109 L1.74694653,9.75889109 C1.47241188,9.75889109 1.2478099,9.53428911 1.2478099,9.25975446 L1.2478099,0.524958416 C1.2478099,0.250455446 1.47244356,0.0258217822 1.74694653,0.0258217822 Z" id="Path" fill="#FFFFFF"></path>
                    <path d="M13.1770931,1.02582178 L13.975699,0.0258217822 L14.2252673,0.0258217822 C14.499802,0.0258217822 14.724404,0.250812261 14.724404,0.525821782 L14.724404,1.02582178 L13.1770931,1.02582178 Z M6.6883802,1.02582178 L7.48698614,0.0258217822 L9.23393267,0.0258217822 L8.43532673,1.02582178 L6.6883802,1.02582178 Z M1.24784158,1.02582178 L1.24784158,0.525821782 C1.24784158,0.250812261 1.47244356,0.0258217822 1.74697822,0.0258217822 L2.9948198,0.0258217822 L2.19618218,1.02582178 L1.24784158,1.02582178 Z" id="Shape" fill="#A59A93"></path>
                    <path d="M15.9722455,14.5006574 C15.9722455,14.9124436 15.635295,15.2493624 15.2235089,15.2493624 L0.74870495,15.2493624 C0.336918812,15.2493624 0,14.9124436 0,14.5006574 L0,6.0154297 L7.98612277,9.50935446 L15.9722455,6.0154297 L15.9722455,14.5006574 L15.9722455,14.5006574 Z" id="Path" fill="#B7AEA9"></path>
                    <path d="M15.9722139,14.5006574 C15.9722139,14.9124436 15.635295,15.2493624 15.2235089,15.2493624 L0.74870495,15.2493624 C0.336918812,15.2493624 0,14.9124436 0,14.5006574 L0,13.0032475 L15.9722139,6.01539802 L15.9722139,14.5006574 Z" id="Path" fill="#A59A93"></path>
                    <path d="M5.07865347,4.45563564 L5.17848713,4.97973861 L4.37988119,3.73189703 L3.2568396,5.47884356 C3.24435644,5.64106139 3.96809505,5.7658297 4.86653465,5.7658297 C5.76497426,5.7658297 6.48871287,5.64106139 6.48871287,5.47884356 L5.50292277,4.01888317 C5.50292277,4.01888317 5.07865347,4.45563564 5.07865347,4.45563564 Z M5.17848713,3.76931485 C5.35318812,3.76931485 5.4904396,3.63206337 5.4904396,3.45736238 C5.4904396,3.28266139 5.35318812,3.1454099 5.17848713,3.1454099 C5.00378614,3.1454099 4.86653465,3.28266139 4.86653465,3.45736238 C4.86653465,3.63206337 5.00378614,3.76931485 5.17848713,3.76931485 Z M7.73655446,3.64454653 L12.7278574,3.64454653 C12.8651089,3.64454653 12.9774257,3.5322297 12.9774257,3.39497822 C12.9774257,3.25772673 12.8651089,3.1454099 12.7278574,3.1454099 L7.73655446,3.1454099 C7.59930297,3.1454099 7.48698614,3.25772673 7.48698614,3.39497822 C7.48698614,3.5322297 7.59927129,3.64454653 7.73655446,3.64454653 Z M12.7278574,4.14368317 L7.73655446,4.14368317 C7.59930297,4.14368317 7.48698614,4.256 7.48698614,4.39325149 C7.48698614,4.53050297 7.59930297,4.6428198 7.73655446,4.6428198 L12.7278574,4.6428198 C12.8651089,4.6428198 12.9774257,4.53050297 12.9774257,4.39325149 C12.9774257,4.25596832 12.8651089,4.14368317 12.7278574,4.14368317 Z M11.4800158,5.14192475 L7.73655446,5.14192475 C7.59930297,5.14192475 7.48698614,5.25424158 7.48698614,5.39149307 C7.48698614,5.52874455 7.59930297,5.64106139 7.73655446,5.64106139 L11.4800475,5.64106139 C11.617299,5.64106139 11.7296158,5.52874455 11.7296158,5.39149307 C11.7296158,5.25424158 11.617299,5.14192475 11.4800158,5.14192475 Z" id="Shape" fill="#B7AEA9"></path>
                    <path d="M9.93273663,1.02582178 L10.7313426,0.0258217822 L12.4782891,0.0258217822 L11.6796832,1.02582178 L9.93273663,1.02582178 Z M3.44402376,1.02582178 L4.2426297,0.0258217822 L5.98957624,0.0258217822 L5.1909703,1.02582178 L3.44402376,1.02582178 Z" id="Shape" fill="#B7AEA9"></path>
                </g>
            </g>
        </g>
    </g>
</svg>