<?xml version="1.0" encoding="utf-8"?>
<!-- Generator: Adobe Illustrator 23.0.3, SVG Export Plug-In . SVG Version: 6.00 Build 0)  -->
<svg version="1.1" id="Layer_1" xmlns="http://www.w3.org/2000/svg" xmlns:xlink="http://www.w3.org/1999/xlink" x="0px" y="0px"
	 width="24px" height="72px" viewBox="0 0 24 72" style="enable-background:new 0 0 24 72;" xml:space="preserve">
<style type="text/css">
	.st0{fill:#FF4B55;}
	.st1{fill:#FFDA44;}
	.st2{fill:none;stroke:#FFFFFF;}
	.st3{fill:#F5F5F5;}
	.st4{fill:#EEEEEE;}
	.st5{fill:#0052B4;}
	.st6{fill:#D80027;}
</style>
<title>Flags/china</title>
<desc>Created with Sketch.</desc>
<g id="Icons">
	<g>
		<g id="china">
			<circle id="Oval" class="st0" cx="12" cy="36" r="11.5"/>
			<path id="Shape" class="st1" d="M6.8,31.9l0.3,1l0.5,1.6h2.7c0.1,0,0.2,0.1,0.2,0.2c0,0.1,0,0.1-0.1,0.2l-2.2,1.6l0.8,2.6
				c0,0.1,0,0.2-0.1,0.3c-0.1,0-0.1,0-0.2,0l-2.2-1.6l-2.2,1.6c-0.1,0.1-0.2,0-0.3,0c0-0.1,0-0.1,0-0.2l0.8-2.6l-2.2-1.6
				c-0.1-0.1-0.1-0.2,0-0.3c0-0.1,0.1-0.1,0.2-0.1h2.7l0.8-2.6c0-0.1,0.1-0.2,0.3-0.1C6.7,31.8,6.7,31.8,6.8,31.9z M14.1,42.5
				L14.1,42.5l-0.7-0.9l-1,0.4c0,0-0.1,0-0.1,0c0,0,0,0,0,0l0.6-0.9l-0.7-0.9c0,0,0-0.1,0-0.1c0,0,0,0,0,0l1.1,0.3l0.6-0.9
				c0,0,0,0,0.1,0c0,0,0,0,0,0l0.1,1.1l1.1,0.3c0,0,0,0,0,0.1c0,0,0,0,0,0l-1,0.4L14.1,42.5C14.2,42.5,14.2,42.5,14.1,42.5
				C14.2,42.5,14.1,42.5,14.1,42.5z M15.8,39.6l0.3-1.1l-0.9-0.6c0,0,0,0,0-0.1c0,0,0,0,0,0l1.1,0l0.3-1.1c0,0,0,0,0.1,0
				c0,0,0,0,0,0l0.4,1l1.1,0c0,0,0.1,0,0.1,0c0,0,0,0,0,0l-0.9,0.7l0.4,1c0,0,0,0.1,0,0.1c0,0,0,0,0,0L16.8,39L15.8,39.6
				C15.9,39.7,15.9,39.6,15.8,39.6C15.8,39.6,15.8,39.6,15.8,39.6z M17.9,32.9l-0.5,1l0.8,0.8c0,0,0,0.1,0,0.1c0,0,0,0,0,0L17,34.6
				l-0.5,1c0,0,0,0-0.1,0c0,0,0,0,0,0l-0.2-1.1l-1.1-0.2c0,0,0,0,0-0.1c0,0,0,0,0,0l1-0.5l-0.2-1.1c0,0,0-0.1,0-0.1c0,0,0,0,0,0
				l0.8,0.8L17.9,32.9C17.8,32.9,17.8,32.9,17.9,32.9C17.9,32.9,17.9,32.9,17.9,32.9z M14.2,29.5l-0.1,1.1l1,0.4c0,0,0,0,0,0.1
				c0,0,0,0,0,0l-1.1,0.3L14,32.5c0,0,0,0-0.1,0c0,0,0,0,0,0l-0.6-0.9l-1.1,0.3c0,0-0.1,0-0.1,0c0,0,0,0,0,0l0.7-0.8L12.4,30
				c0,0,0-0.1,0-0.1c0,0,0,0,0,0l1,0.4L14.2,29.5C14.2,29.5,14.2,29.5,14.2,29.5C14.2,29.5,14.2,29.5,14.2,29.5z"/>
			<circle class="st2" cx="12" cy="36" r="11.5"/>
		</g>
	</g>
</g>
<g>
	<title>Flags/hongkong</title>
	<desc>Created with Sketch.</desc>
	<g id="Icons_1_">
		<g>
			<g id="hongkong">
				<path id="Combined-Shape" class="st0" d="M12,23.8C5.5,23.8,0.2,18.5,0.2,12S5.5,0.2,12,0.2S23.8,5.5,23.8,12S18.5,23.8,12,23.8
					z"/>
				<path id="Shape_1_" class="st3" d="M10.3,12.7c0.4,0,0.8-0.1,1.1-0.2c-2.9,2.2-5.7-0.9-4.8-3.4c0-0.1,0.1,0,0.1,0
					c0.1,0.3,0.3,0.9,1.1,0.7C8.6,9.7,9,9.7,9.6,10.4c0.5,0.7,0.2,1.3,1,1.8c0.2,0.1,0.5,0.1,0.7,0.1c-0.6,0.2-1.7,0.4-2.6-0.6
					c0,0-0.1,0-0.1,0l0,0c0,0-0.1,0.1,0,0.2C9.1,12.5,9.8,12.7,10.3,12.7z M8.2,11.8l0.1-0.3l0.4,0c0,0,0.1-0.1,0-0.1l-0.3-0.2
					l0.1-0.3c0,0,0-0.1-0.1-0.1L8.2,11l-0.3-0.2c0,0-0.1,0-0.1,0.1l0.1,0.4l-0.3,0.2c0,0,0,0.1,0,0.1l0.4,0L8.2,11.8
					C8.2,11.9,8.2,11.9,8.2,11.8z M12.4,11c-0.3,0.2-0.6,0.5-0.7,0.8c1-3.5,5.1-2.7,5.8-0.1c0,0.1,0,0.1-0.1,0.1
					c-0.2-0.2-0.8-0.5-1.3,0c-0.5,0.5-0.9,0.8-1.7,0.6c-0.8-0.2-0.9-0.9-1.9-0.8c-0.2,0-0.5,0.2-0.7,0.3c0.4-0.6,1.1-1.4,2.4-1.1
					c0.1,0,0.1,0,0.1-0.1l0,0c0-0.1,0-0.1-0.1-0.1C13.5,10.4,12.9,10.6,12.4,11z M14.6,10.4l0.1,0.4L14.4,11c0,0,0,0.1,0,0.1l0.4,0
					l0.1,0.4c0,0,0.1,0,0.1,0l0.1-0.3l0.4,0c0,0,0.1-0.1,0-0.1l-0.3-0.2l0.1-0.4c0,0,0-0.1-0.1-0.1L15,10.6L14.6,10.4
					C14.6,10.3,14.6,10.4,14.6,10.4z M10.9,11.2c0.2,0.4,0.4,0.7,0.6,0.9c-3.2-1.8-1.4-5.6,1.3-5.7c0.1,0,0.1,0.1,0,0.1
					c-0.3,0.2-0.7,0.6-0.3,1.3c0.4,0.7,0.6,1.1,0.2,1.8c-0.4,0.8-1.1,0.6-1.3,1.6c0,0.2,0.1,0.5,0.2,0.7c-0.5-0.5-1-1.5-0.5-2.6
					c0-0.1,0-0.1,0-0.1l0,0c-0.1,0-0.1,0-0.1,0C10.6,10,10.6,10.7,10.9,11.2z M10.9,9l0.4,0l0.1,0.3c0,0,0.1,0,0.1,0l0.1-0.4l0.4,0
					c0,0,0.1-0.1,0-0.1l-0.3-0.2l0.1-0.4c0,0,0-0.1-0.1-0.1l-0.3,0.2l-0.3-0.2c0,0-0.1,0-0.1,0.1l0.1,0.3L10.9,9
					C10.8,8.9,10.8,9,10.9,9z M13,12.5c-0.3-0.2-0.7-0.4-1-0.4c3.6-0.2,4.2,4,2,5.5c0,0-0.1,0-0.1-0.1c0.1-0.3,0.2-0.9-0.4-1.2
					c-0.7-0.3-1.1-0.6-1.1-1.5c-0.1-0.9,0.6-1.1,0.2-2c-0.1-0.2-0.3-0.4-0.5-0.5c0.7,0.2,1.7,0.7,1.8,2c0,0.1,0.1,0.1,0.1,0.1l0,0
					c0.1,0,0.1-0.1,0.1-0.1C13.9,13.3,13.4,12.8,13,12.5z M14.2,14.4l-0.3,0.2l-0.3-0.2c0,0-0.1,0-0.1,0.1l0.1,0.4L13.3,15
					c0,0,0,0.1,0,0.1l0.4,0l0.1,0.4c0,0,0.1,0,0.1,0l0.1-0.4l0.4,0c0,0,0.1-0.1,0-0.1l-0.3-0.2L14.2,14.4
					C14.3,14.4,14.2,14.3,14.2,14.4z M11.8,13.5c0.1-0.4,0.1-0.8,0.1-1.1c1.3,3.4-2.5,5.2-4.7,3.5c0,0,0-0.1,0-0.1
					c0.3,0,0.9,0,1-0.8c0.1-0.8,0.2-1.2,1-1.5c0.8-0.3,1.2,0.2,2-0.4c0.2-0.1,0.3-0.4,0.3-0.7c0,0.7-0.1,1.8-1.3,2.3
					c-0.1,0-0.1,0.1-0.1,0.1l0,0c0,0.1,0.1,0.1,0.1,0.1C11.2,14.6,11.6,14.1,11.8,13.5z M10.3,15.3L10,15l0.1-0.4c0,0,0-0.1-0.1-0.1
					l-0.3,0.2l-0.3-0.2c0,0-0.1,0-0.1,0.1L9.5,15l-0.3,0.2c0,0,0,0.1,0,0.1l0.4,0l0.1,0.4c0,0,0.1,0,0.1,0l0.1-0.3L10.3,15.3
					C10.3,15.4,10.4,15.3,10.3,15.3z"/>
				<circle id="Oval_1_" class="st2" cx="12" cy="12" r="11.5"/>
			</g>
		</g>
	</g>
</g>
<g>
	<title>Flags/great_britain</title>
	<desc>Created with Sketch.</desc>
	<g id="Icons_2_">
		<g>
			<g id="great_britain">
				<g id="Group-2">
					<circle id="Oval_2_" class="st4" cx="12" cy="60.1" r="11.8"/>
					<path id="Shape_2_" class="st5" d="M2.6,52.8C1.7,54,1,55.5,0.6,57h6.1L2.6,52.8L2.6,52.8z M23.4,57c-0.4-1.5-1.1-2.9-2-4.2
						L17.3,57H23.4L23.4,57z M0.6,63.2c0.4,1.5,1.1,2.9,2,4.2l4.1-4.2H0.6L0.6,63.2z M19.2,50.6c-1.2-1-2.6-1.7-4.1-2.1v6.2
						L19.2,50.6L19.2,50.6z M4.8,69.6c1.2,1,2.6,1.7,4.1,2.1v-6.2L4.8,69.6L4.8,69.6z M8.9,48.5c-1.5,0.4-2.9,1.1-4.1,2.1l4.1,4.2
						V48.5L8.9,48.5z M15.1,71.7c1.5-0.4,2.9-1.1,4.1-2.1l-4.1-4.2V71.7L15.1,71.7z M17.3,63.2l4.1,4.2c0.9-1.2,1.6-2.7,2-4.2H17.3z
						"/>
					<g id="Group">
						<path id="Path" class="st6" d="M23.7,58.6H13.5V48.4c-0.5-0.1-1-0.1-1.5-0.1c-0.5,0-1,0-1.5,0.1v10.2H0.3
							c-0.1,0.5-0.1,1-0.1,1.5c0,0.5,0,1,0.1,1.5h10.2v10.2c1,0.1,2.1,0.1,3.1,0V61.6h10.2c0.1-0.5,0.1-1,0.1-1.5
							C23.8,59.6,23.8,59.1,23.7,58.6z"/>
						<path class="st6" d="M15.1,63.2l5.3,5.3c0.2-0.2,0.5-0.5,0.7-0.8l-4.5-4.5H15.1L15.1,63.2z M9,63.2l-5.3,5.3
							c0.2,0.2,0.5,0.5,0.8,0.7L9,64.7V63.2L9,63.2z M9,57.1l-5.3-5.3C3.5,52,3.2,52.3,3,52.6l4.5,4.5H9L9,57.1z M15.1,57.1l5.3-5.3
							c-0.2-0.2-0.5-0.5-0.8-0.7l-4.5,4.5V57.1L15.1,57.1z"/>
					</g>
				</g>
				<circle class="st2" cx="12" cy="60.1" r="11.5"/>
			</g>
		</g>
	</g>
</g>
</svg>
