<svg xmlns="http://www.w3.org/2000/svg" xmlns:xlink="http://www.w3.org/1999/xlink" width="112" height="111" viewBox="0 0 112 111">
    <defs>
        <path id="a" d="M0 .188h85.243v85.248H0z"/>
    </defs>
    <g fill="none" fill-rule="evenodd">
        <path fill="#000" fill-opacity=".037" d="M78.523 21.7c6.158 0 11.157 4.999 11.157 11.157s-5 11.156-11.157 11.156c-6.158 0-11.157-4.998-11.157-11.156s5-11.157 11.157-11.157M54.415 37.651a24.545 24.545 0 0 0 3.658 8.84l-2.863 2.862a2.62 2.62 0 0 0 0 3.704l3.113 3.113a2.62 2.62 0 0 0 3.703 0l2.864-2.863a24.313 24.313 0 0 0 8.838 3.658v4.045a2.614 2.614 0 0 0 2.614 2.613h4.408a2.614 2.614 0 0 0 2.613-2.613v-4.045a24.545 24.545 0 0 0 8.84-3.658l2.862 2.863a2.62 2.62 0 0 0 3.704 0l3.113-3.113a2.62 2.62 0 0 0 0-3.704l-2.863-2.863a24.312 24.312 0 0 0 3.658-8.839h4.045a2.613 2.613 0 0 0 2.613-2.613v-4.385a2.614 2.614 0 0 0-2.613-2.613h-4.045a24.549 24.549 0 0 0-3.658-8.84l2.863-2.862a2.62 2.62 0 0 0 0-3.704L98.746 9.52a2.62 2.62 0 0 0-3.704 0l-2.863 2.863a24.312 24.312 0 0 0-8.839-3.658V4.68a2.613 2.613 0 0 0-2.613-2.613H76.32a2.613 2.613 0 0 0-2.613 2.613v4.045a24.548 24.548 0 0 0-8.84 3.658l-2.84-2.863a2.62 2.62 0 0 0-3.703 0l-3.113 3.113a2.62 2.62 0 0 0 0 3.704l2.863 2.863a24.312 24.312 0 0 0-3.658 8.839H50.37a2.613 2.613 0 0 0-2.613 2.613v4.408a2.594 2.594 0 0 0 2.613 2.59h4.045z"/>
        <g transform="translate(0 24.972)">
            <mask id="b" fill="#fff">
                <use xlink:href="#a"/>
            </mask>
            <path fill="#ACA190" d="M78.682 61.01a1.53 1.53 0 0 1-2 .84l-5.135-2.135a2.04 2.04 0 0 0-2.5.75 31.45 31.45 0 0 1-8.747 8.748 2.04 2.04 0 0 0-.75 2.5l2.113 5.134a1.53 1.53 0 0 1-.84 2l-5.59 2.34a1.53 1.53 0 0 1-2-.84l-2.136-5.136c-.386-.909-1.34-1.431-2.295-1.227-4.09.818-8.248.818-12.36 0-.955-.181-1.932.318-2.296 1.227l-2.136 5.136a1.549 1.549 0 0 1-2 .84l-5.589-2.317a1.527 1.527 0 0 1-.84-.841 1.522 1.522 0 0 1 0-1.182l2.135-5.135a2.04 2.04 0 0 0-.75-2.5 31.445 31.445 0 0 1-8.748-8.748 2.04 2.04 0 0 0-2.5-.75l-5.135 2.137c-.795.318-1.681-.046-2-.841l-2.317-5.59a1.53 1.53 0 0 1 .841-2l5.135-2.135c.91-.387 1.432-1.341 1.227-2.295a31.438 31.438 0 0 1 0-12.361c.182-.955-.318-1.932-1.227-2.295l-5.135-2.136a1.527 1.527 0 0 1-.84-.841 1.523 1.523 0 0 1 0-1.182l2.317-5.59c.159-.386.454-.68.84-.84.387-.16.796-.16 1.182 0l5.135 2.136a2.04 2.04 0 0 0 2.5-.75 31.433 31.433 0 0 1 8.748-8.748 2.04 2.04 0 0 0 .75-2.5l-2.136-5.135a1.52 1.52 0 0 1 0-1.181c.16-.387.454-.682.84-.841l5.59-2.318a1.53 1.53 0 0 1 2 .84l2.136 5.136a2.056 2.056 0 0 0 2.681 1.114 2.057 2.057 0 0 0 1.114-2.682l-2.137-5.135A5.668 5.668 0 0 0 28.443.614l-5.59 2.317A5.639 5.639 0 0 0 19.786 6a5.74 5.74 0 0 0 0 4.34l1.5 3.613a35.765 35.765 0 0 0-7.522 7.52l-3.613-1.499a5.739 5.739 0 0 0-4.34 0 5.639 5.639 0 0 0-3.067 3.068L.426 28.63a5.74 5.74 0 0 0 0 4.34 5.639 5.639 0 0 0 3.068 3.067l3.613 1.5a34.765 34.765 0 0 0 0 10.634l-3.613 1.5a5.668 5.668 0 0 0-3.068 7.384l2.318 5.521c1.181 2.886 4.499 4.25 7.385 3.068l3.612-1.5a35.76 35.76 0 0 0 7.522 7.521l-1.5 3.614a5.739 5.739 0 0 0 0 4.34 5.638 5.638 0 0 0 3.067 3.067l5.59 2.318c2.886 1.181 6.203-.182 7.385-3.068l1.5-3.613c3.544.546 7.09.546 10.634 0l1.5 3.613a5.68 5.68 0 0 0 5.226 3.5c.727 0 1.454-.137 2.158-.432l5.59-2.318a5.668 5.668 0 0 0 3.067-7.385l-1.5-3.613a35.756 35.756 0 0 0 7.522-7.521l3.613 1.5A5.641 5.641 0 0 0 82.5 62.6l2.317-5.59a5.739 5.739 0 0 0 0-4.34 5.64 5.64 0 0 0-3.067-3.067l-5.136-2.136a2.057 2.057 0 0 0-2.68 1.114 2.056 2.056 0 0 0 1.113 2.68l5.135 2.137c.386.159.682.454.84.84.16.387.16.796 0 1.182l-2.34 5.59z" mask="url(#b)"/>
        </g>
        <path fill="#ACA190" d="M42.508 53.716c1.136 0 2.045-.932 2.045-2.068 0-1.136-.932-2.045-2.068-2.045h-.022c-4.863.046-9.407 1.954-12.816 5.408a18.011 18.011 0 0 0-5.226 12.884c.045 4.862 1.954 9.407 5.408 12.815a18.02 18.02 0 0 0 12.747 5.226h.137c4.862-.045 9.407-1.954 12.815-5.408a18.011 18.011 0 0 0 5.226-12.883c0-1.136-.931-2.045-2.068-2.045h-.022c-1.136 0-2.045.931-2.045 2.067a14.018 14.018 0 0 1-4.045 9.976 13.913 13.913 0 0 1-9.907 4.18h-.113a13.945 13.945 0 0 1-9.862-4.044 13.912 13.912 0 0 1-4.181-9.907 14.018 14.018 0 0 1 4.045-9.975c2.68-2.659 6.203-4.158 9.952-4.181"/>
        <path fill="#BDBCBC" d="M100.655 37.265a22.136 22.136 0 0 1-3.363 8.112 2.06 2.06 0 0 0 .25 2.59l2.863 2.863a.55.55 0 0 1 0 .796l-3.113 3.112a.54.54 0 0 1-.387.16.509.509 0 0 1-.386-.16l-2.863-2.863a2.037 2.037 0 0 0-2.59-.25 22.534 22.534 0 0 1-8.112 3.363c-.954.182-1.659 1.046-1.659 2.023v4.044c0 .296-.25.546-.545.546h-4.408a.553.553 0 0 1-.545-.546v-4.044c0-.977-.705-1.818-1.66-2.023a22.132 22.132 0 0 1-8.111-3.362c-.34-.228-.75-.341-1.136-.341-.523 0-1.068.204-1.455.613l-2.863 2.863a.542.542 0 0 1-.386.16.51.51 0 0 1-.386-.16l-3.113-3.113a.55.55 0 0 1 0-.795l2.863-2.863a2.037 2.037 0 0 0 .25-2.59 22.531 22.531 0 0 1-3.363-8.112c-.182-.955-1.045-1.66-2.023-1.66H50.37a.553.553 0 0 1-.545-.544v-4.431c0-.296.25-.546.545-.546h4.044c.978 0 1.818-.704 2.023-1.658a22.136 22.136 0 0 1 3.363-8.112 2.06 2.06 0 0 0-.25-2.59l-2.863-2.864a.54.54 0 0 1-.16-.386.51.51 0 0 1 .16-.386l3.09-3.136a.54.54 0 0 1 .386-.159.51.51 0 0 1 .387.16l2.863 2.862a2.037 2.037 0 0 0 2.59.25 22.531 22.531 0 0 1 8.112-3.363c.954-.182 1.659-1.045 1.659-2.022V4.68c0-.295.25-.545.545-.545h4.408c.296 0 .545.25.545.545v4.045c0 .977.705 1.817 1.66 2.022a22.132 22.132 0 0 1 8.111 3.363 2.06 2.06 0 0 0 2.59-.25l2.863-2.863a.542.542 0 0 1 .387-.16.51.51 0 0 1 .386.16l3.113 3.113a.55.55 0 0 1 0 .795l-2.863 2.863a2.037 2.037 0 0 0-.25 2.59 22.53 22.53 0 0 1 3.363 8.112c.182.955 1.045 1.66 2.022 1.66h4.045c.295 0 .545.249.545.544v4.409c0 .295-.25.545-.545.545h-4.045a1.981 1.981 0 0 0-2 1.636zm6.044 2.454c2.567 0 4.68-2.09 4.68-4.68v-4.386c0-2.568-2.09-4.681-4.68-4.681h-2.386a26.526 26.526 0 0 0-2.681-6.476l1.704-1.704a4.69 4.69 0 0 0 0-6.612l-3.113-3.113a4.644 4.644 0 0 0-3.295-1.364c-1.25 0-2.431.477-3.294 1.364L91.929 9.77a25.998 25.998 0 0 0-6.475-2.681V4.68c0-2.567-2.091-4.68-4.681-4.68h-4.408a4.689 4.689 0 0 0-4.681 4.68v2.41a26.508 26.508 0 0 0-6.476 2.68l-1.705-1.703a4.643 4.643 0 0 0-3.294-1.364c-1.25 0-2.431.477-3.295 1.364l-3.113 3.113a4.69 4.69 0 0 0 0 6.612l1.704 1.704a26.015 26.015 0 0 0-2.681 6.476h-2.409a4.689 4.689 0 0 0-4.68 4.68v4.409c0 2.567 2.09 4.68 4.68 4.68h2.409a26.517 26.517 0 0 0 2.681 6.477l-1.704 1.704a4.69 4.69 0 0 0 0 6.612l3.113 3.113a4.643 4.643 0 0 0 3.295 1.363c1.25 0 2.431-.477 3.294-1.363l1.705-1.704a25.998 25.998 0 0 0 6.476 2.681v2.409c0 2.567 2.09 4.68 4.68 4.68h4.409a4.689 4.689 0 0 0 4.68-4.68V58.6a26.52 26.52 0 0 0 6.476-2.68l1.705 1.703a4.642 4.642 0 0 0 3.294 1.364c1.25 0 2.432-.478 3.295-1.364l3.113-3.113a4.69 4.69 0 0 0 0-6.612l-1.704-1.704a26.015 26.015 0 0 0 2.681-6.476h2.386z"/>
        <path fill="#BDBCBC" d="M78.546 41.923a9.086 9.086 0 0 1-9.09-9.089 9.086 9.086 0 0 1 9.09-9.089 9.086 9.086 0 0 1 9.089 9.09c0 5.02-4.09 9.088-9.09 9.088m0-22.29c-7.293 0-13.201 5.93-13.201 13.201 0 7.294 5.93 13.202 13.202 13.202 7.294 0 13.202-5.93 13.202-13.202 0-7.271-5.931-13.202-13.202-13.202"/>
    </g>
</svg>
