<?xml version="1.0" encoding="UTF-8"?>
<svg width="16px" height="16px" viewBox="0 0 16 16" version="1.1" xmlns="http://www.w3.org/2000/svg" xmlns:xlink="http://www.w3.org/1999/xlink">
    <!-- Generator: Sketch 55.1 (78136) - https://sketchapp.com -->
    <title>Content Center/match_tracker_rugby_active</title>
    <desc>Created with Sketch.</desc>
    <g id="Icons" stroke="none" stroke-width="1" fill="none" fill-rule="evenodd">
        <g id="Content-Center/match_tracker_rugby_active">
            <g id="match_tracker_rugby_active">
                <path d="M14.3080381,15.6190476 L1.69089524,15.6190476 C0.970133333,15.6190476 0.381180952,15.0293333 0.381180952,14.3085714 L0.381180952,1.69142857 C0.381180952,0.970666667 0.970133333,0.380952381 1.69089524,0.380952381 L14.3080381,0.380952381 C15.0288,0.380952381 15.6192762,0.970666667 15.6192762,1.69142857 L15.6192762,14.3085714 C15.6192762,15.0293333 15.0288,15.6190476 14.3080381,15.6190476" id="Fill-1" fill="#91E070"></path>
                <path d="M1.6912,0.761904762 C1.1784381,0.761904762 0.76167619,1.17866667 0.76167619,1.69142857 L0.76167619,14.3085714 C0.76167619,14.8213333 1.1784381,15.2380952 1.6912,15.2380952 L14.3083429,15.2380952 C14.8203429,15.2380952 15.2378667,14.8213333 15.2378667,14.3085714 L15.2378667,1.69142857 C15.2378667,1.17866667 14.8203429,0.761904762 14.3083429,0.761904762 L1.6912,0.761904762 Z M14.3083429,16 L1.6912,16 C0.758628571,16 -0.000228571429,15.2411429 -0.000228571429,14.3085714 L-0.000228571429,1.69142857 C-0.000228571429,0.758857143 0.758628571,0 1.6912,0 L14.3083429,0 C15.2409143,0 15.9997714,0.758857143 15.9997714,1.69142857 L15.9997714,14.3085714 C15.9997714,15.2411429 15.2409143,16 14.3083429,16 L14.3083429,16 Z" id="Fill-3" fill="#106031"></path>
                <path d="M3.68838095,15.3142857 L5.38666667,15.3142857 L5.38666667,0.685714286 L3.68838095,0.685714286 L3.68838095,15.3142857 Z M5.69219048,15.9238095 L3.38285714,15.9238095 C3.2152381,15.9238095 3.07809524,15.7874286 3.07809524,15.6190476 L3.07809524,0.380952381 C3.07809524,0.212571429 3.2152381,0.0761904762 3.38285714,0.0761904762 L5.69219048,0.0761904762 C5.85980952,0.0761904762 5.99695238,0.212571429 5.99695238,0.380952381 L5.99695238,15.6190476 C5.99695238,15.7874286 5.85980952,15.9238095 5.69219048,15.9238095 L5.69219048,15.9238095 Z" id="Fill-6" fill="#ECF5EE"></path>
                <path d="M5.99695238,15.3142857 L7.6952381,15.3142857 L7.6952381,0.685714286 L5.99695238,0.685714286 L5.99695238,15.3142857 Z M8,15.9238095 L5.69219048,15.9238095 C5.52380952,15.9238095 5.38666667,15.7874286 5.38666667,15.6190476 L5.38666667,0.380952381 C5.38666667,0.212571429 5.52380952,0.0761904762 5.69219048,0.0761904762 L8,0.0761904762 C8.16838095,0.0761904762 8.3047619,0.212571429 8.3047619,0.380952381 L8.3047619,15.6190476 C8.3047619,15.7874286 8.16838095,15.9238095 8,15.9238095 L8,15.9238095 Z" id="Fill-8" fill="#ECF5EE"></path>
                <path d="M8.3047619,15.3142857 L10.0030476,15.3142857 L10.0030476,0.685714286 L8.3047619,0.685714286 L8.3047619,15.3142857 Z M10.3078095,15.9238095 L8,15.9238095 C7.83161905,15.9238095 7.6952381,15.7874286 7.6952381,15.6190476 L7.6952381,0.380952381 C7.6952381,0.212571429 7.83161905,0.0761904762 8,0.0761904762 L10.3078095,0.0761904762 C10.4761905,0.0761904762 10.6133333,0.212571429 10.6133333,0.380952381 L10.6133333,15.6190476 C10.6133333,15.7874286 10.4761905,15.9238095 10.3078095,15.9238095 L10.3078095,15.9238095 Z" id="Fill-9" fill="#ECF5EE"></path>
                <path d="M10.6133333,15.3142857 L12.311619,15.3142857 L12.311619,0.685714286 L10.6133333,0.685714286 L10.6133333,15.3142857 Z M12.616381,15.9238095 L10.3078095,15.9238095 C10.1401905,15.9238095 10.0030476,15.7874286 10.0030476,15.6190476 L10.0030476,0.380952381 C10.0030476,0.212571429 10.1401905,0.0761904762 10.3078095,0.0761904762 L12.616381,0.0761904762 C12.784,0.0761904762 12.9211429,0.212571429 12.9211429,0.380952381 L12.9211429,15.6190476 C12.9211429,15.7874286 12.784,15.9238095 12.616381,15.9238095 L12.616381,15.9238095 Z" id="Fill-10" fill="#ECF5EE"></path>
                <path d="M4.53721905,1.85302857 C4.43207619,1.85302857 4.34674286,1.76769524 4.34674286,1.66255238 L4.34674286,0.381028571 C4.34674286,0.275885714 4.43207619,0.190552381 4.53721905,0.190552381 C4.6423619,0.190552381 4.72769524,0.275885714 4.72769524,0.381028571 L4.72769524,1.66255238 C4.72769524,1.76769524 4.6423619,1.85302857 4.53721905,1.85302857" id="Fill-11" fill="#ECF5EE"></path>
                <path d="M6.84601905,1.85302857 C6.74087619,1.85302857 6.65554286,1.76769524 6.65554286,1.66255238 L6.65554286,0.381028571 C6.65554286,0.275885714 6.74087619,0.190552381 6.84601905,0.190552381 C6.9511619,0.190552381 7.03649524,0.275885714 7.03649524,0.381028571 L7.03649524,1.66255238 C7.03649524,1.76769524 6.9511619,1.85302857 6.84601905,1.85302857" id="Fill-12" fill="#ECF5EE"></path>
                <path d="M9.15398095,1.85302857 C9.0488381,1.85302857 8.96350476,1.76769524 8.96350476,1.66255238 L8.96350476,0.381028571 C8.96350476,0.275885714 9.0488381,0.190552381 9.15398095,0.190552381 C9.25912381,0.190552381 9.34445714,0.275885714 9.34445714,0.381028571 L9.34445714,1.66255238 C9.34445714,1.76769524 9.25912381,1.85302857 9.15398095,1.85302857" id="Fill-13" fill="#ECF5EE"></path>
                <path d="M11.462019,1.85302857 C11.3568762,1.85302857 11.2715429,1.76769524 11.2715429,1.66255238 L11.2715429,0.381028571 C11.2715429,0.275885714 11.3568762,0.190552381 11.462019,0.190552381 C11.5671619,0.190552381 11.6524952,0.275885714 11.6524952,0.381028571 L11.6524952,1.66255238 C11.6524952,1.76769524 11.5671619,1.85302857 11.462019,1.85302857" id="Fill-14" fill="#ECF5EE"></path>
                <path d="M4.53721905,6.50598095 C4.43207619,6.50598095 4.34674286,6.42064762 4.34674286,6.31550476 L4.34674286,5.65798095 C4.34674286,5.5528381 4.43207619,5.46750476 4.53721905,5.46750476 C4.6423619,5.46750476 4.72769524,5.5528381 4.72769524,5.65798095 L4.72769524,6.31550476 C4.72769524,6.42064762 4.6423619,6.50598095 4.53721905,6.50598095" id="Fill-15" fill="#ECF5EE"></path>
                <path d="M6.84601905,6.50598095 C6.74087619,6.50598095 6.65554286,6.42064762 6.65554286,6.31550476 L6.65554286,5.65798095 C6.65554286,5.5528381 6.74087619,5.46750476 6.84601905,5.46750476 C6.9511619,5.46750476 7.03649524,5.5528381 7.03649524,5.65798095 L7.03649524,6.31550476 C7.03649524,6.42064762 6.9511619,6.50598095 6.84601905,6.50598095" id="Fill-16" fill="#ECF5EE"></path>
                <path d="M9.15398095,6.50598095 C9.0488381,6.50598095 8.96350476,6.42064762 8.96350476,6.31550476 L8.96350476,5.65798095 C8.96350476,5.5528381 9.0488381,5.46750476 9.15398095,5.46750476 C9.25912381,5.46750476 9.34445714,5.5528381 9.34445714,5.65798095 L9.34445714,6.31550476 C9.34445714,6.42064762 9.25912381,6.50598095 9.15398095,6.50598095" id="Fill-17" fill="#ECF5EE"></path>
                <path d="M11.462019,6.50598095 C11.3568762,6.50598095 11.2715429,6.42064762 11.2715429,6.31550476 L11.2715429,5.65798095 C11.2715429,5.5528381 11.3568762,5.46750476 11.462019,5.46750476 C11.5671619,5.46750476 11.6524952,5.5528381 11.6524952,5.65798095 L11.6524952,6.31550476 C11.6524952,6.42064762 11.5671619,6.50598095 11.462019,6.50598095" id="Fill-18" fill="#ECF5EE"></path>
                <path d="M4.53721905,10.4832762 C4.43207619,10.4832762 4.34674286,10.3979429 4.34674286,10.2928 L4.34674286,9.63527619 C4.34674286,9.53013333 4.43207619,9.4448 4.53721905,9.4448 C4.6423619,9.4448 4.72769524,9.53013333 4.72769524,9.63527619 L4.72769524,10.2928 C4.72769524,10.3979429 4.6423619,10.4832762 4.53721905,10.4832762" id="Fill-19" fill="#ECF5EE"></path>
                <path d="M6.84601905,10.4832762 C6.74087619,10.4832762 6.65554286,10.3979429 6.65554286,10.2928 L6.65554286,9.63527619 C6.65554286,9.53013333 6.74087619,9.4448 6.84601905,9.4448 C6.9511619,9.4448 7.03649524,9.53013333 7.03649524,9.63527619 L7.03649524,10.2928 C7.03649524,10.3979429 6.9511619,10.4832762 6.84601905,10.4832762" id="Fill-20" fill="#ECF5EE"></path>
                <path d="M9.15398095,10.4832762 C9.0488381,10.4832762 8.96350476,10.3979429 8.96350476,10.2928 L8.96350476,9.63527619 C8.96350476,9.53013333 9.0488381,9.4448 9.15398095,9.4448 C9.25912381,9.4448 9.34445714,9.53013333 9.34445714,9.63527619 L9.34445714,10.2928 C9.34445714,10.3979429 9.25912381,10.4832762 9.15398095,10.4832762" id="Fill-21" fill="#ECF5EE"></path>
                <path d="M11.462019,10.4832762 C11.3568762,10.4832762 11.2715429,10.3979429 11.2715429,10.2928 L11.2715429,9.63527619 C11.2715429,9.53013333 11.3568762,9.4448 11.462019,9.4448 C11.5671619,9.4448 11.6524952,9.53013333 11.6524952,9.63527619 L11.6524952,10.2928 C11.6524952,10.3979429 11.5671619,10.4832762 11.462019,10.4832762" id="Fill-22" fill="#ECF5EE"></path>
                <path d="M1.55580952,6.31619048 L0.380952381,6.31619048 C0.212571429,6.31619048 0.0761904762,6.17980952 0.0761904762,6.01142857 C0.0761904762,5.84304762 0.212571429,5.70666667 0.380952381,5.70666667 L1.55580952,5.70666667 C1.72419048,5.70666667 1.86057143,5.84304762 1.86057143,6.01142857 C1.86057143,6.17980952 1.72419048,6.31619048 1.55580952,6.31619048" id="Fill-23" fill="#ECF5EE"></path>
                <path d="M1.55580952,10.2935619 L0.380952381,10.2935619 C0.212571429,10.2935619 0.0761904762,10.157181 0.0761904762,9.9888 C0.0761904762,9.82041905 0.212571429,9.6840381 0.380952381,9.6840381 L1.55580952,9.6840381 C1.72419048,9.6840381 1.86057143,9.82041905 1.86057143,9.9888 C1.86057143,10.157181 1.72419048,10.2935619 1.55580952,10.2935619" id="Fill-24" fill="#ECF5EE"></path>
                <path d="M4.53721905,15.8095238 C4.43207619,15.8095238 4.34674286,15.7241905 4.34674286,15.6190476 L4.34674286,14.3375238 C4.34674286,14.232381 4.43207619,14.1470476 4.53721905,14.1470476 C4.6423619,14.1470476 4.72769524,14.232381 4.72769524,14.3375238 L4.72769524,15.6190476 C4.72769524,15.7241905 4.6423619,15.8095238 4.53721905,15.8095238" id="Fill-25" fill="#ECF5EE"></path>
                <path d="M6.84601905,15.8095238 C6.74087619,15.8095238 6.65554286,15.7241905 6.65554286,15.6190476 L6.65554286,14.3375238 C6.65554286,14.232381 6.74087619,14.1470476 6.84601905,14.1470476 C6.9511619,14.1470476 7.03649524,14.232381 7.03649524,14.3375238 L7.03649524,15.6190476 C7.03649524,15.7241905 6.9511619,15.8095238 6.84601905,15.8095238" id="Fill-26" fill="#ECF5EE"></path>
                <path d="M9.15398095,15.8095238 C9.0488381,15.8095238 8.96350476,15.7241905 8.96350476,15.6190476 L8.96350476,14.3375238 C8.96350476,14.232381 9.0488381,14.1470476 9.15398095,14.1470476 C9.25912381,14.1470476 9.34445714,14.232381 9.34445714,14.3375238 L9.34445714,15.6190476 C9.34445714,15.7241905 9.25912381,15.8095238 9.15398095,15.8095238" id="Fill-27" fill="#ECF5EE"></path>
                <path d="M11.462019,15.6558476 C11.3568762,15.6558476 11.2715429,15.5705143 11.2715429,15.4653714 L11.2715429,14.3377524 C11.2715429,14.2326095 11.3568762,14.1472762 11.462019,14.1472762 C11.5671619,14.1472762 11.6524952,14.2326095 11.6524952,14.3377524 L11.6524952,15.4653714 C11.6524952,15.5705143 11.5671619,15.6558476 11.462019,15.6558476" id="Fill-28" fill="#ECF5EE"></path>
                <path d="M15.6026667,6.31619048 L14.4270476,6.31619048 C14.2586667,6.31619048 14.1222857,6.17980952 14.1222857,6.01142857 C14.1222857,5.84304762 14.2586667,5.70666667 14.4270476,5.70666667 L15.6026667,5.70666667 C15.7710476,5.70666667 15.9074286,5.84304762 15.9074286,6.01142857 C15.9074286,6.17980952 15.7710476,6.31619048 15.6026667,6.31619048" id="Fill-29" fill="#ECF5EE"></path>
                <path d="M15.6026667,10.2935619 L14.4270476,10.2935619 C14.2586667,10.2935619 14.1222857,10.157181 14.1222857,9.9888 C14.1222857,9.82041905 14.2586667,9.6840381 14.4270476,9.6840381 L15.6026667,9.6840381 C15.7710476,9.6840381 15.9074286,9.82041905 15.9074286,9.9888 C15.9074286,10.157181 15.7710476,10.2935619 15.6026667,10.2935619" id="Fill-30" fill="#ECF5EE"></path>
                <path d="M1.6912,0.761904762 C1.1784381,0.761904762 0.76167619,1.17866667 0.76167619,1.69142857 L0.76167619,14.3085714 C0.76167619,14.8213333 1.1784381,15.2380952 1.6912,15.2380952 L14.3083429,15.2380952 C14.8203429,15.2380952 15.2378667,14.8213333 15.2378667,14.3085714 L15.2378667,1.69142857 C15.2378667,1.17866667 14.8203429,0.761904762 14.3083429,0.761904762 L1.6912,0.761904762 Z M14.3083429,16 L1.6912,16 C0.758628571,16 -0.000228571429,15.2411429 -0.000228571429,14.3085714 L-0.000228571429,1.69142857 C-0.000228571429,0.758857143 0.758628571,0 1.6912,0 L14.3083429,0 C15.2409143,0 15.9997714,0.758857143 15.9997714,1.69142857 L15.9997714,14.3085714 C15.9997714,15.2411429 15.2409143,16 14.3083429,16 L14.3083429,16 Z" id="Fill-31" fill="#2ECA6A"></path>
            </g>
        </g>
    </g>
</svg>