<?xml version="1.0" encoding="UTF-8"?>
<svg width="16px" height="16px" viewBox="0 0 16 16" version="1.1" xmlns="http://www.w3.org/2000/svg" xmlns:xlink="http://www.w3.org/1999/xlink">
    <!-- Generator: Sketch 55.1 (78136) - https://sketchapp.com -->
    <title>Content Center/match_tracker_tennis_active</title>
    <desc>Created with Sketch.</desc>
    <g id="Icons" stroke="none" stroke-width="1" fill="none" fill-rule="evenodd">
        <g id="Content-Center/match_tracker_tennis_active">
            <g id="match_tracker_tennis_active" transform="translate(0.000000, -0.000000)">
                <path d="M14.3082667,15.3787546 L1.69112381,15.3787546 C0.97112381,15.3787546 0.381409524,14.7981128 0.381409524,14.0876894 L0.381409524,1.66540659 C0.381409524,0.955733333 0.97112381,0.375091575 1.69112381,0.375091575 L14.3082667,0.375091575 C15.0290286,0.375091575 15.6195048,0.955733333 15.6195048,1.66540659 L15.6195048,14.0876894 C15.6195048,14.7981128 15.0290286,15.3787546 14.3082667,15.3787546" id="Fill-1" fill="#D7E958"></path>
                <path d="M1.69142857,0.761904762 C1.17866667,0.761904762 0.761904762,1.17866667 0.761904762,1.69142857 L0.761904762,14.3078095 C0.761904762,14.8205714 1.17866667,15.2380952 1.69142857,15.2380952 L14.3085714,15.2380952 C14.8205714,15.2380952 15.2380952,14.8205714 15.2380952,14.3078095 L15.2380952,1.69142857 C15.2380952,1.17866667 14.8205714,0.761904762 14.3085714,0.761904762 L1.69142857,0.761904762 Z M14.3085714,16 L1.69142857,16 C0.758857143,16 0,15.2411429 0,14.3078095 L0,1.69142857 C0,0.758857143 0.758857143,-2.84217094e-14 1.69142857,-2.84217094e-14 L14.3085714,-2.84217094e-14 C15.2411429,-2.84217094e-14 16,0.758857143 16,1.69142857 L16,14.3078095 C16,15.2411429 15.2411429,16 14.3085714,16 L14.3085714,16 Z" id="Fill-3" fill="#527F3A"></path>
                <path d="M15.6192762,2.57732923 L0.381180952,2.57732923 C0.2128,2.57732923 0.0764190476,2.44229626 0.0764190476,2.27725597 C0.0764190476,2.11146549 0.2128,1.97643253 0.381180952,1.97643253 L15.6192762,1.97643253 C15.7876571,1.97643253 15.9240381,2.11146549 15.9240381,2.27725597 C15.9240381,2.44229626 15.7876571,2.57732923 15.6192762,2.57732923" id="Fill-6" fill="#F2F7E6"></path>
                <path d="M15.6192762,13.7772636 L0.381180952,13.7772636 C0.2128,13.7772636 0.0764190476,13.6422306 0.0764190476,13.4771903 C0.0764190476,13.3113999 0.2128,13.1763669 0.381180952,13.1763669 L15.6192762,13.1763669 C15.7876571,13.1763669 15.9240381,13.3113999 15.9240381,13.4771903 C15.9240381,13.6422306 15.7876571,13.7772636 15.6192762,13.7772636" id="Fill-8" fill="#F2F7E6"></path>
                <path d="M3.82087619,13.7633852 C3.65249524,13.7633852 3.51611429,13.6283522 3.51611429,13.4633119 L3.51611429,2.27658081 C3.51611429,2.11154051 3.65249524,1.97650755 3.82087619,1.97650755 C3.98925714,1.97650755 4.1256381,2.11154051 4.1256381,2.27658081 L4.1256381,13.4633119 C4.1256381,13.6283522 3.98925714,13.7633852 3.82087619,13.7633852" id="Fill-10" fill="#F2F7E6"></path>
                <path d="M12.179581,13.7772636 C12.0112,13.7772636 11.874819,13.6422306 11.874819,13.4771903 L11.874819,2.29045919 C11.874819,2.1254189 12.0112,1.99038593 12.179581,1.99038593 C12.3479619,1.99038593 12.4843429,2.1254189 12.4843429,2.29045919 L12.4843429,13.4771903 C12.4843429,13.6422306 12.3479619,13.7772636 12.179581,13.7772636" id="Fill-12" fill="#F2F7E6"></path>
                <path d="M12.179581,8.18389802 L3.82072381,8.18389802 C3.65310476,8.18389802 3.5159619,8.04886505 3.5159619,7.88382476 C3.5159619,7.71803429 3.65310476,7.58300132 3.82072381,7.58300132 L12.179581,7.58300132 C12.3479619,7.58300132 12.4843429,7.71803429 12.4843429,7.88382476 C12.4843429,8.04886505 12.3479619,8.18389802 12.179581,8.18389802" id="Fill-14" fill="#F2F7E6"></path>
                <path d="M8.00022857,15.7538462 C7.78994286,15.7538462 7.61927619,15.5858051 7.61927619,15.3787546 L7.61927619,0.375091575 C7.61927619,0.168041026 7.78994286,-2.84217094e-14 8.00022857,-2.84217094e-14 C8.21051429,-2.84217094e-14 8.38118095,0.168041026 8.38118095,0.375091575 L8.38118095,15.3787546 C8.38118095,15.5858051 8.21051429,15.7538462 8.00022857,15.7538462" id="Fill-16" fill="#7FC65A"></path>
                <path d="M1.69142857,0.768506374 C1.17866667,0.768506374 0.761904762,1.18603018 0.761904762,1.69879209 L0.761904762,14.315173 C0.761904762,14.8279349 1.17866667,15.2446968 1.69142857,15.2446968 L14.3085714,15.2446968 C14.8205714,15.2446968 15.2380952,14.8279349 15.2380952,14.315173 L15.2380952,1.69879209 C15.2380952,1.18603018 14.8205714,0.768506374 14.3085714,0.768506374 L1.69142857,0.768506374 Z M14.3085714,16.0066016 L1.69142857,16.0066016 C0.758857143,16.0066016 0,15.2477445 0,14.315173 L0,1.69879209 C0,0.765458755 0.758857143,0.00660161172 1.69142857,0.00660161172 L14.3085714,0.00660161172 C15.2411429,0.00660161172 16,0.765458755 16,1.69879209 L16,14.315173 C16,15.2477445 15.2411429,16.0066016 14.3085714,16.0066016 L14.3085714,16.0066016 Z" id="Fill-18" fill="#7FC65A"></path>
            </g>
        </g>
    </g>
</svg>