<?xml version="1.0" encoding="UTF-8"?>
<svg width="16px" height="16px" viewBox="0 0 16 16" version="1.1" xmlns="http://www.w3.org/2000/svg" xmlns:xlink="http://www.w3.org/1999/xlink">
    <!-- Generator: Sketch 55.1 (78136) - https://sketchapp.com -->
    <title>Content Center/match_tracker_table_tennis_active</title>
    <desc>Created with Sketch.</desc>
    <defs>
        <path d="M1.6912,0.761904762 C1.1784381,0.761904762 0.76167619,1.17866667 0.76167619,1.69142857 L0.76167619,14.3078095 C0.76167619,14.8205714 1.1784381,15.2380952 1.6912,15.2380952 L14.3083429,15.2380952 C14.8203429,15.2380952 15.2378667,14.8205714 15.2378667,14.3078095 L15.2378667,1.69142857 C15.2378667,1.17866667 14.8203429,0.761904762 14.3083429,0.761904762 L1.6912,0.761904762 Z M14.3083429,16 L1.6912,16 C0.758628571,16 -0.000228571429,15.2411429 -0.000228571429,14.3078095 L-0.000228571429,1.69142857 C-0.000228571429,0.758857143 0.758628571,0 1.6912,0 L14.3083429,0 C15.2409143,0 15.9997714,0.758857143 15.9997714,1.69142857 L15.9997714,14.3078095 C15.9997714,15.2411429 15.2409143,16 14.3083429,16 L14.3083429,16 Z" id="path-1"></path>
    </defs>
    <g id="Icons" stroke="none" stroke-width="1" fill="none" fill-rule="evenodd">
        <g id="Content-Center/match_tracker_table_tennis_active">
            <g id="match_tracker_table_tennis_active">
                <path d="M14.3080381,15.6190476 L1.69089524,15.6190476 C0.970133333,15.6190476 0.381180952,15.0293333 0.381180952,14.3078095 L0.381180952,1.69142857 C0.381180952,0.970666667 0.970133333,0.380952381 1.69089524,0.380952381 L14.3080381,0.380952381 C15.0288,0.380952381 15.6192762,0.970666667 15.6192762,1.69142857 L15.6192762,14.3078095 C15.6192762,15.0293333 15.0288,15.6190476 14.3080381,15.6190476" id="Fill-1" fill="#7BD0EA"></path>
                <path d="M1.6912,0.761904762 C1.1784381,0.761904762 0.76167619,1.17866667 0.76167619,1.69142857 L0.76167619,14.3078095 C0.76167619,14.8205714 1.1784381,15.2380952 1.6912,15.2380952 L14.3083429,15.2380952 C14.8203429,15.2380952 15.2378667,14.8205714 15.2378667,14.3078095 L15.2378667,1.69142857 C15.2378667,1.17866667 14.8203429,0.761904762 14.3083429,0.761904762 L1.6912,0.761904762 Z M14.3083429,16 L1.6912,16 C0.758628571,16 -0.000228571429,15.2411429 -0.000228571429,14.3078095 L-0.000228571429,1.69142857 C-0.000228571429,0.758857143 0.758628571,0 1.6912,0 L14.3083429,0 C15.2409143,0 15.9997714,0.758857143 15.9997714,1.69142857 L15.9997714,14.3078095 C15.9997714,15.2411429 15.2409143,16 14.3083429,16 L14.3083429,16 Z" id="Fill-3" fill="#12557A"></path>
                <path d="M15.4300952,8.30506667 L0.569904762,8.30506667 C0.40152381,8.30506667 0.265142857,8.16792381 0.265142857,8.00030476 C0.265142857,7.83192381 0.40152381,7.69478095 0.569904762,7.69478095 L15.4300952,7.69478095 C15.5984762,7.69478095 15.7348571,7.83192381 15.7348571,8.00030476 C15.7348571,8.16792381 15.5984762,8.30506667 15.4300952,8.30506667" id="Fill-6" fill="#FEFEFE"></path>
                <path d="M8,16 C7.78971429,16 7.61904762,15.8293333 7.61904762,15.6190476 L7.61904762,0.463238095 C7.61904762,0.252952381 7.78971429,0.0822857143 8,0.0822857143 C8.21028571,0.0822857143 8.38095238,0.252952381 8.38095238,0.463238095 L8.38095238,15.6190476 C8.38095238,15.8293333 8.21028571,16 8,16" id="Fill-8" fill="#1C84BD"></path>
                <mask id="mask-2" fill="white">
                    <use xlink:href="#path-1"></use>
                </mask>
                <use id="Mask" fill="#1C84BD" xlink:href="#path-1"></use>
            </g>
        </g>
    </g>
</svg>