<svg xmlns="http://www.w3.org/2000/svg" width="16" height="16" viewBox="0 0 16 16">
    <path fill-opacity=".64" fill-rule="evenodd" d="M14.624 0C15.381 0 16 .62 16 1.376v13.248C16 15.38 15.38 16 14.624 16H8.4v-1.199h5.58c.429 0 .778-.35.778-.777V2.062c0-.428-.35-.777-.777-.777H8.4V.01h-.8v1.276H2.02c-.429 0-.778.35-.778.777v11.962c0 .428.35.777.777.777H7.6l.001 1.2H1.376C.619 16 0 15.38 0 14.623V1.376C0 .62.62 0 1.376 0h13.248zM7.6 8.32v5.84H2.02c-.077 0-.138-.06-.138-.136V8.32H7.6zm6.517 0v5.704c0 .076-.06.137-.136.137H8.4V8.32h5.717zM7.6 1.925V7.68H1.882V2.062c0-.075.061-.136.137-.136H7.6zm.8 0l5.58.001c.077 0 .138.061.138.136l-.001 5.617H8.4V1.925z"/>
</svg>
