<svg width="12" height="12" viewBox="0 0 12 12" fill="none" xmlns="http://www.w3.org/2000/svg">
<path fill-rule="evenodd" clip-rule="evenodd" d="M9.53895 3.26612C9.53895 2.89553 9.47105 2.54047 9.33875 2.21012C9.01675 1.40753 8.16625 0.0670588 6.11105 0.00564706V0C6.10571 0 6.10109 0.00073044 6.09656 0.00144828C6.09217 0.00214179 6.08786 0.00282353 6.08305 0.00282353C6.07771 0.00282353 6.07309 0.00209309 6.06856 0.00137525C6.06417 0.000681744 6.05986 0 6.05505 0V0.00564706C3.99915 0.0670588 3.14865 1.40753 2.82735 2.20941C2.69435 2.54047 2.62645 2.89553 2.62645 3.26612V4.34612C1.75285 4.37788 1.05005 5.1 1.05005 5.98871V10.3511C1.05005 11.2602 1.78365 12 2.68525 12H9.48015C10.3817 12 11.1153 11.2602 11.1153 10.3511V5.98871C11.1153 5.1 10.4125 4.37788 9.53895 4.34612V3.26612ZM6.08305 0.709412C7.66435 0.753882 8.37415 1.68988 8.68985 2.47553C8.78925 2.72047 8.83895 2.98659 8.83895 3.26612V4.33977H3.32645V3.26612C3.32645 2.98659 3.37615 2.72047 3.47625 2.47482C3.79125 1.68988 4.50105 0.753882 6.08305 0.709412ZM7.18555 7.78941C7.18555 8.01176 7.11275 8.22212 6.98325 8.39506L7.06515 8.67529L7.20181 9.14349C7.23918 9.2715 7.14318 9.39953 7.00982 9.39953H6.52755H5.63785H5.15557C5.02222 9.39953 4.92622 9.2715 4.96359 9.14349L5.10025 8.67529L5.18215 8.39506C5.05265 8.22212 4.97985 8.01176 4.97985 7.78941C4.97985 7.21271 5.47405 6.74329 6.08305 6.74329C6.69135 6.74329 7.18555 7.21271 7.18555 7.78941Z" fill="#C6C6C6"/>
</svg>
