<svg width="12" height="10" viewBox="0 0 12 10" fill="none" xmlns="http://www.w3.org/2000/svg">
<path fill-rule="evenodd" clip-rule="evenodd" d="M12 5.42385V0.75H7.39177L9.05294 2.43482L6.55838 4.9649C6.36254 5.16352 6.04206 5.1635 5.84625 4.96486L5.10472 4.21261C4.7131 3.81533 4.07214 3.81529 3.68047 4.21254L0.346066 7.59441C0.154144 7.78907 0.154121 8.10177 0.346013 8.29645L0.92985 8.88878C1.12566 9.08744 1.44615 9.08746 1.64199 8.88883L4.03655 6.46018C4.23238 6.26156 4.55287 6.26157 4.74868 6.46022L5.49021 7.21247C5.88183 7.60975 6.52279 7.60978 6.91446 7.21254L10.3388 3.73942L12 5.42385Z" fill="url(#paint0_linear_15418_57231)"/>
<defs>
<linearGradient id="paint0_linear_15418_57231" x1="12" y1="1" x2="2" y2="10.5" gradientUnits="userSpaceOnUse">
<stop stop-color="#3DB893"/>
<stop offset="1" stop-color="#3DB893" stop-opacity="0.16"/>
</linearGradient>
</defs>
</svg>
