<?xml version="1.0" encoding="UTF-8"?>
<svg width="56px" height="56px" viewBox="0 0 56 56" version="1.1" xmlns="http://www.w3.org/2000/svg" xmlns:xlink="http://www.w3.org/1999/xlink">
    <!-- Generator: Sketch 55.1 (78136) - https://sketchapp.com -->
    <title>Login/profile_avatar</title>
    <desc>Created with Sketch.</desc>
    <g id="Icons" stroke="none" stroke-width="1" fill="none" fill-rule="evenodd">
        <g id="Login/profile_avatar">
            <g id="profile_avatar" transform="translate(0.218027, 0.218411)">
                <path d="M55.7328767,28.1159441 L56.2328767,28.1159441 C56.2328767,43.6446608 43.6447468,56.2328767 28.1154498,56.2328767 C12.5878187,56.2328767 1.24344979e-13,43.6443496 1.24344979e-13,28.1159441 C1.24344979e-13,12.5877216 12.5876357,1.0658141e-14 28.1154498,1.0658141e-14 C43.6449298,1.0658141e-14 56.2328767,12.5874104 56.2328767,28.1159441 L55.7328767,28.1159441 Z" id="Path" fill="#FFFFFF" fill-rule="nonzero"></path>
                <path d="M55.7328767,28.1159441 L56.2328767,28.1159441 C56.2328767,12.5874104 43.6449298,1.0658141e-14 28.1154498,1.0658141e-14 C12.5876357,1.0658141e-14 1.24344979e-13,12.5877216 1.24344979e-13,28.1159441 C1.24344979e-13,43.6443496 12.5878187,56.2328767 28.1154498,56.2328767 C43.6447468,56.2328767 56.2328767,43.6446608 56.2328767,28.1159441 L55.7328767,28.1159441 Z M55.7328767,28.1159441 L55.2328767,28.1159441 C55.2328767,43.0923776 43.0924605,55.2328767 28.1154498,55.2328767 C13.140116,55.2328767 1,43.0920774 1,28.1159441 C1,13.1400048 13.1399219,1 28.1154498,1 C43.0926546,1 55.2328767,13.1397047 55.2328767,28.1159441 L55.7328767,28.1159441 Z" id="circle" fill="#F5F2EF" fill-rule="nonzero"></path>
                <path d="M49.5467945,28.1160548 C49.5467945,39.952 39.9523836,49.5471781 28.1156712,49.5471781 C16.2804932,49.5471781 6.68608219,39.952 6.68608219,28.1160548 C6.68608219,16.2801096 16.2804932,6.68569863 28.1156712,6.68569863 C39.9523836,6.68569863 49.5467945,16.2801096 49.5467945,28.1160548" id="circle" fill="#E7DFD9"></path>
                <path d="M43.3604055,43.5079233 C42.6823708,43.7526356 42.2374904,43.7885626 42.0257644,43.6157041 C41.1558466,43.2612932 40.2445041,43.0058411 39.4344219,42.5141151 C39.1498192,42.4688548 38.8774904,42.3990466 38.6826411,42.1658411 C38.5353534,42.1267178 38.4118466,42.028526 38.2637918,41.9871014 C37.8411068,41.8827726 37.4889973,41.6687452 37.2182027,41.3243068 C37.0563397,41.2169096 36.883737,41.1217863 36.7310795,40.9998137 C36.5377644,40.8970192 36.4196274,40.7627726 36.3659288,40.5264986 C36.2953534,40.2181151 36.2025315,39.9143342 36.1189151,39.6097863 C36.0084493,39.3044712 36.0030795,38.9799781 35.937874,38.6654575 C35.8995178,38.4897863 35.8565589,38.3355945 35.6617096,38.282663 C35.4737644,38.189074 35.2950247,38.2788274 35.1185863,38.3164164 C34.7565041,38.394663 34.5593534,38.2811288 34.5018192,37.8983342 C34.4619288,37.622937 34.3859836,37.3452384 34.3729425,37.0736767 C34.3437918,36.4661151 34.251737,35.8209644 34.8347507,35.3737315 C35.5159562,33.995211 36.0176548,32.5514849 36.4265315,31.0701699 C36.5193534,30.7364712 36.6750795,30.4557041 37.1177096,30.4434301 C37.3839014,30.436526 37.6017644,30.2485808 37.6876822,29.9616767 C37.9492712,29.0932932 38.1985863,28.2187726 38.6020932,27.3987178 C38.7256,26.7995945 39.0209425,26.2449644 39.0477918,25.6220603 C39.0416548,25.4977863 39.0746411,25.3735123 39.0623671,25.2500055 C39.049326,25.1993753 39.0255452,25.1564164 38.9910247,25.1172932 C38.968011,25.1027178 38.9465315,25.0866082 38.9250521,25.0674301 C38.937326,24.8020055 38.9580384,24.5365808 38.9488329,24.2719233 C38.9357918,23.9006356 38.7578192,23.5930192 38.3949699,23.4978959 C38.059737,23.4096767 37.9976,23.2255671 38.0190795,22.9279233 C38.0950247,21.7595945 38.1617644,20.5889644 38.2315726,19.4183342 C38.2453808,19.3776767 38.240011,19.3416219 38.2192986,19.3094027 C38.2323397,19.2894575 38.233874,19.2664438 38.2185315,19.2395945 C38.1847781,18.8844164 38.1548603,18.5300055 38.1134356,18.1763616 C38.0190795,17.3302247 37.9270247,16.4741151 37.4828603,15.7246356 C36.6267507,14.2763068 35.4377096,13.1655123 33.9402849,12.404526 C32.6752986,11.7601425 31.3006137,11.4394849 29.9167233,11.1633205 C27.0438466,10.5864438 24.4854904,11.2262247 22.2523945,13.1348274 C22.2616,13.1532384 22.2669699,13.1739507 22.2700384,13.194663 C22.0161205,13.3557589 21.8189699,13.5705534 21.6785863,13.8344438 C21.4100932,14.3338411 21.0203945,14.7396493 20.6168877,15.1178411 C19.872011,15.8151562 19.4631342,16.6237041 19.5851068,17.6516493 C19.5567233,17.6639233 19.5283397,17.6784986 19.5014904,17.699211 C19.4654356,17.7375671 19.4332164,17.780526 19.4102027,17.8288548 C19.2306959,18.6642521 19.4569973,19.4950466 19.4539288,20.3281425 C19.6587507,21.0323616 19.6633534,21.7595945 19.7224219,22.4814575 C19.7546411,22.8780603 19.6449425,23.1465534 19.2613808,23.2815671 C18.7742575,23.4526356 18.5801753,23.8454027 18.515737,24.3148822 C18.4489973,24.8073753 18.4336548,25.2968 18.5686685,25.7877589 C18.7581479,26.4751014 18.9576,27.1593753 19.1792986,27.8367452 C19.5306411,28.4090192 19.7446685,29.0464986 19.872011,29.6893479 C19.9540932,30.1158685 20.1336,30.3613479 20.5064219,30.498663 C20.8132712,30.6098959 20.9812712,30.8200877 21.0487781,31.1346082 C21.1569425,31.6347726 21.3441205,32.1119233 21.4967781,32.5982795 C21.6747507,32.9933479 21.9670247,33.3446904 21.9700932,33.8080329 C21.9746959,33.8555945 21.9831342,33.9031562 22.0046137,33.9476493 C22.8507507,35.2962521 23.3041205,36.7115945 22.7487233,38.3003068 C22.4595178,38.6086904 22.1741479,38.2864986 21.8872438,38.2811288 C21.6003397,38.2757589 21.3579288,38.2496767 21.2873534,38.6033205 C21.0679562,39.2921973 20.9498192,40.0094575 20.7327233,40.6991014 C20.6138192,41.076526 20.4228055,41.3511562 20.0637918,41.5321973 C19.2767233,41.9295671 18.4789151,42.2931836 17.6304767,42.532526 C17.0651068,42.9321973 16.3854356,43.0557041 15.7540932,43.2873753 C14.5259288,43.7399781 14.7052822,43.1680877 13.4425973,43.5079233 C12.7429948,43.6951311 18.9494462,49.6449096 27.2508164,49.6449096 C33.8992183,49.6449096 39.2690813,47.5992475 43.3604055,43.5079233 Z" id="Fill-3" fill="#A59A93"></path>
            </g>
        </g>
    </g>
</svg>