<?xml version="1.0" encoding="UTF-8"?>
<svg width="24px" height="24px" viewBox="0 0 24 24" version="1.1" xmlns="http://www.w3.org/2000/svg" xmlns:xlink="http://www.w3.org/1999/xlink">
    <!-- Generator: Sketch 55.1 (78136) - https://sketchapp.com -->
    <title>Bottom Navigation/bottom_nav_statements_active</title>
    <desc>Created with Sketch.</desc>
    <g id="Icons" stroke="none" stroke-width="1" fill="none" fill-rule="evenodd">
        <g id="Bottom-Navigation/bottom_nav_statements_active" fill="#DEBB69">
            <path d="M22.1081081,1 L5.23054054,1 C4.99401081,1 4.76711351,1.06793359 4.59991351,1.18880469 L1.26126486,3.6015 C1.09394595,3.72237109 1,3.88625391 1,4.05722656 L1,22.3554688 C1,22.7114219 1.39932973,23 1.89189189,23 L22.1081081,23 C22.6006703,23 23,22.7114219 23,22.3554688 L23,1.64453125 C23,1.28857812 22.6006703,1 22.1081081,1 Z M18.5405405,14.0625 L5.45945946,14.0625 C4.9668973,14.0625 4.56756757,13.7739219 4.56756757,13.4179688 C4.56756757,13.0620156 4.9668973,12.7734375 5.45945946,12.7734375 L18.5405405,12.7734375 C19.0331027,12.7734375 19.4324324,13.0620156 19.4324324,13.4179688 C19.4324324,13.7739219 19.0331027,14.0625 18.5405405,14.0625 Z M18.5405405,16.640625 L5.45945946,16.640625 C4.9668973,16.640625 4.56756757,16.3520469 4.56756757,15.9960938 C4.56756757,15.6401406 4.9668973,15.3515625 5.45945946,15.3515625 L18.5405405,15.3515625 C19.0331027,15.3515625 19.4324324,15.6401406 19.4324324,15.9960938 C19.4324324,16.3520469 19.0331027,16.640625 18.5405405,16.640625 Z M18.5405405,11.484375 L5.45945946,11.484375 C4.9668973,11.484375 4.56756757,11.1957969 4.56756757,10.8398438 C4.56756757,10.4838906 4.9668973,10.1953125 5.45945946,10.1953125 L18.5405405,10.1953125 C19.0331027,10.1953125 19.4324324,10.4838906 19.4324324,10.8398438 C19.4324324,11.1957969 19.0331027,11.484375 18.5405405,11.484375 Z M18.5405405,8.90625 L13.7837838,8.90625 C13.2912216,8.90625 12.8918919,8.61767187 12.8918919,8.26171875 C12.8918919,7.90576563 13.2912216,7.6171875 13.7837838,7.6171875 L18.5405405,7.6171875 C19.0331027,7.6171875 19.4324324,7.90576563 19.4324324,8.26171875 C19.4324324,8.61767187 19.0331027,8.90625 18.5405405,8.90625 Z" id="bottom_nav_statements_active"></path>
        </g>
    </g>
</svg>