<?xml version="1.0" encoding="UTF-8"?>
<svg width="16px" height="16px" viewBox="0 0 16 16" version="1.1" xmlns="http://www.w3.org/2000/svg" xmlns:xlink="http://www.w3.org/1999/xlink">
    <!-- Generator: Sketch 55.1 (78136) - https://sketchapp.com -->
    <title>Content Center/match_tracker_ice_hockey_normal</title>
    <desc>Created with Sketch.</desc>
    <g id="Icons" stroke="none" stroke-width="1" fill="none" fill-rule="evenodd">
        <g id="Content-Center/match_tracker_ice_hockey_normal">
            <g id="match_tracker_ice_hockey_normal">
                <rect id="Rectangle" fill="#EEF6FC" x="0.666666667" y="0.666666667" width="14.6666667" height="14.6666667" rx="0.666666667"></rect>
                <path d="M5.49851429,15.9237333 C5.33013333,15.9237333 5.19375238,15.7873524 5.19375238,15.6189714 L5.19375238,0.523352381 C5.19375238,0.354971429 5.33013333,0.218590476 5.49851429,0.218590476 C5.66689524,0.218590476 5.80327619,0.354971429 5.80327619,0.523352381 L5.80327619,15.6189714 C5.80327619,15.7873524 5.66689524,15.9237333 5.49851429,15.9237333" id="Fill-1" fill="#195B87"></path>
                <path d="M8,15.9237333 C7.83161905,15.9237333 7.6952381,15.7873524 7.6952381,15.6189714 L7.6952381,0.38087619 C7.6952381,0.212495238 7.83161905,0.0761142857 8,0.0761142857 C8.16838095,0.0761142857 8.3047619,0.212495238 8.3047619,0.38087619 L8.3047619,15.6189714 C8.3047619,15.7873524 8.16838095,15.9237333 8,15.9237333" id="Fill-3" fill="#EE3734"></path>
                <path d="M0.586285714,9.58857143 C0.417904762,9.58857143 0.28152381,9.45219048 0.28152381,9.28380952 C0.28152381,9.11542857 0.417904762,8.97904762 0.586285714,8.97904762 C1.21333333,8.97904762 1.72304762,8.46933333 1.72304762,7.84228571 C1.72304762,7.21447619 1.21333333,6.7047619 0.586285714,6.7047619 C0.417904762,6.7047619 0.28152381,6.56838095 0.28152381,6.4 C0.28152381,6.23161905 0.417904762,6.0952381 0.586285714,6.0952381 C1.54933333,6.0952381 2.33333333,6.87847619 2.33333333,7.84228571 C2.33333333,8.80533333 1.54933333,9.58857143 0.586285714,9.58857143" id="Fill-5" fill="#195B87"></path>
                <path d="M12.9806476,5.3944381 C12.0671238,5.3944381 11.3235048,4.65158095 11.3235048,3.73805714 C11.3235048,2.82453333 12.0671238,2.08167619 12.9806476,2.08167619 C13.8934095,2.08167619 14.6370286,2.82453333 14.6370286,3.73805714 C14.6370286,4.65158095 13.8934095,5.3944381 12.9806476,5.3944381 Z M12.9806476,2.6912 C12.4031238,2.6912 11.9337905,3.16053333 11.9337905,3.73805714 C11.9337905,4.31558095 12.4031238,4.78491429 12.9806476,4.78491429 C13.5574095,4.78491429 14.0267429,4.31558095 14.0267429,3.73805714 C14.0267429,3.16053333 13.5574095,2.6912 12.9806476,2.6912 Z" id="Combined-Shape" fill="#EE3734"></path>
                <path d="M10.5014857,15.994819 C10.3331048,15.994819 10.1967238,15.8584381 10.1967238,15.6900571 L10.1967238,0.451961905 C10.1967238,0.283580952 10.3331048,0.1472 10.5014857,0.1472 C10.6698667,0.1472 10.8062476,0.283580952 10.8062476,0.451961905 L10.8062476,15.6900571 C10.8062476,15.8584381 10.6698667,15.994819 10.5014857,15.994819" id="Fill-9" fill="#195B87"></path>
                <path d="M8,9.58841905 C7.03695238,9.58841905 6.25295238,8.80518095 6.25295238,7.84213333 C6.25295238,6.87908571 7.03695238,6.09508571 8,6.09508571 C8.96380952,6.09508571 9.74780952,6.87908571 9.74780952,7.84213333 C9.74780952,8.80518095 8.96380952,9.58841905 8,9.58841905 Z M8,6.70460952 C7.37295238,6.70460952 6.8632381,7.21432381 6.8632381,7.84213333 C6.8632381,8.46918095 7.37295238,8.97889524 8,8.97889524 C8.62704762,8.97889524 9.13752381,8.46918095 9.13752381,7.84213333 C9.13752381,7.21432381 8.62704762,6.70460952 8,6.70460952 Z" id="Combined-Shape" fill="#195B87"></path>
                <path d="M15.4144,9.58857143 C14.4505905,9.58857143 13.6665905,8.80533333 13.6665905,7.84228571 C13.6665905,6.87847619 14.4505905,6.0952381 15.4144,6.0952381 C15.582781,6.0952381 15.7191619,6.23161905 15.7191619,6.4 C15.7191619,6.56838095 15.582781,6.7047619 15.4144,6.7047619 C14.7873524,6.7047619 14.2768762,7.21447619 14.2768762,7.84228571 C14.2768762,8.46933333 14.7873524,8.97904762 15.4144,8.97904762 C15.582781,8.97904762 15.7191619,9.11542857 15.7191619,9.28380952 C15.7191619,9.45219048 15.582781,9.58857143 15.4144,9.58857143" id="Fill-13" fill="#195B87"></path>
                <path d="M1.6919619,0.761904762 C1.1792,0.761904762 0.76167619,1.17866667 0.76167619,1.69142857 L0.76167619,14.3085714 C0.76167619,14.8213333 1.1792,15.2380952 1.6919619,15.2380952 L14.3091048,15.2380952 C14.8211048,15.2380952 15.2378667,14.8213333 15.2378667,14.3085714 L15.2378667,1.69142857 C15.2378667,1.17866667 14.8211048,0.761904762 14.3091048,0.761904762 L1.6919619,0.761904762 Z M14.3091048,16 L1.6919619,16 C0.758628571,16 -0.000228571429,15.2411429 -0.000228571429,14.3085714 L-0.000228571429,1.69142857 C-0.000228571429,0.758857143 0.758628571,0 1.6919619,0 L14.3091048,0 C15.2409143,0 15.9997714,0.758857143 15.9997714,1.69142857 L15.9997714,14.3085714 C15.9997714,15.2411429 15.2409143,16 14.3091048,16 L14.3091048,16 Z" id="Fill-15" fill="#195B87"></path>
                <path d="M12.9806476,13.6016762 C12.0671238,13.6016762 11.3235048,12.858819 11.3235048,11.9460571 C11.3235048,11.0325333 12.0671238,10.2896762 12.9806476,10.2896762 C13.8934095,10.2896762 14.6370286,11.0325333 14.6370286,11.9460571 C14.6370286,12.858819 13.8934095,13.6016762 12.9806476,13.6016762 Z M12.9806476,10.8992 C12.4031238,10.8992 11.9337905,11.3685333 11.9337905,11.9460571 C11.9337905,12.522819 12.4031238,12.9929143 12.9806476,12.9929143 C13.5574095,12.9929143 14.0267429,12.522819 14.0267429,11.9460571 C14.0267429,11.3685333 13.5574095,10.8992 12.9806476,10.8992 Z" id="Combined-Shape" fill="#EE3734"></path>
                <path d="M3.02011429,5.3944381 C2.10735238,5.3944381 1.36373333,4.65158095 1.36373333,3.73805714 C1.36373333,2.82453333 2.10735238,2.08167619 3.02011429,2.08167619 C3.93287619,2.08167619 4.67649524,2.82453333 4.67649524,3.73805714 C4.67649524,4.65158095 3.93287619,5.3944381 3.02011429,5.3944381 Z M3.02011429,2.6912 C2.44335238,2.6912 1.97401905,3.16053333 1.97401905,3.73805714 C1.97401905,4.31558095 2.44335238,4.78491429 3.02011429,4.78491429 C3.59687619,4.78491429 4.06620952,4.31558095 4.06620952,3.73805714 C4.06620952,3.16053333 3.59687619,2.6912 3.02011429,2.6912 Z" id="Combined-Shape" fill="#EE3734"></path>
                <path d="M3.02011429,13.6016762 C2.10735238,13.6016762 1.36373333,12.858819 1.36373333,11.9460571 C1.36373333,11.0325333 2.10735238,10.2896762 3.02011429,10.2896762 C3.93287619,10.2896762 4.67649524,11.0325333 4.67649524,11.9460571 C4.67649524,12.858819 3.93287619,13.6016762 3.02011429,13.6016762 Z M3.02011429,10.8992 C2.44335238,10.8992 1.97401905,11.3685333 1.97401905,11.9460571 C1.97401905,12.522819 2.44335238,12.9929143 3.02011429,12.9929143 C3.59687619,12.9929143 4.06620952,12.522819 4.06620952,11.9460571 C4.06620952,11.3685333 3.59687619,10.8992 3.02011429,10.8992 Z" id="Combined-Shape" fill="#EE3734"></path>
            </g>
        </g>
    </g>
</svg>