<?xml version="1.0" encoding="UTF-8"?>
<svg width="16px" height="16px" viewBox="0 0 16 16" version="1.1" xmlns="http://www.w3.org/2000/svg" xmlns:xlink="http://www.w3.org/1999/xlink">
    <!-- Generator: Sketch 55.1 (78136) - https://sketchapp.com -->
    <title>Content Center/match_tracker_darts_active</title>
    <desc>Created with Sketch.</desc>
    <g id="Icons" stroke="none" stroke-width="1" fill="none" fill-rule="evenodd">
        <g id="Content-Center/match_tracker_darts_active">
            <g id="match_tracker_darts_active" transform="translate(-0.000256, 0.000256)">
                <path d="M15.4791016,7.970324 C15.4791016,12.11966 12.1159416,15.48282 7.9666056,15.48282 C3.8179336,15.48282 0.4541096,12.11966 0.4541096,7.970324 C0.4541096,3.821652 3.8179336,0.458492 7.9666056,0.458492 C12.1159416,0.458492 15.4791016,3.821652 15.4791016,7.970324" id="Fill-1" fill="#717171"></path>
                <path d="M9.6853032,7.970324 C9.6853032,8.82954 8.9894312,9.525412 8.1308792,9.525412 C7.2716632,9.525412 6.5757912,8.82954 6.5757912,7.970324 C6.5757912,7.111772 7.2716632,6.4159 8.1308792,6.4159 C8.9894312,6.4159 9.6853032,7.111772 9.6853032,7.970324" id="Fill-3" fill="#F76B6A"></path>
                <polygon id="Fill-5" fill="#FEFEFE" points="12.1947584 3.9765632 13.6190384 6.4692192 9.5951984 7.5661472 9.1961344 6.7905952"></polygon>
                <polygon id="Fill-7" fill="#FEFEFE" points="2.446176 6.3530856 3.955448 3.9108936 6.574928 6.5396696 6.201096 7.3324856"></polygon>
                <polygon id="Fill-9" fill="#FEFEFE" points="6.720012 2.3496304 9.571228 2.6856144 8.296348 6.1696224 7.420532 6.1663024"></polygon>
                <polygon id="Fill-11" fill="#FEFEFE" points="13.6693032 9.643936 12.3532552 12.12132 9.1467992 9.172496 9.7058872 8.463344"></polygon>
                <polygon id="Fill-13" fill="#FEFEFE" points="9.3436088 13.9677048 6.3489688 13.8083448 7.5269048 9.6019048 8.3960808 9.6019048"></polygon>
                <polygon id="Fill-15" fill="#FEFEFE" points="3.7171384 12.1215856 2.1261944 9.4469936 6.2396744 8.4257616 6.7416584 9.1920176"></polygon>
                <polygon id="Fill-17" fill="#B5DE9D" points="6.3056096 2.318688 9.8792576 2.318688 9.8792576 0.609552 6.3056096 0.609552"></polygon>
                <polygon id="Fill-19" fill="#F76B6A" points="12.4444224 3.9519288 9.4577504 2.5077288 10.2047504 0.6843848 13.2989904 2.4718728"></polygon>
                <polygon id="Fill-20" fill="#B5DE9D" points="13.9475192 6.7279136 12.0889832 3.8282256 13.5285352 2.9059296 15.3864072 5.8056176"></polygon>
                <polygon id="Fill-21" fill="#F76B6A" points="13.7377616 9.95668 15.4468976 9.95668 15.4468976 6.382368 13.7377616 6.382368"></polygon>
                <polygon id="Fill-22" fill="#B5DE9D" points="12.3529896 12.1215856 13.6690376 9.6442016 15.4425816 10.1422016 13.3330536 13.4522416"></polygon>
                <polygon id="Fill-23" fill="#F76B6A" points="9.3436088 13.9677048 12.3528568 12.1217848 13.3329208 13.4524408 10.0753368 15.5121688"></polygon>
                <polygon id="Fill-24" fill="#B5DE9D" points="6.1656384 13.8672416 9.7386224 13.8061536 9.7678384 15.5146256 6.1948544 15.5763776"></polygon>
                <polygon id="Fill-25" fill="#F76B6A" points="3.4771688 12.1923016 6.6019528 13.9253416 5.7726168 15.4200056 2.6478328 13.6869656"></polygon>
                <polygon id="Fill-26" fill="#B5DE9D" points="2.12646 9.4467944 3.717404 12.1213864 2.176924 13.4075544 0.593948 10.2044184"></polygon>
                <polygon id="Fill-27" fill="#F76B6A" points="2.446176 6.3530856 2.324 9.5562216 0.382464 9.7813176 0.415664 5.9168376"></polygon>
                <polygon id="Fill-28" fill="#B5DE9D" points="3.9881832 3.5116304 2.2544792 6.6364144 0.7598152 5.8077424 2.4935192 2.6822944"></polygon>
                <polygon id="Fill-29" fill="#F76B6A" points="6.720012 2.3496304 3.811028 3.9817424 2.795772 2.6065984 5.670892 0.4831264"></polygon>
                <path d="M7.980616,0.652048 C3.939512,0.652048 0.652712,3.938848 0.652712,7.979952 C0.652712,12.021056 3.939512,15.307856 7.980616,15.307856 C12.02172,15.307856 15.30852,12.021056 15.30852,7.979952 C15.30852,3.938848 12.02172,0.652048 7.980616,0.652048 M7.980616,15.960568 C3.580288,15.960568 5.77315973e-14,12.38028 5.77315973e-14,7.979952 C5.77315973e-14,3.579624 3.580288,-4.35207426e-14 7.980616,-4.35207426e-14 C12.380944,-4.35207426e-14 15.961232,3.579624 15.961232,7.979952 C15.961232,12.38028 12.380944,15.960568 7.980616,15.960568" id="Fill-30" fill="#494949"></path>
                <path d="M7.980616,2.601884 C4.92356,2.601884 2.435552,5.089228 2.435552,8.147612 C2.435552,11.204668 4.92356,13.692012 7.980616,13.692012 C11.038336,13.692012 13.526344,11.204668 13.526344,8.147612 C13.526344,5.089228 11.038336,2.601884 7.980616,2.601884 M7.980616,14.259732 C4.610152,14.259732 1.868496,11.518076 1.868496,8.147612 C1.868496,4.776484 4.610152,2.034828 7.980616,2.034828 C11.35108,2.034828 14.092736,4.776484 14.092736,8.147612 C14.092736,11.518076 11.35108,14.259732 7.980616,14.259732" id="Fill-31" fill="#494949"></path>
                <path d="M7.980616,6.6228688 C7.2376,6.6228688 6.63336,7.2277728 6.63336,7.9701248 C6.63336,8.7131408 7.2376,9.3187088 7.980616,9.3187088 C8.723632,9.3187088 9.327872,8.7131408 9.327872,7.9701248 C9.327872,7.2277728 8.723632,6.6228688 7.980616,6.6228688 M7.980616,9.8851008 C6.924856,9.8851008 6.06564,9.0265488 6.06564,7.9701248 C6.06564,6.9143648 6.924856,6.0558128 7.980616,6.0558128 C9.036376,6.0558128 9.895592,6.9143648 9.895592,7.9701248 C9.895592,9.0265488 9.036376,9.8851008 7.980616,9.8851008" id="Fill-32" fill="#494949"></path>
                <polygon id="Fill-33" fill="#494949" points="8.6932208 6.4880104 8.1467488 6.3352904 9.7702288 0.5319304 10.3167008 0.6853144"></polygon>
                <polygon id="Fill-34" fill="#494949" points="15.2755192 10.3163688 9.6295272 8.7367128 9.7829112 8.1895768 15.4282392 9.7698968"></polygon>
                <polygon id="Fill-35" fill="#494949" points="9.6042952 15.4649584 8.1209192 9.6715584 8.6713752 9.5314544 10.1547512 15.3248544"></polygon>
                <polygon id="Fill-36" fill="#494949" points="9.6652504 7.8419064 9.5251464 7.2914504 15.3258504 5.8060824 15.4659544 6.3565384"></polygon>
                <polygon id="Fill-37" fill="#494949" points="13.1304672 13.6499808 8.9439472 9.3705008 9.3496512 8.9740928 13.5355072 13.2535728"></polygon>
                <polygon id="Fill-38" fill="#494949" points="2.7068624 13.5345776 2.3104544 13.1295376 6.5427904 8.9894976 6.9398624 9.3952016"></polygon>
                <polygon id="Fill-39" fill="#494949" points="6.1908704 15.427376 5.6443984 15.274656 7.2539344 9.52508 7.8004064 9.678464"></polygon>
                <polygon id="Fill-40" fill="#494949" points="6.2291832 7.7842048 0.5327272 6.1906048 0.6854472 5.6434688 6.3819032 7.2377328"></polygon>
                <polygon id="Fill-41" fill="#494949" points="7.2757136 6.3738688 5.8062816 0.6349168 6.3567376 0.4948128 7.8261696 6.2337648"></polygon>
                <polygon id="Fill-42" fill="#494949" points="0.6363776 10.1542864 0.4949456 9.6038304 6.1694896 8.1503344 6.3109216 8.7007904"></polygon>
                <polygon id="Fill-43" fill="#494949" points="6.6350864 7.0099808 2.4259904 2.7059328 2.8310304 2.3095248 7.0401264 6.6129088"></polygon>
                <polygon id="Fill-44" fill="#494949" points="9.3948032 6.9937792 8.9977312 6.5887392 13.2539712 2.4254592 13.6503792 2.8304992"></polygon>
            </g>
        </g>
    </g>
</svg>