<?xml version="1.0" encoding="utf-8"?>
<!-- Generator: Adobe Illustrator 23.0.3, SVG Export Plug-In . SVG Version: 6.00 Build 0)  -->
<svg version="1.1" id="Layer_1" xmlns="http://www.w3.org/2000/svg" xmlns:xlink="http://www.w3.org/1999/xlink" x="0px" y="0px"
	 viewBox="0 0 16 16" style="enable-background:new 0 0 16 16;" xml:space="preserve">
<style type="text/css">
	.st0{fill-rule:evenodd;clip-rule:evenodd;fill:#FFFFFF;fill-opacity:0.56;}
</style>
<title>Button Icons/close</title>
<desc>Created with Sketch.</desc>
<path id="close_dark" class="st0" d="M8,7.2l6-6c0.2-0.2,0.6-0.2,0.8,0c0.2,0.2,0.2,0.6,0,0.8l-6,6l6,6c0.2,0.2,0.2,0.6,0,0.8
	c-0.2,0.2-0.6,0.2-0.8,0l-6-6l-6,6c-0.2,0.2-0.6,0.2-0.8,0c-0.2-0.2-0.2-0.6,0-0.8l6-6l-6-6c-0.2-0.2-0.2-0.6,0-0.8s0.6-0.2,0.8,0
	L8,7.2z"/>
</svg>
