<?xml version="1.0" encoding="utf-8"?>
<!-- Generator: Adobe Illustrator 23.1.0, SVG Export Plug-In . SVG Version: 6.00 Build 0)  -->
<svg version="1.1" id="圖層_1" xmlns="http://www.w3.org/2000/svg" xmlns:xlink="http://www.w3.org/1999/xlink" x="0px" y="0px"
	 viewBox="0 0 56 112" style="enable-background:new 0 0 56 112;" xml:space="preserve">
<style type="text/css">
	.st0{fill:#FFFFFF;}
	.st1{fill:#F2F2F2;}
	.st2{fill-rule:evenodd;clip-rule:evenodd;fill:#B7AEA9;}
	.st3{fill-rule:evenodd;clip-rule:evenodd;fill:#C5BFBA;}
	.st4{fill-rule:evenodd;clip-rule:evenodd;fill:#A59A93;}
	.st5{fill-rule:evenodd;clip-rule:evenodd;fill:#68503D;}
	.st6{fill-rule:evenodd;clip-rule:evenodd;fill:#7A695C;}
	.st7{fill-rule:evenodd;clip-rule:evenodd;fill:#503F32;}
</style>
<g>
	<circle class="st0" cx="27.8" cy="27.8" r="27.8"/>
	<circle class="st1" cx="26.9" cy="27" r="19.4"/>
	<path class="st1" d="M55.5,27.8c0-0.9,0-1.7-0.1-2.5l-12-12L11.9,42.1l13.3,13.3c0.8,0.1,1.7,0.1,2.5,0.1
		C43.1,55.5,55.5,43.1,55.5,27.8z"/>
	<path class="st2" d="M17.1,25l-6.2-10.7c3.9-4.9,10-8.1,16.8-8.1c7.9,0,14.8,4.2,18.5,10.5H28.7c-0.3,0-0.6,0-1,0
		C22.6,16.8,18.3,20.3,17.1,25z"/>
	<path class="st3" d="M35.5,19.9h12.3c1,2.4,1.5,5.1,1.5,7.9c0,11.8-9.5,21.4-21.3,21.5L36.8,34c1.2-1.8,2-3.9,2-6.3
		C38.8,24.7,37.5,21.9,35.5,19.9z"/>
	<path class="st3" d="M19.9,27.8c0-4.3,3.5-7.8,7.8-7.8s7.8,3.5,7.8,7.8s-3.5,7.8-7.8,7.8S19.9,32.1,19.9,27.8z"/>
	<path class="st4" d="M30.7,38.4L24.5,49C14.2,47.5,6.3,38.5,6.3,27.8c0-3.8,1-7.4,2.8-10.5l8.8,15.2c1.8,3.7,5.6,6.3,10,6.3
		C28.8,38.8,29.8,38.6,30.7,38.4z"/>
</g>
<g>
	<circle class="st0" cx="28" cy="84.2" r="27.8"/>
	<circle class="st1" cx="27.1" cy="83.5" r="19.4"/>
	<path class="st1" d="M55.8,84.2c0-0.9,0-1.7-0.1-2.5l-12-12L12.2,98.6l13.3,13.3c0.8,0.1,1.7,0.1,2.5,0.1
		C43.3,112,55.8,99.6,55.8,84.2z"/>
	<path class="st5" d="M17.3,81.5l-6.2-10.7c3.9-4.9,10-8.1,16.8-8.1c7.9,0,14.8,4.2,18.5,10.5H29c-0.3,0-0.6,0-1,0
		C22.9,73.2,18.6,76.8,17.3,81.5z"/>
	<path class="st6" d="M35.7,76.4H48c1,2.4,1.5,5.1,1.5,7.9c0,11.8-9.5,21.4-21.3,21.5L37,90.5c1.2-1.8,2-3.9,2-6.3
		C39,81.2,37.7,78.4,35.7,76.4z"/>
	<path class="st7" d="M20.2,84.2c0-4.3,3.5-7.8,7.8-7.8s7.8,3.5,7.8,7.8s-3.5,7.8-7.8,7.8S20.2,88.6,20.2,84.2z"/>
	<path class="st7" d="M30.9,94.8l-6.2,10.7C14.4,104,6.5,95,6.5,84.2c0-3.8,1-7.4,2.8-10.5L18,88.9c1.8,3.7,5.6,6.3,10,6.3
		C29,95.2,30,95.1,30.9,94.8z"/>
</g>
</svg>
