<svg width="12" height="10" viewBox="0 0 12 10" fill="none" xmlns="http://www.w3.org/2000/svg">
<path fill-rule="evenodd" clip-rule="evenodd" d="M12 4.57615V9.25H7.39177L9.05294 7.56518L6.55838 5.0351C6.36254 4.83648 6.04206 4.8365 5.84625 5.03514L5.10472 5.78739C4.7131 6.18467 4.07214 6.18471 3.68047 5.78746L0.346066 2.40559C0.154144 2.21093 0.154121 1.89823 0.346013 1.70355L0.92985 1.11122C1.12566 0.912564 1.44615 0.91254 1.64199 1.11117L4.03655 3.53982C4.23238 3.73844 4.55287 3.73843 4.74868 3.53978L5.49021 2.78753C5.88183 2.39025 6.52279 2.39022 6.91446 2.78746L10.3388 6.26058L12 4.57615Z" fill="url(#paint0_linear_15418_57223)"/>
<defs>
<linearGradient id="paint0_linear_15418_57223" x1="11.5" y1="9.5" x2="2" y2="-3.20349e-07" gradientUnits="userSpaceOnUse">
<stop stop-color="#CE3636"/>
<stop offset="1" stop-color="#CE3636" stop-opacity="0.16"/>
</linearGradient>
</defs>
</svg>
