<svg xmlns="http://www.w3.org/2000/svg" width="16" height="16" viewBox="0 0 16 16">
    <path fill="#000" fill-opacity=".64" fill-rule="evenodd" d="M15.066 7.09c.263 0 .487.097.674.29a.881.881 0 0 1 .259.684.861.861 0 0 1-.29.601.89.89 0 0 1-.622.25H3.212l4.476 4.31c.18.18.273.393.28.642a.842.842 0 0 1-.259.643.87.87 0 0 1-.663.29.89.89 0 0 1-.622-.249L.29 8.645A.858.858 0 0 1 0 7.992c0-.256.097-.473.29-.653l6.093-5.885a.99.99 0 0 1 .663-.249c.249 0 .46.093.632.28a.93.93 0 0 1 .26.653.847.847 0 0 1-.291.642L3.171 7.09h11.895z"/>
</svg>
