<svg xmlns="http://www.w3.org/2000/svg" xmlns:xlink="http://www.w3.org/1999/xlink" width="15" height="11" viewBox="0 0 15 11">
    <defs>
        <path id="a" d="M4 .938v6.108H.207V.938H4z"/>
    </defs>
    <g fill="none" fill-rule="evenodd">
        <path fill="#010202" d="M12.93 1.44a.262.262 0 0 0 .07-.174.266.266 0 0 0-.264-.266H1.265a.267.267 0 0 0-.267.266c0 .074.032.141.08.19l5.755 4.843c.047.037.1.068.165.068a.263.263 0 0 0 .164-.068l5.768-4.86zM3.793 5.816L.415 2.973a.266.266 0 0 0-.415.22v5.854l3.793-3.231z"/>
        <g transform="translate(10 1.99)">
            <mask id="b" fill="#fff">
                <use xlink:href="#a"/>
            </mask>
            <path fill="#010202" d="M3.733.938a.267.267 0 0 0-.148.045L.207 3.827l3.353 2.84c.001.002.004.001.005.002L4 7.046V1.204a.267.267 0 0 0-.267-.266" mask="url(#b)"/>
        </g>
        <path fill="#010202" d="M13.46 10.537L9.103 6.74 7.159 8.374a.29.29 0 0 1-.164.062.287.287 0 0 1-.154-.062L4.897 6.74.54 10.537a.279.279 0 0 0-.07.17c0 .156.126.282.282.282h12.496a.282.282 0 0 0 .282-.282.279.279 0 0 0-.07-.17"/>
    </g>
</svg>
