<?xml version="1.0" encoding="utf-8"?>
<!-- Generator: Adobe Illustrator 22.1.0, SVG Export Plug-In . SVG Version: 6.00 Build 0)  -->
<svg version="1.1" id="圖層_1" xmlns="http://www.w3.org/2000/svg" xmlns:xlink="http://www.w3.org/1999/xlink" x="0px" y="0px"
	 width="16px" height="16px" viewBox="0 0 16 16" style="enable-background:new 0 0 16 16;" xml:space="preserve">
<style type="text/css">
	.st0{clip-path:url(#SVGID_2_);}
	.st1{clip-path:url(#SVGID_4_);}
</style>
<g>
	<defs>
		<rect id="SVGID_1_" y="0" width="16" height="16"/>
	</defs>
	<clipPath id="SVGID_2_">
		<use xlink:href="#SVGID_1_"  style="overflow:visible;"/>
	</clipPath>
	<g class="st0">
		<g>
			<defs>
				<rect id="SVGID_3_" y="0" width="16" height="16"/>
			</defs>
			<clipPath id="SVGID_4_">
				<use xlink:href="#SVGID_3_"  style="overflow:visible;"/>
			</clipPath>
			<g class="st1">
				<path d="M11.3,10h-0.9v2.5c0,0.1,0,0.1-0.1,0.2c-0.1,0.1-0.1,0.1-0.2,0.1H8.4V4.2c0-0.4-0.1-0.8-0.3-1.2
					C7.9,2.7,7.6,2.4,7.2,2.3l-2-0.8h4.9c0,0,0.1,0,0.1,0c0,0,0.1,0,0.1,0.1c0,0,0,0.1,0.1,0.1c0,0,0,0.1,0,0.1v3.7h0.9
					c0.1,0,0.2,0,0.2,0c0.1,0,0.1-0.1,0.2-0.1c0.1-0.1,0.1-0.1,0.1-0.2c0-0.1,0-0.1,0-0.2V1.8c0-0.2,0-0.5-0.1-0.7
					c-0.1-0.2-0.2-0.4-0.4-0.6c-0.2-0.2-0.4-0.3-0.6-0.4C10.5,0,10.3,0,10.1,0H1.3c-0.4,0-0.7,0.2-1,0.5C0.1,0.8-0.1,1.1,0,1.5v11.2
					c0,0.4,0.1,0.7,0.3,1c0.2,0.3,0.5,0.5,0.9,0.5L6.9,16c0.2,0,0.4,0,0.6-0.1c0.2-0.1,0.4-0.2,0.5-0.3c0.1-0.1,0.3-0.3,0.3-0.5
					c0.1-0.2,0.1-0.4,0.1-0.6v-0.2h1.7c0.2,0,0.5,0,0.7-0.1c0.2-0.1,0.4-0.2,0.6-0.4c0.2-0.2,0.3-0.4,0.4-0.6
					c0.1-0.2,0.1-0.5,0.1-0.7v-1.8c0-0.1,0-0.2,0-0.3s-0.1-0.2-0.1-0.2c-0.1-0.1-0.1-0.1-0.2-0.1C11.4,10.1,11.3,10,11.3,10z"/>
				<path d="M15.8,7l-1.9-2.1c-0.1-0.1-0.2-0.2-0.3-0.2c-0.1,0-0.3,0-0.4,0c-0.1,0-0.2,0.1-0.3,0.2c-0.1,0.1-0.1,0.2-0.1,0.4V6
					c0,0.2-0.1,0.3-0.2,0.5c-0.1,0.1-0.3,0.2-0.5,0.2H10c-0.2,0-0.3,0.1-0.4,0.2C9.5,6.9,9.4,7.1,9.4,7.2v1c0,0.2,0.1,0.3,0.2,0.4
					C9.7,8.8,9.9,8.9,10,8.9h2.1c0.2,0,0.3,0.1,0.5,0.2c0.1,0.1,0.2,0.3,0.2,0.5V10c0,0.1,0,0.3,0.1,0.4c0.1,0.1,0.2,0.2,0.3,0.2
					c0.1,0,0.3,0.1,0.4,0c0.1,0,0.2-0.1,0.3-0.2l1.9-2.1C15.9,8.1,16,7.9,16,7.7C16,7.4,15.9,7.2,15.8,7z"/>
			</g>
		</g>
	</g>
</g>
</svg>
