<?xml version="1.0" encoding="utf-8"?>
<!-- Generator: Adobe Illustrator 22.1.0, SVG Export Plug-In . SVG Version: 6.00 Build 0)  -->
<svg version="1.1" id="圖層_1" xmlns="http://www.w3.org/2000/svg" xmlns:xlink="http://www.w3.org/1999/xlink" x="0px" y="0px"
	 width="24px" height="58px" viewBox="0 0 24 58" style="enable-background:new 0 0 24 58;" xml:space="preserve">
<style type="text/css">
	.st0{fill:#666666;}
	.st1{filter:url(#Adobe_OpacityMaskFilter);}
	.st2{fill:#FFFFFF;}
	.st3{mask:url(#b_1_);fill:#666666;}
	.st4{fill:#C34235;}
	.st5{filter:url(#Adobe_OpacityMaskFilter_1_);}
	.st6{mask:url(#b_2_);fill:#C34235;}
</style>
<g>
	<path class="st0" d="M21.2,38.3c-4.3,3-5.3,8.9-2.3,13.2c0.6,0.9,1.4,1.7,2.3,2.3C23,51.6,24,48.8,24,46
		C24,43.1,22.9,40.4,21.2,38.3 M2.8,38.3C1,40.4,0,43.2,0,46c0,2.9,1.1,5.6,2.8,7.7c4.3-3,5.3-8.9,2.3-13.2
		C4.5,39.7,3.7,38.9,2.8,38.3"/>
	<g transform="translate(4)">
		<defs>
			<filter id="Adobe_OpacityMaskFilter" filterUnits="userSpaceOnUse" x="0.7" y="34" width="14.6" height="24">
				<feColorMatrix  type="matrix" values="1 0 0 0 0  0 1 0 0 0  0 0 1 0 0  0 0 0 1 0"/>
			</filter>
		</defs>
		<mask maskUnits="userSpaceOnUse" x="0.7" y="34" width="14.6" height="24" id="b_1_">
			<g class="st1">
				<path id="a_1_" class="st2" d="M0.7,34h14.6v24H0.7L0.7,34z"/>
			</g>
		</mask>
		<path class="st3" d="M10.6,46c0-3.9,1.8-7.3,4.7-9.5C13.2,34.9,10.7,34,8,34c-2.8,0-5.3,0.9-7.3,2.5c2.8,2.2,4.7,5.6,4.7,9.5
			c0,3.9-1.8,7.3-4.7,9.5C2.8,57.1,5.3,58,8,58c2.8,0,5.3-0.9,7.3-2.5C12.5,53.3,10.6,49.9,10.6,46"/>
	</g>
</g>
<g>
	<path class="st4" d="M21.2,4.3c-4.3,3-5.3,8.9-2.3,13.2c0.6,0.9,1.4,1.7,2.3,2.3C23,17.6,24,14.8,24,12C24,9.1,22.9,6.4,21.2,4.3
		 M2.8,4.3C1,6.4,0,9.2,0,12c0,2.9,1.1,5.6,2.8,7.7c4.3-3,5.3-8.9,2.3-13.2C4.5,5.7,3.7,4.9,2.8,4.3"/>
	<g transform="translate(4)">
		<defs>
			<filter id="Adobe_OpacityMaskFilter_1_" filterUnits="userSpaceOnUse" x="0.7" y="0" width="14.6" height="24">
				<feColorMatrix  type="matrix" values="1 0 0 0 0  0 1 0 0 0  0 0 1 0 0  0 0 0 1 0"/>
			</filter>
		</defs>
		<mask maskUnits="userSpaceOnUse" x="0.7" y="0" width="14.6" height="24" id="b_2_">
			<g class="st5">
				<path id="a_2_" class="st2" d="M0.7,0h14.6v24H0.7L0.7,0z"/>
			</g>
		</mask>
		<path class="st6" d="M10.6,12c0-3.9,1.8-7.3,4.7-9.5C13.2,0.9,10.7,0,8,0C5.2,0,2.7,0.9,0.7,2.5C3.5,4.7,5.4,8.1,5.4,12
			c0,3.9-1.8,7.3-4.7,9.5C2.8,23.1,5.3,24,8,24c2.8,0,5.3-0.9,7.3-2.5C12.5,19.3,10.6,15.9,10.6,12"/>
	</g>
</g>
</svg>
