<?xml version="1.0" encoding="utf-8"?>
<!-- Generator: Adobe Illustrator 16.0.2, SVG Export Plug-In . SVG Version: 6.00 Build 0)  -->
<!DOCTYPE svg PUBLIC "-//W3C//DTD SVG 1.1//EN" "http://www.w3.org/Graphics/SVG/1.1/DTD/svg11.dtd">
<svg version="1.1" id="圖層_1" xmlns="http://www.w3.org/2000/svg" xmlns:xlink="http://www.w3.org/1999/xlink" x="0px" y="0px"
	 width="16px" height="16px" viewBox="0 0 16 16" enable-background="new 0 0 16 16" xml:space="preserve">
<g>
	<path d="M13.463,16c-1.399-0.004-2.533-1.138-2.537-2.537V2.537C10.93,1.138,12.063,0.004,13.463,0
		C14.862,0.004,15.996,1.138,16,2.537v10.925C15.996,14.861,14.863,15.996,13.463,16z M6.931,16c-1.087-0.004-1.967-0.883-1.97-1.97
		V5.886c0-1.083,0.886-1.97,1.97-1.97c1.083,0,1.969,0.886,1.969,1.97v8.145C8.9,15.114,8.015,16,6.931,16z M1.469,16
		C0.659,15.998,0.002,15.342,0,14.531V10.47c0-0.808,0.661-1.469,1.469-1.469c0.808,0,1.469,0.661,1.469,1.469v4.062
		C2.935,15.341,2.279,15.996,1.469,16z"/>
</g>
</svg>
