<svg xmlns="http://www.w3.org/2000/svg" width="16" height="16" viewBox="0 0 16 16">
    <g fill="none" fill-rule="evenodd">
        <path fill="#FAFAFA" d="M8 0a8 8 0 1 1 0 16A8 8 0 0 1 8 0"/>
        <path fill="#D81F2A" d="M8 0v8l-5.657 5.657A8 8 0 0 0 16 8c0-4.418-8-8-8-8"/>
        <path fill="#2057A7" d="M8 0a7.975 7.975 0 0 0-5.657 2.343L8 8h8a8 8 0 0 0-8-8"/>
        <path fill="#FEDA46" d="M5.478 8l-.977-.46.52-.946-1.061.203-.134-1.072-.739.789-.739-.789-.135 1.072-1.061-.203.521.946L.696 8l.977.46-.521.946 1.061-.203.135 1.072.739-.789.739.789.134-1.072 1.061.203-.52-.946zM2.134 3.13l.325.455.532-.17-.331.45.325.455-.531-.176-.331.449.004-.558-.53-.177.532-.17zM2.134 11.407l.325.454.532-.168-.331.448.325.455-.531-.176-.331.45.004-.56-.53-.176.532-.169zM6.771 7.269l-.325.454-.533-.169.332.45-.325.454.53-.176.332.449-.004-.558.53-.177-.533-.169z"/>
    </g>
</svg>
