<?xml version="1.0" encoding="utf-8"?>
<!-- Generator: Adobe Illustrator 22.1.0, SVG Export Plug-In . SVG Version: 6.00 Build 0)  -->
<svg version="1.1" id="圖層_1" xmlns="http://www.w3.org/2000/svg" xmlns:xlink="http://www.w3.org/1999/xlink" x="0px" y="0px"
	 width="16px" height="14px" viewBox="0 0 16 14" style="enable-background:new 0 0 16 14;" xml:space="preserve">
<style type="text/css">
	.st0{opacity:0.6;enable-background:new    ;}
</style>
<path class="st0" d="M14.9,5.9C15.5,5.9,16,6.4,16,7s-0.5,1.1-1.1,1.1h-11L7.8,12l0,0c0.5,0.5,0.5,1.2,0,1.7s-1.2,0.5-1.7,0L0.3,7.9
	C0.1,7.6,0,7.3,0,7l0,0l0,0c0-0.3,0.1-0.6,0.3-0.9l5.8-5.8c0.5-0.5,1.2-0.5,1.7,0s0.5,1.2,0,1.7L3.9,5.9H14.9"/>
</svg>
