<?xml version="1.0" encoding="utf-8"?>
<!-- Generator: Adobe Illustrator 22.1.0, SVG Export Plug-In . SVG Version: 6.00 Build 0)  -->
<svg version="1.1" id="圖層_1" xmlns="http://www.w3.org/2000/svg" xmlns:xlink="http://www.w3.org/1999/xlink" x="0px" y="0px"
	 width="24px" height="58px" viewBox="0 0 24 58" style="enable-background:new 0 0 24 58;" xml:space="preserve">
<style type="text/css">
	.st0{fill:#666666;}
	.st1{fill:#C34235;}
</style>
<g>
	<path class="st0" d="M18.9,52.5L18.4,52c-0.3-0.3-0.7-0.4-1-0.1l-0.8,0.7c-0.3,0.3-0.4,0.7-0.1,1l0.5,0.5c-3,1.8-6.8,1.8-9.8,0
		l0.5-0.5c0.3-0.3,0.2-0.8-0.1-1l-0.8-0.7c-0.3-0.3-0.8-0.2-1,0.1l-0.5,0.6c-1.7-1.8-2.6-4.1-2.6-6.5c0-2.5,1-4.8,2.6-6.5l0.5,0.6
		c0.3,0.3,0.7,0.4,1,0.1l0.8-0.7c0.3-0.3,0.4-0.7,0.1-1l-0.5-0.5c3-1.8,6.8-1.8,9.8,0l-0.5,0.5c-0.3,0.3-0.2,0.8,0.1,1l0.8,0.7
		c0.3,0.3,0.8,0.2,1-0.1l0.5-0.6c1.7,1.8,2.6,4.1,2.6,6.5C21.5,48.4,20.5,50.8,18.9,52.5 M12,34C5.4,34,0,39.4,0,46
		c0,6.6,5.4,12,12,12c6.6,0,12-5.4,12-12C24,39.4,18.6,34,12,34"/>
	<path class="st0" d="M9.5,44.9h-1c-0.4,0-0.7,0.3-0.7,0.7v0.8c0,0.4,0.3,0.7,0.7,0.7h1.1c0.4,0,0.7-0.3,0.7-0.7v-0.8
		C10.2,45.2,9.9,44.9,9.5,44.9 M7.3,43.1c0.1,0.4,0.6,0.6,1,0.4l1-0.4c0.4-0.1,0.6-0.6,0.4-1l-0.3-0.7c-0.1-0.4-0.6-0.6-1-0.4
		l-1,0.4C7,41.6,6.8,42,7,42.4L7.3,43.1L7.3,43.1z M9.2,48.9l-1-0.4c-0.4-0.1-0.8,0-1,0.4L7,49.7c-0.1,0.4,0,0.8,0.4,1l1,0.4
		c0.4,0.1,0.8,0,1-0.4l0.3-0.7C9.8,49.5,9.6,49,9.2,48.9 M15.6,47.1c0.4,0,0.7-0.3,0.7-0.7v-0.8c0-0.4-0.3-0.7-0.7-0.7h-1.1
		c-0.4,0-0.7,0.3-0.7,0.7v0.8c0,0.4,0.3,0.7,0.7,0.7C14.5,47.1,15.6,47.1,15.6,47.1z M16.6,41.4l-1-0.4c-0.4-0.1-0.8,0-1,0.4
		l-0.3,0.7c-0.1,0.4,0,0.8,0.4,1l1,0.4c0.4,0.1,0.8,0,1-0.4l0.3-0.7C17.2,42,17,41.6,16.6,41.4 M16.7,48.9c-0.1-0.4-0.6-0.6-1-0.4
		l-1,0.4c-0.4,0.1-0.6,0.6-0.4,1l0.3,0.7c0.1,0.4,0.6,0.6,1,0.4l1-0.4c0.4-0.1,0.6-0.6,0.4-1L16.7,48.9L16.7,48.9z"/>
</g>
<g>
	<path class="st1" d="M18.9,18.5l-0.5-0.6c-0.3-0.3-0.7-0.4-1-0.1l-0.8,0.7c-0.3,0.3-0.4,0.7-0.1,1l0.5,0.5c-3,1.8-6.8,1.8-9.8,0
		l0.5-0.5c0.3-0.3,0.2-0.8-0.1-1l-0.8-0.7c-0.3-0.3-0.8-0.2-1,0.1l-0.5,0.6c-1.7-1.8-2.6-4.1-2.6-6.5c0-2.5,1-4.8,2.6-6.5l0.5,0.6
		c0.3,0.3,0.7,0.4,1,0.1l0.8-0.7c0.3-0.3,0.4-0.7,0.1-1L7.1,3.9c3-1.8,6.8-1.8,9.8,0l-0.5,0.5c-0.3,0.3-0.2,0.8,0.1,1l0.8,0.7
		c0.3,0.3,0.8,0.2,1-0.1l0.5-0.6c1.7,1.8,2.6,4.1,2.6,6.5C21.5,14.4,20.5,16.8,18.9,18.5 M12,0C5.4,0,0,5.4,0,12c0,6.6,5.4,12,12,12
		c6.6,0,12-5.4,12-12C24,5.4,18.6,0,12,0"/>
	<path class="st1" d="M9.5,10.9h-1c-0.4,0-0.7,0.3-0.7,0.7v0.8c0,0.4,0.3,0.7,0.7,0.7h1.1c0.4,0,0.7-0.3,0.7-0.7v-0.8
		C10.2,11.2,9.9,10.9,9.5,10.9 M7.3,9.1c0.1,0.4,0.6,0.6,1,0.4l1-0.4c0.4-0.1,0.6-0.6,0.4-1L9.3,7.4C9.2,7.1,8.8,6.9,8.4,7l-1,0.4
		C7,7.6,6.8,8,7,8.4L7.3,9.1L7.3,9.1z M9.2,14.9l-1-0.4c-0.4-0.1-0.8,0-1,0.4L7,15.6c-0.1,0.4,0,0.8,0.4,1l1,0.4
		c0.4,0.1,0.8,0,1-0.4l0.3-0.7C9.8,15.4,9.6,15,9.2,14.9 M15.6,13.1c0.4,0,0.7-0.3,0.7-0.7v-0.8c0-0.4-0.3-0.7-0.7-0.7h-1.1
		c-0.4,0-0.7,0.3-0.7,0.7v0.8c0,0.4,0.3,0.7,0.7,0.7C14.5,13.1,15.6,13.1,15.6,13.1z M16.6,7.4l-1-0.4c-0.4-0.1-0.8,0-1,0.4
		l-0.3,0.7c-0.1,0.4,0,0.8,0.4,1l1,0.4c0.4,0.1,0.8,0,1-0.4L17,8.4C17.2,8,17,7.6,16.6,7.4 M16.7,14.9c-0.1-0.4-0.6-0.6-1-0.4
		l-1,0.4c-0.4,0.1-0.6,0.6-0.4,1l0.3,0.7c0.1,0.4,0.6,0.6,1,0.4l1-0.4c0.4-0.1,0.6-0.6,0.4-1L16.7,14.9L16.7,14.9z"/>
</g>
</svg>
