<?xml version="1.0" encoding="utf-8"?>
<!-- Generator: Adobe Illustrator 22.1.0, SVG Export Plug-In . SVG Version: 6.00 Build 0)  -->
<svg version="1.1" id="圖層_1" xmlns="http://www.w3.org/2000/svg" xmlns:xlink="http://www.w3.org/1999/xlink" x="0px" y="0px"
	 width="24px" height="58px" viewBox="0 0 24 58" style="enable-background:new 0 0 24 58;" xml:space="preserve">
<style type="text/css">
	.st0{fill:#666666;}
	.st1{fill:#C34235;}
</style>
<g>
	<path class="st0" d="M13.9,35.8c-1-0.8-2.2-1.4-3.4-1.6c-0.1,0.6-0.3,1.4-1.1,2.3c0.3,0.2,0.6,0.5,0.9,0.8
		C11.4,36.6,12.7,36.1,13.9,35.8 M15.8,41.7c-1.1-1-2-1.3-2.8-1.1c1.1,2,1.9,4.4,2.1,7.5c1.1-1.3,1.9-2.9,2-4.7
		C16.7,42.8,16.2,42.1,15.8,41.7 M8.2,35.5C8.8,34.8,9,34.3,9,34c-0.1,0-0.3,0-0.4,0c-0.9,0-1.7,0.1-2.6,0.4
		C6.8,34.7,7.5,35.1,8.2,35.5 M11.4,38.4c0.2,0.3,0.5,0.6,0.7,0.9c1.5-0.6,3.1-0.1,4.7,1.3c0.1,0,0.1,0.1,0.2,0.2
		c-0.3-1.4-0.9-2.6-1.8-3.7C13.9,37.3,12.6,37.8,11.4,38.4 M11,48.6c0.5,0.5,1,1,1.4,1.6c0.4-0.2,0.8-0.4,1.1-0.7
		c0-3.4-0.8-6-1.9-8.1c-0.3,0.5-0.8,1.3-1.1,3c-0.2,1.3-0.6,2.5-0.9,3.7C10.1,48,10.6,48.2,11,48.6 M3.8,37.5c1.5-0.2,2.5-0.6,3.2-1
		c-0.9-0.5-1.8-1-2.8-1.3C3,35.9,2,36.9,1.3,38C2.1,37.8,2.9,37.6,3.8,37.5 M9.1,44.1c0.5-2.3,1.2-3.4,1.7-4
		c-0.2-0.3-0.5-0.6-0.7-0.9c-0.3,0.2-0.6,0.4-0.9,0.6c-4.9,3.7-6.3,7-6.8,8.7c1.2,1.2,2.7,2,4.3,2.4C7.4,50.1,8.2,48.3,9.1,44.1
		 M8.3,38.6c0.2-0.2,0.5-0.4,0.7-0.5c-0.2-0.2-0.5-0.4-0.7-0.6C7.6,37.9,6.2,38.7,4,39c-1.2,0.2-2.5,0.5-3.6,1
		C0.1,40.8,0,41.7,0,42.5c0,1.7,0.5,3.2,1.3,4.5C2.1,45,4,41.9,8.3,38.6 M23.8,47.5C24,46,24,44.7,24,43.8c-0.1-0.9-0.8-1.6-1.7-1.7
		c-1.2-0.1-2.5,0-3.7,0.1L23.8,47.5L23.8,47.5z M12.5,56.7l-3.2-3.2l0,0l-1-1C8.1,53.7,8,55,8.1,56.2c0.1,0.9,0.8,1.6,1.7,1.7
		c1.2,0.1,2.5,0,3.7-0.1L12.5,56.7L12.5,56.7"/>
	<path class="st0" d="M19,49.9c-0.2,0.2-0.6,0.2-0.8,0l-2-2c-0.2-0.2-0.2-0.6,0-0.8c0.2-0.2,0.6-0.2,0.8,0l2,2
		C19.2,49.3,19.2,49.6,19,49.9z M17.5,51.4c-0.2,0.2-0.6,0.2-0.8,0l-2-2c-0.2-0.2-0.2-0.6,0-0.8c0.2-0.2,0.6-0.2,0.8,0l2,2
		C17.7,50.8,17.7,51.1,17.5,51.4z M16,52.9c-0.2,0.2-0.6,0.2-0.8,0l-2-2c-0.2-0.2-0.2-0.6,0-0.8c0.2-0.2,0.6-0.2,0.8,0l2,2
		C16.2,52.3,16.2,52.6,16,52.9z M16.5,42.7c-1.7,0.5-3.4,1.4-5,2.8c-1.4,1.5-2.3,3.3-2.8,4.9l6.9,6.9c1.7-0.5,3.4-1.4,4.9-2.8
		c1.4-1.5,2.3-3.3,2.8-4.9C23.4,49.6,16.5,42.7,16.5,42.7z"/>
</g>
<g>
	<path class="st1" d="M13.9,1.9c-1-0.8-2.2-1.4-3.4-1.6c-0.1,0.6-0.3,1.4-1.1,2.3C9.7,2.7,10,3,10.3,3.3C11.4,2.7,12.7,2.2,13.9,1.9
		 M15.8,7.8c-1.1-1-2-1.3-2.8-1.1c1.1,2,1.9,4.4,2.1,7.5c1.1-1.3,1.9-2.9,2-4.7C16.7,8.9,16.2,8.2,15.8,7.8 M8.2,1.6
		C8.8,0.8,9,0.3,9,0C8.9,0,8.7,0,8.6,0C7.7,0,6.8,0.1,6,0.4C6.8,0.7,7.5,1.1,8.2,1.6 M11.4,4.5c0.2,0.3,0.5,0.6,0.7,0.9
		c1.5-0.6,3.1-0.1,4.7,1.3c0.1,0.1,0.1,0.1,0.2,0.2c-0.3-1.4-0.9-2.6-1.8-3.7C13.9,3.4,12.6,3.8,11.4,4.5 M11,14.6
		c0.5,0.5,1,1,1.4,1.6c0.4-0.2,0.8-0.4,1.1-0.7c0-3.4-0.8-6-1.9-8.1c-0.3,0.5-0.8,1.3-1.1,3c-0.2,1.3-0.6,2.5-0.9,3.7
		C10.1,14.1,10.6,14.2,11,14.6 M3.8,3.5c1.5-0.2,2.5-0.6,3.2-1C6.1,2,5.1,1.6,4.2,1.2C3,1.9,2,2.9,1.3,4.1C2.1,3.8,2.9,3.6,3.8,3.5
		 M9.1,10.1c0.5-2.3,1.2-3.4,1.7-4c-0.2-0.3-0.5-0.6-0.7-0.9C9.8,5.4,9.5,5.6,9.2,5.8c-4.9,3.7-6.3,7-6.8,8.7c1.2,1.2,2.7,2,4.3,2.4
		C7.4,16.1,8.2,14.3,9.1,10.1 M8.3,4.6C8.5,4.5,8.8,4.3,9,4.1C8.8,3.9,8.5,3.7,8.3,3.5C7.6,4,6.2,4.7,4,5c-1.2,0.2-2.5,0.5-3.6,1
		C0.1,6.9,0,7.7,0,8.6c0,1.7,0.5,3.2,1.3,4.5C2.1,11,4,8,8.3,4.6 M23.8,13.5C24,12.1,24,10.8,24,9.8c-0.1-0.9-0.8-1.6-1.7-1.7
		c-1.2-0.1-2.5,0-3.7,0.1L23.8,13.5L23.8,13.5z M12.5,22.8l-3.2-3.2l0,0l-1-1C8.1,19.8,8,21,8.1,22.3c0.1,0.9,0.8,1.6,1.7,1.7
		c1.2,0.1,2.5,0,3.7-0.1L12.5,22.8L12.5,22.8"/>
	<path class="st1" d="M19,15.9c-0.2,0.2-0.6,0.2-0.8,0l-2-2c-0.2-0.2-0.2-0.6,0-0.8c0.2-0.2,0.6-0.2,0.8,0l2,2
		C19.2,15.3,19.2,15.7,19,15.9z M17.5,17.4c-0.2,0.2-0.6,0.2-0.8,0l-2-2c-0.2-0.2-0.2-0.6,0-0.8c0.2-0.2,0.6-0.2,0.8,0l2,2
		C17.7,16.8,17.7,17.2,17.5,17.4z M16,18.9c-0.2,0.2-0.6,0.2-0.8,0l-2-2c-0.2-0.2-0.2-0.6,0-0.8c0.2-0.2,0.6-0.2,0.8,0l2,2
		C16.2,18.4,16.2,18.7,16,18.9z M16.5,8.7c-1.7,0.5-3.4,1.4-5,2.8c-1.4,1.5-2.3,3.3-2.8,4.9l6.9,6.9c1.7-0.5,3.4-1.4,4.9-2.8
		c1.4-1.5,2.3-3.3,2.8-4.9C23.4,15.6,16.5,8.7,16.5,8.7z"/>
</g>
</svg>
