<?xml version="1.0" encoding="utf-8"?>
<!-- Generator: Adobe Illustrator 16.0.2, SVG Export Plug-In . SVG Version: 6.00 Build 0)  -->
<!DOCTYPE svg PUBLIC "-//W3C//DTD SVG 1.1//EN" "http://www.w3.org/Graphics/SVG/1.1/DTD/svg11.dtd">
<svg version="1.1" id="圖層_1" xmlns="http://www.w3.org/2000/svg" xmlns:xlink="http://www.w3.org/1999/xlink" x="0px" y="0px"
	 width="14px" height="14px" viewBox="0 0 14 14" enable-background="new 0 0 14 14" xml:space="preserve">
<path enable-background="new    " d="M8.652,7l5.007-5.006c0.454-0.457,0.454-1.194,0-1.65c-0.458-0.453-1.195-0.453-1.653,0
	L7.001,5.35l-5.01-5.009c-0.457-0.454-1.194-0.454-1.65,0C0.12,0.561,0,0.854,0,1.166c0,0.313,0.12,0.605,0.34,0.825L5.35,7
	l-5.01,5.009C0.121,12.228-0.001,12.524,0,12.834C-0.002,13.476,0.516,13.998,1.158,14c0.002,0,0.004,0,0.007,0
	c0.298,0,0.597-0.114,0.825-0.341L7,8.65l5.005,5.006c0.458,0.454,1.196,0.454,1.653,0c0.453-0.457,0.453-1.193,0-1.65L8.652,7z"/>
</svg>
