<svg xmlns="http://www.w3.org/2000/svg" width="16" height="16" viewBox="0 0 16 16">
    <g fill="none" fill-rule="evenodd">
        <path fill="#DD2E26" d="M8 0a8 8 0 1 1 0 16A8 8 0 0 1 8 0"/>
        <path fill="#FFF" d="M7.97 5.408l-.169.266-.062-.309-.305-.079.275-.154-.019-.315.231.214.293-.116-.13.287.2.243-.314-.037zm1.366-2.164C6.558 3.054 5.231 6.69 7.844 8.09a1.82 1.82 0 0 1-.552-.905 2.059 2.059 0 0 1 .24-1.633l.063.04a1.982 1.982 0 0 0-.23 1.574c.11.398.343.733.636.94-.49-.539-.3-1.405.463-1.748.504-.226.91-1.159.538-1.738-.333-.517-.249-1.076.334-1.375z"/>
        <path fill="#FFF" d="M11.009 7.254l-.17.266-.06-.31-.306-.08.275-.153-.02-.315.233.214.293-.115-.132.286.2.243-.313-.036zm-2.818.664c.129-.31.369-.593.689-.804a2.058 2.058 0 0 1 1.628-.277l-.018.072a1.99 1.99 0 0 0-1.57.268 1.705 1.705 0 0 0-.697.896c.36-.634 1.244-.72 1.807-.1.37.409 1.382.509 1.818-.026.39-.476.947-.57 1.41-.107-.677-2.7-4.545-2.84-5.067.078z"/>
        <path fill="#FFF" d="M10.193 10.714l-.169.267-.062-.31-.305-.08.274-.152-.018-.316.23.214.293-.116-.132.286.201.243-.312-.036zm-1.735-2.52c.335.028.677.169.977.409.448.359.73.892.767 1.463l-.075.004a1.985 1.985 0 0 0-.739-1.41 1.702 1.702 0 0 0-1.066-.384c.714.146 1.067.959.652 1.685-.273.48-.054 1.472.586 1.722.573.223.833.725.538 1.309 2.36-1.48 1.296-5.201-1.64-4.797z"/>
        <path fill="#FFF" d="M6.649 11.007l-.17.267-.06-.31-.305-.08.275-.152-.02-.315.232.214.293-.116-.132.286.2.243-.313-.037zm1.629-2.471c.079.327.05.698-.086 1.056a2.062 2.062 0 0 1-1.154 1.182l-.028-.07c.51-.205.917-.62 1.112-1.136.146-.388.152-.795.038-1.136.08.725-.584 1.313-1.402 1.142-.54-.113-1.417.402-1.457 1.09-.035.614-.432 1.016-1.08.916 2.138 1.785 5.349-.376 4.057-3.044z"/>
        <path fill="#FFF" d="M5.106 7.994l-.061-.309-.305-.079.275-.154-.019-.315.231.214.293-.115-.132.286.2.243-.312-.037-.17.266zm1.762.721a2.058 2.058 0 0 1-1.48-.733l.057-.048c.353.423.872.68 1.425.706.414.02.804-.1 1.092-.314-.665.301-1.429-.149-1.52-.98-.06-.549-.821-1.224-1.487-1.048-.595.156-1.1-.096-1.205-.743-1.038 2.582 2.01 4.968 4.148 2.915a1.823 1.823 0 0 1-1.03.245z"/>
    </g>
</svg>
