<?xml version="1.0" encoding="utf-8"?>
<!-- Generator: Adobe Illustrator 21.0.2, SVG Export Plug-In . SVG Version: 6.00 Build 0)  -->
<svg version="1.1" id="Layer_1" xmlns="http://www.w3.org/2000/svg" xmlns:xlink="http://www.w3.org/1999/xlink" x="0px" y="0px"
	 viewBox="0 0 14 14" style="enable-background:new 0 0 14 14;" xml:space="preserve">
<g>
	<g>
		<g>
			<path id="SVGID_11_" d="M7,5.2c0.5,0,0.9-0.4,0.9-0.9S7.5,3.5,7,3.5S6.1,3.9,6.1,4.4S6.5,5.2,7,5.2z M7,6.1
				C6.5,6.1,6.1,6.5,6.1,7v2.6c0,0.5,0.4,0.9,0.9,0.9s0.9-0.4,0.9-0.9V7C7.9,6.5,7.5,6.1,7,6.1z M7,14c-3.9,0-7-3.1-7-7s3.1-7,7-7
				s7,3.1,7,7S10.9,14,7,14z"/>
		</g>
	</g>
</g>
</svg>
