<svg xmlns="http://www.w3.org/2000/svg" width="16" height="16" viewBox="0 0 16 16">
    <path fill="#000" fill-rule="evenodd" d="M3.547 9.721a4.265 4.265 0 0 1-1.292-2.56l-.01-.064c-.005-.03-.01-.058-.012-.086-.007-.112-.014-.222-.02-.347l-.006-.133c.044-1.462.65-2.646 1.803-3.518.968-.733 2.076-1.029 3.29-.88 1.56.192 2.723.965 3.452 2.299.807 1.473.777 2.96-.09 4.42-.672 1.13-1.675 1.831-2.982 2.083-1.582.304-2.971-.103-4.133-1.214m12.08 4.077l-3.413-3.407c.14-.202.279-.408.4-.626.784-1.389 1.017-2.9.695-4.487a6.39 6.39 0 0 0-1.736-3.24A6.654 6.654 0 0 0 8.008.125 9.794 9.794 0 0 0 7.43.038L7.15 0l-.9.002-.249.036c-.185.025-.37.05-.554.085A6.643 6.643 0 0 0 1.87 2.046 6.42 6.42 0 0 0 .145 5.255c-.036.172-.06.347-.082.522l-.03.228L0 7.029l.026.123a6.313 6.313 0 0 0 1.328 3.425c1.288 1.646 2.992 2.533 5.065 2.634 1.42.07 2.741-.283 3.934-1.045l3.454 3.449a1.288 1.288 0 0 0 1.769.041.86.86 0 0 0 .19-.211c.353-.501.307-1.2-.14-1.647" opacity=".6"/>
</svg>
