<?xml version="1.0" encoding="utf-8"?>
<!-- Generator: Adobe Illustrator 16.0.2, SVG Export Plug-In . SVG Version: 6.00 Build 0)  -->
<!DOCTYPE svg PUBLIC "-//W3C//DTD SVG 1.1//EN" "http://www.w3.org/Graphics/SVG/1.1/DTD/svg11.dtd">
<svg version="1.1" id="圖層_1" xmlns="http://www.w3.org/2000/svg" xmlns:xlink="http://www.w3.org/1999/xlink" x="0px" y="0px"
	 width="8px" height="14px" viewBox="0 0 8 14" enable-background="new 0 0 8 14" xml:space="preserve">
<path opacity="0.16" enable-background="new    " d="M8,9.262C8,9.117,7.88,9,7.732,9C7.731,9,7.729,9.002,7.728,9.002V9H0.264
	v0.002C0.117,9.004,0,9.119,0,9.262c0,0.064,0.025,0.121,0.064,0.166l3.713,4.455h0.007C3.831,13.953,3.908,14,4,14
	s0.169-0.047,0.217-0.117h0.006l3.699-4.436C7.97,9.4,8,9.334,8,9.262z"/>
<path opacity="0.16" enable-background="new    " d="M8,4.738C8,4.883,7.88,5,7.732,5C7.731,5,7.73,4.999,7.728,4.999V5H0.264V4.999
	C0.117,4.996,0,4.881,0,4.738c0-0.064,0.025-0.12,0.064-0.166l3.713-4.455h0.007C3.831,0.048,3.908,0,4,0s0.169,0.048,0.217,0.118
	h0.006l3.699,4.436C7.97,4.601,8,4.666,8,4.738z"/>
</svg>
