<?xml version="1.0" encoding="utf-8"?>
<!-- Generator: Adobe Illustrator 22.1.0, SVG Export Plug-In . SVG Version: 6.00 Build 0)  -->
<svg version="1.1" id="圖層_1" xmlns="http://www.w3.org/2000/svg" xmlns:xlink="http://www.w3.org/1999/xlink" x="0px" y="0px"
	 width="24px" height="58px" viewBox="0 0 24 58" style="enable-background:new 0 0 24 58;" xml:space="preserve">
<style type="text/css">
	.st0{filter:url(#Adobe_OpacityMaskFilter);}
	.st1{fill:#FFFFFF;}
	.st2{mask:url(#b_1_);fill:#666666;}
	.st3{filter:url(#Adobe_OpacityMaskFilter_1_);}
	.st4{mask:url(#d_1_);fill:#666666;}
	.st5{filter:url(#Adobe_OpacityMaskFilter_2_);}
	.st6{mask:url(#b_2_);fill:#C34235;}
	.st7{filter:url(#Adobe_OpacityMaskFilter_3_);}
	.st8{mask:url(#d_2_);fill:#C34235;}
</style>
<g>
	<g transform="translate(4 -.99)">
		<defs>
			<filter id="Adobe_OpacityMaskFilter" filterUnits="userSpaceOnUse" x="0.2" y="35" width="19.8" height="19.8">
				<feColorMatrix  type="matrix" values="1 0 0 0 0  0 1 0 0 0  0 0 1 0 0  0 0 0 1 0"/>
			</filter>
		</defs>
		<mask maskUnits="userSpaceOnUse" x="0.2" y="35" width="19.8" height="19.8" id="b_1_">
			<g class="st0">
				<path id="a_1_" class="st1" d="M20,35v19.8H0.2V35H20z"/>
			</g>
		</mask>
		<path class="st2" d="M10,35c5,0.1,9.1,3.7,9.9,8.6c0.8,5.2-2.7,10.1-7.9,11.2c-0.5,0.1-0.9-0.1-1.2-0.4c-2.1-2.1-4.2-4.2-6.3-6.3
			c-1.3-1.3-2.6-2.6-3.9-3.9c-0.4-0.4-0.6-0.9-0.4-1.5c0.8-3.8,4.1-7,8-7.6C8.8,35.1,9.4,35,10,35"/>
	</g>
	<g transform="translate(0 11.01)">
		<defs>
			<filter id="Adobe_OpacityMaskFilter_1_" filterUnits="userSpaceOnUse" x="0" y="34.3" width="12.7" height="12.7">
				<feColorMatrix  type="matrix" values="1 0 0 0 0  0 1 0 0 0  0 0 1 0 0  0 0 0 1 0"/>
			</filter>
		</defs>
		<mask maskUnits="userSpaceOnUse" x="0" y="34.3" width="12.7" height="12.7" id="d_1_">
			<g class="st3">
				<path id="c_1_" class="st1" d="M0,34.3V47h12.7V34.3H0z"/>
			</g>
		</mask>
		<path class="st4" d="M8.1,41.7c-0.1,0.1-3.3,3.4-4.8,4.9c-0.5,0.5-0.7,0.5-1.2,0c-0.6-0.6-1.2-1.2-1.8-1.8c-0.4-0.4-0.4-0.7,0-1.2
			c1.6-1.6,3.2-3.2,4.8-4.8c-0.4-0.9-0.8-1.8-1.1-2.7c-0.2-0.5-0.3-1-0.4-1.5c0-0.1,0.1-0.3,0.2-0.4c0.1,0,0.3,0,0.4,0.1
			c1.7,1.7,3.3,3.3,5,5c1.1,1.1,2.1,2.1,3.2,3.2c0.1,0.1,0.3,0.4,0.2,0.5c-0.1,0.2-0.4,0.1-0.5,0.1C10.7,43,9.4,42.6,8.1,41.7"/>
	</g>
</g>
<g>
	<g transform="translate(4 -.99)">
		<defs>
			<filter id="Adobe_OpacityMaskFilter_2_" filterUnits="userSpaceOnUse" x="0.2" y="1" width="19.8" height="19.8">
				<feColorMatrix  type="matrix" values="1 0 0 0 0  0 1 0 0 0  0 0 1 0 0  0 0 0 1 0"/>
			</filter>
		</defs>
		<mask maskUnits="userSpaceOnUse" x="0.2" y="1" width="19.8" height="19.8" id="b_2_">
			<g class="st5">
				<path id="a_2_" class="st1" d="M20,1v19.8H0.2V1H20z"/>
			</g>
		</mask>
		<path class="st6" d="M10,1c5,0.1,9.1,3.7,9.9,8.6c0.8,5.2-2.7,10.1-7.9,11.2c-0.5,0.1-0.9-0.1-1.2-0.4c-2.1-2.1-4.2-4.2-6.3-6.3
			c-1.3-1.3-2.6-2.6-3.9-3.9C0.3,9.9,0.1,9.4,0.3,8.8c0.8-3.8,4.1-7,8-7.6C8.8,1.1,9.4,1.1,10,1"/>
	</g>
	<g transform="translate(0 11.01)">
		<defs>
			<filter id="Adobe_OpacityMaskFilter_3_" filterUnits="userSpaceOnUse" x="0" y="0.3" width="12.7" height="12.7">
				<feColorMatrix  type="matrix" values="1 0 0 0 0  0 1 0 0 0  0 0 1 0 0  0 0 0 1 0"/>
			</filter>
		</defs>
		<mask maskUnits="userSpaceOnUse" x="0" y="0.3" width="12.7" height="12.7" id="d_2_">
			<g class="st7">
				<path id="c_2_" class="st1" d="M0,0.3V13h12.7V0.3H0z"/>
			</g>
		</mask>
		<path class="st8" d="M8.2,7.7c-0.1,0.1-3.3,3.4-4.8,4.9c-0.5,0.5-0.7,0.5-1.2,0C1.6,12,1,11.4,0.3,10.8c-0.4-0.4-0.4-0.7,0-1.2
			C2,8.1,3.6,6.5,5.2,4.9C4.8,4,4.4,3.1,4.1,2.2c-0.2-0.5-0.3-1-0.4-1.5c0-0.1,0.1-0.3,0.2-0.4c0.1,0,0.3,0,0.4,0.1
			c1.7,1.7,3.3,3.3,5,5c1.1,1.1,2.1,2.1,3.2,3.2c0.1,0.1,0.3,0.4,0.2,0.5s-0.4,0.1-0.5,0.1C10.8,9.1,9.5,8.6,8.2,7.7"/>
	</g>
</g>
</svg>
