<svg xmlns="http://www.w3.org/2000/svg" width="16" height="16" viewBox="0 0 16 16">
    <g fill="#FFF" fill-rule="nonzero">
        <path d="M13.463 16a2.545 2.545 0 0 1-2.537-2.537V2.537A2.544 2.544 0 0 1 13.463 0 2.545 2.545 0 0 1 16 2.537v10.925A2.545 2.545 0 0 1 13.463 16zM6.931 16a1.976 1.976 0 0 1-1.97-1.97V5.886c0-1.083.886-1.97 1.97-1.97 1.083 0 1.97.886 1.97 1.97v8.144c0 1.084-.886 1.97-1.97 1.97zM1.469 16A1.473 1.473 0 0 1 0 14.531V10.47c0-.808.661-1.469 1.469-1.469s1.469.661 1.469 1.469v4.061A1.475 1.475 0 0 1 1.469 16z"/>
    </g>
</svg>
