<?xml version="1.0" encoding="utf-8"?>
<!-- Generator: Adobe Illustrator 16.0.2, SVG Export Plug-In . SVG Version: 6.00 Build 0)  -->
<!DOCTYPE svg PUBLIC "-//W3C//DTD SVG 1.1//EN" "http://www.w3.org/Graphics/SVG/1.1/DTD/svg11.dtd">
<svg version="1.1" id="圖層_1" xmlns="http://www.w3.org/2000/svg" xmlns:xlink="http://www.w3.org/1999/xlink" x="0px" y="0px"
	 width="16px" height="16px" viewBox="0 0 16 16" enable-background="new 0 0 16 16" xml:space="preserve">
<g>
	<circle cx="4.566" cy="2.492" r="2.492"/>
	<path d="M5.504,12.395v-0.789c0-1.863,1.06-3.475,2.595-4.313C7.403,6.495,6.398,6.036,5.34,6.031H3.704
		c-2.043,0.005-3.698,1.66-3.703,3.703v3.297c0,0.55,0.45,1,1,1h4.503V12.395z"/>
	<circle cx="11.521" cy="4.461" r="2.492"/>
	<path d="M12.296,8H10.66c-2.043,0.005-3.698,1.66-3.703,3.703V15c0,0.55,0.45,1,1,1h7.041c0.55,0,1-0.45,1-1v-3.297
		C15.992,9.66,14.338,8.006,12.296,8z"/>
</g>
</svg>
