<svg xmlns="http://www.w3.org/2000/svg" width="14" height="14" viewBox="0 0 14 14">
    <path fill="#FFF" fill-rule="evenodd" d="M3.104 8.506a3.732 3.732 0 0 1-1.131-2.24l-.009-.056c-.004-.026-.008-.051-.01-.075-.006-.098-.012-.195-.017-.304l-.006-.116c.039-1.28.569-2.316 1.578-3.079a3.847 3.847 0 0 1 2.878-.77c1.365.168 2.383.845 3.021 2.012.706 1.289.68 2.59-.079 3.868-.588.989-1.465 1.602-2.609 1.822-1.384.266-2.6-.09-3.616-1.062m10.569 3.567l-2.986-2.981c.123-.177.244-.357.351-.548.685-1.215.889-2.537.607-3.926a5.592 5.592 0 0 0-1.519-2.835A5.823 5.823 0 0 0 7.007.109a8.57 8.57 0 0 0-.506-.076L6.257 0l-.788.002-.218.031c-.162.022-.324.044-.485.075a5.812 5.812 0 0 0-3.13 1.682A5.617 5.617 0 0 0 .127 4.598c-.032.151-.052.304-.072.457l-.026.199L0 6.15l.023.108a5.524 5.524 0 0 0 1.162 2.997c1.127 1.44 2.618 2.216 4.432 2.305a5.746 5.746 0 0 0 3.442-.915l3.022 3.018a1.127 1.127 0 0 0 1.548.036.752.752 0 0 0 .166-.185 1.125 1.125 0 0 0-.122-1.441"/>
</svg>
