<?xml version="1.0" encoding="utf-8"?>
<!-- Generator: Adobe Illustrator 22.1.0, SVG Export Plug-In . SVG Version: 6.00 Build 0)  -->
<svg version="1.1" id="圖層_1" xmlns="http://www.w3.org/2000/svg" xmlns:xlink="http://www.w3.org/1999/xlink" x="0px" y="0px"
	 width="24px" height="58px" viewBox="0 0 24 58" style="enable-background:new 0 0 24 58;" xml:space="preserve">
<style type="text/css">
	.st0{fill:#666666;}
	.st1{fill:#C34235;}
</style>
<g>
	<path class="st0" d="M12,55.9L12,55.9c2.8,0,5.7,0,8.5,0c0.6,0,1.1-0.2,1.4-0.8c0.3-0.6,0.2-1.1-0.1-1.7c-1.5-2.7-2.9-5.5-4.4-8.3
		c-1.4-2.8-2.8-5.5-4.2-8.3c-0.6-1.1-1.9-1.1-2.4,0c-2.9,5.5-5.7,11-8.6,16.5c-0.3,0.6-0.5,1.2-0.1,1.8c0.3,0.7,0.9,0.8,1.5,0.8
		C6.4,55.9,9.2,55.9,12,55.9z M12,57.6c-2.8,0-5.7,0-8.5,0c-1.2,0-2.1-0.5-2.7-1.6c-0.6-1.1-0.5-2.2,0.1-3.4
		C3.8,47.1,6.6,41.6,9.5,36c1.1-2.2,3.9-2.1,5,0.1c1.2,2.4,2.4,4.9,3.7,7.3c1.6,3.1,3.3,6.3,4.9,9.4c1.1,2.1-0.2,4.8-2.5,4.8
		C17.8,57.6,14.9,57.6,12,57.6L12,57.6L12,57.6z"/>
	<path class="st0" d="M16.4,55.5c1.4,0,2.7,0,4.1,0h0c0.6,0,0.9-0.2,1.1-0.6c0.2-0.4,0.2-0.8-0.1-1.3c-1.5-2.7-2.9-5.5-4.4-8.3
		c-0.8-1.5-1.5-3-2.3-4.5c-0.6-1.3-1.3-2.5-1.9-3.8c-0.2-0.4-0.5-0.6-0.9-0.6h0c-0.4,0-0.7,0.2-0.9,0.6l-3.4,6.6
		C6,47,4.3,50.3,2.5,53.6c-0.3,0.6-0.3,1-0.1,1.4c0.2,0.4,0.5,0.5,1.2,0.5c2.1,0,4.1,0,6.2,0l4.4,0L16.4,55.5L16.4,55.5z M20.5,56.4
		L20.5,56.4c-2.1,0-4.2,0-6.3,0h-2.6v0H9.8c-2.1,0-4.1,0-6.2,0c-0.7,0-1.4-0.1-1.9-1c-0.5-0.9-0.1-1.7,0.1-2.2
		c1.7-3.3,3.4-6.6,5.2-9.9l3.4-6.6c0.3-0.7,0.9-1,1.6-1h0c0.6,0,1.2,0.4,1.5,1c0.6,1.3,1.3,2.5,1.9,3.8c0.8,1.5,1.5,3,2.3,4.5
		c1.4,2.8,2.9,5.5,4.4,8.3c0.3,0.5,0.6,1.2,0.1,2.1C21.9,56,21.4,56.4,20.5,56.4L20.5,56.4z M12.4,57.2l2.2,0c2,0,4.1,0,6.1,0
		c0.9,0,1.7-0.5,2.2-1.3c0.5-0.9,0.5-1.9,0-2.8l-0.7-1.4c-1.4-2.7-2.8-5.3-4.2-8c-0.7-1.3-1.3-2.6-2-3.9c-0.6-1.1-1.1-2.3-1.7-3.4
		c-0.5-0.9-1.3-1.5-2.2-1.5h0c-0.9,0-1.7,0.5-2.1,1.4L1.2,52.9c-0.5,1-0.6,2-0.1,2.9c0.5,0.9,1.2,1.4,2.3,1.4c2,0,4.1,0,6.1,0
		L12.4,57.2L12.4,57.2z M17.2,58c-0.9,0-1.7,0-2.6,0l-5,0c-2,0-4.1,0-6.1,0c-1.4,0-2.4-0.6-3-1.8c-0.6-1.2-0.6-2.5,0.1-3.8l8.7-16.7
		C9.8,34.7,10.8,34,12,34h0c1.2,0,2.3,0.7,2.9,1.9c0.6,1.1,1.2,2.3,1.7,3.4c0.6,1.3,1.3,2.6,2,3.9c1.4,2.7,2.8,5.3,4.2,8l0.7,1.4
		c0.6,1.2,0.6,2.5,0,3.7c-0.6,1.1-1.6,1.7-2.8,1.8C19.5,58,18.4,58,17.2,58z"/>
	<path class="st0" d="M15.6,47.2c0-0.5-0.4-0.9-0.9-0.9c-0.5,0-0.9,0.4-0.9,0.9c0,0.5,0.4,0.9,0.9,0.9
		C15.2,48.1,15.6,47.7,15.6,47.2 M12.4,47.2c0-1.3,1.1-2.4,2.4-2.4c1.2,0,2.3,1.1,2.3,2.4c0,1.3-1.1,2.4-2.3,2.4
		C13.5,49.6,12.4,48.5,12.4,47.2 M10.1,47.2c0-0.5-0.4-0.9-0.9-0.9c-0.4,0-0.9,0.5-0.9,0.9c0,0.4,0.5,0.9,0.9,0.9
		C9.7,48.1,10.1,47.7,10.1,47.2 M6.9,47.3c0-1.3,0.9-2.4,2.2-2.4c1.3,0,2.4,1,2.4,2.3c0,1.3-1,2.4-2.3,2.4C8,49.6,6.9,48.5,6.9,47.3
		 M16.4,52.1c0,0.5,0.4,0.9,0.9,1c0.5,0,0.9-0.4,0.9-0.9c0,0,0,0,0,0c0-0.5-0.4-1-0.9-1C16.8,51.2,16.4,51.6,16.4,52.1 M19.6,52.2
		c0,1.3-1,2.4-2.3,2.4c-1.3,0-2.3-1.1-2.3-2.4c0-1.3,1-2.4,2.3-2.4C18.6,49.8,19.6,50.9,19.6,52.2 M6.7,53.1c0.5,0,0.9-0.4,0.9-0.9
		c0-0.5-0.4-1-0.9-1c-0.5,0-0.9,0.4-0.9,0.9C5.8,52.7,6.2,53.1,6.7,53.1 M6.7,54.5c-1.3,0-2.3-1.1-2.3-2.4c0-1.3,1.1-2.4,2.3-2.3
		C8,49.8,9,50.9,9,52.2C9,53.5,7.9,54.5,6.7,54.5 M12,43.4c0.5,0,0.9-0.4,0.9-0.9c0-0.5-0.4-0.9-0.9-0.9c-0.5,0-0.9,0.4-0.9,0.9
		C11.1,43,11.5,43.4,12,43.4 M9.7,42.5c0-1.3,1-2.4,2.3-2.4c1.3,0,2.3,1,2.3,2.3c0,1.3-1,2.4-2.3,2.4C10.7,44.8,9.7,43.8,9.7,42.5
		 M12.9,52.2c0-0.5-0.4-0.9-0.9-0.9c-0.5,0-0.9,0.4-0.9,0.9c0,0.5,0.4,1,0.9,1C12.5,53.1,12.9,52.7,12.9,52.2 M9.7,52.2
		c0-1.3,1-2.4,2.3-2.4c1.3,0,2.3,1.1,2.3,2.4c0,1.3-1,2.4-2.3,2.4C10.7,54.5,9.7,53.5,9.7,52.2"/>
	<circle class="st0" cx="14.5" cy="47.5" r="1.5"/>
	<circle class="st0" cx="11.5" cy="42.5" r="1.5"/>
	<circle class="st0" cx="9.5" cy="47.5" r="1.5"/>
	<circle class="st0" cx="6.5" cy="52.5" r="1.5"/>
	<circle class="st0" cx="12" cy="52" r="2"/>
	<circle class="st0" cx="17" cy="52" r="2"/>
</g>
<g>
	<path class="st1" d="M12,21.9L12,21.9c2.8,0,5.7,0,8.5,0c0.6,0,1.1-0.2,1.4-0.8c0.3-0.6,0.2-1.1-0.1-1.7c-1.5-2.7-2.9-5.5-4.4-8.3
		c-1.4-2.8-2.8-5.5-4.2-8.3c-0.6-1.1-1.9-1.1-2.4,0c-2.9,5.5-5.7,11-8.6,16.5c-0.3,0.6-0.5,1.2-0.1,1.8c0.3,0.6,0.9,0.8,1.5,0.8
		C6.4,21.9,9.2,21.9,12,21.9z M12,23.6c-2.8,0-5.7,0-8.5,0c-1.2,0-2.1-0.5-2.7-1.6c-0.6-1.1-0.5-2.2,0.1-3.4C3.8,13.1,6.6,7.6,9.5,2
		c1.1-2.2,3.9-2.1,5,0.1C15.8,4.5,17,7,18.2,9.4c1.6,3.1,3.3,6.3,4.9,9.4c1.1,2.1-0.2,4.8-2.5,4.8C17.8,23.6,14.9,23.6,12,23.6
		L12,23.6L12,23.6z"/>
	<path class="st1" d="M16.4,21.5c1.4,0,2.7,0,4.1,0h0c0.6,0,0.9-0.2,1.1-0.6c0.2-0.4,0.2-0.8-0.1-1.3c-1.5-2.7-2.9-5.5-4.4-8.3
		c-0.8-1.5-1.5-3-2.3-4.5c-0.6-1.3-1.3-2.5-1.9-3.8c-0.2-0.4-0.5-0.6-0.9-0.6h0c-0.4,0-0.7,0.2-0.9,0.6L7.7,9.7
		C6,13,4.3,16.3,2.5,19.6c-0.3,0.6-0.3,1-0.1,1.4c0.2,0.4,0.5,0.5,1.2,0.5c2.1,0,4.1,0,6.2,0l4.4,0L16.4,21.5L16.4,21.5z M20.5,22.4
		L20.5,22.4c-2.1,0-4.2,0-6.3,0h-2.6v0H9.8c-2.1,0-4.1,0-6.2,0c-0.7,0-1.4-0.1-1.9-1c-0.5-0.9-0.1-1.7,0.1-2.2
		c1.7-3.3,3.4-6.6,5.2-9.9l3.4-6.6c0.3-0.7,0.9-1,1.6-1h0c0.6,0,1.2,0.4,1.5,1c0.6,1.3,1.3,2.5,1.9,3.8c0.8,1.5,1.5,3,2.3,4.5
		c1.4,2.8,2.9,5.5,4.4,8.3c0.3,0.5,0.6,1.2,0.1,2.1C21.9,22,21.4,22.4,20.5,22.4L20.5,22.4z M12.4,23.2l2.2,0c2,0,4.1,0,6.1,0
		c0.9,0,1.7-0.5,2.2-1.3c0.5-0.9,0.5-1.9,0-2.8l-0.7-1.4c-1.4-2.7-2.8-5.3-4.2-8c-0.7-1.3-1.3-2.6-2-3.9c-0.6-1.1-1.1-2.3-1.7-3.4
		c-0.5-0.9-1.3-1.5-2.2-1.5h0c-0.9,0-1.7,0.5-2.1,1.4L1.2,18.9c-0.5,1-0.6,2-0.1,2.9c0.5,0.9,1.2,1.4,2.3,1.4c2,0,4.1,0,6.1,0
		L12.4,23.2L12.4,23.2z M17.2,24c-0.9,0-1.7,0-2.6,0l-5,0c-2,0-4.1,0-6.1,0c-1.4,0-2.4-0.6-3-1.8c-0.6-1.2-0.6-2.5,0.1-3.8L9.2,1.8
		C9.8,0.7,10.8,0,12,0h0c1.2,0,2.3,0.7,2.9,1.9C15.5,3,16,4.2,16.6,5.3c0.6,1.3,1.3,2.6,2,3.9c1.4,2.7,2.8,5.3,4.2,8l0.7,1.4
		c0.6,1.2,0.6,2.5,0,3.7c-0.6,1.1-1.6,1.7-2.8,1.8C19.5,24,18.4,24,17.2,24z"/>
	<path class="st1" d="M15.6,13.2c0-0.5-0.4-0.9-0.9-0.9c-0.5,0-0.9,0.4-0.9,0.9c0,0.5,0.4,0.9,0.9,0.9
		C15.2,14.1,15.6,13.7,15.6,13.2 M12.4,13.2c0-1.3,1.1-2.4,2.4-2.4c1.2,0,2.3,1.1,2.3,2.4c0,1.3-1.1,2.4-2.3,2.4
		C13.5,15.6,12.4,14.5,12.4,13.2 M10.1,13.2c0-0.5-0.4-0.9-0.9-0.9c-0.4,0-0.9,0.5-0.9,0.9c0,0.4,0.5,0.9,0.9,0.9
		C9.7,14.1,10.1,13.7,10.1,13.2 M6.9,13.3c0-1.3,0.9-2.4,2.2-2.4c1.3,0,2.4,1,2.4,2.3c0,1.3-1,2.4-2.3,2.4C8,15.6,6.9,14.5,6.9,13.3
		 M16.4,18.1c0,0.5,0.4,0.9,0.9,1c0.5,0,0.9-0.4,0.9-0.9c0,0,0,0,0,0c0-0.5-0.4-1-0.9-1C16.8,17.2,16.4,17.6,16.4,18.1 M19.6,18.2
		c0,1.3-1,2.4-2.3,2.4c-1.3,0-2.3-1.1-2.3-2.4c0-1.3,1-2.4,2.3-2.4C18.6,15.8,19.6,16.9,19.6,18.2 M6.7,19.1c0.5,0,0.9-0.4,0.9-0.9
		c0-0.5-0.4-1-0.9-1c-0.5,0-0.9,0.4-0.9,0.9C5.8,18.7,6.2,19.1,6.7,19.1 M6.7,20.5c-1.3,0-2.3-1.1-2.3-2.4c0-1.3,1.1-2.4,2.3-2.4
		C8,15.8,9,16.9,9,18.2C9,19.5,7.9,20.5,6.7,20.5 M12,9.4c0.5,0,0.9-0.4,0.9-0.9c0-0.5-0.4-0.9-0.9-0.9c-0.5,0-0.9,0.4-0.9,0.9
		C11.1,9,11.5,9.4,12,9.4 M9.7,8.5c0-1.3,1-2.4,2.3-2.4c1.3,0,2.3,1,2.3,2.3c0,1.3-1,2.4-2.3,2.4C10.7,10.8,9.7,9.8,9.7,8.5
		 M12.9,18.2c0-0.5-0.4-0.9-0.9-0.9c-0.5,0-0.9,0.4-0.9,0.9c0,0.5,0.4,1,0.9,1C12.5,19.1,12.9,18.7,12.9,18.2 M9.7,18.2
		c0-1.3,1-2.4,2.3-2.4c1.3,0,2.3,1.1,2.3,2.4c0,1.3-1,2.4-2.3,2.4C10.7,20.5,9.7,19.5,9.7,18.2"/>
	<circle class="st1" cx="14.5" cy="13.5" r="1.5"/>
	<circle class="st1" cx="11.5" cy="8.5" r="1.5"/>
	<circle class="st1" cx="9.5" cy="13.5" r="1.5"/>
	<circle class="st1" cx="6.5" cy="18.5" r="1.5"/>
	<circle class="st1" cx="12" cy="18" r="2"/>
	<circle class="st1" cx="17" cy="18" r="2"/>
</g>
</svg>
