<?xml version="1.0" encoding="utf-8"?>
<!-- Generator: Adobe Illustrator 16.0.0, SVG Export Plug-In . SVG Version: 6.00 Build 0)  -->
<!DOCTYPE svg PUBLIC "-//W3C//DTD SVG 1.1//EN" "http://www.w3.org/Graphics/SVG/1.1/DTD/svg11.dtd">
<svg version="1.1" id="圖層_1" xmlns="http://www.w3.org/2000/svg" xmlns:xlink="http://www.w3.org/1999/xlink" x="0px" y="0px"
	 width="8px" height="8px" viewBox="0 0 8 8" enable-background="new 0 0 8 8" xml:space="preserve">
<g>
	<path fill="#FFFFFF" d="M8,5.267c0-1-0.6-2-1.6-2.4c0,0.101,0,0.2,0,0.2c0.1,1.9-1.4,3.4-3.3,3.4c-0.1,0-0.2,0-0.2,0
		c0.6,1.3,2.2,1.899,3.6,1.3c0.1-0.1,0.3-0.1,0.4-0.2l1.1,0.4l-0.5-1.2C7.8,6.366,8,5.866,8,5.267z"/>
	<path fill="#FFFFFF" d="M5.6,2.767c0-1.6-1.3-2.8-2.8-2.8S0,1.167,0,2.767c0,0.6,0.2,1.1,0.5,1.6L0,5.566l1.2-0.5
		c1.3,0.9,3,0.601,3.9-0.7C5.4,3.866,5.6,3.267,5.6,2.767L5.6,2.767z"/>
</g>
</svg>
