<?xml version="1.0" encoding="utf-8"?>
<!-- Generator: Adobe Illustrator 16.0.2, SVG Export Plug-In . SVG Version: 6.00 Build 0)  -->
<!DOCTYPE svg PUBLIC "-//W3C//DTD SVG 1.1//EN" "http://www.w3.org/Graphics/SVG/1.1/DTD/svg11.dtd">
<svg version="1.1" id="圖層_1" xmlns="http://www.w3.org/2000/svg" xmlns:xlink="http://www.w3.org/1999/xlink" x="0px" y="0px"
	 width="16px" height="16px" viewBox="0 0 16 16" enable-background="new 0 0 16 16" xml:space="preserve">
<path fill="#FFFFFF" enable-background="new    " d="M15.747,7.58l-0.002-0.005c-0.047-0.066-7.147-7.32-7.147-7.32L8.592,0.253
	C8.278-0.074,7.758-0.084,7.431,0.23C7.423,0.237,7.416,0.245,7.408,0.253L7.402,0.255c0,0-7.1,7.254-7.147,7.32L0.253,7.58
	c-0.329,0.315-0.339,0.838-0.023,1.166C0.386,8.909,0.602,9.001,0.828,9H1v6.5C1,15.775,1.225,16,1.5,16h4C5.775,16,6,15.775,6,15.5
	v-5.33c0-0.275,0.225-0.5,0.5-0.5h3c0.275,0,0.5,0.225,0.5,0.5v5.33c0,0.275,0.225,0.5,0.5,0.5h4c0.275,0,0.5-0.225,0.5-0.5V9h0.172
	c0.328,0.315,0.852,0.305,1.166-0.023c0.316-0.328,0.306-0.851-0.023-1.167C16.162,7.663,15.959,7.581,15.747,7.58z"/>
</svg>
