<svg xmlns="http://www.w3.org/2000/svg" width="8" height="6" viewBox="0 0 8 6">
    <g fill="#FFF" fill-rule="evenodd" opacity=".6">
        <path d="M.65 6a.675.675 0 0 1-.46-.176.568.568 0 0 1 0-.848L2.327 3 .19 1.024a.568.568 0 0 1 0-.848.686.686 0 0 1 .918 0l2.595 2.4a.568.568 0 0 1 0 .848l-2.595 2.4A.675.675 0 0 1 .649 6M4.757 6a.675.675 0 0 1-.46-.176.568.568 0 0 1 0-.848L6.436 3 4.298 1.024a.568.568 0 0 1 0-.848.686.686 0 0 1 .917 0l2.596 2.4a.568.568 0 0 1 0 .848l-2.596 2.4A.675.675 0 0 1 4.757 6"/>
    </g>
</svg>
