<?xml version="1.0" encoding="UTF-8"?>
<svg width="24px" height="24px" viewBox="0 0 24 24" version="1.1" xmlns="http://www.w3.org/2000/svg" xmlns:xlink="http://www.w3.org/1999/xlink">
    <!-- Generator: Sketch 55.1 (78136) - https://sketchapp.com -->
    <title>Regional Coupons/coupon_oceania</title>
    <desc>Created with Sketch.</desc>
    <g id="Icons" stroke="none" stroke-width="1" fill="none" fill-rule="evenodd">
        <g id="Regional-Icons/coupon_oceania">
            <g id="coupon_oceania">
                <circle id="Oval" fill="#415B73" fill-rule="nonzero" cx="11.982" cy="11.9827969" r="11.982"></circle>
                <path d="M17.8977711,19.1354604 C18.0931967,19.1219154 18.3338314,19.0377979 18.5360009,18.9808033 C18.5840732,19.169575 18.708944,19.2633747 18.708944,19.4503877 C18.708944,19.7968601 18.2856731,20.6269868 17.9714444,20.6269868 C17.5012737,20.6269868 16.9818583,19.4673889 16.9818583,19.1373314 C16.9818583,18.9331303 17.5388727,19.0597528 17.7585914,19.1152266 C17.5281238,19.0101971 17.1198751,18.7686412 17.1073153,18.6928171 C16.7479454,18.7244744 16.8728162,19.038117 16.479444,19.038117 C15.8674014,19.038117 14.8631591,18.6312611 14.8631591,17.9869748 C14.8631591,17.7513033 14.6591449,17.5631177 14.6427299,17.3591035 C14.6427299,17.3591035 14.6269012,17.2957888 14.6269012,17.2817188 C14.5178592,17.3432749 14.439302,17.3591035 14.3132587,17.3907609 L14.1250732,17.3907609 C14.171973,17.2957888 14.2352878,17.2025754 14.2352878,17.0460473 C14.2352878,16.856103 14.1409019,16.7939608 14.0787596,16.7318185 C14.0787596,16.7787183 14.0471023,16.8402743 14.0471023,16.8883466 C13.9058166,16.9504889 13.8905741,17.2336465 13.6549025,17.2336465 C13.5757591,17.2336465 13.4972019,17.1545031 13.4972019,17.0777046 C13.8905741,16.997975 13.9685451,16.1819182 13.9538889,15.9462466 C13.670145,16.2294042 13.277359,17.0460473 12.9478878,17.0460473 C12.7597023,17.0460473 12.8224308,16.7634759 12.8224308,16.7634759 C12.713975,16.7634759 12.3680888,15.9937326 12.2426318,15.8207896 C11.9905453,15.5071471 11.0642739,15.3506189 10.546031,15.3506189 C9.98147444,15.3506189 9.87243237,15.6003604 9.52713247,15.710575 C8.72514561,15.977904 7.73731824,15.6953326 7.61186123,16.4955607 C7.28297627,16.5266318 7.01447482,16.6057752 6.66917492,16.6057752 C6.41767466,16.479732 6.41767466,16.6057752 6.2300754,16.6057752 C5.6807613,16.6057752 5.44508972,17.1228457 4.73924749,17.1228457 C4.47309103,17.1228457 3.71976273,16.7939608 3.71976273,16.5741179 C3.71976273,16.3396188 4.07913258,16.2294042 4.07913258,15.8688619 C4.07913258,15.4127612 3.84521974,15.1612609 3.76549006,14.8792758 C3.57789079,14.1880897 3.53099097,13.9688331 3.32580428,13.3573767 C3.24900583,13.1205327 2.93477706,13.0419755 3.01216176,12.8068901 C3.04440538,12.7447479 3.05964782,12.6814331 3.10654764,12.6034622 C3.13761877,12.6814331 3.20093352,12.7605766 3.24900583,12.8068901 C3.29473315,12.7447479 3.24900583,12.6814331 3.24900583,12.6034622 C3.24900583,12.3672044 3.05964782,12.1784326 3.05964782,11.7868191 C3.05964782,11.3160622 3.05964782,11.2844049 3.05964782,10.877549 C3.05964782,10.7509194 3.1686899,10.7192621 3.23259089,10.6876047 C3.24900583,10.735677 3.24900583,10.7978193 3.24900583,10.8447191 C3.54564717,10.8130617 3.907362,10.4214482 4.07913258,10.2490914 C4.26790434,10.0609059 4.83304712,10.0286623 5.1314472,9.98176246 C5.69717623,9.88737658 6.98340369,9.44827705 6.98340369,8.9142054 C6.98340369,8.81923327 6.98340369,8.74302107 6.98340369,8.64746269 C6.98340369,8.48976206 7.03088976,8.33323393 7.18741789,8.25467673 C7.26656133,8.39654868 7.35977472,8.45751844 7.42308947,8.5689055 C7.59661879,8.45751844 7.5168891,8.2236056 7.59661879,8.05124878 C7.72148955,8.11339104 7.80004674,8.17670579 7.92550375,8.17670579 C7.92550375,7.73702001 8.23914627,7.67370526 8.2702174,7.31374917 C8.69466073,7.31374917 8.77321793,6.9995204 9.10268913,6.9995204 C9.38467428,6.9995204 9.54178866,7.31374917 9.57344604,7.59573432 C9.65258948,7.48551975 9.77746024,7.42337749 9.91933218,7.42337749 C9.99730313,7.42337749 10.1227601,7.53300581 10.1538313,7.54824825 C10.2482171,7.4075488 10.2007311,7.29792048 10.2007311,7.15722103 C10.2007311,6.93737815 10.4364027,6.82716358 10.4364027,6.60673444 C10.4364027,6.3874778 11.0642739,6.24619211 11.3316029,6.24619211 C11.4418175,6.24619211 11.5666882,6.15121998 11.6147605,6.13597754 C11.5192022,5.99527809 11.3632603,5.94720578 11.3316029,5.77484895 C11.8650883,5.99527809 12.1799033,6.21453473 12.7438736,6.21453473 C12.9478878,6.21453473 13.0117888,6.08907772 13.1841456,6.08907772 C13.277359,6.08907772 13.4972019,6.24619211 13.4972019,6.37223536 C13.4972019,6.57624956 13.2615303,6.59090575 13.1360733,6.68587788 L12.9478878,7.47086356 C12.9478878,7.59573432 13.1689032,7.56466319 13.2615303,7.62739169 C13.3565025,7.68953395 13.3565025,7.92637802 13.419231,7.94103421 C13.8425018,8.09756235 14.0787596,8.17670579 14.4703731,8.33323393 C14.6908022,8.41179112 14.7687732,8.75650477 15.0677595,8.75650477 C15.5531726,8.75650477 15.648731,7.8302334 15.7261157,7.47086356 L15.7261157,6.05742035 C15.9764434,5.86923483 15.8990587,5.66522063 16.1658014,5.52334869 C16.2138738,5.94720578 16.4167155,6.22919092 16.5105151,6.52934975 C16.5738298,6.74743389 16.4952727,7.03000528 16.6682157,7.15722103 C16.8247439,7.20236211 17.1231439,7.29792048 17.1858725,7.33016411 C17.3752305,7.45444862 17.3752305,7.95627665 17.4532014,8.20777692 C17.5939009,8.63222025 17.7199441,8.83564821 17.8459874,9.22726167 C17.9714444,9.60480519 18.6462155,9.74609089 18.9135444,10.0134198 C19.1017299,10.2016054 19.1322148,10.4994192 19.1961158,10.7192621 C19.2582581,10.9244488 19.5097583,10.9244488 19.7143588,10.9244488 C19.7143588,11.5505613 20.3099865,11.8178903 20.6078003,12.1162903 L20.5925578,12.1631902 C20.8428856,12.4920751 21,13.3409618 21,13.8117187 C21,14.1570186 20.9067866,14.6430179 20.7655009,14.7854761 L20.7655009,15.2251619 C20.6863575,15.3506189 20.7344298,15.4127612 20.6552864,15.5388044 C20.3721287,15.977904 20.0895573,16.1350183 19.9336154,16.6356739 C19.8081584,17.0132174 19.4775147,17.5009755 19.4775147,18.0497033 L19.4775147,18.0186322 C19.3073878,18.731545 18.0514547,18.4191962 17.8977711,19.1354604 Z M19.2277732,6.46796425 C19.1017299,6.31084986 18.8185723,6.35716343 18.7716725,6.15373548 L19.2418431,6.15373548 C19.2735005,6.16839167 19.4153725,6.10683566 19.4153725,6.10683566 C19.651044,6.02769222 19.8861294,6.04410716 20.0274151,5.98079241 C20.2466717,5.87057784 20.1534583,5.52527794 20.3721287,5.52527794 C20.4671008,5.52527794 20.5140007,5.66773613 20.5140007,5.76094952 C20.5140007,6.09100697 20.1845294,6.02769222 20.1845294,6.31084986 C19.9013718,6.37416461 19.7600861,6.54652144 19.4306149,6.54652144 C19.3684726,6.54652144 19.1644584,6.43747937 19.1480435,6.38940705 L19.2277732,6.46796425 Z M15.7349094,2 C15.963546,2.08676466 16.2320474,2.14890692 16.4483728,2.14890692 C16.6377308,2.14890692 16.7321167,2.3687498 16.9191297,2.3687498 C16.9191297,2.49537931 17.045173,2.5100355 17.1231439,2.52527794 C17.6255582,2.68297857 17.6097295,3.10683566 17.9878593,3.29502117 C18.1443874,3.37416461 18.4738587,3.20063529 18.4738587,3.54652144 C18.4738587,3.71887826 18.1754586,3.65556351 18.1754586,3.79684921 C18.1754586,3.87599265 18.4427875,4.1421491 18.4738587,4.17380648 C18.630973,4.33092086 18.5993157,4.44113543 18.7247727,4.62932094 C18.7716725,4.70729189 18.959858,4.78643533 19.0700726,4.78643533 C19.1175586,4.78643533 19.1644584,4.89606365 19.1961158,4.95996465 C19.2271869,5.0367631 19.3209866,4.97462084 19.3837151,4.99044953 C19.4775147,5.02152066 19.5097583,5.11590654 19.542002,5.17863504 C19.5724868,5.25719223 19.8081584,5.22553486 19.8556445,5.2407773 C19.7600861,5.3035058 19.6504578,5.38206299 19.6504578,5.49227756 L19.5560719,5.49227756 C19.525587,5.49227756 19.2899155,5.33574942 19.2582581,5.3035058 L18.8496434,5.3035058 C18.6151443,5.25719223 18.2534295,5.08424916 18.2534295,4.91189234 C18.2534295,4.84799134 18.1279725,4.8180927 18.0969014,4.78643533 C17.7826726,4.47162031 17.5006875,4.03310703 16.9818583,4.03310703 C16.5896585,4.03310703 16.6213159,4.31567842 16.4020593,4.4247205 C16.4642015,4.62932094 16.3229158,4.6926357 16.3229158,4.80226402 L15.7261157,4.80226402 C15.4535105,4.80226402 15.3139835,4.58476612 15.1299018,4.44054918 L15.7349094,2 Z" id="Combined-Shape" fill="#00F4BD"></path>
                <circle id="Oval" stroke="#FFFFFF" cx="12" cy="12" r="11.5"></circle>
            </g>
        </g>
    </g>
</svg>