<?xml version="1.0" encoding="UTF-8"?>
<svg width="24px" height="24px" viewBox="0 0 24 24" version="1.1" xmlns="http://www.w3.org/2000/svg" xmlns:xlink="http://www.w3.org/1999/xlink">
    <!-- Generator: Sketch 55.1 (78136) - https://sketchapp.com -->
    <title>Flags/northern_ireland</title>
    <desc>Created with Sketch.</desc>
    <g id="Icons" stroke="none" stroke-width="1" fill="none" fill-rule="evenodd">
        <g id="Flags/northern_ireland">
            <g id="northern_ireland">
                <path d="M23.99992,12 C23.99992,12.8666667 23.9081867,13.7122667 23.73352,14.5269333 C22.7425867,19.1509333 19.0876,22.7861333 14.4539733,23.7485333 C13.66184,23.9136 12.8412267,24 12,24 C11.12392,24 10.2699467,23.9061333 9.44784,23.7274667 C4.86085333,22.7341333 1.25056,19.1178667 0.266506667,14.5269333 C0.0917866667,13.7122667 -5.68434189e-14,12.8666667 -5.68434189e-14,12 C-5.68434189e-14,11.1498667 0.0883466667,10.3208 0.256186667,9.5208 C1.22552,4.90746667 4.84466667,1.26906667 9.44784,0.272266667 C10.2699467,0.0936 11.12392,-5.68434189e-14 12,-5.68434189e-14 C12.8412267,-5.68434189e-14 13.66184,0.0864 14.4539733,0.2512 C19.1038133,1.21706667 22.7676,4.87466667 23.74392,9.5208 C23.9116533,10.3208 23.99992,11.1498667 23.99992,12" id="Fill-245" fill="#F3F4F1"></path>
                <path d="M14.4562933,14.5272 L14.4562933,23.7485333 C13.6643467,23.9136 12.8438933,24 12.0026667,24 C11.1266133,24 10.2676,23.9061333 9.45090667,23.7274667 L9.45090667,14.5272 L0.266506667,14.5272 C0.0917866667,13.7106667 4.4408921e-14,12.8672 4.4408921e-14,12.0005333 C4.4408921e-14,11.1504 0.0883466667,10.32 0.256186667,9.52186667 L9.45090667,9.52186667 L9.45090667,0.272266667 C10.2676,0.0936 11.1266133,0 12.0026667,0 C12.8438933,0 13.6643467,0.0864 14.4562933,0.2512 L14.4562933,9.52186667 L23.74392,9.52186667 C23.9116533,10.32 23.99992,11.1504 23.99992,12.0005333 C23.99992,12.8672 23.9081867,13.7106667 23.73352,14.5272 L14.4562933,14.5272 L14.4562933,14.5272 Z" id="Path" fill="#B0252A"></path>
                <polyline id="Fill-248" fill="#FFFFFE" points="17.15336 9.08826667 13.5047467 9.328 11.9805333 6.124 10.44616 9.328 6.79754667 9.08586667 8.84402667 12.0717333 6.79754667 15.0346667 10.44616 14.8178667 12 18.0653333 13.5047467 14.8181333 17.15336 15.0352 15.10688 12.0730667 17.15336 9.08826667"></polyline>
                <path d="M10.4762133,14.7666667 L11.99928,17.9501333 L13.4742933,14.7672 L17.0557333,14.9802667 L15.0473067,12.0730667 L17.0557333,9.144 L13.4747467,9.37893333 L11.9804,6.23786667 L10.47608,9.37893333 L6.89514667,9.1416 L8.9036,12.072 L6.89514667,14.9797333 L10.4762133,14.7666667 Z M12.00072,18.1805333 L10.4161333,14.8688 L6.69989333,15.0896 L8.78445333,12.0717333 L6.69989333,9.03013333 L10.4162667,9.2768 L11.9806933,6.01013333 L13.5347467,9.2768 L17.2510133,9.0328 L15.1664533,12.0730667 L17.2510133,15.0904 L13.5352,14.8690667 L12.00072,18.1805333 L12.00072,18.1805333 Z" id="Fill-249" fill="#1B1A19"></path>
                <path d="M12.95536,14.4328 C12.94736,14.5069333 12.8814667,14.5608 12.80728,14.5533333 C12.5834933,14.5309333 12.08544,14.4885333 11.9048267,14.4861333 C11.75144,14.4837333 11.39448,14.5272 11.2086667,14.5512 C11.1473067,14.5592 11.09384,14.5104 11.0956,14.4485333 C11.10288,14.1949333 11.11152,13.6045333 11.0437867,13.3850667 C10.9935467,13.2224 10.78232,12.9544 10.7300533,12.7802667 C10.6526933,12.5226667 10.6509067,11.9866667 10.6735733,11.7184 C10.71424,11.2373333 10.90464,9.80053333 10.90464,9.80053333 C10.90464,9.80053333 10.90896,9.52106667 11.00552,9.42453333 C11.1710133,9.25893333 11.3065333,9.5552 11.3065333,9.5552 C11.3065333,9.5552 11.3332533,8.94133333 11.4258133,8.85653333 C11.6245867,8.67493333 11.8006667,8.95306667 11.8006667,8.95306667 C11.8006667,8.95306667 11.8574667,8.48746667 12.10736,8.48746667 C12.4083733,8.48746667 12.4140533,8.97013333 12.4140533,8.97013333 C12.4140533,8.97013333 12.4837067,8.8496 12.5674133,8.83946667 C12.7548267,8.8168 12.8020533,9.04 12.8020533,9.04 L13.0632533,11.8429333 L13.0647467,11.8586667 C13.0647467,11.8586667 13.06696,11.8637333 13.0705067,11.8658667 C13.0740267,11.8677333 13.07888,11.8669333 13.0841067,11.8549333 C13.1524533,11.6981333 13.4225333,11.1010667 13.6181867,10.9848 C13.6948533,10.9394667 13.8579733,10.8904 13.87544,10.9778667 C13.9254667,11.228 13.65288,11.7872 13.5824533,12.0568 C13.5305067,12.2557333 13.4949067,12.6864 13.42992,12.8549333 C13.3505867,13.0605333 13.06896,13.2914667 13.0016267,13.5013333 C12.9304267,13.7232 12.95536,14.4328 12.95536,14.4328" id="Fill-250" fill="#B0252A"></path>
                <path d="M13.0144147,11.8476115 L12.7534667,9.048 C12.74816,9.02586667 12.70592,8.87253333 12.57328,8.88826667 C12.5288267,8.8936 12.4754133,8.9624 12.4565067,8.99493333 L12.4518937,9.00284487 L12.45272,10.7965333 L12.3535551,10.7965333 L12.35272,8.98373333 L12.3651624,8.98373333 L12.3649867,8.97093333 C12.3649333,8.9664 12.3562667,8.53653333 12.10736,8.53653333 C11.9065333,8.53653333 11.8498933,8.95493333 11.8493867,8.9592 L11.8389097,9.04502712 L11.8667467,10.8344 L11.7685867,10.836 L11.7393067,8.95386667 L11.7404718,8.95384767 C11.7116114,8.91750145 11.6522252,8.85434217 11.58264,8.84506667 C11.5404533,8.83973333 11.5000533,8.8552 11.4589333,8.8928 C11.4110667,8.93653333 11.368,9.27173333 11.3555733,9.55733333 L11.3479537,9.73182514 L11.37928,10.9314667 L11.2811733,10.9341333 L11.2452,9.55653333 L11.2520878,9.55634611 C11.2276514,9.5116995 11.1748131,9.43406976 11.1197333,9.42426667 C11.1102667,9.42266667 11.0818133,9.4176 11.0402133,9.4592 C10.97288,9.52666667 10.9547467,9.73386667 10.9537067,9.80106667 L10.95328,9.80693333 C10.9513867,9.82133333 10.7625867,11.248 10.72248,11.7226667 C10.69864,12.0045333 10.7043467,12.524 10.77704,12.7661333 C10.8020267,12.8493333 10.86936,12.9613333 10.9344533,13.0696 C11.00128,13.1805333 11.0644,13.2853333 11.0906933,13.3706667 C11.1583467,13.5896 11.1535467,14.1408 11.1446667,14.4498667 C11.1442133,14.4653333 11.15024,14.4794667 11.1615733,14.4898667 C11.1728,14.5 11.1871467,14.5045333 11.2023467,14.5026667 C11.39344,14.4776 11.7327467,14.4368 11.89336,14.4368 C11.8975467,14.4368 11.9016,14.4368 11.9055467,14.4368 C12.086,14.4394667 12.5840533,14.4816 12.81216,14.5045333 C12.8577867,14.5093333 12.8996267,14.476 12.9062133,14.4304 C12.90408,14.3672 12.8839467,13.7074667 12.9549067,13.4864 C12.9927467,13.3682667 13.0899733,13.2482667 13.184,13.1322667 C13.2650667,13.0322667 13.3488533,12.9288 13.3841333,12.8373333 C13.4194667,12.7456 13.44656,12.5661333 13.4728,12.3925333 C13.49304,12.2584 13.5121333,12.1317333 13.5349333,12.0445333 C13.5576267,11.9578667 13.60048,11.8421333 13.64584,11.72 C13.7408,11.464 13.85896,11.1456 13.8273333,10.9874667 C13.8266667,10.984 13.82632,10.9837333 13.8232267,10.9824 C13.7930667,10.9688 13.7039467,10.9912 13.6432267,11.0272 C13.49944,11.1125333 13.28336,11.5208 13.1290933,11.8744 C13.1203733,11.8944 13.1073333,11.9074667 13.0903733,11.9130667 L13.0865677,11.9142802 C13.068443,11.9327087 12.9652955,12.0396807 12.86368,12.1837333 C12.78632,12.2933333 12.7167733,12.4608 12.71608,12.4626667 L12.62536,12.4250667 C12.6283467,12.4178667 12.6997067,12.2458667 12.7834933,12.1272 C12.8868912,11.9805027 12.9892605,11.8732739 13.0144147,11.8476115 Z M12.8206933,14.6029333 C12.81464,14.6029333 12.80856,14.6026667 12.8024267,14.6021333 C12.57576,14.5794667 12.08176,14.5376 11.9041333,14.5352 C11.7550933,14.5330667 11.4084533,14.5746667 11.2149867,14.6 C11.17144,14.6056 11.1281333,14.592 11.09576,14.5626667 C11.0632267,14.5333333 11.04528,14.4912 11.0465333,14.4472 C11.0535467,14.2032 11.0627467,13.6128 10.99688,13.3994667 C10.9741333,13.3258667 10.9112267,13.2213333 10.8503467,13.12 C10.7821067,13.0066667 10.7115733,12.8893333 10.6830133,12.7944 C10.6033867,12.5290667 10.60112,11.9930667 10.62464,11.7144 C10.6641067,11.2474667 10.8461867,9.868 10.8556,9.7968 C10.85648,9.75493333 10.8661333,9.4944 10.9708267,9.38986667 C11.03528,9.32533333 11.0969333,9.32053333 11.1372267,9.32773333 C11.1884267,9.33706667 11.2318667,9.3696 11.266,9.4064 C11.2808267,9.20053333 11.3156267,8.89093333 11.3926933,8.82026667 C11.45576,8.76266667 11.5242933,8.73813333 11.59592,8.748 C11.66784,8.7576 11.7284533,8.8008 11.7715467,8.8424 C11.8068533,8.69306667 11.8978133,8.4384 12.10736,8.4384 C12.3499733,8.4384 12.4271467,8.68933333 12.4517067,8.84666667 C12.4820533,8.81946667 12.5194933,8.796 12.5614933,8.79093333 C12.7451733,8.76826667 12.8305333,8.9376 12.8500533,9.02986667 L12.8509067,9.03546667 L13.0993333,11.7013333 C13.2203467,11.44 13.4253067,11.0424 13.59312,10.9426667 C13.6387467,10.9157333 13.7761333,10.8538667 13.8631467,10.8925333 C13.8952267,10.9069333 13.9166933,10.9336 13.9235733,10.9682667 C13.9606667,11.1536 13.84232,11.4728 13.7378667,11.7541333 C13.6933867,11.8741333 13.6513333,11.9872 13.6299467,12.0693333 C13.6084267,12.1517333 13.58968,12.2757333 13.5698667,12.4072 C13.5428533,12.5858667 13.5149067,12.7709333 13.4757333,12.8725333 C13.43488,12.9784 13.3461067,13.088 13.2602667,13.1941333 C13.17192,13.3032 13.0805867,13.4157333 13.0483733,13.5162667 C12.98056,13.7277333 13.0041867,14.424 13.0044267,14.4309333 L13.00456,14.4344 L13.0041867,14.4381333 C12.9939733,14.5322667 12.9135467,14.6029333 12.8206933,14.6029333 Z" id="Combined-Shape" fill="#1B1A19"></path>
                <path d="M14.28568,4.12373333 C14.16664,4.07066667 13.7641867,4.1176 13.7641867,4.1176 C13.7641867,4.1176 13.68384,3.88026667 13.44104,3.8456 C13.1273333,3.8008 12.2612267,4.26186667 12.2612267,4.26186667 L12.14848,4.0992 L12.14848,3.84373333 L12.0398133,3.97146667 L11.9010133,3.804 L11.9010133,4.13893333 L11.7776533,4.3016 C11.7776533,4.3016 10.90072,3.84053333 10.5870133,3.88533333 C10.3442133,3.92 10.2639733,4.15706667 10.2639733,4.15706667 C10.2639733,4.15706667 9.86157333,4.1104 9.74253333,4.1632 C9.63194667,4.21253333 9.43104,4.5096 9.43104,4.5096 L9.76634667,4.9976 L9.87554667,5.5944 L10.1357867,6.15146667 L12.14848,6.01733333 L12.14848,5.9928 L13.9145333,6.11173333 L14.2103467,5.6448 L14.2646667,4.95786667 L14.5985867,4.47013333 C14.5985867,4.47013333 14.3962667,4.1728 14.28568,4.12373333" id="Fill-256" fill="#96232F"></path>
                <path d="M9.89896,5.5872 L10.1386933,6.1256 L12.0989867,5.9944 L12.0989867,5.96666667 L13.8893067,6.0864 L14.1801333,5.63653333 L14.2376533,4.94933333 L14.5672533,4.46986667 C14.50536,4.38026667 14.3566667,4.18213333 14.2757067,4.14613333 C14.18312,4.10506667 13.87712,4.12906667 13.7670133,4.14186667 L13.74736,4.14426667 L13.7409333,4.12533333 C13.7401867,4.1232 13.662,3.90213333 13.4376,3.87013333 C13.1342933,3.82666667 12.2684,4.2792 12.2597333,4.28373333 L12.2418933,4.29333333 L12.0989867,4.10773333 L12.0989867,3.91093333 L12.0148,4.00986667 L11.9010133,3.87253333 L11.9010133,4.1464 L11.7732533,4.33333333 L11.7541067,4.3232 C11.7454667,4.31866667 10.8871733,3.86613333 10.5844533,3.9096 C10.35936,3.94186667 10.28504,4.1624 10.28432,4.1648 L10.2781067,4.18373333 L10.2581867,4.18133333 C10.14848,4.1688 9.84349333,4.14453333 9.75098667,4.1856 C9.67005333,4.2216 9.52181333,4.42 9.46008,4.5096 L9.79010667,4.99306667 L9.89896,5.5872 Z M10.1079467,6.17706667 L9.85149333,5.59893333 L9.74290667,5.0072 L9.40072,4.50986667 L9.40997333,4.496 C9.41832,4.48346667 9.61538667,4.19226667 9.73109333,4.1408 C9.8408,4.092 10.1622133,4.12186667 10.2448267,4.13066667 C10.26952,4.0712 10.36096,3.892 10.5776533,3.86106667 C10.8723733,3.8184 11.62336,4.2 11.75728,4.2696 L11.85152,4.1312 L11.85152,3.73573333 L12.01528,3.93306667 L12.14848,3.77626667 L12.14848,4.09093333 L12.25584,4.23066667 C12.3873067,4.16293333 13.1498133,3.77893333 13.4448,3.82133333 C13.6616533,3.85226667 13.7550933,4.032 13.7803467,4.0912 C13.8628267,4.0824 14.18584,4.05253333 14.2957067,4.10133333 C14.4114133,4.1528 14.6089867,4.444 14.6173333,4.45626667 L14.6266933,4.47013333 L14.2853867,4.9664 L14.2278133,5.6528 L13.9150133,6.13733333 L12.14848,6.01893333 L12.14848,6.04026667 L10.1079467,6.17706667 L10.1079467,6.17706667 Z" id="Fill-257" fill="#1B1A19"></path>
                <path d="M14.31528,4.9616 C14.33728,4.9416 14.8702933,4.4504 14.6979467,3.7376 C14.5890133,3.28693333 14.28208,2.9952 13.87688,2.95706667 C13.6001867,2.93066667 13.40696,3.036 13.22024,3.1376 C13.1531733,3.17413333 13.0837867,3.212 13.0114133,3.24266667 C12.7206667,3.36613333 12.3108533,3.436 12.3067467,3.4368 L12.3475467,3.67866667 C12.3654667,3.67573333 12.7902133,3.6032 13.10728,3.46853333 C13.19064,3.43333333 13.2653333,3.39253333 13.3376,3.35333333 C13.50608,3.2616 13.65152,3.1824 13.8538667,3.20133333 C14.2805333,3.2416 14.4194933,3.63013333 14.4594133,3.7952 C14.5969333,4.364 14.1349067,4.8128 14.11736,4.8288 L14.31528,4.9616" id="Fill-258" fill="#F3CC2E"></path>
                <path d="M14.1557867,4.82506667 L14.31264,4.9304 C14.39848,4.84613333 14.82928,4.38533333 14.67408,3.74346667 C14.5677333,3.30346667 14.2688533,3.01866667 13.87456,2.9816 C13.60568,2.956 13.4157067,3.0592 13.2321867,3.1592 C13.1645067,3.196 13.0947733,3.23413333 13.0209867,3.26533333 C12.76856,3.37253333 12.4278133,3.43946667 12.3349867,3.45653333 L12.3676267,3.65013333 C12.46392,3.6328 12.82184,3.56293333 13.09768,3.44613333 C13.17968,3.4112 13.2536,3.37093333 13.3250667,3.33226667 C13.4977867,3.23813333 13.6462933,3.15706667 13.85616,3.1768 C14.2986133,3.21866667 14.4421067,3.6192 14.48328,3.78933333 C14.60944,4.31146667 14.2498667,4.7272 14.1557867,4.82506667 Z M14.3175733,4.9928 L14.0777867,4.832 L14.1006933,4.81093333 C14.10544,4.8064 14.5706133,4.35973333 14.4355467,3.80106667 C14.3968533,3.64106667 14.2625067,3.26453333 13.8515733,3.22586667 C13.6566933,3.20746667 13.5141867,3.28506667 13.34936,3.37493333 C13.2760267,3.41466667 13.2010133,3.45546667 13.1168533,3.4912 C12.7968267,3.62693333 12.3696267,3.7 12.3516267,3.70293333 L12.3274133,3.70693333 L12.27848,3.41653333 L12.3026667,3.41253333 C12.3067467,3.41173333 12.7137333,3.3424 13.0018133,3.22 C13.0733867,3.18986667 13.14208,3.15226667 13.2085067,3.11626667 C13.3986933,3.01253333 13.5949067,2.9056 13.8791733,2.93253333 C14.2953067,2.97173333 14.6102933,3.27066667 14.7218133,3.73173333 C14.8969067,4.45626667 14.3549333,4.95866667 14.33176,4.97973333 L14.3175733,4.9928 L14.3175733,4.9928 Z" id="Fill-259" fill="#1B1A19"></path>
                <path d="M14.1246933,2.8952 C14.1246933,2.9968 14.2070933,3.0792 14.3087467,3.0792 C14.4103733,3.0792 14.4927733,2.9968 14.4927733,2.8952 C14.4927733,2.7936 14.4103733,2.7112 14.3087467,2.7112 C14.2070933,2.7112 14.1246933,2.7936 14.1246933,2.8952" id="Fill-260" fill="#F3F4F1"></path>
                <path d="M14.600128,2.80431373 C14.3893259,2.80431373 14.2178334,2.97566922 14.2178334,3.18666667 C14.2178334,3.39766411 14.3893259,3.56901961 14.600128,3.56901961 C14.8109941,3.56901961 14.9824866,3.39766411 14.9824866,3.18666667 C14.9824866,2.97566922 14.8109941,2.80431373 14.600128,2.80431373 Z M14.600128,3.68666667 C14.3244489,3.68666667 14.10016,3.46224211 14.10016,3.18666667 C14.10016,2.91109122 14.3244489,2.68666667 14.600128,2.68666667 C14.8758711,2.68666667 15.10016,2.91109122 15.10016,3.18666667 C15.10016,3.46224211 14.8758711,3.68666667 14.600128,3.68666667 L14.600128,3.68666667 Z" id="Fill-261" fill="#1B1A19"></path>
                <path d="M13.5848,2.748 C13.5848,2.8496 13.6672,2.932 13.7688533,2.932 C13.8705067,2.932 13.9529067,2.8496 13.9529067,2.748 C13.9529067,2.64613333 13.8705067,2.56373333 13.7688533,2.56373333 C13.6672,2.56373333 13.5848,2.64613333 13.5848,2.748" id="Fill-262" fill="#F3F4F1"></path>
                <path d="M14.0602933,2.65677188 C13.8494777,2.65677188 13.6779103,2.82865687 13.6779103,3.03951949 C13.6779103,3.24974313 13.8494777,3.42162812 14.0602933,3.42162812 C14.271109,3.42162812 14.4426764,3.24974313 14.4426764,3.03951949 C14.4426764,2.82865687 14.271109,2.65677188 14.0602933,2.65677188 Z M14.0602933,3.5392 C13.7845327,3.5392 13.5602933,3.31491885 13.5602933,3.03951949 C13.5602933,2.76348115 13.7845327,2.5392 14.0602933,2.5392 C14.336054,2.5392 14.5602933,2.76348115 14.5602933,3.03951949 C14.5602933,3.31491885 14.336054,3.5392 14.0602933,3.5392 L14.0602933,3.5392 Z" id="Fill-263" fill="#1B1A19"></path>
                <path d="M13.1430933,2.84613333 C13.1430933,2.94773333 13.2254933,3.03013333 13.3271467,3.03013333 C13.4288,3.03013333 13.5112,2.94773333 13.5112,2.84613333 C13.5112,2.74453333 13.4288,2.66213333 13.3271467,2.66213333 C13.2254933,2.66213333 13.1430933,2.74453333 13.1430933,2.84613333" id="Fill-264" fill="#F3F4F1"></path>
                <path d="M13.6185867,2.75524706 C13.407771,2.75524706 13.2362036,2.92660256 13.2362036,3.1376 C13.2362036,3.34859744 13.407771,3.51995294 13.6185867,3.51995294 C13.8294023,3.51995294 14.0009058,3.34859744 14.0009058,3.1376 C14.0009058,2.92660256 13.8294023,2.75524706 13.6185867,2.75524706 Z M13.6185867,3.6376 C13.342826,3.6376 13.1185867,3.41317545 13.1185867,3.1376 C13.1185867,2.86138517 13.342826,2.6376 13.6185867,2.6376 C13.8942834,2.6376 14.1185867,2.86138517 14.1185867,3.1376 C14.1185867,3.41317545 13.8942834,3.6376 13.6185867,3.6376 L13.6185867,3.6376 Z" id="Fill-265" fill="#1B1A19"></path>
                <path d="M12.7504533,3.0424 C12.7504533,3.144 12.8328533,3.2264 12.9345067,3.2264 C13.03616,3.2264 13.11856,3.144 13.11856,3.0424 C13.11856,2.9408 13.03616,2.8584 12.9345067,2.8584 C12.8328533,2.8584 12.7504533,2.9408 12.7504533,3.0424" id="Fill-266" fill="#F3F4F1"></path>
                <path d="M13.2259467,2.95151373 C13.015131,2.95151373 12.8435636,3.12286922 12.8435636,3.33386667 C12.8435636,3.54486411 13.015131,3.71621961 13.2259467,3.71621961 C13.4367623,3.71621961 13.6082658,3.54486411 13.6082658,3.33386667 C13.6082658,3.12286922 13.4367623,2.95151373 13.2259467,2.95151373 Z M13.2259467,3.83386667 C12.950186,3.83386667 12.7259467,3.60944211 12.7259467,3.33386667 C12.7259467,3.05829122 12.950186,2.83386667 13.2259467,2.83386667 C13.5016434,2.83386667 13.7259467,3.05829122 13.7259467,3.33386667 C13.7259467,3.60944211 13.5016434,3.83386667 13.2259467,3.83386667 L13.2259467,3.83386667 Z" id="Fill-267" fill="#1B1A19"></path>
                <path d="M12.3578133,3.1896 C12.3578133,3.2912 12.4402133,3.3736 12.5418667,3.3736 C12.64352,3.3736 12.72592,3.2912 12.72592,3.1896 C12.72592,3.088 12.64352,3.0056 12.5418667,3.0056 C12.4402133,3.0056 12.3578133,3.088 12.3578133,3.1896" id="Fill-268" fill="#F3F4F1"></path>
                <path d="M12.8333067,3.09871373 C12.622491,3.09871373 12.4509236,3.27006922 12.4509236,3.48106667 C12.4509236,3.69206411 12.622491,3.86341961 12.8333067,3.86341961 C13.0441223,3.86341961 13.2156258,3.69206411 13.2156258,3.48106667 C13.2156258,3.27006922 13.0441223,3.09871373 12.8333067,3.09871373 Z M12.8333067,3.98106667 C12.557546,3.98106667 12.3333067,3.75664211 12.3333067,3.48106667 C12.3333067,3.20549122 12.557546,2.98106667 12.8333067,2.98106667 C13.1090034,2.98106667 13.3333067,3.20549122 13.3333067,3.48106667 C13.3333067,3.75664211 13.1090034,3.98106667 12.8333067,3.98106667 L12.8333067,3.98106667 Z" id="Fill-269" fill="#1B1A19"></path>
                <path d="M14.5664,3.28773333 C14.5664,3.38933333 14.6488,3.47173333 14.7504533,3.47173333 C14.8521067,3.47173333 14.9345067,3.38933333 14.9345067,3.28773333 C14.9345067,3.18613333 14.8521067,3.10373333 14.7504533,3.10373333 C14.6488,3.10373333 14.5664,3.18613333 14.5664,3.28773333" id="Fill-270" fill="#F3F4F1"></path>
                <path d="M15.0418933,3.19684706 C14.8310777,3.19684706 14.6595103,3.36820256 14.6595103,3.5792 C14.6595103,3.79019744 14.8310777,3.96155294 15.0418933,3.96155294 C15.252709,3.96155294 15.4242764,3.79019744 15.4242764,3.5792 C15.4242764,3.36820256 15.252709,3.19684706 15.0418933,3.19684706 Z M15.0418933,4.0792 C14.7661327,4.0792 14.5418933,3.85477545 14.5418933,3.5792 C14.5418933,3.30362455 14.7661327,3.0792 15.0418933,3.0792 C15.317654,3.0792 15.5418933,3.30362455 15.5418933,3.5792 C15.5418933,3.85477545 15.317654,4.0792 15.0418933,4.0792 L15.0418933,4.0792 Z" id="Fill-271" fill="#1B1A19"></path>
                <path d="M14.7136533,3.77866667 C14.7136533,3.88026667 14.7960533,3.96266667 14.89768,3.96266667 C14.9993333,3.96266667 15.0817333,3.88026667 15.0817333,3.77866667 C15.0817333,3.6768 14.9993333,3.5944 14.89768,3.5944 C14.7960533,3.5944 14.7136533,3.6768 14.7136533,3.77866667" id="Fill-272" fill="#F3F4F1"></path>
                <path d="M15.18912,3.68807753 C14.9783044,3.68807753 14.8068009,3.85932354 14.8068009,4.07018616 C14.8068009,4.1717836 14.8465606,4.26826922 14.9186649,4.3404737 C14.990961,4.41267817 15.0869083,4.45229478 15.1890561,4.45229478 C15.3998717,4.45229478 15.5713752,4.2804098 15.571503,4.07018616 C15.571503,3.85932354 15.3999996,3.68807753 15.18912,3.68807753 Z M15.1890561,4.56986667 C15.0555225,4.56986667 14.9299791,4.51810948 14.835502,4.42354079 C14.7410888,4.3289721 14.6890561,4.20373248 14.68912,4.07018616 C14.68912,3.79414782 14.9134233,3.56986667 15.18912,3.56986667 C15.4648807,3.56986667 15.68912,3.79414782 15.68912,4.07018616 C15.6890561,4.34558552 15.464625,4.56986667 15.1890561,4.56986667 L15.1890561,4.56986667 Z" id="Fill-273" fill="#1B1A19"></path>
                <path d="M14.7136533,4.36746667 C14.7136533,4.46906667 14.7960533,4.55146667 14.89768,4.55146667 C14.9993333,4.55146667 15.0817333,4.46906667 15.0817333,4.36746667 C15.0817333,4.26586667 14.9993333,4.18346667 14.89768,4.18346667 C14.7960533,4.18346667 14.7136533,4.26586667 14.7136533,4.36746667" id="Fill-274" fill="#F3F4F1"></path>
                <path d="M15.1890933,4.27658039 C14.9782138,4.27658039 14.8067103,4.44793589 14.8067103,4.65893333 C14.8067103,4.86993078 14.9782138,5.04128627 15.1890933,5.04128627 C15.399909,5.04128627 15.5714124,4.86993078 15.5714124,4.65893333 C15.5714124,4.44793589 15.399909,4.27658039 15.1890933,4.27658039 Z M15.1890933,5.15893333 C14.9133327,5.15893333 14.6890933,4.93514817 14.6890933,4.65893333 C14.6890933,4.38335789 14.9133327,4.15893333 15.1890933,4.15893333 C15.4647901,4.15893333 15.6890933,4.38335789 15.6890933,4.65893333 C15.6890933,4.93514817 15.4647901,5.15893333 15.1890933,5.15893333 L15.1890933,5.15893333 Z" id="Fill-275" fill="#1B1A19"></path>
                <path d="M14.5173333,4.80933333 C14.5173333,4.91093333 14.5997333,4.99333333 14.7013867,4.99333333 C14.8030133,4.99333333 14.8854133,4.91093333 14.8854133,4.80933333 C14.8854133,4.70773333 14.8030133,4.62533333 14.7013867,4.62533333 C14.5997333,4.62533333 14.5173333,4.70773333 14.5173333,4.80933333" id="Fill-276" fill="#F3F4F1"></path>
                <path d="M14.9927733,4.71844706 C14.7818938,4.71844706 14.6103903,4.88980256 14.6103903,5.1008 C14.6103903,5.31179744 14.7818938,5.48315294 14.9927733,5.48315294 C15.203589,5.48315294 15.3750924,5.31179744 15.3750924,5.1008 C15.3750924,4.88980256 15.203589,4.71844706 14.9927733,4.71844706 Z M14.9927733,5.6008 C14.7170127,5.6008 14.4927733,5.37637545 14.4927733,5.1008 C14.4927733,4.82458517 14.7170127,4.6008 14.9927733,4.6008 C15.2684701,4.6008 15.4927733,4.82458517 15.4927733,5.1008 C15.4927733,5.37637545 15.2684701,5.6008 14.9927733,5.6008 L14.9927733,5.6008 Z" id="Fill-277" fill="#1B1A19"></path>
                <path d="M12.0242667,6.2136 L12.0245333,6.20426667 L12.006,6.2088 L11.9874667,6.20426667 L11.9877333,6.2136 L10.0553867,6.7024 L10.0982667,6.95946667 C10.1168533,7.0712 10.2162667,7.15626667 10.3291733,7.15013333 L12,7.0656 L12.012,7.0656 L13.6828267,7.15013333 C13.7957333,7.15626667 13.8951733,7.07386667 13.91376,6.9624 L13.9566133,6.70373333 L12.0242667,6.2136" id="Fill-278" fill="#F3F4F1"></path>
                <path d="M10.0833067,6.72581643 L10.1224533,6.96263021 C10.1386933,7.06112321 10.22536,7.12839986 10.32784,7.12274862 L12.0119733,7.02560115 L13.68424,7.12274862 C13.7852267,7.12786164 13.8733333,7.05816304 13.88952,6.95967004 L13.9286667,6.72420179 L12.0059467,6.23469695 L10.0833067,6.72581643 Z M10.31584,7.17253333 C10.19416,7.17253333 10.0937067,7.08964851 10.0740533,6.97097252 L10.02752,6.68894883 L11.9626133,6.19486918 L11.9618933,6.17253333 L12.006,6.18383581 L12.05008,6.17253333 L12.04936,6.19486918 L13.98456,6.68733419 L13.93792,6.96774324 C13.9175467,7.09126315 13.8081867,7.17818457 13.68152,7.17145691 L12.0105867,7.07377122 L12,7.07377122 L10.33056,7.17145691 C10.32568,7.17172601 10.3207467,7.17253333 10.31584,7.17253333 L10.31584,7.17253333 Z" id="Fill-279" fill="#1B1A19"></path>
                <path d="M13.16912,5.83146667 L12,5.70986667 L12,5.70613333 L11.9752533,5.708 L11.9505067,5.70613333 L11.9505067,5.70986667 L10.8121333,5.83146667 L9.90488,6.15893333 L10.0507733,6.7024 C10.0507733,6.7024 10.7982133,6.524 11.0256,6.48533333 C11.3566133,6.42906667 11.802,6.4344 11.9505067,6.43733333 L11.9505067,6.43813333 C11.9505067,6.43813333 11.9634133,6.43786667 11.9752533,6.4376 C11.9870933,6.43786667 12,6.43813333 12,6.43813333 L12,6.43733333 C12.1472267,6.4344 12.62232,6.42906667 12.9533333,6.48533333 C13.18072,6.524 13.95048,6.7024 13.95048,6.7024 L14.0886933,6.15893333 L13.16912,5.83146667" id="Fill-280" fill="#F3CC2E"></path>
                <path d="M12.1831733,6.4112 C12.3906667,6.4112 12.72048,6.41893333 12.96976,6.46106667 C13.1727733,6.49573333 13.8088533,6.64293333 13.93888,6.67306667 L14.06848,6.1744 L13.1758933,5.85573333 L12.0030133,5.73226667 L12.00192,5.73253333 L11.9881067,5.73146667 L11.9780533,5.7344 L10.8301333,5.85546667 L9.94050667,6.1744 L10.0715467,6.67306667 C10.2010667,6.64266667 10.83248,6.49573333 11.03552,6.46106667 C11.3418667,6.40933333 11.7561867,6.41653333 11.9759467,6.42053333 L12.024,6.41653333 C12.05848,6.416 12.11408,6.4112 12.1831733,6.4112 Z M10.0362933,6.73173333 L9.88165333,6.14346667 L10.82184,5.8072 L11.9505067,5.68773333 L11.9505067,5.68346667 L11.9771733,5.6816 L12.0020267,5.68346667 L12.0494933,5.67946667 L12.0494933,5.68773333 L13.1898133,5.80826667 L14.12736,6.14346667 L13.9744,6.73173333 L13.95104,6.7264 C13.9434133,6.72453333 13.1855467,6.54746667 12.96152,6.5096 C12.6506133,6.4568 12.2106133,6.4584 12.0490933,6.46133333 L11.99944,6.46213333 L11.9509067,6.46133333 C11.7276533,6.45786667 11.3352533,6.46 11.04376,6.5096 C10.8197333,6.54746667 10.0670933,6.72453333 10.05952,6.7264 L10.0362933,6.73173333 L10.0362933,6.73173333 Z" id="Fill-281" fill="#1B1A19"></path>
                <polygon id="Fill-282" fill="#0A0B09" points="11.79688 4.44266667 12.1964533 4.44266667 12.1964533 3.15866667 11.79688 3.15866667"></polygon>
                <path d="M9.69898667,4.9616 C9.67698667,4.9416 9.14397333,4.4504 9.31632,3.7376 C9.42525333,3.28693333 9.73218667,2.9952 10.1373867,2.95706667 C10.41408,2.93066667 10.6073067,3.036 10.7940267,3.1376 C10.8610933,3.17413333 10.93048,3.212 11.0028533,3.24266667 C11.2936,3.36613333 11.7034133,3.436 11.70752,3.4368 L11.66672,3.67866667 C11.6488,3.67573333 11.2240533,3.6032 10.9069867,3.46853333 C10.8236267,3.43333333 10.7489333,3.39253333 10.6766667,3.35333333 C10.5081867,3.2616 10.3627467,3.1824 10.1604,3.20133333 C9.73373333,3.2416 9.59477333,3.63013333 9.55485333,3.7952 C9.41733333,4.364 9.87936,4.8128 9.89690667,4.8288 L9.69898667,4.9616" id="Fill-283" fill="#F3CC2E"></path>
                <path d="M10.2217333,2.9776 C10.1951733,2.9776 10.1678933,2.97893333 10.13968,2.9816 C9.74541333,3.01866667 9.44650667,3.30346667 9.34021333,3.74346667 C9.18496,4.38506667 9.61581333,4.84613333 9.70165333,4.9304 L9.85848,4.82506667 C9.76453333,4.7272 9.40501333,4.31066667 9.53096,3.78933333 C9.57218667,3.6192 9.71578667,3.21866667 10.15808,3.1768 C10.3680533,3.15733333 10.51648,3.23813333 10.6884267,3.33173333 C10.7606933,3.37093333 10.8345867,3.4112 10.9166133,3.44613333 C11.1924,3.56293333 11.55032,3.6328 11.6466133,3.65013333 L11.6793067,3.45653333 C11.58648,3.43946667 11.2457333,3.37253333 10.9933067,3.26533333 C10.91976,3.23413333 10.8498933,3.196 10.7822667,3.1592 C10.61776,3.0696 10.4484267,2.9776 10.2217333,2.9776 Z M9.69669333,4.9928 L9.68250667,4.97973333 C9.65936,4.95866667 9.11733333,4.45626667 9.29248,3.73173333 C9.40394667,3.27066667 9.71893333,2.97173333 10.1350667,2.93253333 C10.41944,2.9056 10.6154667,3.01253333 10.8054133,3.116 C10.87232,3.15253333 10.9411467,3.18986667 11.0124533,3.22 C11.30056,3.3424 11.7075467,3.41173333 11.7116,3.41253333 L11.7358133,3.41653333 L11.6868267,3.70693333 L11.66264,3.70293333 C11.6446133,3.7 11.2174133,3.62693333 10.89744,3.4912 C10.81328,3.45546667 10.7382667,3.41466667 10.6657333,3.3752 C10.5001067,3.28506667 10.3576533,3.20746667 10.1626667,3.22586667 C9.75186667,3.26453333 9.61744,3.64106667 9.57869333,3.80106667 C9.44386667,4.35866667 9.9088,4.8064 9.91354667,4.81093333 L9.9364,4.832 L9.69669333,4.9928 L9.69669333,4.9928 Z" id="Fill-284" fill="#1B1A19"></path>
                <path d="M9.86504,2.8952 C9.86504,2.9968 9.78264,3.0792 9.68098667,3.0792 C9.57933333,3.0792 9.49693333,2.9968 9.49693333,2.8952 C9.49693333,2.7936 9.57933333,2.7112 9.68098667,2.7112 C9.78264,2.7112 9.86504,2.7936 9.86504,2.8952" id="Fill-285" fill="#F3F4F1"></path>
                <path d="M9.9724,2.80431373 C9.76158435,2.80431373 9.59001698,2.97566922 9.59001698,3.18666667 C9.59001698,3.39766411 9.76158435,3.56901961 9.9724,3.56901961 C10.1832156,3.56901961 10.3547191,3.39766411 10.3547191,3.18666667 C10.3547191,2.97566922 10.1832156,2.80431373 9.9724,2.80431373 Z M9.9724,3.68666667 C9.69663932,3.68666667 9.4724,3.46224211 9.4724,3.18666667 C9.4724,2.91109122 9.69663932,2.68666667 9.9724,2.68666667 C10.2480968,2.68666667 10.4724,2.91109122 10.4724,3.18666667 C10.4724,3.46224211 10.2480968,3.68666667 9.9724,3.68666667 L9.9724,3.68666667 Z" id="Fill-286" fill="#1B1A19"></path>
                <path d="M10.4049067,2.748 C10.4049067,2.8496 10.3225067,2.932 10.2208533,2.932 C10.1192,2.932 10.0368,2.8496 10.0368,2.748 C10.0368,2.64613333 10.1192,2.56373333 10.2208533,2.56373333 C10.3225067,2.56373333 10.4049067,2.64613333 10.4049067,2.748" id="Fill-287" fill="#F3F4F1"></path>
                <path d="M10.5122667,2.65677188 C10.301451,2.65677188 10.1299476,2.82865687 10.1299476,3.03951949 C10.1299476,3.24974313 10.301451,3.42162812 10.5122667,3.42162812 C10.7230823,3.42162812 10.8946497,3.24974313 10.8946497,3.03951949 C10.8946497,2.82865687 10.7230823,2.65677188 10.5122667,2.65677188 Z M10.5122667,3.5392 C10.236506,3.5392 10.0122667,3.31491885 10.0122667,3.03951949 C10.0122667,2.76348115 10.236506,2.5392 10.5122667,2.5392 C10.7880273,2.5392 11.0122667,2.76348115 11.0122667,3.03951949 C11.0122667,3.31491885 10.7880273,3.5392 10.5122667,3.5392 L10.5122667,3.5392 Z" id="Fill-288" fill="#1B1A19"></path>
                <path d="M10.8466133,2.84613333 C10.8466133,2.94773333 10.7642133,3.03013333 10.6625867,3.03013333 C10.5609333,3.03013333 10.4785333,2.94773333 10.4785333,2.84613333 C10.4785333,2.74453333 10.5609333,2.66213333 10.6625867,2.66213333 C10.7642133,2.66213333 10.8466133,2.74453333 10.8466133,2.84613333" id="Fill-289" fill="#F3F4F1"></path>
                <path d="M10.9540053,2.75524706 C10.7431392,2.75524706 10.5716467,2.92660256 10.5716467,3.1376 C10.5716467,3.34859744 10.7431392,3.51995294 10.9540053,3.51995294 C11.1648075,3.51995294 11.3363,3.34859744 11.3363,3.1376 C11.3363,2.92660256 11.1648075,2.75524706 10.9540053,2.75524706 Z M10.9540053,3.6376 C10.6782622,3.6376 10.4539733,3.41317545 10.4539733,3.1376 C10.4539733,2.86138517 10.6782622,2.6376 10.9540053,2.6376 C11.2296844,2.6376 11.4539733,2.86138517 11.4539733,3.1376 C11.4539733,3.41317545 11.2296844,3.6376 10.9540053,3.6376 L10.9540053,3.6376 Z" id="Fill-290" fill="#1B1A19"></path>
                <path d="M11.2392533,3.0424 C11.2392533,3.144 11.1568533,3.2264 11.0552,3.2264 C10.9535733,3.2264 10.8711733,3.144 10.8711733,3.0424 C10.8711733,2.9408 10.9535733,2.8584 11.0552,2.8584 C11.1568533,2.8584 11.2392533,2.9408 11.2392533,3.0424" id="Fill-291" fill="#F3F4F1"></path>
                <path d="M11.3465814,2.95151373 C11.1357792,2.95151373 10.9642867,3.12286922 10.9642867,3.33386667 C10.9642867,3.54486411 11.1357792,3.71621961 11.3465814,3.71621961 C11.5574475,3.71621961 11.72894,3.54486411 11.72894,3.33386667 C11.72894,3.12286922 11.5574475,2.95151373 11.3465814,2.95151373 Z M11.3465814,3.83386667 C11.0709022,3.83386667 10.8466133,3.60944211 10.8466133,3.33386667 C10.8466133,3.05829122 11.0709022,2.83386667 11.3465814,2.83386667 C11.6223244,2.83386667 11.8466133,3.05829122 11.8466133,3.33386667 C11.8466133,3.60944211 11.6223244,3.83386667 11.3465814,3.83386667 L11.3465814,3.83386667 Z" id="Fill-292" fill="#1B1A19"></path>
                <path d="M11.6318933,3.1896 C11.6318933,3.2912 11.5494933,3.3736 11.44784,3.3736 C11.3462133,3.3736 11.2638133,3.2912 11.2638133,3.1896 C11.2638133,3.088 11.3462133,3.0056 11.44784,3.0056 C11.5494933,3.0056 11.6318933,3.088 11.6318933,3.1896" id="Fill-293" fill="#F3F4F1"></path>
                <path d="M11.7392214,3.09871373 C11.5284192,3.09871373 11.3569267,3.27006922 11.3569267,3.48106667 C11.3569267,3.69206411 11.5284192,3.86341961 11.7392214,3.86341961 C11.9500875,3.86341961 12.12158,3.69206411 12.12158,3.48106667 C12.12158,3.27006922 11.9500875,3.09871373 11.7392214,3.09871373 Z M11.7392214,3.98106667 C11.4635422,3.98106667 11.2392533,3.75664211 11.2392533,3.48106667 C11.2392533,3.20549122 11.4635422,2.98106667 11.7392214,2.98106667 C12.0149644,2.98106667 12.2392533,3.20549122 12.2392533,3.48106667 C12.2392533,3.75664211 12.0149644,3.98106667 11.7392214,3.98106667 L11.7392214,3.98106667 Z" id="Fill-294" fill="#1B1A19"></path>
                <path d="M12.1613867,4.23066667 C12.1613867,4.32666667 12.0836533,4.40426667 11.9877333,4.40426667 C11.8918133,4.40426667 11.8140533,4.32666667 11.8140533,4.23066667 C11.8140533,4.13466667 11.8918133,4.05706667 11.9877333,4.05706667 C12.0836533,4.05706667 12.1613867,4.13466667 12.1613867,4.23066667" id="Fill-295" fill="#F3F4F1"></path>
                <path d="M12.2895467,4.15635568 C12.0821328,4.15635568 11.9133357,4.3252655 11.9133357,4.53253333 C11.9133357,4.73980117 12.0821328,4.90871099 12.2895467,4.90871099 C12.4968933,4.90871099 12.6656904,4.73980117 12.6656904,4.53253333 C12.6656904,4.3252655 12.4968933,4.15635568 12.2895467,4.15635568 Z M12.2895467,5.03253333 C12.013847,5.03253333 11.7895467,4.80844181 11.7895467,4.53253333 C11.7895467,4.25662485 12.013847,4.03253333 12.2895467,4.03253333 C12.5652463,4.03253333 12.7895467,4.25662485 12.7895467,4.53253333 C12.7895467,4.80844181 12.5652463,5.03253333 12.2895467,5.03253333 L12.2895467,5.03253333 Z" id="Fill-296" fill="#1B1A19"></path>
                <path d="M12.1147467,3.30426667 C12.1147467,3.37466667 12.0578933,3.43146667 11.9877333,3.43146667 C11.9175733,3.43146667 11.8606933,3.37466667 11.8606933,3.30426667 C11.8606933,3.23413333 11.9175733,3.17733333 11.9877333,3.17733333 C12.0578933,3.17733333 12.1147467,3.23413333 12.1147467,3.30426667" id="Fill-297" fill="#F3F4F1"></path>
                <path d="M12.3361867,3.31462938 C12.1497534,3.31462938 11.998073,3.46678417 11.998073,3.65236025 C11.998073,3.83881583 12.1497534,3.99097062 12.3361867,3.99097062 C12.5226199,3.99097062 12.6743003,3.83881583 12.6743003,3.65236025 C12.6743003,3.46678417 12.5226199,3.31462938 12.3361867,3.31462938 Z M12.3361867,4.1528 C12.060364,4.1528 11.8361867,3.92852559 11.8361867,3.65236025 C11.8361867,3.37707441 12.060364,3.1528 12.3361867,3.1528 C12.6119213,3.1528 12.8361867,3.37707441 12.8361867,3.65236025 C12.8361867,3.92852559 12.6119213,4.1528 12.3361867,4.1528 L12.3361867,4.1528 Z" id="Fill-298" fill="#1B1A19"></path>
                <path d="M12.1147467,3.59893333 C12.1147467,3.66906667 12.0578933,3.72586667 11.9877333,3.72586667 C11.9175733,3.72586667 11.8606933,3.66906667 11.8606933,3.59893333 C11.8606933,3.5288 11.9175733,3.47173333 11.9877333,3.47173333 C12.0578933,3.47173333 12.1147467,3.5288 12.1147467,3.59893333" id="Fill-299" fill="#F3F4F1"></path>
                <path d="M12.3361867,3.60902938 C12.1497534,3.60902938 11.998073,3.76118417 11.998073,3.94763975 C11.998073,4.13409534 12.1497534,4.28537062 12.3361867,4.28537062 C12.5226199,4.28537062 12.6743003,4.13409534 12.6743003,3.94763975 C12.6743003,3.76118417 12.5226199,3.60902938 12.3361867,3.60902938 Z M12.3361867,4.4472 C12.060364,4.4472 11.8361867,4.22292559 11.8361867,3.94763975 C11.8361867,3.67147441 12.060364,3.4472 12.3361867,3.4472 C12.6119213,3.4472 12.8361867,3.67147441 12.8361867,3.94763975 C12.8361867,4.22292559 12.6119213,4.4472 12.3361867,4.4472 L12.3361867,4.4472 Z" id="Fill-300" fill="#1B1A19"></path>
                <path d="M12.1147467,3.89333333 C12.1147467,3.96346667 12.0578933,4.02026667 11.9877333,4.02026667 C11.9175733,4.02026667 11.8606933,3.96346667 11.8606933,3.89333333 C11.8606933,3.8232 11.9175733,3.7664 11.9877333,3.7664 C12.0578933,3.7664 12.1147467,3.8232 12.1147467,3.89333333" id="Fill-301" fill="#F3F4F1"></path>
                <path d="M12.3361867,3.9038385 C12.1497534,3.9038385 11.998073,4.05524695 11.998073,4.24186667 C11.998073,4.42848638 12.1497534,4.57989484 12.3361867,4.57989484 C12.5226199,4.57989484 12.6743003,4.42848638 12.6743003,4.24186667 C12.6743003,4.05524695 12.5226199,3.9038385 12.3361867,3.9038385 Z M12.3361867,4.74186667 C12.060364,4.74186667 11.8361867,4.51739484 11.8361867,4.24186667 C11.8361867,3.9663385 12.060364,3.74186667 12.3361867,3.74186667 C12.6119213,3.74186667 12.8361867,3.9663385 12.8361867,4.24186667 C12.8361867,4.51739484 12.6119213,4.74186667 12.3361867,4.74186667 L12.3361867,4.74186667 Z" id="Fill-302" fill="#1B1A19"></path>
                <path d="M9.42330667,3.28773333 C9.42330667,3.38933333 9.34090667,3.47173333 9.23925333,3.47173333 C9.13762667,3.47173333 9.0552,3.38933333 9.0552,3.28773333 C9.0552,3.18613333 9.13762667,3.10373333 9.23925333,3.10373333 C9.34090667,3.10373333 9.42330667,3.18613333 9.42330667,3.28773333" id="Fill-303" fill="#F3F4F1"></path>
                <path d="M9.53066667,3.19684706 C9.31985102,3.19684706 9.14834757,3.36820256 9.14834757,3.5792 C9.14834757,3.79019744 9.31985102,3.96155294 9.53066667,3.96155294 C9.74148231,3.96155294 9.91304969,3.79019744 9.91304969,3.5792 C9.91304969,3.36820256 9.74148231,3.19684706 9.53066667,3.19684706 Z M9.53066667,4.0792 C9.25496991,4.0792 9.03066667,3.85477545 9.03066667,3.5792 C9.03066667,3.30362455 9.25496991,3.0792 9.53066667,3.0792 C9.80642734,3.0792 10.0306667,3.30362455 10.0306667,3.5792 C10.0306667,3.85477545 9.80642734,4.0792 9.53066667,4.0792 L9.53066667,4.0792 Z" id="Fill-304" fill="#1B1A19"></path>
                <path d="M9.27608,3.77866667 C9.27608,3.88026667 9.19368,3.96266667 9.09202667,3.96266667 C8.99037333,3.96266667 8.90797333,3.88026667 8.90797333,3.77866667 C8.90797333,3.6768 8.99037333,3.5944 9.09202667,3.5944 C9.19368,3.5944 9.27608,3.6768 9.27608,3.77866667" id="Fill-305" fill="#F3F4F1"></path>
                <path d="M9.38344,3.68807753 C9.17262435,3.68807753 9.00105698,3.85932354 9.00105698,4.07018616 C9.00105698,4.2804098 9.17262435,4.45229478 9.38344,4.45229478 C9.59425565,4.45229478 9.7657591,4.2804098 9.7657591,4.07018616 C9.7657591,3.85932354 9.59425565,3.68807753 9.38344,3.68807753 Z M9.38344,4.56986667 C9.10767932,4.56986667 8.88344,4.34558552 8.88344,4.07018616 C8.88344,3.79414782 9.10767932,3.56986667 9.38344,3.56986667 C9.65913675,3.56986667 9.88344,3.79414782 9.88344,4.07018616 C9.88344,4.34558552 9.65913675,4.56986667 9.38344,4.56986667 L9.38344,4.56986667 Z" id="Fill-306" fill="#1B1A19"></path>
                <path d="M9.27608,4.36746667 C9.27608,4.46906667 9.19368,4.55146667 9.09202667,4.55146667 C8.99037333,4.55146667 8.90797333,4.46906667 8.90797333,4.36746667 C8.90797333,4.26586667 8.99037333,4.18346667 9.09202667,4.18346667 C9.19368,4.18346667 9.27608,4.26586667 9.27608,4.36746667" id="Fill-307" fill="#F3F4F1"></path>
                <path d="M9.38344,4.27658039 C9.17262435,4.27658039 9.00105698,4.44793589 9.00105698,4.65893333 C9.00105698,4.86993078 9.17262435,5.04128627 9.38344,5.04128627 C9.59425565,5.04128627 9.7657591,4.86993078 9.7657591,4.65893333 C9.7657591,4.44793589 9.59425565,4.27658039 9.38344,4.27658039 Z M9.38344,5.15893333 C9.10767932,5.15893333 8.88344,4.93514817 8.88344,4.65893333 C8.88344,4.38335789 9.10767932,4.15893333 9.38344,4.15893333 C9.65913675,4.15893333 9.88344,4.38335789 9.88344,4.65893333 C9.88344,4.93514817 9.65913675,5.15893333 9.38344,5.15893333 L9.38344,5.15893333 Z" id="Fill-308" fill="#1B1A19"></path>
                <path d="M9.4724,4.80933333 C9.4724,4.91093333 9.39,4.99333333 9.28834667,4.99333333 C9.18669333,4.99333333 9.10429333,4.91093333 9.10429333,4.80933333 C9.10429333,4.70773333 9.18669333,4.62533333 9.28834667,4.62533333 C9.39,4.62533333 9.4724,4.70773333 9.4724,4.80933333" id="Fill-309" fill="#F3F4F1"></path>
                <path d="M9.57976,4.71844706 C9.36894435,4.71844706 9.19737698,4.88980256 9.19737698,5.1008 C9.19737698,5.31179744 9.36894435,5.48315294 9.57976,5.48315294 C9.79057565,5.48315294 9.9620791,5.31179744 9.9620791,5.1008 C9.9620791,4.88980256 9.79057565,4.71844706 9.57976,4.71844706 Z M9.57976,5.6008 C9.30399932,5.6008 9.07976,5.37637545 9.07976,5.1008 C9.07976,4.82458517 9.30399932,4.6008 9.57976,4.6008 C9.85545675,4.6008 10.07976,4.82458517 10.07976,5.1008 C10.07976,5.37637545 9.85545675,5.6008 9.57976,5.6008 L9.57976,5.6008 Z" id="Fill-310" fill="#1B1A19"></path>
                <polygon id="Fill-311" fill="#F3CC2E" points="11.66216 4.4328 11.8225067 4.4328 11.8225067 3.13866667 11.66216 3.13866667"></polygon>
                <path d="M11.871973,4.40826667 L12.403227,4.40826667 L12.403227,3.1632 L11.871973,3.1632 L11.871973,4.40826667 Z M11.6376,4.45733333 L12.6376,4.45733333 L12.6376,3.11413333 L11.6376,3.11413333 L11.6376,4.45733333 Z" id="Fill-312" fill="#1B1A19"></path>
                <polygon id="Fill-313" fill="#F3CC2E" points="12.1964533 4.44773333 12.3568 4.44773333 12.3568 3.1536 12.1964533 3.1536"></polygon>
                <path d="M12.4063527,4.4232 L12.9374873,4.4232 L12.9374873,3.17813333 L12.4063527,3.17813333 L12.4063527,4.4232 Z M12.17192,4.47226667 L13.17192,4.47226667 L13.17192,3.12906667 L12.17192,3.12906667 L12.17192,4.47226667 Z" id="Fill-314" fill="#1B1A19"></path>
                <polyline id="Fill-315" fill="#F3CC2E" points="12.31768 1.7632 12.0494933 1.7632 12.0494933 1.50986667 12.2705067 1.3736 11.7109333 1.3736 11.85152 1.50986667 11.85152 1.7632 11.66376 1.7632 11.4617067 1.5568 11.4617067 2.11653333 11.66376 1.96133333 11.85152 1.96133333 11.85152 2.16373333 11.7109333 2.35733333 12.2705067 2.35733333 12.0494933 2.16373333 12.0494933 1.96133333 12.31768 1.96133333 12.43928 2.11653333 12.43928 1.5568 12.31768 1.7632"></polyline>
                <path d="M11.7699733,2.30773333 L12.2036533,2.30773333 L12.0494933,2.17493333 L12.0494933,1.91173333 L12.3291733,1.91173333 L12.43928,2.04853333 L12.43928,1.62666667 L12.3294133,1.7632 L12.0494933,1.7632 L12.0494933,1.49813333 L12.2016,1.3736 L11.7716533,1.3736 L11.9010133,1.4992 L11.9010133,1.7632 L11.65336,1.7632 L11.5112267,1.6176 L11.5112267,2.05733333 L11.6536533,1.91173333 L11.9010133,1.91173333 L11.9010133,2.17386667 L11.7699733,2.30773333 Z M12.33736,2.35733333 L11.6518933,2.35733333 L11.85152,2.1536 L11.85152,1.96133333 L11.6738933,1.96133333 L11.4617067,2.17546667 L11.4617067,1.49626667 L11.6741867,1.72 L11.85152,1.72 L11.85152,1.52026667 L11.6502133,1.324 L12.33944,1.324 L12.0989867,1.52133333 L12.0989867,1.72 L12.30592,1.72 L12.4887733,1.4872 L12.4887733,2.18426667 L12.30616,1.96133333 L12.0989867,1.96133333 L12.0989867,2.15226667 L12.33736,2.35733333 L12.33736,2.35733333 Z" id="Fill-316" fill="#1B1A19"></path>
                <path d="M12.4517333,2.68826667 C12.4517333,2.948 12.2412267,3.15866667 11.98152,3.15866667 C11.72184,3.15866667 11.5113333,2.948 11.5113333,2.68826667 C11.5113333,2.42853333 11.72184,2.21813333 11.98152,2.21813333 C12.2412267,2.21813333 12.4517333,2.42853333 12.4517333,2.68826667" id="Fill-317" fill="#F3CC2E"></path>
                <path d="M11.9868003,2.24318232 C11.7384577,2.24318232 11.536361,2.44528418 11.536361,2.69346527 C11.536361,2.94191582 11.7384577,3.14401768 11.9868003,3.14401768 C12.2351429,3.14401768 12.4371857,2.94191582 12.4371857,2.69346527 C12.4371857,2.44528418 12.2351429,2.24318232 11.9868003,2.24318232 Z M11.9868003,3.1936 C11.7110767,3.1936 11.4867733,2.9691322 11.4867733,2.69346527 C11.4867733,2.41779833 11.7110767,2.1936 11.9868003,2.1936 C12.2625239,2.1936 12.4867733,2.41779833 12.4867733,2.69346527 C12.4867733,2.9691322 12.2625239,3.1936 11.9868003,3.1936 L11.9868003,3.1936 Z" id="Fill-318" fill="#1B1A19"></path>
                <polyline id="Fill-319" fill="#F3CC2E" points="12.3415733 4.95573333 12.14848 4.95573333 12.14848 4.6032 12.3891733 4.46693333 11.59328 4.46693333 11.7525067 4.6032 11.7525067 4.95573333 11.6409067 4.95573333 11.4122133 4.66426667 11.4122133 5.5408 11.6409067 5.3024 11.7525067 5.3024 11.7525067 5.60186667 11.59328 5.7912 12.3891733 5.7912 12.14848 5.60186667 12.14848 5.3024 12.3415733 5.3024 12.4887733 5.5408 12.4887733 4.66426667 12.3415733 4.95573333"></polyline>
                <path d="M11.65808,5.7416 L12.3160533,5.7416 L12.14848,5.61413333 L12.14848,5.2528 L12.3548267,5.2528 L12.4887733,5.45866667 L12.4887733,4.74693333 L12.35488,4.95573333 L12.14848,4.95573333 L12.14848,4.59066667 L12.3151733,4.46693333 L11.6588,4.46693333 L11.802,4.592 L11.802,4.95573333 L11.6287733,4.95573333 L11.4617067,4.73653333 L11.4617067,5.46906667 L11.62888,5.2528 L11.802,5.2528 L11.802,5.61306667 L11.65808,5.7416 Z M12.46232,5.7912 L11.52848,5.7912 L11.7525067,5.59093333 L11.7525067,5.3024 L11.6529333,5.3024 L11.4122133,5.6128 L11.4122133,4.59173333 L11.65304,4.9064 L11.7525067,4.9064 L11.7525067,4.6144 L11.52776,4.4176 L12.4632,4.4176 L12.1979733,4.61546667 L12.1979733,4.9064 L12.3282133,4.9064 L12.5382667,4.58133333 L12.5382667,5.6232 L12.3282667,5.3024 L12.1979733,5.3024 L12.1979733,5.58986667 L12.46232,5.7912 L12.46232,5.7912 Z" id="Fill-320" fill="#1B1A19"></path>
                <path d="M9.91125333,5.56106667 L10.3274667,5.58533333 L10.0982667,4.99333333 L9.84981333,5.43066667 C9.82125333,5.20586667 10.02832,4.73253333 10.02832,4.73253333 L9.50642667,5.08266667 L9.80981333,5.54533333 L9.93285333,6.01813333 L10.4484,5.79546667 C10.4484,5.79546667 10.1035467,5.8168 9.91125333,5.56106667" id="Fill-321" fill="#F3CC2E"></path>
                <path d="M9.54026667,5.08933333 L9.83354667,5.5392 L9.94938667,5.98426667 L10.34048,5.8152 C10.21888,5.80106667 10.0228533,5.7504 9.89168,5.576 L9.85984,5.5336 L10.2907733,5.55866667 L10.0940267,5.0504 L9.83477333,5.50693333 L9.82549333,5.43386667 C9.80306667,5.2576 9.91712,4.9424 9.97464,4.79813333 L9.54026667,5.08933333 Z M9.91632,6.052 L9.78709333,5.55546667 L9.47258667,5.07573333 L10.0845067,4.66533333 L10.0508,4.7424 C10.04904,4.7464 9.89293333,5.10586667 9.87357333,5.3392 L10.10248,4.93626667 L10.3641067,5.612 L9.96677333,5.58906667 C10.15304,5.78613333 10.4437333,5.7712 10.44688,5.77093333 L10.5863733,5.7624 L9.91632,6.052 L9.91632,6.052 Z" id="Fill-322" fill="#1B1A19"></path>
                <path d="M13.0645867,5.7672 C13.0645867,5.7672 12.20168,5.7072 11.9187467,5.72293333 C11.6632533,5.73733333 10.93688,5.8688 10.93688,5.8688 L10.9462133,5.78773333 C10.9462133,5.78773333 11.3588,5.75866667 11.6325867,5.62053333 C11.8131467,5.52933333 11.9222667,5.1728 11.9878933,5.16906667 C12.1113067,5.1616 12.1342933,5.43733333 12.3295733,5.53653333 C12.5798667,5.66346667 13.07392,5.68586667 13.07392,5.68586667 L13.0645867,5.7672" id="Fill-323" fill="#F3CC2E"></path>
                <path d="M10.96832,6.02694448 L10.9650133,6.06475321 C11.1106133,6.03047801 11.6911467,5.89549731 11.9173867,5.87888973 C12.1761867,5.85945534 12.9002667,5.92235211 13.0429067,5.9350728 L13.0465867,5.89267048 C12.9397067,5.88383667 12.5402133,5.84214106 12.3184533,5.69302625 C12.2121333,5.62129567 12.1541067,5.48560826 12.10752,5.37677566 C12.06216,5.27076987 12.0309067,5.20645969 11.9893067,5.20928651 C11.9732533,5.21635356 11.9333333,5.31069871 11.9041867,5.37960248 C11.8383733,5.53507763 11.75656,5.72871487 11.6436533,5.80433233 C11.40016,5.96722789 11.0559467,6.01669726 10.96832,6.02694448 Z M10.9087467,6.14425755 L10.9241867,5.96616783 L10.9445067,5.96440107 C10.9485867,5.96404771 11.35544,5.92411887 11.6214933,5.7463825 C11.7210667,5.67959885 11.80216,5.48808173 11.8613333,5.34780074 C11.9185333,5.21282004 11.9477067,5.1474498 11.9864533,5.14462298 C12.0636533,5.13755593 12.1029067,5.2340212 12.15016,5.34462057 C12.1957867,5.45133306 12.24752,5.57217966 12.3406933,5.63507642 C12.58344,5.79832533 13.0701333,5.82942037 13.0750133,5.82942037 L13.10128,5.83118713 L13.08632,6.00432991 L13.06288,6.0022098 C13.05432,6.00114974 12.19824,5.92305881 11.92016,5.94355326 C11.66904,5.96228095 10.9485333,6.13471703 10.9412533,6.13648379 L10.9087467,6.14425755 L10.9087467,6.14425755 Z" id="Fill-324" fill="#1B1A19"></path>
                <path d="M10.75152,5.23573333 C10.75152,5.3144 10.5552,5.0424 10.4632,5.1712 C10.3976267,5.26293333 10.5688533,5.5944 10.4877333,5.5944 C10.4343733,5.5944 10.3750667,5.47333333 10.3455467,5.42426667 C10.2809333,5.31653333 10.25464,5.18693333 10.2501867,5.1224 C10.2411733,4.9912 10.3368533,4.89066667 10.4877333,4.9136 C10.63176,4.93546667 10.75152,5.05786667 10.75152,5.23573333" id="Fill-325" fill="#F3CC2E"></path>
                <path d="M10.6262655,4.9527985 C10.53978,4.9527985 10.4640386,4.97279622 10.4086239,5.01097369 C10.3410132,5.05787744 10.3078612,5.12696048 10.3151208,5.20622418 C10.322332,5.28476068 10.3656473,5.45710469 10.4819455,5.60290626 C10.4900278,5.61308692 10.4994168,5.62544914 10.5097738,5.63890216 C10.5490722,5.69125983 10.6397199,5.81124616 10.6967316,5.81851806 C10.7061691,5.79052125 10.6727267,5.6934414 10.6501737,5.6283579 C10.5998891,5.48291993 10.5479591,5.33239162 10.6209418,5.25567309 C10.6535615,5.22113157 10.6952313,5.20077025 10.7446447,5.19531633 C10.8588618,5.18186332 10.9861945,5.25312792 11.0787781,5.305122 C11.0962494,5.31530266 11.1173989,5.3269377 11.1350154,5.33602757 C11.1202543,5.13932271 10.9435083,4.98515845 10.6950377,4.95679805 C10.6714684,4.95388929 10.6485282,4.9527985 10.6262655,4.9527985 Z M10.7017649,5.88578312 C10.6017282,5.88578312 10.5171785,5.78470373 10.4322901,5.6719893 C10.4223687,5.65889988 10.4134152,5.64690125 10.4055749,5.63708418 C10.2805653,5.48073836 10.2340073,5.29566853 10.2262154,5.21058732 C10.2172619,5.11241668 10.2616904,5.02188154 10.3482244,4.96188838 C10.4382913,4.89971364 10.5662048,4.874262 10.7084437,4.89062377 C11.0126677,4.92516529 11.2250824,5.11932499 11.2250824,5.3629336 C11.2250824,5.39383917 11.2035941,5.40656499 11.1908173,5.41129172 C11.1477439,5.4276535 11.1015247,5.40183826 11.0253477,5.35893405 C10.9455893,5.31384828 10.83597,5.25203714 10.7581959,5.26112701 C10.7330778,5.26439937 10.7118315,5.27494362 10.693489,5.29457775 C10.644608,5.34584463 10.6976512,5.4992817 10.7363688,5.61163254 C10.7826364,5.74507188 10.8067382,5.8228812 10.7655039,5.86287664 C10.7504524,5.87742044 10.727851,5.88578312 10.7017649,5.88578312 L10.7017649,5.88578312 Z" id="Fill-326" fill="#1B1A19"></path>
                <path d="M10.96232,5.2168 C11.0019733,5.28506667 11.0348267,4.9512 11.1791733,5.01626667 C11.2819733,5.06266667 11.30072,5.4352 11.3708267,5.3944 C11.41696,5.36746667 11.4073067,5.23306667 11.40808,5.17573333 C11.4098133,5.05013333 11.36736,4.92506667 11.3387467,4.86693333 C11.2805867,4.74906667 11.1472533,4.71013333 11.0283733,4.80586667 C10.91488,4.89706667 10.87288,5.0632 10.96232,5.2168" id="Fill-327" fill="#F3CC2E"></path>
                <path d="M11.3559287,5.09560784 C11.3836572,5.09560784 11.4121219,5.10059848 11.4410773,5.11096366 C11.5572426,5.15204047 11.6137793,5.30982148 11.6684511,5.46261184 C11.6929896,5.53132912 11.7294048,5.63267751 11.7567897,5.65455954 C11.8019406,5.6249996 11.7998303,5.47950324 11.7989469,5.4165444 C11.7986524,5.40003689 11.7985052,5.38468108 11.7986524,5.37239643 C11.8018424,5.19273338 11.7228775,5.01844487 11.6757145,4.94396916 C11.6284043,4.86872566 11.5522858,4.81881926 11.4613461,4.80307955 C11.3678544,4.78695595 11.2651853,4.80998967 11.1733622,4.86795787 C10.9748947,4.99272388 10.9245908,5.20386635 11.045173,5.38928782 C11.0545467,5.3743159 11.0649511,5.35473724 11.0735886,5.33899753 C11.1193775,5.25454054 11.1819016,5.13860413 11.2918341,5.10520523 C11.3126428,5.09867901 11.3340894,5.09560784 11.3559287,5.09560784 Z M11.7559063,5.72749967 C11.7459928,5.72749967 11.7362265,5.72596409 11.7267546,5.72289292 C11.6633471,5.70293036 11.6317906,5.62231233 11.5814866,5.48180661 C11.5393295,5.36395073 11.481664,5.20271466 11.403926,5.17545809 C11.3747252,5.16509291 11.3489107,5.16355733 11.3247157,5.17085134 C11.2502659,5.19388507 11.1962812,5.29369787 11.1567742,5.366638 C11.1191321,5.43612306 11.0963604,5.47796766 11.0474796,5.48065493 C11.0331001,5.48103882 11.0055679,5.47835156 10.9844157,5.4499433 C10.8192715,5.22766786 10.8736979,4.9658512 11.1167273,4.81267694 C11.2304388,4.74127239 11.3598058,4.71324803 11.4808297,4.73436228 C11.5973876,4.75432484 11.6979464,4.81920316 11.7566916,4.91248974 C11.8073881,4.99310777 11.8923404,5.18044873 11.8890032,5.37316422 C11.8888069,5.38544887 11.8890032,5.399653 11.8892486,5.41577661 C11.8912117,5.55244337 11.8857151,5.67836106 11.7980635,5.71828618 C11.7844692,5.72442851 11.7701878,5.72749967 11.7559063,5.72749967 L11.7559063,5.72749967 Z" id="Fill-328" fill="#1B1A19"></path>
                <path d="M10.93936,4.736 C10.9543467,4.8224 10.9336,4.92133333 10.9271467,4.99413333 C10.914,5.14266667 10.9296267,5.2576 10.8697333,5.268 C10.8133333,5.27786667 10.7922133,5.18853333 10.7139467,5.04533333 C10.6756,4.97546667 10.6419733,4.88826667 10.62504,4.7904 C10.57672,4.51173333 10.6078933,4.2736 10.6946933,4.2584 C10.7814933,4.24346667 10.89104,4.45733333 10.93936,4.736" id="Fill-329" fill="#F3CC2E"></path>
                <path d="M10.8981715,4.2824 C10.8943576,4.2824 10.89068,4.2824 10.8871385,4.28266667 C10.8287728,4.28666667 10.7541982,4.3272 10.720282,4.4288 C10.6875237,4.52693333 10.7016895,4.65386667 10.7603276,4.7864 C10.7983981,4.87226667 10.8745392,4.9576 10.9806463,5.0336 C11.0349938,5.07253333 11.078717,5.10746667 11.116447,5.1376 C11.2067538,5.21013333 11.2540185,5.24746667 11.3128609,5.24373333 C11.3768793,5.23946667 11.3838941,5.1744 11.3918623,5.0992 C11.3952676,5.0664 11.3990814,5.0304 11.4077307,4.992 C11.411817,4.97386667 11.4180145,4.9544 11.4246207,4.93386667 C11.4444392,4.872 11.4669818,4.80186667 11.4396718,4.74026667 C11.3810337,4.60773333 11.2852104,4.4864 11.1700454,4.39813333 C11.0578089,4.31253333 10.9582398,4.2824 10.8981715,4.2824 Z M11.3001253,5.29333333 C11.1712713,5.29333333 11.1030985,5.23866667 11.0038018,5.1592 C10.966821,5.1296 10.9241194,5.09546667 10.8707253,5.05733333 C10.7581482,4.97653333 10.6772399,4.88586667 10.6369219,4.79466667 C10.5761044,4.6576 10.56153,4.52533333 10.5959229,4.4224 C10.6339934,4.3088 10.7272968,4.24373333 10.8658218,4.2344 C11.0030527,4.2248 11.1481157,4.27386667 11.2815327,4.376 C11.4024867,4.46826667 11.5023962,4.59466667 11.5630775,4.73173333 C11.5936565,4.8008 11.5699561,4.87466667 11.5489798,4.94 C11.5426461,4.96 11.5365167,4.97893333 11.5326347,4.99626667 C11.5241897,5.03386667 11.5203759,5.06906667 11.5170387,5.10106667 C11.5060739,5.2056 11.4979694,5.28106667 11.3343139,5.29226667 C11.3224637,5.29306667 11.3110221,5.29333333 11.3001253,5.29333333 L11.3001253,5.29333333 Z" id="Fill-330" fill="#1B1A19"></path>
                <path d="M11.0972267,5.29493333 C11.1029067,5.3304 11.00264,5.376 10.8732533,5.3968 C10.7438933,5.41733333 10.6344,5.40533333 10.6287467,5.36986667 C10.6230667,5.33413333 10.7233333,5.2888 10.8526933,5.268 C10.98208,5.24746667 11.0915467,5.25946667 11.0972267,5.29493333" id="Fill-331" fill="#F3CC2E"></path>
                <path d="M11.3121585,5.48029754 C11.2518429,5.48029754 11.1781981,5.49377301 11.0915329,5.53015677 C10.8317947,5.63930806 10.7068404,5.84548272 10.6985032,5.91286006 C10.7132219,5.95059137 10.8566003,6.04491965 11.1162355,5.93576836 C11.3628505,5.83200725 11.4879077,5.64065561 11.5071552,5.56384544 C11.4894002,5.52746168 11.4235264,5.48029754 11.3121585,5.48029754 Z M10.8942718,6.2335762 C10.8580927,6.2335762 10.8241266,6.22818601 10.7930424,6.22010073 C10.677506,6.18641206 10.6142568,6.09343133 10.6049933,5.94115854 C10.5835329,5.58810128 10.8912869,5.36306097 11.0765054,5.28490325 C11.2619298,5.20809308 11.5787415,5.17036177 11.6026207,5.52476658 C11.6265514,5.87782384 11.3163271,6.10286416 11.1311601,6.18102187 C11.04784,6.21471054 10.9667844,6.2335762 10.8942718,6.2335762 L10.8942718,6.2335762 Z" id="Fill-332" fill="#1B1A19"></path>
                <path d="M14.1292,5.56106667 L13.7130133,5.58533333 L13.9422133,4.99333333 L14.19064,5.43066667 C14.2192267,5.20586667 14.0121333,4.73253333 14.0121333,4.73253333 L14.5340267,5.08266667 L14.2306667,5.54533333 L14.1076,6.01813333 L13.59208,5.79546667 C13.59208,5.79546667 13.9369333,5.8168 14.1292,5.56106667" id="Fill-333" fill="#F3CC2E"></path>
                <path d="M13.6999467,5.8152 L14.0910667,5.98426667 L14.2101333,5.532 L14.5001867,5.08933333 L14.06584,4.79813333 C14.1233333,4.9424 14.2373867,5.2576 14.2150133,5.43386667 L14.2057067,5.50693333 L13.9464,5.0504 L13.7496533,5.55866667 L14.18064,5.5336 L14.1488267,5.576 C14.0176267,5.7504 13.8215467,5.80106667 13.6999467,5.8152 Z M14.1241333,6.052 L13.4540267,5.7624 L13.5935467,5.77093333 C13.5966133,5.7712 13.88752,5.78613333 14.0737067,5.58906667 L13.67632,5.612 L13.9379733,4.93626667 L14.16688,5.3392 C14.14752,5.10586667 13.9914133,4.7464 13.9896533,4.7424 L13.9559467,4.66533333 L14.5678667,5.07573333 L14.25336,5.55546667 L14.1241333,6.052 L14.1241333,6.052 Z" id="Fill-334" fill="#1B1A19"></path>
                <path d="M13.2889333,5.23573333 C13.2889333,5.3144 13.4852533,5.0424 13.57728,5.1712 C13.6428267,5.26293333 13.4716267,5.5944 13.5527467,5.5944 C13.6061067,5.5944 13.6654133,5.47333333 13.6949067,5.42426667 C13.75952,5.31653333 13.78584,5.18693333 13.7902667,5.1224 C13.7993067,4.9912 13.7036267,4.89066667 13.5527467,4.9136 C13.4086933,4.93546667 13.2889333,5.05786667 13.2889333,5.23573333" id="Fill-335" fill="#F3CC2E"></path>
                <path d="M13.7159077,5.19349835 C13.7256353,5.19349835 13.7352177,5.19386195 13.7448001,5.19531633 C13.7942124,5.20077025 13.8358813,5.22113157 13.8685002,5.25567309 C13.9414813,5.33239162 13.8895524,5.48291993 13.839269,5.6283579 C13.8167165,5.6934414 13.7833233,5.79015765 13.7927121,5.81815446 C13.8500613,5.81088256 13.9402714,5.69125983 13.9794722,5.63926575 C13.9899257,5.62544914 13.9994113,5.61308692 14.0075902,5.60290626 C14.1240309,5.45710469 14.1672001,5.28476068 14.1743143,5.20622418 C14.1816221,5.12732407 14.1484225,5.05787744 14.0809101,5.01133729 C14.0111231,4.96297916 13.9094432,4.94370863 13.7943576,4.95679805 C13.5459411,4.98515845 13.369199,5.13932271 13.3543898,5.33602757 C13.3720544,5.3269377 13.3932034,5.31530266 13.4106743,5.305122 C13.4955125,5.25749106 13.609001,5.19349835 13.7159077,5.19349835 Z M13.7876789,5.88578312 C13.7615935,5.88578312 13.7389926,5.87742044 13.7239414,5.86287664 C13.6827081,5.8228812 13.7067609,5.74507188 13.7530758,5.61163254 C13.7917442,5.4992817 13.8448346,5.34584463 13.7959546,5.29457775 C13.7775642,5.27494362 13.7563667,5.26439937 13.7312492,5.26112701 C13.6537189,5.25240073 13.5439568,5.31384828 13.4641035,5.35893405 C13.3878798,5.40183826 13.3416133,5.4276535 13.2986377,5.41129172 C13.2858611,5.40656499 13.2643733,5.39383917 13.2643733,5.3629336 C13.2643733,5.11932499 13.4767832,4.92516529 13.7810003,4.89062377 C13.923478,4.874262 14.0512434,4.89971364 14.1412599,4.96188838 C14.2278403,5.02188154 14.2722678,5.11241668 14.2632177,5.21058732 C14.2554744,5.29530494 14.209111,5.48073836 14.0839591,5.63708418 C14.0760221,5.64690125 14.0669721,5.65889988 14.0570025,5.67235289 C13.9721644,5.78470373 13.8877134,5.88578312 13.7876789,5.88578312 L13.7876789,5.88578312 Z" id="Fill-336" fill="#1B1A19"></path>
                <path d="M13.0781333,5.2168 C13.03848,5.28506667 13.0056267,4.9512 12.8613067,5.01626667 C12.75848,5.06266667 12.73976,5.4352 12.6696267,5.3944 C12.62352,5.36746667 12.6331733,5.23306667 12.6323733,5.17573333 C12.6306667,5.05013333 12.6730933,4.92506667 12.7017333,4.86693333 C12.7598667,4.74906667 12.8932267,4.71013333 13.0121067,4.80586667 C13.1255733,4.89706667 13.1676,5.0632 13.0781333,5.2168" id="Fill-337" fill="#F3CC2E"></path>
                <path d="M13.0956128,4.79808891 C13.0753431,4.79808891 13.0553678,4.79962449 13.0357361,4.80307955 C12.944743,4.81881926 12.868621,4.86872566 12.8213577,4.94396916 C12.7742415,5.01882877 12.6952239,5.19311728 12.6983649,5.37239643 C12.6986594,5.38506497 12.6983649,5.40003689 12.6981196,5.41692829 C12.6972361,5.48027103 12.6952239,5.62576739 12.7402787,5.65494344 C12.7676158,5.6330614 12.8040818,5.53132912 12.8285723,5.46261184 C12.8832958,5.30982148 12.9398351,5.15204047 13.0559077,5.11096366 C13.1079808,5.09253668 13.1581398,5.0906172 13.2053541,5.10520523 C13.3151936,5.13898802 13.3778188,5.25454054 13.4235116,5.33899753 C13.4321496,5.35473724 13.4425544,5.3743159 13.4518794,5.38928782 C13.5725654,5.20386635 13.5223082,4.99272388 13.3237334,4.86795787 C13.2511451,4.82189043 13.1719311,4.79808891 13.0956128,4.79808891 Z M12.7411621,5.72749967 C12.72688,5.72749967 12.7125979,5.72442851 12.6991011,5.71828618 C12.6113964,5.67836106 12.6059486,5.55244337 12.6078627,5.4161605 C12.608059,5.40003689 12.6083044,5.38544887 12.608059,5.37316422 C12.6047216,5.18083262 12.6896779,4.99310777 12.7403768,4.91248974 C12.7991248,4.81920316 12.8996882,4.75432484 13.0162025,4.73436228 C13.1372321,4.71324803 13.2666542,4.74127239 13.3803709,4.81267694 C13.6234607,4.9658512 13.6778405,5.22766786 13.5126887,5.4499433 C13.4914864,5.47835156 13.4639039,5.48142272 13.4496218,5.48065493 C13.4007388,5.47796766 13.377966,5.43612306 13.3403222,5.366638 C13.3008624,5.29369787 13.2468261,5.19388507 13.1723728,5.17085134 C13.1483731,5.16355733 13.1224101,5.16509291 13.0930607,5.17545809 C13.0154172,5.20271466 12.9577491,5.36395073 12.9155899,5.48180661 C12.8652836,5.62231233 12.8337257,5.70293036 12.7702661,5.72289292 C12.7608429,5.72596409 12.751027,5.72749967 12.7411621,5.72749967 L12.7411621,5.72749967 Z" id="Fill-338" fill="#1B1A19"></path>
                <path d="M13.1010933,4.736 C13.0861333,4.8224 13.10688,4.92133333 13.1133333,4.99413333 C13.12648,5.14266667 13.1108267,5.2576 13.1707467,5.268 C13.2271467,5.27786667 13.2482667,5.18853333 13.3265333,5.04533333 C13.36488,4.97546667 13.3985067,4.88826667 13.41544,4.7904 C13.46376,4.51173333 13.4325867,4.2736 13.3457867,4.2584 C13.2589867,4.24346667 13.14944,4.45733333 13.1010933,4.736" id="Fill-339" fill="#F3CC2E"></path>
                <path d="M13.2093116,4.74026667 C13.1821049,4.80186667 13.2045385,4.87173333 13.2243128,4.93333333 C13.230927,4.95413333 13.2372684,4.97386667 13.2413596,4.992 C13.2500194,5.0304 13.2539743,5.0664 13.2573836,5.0992 C13.2653615,5.1744 13.2723167,5.23946667 13.3364127,5.24373333 C13.3920535,5.24746667 13.4427167,5.20986667 13.5332694,5.1376 C13.5709088,5.10746667 13.6146169,5.07253333 13.6690303,5.0336 C13.7750616,4.95786667 13.8514313,4.87226667 13.8896844,4.7864 C14.0214905,4.48853333 13.9044811,4.29226667 13.7625833,4.28266667 C13.6180944,4.27306667 13.3414586,4.4424 13.2093116,4.74026667 Z M13.3490274,5.29333333 C13.3381174,5.29333333 13.3267301,5.29306667 13.3150019,5.29226667 C13.1511478,5.28106667 13.1430335,5.2056 13.1319872,5.10133333 C13.1285778,5.06933333 13.1248957,5.03386667 13.1163041,4.99626667 C13.1124174,4.97866667 13.1062806,4.95973333 13.0998028,4.93946667 C13.0789375,4.8744 13.0552765,4.80053333 13.0858244,4.73173333 C13.1994244,4.47546667 13.4838336,4.21413333 13.7838577,4.2344 C14.0851092,4.25466667 14.126908,4.53813333 14.0131716,4.79466667 C13.9727365,4.88586667 13.89173,4.9768 13.7790846,5.05733333 C13.7257622,5.09546667 13.6828724,5.1296 13.645983,5.1592 C13.5464978,5.23866667 13.4781059,5.29333333 13.3490274,5.29333333 L13.3490274,5.29333333 Z" id="Fill-340" fill="#1B1A19"></path>
                <path d="M13.1628,5.82346667 C12.8949067,5.7768 12.09816,5.73813333 12,5.73386667 L12,5.7336 C12,5.7336 12.00256,5.7336 12,5.73386667 C11.99744,5.7336 12,5.7336 12,5.7336 L12,5.73386667 C11.90184,5.73813333 11.1050933,5.7768 10.8371733,5.82346667 C10.59,5.86666667 9.89018667,6.07706667 9.89018667,6.07706667 L9.89018667,6.15893333 C9.89018667,6.15893333 10.6128533,5.94533333 10.8650667,5.90213333 C11.1334667,5.856 11.9484267,5.8448 12.0111467,5.84186667 C12.0738667,5.8448 12.8827733,5.856 13.1511467,5.90213333 C13.40336,5.94533333 14.1098133,6.15893333 14.1098133,6.15893333 L14.1098133,6.07706667 C14.1098133,6.07706667 13.4099733,5.86666667 13.1628,5.82346667" id="Fill-341" fill="#F3CC2E"></path>
                <path d="M12.016,5.93389532 C12.02808,5.93499725 12.0566933,5.93609917 12.09896,5.93830303 C12.32984,5.94932231 12.9428533,5.97852342 13.17056,6.05896419 C13.3941067,6.13830303 13.9674933,6.4848595 14.1098133,6.57191185 L14.1098133,6.50855096 C13.9984533,6.44078237 13.4043467,6.07659504 13.18312,5.99670523 C12.9201867,5.90193939 12.12048,5.82204959 12.0243467,5.8126832 C11.8405333,5.82866116 11.11336,5.90744904 10.86608,5.99670523 C10.6448533,6.07659504 10.05104,6.44078237 9.93968,6.50855096 L9.93968,6.57136088 C10.082,6.48430854 10.6499467,6.13830303 10.87336,6.05896419 C11.1012533,5.97797245 11.7080267,5.94932231 11.93656,5.93830303 C11.9782133,5.93609917 12.0061867,5.93499725 12.016,5.93389532 Z M9.89018667,6.708 L9.89018667,6.43306887 L9.90736,6.42204959 C9.93597333,6.40441873 10.6116,5.98568595 10.85736,5.89698072 C11.1185867,5.80221488 11.8550933,5.72728375 11.9990667,5.71350964 L12.0000267,5.70910193 L12.02448,5.71020386 L12.0494933,5.708 L12.0494933,5.71350964 C12.2413067,5.73224242 12.94232,5.80662259 13.19208,5.89698072 C13.43784,5.98568595 14.1134133,6.40441873 14.1420267,6.42204959 L14.1593067,6.43306887 L14.1593067,6.708 L14.1278667,6.68816529 C14.12072,6.68375758 13.4104267,6.24684298 13.16248,6.15923967 C12.9383467,6.07934986 12.3277067,6.05069972 12.09784,6.03968044 C12.0549867,6.03747658 12.0259733,6.03637466 12.016,6.03527273 C12.0082667,6.03637466 11.9796267,6.03747658 11.9373867,6.03968044 C11.7098667,6.05069972 11.1054933,6.07934986 10.8811733,6.15923967 C10.6333333,6.24684298 9.92856,6.68375758 9.92146667,6.68816529 L9.89018667,6.708 L9.89018667,6.708 Z" id="Fill-342" fill="#1B1A19"></path>
                <path d="M13.4654933,5.75733333 C13.2965067,5.6464 13.2380267,5.27973333 13.1732533,5.26853333 C13.0514667,5.2472 12.9917867,5.5104 12.7865067,5.58666667 C12.5233333,5.68453333 12.0230133,5.64266667 12.0230133,5.64266667 L12.02376,5.64266667 C12.02376,5.64266667 11.49592,5.68453333 11.2327733,5.58666667 C11.0274933,5.5104 10.97648,5.2432 10.8546933,5.26453333 C10.7899467,5.27573333 10.7221067,5.64426667 10.5530933,5.75546667 C10.2968533,5.924 9.89018667,6.00186667 9.89018667,6.00186667 L9.89018667,6.08346667 C9.89018667,6.08346667 10.5924,5.87013333 10.8446133,5.82666667 C11.1238933,5.77866667 12.01856,5.7504 12.01856,5.7504 C12.01856,5.7504 12.8771733,5.77866667 13.15648,5.82666667 C13.4086667,5.87013333 14.1098133,6.08346667 14.1098133,6.08346667 L14.1098133,6.00186667 C14.1098133,6.00186667 13.72176,5.92586667 13.4654933,5.75733333" id="Fill-343" fill="#F3CC2E"></path>
                <path d="M12.02376,5.79542027 C12.06088,5.79694551 12.8981333,5.8286705 13.17592,5.88327409 C13.3993333,5.927201 13.9674933,6.1184661 14.1098133,6.16696873 L14.1098133,6.13402355 C14.0232,6.11358533 13.6919733,6.0263416 13.46432,5.85490463 C13.3584533,5.7752871 13.2949333,5.59835926 13.2438133,5.45620689 C13.22128,5.39367205 13.1904533,5.30764852 13.1743733,5.29941222 C13.13288,5.29117592 13.0952533,5.34333913 13.0382667,5.42936267 C12.9807467,5.51630135 12.9092533,5.62428834 12.7981867,5.67157078 C12.5332,5.78413349 12.0436533,5.74752773 12.0228533,5.74600249 C12.0042933,5.74752773 11.4896,5.78413349 11.2245867,5.67157078 C11.1125333,5.62398329 11.0440533,5.51477611 10.9890133,5.42722733 C10.936,5.34272904 10.9015467,5.29148097 10.8590933,5.29971727 C10.84432,5.30795356 10.81536,5.39275691 10.7942933,5.45468165 C10.7481867,5.58981792 10.68552,5.77498205 10.5791733,5.85490463 C10.3517333,6.02603655 10.0201067,6.11358533 9.93968,6.13402355 L9.93968,6.16666368 C10.0758133,6.11755095 10.6299733,5.92689595 10.8529067,5.88327409 C11.1306933,5.8286705 11.9873867,5.79694551 12.02376,5.79542027 Z M9.89018667,6.24262063 L9.89018667,6.0879613 L9.90976,6.08338558 C9.91370667,6.08277548 10.30272,5.99553175 10.5518667,5.80792723 C10.6451467,5.73807124 10.7049333,5.5623636 10.74864,5.43424344 C10.78728,5.32076558 10.81056,5.25243483 10.8506933,5.24450358 C10.9249867,5.22955623 10.97328,5.30581823 11.0289067,5.3945872 C11.0826933,5.48000064 11.1436533,5.57731095 11.24168,5.61879748 C11.4969333,5.72739456 12.0177867,5.69048376 12.02296,5.69017871 C12.0312,5.69048376 12.5259733,5.72739456 12.7811467,5.61879748 C12.8788,5.57731095 12.94272,5.48091578 12.9991733,5.39550234 C13.0581867,5.30642832 13.1096533,5.22955623 13.18376,5.24450358 C13.2237333,5.25243483 13.2484267,5.32107063 13.28936,5.43485353 C13.33536,5.56297369 13.3984,5.73807124 13.4915733,5.80792723 C13.7406933,5.99553175 14.1354933,6.08277548 14.1394133,6.08338558 L14.1593067,6.0879613 L14.1593067,6.24231559 L14.1278133,6.23163891 C14.12072,6.22919852 13.41568,5.98729546 13.16784,5.93848778 C12.89336,5.88449428 12.0323733,5.85185415 12.0237067,5.8515491 C12.0164,5.85185415 11.1350933,5.88449428 10.8606933,5.93848778 C10.6129067,5.98729546 9.92856,6.22889347 9.92165333,6.23133386 L9.89018667,6.24262063 L9.89018667,6.24262063 Z" id="Fill-344" fill="#1B1A19"></path>
                <path d="M12.9432267,5.29493333 C12.9375467,5.3304 13.03784,5.376 13.1672,5.3968 C13.2965867,5.41733333 13.4060533,5.40533333 13.4117333,5.36986667 C13.4174133,5.33413333 13.3171467,5.2888 13.18776,5.268 C13.0584,5.24746667 12.9489067,5.25946667 12.9432267,5.29493333" id="Fill-345" fill="#F3CC2E"></path>
                <path d="M13.0151936,5.56444717 C13.0343397,5.64115933 13.1594066,5.83226682 13.4060922,5.93589553 C13.6656962,6.04490754 13.8090858,5.95069963 13.8250923,5.89282905 C13.8154678,5.84572509 13.6905552,5.6398135 13.4307968,5.53080149 C13.1841112,5.42717278 13.0423687,5.50657659 13.0151936,5.56444717 Z M13.6281247,6.23332337 C13.5556064,6.23332337 13.474493,6.21448179 13.3911151,6.18083611 C13.2663569,6.12834884 13.1505027,6.04356171 13.0651175,5.94262466 C12.9591966,5.81611689 12.9103021,5.67615084 12.9195148,5.52541818 C12.928779,5.37333969 12.9920845,5.2804776 13.1075785,5.24683191 C13.2006839,5.21991537 13.3208099,5.23337364 13.4458254,5.28586091 C13.5705836,5.33834817 13.6863863,5.4231353 13.7717715,5.52407235 C13.877641,5.65058012 13.9265355,5.79054617 13.9173227,5.94127883 C13.9080585,6.09335733 13.8448045,6.18621942 13.7292591,6.2198651 C13.6982754,6.22794006 13.6643066,6.23332337 13.6281247,6.23332337 L13.6281247,6.23332337 Z" id="Fill-346" fill="#1B1A19"></path>
                <path d="M13.4755467,5.9152 C13.4687467,5.91253333 13.3077067,5.84666667 13.20112,5.70133333 C13.1836267,5.67733333 13.15224,5.60613333 13.1354133,5.55973333 C13.1046933,5.5968 13.0501333,5.6528 13.0219467,5.67466667 C12.9107467,5.76026667 12.64016,5.79973333 12.62864,5.80133333 L12.6217067,5.7528 C12.6243733,5.75253333 12.89096,5.7136 12.9919467,5.63573333 C13.0224,5.61226667 13.09256,5.53866667 13.1111467,5.51066667 C13.1189067,5.4992 13.1323467,5.4936 13.14576,5.49546667 C13.1593333,5.4976 13.17016,5.5072 13.174,5.52053333 C13.18472,5.5576 13.2243733,5.65013333 13.2406933,5.67226667 C13.3390933,5.8064 13.4923467,5.86906667 13.4938667,5.8696 L13.4755467,5.9152" id="Fill-347" fill="#1B1A19"></path>
                <path d="M10.58944,5.9152 L10.57112,5.8696 C10.5726667,5.86906667 10.72624,5.80586667 10.8243467,5.67226667 C10.8405867,5.65013333 10.8802667,5.5576 10.8910667,5.52026667 C10.8949067,5.5072 10.9057333,5.4976 10.91928,5.49546667 C10.9326667,5.49333333 10.9461333,5.4992 10.95384,5.51066667 C10.9725333,5.53866667 11.0427467,5.61226667 11.0730933,5.63573333 C11.1740267,5.7136 11.4374667,5.75253333 11.44008,5.7528 L11.4330933,5.80133333 C11.4217333,5.79973333 11.15424,5.76026667 11.0430933,5.67466667 C11.0150133,5.6528 10.9604267,5.59706667 10.9296533,5.55973333 C10.9127733,5.60613333 10.8813867,5.67733333 10.86392,5.70133333 C10.75728,5.84666667 10.59624,5.91253333 10.58944,5.9152" id="Fill-348" fill="#1B1A19"></path>
                <path d="M13.6949067,7.12986667 C13.6949867,7.16746667 12.90232,7.33786667 11.9509067,7.33786667 C10.99952,7.33786667 10.2496,7.1448 10.2496,7.12986667 C10.2496,7.04133333 11.0208533,6.96933333 11.9722667,6.96933333 C12.9236533,6.96933333 13.69472,7.04133333 13.6949067,7.12986667" id="Fill-349" fill="#F3F4F1"></path>
                <path d="M10.2914667,7.3649788 C10.4409067,7.47161992 11.12768,7.82730319 11.9509067,7.82730319 C12.8141333,7.82730319 13.5344533,7.49460843 13.6599467,7.3732802 C13.5654667,7.23918059 12.95312,7.06229681 11.97224,7.06229681 C11.0126933,7.06229681 10.4058133,7.23151775 10.2914667,7.3649788 Z M11.9509067,7.9448 C11.44848,7.9448 11.0148533,7.81644751 10.7395467,7.70852925 C10.57016,7.64211801 10.44832,7.57889962 10.376,7.53803116 C10.2250667,7.45246284 10.2250667,7.4364986 10.2250667,7.38796731 C10.2250667,6.94990856 11.9012,6.9448 11.9725333,6.9448 C12.04384,6.9448 13.7200267,6.94990856 13.7200267,7.38796731 L13.7200267,7.41223295 L13.71064,7.4384143 C13.6579733,7.56485109 12.87384,7.9448 11.9509067,7.9448 L11.9509067,7.9448 Z" id="Fill-350" fill="#1B1A19"></path>
                <path d="M10.41592,4.3456 C10.3289867,4.3456 10.2824533,4.29626667 10.26864,4.27866667 C10.2328,4.23306667 10.2341867,4.15306667 10.23448,4.14426667 C10.2349067,4.13066667 10.2457867,4.12106667 10.2597333,4.12053333 C10.27328,4.1208 10.28392,4.13226667 10.2835467,4.1456 C10.2829867,4.16506667 10.2861333,4.2216 10.3072267,4.24826667 C10.3192533,4.26373333 10.3658933,4.312 10.4606933,4.29146667 C10.4850933,4.28613333 10.5075733,4.268 10.5208533,4.24266667 C10.5337333,4.21786667 10.53584,4.19093333 10.5265867,4.1688 C10.5130933,4.13653333 10.4585333,4.11413333 10.4386933,4.10826667 C10.4257067,4.10453333 10.4182667,4.09093333 10.4221067,4.07786667 C10.4259467,4.0648 10.4397067,4.05733333 10.45256,4.06133333 C10.4621333,4.064 10.54696,4.09066667 10.57184,4.14986667 C10.5867467,4.1856 10.5840267,4.22746667 10.56432,4.26533333 C10.5444267,4.30346667 10.5095467,4.3312 10.47104,4.33946667 C10.45112,4.34373333 10.4327467,4.3456 10.41592,4.3456" id="Fill-351" fill="#1B1A19"></path>
                <path d="M13.59,4.29653333 C13.5731733,4.29653333 13.5548267,4.29466667 13.53488,4.2904 C13.4964,4.28213333 13.46152,4.2544 13.4416267,4.21626667 C13.42192,4.1784 13.4192,4.13653333 13.4341067,4.1008 C13.4589333,4.0416 13.54376,4.01493333 13.5533867,4.01226667 C13.56624,4.00826667 13.58,4.01573333 13.5838133,4.0288 C13.5876533,4.04186667 13.58024,4.05546667 13.5672533,4.0592 C13.54736,4.06506667 13.4928,4.08746667 13.4793333,4.11973333 C13.47008,4.14186667 13.4721867,4.1688 13.4850933,4.1936 C13.4983733,4.21893333 13.5208533,4.23706667 13.5452533,4.2424 C13.6401333,4.26293333 13.68672,4.21466667 13.6986667,4.1992 C13.7198133,4.17253333 13.72296,4.116 13.7224,4.09653333 C13.722,4.0832 13.73264,4.07173333 13.7462133,4.07146667 C13.7609333,4.0712 13.77104,4.0816 13.7714667,4.0952 C13.77176,4.104 13.7731467,4.184 13.7372533,4.2296 C13.7234933,4.2472 13.67696,4.29653333 13.59,4.29653333" id="Fill-352" fill="#1B1A19"></path>
                <path d="M9.74333333,4.66506667 C9.73,4.66506667 9.71909333,4.65786667 9.7188,4.64453333 C9.71874667,4.6416 9.71770667,4.5736 9.74712,4.52453333 C9.76682667,4.49173333 9.82224,4.4176 9.91157333,4.4176 C9.91176,4.4176 9.91189333,4.4176 9.91210667,4.4176 C9.97402667,4.4176 10.0421867,4.428 10.0781333,4.5032 C10.1116267,4.57333333 10.22432,4.53786667 10.2254133,4.53733333 C10.2385867,4.53333333 10.25216,4.54026667 10.25632,4.55306667 C10.2605333,4.56586667 10.2535467,4.57973333 10.2406933,4.584 C10.23432,4.58586667 10.08584,4.6336 10.03384,4.52453333 C10.0138133,4.48266667 9.98077333,4.46693333 9.91189333,4.46693333 C9.91181333,4.46693333 9.91170667,4.46693333 9.91157333,4.46693333 C9.84730667,4.46693333 9.80458667,4.52613333 9.7892,4.55173333 C9.77074667,4.58266667 9.76754667,4.62746667 9.76786667,4.64373333 C9.76816,4.65733333 9.75738667,4.66506667 9.74381333,4.66506667 C9.74368,4.66506667 9.74346667,4.66506667 9.74333333,4.66506667" id="Fill-353" fill="#1B1A19"></path>
                <path d="M11.2168267,4.52186667 C11.1854933,4.52186667 11.15448,4.50666667 11.1304533,4.4784 C11.0958133,4.4376 11.0825867,4.38293333 11.09504,4.33253333 C11.1072533,4.2832 11.14216,4.24373333 11.19072,4.22426667 C11.25776,4.19733333 11.3358933,4.24213333 11.39864,4.2784 C11.4204267,4.29093333 11.4410933,4.30266667 11.4580533,4.30986667 C11.5548267,4.35013333 11.63304,4.3368 11.63376,4.33653333 C11.6472267,4.33413333 11.65984,4.34293333 11.6622933,4.35626667 C11.6646933,4.3696 11.6558133,4.3824 11.64248,4.3848 C11.6386133,4.38533333 11.5490667,4.4008 11.4391733,4.35493333 C11.4193333,4.34666667 11.3973867,4.33413333 11.3741867,4.3208 C11.3178667,4.28853333 11.25408,4.25173333 11.2090133,4.26986667 C11.1752267,4.28346667 11.1510667,4.31066667 11.1426933,4.34453333 C11.1338667,4.38 11.1430667,4.41733333 11.1679467,4.44666667 C11.1878933,4.47013333 11.2125067,4.4784 11.2356267,4.46906667 C11.25744,4.46 11.27152,4.43786667 11.2699467,4.41493333 C11.2691733,4.40373333 11.2663467,4.39653333 11.2614933,4.3936 C11.2522933,4.38773333 11.2331733,4.39173333 11.2254667,4.39466667 C11.2129067,4.39946667 11.1986667,4.39306667 11.1937867,4.38053333 C11.1889333,4.368 11.19512,4.35386667 11.2077333,4.3488 C11.2124267,4.3472 11.2550667,4.33146667 11.2877067,4.352 C11.3006667,4.36026667 11.3165333,4.37706667 11.3189333,4.41146667 C11.322,4.456 11.2959733,4.49733333 11.2541067,4.5144 C11.2418933,4.51946667 11.2293333,4.52186667 11.2168267,4.52186667" id="Fill-354" fill="#1B1A19"></path>
                <path d="M14.2884267,4.61546667 C14.2882933,4.61546667 14.28816,4.61546667 14.288,4.61546667 C14.2744533,4.61546667 14.2636533,4.608 14.2638933,4.5944 C14.2638933,4.59386667 14.2646667,4.53733333 14.24256,4.50053333 C14.2271733,4.47493333 14.18448,4.4176 14.1202667,4.4176 C14.1201067,4.4176 14.12,4.4176 14.11992,4.4176 C14.05104,4.4176 14.0179733,4.43333333 13.9979733,4.4752 C13.9457867,4.58426667 13.79736,4.53706667 13.7910667,4.53493333 C13.77824,4.53066667 13.7712267,4.5168 13.77544,4.504 C13.7796267,4.4912 13.7933333,4.484 13.8063733,4.48826667 C13.80752,4.48853333 13.9201067,4.52426667 13.9537067,4.45386667 C13.9895467,4.37866667 14.05776,4.368 14.1197333,4.368 C14.11992,4.368 14.1201067,4.368 14.1202667,4.368 C14.2095467,4.368 14.26496,4.44426667 14.28464,4.47706667 C14.31408,4.52613333 14.3130133,4.59226667 14.3129867,4.5952 C14.3126933,4.6088 14.30176,4.61546667 14.2884267,4.61546667" id="Fill-355" fill="#1B1A19"></path>
                <path d="M12.76592,4.52186667 C12.75336,4.52186667 12.7408,4.51946667 12.7286133,4.5144 C12.6867733,4.49733333 12.6607467,4.456 12.6638133,4.41146667 C12.66616,4.37706667 12.68208,4.36026667 12.6949867,4.352 C12.7276267,4.33146667 12.7702667,4.3472 12.77496,4.3488 C12.7876267,4.35386667 12.7938667,4.368 12.7889067,4.3808 C12.7839733,4.39333333 12.7697333,4.39946667 12.7571467,4.39466667 C12.7494667,4.39173333 12.7304533,4.38773333 12.7212,4.3936 C12.7164,4.39653333 12.7135733,4.40373333 12.7128,4.41493333 C12.7112267,4.43786667 12.7253067,4.46 12.74712,4.46906667 C12.7701867,4.4784 12.7947733,4.47013333 12.8147467,4.44666667 C12.8396267,4.41733333 12.8488267,4.38 12.84,4.34453333 C12.8316267,4.31066667 12.8074667,4.28346667 12.77368,4.26986667 C12.7286667,4.25173333 12.66488,4.28853333 12.6086133,4.3208 C12.58536,4.33413333 12.5634133,4.34666667 12.54352,4.35493333 C12.4335733,4.4008 12.3440267,4.38533333 12.3402133,4.3848 C12.3269333,4.3824 12.3181067,4.36986667 12.3204533,4.35653333 C12.3227467,4.3432 12.3352267,4.33413333 12.3488267,4.33653333 C12.34968,4.33653333 12.4286667,4.3496 12.52464,4.30986667 C12.5416533,4.30266667 12.5622933,4.29066667 12.5841067,4.27813333 C12.6469067,4.24213333 12.7248267,4.19733333 12.7919733,4.22426667 C12.8405333,4.24373333 12.87544,4.2832 12.8876533,4.33253333 C12.9001067,4.38293333 12.88688,4.4376 12.85224,4.4784 C12.8282133,4.50666667 12.7972,4.52186667 12.76592,4.52186667" id="Fill-356" fill="#1B1A19"></path>
                <path d="M11.2249333,6.75866667 C11.2082933,6.75866667 11.19096,6.75253333 11.17672,6.7408 C11.1713067,6.73653333 11.1662133,6.73173333 11.1612267,6.72693333 C11.1442667,6.71093333 11.1350667,6.70346667 11.1164267,6.70613333 C11.0785067,6.71146667 11.0728,6.73333333 11.0722667,6.73573333 L11.0238667,6.72773333 C11.02424,6.72533333 11.0338933,6.66826667 11.1096,6.6576 C11.1527467,6.65173333 11.1771467,6.67466667 11.1949333,6.69146667 C11.19904,6.6952 11.2032267,6.6992 11.20768,6.70293333 C11.2147733,6.70853333 11.2240267,6.7112 11.2296267,6.7088 C11.236,6.70613333 11.2380267,6.69573333 11.23864,6.6896 C11.2421867,6.65546667 11.2715733,6.61973333 11.3054933,6.608 C11.3747467,6.58453333 11.4199467,6.6264 11.4218667,6.62826667 L11.3882667,6.664 C11.3871733,6.66293333 11.36168,6.6408 11.32136,6.6544 C11.3040267,6.66053333 11.28888,6.68106667 11.28744,6.69493333 C11.2833067,6.73413333 11.2611733,6.7488 11.2483733,6.75413333 C11.24104,6.75706667 11.2330667,6.75866667 11.2249333,6.75866667" id="Fill-357" fill="#1B1A19"></path>
                <path d="M11.9715733,6.7096 C11.9505333,6.7096 11.92888,6.69866667 11.91424,6.67973333 C11.91,6.6744 11.90616,6.66853333 11.90232,6.66293333 C11.8894133,6.64346667 11.8823733,6.63413333 11.86336,6.63253333 C11.8257867,6.6296 11.8147467,6.64906667 11.8136533,6.65146667 L11.76832,6.63253333 C11.7692267,6.6304 11.7928,6.57733333 11.8676267,6.58346667 C11.9109867,6.5872 11.9296,6.6152 11.9432,6.63573333 C11.94632,6.64026667 11.9494933,6.64506667 11.9529867,6.6496 C11.9585333,6.6568 11.9665333,6.66106667 11.9730667,6.66053333 C11.9798133,6.6592 11.9841333,6.6496 11.9861067,6.64373333 C11.9972533,6.6112 12.0339733,6.58293333 12.06968,6.5792 C12.1413867,6.572 12.17704,6.62293333 12.17848,6.62506667 L12.1375467,6.652 L12.1580267,6.63866667 L12.1377067,6.65226667 C12.1369333,6.6512 12.11632,6.62346667 12.07472,6.628 C12.0564,6.62986667 12.0370133,6.64666667 12.03248,6.65973333 C12.0196533,6.69706667 11.9948267,6.7064 11.98112,6.7088 C11.978,6.70933333 11.9747733,6.7096 11.9715733,6.7096" id="Fill-358" fill="#1B1A19"></path>
                <path d="M12.7178933,6.82426667 C12.6939733,6.82426667 12.6700533,6.80053333 12.65688,6.7768 C12.65352,6.77093333 12.6505867,6.76026667 12.6477067,6.75413333 C12.6379467,6.73306667 12.6324267,6.72053333 12.6138667,6.716 C12.57664,6.70666667 12.5632533,6.72373333 12.56184,6.72586667 L12.5199733,6.69973333 C12.5212267,6.6976 12.55128,6.648 12.62568,6.6664 C12.6678933,6.6768 12.6819733,6.7072 12.69224,6.72933333 C12.69464,6.73466667 12.69704,6.748 12.6998133,6.75306667 C12.7042133,6.7608 12.7117867,6.77493333 12.7178933,6.77493333 C12.7178933,6.77493333 12.71792,6.77493333 12.7179733,6.77493333 C12.7248267,6.77493333 12.7305867,6.7576 12.73336,6.75226667 C12.7494667,6.72186667 12.7894933,6.69493333 12.82592,6.69733333 C12.89896,6.70106667 12.9253333,6.75493333 12.9264267,6.75733333 L12.8818933,6.7768 C12.88128,6.77573333 12.866,6.7448 12.8233333,6.74266667 C12.8050133,6.74106667 12.7832533,6.76346667 12.7768,6.77573333 C12.7583467,6.81066667 12.73232,6.82426667 12.7184533,6.82426667 C12.7182667,6.82426667 12.71808,6.82426667 12.7178933,6.82426667" id="Fill-359" fill="#1B1A19"></path>
                <path d="M13.6194933,6.95386667 C13.6191467,6.95253333 13.6100533,6.92 13.5686933,6.90933333 C13.5509067,6.9048 13.5269333,6.91386667 13.51816,6.92453333 C13.4932533,6.9552 13.4664533,6.9552 13.4530667,6.9528 C13.42936,6.94826667 13.40864,6.92853333 13.4002933,6.9024 C13.3981867,6.89573333 13.39656,6.88906667 13.3949333,6.8824 C13.38952,6.85973333 13.38616,6.84853333 13.3688533,6.84053333 C13.3344533,6.82426667 13.3174933,6.8392 13.3157067,6.84106667 L13.2796267,6.80773333 C13.2813067,6.80613333 13.3205867,6.76346667 13.38976,6.796 C13.4291467,6.8144 13.43696,6.8472 13.4426667,6.87093333 C13.4440267,6.87653333 13.4453067,6.88213333 13.4470933,6.88746667 C13.4498667,6.89626667 13.4561867,6.90346667 13.4621867,6.90453333 C13.46888,6.9056 13.47632,6.89813333 13.4801067,6.8936 C13.5018667,6.86693333 13.5458667,6.8528 13.5808533,6.86186667 C13.6517067,6.88 13.6666133,6.93973333 13.6671733,6.9424 L13.6194933,6.95386667" id="Fill-360" fill="#1B1A19"></path>
                <path d="M10.4768533,6.90586667 C10.4597867,6.90586667 10.442,6.89946667 10.4276267,6.8872 C10.4222933,6.88266667 10.41736,6.87786667 10.41248,6.87306667 C10.39584,6.85653333 10.38704,6.8488 10.3681067,6.8512 C10.33008,6.85573333 10.3238933,6.87733333 10.3233333,6.88 L10.27512,6.87066667 C10.2754933,6.86826667 10.2862933,6.81146667 10.36224,6.8024 C10.40544,6.79733333 10.4293867,6.8208 10.44688,6.83786667 C10.4509067,6.84186667 10.4549867,6.84586667 10.45936,6.8496 C10.4662933,6.85573333 10.4754933,6.85813333 10.4812,6.856 C10.4875733,6.8536 10.4897867,6.8432 10.49056,6.83733333 C10.4949067,6.8032 10.5250133,6.76773333 10.5592,6.75706667 C10.6287467,6.73466667 10.6732267,6.7776 10.67504,6.77946667 L10.64072,6.81466667 C10.6396533,6.8136 10.6148,6.79066667 10.5740533,6.80373333 C10.5566133,6.80933333 10.5409867,6.8296 10.5392533,6.84346667 C10.5343733,6.8824 10.5119467,6.8968 10.4989867,6.90186667 C10.4920533,6.90453333 10.4845067,6.90586667 10.4768533,6.90586667" id="Fill-361" fill="#1B1A19"></path>
                <path d="M11.2942667,7.55706667 L11.5638933,6.99386667" id="Fill-362" fill="#FFFFFE"></path>
                <polyline id="Fill-363" fill="#1B1A19" points="11.3385333 7.57813333 11.25 7.53573333 11.5196533 6.9728 11.63168 6.96933333 11.3385333 7.57813333"></polyline>
                <path d="M12.70448,7.6456 L12.3968533,6.98186667" id="Fill-364" fill="#FFFFFE"></path>
                <polyline id="Fill-365" fill="#1B1A19" points="12.66 7.6664 12.3400267 6.97466667 12.4413867 6.96106667 12.74904 7.62506667 12.66 7.6664"></polyline>
                <polyline id="Fill-366" fill="#FFFFFE" points="12.6217067 7.58586667 11.3385333 7.57813333 11.61824 6.99733333 12.35064 6.99786667 12.6217067 7.58586667"></polyline>
            </g>
        </g>
    </g>
</svg>