<?xml version="1.0" encoding="UTF-8"?>
<svg width="24px" height="24px" viewBox="0 0 24 24" version="1.1" xmlns="http://www.w3.org/2000/svg" xmlns:xlink="http://www.w3.org/1999/xlink">
    <!-- Generator: Sketch 55.1 (78136) - https://sketchapp.com -->
    <title>Flags/oman</title>
    <desc>Created with Sketch.</desc>
    <g id="Icons" stroke="none" stroke-width="1" fill="none" fill-rule="evenodd">
        <g id="Flags/oman">
            <g id="oman">
                <path d="M23.3172324,8.00015625 L0.682767606,8.00015625 C2.33006912,3.33930514 6.77506631,0 12,0 C17.2249337,0 21.6699309,3.33930514 23.3172324,8.00015625 Z" id="Combined-Shape" fill="#F5F5F5" fill-rule="nonzero"></path>
                <path d="M0.682767606,15.9998437 L23.3172324,15.9998437 C21.6699309,20.6606949 17.2249337,24 12,24 C6.77506631,24 2.33006912,20.6606949 0.682767606,15.9998437 Z" id="Combined-Shape" fill="#73AF00" fill-rule="nonzero"></path>
                <g id="Group" fill="#FF4B55" fill-rule="nonzero">
                    <path d="M0.682767606,8.00015625 L23.3172324,8.00015625 C23.7594031,9.2512278 24,10.5975167 24,12 C24,13.4026585 23.759343,14.7491085 23.3170667,16.0003125 L0.682933289,16.0003125 C0.240656953,14.7491085 0,13.4026585 0,12 C0,10.5975167 0.240596851,9.2512278 0.682767606,8.00015625 Z" id="Combined-Shape"></path>
                    <path d="M9.4734375,0.266448939 L9.4734375,23.7335511 C4.05924064,22.5733101 0,17.7606983 0,12 C0,6.23930172 4.05924064,1.42668989 9.4734375,0.266448939 Z" id="Combined-Shape"></path>
                </g>
                <g id="Group" transform="translate(1.687500, 1.546875)" fill="#F5F5F5" fill-rule="nonzero">
                    <path d="M1.53946875,3.68798438 C1.28136743,3.69418332 1.03216615,3.70074266 0.78946875,3.70751825 L0.78946875,4.39920494 C1.0338777,4.41232363 1.28307897,4.42529817 1.53946875,4.43798438 C1.53946875,4.43798438 1.53946875,3.68798438 1.53946875,3.68798438 Z" id="Shape"></path>
                    <path d="M2.44809375,4.54528125 C2.35434375,4.53778125 2.21025,4.52334375 2.03821875,4.50234375 L0.9594375,5.46182813 C1.09917188,5.48320313 1.26665625,5.51146875 1.33659375,5.53373438 C1.61367187,5.29125 1.98529687,4.96078125 2.44809375,4.54528125 Z" id="Shape"></path>
                    <polygon id="Shape" points="4.07132812 3.43049082 4.07132812 3.1729099 4.07132812 2.92682813 2.15728125 2.92682813 2.15728125 3.1729099 2.15728125 3.43049082 2.15728125 3.67682813 4.07132812 3.67682813"></polygon>
                    <path d="M3.49088646,0.579333256 C3.40273716,0.640349308 3.31544453,0.702515388 3.22903027,0.765809801 C3.34153152,0.735266474 3.43616256,0.666897781 3.49088646,0.579333256 Z" id="Combined-Shape"></path>
                    <path d="M2.23945312,3.62709375 C1.80735937,3.62498437 1.37620312,3.64082812 1.02365625,3.67415625 L1.02365625,4.20515625 C1.43784375,4.29403125 1.92032812,4.36214062 2.23945312,4.39603125 L2.23945312,3.62709375 Z" id="Shape"></path>
                    <path d="M0.01359375,6.315375 C0.184359375,6.31140756 0.5595,6.23721136 0.81346875,6.01910542 C0.89221875,5.95150443 1.02660937,5.82707121 1.2155625,5.64663015 C1.08740625,5.61772455 0.872484375,5.58273897 0.757828125,5.565375 L0.01359375,6.315375 Z" id="Shape"></path>
                    <path d="M2.84217188,3.15548438 L2.84217188,2.69112996 C2.7804681,2.59825908 2.71679981,2.50277339 2.65197066,2.40548438 L2.09217188,2.81655074 C2.20352442,3.00986644 2.27505079,3.13276257 2.28817735,3.15539421 L2.84217188,3.15548438 L2.84217188,3.15548438 Z" id="Shape"></path>
                    <path d="M0.225355047,4.03408299 C0.22365398,4.04165425 0.219684825,4.05893453 0.245281826,4.09509843 C0.339569511,4.22790721 0.612226169,4.35474807 0.974067313,4.4701875 L0.974067313,3.7201875 C0.539485326,3.79946303 0.254921202,3.90421363 0.225355047,4.03408299 Z" id="Shape"></path>
                    <path d="M3.5866875,3.6969375 L3.5866875,3.19584375 L2.6173125,3.19584375 L2.6173125,4.41984375 L2.86378125,4.41984375 C3.26235938,4.41984375 3.5866875,4.09551562 3.5866875,3.6969375 Z" id="Shape"></path>
                    <path d="M1.75790951,2.03771996 C1.83269412,1.96170624 1.90848412,1.88668466 1.98525796,1.81267676 C1.99976052,1.83403401 2.01424552,1.85537585 2.02870312,1.8766875 L1.76226562,2.04539062 C1.76081512,2.04283688 1.75936307,2.04027998 1.75790951,2.03771996 Z" id="Combined-Shape"></path>
                    <path d="M1.82742187,2.237182 C1.94149087,2.42381888 2.04613866,2.59353185 2.13419064,2.735625 L2.57742187,2.43451479 C2.47190443,2.2883599 2.36348816,2.13848176 2.25268035,1.985625 L1.82742187,2.237182 Z" id="Shape"></path>
                    <path d="M3.12084375,4.4175 L3.12084375,3.6301875 C2.871455,3.62939063 2.62176062,3.62864063 2.37084375,3.62807813 L2.37084375,4.408875 C2.65996355,4.4128125 2.91149167,4.41567188 3.12084375,4.4175 Z" id="Shape"></path>
                    <polygon id="Rectangle-path" points="2.6175 2.1196875 3.586875 2.1196875 3.586875 2.8696875 2.6175 2.8696875"></polygon>
                    <path d="M4.93392187,2.81132627 L4.93392187,2.82254614 L4.9831875,2.82254614 C5.01951562,2.82254614 5.04890625,2.86274532 5.04890625,2.9124333 L5.04890625,3.28038081 C5.04890625,3.33006879 5.01951562,3.37026797 4.9831875,3.37026797 L4.93392187,3.37026797 L4.93392187,3.38148784 C4.93392187,3.43098348 4.96335937,3.471375 4.99964062,3.471375 L6.10865625,3.471375 C6.1449375,3.471375 6.174375,3.43098348 6.174375,3.38148784 L6.174375,2.81126216 C6.174375,2.76176652 6.1449375,2.721375 6.10865625,2.721375 L4.99964062,2.721375 C4.96335937,2.72143911 4.93392187,2.76183063 4.93392187,2.81132627 Z" id="Shape"></path>
                    <path d="M6.17475,6.31532812 L5.43464063,5.56532812 C5.32003125,5.58278685 5.1050625,5.61796334 4.97690625,5.64702668 C5.16932813,5.83145716 5.303625,5.9565694 5.379,6.02168994 C5.62898438,6.23746324 5.99639063,6.31304865 6.17475,6.31532812 Z" id="Shape"></path>
                    <polygon id="Shape" points="4.65459375 3.1729099 4.65459375 3.43049082 4.65459375 3.67682813 5.40459375 3.67682813 5.40459375 2.92682813 4.65459375 2.92682813"></polygon>
                    <path d="M4.8556875,5.533875 C4.92553125,5.51146875 5.09334375,5.48315625 5.2333125,5.46178125 L3.64396875,4.04348438 C3.60084375,4.1401875 3.54079688,4.22770313 3.46678125,4.30153125 L3.50859375,4.33889063 C4.08445313,4.854375 4.53445313,5.25342188 4.8556875,5.533875 Z" id="Shape"></path>
                    <path d="M0.551424866,3.47146875 C0.736152457,3.21365969 0.930840296,2.96347214 1.13492573,2.72146875 L1.22901562,2.72146875 C1.26529687,2.72146875 1.29473437,2.76186027 1.29473437,2.81135591 L1.29473437,2.82257578 L1.24542187,2.82257578 C1.20909375,2.82257578 1.17970312,2.86277496 1.17970312,2.91246294 L1.17970312,3.28041045 C1.17970312,3.33009843 1.20909375,3.37029761 1.24542187,3.37029761 L1.29473437,3.37029761 L1.29473437,3.38151748 C1.29473437,3.43107723 1.26525,3.47140464 1.22901562,3.47146875 L0.551424866,3.47146875 Z" id="Combined-Shape"></path>
                    <polygon id="Shape" points="2.06114063 3.43049082 2.06114063 3.1729099 2.06114063 2.92682813 1.31114062 2.92682813 1.31114062 3.67682813 2.06114063 3.67682813"></polygon>
                    <path d="M4.46807812,2.81655074 L3.89131782,2.40548438 C3.83225256,2.49150265 3.77465933,2.57553727 3.71807812,2.65803908 L3.71807812,3.15548438 L4.26604181,3.15548438 C4.27965811,3.13285273 4.35335168,3.00986644 4.46807812,2.81655074 Z" id="Shape"></path>
                    <polygon id="Shape" points="2.70525 2.27334375 3.49907812 2.27334375 3.324375 1.52334375 2.88 1.52334375"></polygon>
                    <polygon id="Rectangle-path" points="2.6175 1.85484375 3.586875 1.85484375 3.586875 2.60484375 2.6175 2.60484375"></polygon>
                    <path d="M3.37447556,0.660933199 C3.47663368,0.658189117 3.57393813,0.650800877 3.667125,0.64078125 L3.667125,1.39078125 L2.917125,1.39078125 L2.917125,1.00214537 C3.06676093,0.88489081 3.21925164,0.771112889 3.37447556,0.660933199 Z" id="Combined-Shape"></path>
                    <path d="M2.6173125,3.13875 L3.58242187,3.13875 C3.58223437,3.09377555 3.58364062,3.05033433 3.58664062,3.0068931 L3.58664062,2.38875 L2.61726562,2.38875 L2.6173125,3.13875 L2.6173125,3.13875 Z" id="Shape"></path>
                    <path d="M3.87984375,2.43451479 L4.32303216,2.735625 C4.41107563,2.59353185 4.51578578,2.42381888 4.62984375,2.237182 L4.20455389,1.985625 C4.09375679,2.13841406 3.98527853,2.2883599 3.87984375,2.43451479 Z" id="Shape"></path>
                    <polygon id="Rectangle-path" points="2.6175 2.6578125 3.586875 2.6578125 3.586875 3.4078125 2.6175 3.4078125"></polygon>
                    <path d="M4.43015625,2.04534375 C4.71346875,1.54659375 5.05575,0.927 5.19679687,0.603796875 C5.30634375,0.352734375 5.353125,0.218859375 5.3724375,0.147890625 C5.23959375,0.303796875 4.6839375,1.10971875 4.16367187,1.8766875 L4.43015625,2.04534375 Z" id="Shape"></path>
                </g>
                <path d="M5.10159375,2.17980668 L5.10159375,2.97342187 L5.37253125,3.27389062 C5.39071875,3.28457812 5.4031875,3.30309375 5.4046875,3.32535937 L5.40473438,3.32554687 C5.40482812,3.327 5.40557812,3.32821875 5.40557812,3.32967187 L5.40557812,3.84810937 C5.82825,3.2203125 6.8945625,1.64503125 7.00448437,1.56515625 C7.03307812,1.54420312 7.10873437,1.48917187 7.16854687,1.53703125 C7.22526562,1.58259375 7.24457813,1.65360937 7.0048125,2.20321875 C6.78126562,2.71542187 6.08535937,3.91734375 5.86382812,4.2965625 C5.91454687,4.25385937 5.97914062,4.22714062 6.05048437,4.22714062 C6.14465625,4.22714062 6.227625,4.27275 6.28096875,4.34217187 L6.48998437,4.34217187 L6.48998437,4.33396875 C6.48998437,4.22526562 6.5784375,4.1368125 6.68714062,4.1368125 L7.79615625,4.1368125 C7.90485937,4.1368125 7.9933125,4.22526562 7.9933125,4.33396875 L7.9933125,4.750875 C7.9933125,4.85957812 7.90485937,4.94803125 7.79615625,4.94803125 L6.68714062,4.94803125 C6.5784375,4.94803125 6.48998437,4.85957812 6.48998437,4.750875 L6.48998437,4.74267187 L6.28096875,4.74267187 C6.227625,4.81214062 6.14465625,4.85770312 6.05048437,4.85770312 C5.9563125,4.85770312 5.87334375,4.81209375 5.82,4.74267187 L5.405625,4.74267187 L5.405625,5.24376562 C5.405625,5.31698437 5.39540625,5.38771875 5.37796875,5.45559375 L7.08628125,6.9800625 C7.08754687,6.98123437 7.0880625,6.98282812 7.08923437,6.98404687 C7.11121875,6.98095312 7.12776562,6.97875 7.13503125,6.97776562 C7.15448437,6.9748125 7.17384375,6.98123437 7.18823437,6.99445312 L8.04529687,7.78040625 C8.071125,7.80403125 8.07384375,7.84396875 8.05134375,7.87082812 C8.02284375,7.90495312 7.95075,7.9216875 7.85414062,7.9216875 C7.61653125,7.9216875 7.23126562,7.82048437 6.98559375,7.62848437 C6.78060937,7.46845312 6.14910937,6.91509375 5.1084375,5.98359375 L5.05275,5.93390625 C4.91170312,6.03670312 4.7386875,6.09810937 4.55123437,6.09810937 L4.325625,6.09810937 C4.31414063,6.10832812 4.28821875,6.13167187 4.24907812,6.16678125 C3.3451875,6.97865625 2.78428125,7.470375 2.58178125,7.62853125 C2.33610937,7.82039062 1.95075,7.9216875 1.71314062,7.9216875 C1.61657813,7.9216875 1.54448437,7.905 1.51603125,7.870875 C1.49353125,7.84392187 1.49620312,7.80403125 1.52207812,7.78040625 L2.3791875,6.99445312 C2.39348437,6.98123437 2.41260937,6.97495312 2.43239062,6.97776562 C2.43965625,6.97875 2.45620312,6.981 2.4781875,6.98404687 C2.47935937,6.98278125 2.47992187,6.98114062 2.48123437,6.97996875 L3.55270312,6.027 C2.93638998,5.94417671 2.10022539,5.79168101 1.85763981,5.58365678 C1.88145364,5.54609282 1.90547039,5.50867021 1.92968854,5.4713905 C1.98906268,5.53872685 2.14321992,5.6030403 2.34557813,5.66175 L2.34557813,5.2670625 C2.19975232,5.29125355 2.08311617,5.31995228 2.00751417,5.35312216 C2.04535743,5.29634444 2.08367171,5.23990756 2.12245145,5.18381708 C2.66772088,5.03200328 3.71947752,5.03555479 4.173375,5.04529687 L4.173375,4.74271875 L3.78365625,4.74271875 C3.7303125,4.8121875 3.64734375,4.85775 3.55317187,4.85775 C3.459,4.85775 3.37603125,4.81214062 3.3226875,4.74271875 L3.11367187,4.74271875 L3.11367187,4.75092187 C3.11367187,4.859625 3.02521875,4.94807812 2.91651562,4.94807812 L2.289656,4.94807812 C2.32170557,4.90402257 2.35404765,4.86019351 2.38667939,4.81659381 L2.91651563,4.81659381 C2.95279688,4.81659381 2.98223437,4.7870625 2.98223437,4.750875 L2.98223437,4.74267187 L2.93292188,4.74267187 C2.89659375,4.74267187 2.86720313,4.71328125 2.86720313,4.67695312 L2.86720313,4.4079375 C2.86720313,4.37160937 2.89659375,4.34221875 2.93292188,4.34221875 L2.98223437,4.34221875 L2.98223437,4.33401562 C2.98223437,4.29782812 2.95279688,4.26829687 2.91651563,4.26829687 L2.82246527,4.26829687 C2.85941625,4.22448105 2.8966753,4.18093351 2.93423908,4.13765759 C3.03462728,4.14669335 3.11357812,4.23131719 3.11357812,4.33401562 L3.11357812,4.34221875 L3.32259375,4.34221875 C3.3759375,4.27275 3.45890625,4.2271875 3.55307812,4.2271875 C3.59910937,4.2271875 3.64214063,4.23890625 3.68090625,4.25798437 C3.6035278,4.1252801 3.48384202,3.91880946 3.34967181,3.68301926 C3.38139794,3.65002961 3.41331099,3.61722103 3.44540925,3.58459522 C3.4468629,3.58715515 3.44831504,3.58971197 3.44976562,3.59226562 L3.71620312,3.4235625 C3.701745,3.40225139 3.68725948,3.38091005 3.6727564,3.35955326 C3.7047399,3.32872202 3.73689415,3.2980667 3.76921759,3.26758887 C3.92822016,3.50179587 4.07111609,3.71358467 4.17328125,3.86535937 L4.17328125,3.32976562 C4.17328125,3.30520312 4.18729687,3.284625 4.20726562,3.27332812 L4.47309375,2.97848437 L4.47309375,2.65357577 C4.516703,2.61841172 4.56056341,2.58354664 4.60467187,2.54898364 L4.60467187,2.93132812 L4.97025,2.93132812 L4.97025,2.27356493 C5.01381194,2.24202579 5.05759411,2.21077212 5.10159375,2.17980668 Z M4.3048125,5.96671875 L4.55128125,5.96671875 C4.94990625,5.96671875 5.2741875,5.64234375 5.2741875,5.2438125 L5.2741875,4.74271875 L4.3048125,4.74271875 L4.3048125,5.96671875 Z M4.07353125,3.95235937 L3.77967188,4.16610937 C3.838125,4.26660937 3.875625,4.3305 3.8825625,4.34226562 L4.173375,4.34226562 L4.173375,4.10085937 C4.1409375,4.05257812 4.1075625,4.00289062 4.07353125,3.95235937 Z M3.71339062,4.05182812 L4.000125,3.84332812 C3.931875,3.742125 3.86175,3.63829687 3.79007812,3.5325 L3.51496875,3.7066875 C3.58875,3.83592187 3.6564375,3.9534375 3.71339062,4.05182812 Z M4.20834375,5.17710937 C4.158466,5.17626562 4.10852712,5.1755625 4.05834375,5.175 L4.05834375,5.95584375 C4.11616771,5.95973437 4.16647333,5.96259375 4.20834375,5.96442187 L4.20834375,5.17710937 Z M2.71110938,5.22103125 L2.71110938,5.75203125 C3.12529688,5.84090625 3.60778125,5.90901562 3.92690625,5.94290625 L3.92690625,5.17396875 C3.4948125,5.17185937 3.06365625,5.18770312 2.71110938,5.22103125 Z M2.47701563,5.2475625 C2.47701563,5.2475625 2.47701563,5.69742187 2.47701563,5.69742187 C2.52596588,5.70595312 2.57573767,5.71439062 2.62701563,5.72264062 L2.62701563,5.23485937 C2.5753269,5.23889062 2.5255551,5.24315625 2.47701563,5.2475625 Z M3.72571875,6.04917187 L2.6469375,7.00870312 C2.78671875,7.03003125 2.95415625,7.05829687 3.02409375,7.08060937 C3.30117187,6.83807812 3.67279687,6.50765625 4.13559375,6.09210937 C4.04179687,6.08465625 3.89775,6.07017187 3.72571875,6.04917187 Z M2.90301563,7.186125 C2.77485938,7.15982812 2.5599375,7.128 2.44528125,7.11215625 L1.70104687,7.79451562 C1.87185937,7.79095312 2.24695313,7.72340625 2.50092187,7.52498437 C2.57967188,7.46348437 2.7140625,7.35028125 2.90301563,7.186125 Z M3.84478125,4.62365625 L5.75882813,4.62365625 L5.75882813,4.57440557 L5.75882813,4.52290693 L5.75882813,4.47365625 L3.84478125,4.47365625 L3.84478125,4.52290693 L3.84478125,4.57440557 L3.84478125,4.62365625 Z M4.3048125,3.8165625 L5.2741875,3.81651141 L5.2741875,3.6665625 L4.3048125,3.6665625 L4.3048125,3.8165625 Z M5.2741875,3.935625 L4.3048125,3.935625 L4.3048125,4.085625 L5.26996875,4.085625 C5.26978125,4.07663011 5.2711875,4.06794187 5.2741875,4.05925362 L5.2741875,3.935625 Z M4.3048125,3.551625 L5.2741875,3.551625 L5.2741875,3.401625 L4.3048125,3.401625 L4.3048125,3.551625 Z M5.011875,3.07021875 L4.5675,3.07021875 L4.39275,3.26404687 L5.186625,3.26404687 L5.011875,3.07021875 Z M4.3048125,4.20464062 L4.3048125,4.35464062 L5.2741875,4.35464062 L5.2741875,4.20464062 L4.3048125,4.20464062 Z M6.88429688,2.15067187 C6.99384375,1.89960937 7.040625,1.76573437 7.05998438,1.69471875 C6.92709375,1.850625 6.3714375,2.65654687 5.85121875,3.42351562 L6.11765625,3.59221875 C6.40096875,3.09346875 6.74325,2.473875 6.88429688,2.15067187 Z M6.21065625,4.51884375 C6.21065625,4.43057812 6.13879687,4.35867187 6.05048437,4.35867187 C5.96217187,4.35867187 5.8903125,4.43053125 5.8903125,4.51884375 L5.8903125,4.56609375 C5.8903125,4.65440625 5.96217187,4.72626562 6.05048437,4.72626562 C6.13879687,4.72626562 6.21065625,4.65440625 6.21065625,4.56609375 L6.21065625,4.51884375 Z M5.85403125,4.05182812 C5.91098437,3.95339062 5.97867187,3.835875 6.05245312,3.7066875 L5.77734375,3.5325 C5.70571875,3.63834375 5.63554687,3.742125 5.56734375,3.84332812 L5.85403125,4.05182812 Z M5.405625,4.08365625 L5.405625,4.34226562 L5.6848125,4.34226562 C5.69175,4.3305 5.72925,4.26660937 5.78775,4.1660625 L5.49389062,3.95235937 C5.46379687,3.99707812 5.43445312,4.04071875 5.405625,4.08365625 Z M5.33146875,5.59035937 C5.28834375,5.6870625 5.22825,5.77457812 5.15428125,5.84835937 L5.19609375,5.88571875 C5.77195312,6.40120312 6.22195312,6.80029687 6.5431875,7.08075 C6.61307812,7.05834375 6.78089062,7.03003125 6.9208125,7.00865625 L5.33146875,5.59035937 Z M7.12214063,7.11220312 C7.00753125,7.128 6.7925625,7.15982812 6.66440625,7.186125 C6.85682812,7.353 6.99117187,7.46620312 7.0665,7.525125 C7.31648437,7.72035937 7.68389062,7.78875 7.86225,7.7908125 L7.12214063,7.11220312 Z M7.861875,4.33401562 C7.861875,4.29782812 7.83239062,4.26829687 7.79615625,4.26834369 L6.68714062,4.26834369 C6.65085937,4.26834369 6.62142187,4.297875 6.62142187,4.3340625 L6.62142187,4.34226562 L6.6706875,4.34226562 C6.70701562,4.34226562 6.73640625,4.37165625 6.73640625,4.40798437 L6.73640625,4.677 C6.73640625,4.71332812 6.70701562,4.74271875 6.6706875,4.74271875 L6.62142187,4.74271875 L6.62142187,4.75092187 C6.62142187,4.78710937 6.65085937,4.81664062 6.68714062,4.81664062 L7.79615625,4.81664062 C7.8324375,4.81664062 7.861875,4.78710937 7.861875,4.75092187 L7.861875,4.33401562 Z M6.60496875,4.62365625 L6.60496875,4.47365625 L6.34209375,4.47365625 L6.34209375,4.52290693 L6.34209375,4.57440557 L6.34209375,4.62365625 L6.60496875,4.62365625 Z M2.99864062,4.47370312 L2.99864062,4.62370312 L3.26151562,4.62370312 L3.26151562,4.57445244 L3.26151562,4.52295381 L3.26151562,4.47370312 L2.99864062,4.47370312 Z M3.71334375,4.56609375 L3.71334375,4.51884375 C3.71334375,4.43053125 3.64148437,4.35867187 3.55317187,4.35867187 C3.46485937,4.35867187 3.393,4.43053125 3.393,4.51884375 L3.393,4.56609375 C3.393,4.65440625 3.46485937,4.72626562 3.55317187,4.72626562 C3.64148437,4.72626562 3.71334375,4.65440625 3.71334375,4.56609375 Z" id="Combined-Shape" fill="#D23741" fill-rule="nonzero"></path>
                <circle id="Oval" stroke="#FFFFFF" cx="12" cy="12" r="11.5"></circle>
            </g>
        </g>
    </g>
</svg>