<?xml version="1.0" encoding="UTF-8"?>
<svg width="24px" height="24px" viewBox="0 0 24 24" version="1.1" xmlns="http://www.w3.org/2000/svg" xmlns:xlink="http://www.w3.org/1999/xlink">
    <!-- Generator: Sketch 55.1 (78136) - https://sketchapp.com -->
    <title>Flags/guadeloupe</title>
    <desc>Created with Sketch.</desc>
    <g id="Icons" stroke="none" stroke-width="1" fill="none" fill-rule="evenodd">
        <g id="Flags/guadeloupe">
            <g id="guadeloupe" transform="translate(-0.000000, 0.000000)">
                <circle id="shape" fill="#DA121A" cx="12" cy="12" r="12"></circle>
                <path d="M22.8186238,10 L1.18137623,10 C2.1218889,4.87976392 6.60786074,1 12,1 C17.3921393,1 21.8781111,4.87976392 22.8186238,10 L22.8186238,10 Z" id="Shape" fill="#002488"></path>
                <g id="Group-62" transform="translate(3.500000, 5.000000)" fill="#FCDD09">
                    <path d="M8.90103,3.23306 L8.90103,3.28406 C8.61713,3.31636 8.18363,3.31636 7.88783,3.28406 C7.88443,3.26026 7.88953,3.24496 7.89803,3.23306 C8.05613,3.22626 8.24143,3.24666 8.38423,3.22286 L8.62733,3.22286 C8.69873,3.24666 8.81263,3.22626 8.90103,3.23306" id="Fill-32"></path>
                    <path d="M14.35293,3.20246 C14.67253,3.21606 15.05503,3.17526 15.35593,3.22286 L15.35593,3.25346 C15.33043,3.30786 15.20803,3.28406 15.13323,3.28406 L14.37333,3.28406 C14.35633,3.28576 14.35633,3.27386 14.34273,3.27386 C14.34103,3.26536 14.34783,3.26366 14.35293,3.26366 L14.35293,3.20246 Z" id="Fill-34"></path>
                    <path d="M1.57386,3.83078 L1.47186,3.83078 C1.64526,3.72198 1.80336,3.59448 1.87816,3.38538 L2.43576,3.38538 C2.49526,3.60298 2.63126,3.74408 2.81996,3.83078 C2.63636,3.85968 2.42216,3.83078 2.28276,3.77978 C2.32696,3.99908 2.32356,4.35438 2.17226,4.49038 C1.96996,4.40198 1.99036,4.03648 2.01926,3.77978 C1.92746,3.80188 1.84926,3.83928 1.72516,3.83078 L1.57386,3.83078 Z" id="Fill-36"></path>
                    <path d="M14.71826,3.13191 C14.69276,2.86161 14.62986,2.54201 14.55506,2.23941 C14.47006,1.88581 14.32046,1.57811 14.35276,1.14631 C14.37146,0.89981 14.50576,0.62611 14.64686,0.45611 C14.69276,0.40171 14.76756,0.31501 14.82876,0.31501 C14.94096,0.31161 15.08206,0.52751 15.14326,0.62781 C15.25036,0.80461 15.30306,0.94741 15.31666,1.15481 L15.31666,1.32651 C15.23506,1.96061 15.02256,2.46041 14.98176,3.13191 L14.71826,3.13191 Z" id="Fill-38"></path>
                    <path d="M2.0196,3.1518 C1.9754,2.8611 1.921,2.4956 1.8377,2.1794 C1.7595,1.887 1.6337,1.5742 1.6439,1.2461 C1.6524,1.0319 1.7255,0.8534 1.8071,0.6987 C1.8734,0.5746 2.0009,0.3264 2.142,0.3349 C2.2559,0.3417 2.3953,0.5865 2.4446,0.6698 C2.5636,0.8653 2.6401,1.0625 2.618,1.3889 C2.5976,1.6864 2.4905,1.9652 2.4242,2.2491 C2.3579,2.5415 2.3103,2.8322 2.2831,3.1518 L2.0196,3.1518 Z" id="Fill-40"></path>
                    <path d="M15.13323,3.3643 C15.20123,3.5751 15.33043,3.7213 15.51913,3.8114 C15.34063,3.8369 15.13153,3.8063 14.99213,3.7604 C15.02273,3.9865 15.02783,4.3452 14.86973,4.4693 C14.67423,4.3622 14.69803,4.0307 14.71843,3.7604 C14.56373,3.8148 14.37843,3.8216 14.18123,3.8114 C14.34443,3.6924 14.51273,3.5802 14.57563,3.3643 L15.13323,3.3643 Z" id="Fill-42"></path>
                    <path d="M7.81609,3.83078 L7.72599,3.83078 C7.88919,3.71518 8.05749,3.60128 8.12039,3.38538 L8.67799,3.38538 C8.74259,3.59618 8.87349,3.74408 9.06219,3.83078 C8.87859,3.85968 8.66779,3.82738 8.52499,3.77978 C8.58109,4.02628 8.56239,4.35948 8.41449,4.49038 C8.21899,4.39008 8.24109,4.05348 8.26319,3.78998 C8.19009,3.78828 8.08809,3.84608 7.96909,3.83078 L7.81609,3.83078 Z" id="Fill-44"></path>
                    <path d="M14.44422,3.12103 C14.41362,2.93063 14.30482,2.63993 14.16032,2.52263 C13.95802,2.36113 13.78632,2.51923 13.86622,2.77593 C13.89002,2.85073 13.94782,2.89323 13.93762,2.92893 C13.61802,2.79293 13.22362,2.59573 13.25932,2.10783 C13.28312,1.77293 13.61462,1.56213 13.96822,1.74233 C14.38472,1.95653 14.56322,2.56853 14.62612,3.12103 C14.58702,3.13973 14.48332,3.13633 14.44422,3.12103" id="Fill-46"></path>
                    <path d="M15.07271,3.111 C15.12881,2.5228 15.38551,1.7204 15.98561,1.6728 C16.17091,1.6575 16.33411,1.785 16.39021,1.9057 C16.60441,2.3613 16.17091,2.8271 15.76121,2.9291 C15.74591,2.8883 15.82411,2.8407 15.84281,2.7574 C15.90061,2.5024 15.73911,2.3766 15.54871,2.5228 C15.39061,2.6452 15.29541,2.8883 15.25461,3.1212 C15.21721,3.1314 15.09311,3.1501 15.07271,3.111" id="Fill-48"></path>
                    <path d="M1.74573,3.1518 C1.70663,2.9495 1.55023,2.4412 1.26973,2.4735 C1.09973,2.4922 1.12013,2.8475 1.24933,2.9393 C0.90933,2.8798 0.44693,2.5024 0.57103,2.0179 C0.60673,1.8785 0.72743,1.7187 0.92633,1.7017 L1.02663,1.7017 C1.67773,1.8343 1.82223,2.4735 1.92763,3.1518 L1.74573,3.1518 Z" id="Fill-50"></path>
                    <path d="M2.36419,3.1518 C2.40159,2.8186 2.47469,2.4803 2.62769,2.1981 C2.75859,1.9584 2.98129,1.6949 3.30769,1.6932 C3.56779,1.6915 3.70719,1.8904 3.73269,2.0774 C3.80239,2.6061 3.39269,2.8152 3.04249,2.9495 C3.15979,2.8611 3.20229,2.5007 3.03399,2.4735 C2.90139,2.4497 2.75519,2.6146 2.69909,2.7064 C2.61239,2.8475 2.58859,3.0005 2.54609,3.1518 L2.36419,3.1518 Z" id="Fill-52"></path>
                    <path d="M7.98881,3.14177 C7.95651,2.96327 7.86811,2.69977 7.73551,2.57397 C7.67771,2.51957 7.57911,2.45837 7.50261,2.47197 C7.32071,2.50767 7.40231,2.88167 7.49241,2.94967 C7.21021,2.86637 6.84471,2.63007 6.80391,2.25947 C6.76651,1.92797 6.98071,1.62537 7.34111,1.70187 C7.91231,1.82427 8.08571,2.52637 8.17071,3.15197 C8.11291,3.14687 8.03131,3.16387 7.98881,3.14177" id="Fill-54"></path>
                    <path d="M8.61713,3.13191 C8.65283,2.66781 8.83813,2.13741 9.09313,1.89431 C9.27503,1.72261 9.67453,1.59681 9.87343,1.83481 C9.94313,1.91641 9.97713,2.00481 9.98563,2.13911 C10.01113,2.57261 9.64053,2.83611 9.30563,2.95001 C9.29033,2.90751 9.37193,2.85991 9.38723,2.77661 C9.43653,2.51311 9.27333,2.40601 9.09313,2.54371 C8.93673,2.66271 8.83983,2.91091 8.79903,3.14211 C8.76163,3.15231 8.63753,3.17101 8.61713,3.13191" id="Fill-56"></path>
                    <path d="M8.26268,3.1518 L8.26268,3.1416 C8.22698,2.8526 8.17428,2.5602 8.09948,2.261 C8.01278,1.904 7.86318,1.6065 7.89718,1.1662 C7.91588,0.9197 8.04848,0.6494 8.19128,0.476 C8.23718,0.4216 8.31708,0.334888384 8.37318,0.334888384 C8.46838,0.3332 8.60778,0.5185 8.67748,0.629 C8.79478,0.8126 8.84748,0.969 8.86108,1.1968 L8.86108,1.3481 C8.77948,1.9805 8.56698,2.4786 8.52618,3.1518 L8.26268,3.1518 Z" id="Fill-58"></path>
                    <path d="M2.12092,3.22235 L2.46602,3.22235 C2.50002,3.26145 2.64622,3.19175 2.64792,3.26315 L2.64792,3.30395 L1.87782,3.30395 C1.79622,3.30395 1.67382,3.32775 1.64492,3.27335 L1.64492,3.23255 C1.80132,3.22575 1.98152,3.24615 2.12092,3.22235" id="Fill-60"></path>
                </g>
                <g id="Group-63" transform="translate(2.000000, 9.000000)">
                    <g id="Group-30">
                        <path d="M1.9474,2.4862 C2.5794,2.9882 3.2154,3.5702 3.7474,4.1542 C3.0174,3.7302 2.2934,3.2962 1.9474,2.4862" id="Fill-2" fill="#008000"></path>
                        <path d="M6.9904,4.6318 C6.9264,4.6398 6.8764,4.6618 6.8124,4.6678 C6.5964,4.6218 6.5084,4.4458 6.2264,4.4658 C6.3764,4.5578 6.5944,4.5838 6.7284,4.6918 C6.5744,4.7158 6.4044,4.7398 6.2504,4.7038 C6.1124,4.6438 5.9904,4.5658 5.9064,4.4538 L5.7384,4.4538 C5.6784,4.4018 5.6224,4.3458 5.5724,4.2858 L5.6784,4.2858 C5.4004,4.0158 5.2224,3.6458 5.0704,3.2498 C5.4024,3.5778 5.6984,3.9398 5.9884,4.3098 C6.0764,4.3138 6.1544,4.3278 6.2404,4.3338 C6.0344,4.0898 5.8204,3.7258 5.6784,3.3438 C5.6344,3.2258 5.5464,3.0658 5.6424,2.9518 C5.7604,3.0198 5.7424,3.1738 5.7864,3.2858 C5.8284,3.3938 5.8884,3.5018 5.9404,3.6058 C6.0844,3.8958 6.2144,4.1858 6.4664,4.3578 C6.5344,4.3798 6.6344,4.3718 6.6804,4.4178 C6.6924,4.4538 6.6544,4.4378 6.6324,4.4418 C6.7164,4.5398 6.8764,4.5618 6.9904,4.6318" id="Fill-4" fill="#008000"></path>
                        <path d="M5.1778,6.4804 C5.2298,6.4984 5.2678,6.5324 5.3078,6.5644 C5.1338,6.7324 5.0738,7.0204 5.0218,7.3144 L4.9998,7.3144 C4.9818,6.9604 4.9998,6.6404 5.1778,6.4804" id="Fill-6" fill="#008000"></path>
                        <path d="M5.667,6.6942 C5.717,6.7122 5.777,6.7202 5.833,6.7302 C5.671,6.8662 5.583,7.0742 5.429,7.2202 C5.403,6.9862 5.555,6.8302 5.667,6.6942" id="Fill-8" fill="#008000"></path>
                        <path d="M14.5734,8.0536 C14.3214,8.0016 14.0794,7.9336 13.8334,7.8756 C14.1214,7.8056 14.3954,7.9256 14.5734,8.0416 L14.5734,8.0536 Z" id="Fill-10" fill="#008000"></path>
                        <path d="M13.667,7.911 C15.093,8.343 16.579,8.719 18.079,9.079 C18.071,9.159 18.017,9.195 18.019,9.283 C16.501,8.851 14.959,8.447 13.475,7.983 C13.525,7.943 13.595,7.925 13.667,7.911" id="Fill-12" fill="#008000"></path>
                        <path d="M14.549,7.911 C15.753,8.221 17.011,8.477 18.269,8.733 C18.257,8.813 18.211,8.857 18.209,8.949 C17.031,8.661 15.861,8.363 14.681,8.077 C14.633,8.029 14.599,7.969 14.549,7.923 L14.549,7.911 Z" id="Fill-14" fill="#008000"></path>
                        <path d="M13.3926,8.0184 C14.8246,8.5424 16.3166,9.0044 17.8286,9.4484 C17.8106,9.5204 17.7606,9.5564 17.7566,9.6404 C16.3126,9.1864 14.9266,8.6784 13.5006,8.2084 C13.4626,8.1984 13.4386,8.1744 13.3926,8.1724 C13.3506,8.1344 13.2806,8.1264 13.2486,8.0784 C13.2966,8.0584 13.3406,8.0344 13.3926,8.0184" id="Fill-16" fill="#008000"></path>
                        <path d="M13.2256,8.6738 C14.4856,9.3518 15.8136,9.9658 17.1476,10.5698 C17.1356,10.6518 17.0696,10.6818 17.0536,10.7598 C15.6916,10.0918 14.3516,9.3998 12.9996,8.7218 C13.0636,8.6938 13.1376,8.6758 13.2256,8.6738" id="Fill-18" fill="#008000"></path>
                        <path d="M14.2032,8.8642 C15.2512,9.3222 16.3312,9.7502 17.4112,10.1762 C17.3832,10.2442 17.3312,10.2882 17.3152,10.3662 C16.2872,9.9442 15.3112,9.4682 14.2872,9.0422 C14.2572,8.9842 14.2252,8.9302 14.2032,8.8642" id="Fill-20" fill="#008000"></path>
                        <path d="M6.9904,4.6318 L7.0144,4.6318 C7.0024,4.5718 6.9264,4.5618 6.8824,4.5378 C6.5104,4.3158 6.2184,3.9518 6.1444,3.4158 C6.3644,3.8598 6.7944,4.1418 7.5024,4.0598 C7.2024,3.7598 6.8564,3.4038 6.9064,2.7138 C7.0584,3.2638 7.4784,3.5478 8.1104,3.6198 C7.8644,3.3198 7.6164,2.7438 7.7884,2.1638 C7.8504,2.8198 8.2484,3.1198 8.7904,3.3078 C8.7324,3.1378 8.6184,2.9238 8.6004,2.6658 C8.5744,2.3358 8.6764,2.0378 8.7784,1.8058 C8.6964,2.5358 9.0864,2.8858 9.5184,3.1418 C9.3524,2.6098 9.5424,1.9818 9.8164,1.6758 C9.8144,1.8098 9.7444,1.9378 9.7324,2.0818 C9.6904,2.5718 10.0364,2.8918 10.2684,3.1418 C10.2204,2.5358 10.4704,2.1518 10.7704,1.8658 C10.8004,1.8378 10.8164,1.7818 10.8644,1.7958 C10.7864,1.9518 10.6844,2.0898 10.6624,2.2838 C10.6144,2.7058 10.8444,3.0258 10.9844,3.2858 C11.1044,2.7098 11.3944,2.3038 11.8544,2.0678 C11.7404,2.2558 11.5364,2.4518 11.5084,2.7718 C11.4824,3.0778 11.5984,3.3338 11.6764,3.5838 C11.8784,3.0818 12.2244,2.7238 12.7724,2.5698 C12.5264,2.7658 12.2544,3.0458 12.2364,3.4998 C12.2284,3.6658 12.2664,3.8238 12.2844,3.9998 C12.5584,3.6458 12.9184,3.2758 13.5724,3.2598 C13.0664,3.4518 12.7924,3.8738 12.7844,4.5598 C13.0864,4.2858 13.5164,3.9858 14.1924,4.0838 C13.9004,4.1778 13.6744,4.2618 13.5004,4.4658 C13.3304,4.6618 13.2464,4.9138 13.1664,5.2038 C13.5024,4.9498 14.1824,4.8178 14.6564,5.0378 C13.9324,5.0198 13.6384,5.4338 13.4044,5.9078 C13.5604,5.8758 13.7344,5.8018 13.9284,5.7898 C14.3164,5.7598 14.6564,5.9118 14.8944,6.0498 C14.7404,6.0598 14.5904,6.0038 14.4304,6.0158 C13.9824,6.0478 13.7084,6.3878 13.4884,6.6598 C14.1364,6.5458 14.6104,6.7958 14.9184,7.0998 C14.7424,7.0658 14.5744,6.9578 14.3584,6.9578 C13.9564,6.9538 13.6484,7.2158 13.4164,7.3978 C13.9344,7.4298 14.2964,7.6158 14.5484,7.9118 L14.5484,7.9238 C14.5984,7.9678 14.6344,8.0298 14.6804,8.0778 C14.6924,8.0938 14.7004,8.1138 14.7164,8.1258 C14.6784,8.1378 14.6244,8.0658 14.5744,8.0538 L14.5744,8.0418 C14.3944,7.9238 14.1224,7.8058 13.8344,7.8758 C13.7644,7.8738 13.7124,7.8898 13.6664,7.9118 C13.5944,7.9258 13.5244,7.9438 13.4764,7.9818 C13.4364,7.9818 13.4124,7.9998 13.3924,8.0178 C13.3404,8.0338 13.2964,8.0578 13.2484,8.0778 C13.2264,8.0838 13.2204,8.1038 13.1904,8.1018 C13.2484,8.1338 13.3244,8.1498 13.3924,8.1738 C13.4404,8.1738 13.4624,8.1998 13.5004,8.2098 C13.6164,8.2718 13.7264,8.3398 13.8344,8.4118 C13.9204,8.4918 14.0044,8.5758 14.0844,8.6618 C14.1204,8.7318 14.1684,8.7938 14.2024,8.8638 C14.2264,8.9298 14.2584,8.9838 14.2864,9.0438 C14.2964,9.0518 14.2944,9.0758 14.3104,9.0798 C14.2864,9.1258 14.2344,9.0078 14.1924,8.9958 C14.0204,8.7898 13.7784,8.6538 13.4044,8.6498 C13.3424,8.6558 13.2744,8.6558 13.2264,8.6738 C13.1364,8.6758 13.0644,8.6938 12.9984,8.7218 C12.9324,8.7178 12.8964,8.7458 12.8324,8.7458 C13.2724,9.0058 13.6324,9.3438 13.7144,9.9618 C13.4864,9.5158 13.0844,9.2398 12.3444,9.3058 C12.6484,9.6078 13.0004,9.9678 12.9504,10.6658 C12.7944,10.1178 12.3864,9.8238 11.7464,9.7578 C11.9844,10.0478 12.2644,10.6698 12.0444,11.2018 C12.0204,10.5238 11.5824,10.2578 11.0684,10.0678 C11.1304,10.2458 11.2404,10.4658 11.2584,10.7358 C11.2824,11.0498 11.1744,11.3358 11.0784,11.5598 C11.1564,10.8278 10.7584,10.4858 10.3284,10.2238 C10.5064,10.7698 10.3204,11.3838 10.0424,11.6898 C10.0484,11.5378 10.1244,11.3978 10.1264,11.2258 C10.1284,10.7818 9.8184,10.4698 9.5884,10.2358 C9.6364,10.8438 9.3784,11.2218 9.0884,11.5118 C9.0624,11.5378 9.0384,11.5978 8.9924,11.5838 C9.3544,11.1658 9.1524,10.4158 8.8624,10.0918 C8.7584,10.6838 8.4504,11.0738 7.9904,11.3078 C8.1224,11.1238 8.3284,10.9118 8.3504,10.5698 C8.3664,10.2858 8.2564,10.0358 8.1824,9.7958 C7.9704,10.2858 7.6444,10.6618 7.0744,10.7958 C7.4924,10.5498 7.7284,10.0278 7.5744,9.3658 C7.3064,9.7338 6.9304,10.0978 6.2744,10.1158 C6.7844,9.9278 7.0624,9.5038 7.0744,8.8178 C6.7684,9.0838 6.3144,9.4058 5.6544,9.2818 C6.2684,9.1798 6.5584,8.7538 6.6924,8.1738 C6.3764,8.4058 5.6824,8.5658 5.2024,8.3398 C5.9204,8.3478 6.2264,7.9418 6.4524,7.4578 C6.0084,7.6818 5.2724,7.5718 4.9764,7.3258 C4.9764,7.3158 4.9904,7.3178 4.9984,7.3138 L5.0224,7.3138 C5.6204,7.4998 6.0064,7.1358 6.2864,6.8138 C6.3084,6.7898 6.3624,6.7578 6.3464,6.7178 C6.1944,6.7398 5.9944,6.7558 5.8344,6.7298 C5.7784,6.7198 5.7164,6.7138 5.6664,6.6938 C5.5284,6.6718 5.4264,6.6098 5.3084,6.5638 C5.2684,6.5338 5.2304,6.4998 5.1784,6.4798 C5.1064,6.4038 5.0284,6.3378 4.9404,6.2778 C5.0464,6.2778 5.1664,6.3678 5.2964,6.3838 C5.3604,6.4138 5.4544,6.4098 5.5484,6.4078 C5.7144,6.4038 5.8424,6.3618 5.9524,6.2998 C6.0064,6.2878 6.0484,6.2618 6.0844,6.2298 C6.1164,6.2218 6.1404,6.2058 6.1564,6.1818 C6.2344,6.1378 6.3064,6.0878 6.3704,6.0278 C6.3944,6.0138 6.4204,6.0058 6.4304,5.9798 C6.1244,5.9538 5.8704,5.8798 5.6544,5.7638 C5.6084,5.7158 5.5424,5.6878 5.4884,5.6458 C5.4144,5.5838 5.3524,5.5118 5.2844,5.4438 C5.2464,5.3718 5.1904,5.3158 5.1424,5.2518 C5.3564,5.4038 5.8184,5.6338 6.2144,5.4558 C6.2884,5.4418 6.3544,5.4178 6.4064,5.3818 C6.4524,5.3658 6.5004,5.3518 6.5364,5.3238 C6.5824,5.3058 6.6324,5.2918 6.6684,5.2638 C6.3884,5.1938 6.1624,5.0698 5.9644,4.9178 C5.7824,4.7498 5.6504,4.5338 5.5484,4.2858 C5.5524,4.2678 5.5584,4.2878 5.5724,4.2858 C5.6224,4.3458 5.6784,4.4018 5.7384,4.4538 L5.7384,4.4658 C5.8744,4.5778 6.0224,4.6818 6.2504,4.7038 C6.4044,4.7398 6.5744,4.7158 6.7284,4.6918 C6.7444,4.6718 6.7944,4.6878 6.8124,4.6678 C6.8764,4.6618 6.9264,4.6398 6.9904,4.6318" id="Fill-22" fill="#FCDD09"></path>
                        <path d="M5.6544,5.288 C5.5804,5.268 5.5444,5.206 5.4764,5.18 C5.4464,5.198 5.4104,5.21 5.3924,5.24 C5.4804,5.248 5.5864,5.3 5.6544,5.288 M5.2024,5.18 C5.2184,5.154 5.2604,5.152 5.2744,5.122 C5.1784,5.096 5.0544,5.038 4.9624,5.05 C5.0464,5.09 5.1164,5.142 5.2024,5.18 M4.8084,5.122 C4.6284,5.03 4.4464,4.878 4.2004,4.894 C4.3904,4.974 4.5364,5.162 4.8084,5.122 M3.8304,4.93 C3.8344,4.83 3.6364,4.766 3.5084,4.798 C3.6224,4.836 3.7004,4.91 3.8304,4.93 M5.6184,4.918 C5.6804,4.884 5.7484,4.856 5.7984,4.81 C5.5264,4.734 5.2344,4.612 5.0104,4.524 C5.1744,4.696 5.4084,4.794 5.6184,4.918 M4.6064,4.764 C4.5144,4.636 4.3084,4.56 4.1644,4.524 C4.3144,4.594 4.4184,4.77 4.6064,4.764 M5.4884,4.512 C5.4364,4.442 5.2904,4.4 5.1664,4.442 C5.2644,4.466 5.3864,4.532 5.4884,4.512 M3.2104,4.406 C3.1164,4.414 3.0384,4.442 2.9364,4.442 C3.0244,4.546 3.1924,4.624 3.3644,4.548 C3.3124,4.504 3.2504,4.464 3.2104,4.406 M4.0804,4.668 C3.9544,4.58 3.8504,4.47 3.7584,4.346 C3.6544,4.304 3.5104,4.334 3.4244,4.382 C3.5964,4.518 3.8564,4.626 4.0804,4.668 M2.7224,4.322 C2.7764,4.344 2.8064,4.388 2.8644,4.406 C2.9284,4.354 3.0164,4.326 3.0924,4.286 C3.0244,4.148 2.8304,4.288 2.7224,4.322 M3.1864,4.214 C3.2364,4.268 3.3944,4.278 3.4844,4.25 C3.3704,4.24 3.2804,4.144 3.1864,4.214 M5.5484,4.286 C5.6504,4.534 5.7824,4.75 5.9644,4.918 C5.8864,4.928 5.8204,4.95 5.7744,4.99 C6.0204,5.11 6.3044,5.19 6.5364,5.324 C6.5004,5.352 6.4524,5.366 6.4064,5.382 L6.4064,5.372 C6.2004,5.32 5.9784,5.204 5.7864,5.11 C5.7384,5.084 5.6424,5.014 5.5944,5.084 C5.7944,5.216 5.9744,5.366 6.2144,5.454 C5.8184,5.634 5.3564,5.404 5.1424,5.252 C5.1904,5.316 5.2464,5.372 5.2844,5.444 C4.9904,5.438 4.9024,5.64 4.7844,5.812 C5.0204,5.758 5.2464,5.694 5.4884,5.646 C5.5424,5.688 5.6084,5.714 5.6544,5.764 C5.3564,5.846 4.9984,5.872 4.7124,5.968 C4.7144,6.016 4.6924,6.042 4.7004,6.098 C4.9664,5.944 5.3204,5.956 5.6424,6.038 C5.7064,6.056 5.7804,6.11 5.8464,6.11 C6.0144,6.114 6.1784,5.982 6.3704,6.028 C6.3064,6.086 6.2344,6.138 6.1544,6.182 C6.1264,6.194 6.0544,6.196 6.0844,6.23 C6.0484,6.262 6.0064,6.288 5.9524,6.3 C5.8004,6.25 5.6724,6.36 5.5484,6.408 C5.4544,6.41 5.3604,6.412 5.2964,6.384 C5.3844,6.32 5.4744,6.26 5.5824,6.218 C5.3444,6.094 4.8884,6.11 4.7004,6.266 C4.7024,6.412 4.7204,6.54 4.7364,6.67 C4.6864,6.576 4.6564,6.456 4.6164,6.348 C4.5024,6.432 4.4084,6.538 4.3084,6.634 C4.3704,6.436 4.6284,6.298 4.5704,6.002 C4.1584,6.086 3.8224,6.242 3.8664,6.778 C3.8004,6.656 3.7264,6.48 3.7584,6.326 C3.8224,6.022 4.3344,5.994 4.5824,5.872 C4.6524,5.704 4.7584,5.57 4.8684,5.444 C4.7984,5.428 4.7224,5.422 4.6644,5.396 C4.3724,5.576 3.9604,5.616 3.6164,5.752 C3.5004,5.798 3.4204,5.878 3.3064,5.908 C3.3244,5.688 3.6304,5.626 3.8304,5.55 C4.0464,5.468 4.2904,5.374 4.5344,5.36 C4.1744,5.218 3.3424,5.164 3.1624,5.514 C3.1284,5.58 3.1504,5.69 3.0444,5.742 C3.0104,5.566 3.1304,5.448 3.1384,5.276 C3.0464,5.216 2.9064,5.268 2.7924,5.3 C2.6224,5.348 2.4664,5.412 2.3524,5.514 C2.4104,5.142 3.0024,5.14 3.4244,5.11 C3.5444,5.1 3.7524,5.09 3.9024,5.096 C3.8184,5.038 3.6984,4.996 3.5684,4.93 C3.4704,4.88 3.3584,4.784 3.2464,4.75 C3.0004,4.68 2.4724,4.69 2.3164,4.798 C2.2144,4.872 2.1884,5.004 2.1504,5.156 C2.0264,4.628 2.5704,4.664 2.9604,4.608 C2.7944,4.484 2.5984,4.286 2.2924,4.262 C2.3264,4.238 2.3784,4.23 2.4244,4.214 C2.4324,4.164 2.2544,4.078 2.2924,4.036 C2.3584,4.09 2.4404,4.128 2.5064,4.178 C2.6504,4.15 2.7604,4.09 2.9244,4.084 C2.8184,4.02 2.6624,4.004 2.5424,3.952 C2.4304,4.014 2.1664,3.98 2.0184,4 C1.7084,4.042 1.6384,4.314 1.4344,4.5 C1.4204,4.062 1.7424,3.794 2.2564,3.88 C1.8624,3.752 1.4284,3.66 0.9924,3.572 C1.5644,3.522 2.0604,3.75 2.5664,3.846 C2.2024,3.612 1.8164,3.404 1.4344,3.19 C1.6244,3.162 1.8664,3.31 2.0544,3.368 C1.9384,3.24 1.8064,3.096 1.6484,2.974 C1.4964,2.856 1.2964,2.77 1.1964,2.606 C1.8284,2.874 2.3384,3.268 2.7704,3.738 C2.8564,3.77 2.9204,3.82 2.9964,3.87 C3.0664,3.914 3.1284,3.99 3.1984,4.024 C3.3144,4.082 3.4544,4.072 3.5924,4.13 C3.6304,4.17 3.5964,4.096 3.6404,4.108 C3.9424,4.32 4.3504,4.304 4.6424,4.5 C4.7724,4.588 4.8824,4.71 5.0104,4.798 C5.1444,4.892 5.2844,4.958 5.4164,5.05 C5.4544,5.032 5.4924,5.014 5.5344,5.002 C5.2644,4.812 4.9364,4.678 4.7604,4.394 C4.0704,4.306 3.6884,3.81 3.2944,3.416 C2.8944,3.016 2.4924,2.566 2.2564,2.022 C2.4644,2.236 2.6144,2.5 2.8064,2.736 C2.9904,2.966 3.1764,3.212 3.4244,3.38 C3.2644,3.028 2.9384,2.74 2.8644,2.26 C3.4044,2.894 3.8024,3.666 4.4504,4.192 C4.1724,3.666 3.5764,3.292 3.4964,2.57 C3.5384,2.552 3.5624,2.614 3.5804,2.64 C3.6524,2.748 3.7164,2.892 3.7944,3.01 C4.0984,3.47 4.4584,3.936 4.8324,4.322 C4.8704,4.316 4.8964,4.298 4.9404,4.298 C4.7704,4.058 4.5104,3.806 4.3904,3.476 C4.4824,3.476 4.5224,3.58 4.5704,3.642 C4.7184,3.836 4.9044,4.048 5.0104,4.286 C5.1204,4.28 5.2244,4.268 5.3444,4.274 C4.9604,4 4.7564,3.542 4.5344,3.106 C4.6784,3.272 4.8244,3.44 4.9764,3.62 C5.1384,3.814 5.3224,4.002 5.4044,4.274 C5.4504,4.28 5.5184,4.264 5.5484,4.286" id="Fill-24" fill="#008000"></path>
                        <path d="M13.4044,8.6504 C13.7784,8.6524 14.0204,8.7884 14.1924,8.9964 C13.9264,8.8824 13.6584,8.7724 13.4044,8.6504" id="Fill-26" fill="#008000"></path>
                        <path d="M13.834,8.411 C15.046,8.927 16.326,9.377 17.602,9.829 C17.58,9.913 17.528,9.963 17.506,10.045 C17.476,9.971 17.376,9.973 17.316,9.949 C16.822,9.771 16.31,9.559 15.812,9.353 C15.24,9.117 14.65,8.883 14.084,8.661 C14.004,8.575 13.92,8.493 13.834,8.411" id="Fill-28" fill="#008000"></path>
                    </g>
                </g>
                <path d="M12,24 C18.627417,24 24,18.627417 24,12 C24,5.372583 18.627417,0 12,0 C5.372583,0 0,5.372583 0,12 C0,18.627417 5.372583,24 12,24 Z M12,23 C5.92486775,23 1,18.0751322 1,12 C1,5.92486775 5.92486775,1 12,1 C18.0751322,1 23,5.92486775 23,12 C23,18.0751322 18.0751322,23 12,23 Z" id="Oval" fill="#FFFFFF" fill-rule="nonzero"></path>
            </g>
        </g>
    </g>
</svg>