<?xml version="1.0" encoding="UTF-8"?>
<svg width="24px" height="24px" viewBox="0 0 24 24" version="1.1" xmlns="http://www.w3.org/2000/svg" xmlns:xlink="http://www.w3.org/1999/xlink">
    <!-- Generator: Sketch 55.1 (78136) - https://sketchapp.com -->
    <title>Flags/wales</title>
    <desc>Created with Sketch.</desc>
    <g id="Icons" stroke="none" stroke-width="1" fill="none" fill-rule="evenodd">
        <g id="Flags/wales">
            <g id="wales">
                <g id="Group-2" transform="translate(0.500000, 0.500000)" fill-rule="nonzero">
                    <path d="M23,11.5 L0,11.5 C0,5.14872538 5.14872538,0 11.5,0 C17.8512746,0 23,5.14872538 23,11.5 Z" id="Combined-Shape" fill="#F5F5F5"></path>
                    <path d="M23,11.5 C23,17.8512746 17.8512746,23 11.5,23 C5.14872538,23 0,17.8512746 0,11.5 L23,11.5 Z" id="Combined-Shape" fill="#73AF00"></path>
                </g>
                <g id="Group" transform="translate(4.921875, 6.515625)" fill="#FF4B55" fill-rule="nonzero">
                    <path d="M13.3355156,2.22360938 C13.3355156,2.22360938 13.6215469,3.00815625 13.6460625,3.04903125 L13.6787344,2.98364063 L13.8748594,1.96209375 L14.3815313,1.01409375 L14.2344375,1.03045313 L13.0821094,1.58620312 C13.0821094,1.58620312 12.395625,2.33807812 12.3874688,2.36259375 C12.3793125,2.38710937 13.3355156,2.22360938 13.3355156,2.22360938 Z" id="Shape"></path>
                    <path d="M13.7414062,9.72590625 C13.70325,9.72046875 13.136625,9.74765625 13.136625,9.74765625 L12.951375,9.1265625 L12.8451094,7.95248438 L13.0453125,7.899375 L13.2945937,8.017875 L13.3845,7.54795313 C13.3845,7.54795313 13.1679375,7.31095313 13.1270625,7.29459375 C13.0861875,7.27823438 12.595875,7.1679375 12.595875,7.1679375 L11.9379844,6.2975625 L12.7225312,5.8603125 L13.3354687,5.01853125 L13.4825625,4.2585 L13.3599844,3.62920313 L13.0812656,3.16246875 C13.0771406,3.14915625 13.0739531,3.13884375 13.0739531,3.13884375 C13.0719844,3.13640625 13.0650937,3.131625 13.0606875,3.1280625 L13.0085625,3.04078125 L13.0077656,3.0916875 C12.886875,3.01617188 12.6394687,2.88482813 12.5754375,2.8528125 C12.4937344,2.8119375 12.0605625,2.73839063 11.9706562,2.80378125 C11.88075,2.86917188 11.4639844,3.06529688 11.3903906,3.20423438 C11.3167969,3.34317188 11.2678125,3.8416875 11.2678125,3.8416875 C11.2678125,3.8416875 11.3903906,4.1195625 11.5456875,4.18495313 C11.7009844,4.25034375 12.0033281,4.32389063 12.0523594,4.30753125 C12.0946875,4.29342188 12.5744062,4.15167188 12.7052812,4.09204688 L12.7633594,4.20946875 L12.7388437,4.54453125 L12.4691719,4.7325 L11.9706562,4.928625 C11.9706562,4.928625 11.210625,4.71614063 11.1779062,4.72429688 C11.1452344,4.73245313 10.2053906,4.44642188 10.2053906,4.44642188 L9.32278125,4.24209375 L9.61696875,4.095 L10.417875,4.0378125 C10.417875,4.0378125 10.5731719,3.1306875 10.5976875,3.11432813 C10.6222031,3.09796875 11.1452344,2.68120313 11.1452344,2.68120313 L11.5783594,2.57498438 L11.3168437,1.46625 L11.7091406,0.256734375 L10.684875,0.550921875 L9.06126562,0.95409375 L8.02607812,0.888703125 L7.11075,1.18289063 L6.52232812,1.71684375 L6.18454687,2.17448438 L6.0646875,2.9045625 L5.98842187,3.87435938 L5.70510937,4.40826563 L5.3840625,4.65989063 C5.3480625,4.564875 5.1793125,4.20126563 5.1793125,4.20126563 L5.58792187,4.10320313 L5.48170312,3.83353125 L5.19567187,3.62104688 L5.28557812,3.29414063 L5.61248437,3.47395313 L5.70239062,3.53934375 L5.75957812,3.20428125 L5.4,2.69760938 L5.4571875,2.44425 L5.8903125,2.67309375 L5.84128125,2.08467188 L5.4571875,1.84767188 L5.48170312,1.52076563 L5.90123437,1.6460625 L5.85764062,1.33551563 L5.4,1.00317188 L5.84676562,0.284015625 L5.3019375,0.311296875 L5.25834375,0.077015625 L5.1166875,0.0225 C5.1166875,0.0225 4.359375,0.34396875 4.30490625,0.333046875 C4.2504375,0.322171875 3.64565625,0.240421875 3.57482812,0.25678125 C3.504,0.273140625 3.25340625,0.338484375 3.25340625,0.338484375 L3.18257812,0.616359375 L2.71945312,0.54009375 L2.03296875,0.48290625 L1.82592187,0.736265625 L2.15282812,0.867046875 C2.15282812,0.867046875 2.0765625,1.44454688 2.09835937,1.48814063 C2.12015625,1.53173438 2.31628125,1.81504688 2.31628125,1.81504688 L1.86951562,2.42521875 L2.32715625,2.49060938 L2.95917187,2.39254688 L2.937375,2.545125 L3.7764375,2.4579375 L3.5911875,2.556 L3.35146875,3.27515625 L2.6540625,4.69171875 L2.40890625,5.95026563 L2.01660937,5.54165625 L1.75509375,4.462875 L1.36279687,3.40045313 C1.36279687,3.40045313 1.28109375,3.07354688 1.23201562,3.06539063 C1.1829375,3.05723438 0.9705,3.01635938 0.9705,3.01635938 L0.700828125,3.237 L0.3575625,3.18796875 L0.1614375,3.45764063 L0.382078125,3.80090625 C0.382078125,3.80090625 0.014296875,3.948 0.014296875,3.988875 C0.014296875,4.02975 0.0388125,4.26675 0.063328125,4.27490625 C0.08784375,4.2830625 0.64359375,4.26675 0.64359375,4.26675 L0.97865625,4.86332813 L0.717140625,5.5498125 L0.847921875,5.81132813 L1.07676562,5.844 L1.28925,5.59884375 L2.02476562,7.79723438 C2.02476562,7.79723438 1.96757812,8.08326563 1.92670312,8.10778125 C1.88582812,8.13229688 1.68970312,8.3529375 1.73873437,8.3529375 C1.78776562,8.3529375 2.09015625,8.3938125 2.12282812,8.37745313 C2.1555,8.36109375 2.58046875,8.0341875 2.58046875,8.0341875 C2.58046875,8.0341875 3.25059375,7.5193125 3.29146875,7.5601875 C3.33234375,7.6010625 3.96979687,7.9933125 3.96979687,7.9933125 L3.67560937,9.00670313 L2.98096875,10.0200938 L2.54784375,9.75857813 L2.23729687,9.31725 L2.00845312,9.39079688 L1.92675,9.52973438 L1.95942187,9.82392188 C1.95942187,9.82392188 1.72242187,10.0118906 1.72242187,10.0527656 C1.72242187,10.0936406 1.7469375,10.3878281 1.7469375,10.3878281 C1.7469375,10.3878281 1.90223437,10.461375 1.91039062,10.50225 C1.91854687,10.543125 2.00029687,10.8373125 2.00029687,10.8373125 L2.16375,10.8945 L2.47429687,10.7065313 L2.98917187,10.7065313 L3.307875,10.7555625 L3.98620312,10.5430781 L4.97507812,10.5921094 L4.88517187,10.4041406 C4.88517187,10.4041406 4.48471875,10.1998125 4.34578125,10.1589844 C4.20684375,10.1181094 4.06790625,10.0854375 4.06790625,10.0854375 L4.01071875,9.79940625 L4.98323437,8.64707813 L5.3428125,8.57353125 L5.46539062,8.87592188 C5.46539062,8.87592188 5.8685625,8.77785938 5.8685625,8.74514063 C5.8685625,8.71242188 5.8685625,8.36376563 5.8685625,8.33104688 C5.8685625,8.298375 5.781375,8.0259375 5.781375,8.0259375 C5.781375,8.0259375 5.78020312,8.01590625 5.77846875,8.00095313 L6.08648437,7.949625 L7.15434375,7.43751563 L7.53028125,7.88971875 L7.99884375,8.11307813 L7.41585937,9.15914063 L6.914625,9.49696875 L6.55504687,9.33351563 L6.0538125,8.96301563 L5.8576875,9.082875 L5.90128125,9.45332813 L5.60709375,9.43157813 L5.4763125,9.69309375 L5.69423437,10.0090781 L5.61796875,10.2597188 C5.61796875,10.2597188 5.67248437,10.4885625 5.72695312,10.4885625 C5.78142187,10.4885625 6.10832812,10.3687031 6.10832812,10.3687031 L7.06725,10.2924375 L7.76465625,10.0635938 L8.49473437,10.1181094 C8.49473437,10.1181094 8.63639062,9.62775 8.60371875,9.62775 C8.57104687,9.62775 8.560125,9.61682813 8.4729375,9.61682813 C8.38575,9.61682813 8.08064062,9.62775 8.08064062,9.62775 L8.06971875,9.51876563 L8.3094375,9.08292188 L9.23564062,8.30925 L9.50803125,8.36376563 L9.60609375,8.50542188 L9.87853125,8.298375 L9.86760937,7.94967188 L9.62789062,7.69907813 L9.38817187,7.41576563 L9.4644375,6.99079688 L9.87848437,7.18692188 C9.87848437,7.18692188 10.5322969,7.6445625 10.5867656,7.66640625 C10.6412812,7.68815625 11.9052656,8.0150625 11.9052656,8.0150625 L12.1667812,8.63615625 L12.036,9.616875 L11.6328281,9.49701563 L11.2514531,9.00665625 C11.2514531,9.00665625 11.1424687,8.95214063 11.088,8.9630625 C11.0335312,8.97398438 10.90275,9.19190625 10.90275,9.19190625 L11.0335312,9.49701563 L10.8592031,9.55148438 L10.69575,9.66046875 L10.6630781,9.8893125 L10.8156094,10.0309688 C10.8156094,10.0309688 10.8156094,10.2924844 10.8156094,10.3251563 C10.8156094,10.3578281 10.9027969,10.4777344 10.9354687,10.4886094 C10.9681406,10.4994844 11.2187812,10.5322031 11.2787344,10.5267656 C11.3386406,10.5213281 11.7854062,10.3360313 11.7854062,10.3360313 C11.7854062,10.3360313 12.6244219,10.3523906 12.6462187,10.3469531 C12.6680156,10.3415156 13.3926562,10.1835 13.3926562,10.1835 L13.8012656,10.2488906 C13.8012656,10.2488906 14.0737031,10.0418438 14.0627812,10.0146094 C14.0518594,9.987375 13.7795625,9.73134375 13.7414062,9.72590625 Z M12.1750312,3.825375 C11.9543906,3.84989063 11.8399687,3.91528125 11.8236094,3.79270313 C11.80725,3.670125 11.80725,3.42492187 11.8317656,3.41676562 C11.8562812,3.40860937 12.1096406,3.26146875 12.1177969,3.28598437 C12.1259531,3.3105 12.3793125,3.43307813 12.3793125,3.43307813 L12.5335781,3.74489062 C12.4522031,3.78815625 12.326625,3.80854687 12.1750312,3.825375 Z" id="Shape"></path>
                    <path d="M1.0359375,1.82315625 C1.0359375,1.82315625 1.12584375,1.3573125 1.15035937,1.3573125 C1.174875,1.3573125 1.5099375,1.23473438 1.5099375,1.23473438 L0.51290625,0.589125 C0.51290625,0.589125 0.684515625,1.381875 0.700875,1.44721875 C0.717234375,1.5125625 1.0359375,1.82315625 1.0359375,1.82315625 Z" id="Shape"></path>
                </g>
                <g id="Group" transform="translate(4.500000, 6.281250)" fill="#464655" fill-rule="nonzero">
                    <path d="M3.99384375,1.3113229 C3.9973125,1.3129942 4.0171875,1.32233383 4.04760938,1.33491775 L4.04010938,1.40344111 C4.02782813,1.51374702 4.06078125,1.6246428 4.11365625,1.64981063 C4.1210625,1.65354648 4.12846875,1.65511947 4.13573438,1.65511947 C4.1803125,1.65511947 4.22076563,1.59082352 4.231125,1.49546101 L4.241625,1.39970526 C4.31226563,1.41808958 4.39003125,1.43224649 4.46517188,1.43224649 C4.52864063,1.43224649 4.58990625,1.42261192 4.6426875,1.39685422 C4.69542188,1.37109651 4.728375,1.2607906 4.71609375,1.1504847 C4.7038125,1.03958892 4.65159375,0.96890269 4.59848438,0.996233387 C4.44332813,1.07281833 4.14084375,0.959857999 4.03767188,0.910505445 C3.98596875,0.884747738 3.9324375,0.953860976 3.92020313,1.06475675 C3.90815625,1.17575084 3.94110938,1.28615506 3.99384375,1.3113229 Z" id="Shape"></path>
                    <path d="M13.7030625,2.68204687 L13.9502344,3.43664062 C13.9635,3.477 14.0011875,3.50404687 14.0434687,3.50404687 C14.044875,3.50404687 14.0462812,3.50404687 14.0478281,3.50404687 C14.09175,3.50198437 14.1290625,3.47109375 14.139,3.42820312 C14.3197969,2.65335937 14.6817187,1.42771875 14.9374687,1.22751562 C14.9730937,1.19967187 14.9849531,1.15139062 14.9664375,1.11004687 C14.9480625,1.06917187 14.9042344,1.0456875 14.8592812,1.05384375 C14.8069219,1.06354687 13.566375,1.30514062 12.7032656,2.59973437 C12.6811875,2.63292187 12.6812812,2.67609375 12.7035,2.70904687 C12.7258594,2.742 12.7657031,2.75732812 12.80475,2.75015625 L13.5234844,2.6015625 C13.4227969,2.84423437 13.3586719,3.05765625 13.3364531,3.13607812 C13.0091719,2.93685937 12.6400781,2.90142187 12.3840937,2.96779687 C12.0919219,3.04439062 11.8463906,3.23057812 11.7102656,3.47882812 C11.6059219,3.66909375 11.5783594,3.87801562 11.6345625,4.05192187 C11.6998125,4.25395312 11.874,4.50525 12.1672969,4.6040625 C12.3615937,4.6700625 12.6756562,4.6846875 13.0896094,4.42846875 C13.0896094,4.4304375 13.0898906,4.43226562 13.0898906,4.43423437 C13.0870781,4.5976875 13.0031719,4.731 12.8402344,4.83084375 C12.5164219,5.02926562 11.9485312,5.04257812 11.5747969,4.85971875 C11.0819531,4.6190625 10.3408594,4.48214062 9.92685937,4.41998437 C10.1835937,4.3381875 10.4939062,4.31507812 10.8668437,4.40053125 C10.8719062,4.40179687 10.8767812,4.39982812 10.8818906,4.40020312 C10.884375,4.40039062 10.8862969,4.4030625 10.8887812,4.4030625 C10.8915,4.4030625 10.8935625,4.40015625 10.8963281,4.39992187 C10.9189219,4.39814062 10.9407187,4.39125 10.9572187,4.37521875 C10.9574531,4.37498437 10.9575,4.37460937 10.9577344,4.374375 C10.9578281,4.37428125 10.9580156,4.37432812 10.9580156,4.37432812 C10.9584844,4.37385937 10.9582969,4.37320312 10.9587187,4.37282812 C10.9745156,4.356375 10.9815469,4.33523437 10.9834687,4.3130625 C10.9839375,4.30776562 10.9845469,4.3036875 10.9841719,4.2984375 C10.9838906,4.29398437 10.9857187,4.28976562 10.9848281,4.28535937 C10.9836562,4.27973437 10.875,3.723 11.1742031,3.339375 C11.3540156,3.10875 11.6480625,2.98284375 12.0482812,2.96470312 C12.0545625,2.96442187 12.0598125,2.9608125 12.0658594,2.95935937 C12.0745312,2.95729687 12.0831094,2.95607812 12.0909844,2.95171875 C12.0981094,2.94778125 12.103125,2.9415 12.1090781,2.935875 C12.1140469,2.93123437 12.1201875,2.92842187 12.1242656,2.92260937 C12.1251094,2.92139062 12.1252031,2.9199375 12.126,2.91867187 C12.1267031,2.91759375 12.1279687,2.917125 12.128625,2.916 C12.1304062,2.91295312 12.1299844,2.90934375 12.1314375,2.90620312 C12.1358437,2.89640625 12.1389375,2.8865625 12.1399687,2.87625 C12.1404844,2.87128125 12.1404844,2.86673437 12.1402031,2.86176562 C12.1396406,2.85070312 12.1371094,2.84029687 12.1329375,2.83003125 C12.1319062,2.82745312 12.132375,2.82454687 12.1311094,2.8220625 C12.1231875,2.8065 11.3536875,1.26778125 12.6074062,0.240328125 C12.6481406,0.206859375 12.6551719,0.14709375 12.6233906,0.105234375 C12.5914687,0.063609375 12.5323594,0.05390625 12.4889062,0.08428125 C11.2510312,0.953390625 9.5401875,1.04709375 8.86214062,1.04709375 C7.65276562,1.04709375 6.88860937,1.5024375 6.52598437,2.43895312 C6.48829687,2.53626562 6.46167187,2.65167187 6.43926562,2.77523437 C6.45135937,2.60198437 6.41967187,2.45001562 6.34148437,2.32298437 C6.229875,2.14185937 6.05920312,2.06601562 5.98242187,2.03967187 C5.98246875,1.99523437 5.98214062,1.95121875 5.98078125,1.908 C6.11325,1.88760937 6.27046875,1.99040625 6.3223125,2.03409375 C6.34045312,2.04942187 6.36304687,2.05757812 6.38592187,2.05757812 C6.40096875,2.05757812 6.41620312,2.05401562 6.430125,2.04684375 C6.465375,2.02898437 6.4865625,1.99195312 6.48375,1.952625 C6.4516875,1.49657812 6.1423125,1.27495312 5.9300625,1.19995312 C6.1171875,1.05121875 6.31664062,0.8079375 6.43879687,0.41109375 C6.4505625,0.372796875 6.43790625,0.331171875 6.40673437,0.306140625 C6.3755625,0.280875 6.33215625,0.27703125 6.29742187,0.2964375 C6.29414062,0.298265625 6.09445312,0.406359375 5.79435937,0.495515625 L5.82178125,0.139125 C5.82445312,0.103125 5.80720312,0.068390625 5.77659375,0.048984375 C5.74607812,0.029296875 5.70698437,0.028546875 5.67571875,0.046453125 C5.67065625,0.04921875 5.16853125,0.331125 4.65646875,0.479859375 C4.2699375,0.382640625 3.766875,0.307078125 3.5761875,0.505640625 C3.53020312,0.55340625 3.48745312,0.63103125 3.49804687,0.7513125 C3.16898437,0.68259375 2.41354688,0.570234375 1.95496875,0.866765625 C1.91882812,0.890015625 1.90223437,0.934171875 1.91385937,0.9755625 C1.925625,1.01695312 1.96289062,1.0460625 2.00592187,1.04709375 C2.15151562,1.05065625 2.37651562,1.084125 2.47035937,1.1461875 C2.42896875,1.25779687 2.36053125,1.49428125 2.42029687,1.72232812 C2.22126562,1.77998437 2.0124375,1.7889375 1.75851562,1.6515 L1.97990625,1.59717187 C2.01960937,1.58746875 2.04909375,1.554 2.05396875,1.51340625 C2.05870312,1.4728125 2.03775,1.43348437 2.00146875,1.41482812 C1.99584375,1.41178125 1.4375625,1.12139062 0.973265625,0.633328125 C0.94696875,0.606 0.906984375,0.5960625 0.870328125,0.608296875 C0.834046875,0.6208125 0.80840625,0.65325 0.804703125,0.6913125 C0.800765625,0.730640625 0.71746875,1.65848437 1.42209375,2.2085625 C1.43971875,2.22210937 1.46104687,2.22923437 1.48251562,2.22923437 C1.49592187,2.22923437 1.50932812,2.22642187 1.52207812,2.22079687 C1.55503125,2.20621875 1.57748437,2.1748125 1.58029687,2.1388125 L1.607625,1.788375 C1.95914062,1.99884375 2.2501875,1.9786875 2.49984375,1.90284375 C2.53110937,1.95060937 2.57095312,1.99607812 2.62115625,2.03770312 C2.62921875,2.04440625 2.64028125,2.05167187 2.65148437,2.05898437 C2.49103125,2.43464062 2.172375,2.5314375 2.15878125,2.5351875 C2.11907812,2.54667187 2.09057812,2.5816875 2.08776562,2.62279687 C2.0848125,2.66390625 2.10782812,2.70248437 2.14546875,2.7193125 C2.16923437,2.72976562 2.68242187,2.95171875 3.25767187,2.746875 L3.248625,2.8125 C3.24478125,2.8400625 3.25298437,2.8681875 3.27121875,2.889375 C3.28935937,2.91084375 3.31579687,2.92335937 3.34373437,2.923875 C3.34617187,2.923875 3.3526875,2.92410937 3.36290625,2.92410937 C3.42895312,2.92410937 3.64804687,2.91909375 3.8964375,2.86204687 C3.85889062,3.21290625 3.64514062,3.63117187 3.41770312,4.07235937 C3.10982812,4.67010937 2.76670312,5.344125 2.7721875,6.02489062 C2.65471875,5.87282812 2.50846875,5.63573437 2.43609375,5.32096875 C2.4110625,5.21165625 2.39446875,5.11359375 2.379375,5.02396875 C2.34271875,4.807125 2.31107812,4.61967187 2.182875,4.44346875 C2.0379375,4.24425 1.833,3.79964062 1.84195312,3.55673437 C1.85039062,3.33225 1.70329687,3.20020312 1.55385937,3.16879687 C1.543125,3.16654687 1.53290625,3.16935937 1.52221875,3.16809375 C1.48682812,3.09679687 1.39096875,2.96025 1.17079687,2.94454687 C1.11778125,2.937375 1.06978125,2.98134375 1.0659375,3.03548437 C1.06209375,3.08939062 1.10273437,3.13635937 1.15673437,3.14020312 C1.23351562,3.14564062 1.2811875,3.1749375 1.31048437,3.20423437 C1.23857812,3.24121875 1.18026562,3.30295312 1.13971875,3.3819375 C1.00846875,3.30628125 0.875765625,3.28729687 0.77428125,3.31054687 C0.74803125,3.3165 0.728109375,3.33070312 0.705421875,3.3414375 C0.639,3.30675 0.462140625,3.24079687 0.24890625,3.37640625 C0.203203125,3.40528125 0.18965625,3.46603125 0.218765625,3.51178125 C0.237421875,3.54117187 0.269203125,3.55725 0.301640625,3.55725 C0.3195,3.55725 0.33778125,3.552375 0.354140625,3.54192187 C0.430265625,3.49359375 0.49528125,3.48726562 0.542953125,3.4933125 C0.507984375,3.55804687 0.48815625,3.6294375 0.49153125,3.69590625 C0.49828125,3.82795312 0.574640625,3.930375 0.692671875,3.97378125 C0.551953125,4.00059375 0.432703125,4.06598437 0.368953125,4.15434375 C0.3586875,4.16864062 0.35653125,4.185 0.349171875,4.20014062 C0.259546875,4.209375 0.1216875,4.26975 0.034546875,4.45392187 C0.011296875,4.50271875 0.03225,4.56117187 0.081140625,4.58442187 C0.09478125,4.59079687 0.108984375,4.59389062 0.123046875,4.59389062 C0.15984375,4.59389062 0.195046875,4.57321875 0.21178125,4.5376875 C0.250640625,4.45565625 0.296296875,4.42317187 0.330421875,4.4083125 C0.4235625,4.71553125 0.726421875,4.64554687 0.90909375,4.60279687 L0.982265625,4.58620312 C1.0846875,4.56576562 1.26525,4.86482812 1.31376562,5.0589375 C1.34746875,5.19379687 1.28976562,5.35875 1.1079375,5.64735937 C0.9975,5.82304687 1.02928125,5.95026562 1.0755,6.02610937 C1.07639063,6.02765625 1.0779375,6.02845312 1.078875,6.02995312 C1.04957813,6.03871875 1.01339062,6.04509375 0.964546875,6.038625 C0.9118125,6.02789062 0.861375,6.06876562 0.854109375,6.12239062 C0.84684375,6.17601562 0.884390625,6.2255625 0.938015625,6.23273437 C0.963046875,6.23629687 0.986671875,6.23784375 1.00903125,6.23784375 C1.12307813,6.23784375 1.1990625,6.19889062 1.24471875,6.16701562 C1.30846875,6.19429687 1.37414063,6.20460937 1.42260938,6.2008125 C1.55784375,6.1895625 1.64939063,6.0710625 1.7113125,5.92396875 C1.89173437,6.91870312 2.30639062,7.84246875 2.37839062,7.99823437 C2.3638125,8.3506875 1.98342188,8.43342187 1.96696875,8.43698437 C1.9246875,8.44565625 1.89304688,8.48090625 1.8890625,8.52407812 C1.885125,8.56696875 1.9095,8.60732812 1.94934375,8.6236875 C2.11485938,8.691375 2.25965625,8.71842187 2.38542188,8.71842187 C2.77335938,8.71842187 2.9784375,8.46253125 3.04303125,8.36395312 C3.32953125,8.26415625 3.66539062,8.03053125 3.7965,7.93495312 C4.015125,8.09873437 4.19685937,8.18957812 4.25760937,8.21798437 C4.15195312,9.25785937 3.54234375,9.96028125 3.3639375,10.1445 C3.24314062,10.0752656 2.976375,9.90445312 2.88829688,9.700875 C2.80495313,9.5085 2.65040625,9.4543125 2.52435937,9.46560937 C2.48203125,9.41090625 2.3870625,9.30895312 2.25379688,9.29432812 C2.1883125,9.2874375 2.0889375,9.2994375 1.98792188,9.40059375 C1.949625,9.43889062 1.949625,9.50095312 1.98792188,9.53925 C2.026125,9.57754687 2.08814063,9.57782812 2.12657813,9.53948437 C2.18198438,9.48407812 2.21967187,9.48740625 2.23190625,9.4891875 C2.26964063,9.49321875 2.30615625,9.52054687 2.33503125,9.54867187 C2.26354687,9.6095625 2.21929687,9.694875 2.22642187,9.78796875 C2.23148437,9.85335937 2.256,9.91485937 2.29054687,9.97209375 C2.21910937,10.0092656 2.13304687,10.07025 2.076375,10.1667187 C2.0743125,10.1701875 2.0720625,10.1756719 2.06990625,10.1794687 C1.9528125,10.1869219 1.74210937,10.2696094 1.70925,10.542375 C1.702875,10.5962812 1.74117188,10.6450312 1.7949375,10.6514062 C1.79901562,10.6519219 1.80285938,10.6521562 1.80679687,10.6521562 C1.8556875,10.6521562 1.89810937,10.6156406 1.90410937,10.5658125 C1.91582812,10.468125 1.96317187,10.4211094 2.00751562,10.397625 C2.00639062,10.4378906 2.00971875,10.47975 2.02415625,10.5234375 C2.058,10.626375 2.13801562,10.7098594 2.25745312,10.7747344 C2.24479687,10.815 2.23664062,10.8577969 2.23551562,10.9041562 C2.17246875,10.9359375 2.07946875,10.9952812 2.03184375,11.0962969 C1.99621875,11.171625 1.9940625,11.2559062 2.02532812,11.3401875 C2.04,11.37975 2.07740625,11.4040312 2.11725,11.4040312 C2.12859375,11.4040312 2.14021875,11.4019687 2.15146875,11.3978906 C2.20228125,11.379 2.22810937,11.3225625 2.20917187,11.27175 C2.1920625,11.2260469 2.200875,11.1976875 2.20903125,11.1802969 C2.22351562,11.1494062 2.25229687,11.1234844 2.28173437,11.1032812 C2.31810937,11.1685312 2.37304687,11.2183125 2.44654687,11.2425937 C2.48010937,11.2535625 2.51498437,11.2589531 2.55,11.2589531 C2.66671875,11.2589531 2.7849375,11.1999375 2.86082812,11.0972812 C2.951625,10.9741875 3.12923437,11.0446875 3.14071875,11.0495156 C3.5120625,11.184375 4.01376562,11.0827031 4.31742187,10.912125 C4.48584375,10.8173906 5.07923437,10.8684375 5.41392187,10.923375 C5.44007812,10.9269375 5.46792187,10.9205625 5.48953125,10.9044844 C5.511,10.8878906 5.52464062,10.863375 5.5273125,10.8362812 C5.56115625,10.4976562 5.12301562,10.40775 4.77098437,10.3354687 C4.67507812,10.3157812 4.58376562,10.2971719 4.49770312,10.260375 C4.46334375,10.0616719 4.979625,9.3384375 5.47148437,8.97679687 C5.59204687,8.88815625 5.68907812,8.85267187 5.73773437,8.87873437 C5.80720312,8.91679687 5.82928125,9.09403125 5.82225,9.20179687 C5.8220625,9.20465625 5.82370312,9.20709375 5.82375,9.20990625 C5.82389062,9.22064062 5.82585937,9.23085937 5.82960937,9.24126562 C5.83120312,9.245625 5.832375,9.24975 5.83457812,9.25382812 C5.8359375,9.25645312 5.83607812,9.2593125 5.83771875,9.26179687 C5.84334375,9.27042187 5.8509375,9.27675 5.85848437,9.2829375 C5.85998437,9.28420312 5.8605,9.28617187 5.86209375,9.28734375 C5.86242187,9.28757812 5.8629375,9.28757812 5.8629375,9.28757812 C5.87564062,9.296625 5.88965625,9.30196875 5.904375,9.30440625 C5.90817187,9.30501562 5.9116875,9.30445312 5.91553125,9.30459375 C5.9265,9.30515625 5.93709375,9.30403125 5.947875,9.30075 C5.95040625,9.30004687 5.953125,9.30079687 5.95560937,9.29985937 C5.96357812,9.29676562 5.97220312,9.29235937 5.98035937,9.28907812 C6.03267187,9.2623125 6.1213125,9.29221875 6.18332812,9.32395312 C6.17175,9.35967187 6.1648125,9.39707812 6.16809375,9.43753125 C6.17217187,9.48810937 6.187875,9.53840625 6.21239062,9.5866875 C6.11521875,9.57571875 6.02428125,9.5866875 5.95851562,9.63726562 C5.93503125,9.65526562 5.91651562,9.67795312 5.8978125,9.70035937 C5.75976562,9.71404687 5.587125,9.801 5.5460625,10.0065937 C5.53546875,10.0597031 5.56982812,10.1113125 5.6229375,10.1220469 C5.62945312,10.1233125 5.63596875,10.1238281 5.64234375,10.1238281 C5.68804687,10.1238281 5.7290625,10.0916719 5.73839062,10.0448906 C5.74823437,9.9958125 5.77335937,9.96609375 5.80101562,9.94373437 C5.80017187,9.9795 5.80401562,10.0149844 5.81460937,10.0484531 C5.83382812,10.1091094 5.885625,10.199625 6.0174375,10.2501562 C6.00557812,10.2703125 5.99535937,10.2918281 5.9863125,10.3137656 C5.88815625,10.3453594 5.7403125,10.447125 5.7403125,10.6631719 C5.7403125,10.7173125 5.78423437,10.7612344 5.838375,10.7612344 C5.89251562,10.7612344 5.9364375,10.7173125 5.9364375,10.6631719 C5.9364375,10.6249687 5.94590625,10.5973594 5.958375,10.5744375 C5.9615625,10.5885937 5.96376562,10.6031719 5.968875,10.6164375 C5.99264062,10.6785 6.06398437,10.7949375 6.264,10.7949375 C6.32990625,10.7949375 6.40959375,10.7824219 6.50610937,10.7510156 C6.74015625,10.6751719 6.90604687,10.66725 7.06645312,10.6593281 C7.25826562,10.6501406 7.4394375,10.6411875 7.69396875,10.5232031 C8.06071875,10.3528594 8.5149375,10.4105625 8.75292187,10.4603906 C8.881875,10.4869687 9.0080625,10.4235937 9.06004687,10.305375 C9.07790625,10.2651094 9.08957812,10.2297656 9.10190625,10.1939062 C9.21285937,10.2072187 9.23582812,10.3150781 9.23882812,10.3387969 C9.2443125,10.3888594 9.28673437,10.426125 9.33614062,10.426125 C9.33946875,10.426125 9.34289062,10.4258906 9.34635937,10.4256094 C9.40026562,10.4199844 9.43945312,10.3717031 9.43382812,10.3178437 C9.42323437,10.215375 9.34729687,10.0315312 9.14409375,9.99960937 C9.14667187,9.93004687 9.133125,9.8728125 9.09904687,9.83057812 C9.06178125,9.78459375 8.98757812,9.73635937 8.84226562,9.76621875 C8.69184375,9.79739062 8.62260937,9.80348437 8.59148437,9.80071875 C8.59621875,9.78154687 8.60732812,9.74760937 8.63325,9.689625 C8.72085937,9.49246875 9.30248437,8.97248437 9.68339062,8.6611875 C9.77521875,8.64051562 9.89165625,8.63920312 9.91860937,8.66985937 C9.92807812,8.6803125 9.92807812,8.71635937 9.90660937,8.7733125 C9.89128125,8.81367187 9.90417187,8.85914062 9.93815625,8.8854375 C9.972,8.91173437 10.01925,8.913 10.0545,8.88848437 C10.0696875,8.87775 10.4254687,8.6251875 10.4182969,8.31745312 C10.4145937,8.16192187 10.3239375,8.02682812 10.1487188,7.91596875 C10.0002187,7.82221875 9.91490625,7.71370312 9.89498437,7.59365625 C9.87417187,7.468125 9.92770312,7.35670312 9.96346875,7.29740625 C10.1039531,7.36471875 10.2449531,7.4518125 10.3853438,7.567875 C11.2135312,8.252625 11.91825,8.36170312 12.2989688,8.35992187 C12.3787969,8.5363125 12.6133125,9.13828125 12.4131562,9.7565625 C12.3066562,9.73767187 12.0975,9.66975 11.9539687,9.43045312 C11.8144219,9.19804687 11.6469844,9.13982812 11.5309219,9.13214062 C11.3505,9.11807812 11.1590625,9.22078125 11.0086406,9.40875 C10.9764844,9.44910937 10.9809375,9.50732812 11.0187188,9.5420625 C11.0566406,9.57703125 11.1152344,9.57679687 11.1524062,9.54154687 C11.1774375,9.51778125 11.2240312,9.48895312 11.2440938,9.50451562 L11.2643906,9.56123437 C11.2752656,9.59264062 11.286375,9.62432812 11.2996406,9.65498437 C11.2216406,9.66646875 11.1465469,9.69839062 11.0879062,9.7648125 C11.0492812,9.80854687 11.0249531,9.859125 11.007375,9.91115625 C10.82775,9.94326562 10.729875,10.0795312 10.72575,10.0858594 C10.6958906,10.1305312 10.7079844,10.1905781 10.7524219,10.2207187 C10.7691563,10.2322031 10.7882813,10.2378281 10.8072188,10.2378281 C10.8384844,10.2378281 10.8692813,10.2230156 10.8884531,10.1954531 C10.8903281,10.1929219 10.9265625,10.14375 10.9913906,10.1162812 C10.9995469,10.1532187 11.0127188,10.1889844 11.032875,10.2215156 C11.0667187,10.2760781 11.1147656,10.3125937 11.1692813,10.3320469 C11.1619219,10.3604062 11.1555938,10.3912969 11.1515625,10.424625 C11.1494531,10.4253281 11.1472969,10.425 11.1452344,10.4258437 C10.9103906,10.5247031 10.9582969,10.8165937 11.016375,10.9570312 C11.0320781,10.9948125 11.0684531,11.0175469 11.1068906,11.0175469 C11.1194063,11.0175469 11.1320625,11.0150156 11.1441563,11.0101406 C11.1942188,10.9894687 11.2180781,10.9322344 11.1976406,10.8821719 C11.1969375,10.8803437 11.1418125,10.7361562 11.17725,10.6540312 C11.1781875,10.6562344 11.1784219,10.6585781 11.1794063,10.6607344 C11.22,10.7524219 11.2982813,10.8178125 11.4056719,10.8499687 C11.4585469,10.8658125 11.509125,10.8724219 11.5575,10.8724219 C11.718,10.8724219 11.8542656,10.798125 11.9689219,10.7352656 C12.0581719,10.6864687 12.1425937,10.6417969 12.2091094,10.6463906 C12.2574844,10.6509844 12.3129375,10.6596562 12.3736875,10.669125 C12.6030469,10.7048906 12.9173906,10.7534062 13.2293906,10.6530469 C13.2874687,10.6343906 13.3401094,10.61625 13.38825,10.5996562 C13.6417031,10.5128437 13.7364844,10.4804062 13.8913594,10.5684844 C14.0789531,10.6757344 14.3207812,10.6037344 14.4454219,10.4722031 C14.4844688,10.4309531 14.5069687,10.3850625 14.5190625,10.3384687 C14.5830469,10.3639219 14.6348438,10.3914844 14.6432344,10.4068125 C14.6249531,10.4579062 14.6515313,10.5138281 14.702625,10.5322031 C14.7135,10.5360469 14.7246094,10.5378281 14.7355781,10.5378281 C14.7757969,10.5378281 14.8135781,10.5127969 14.8279219,10.4727187 C14.8462969,10.4213906 14.8418438,10.3685156 14.8152656,10.32 C14.7504375,10.2019687 14.5606406,10.1385937 14.4656719,10.1134219 C14.3087344,9.90014062 14.0694844,9.83371875 13.6741875,9.89629687 C13.6584844,9.89859375 13.6462031,9.89578125 13.6327031,9.88453125 C13.4884219,9.7678125 13.4565938,9.16153125 13.4377031,8.79965625 C13.4225156,8.5100625 13.4121563,8.34201562 13.3677188,8.26129687 C13.3904531,8.24264062 13.5145781,8.24034375 13.5919688,8.29678125 C13.6292344,8.32434375 13.6329375,8.34914062 13.6240313,8.37721875 C13.6224844,8.38129687 13.6210781,8.38514062 13.6196719,8.38898437 C13.6005,8.43904687 13.6252969,8.49548437 13.6752188,8.515125 C13.7251406,8.53429687 13.7817187,8.51076562 13.8020156,8.46098437 C13.8049688,8.45409375 13.8075,8.44692187 13.8097969,8.44003125 C13.8447656,8.34070312 13.9880625,7.89070312 13.8192656,7.60565625 C13.7434219,7.4776875 13.6199531,7.40132812 13.452,7.37859375 C13.0242188,7.3209375 12.69825,7.04760937 12.4790156,6.5713125 C12.811125,6.45459375 13.7888906,6.0114375 13.9717031,4.7881875 C14.0931562,3.97504687 13.8017344,3.51965625 13.5357656,3.280875 C13.5230625,3.2694375 13.5092813,3.26076562 13.4963438,3.24998437 C13.5040313,3.24004687 13.5138281,3.23179687 13.51725,3.2188125 C13.5181875,3.21459375 13.5854062,2.96723437 13.7030625,2.68204687 Z M13.010625,2.50725 C13.5695625,1.77989062 14.2550156,1.45607812 14.6257031,1.32529687 C14.3825625,1.76329687 14.1509531,2.58257812 14.0301562,3.0504375 L13.8261094,2.42728125 C13.8253125,2.42484375 13.8228281,2.4238125 13.8218437,2.42151562 C13.8816562,2.30348437 13.9489219,2.18920312 14.023125,2.09273437 C14.0560781,2.04984375 14.0480156,1.98829687 14.005125,1.95534375 C13.9620937,1.92215625 13.9006875,1.9303125 13.8675937,1.97320312 C13.7750156,2.09357812 13.6934531,2.2363125 13.6230469,2.3805 L13.010625,2.50725 Z M1.40010937,1.9239375 C1.098,1.60392187 1.01934375,1.18865625 1.00129687,0.936328125 C1.25976562,1.17590625 1.52048438,1.35515625 1.69635937,1.46446875 L1.540125,1.50285937 C1.51026562,1.47890625 1.48092187,1.45678125 1.44979687,1.42875 C1.4098125,1.39275 1.34789062,1.3963125 1.311375,1.43615625 C1.27509375,1.47651562 1.27842187,1.53857812 1.31878125,1.5748125 C1.35379687,1.60626562 1.38703125,1.6305 1.42096875,1.65745312 L1.40010937,1.9239375 Z M8.79754687,5.15896875 C8.61426562,4.669875 8.06109375,3.4989375 6.70589062,2.51925 C6.70696875,2.51639062 6.707625,2.51264062 6.70875,2.50982812 C6.72609375,2.46492187 6.74882812,2.42625 6.76828125,2.38378125 C8.82004687,2.90807812 10.0689375,3.76110937 10.5677812,4.15823437 C9.54857812,4.08309375 9.00942187,4.78514062 8.79754687,5.15896875 Z M11.0187187,3.21979687 C10.8021094,3.4981875 10.7642812,3.837375 10.7685469,4.06635937 C10.3186406,3.68967187 9.054,2.77298437 6.85453125,2.20415625 C6.8829375,2.15479687 6.9170625,2.11190625 6.94889062,2.06639062 C6.95601562,2.06803125 6.9628125,2.07060937 6.97026562,2.07103125 C9.67635937,1.95478125 11.1861562,2.53584375 11.7390937,2.8096875 C11.428875,2.87254687 11.184375,3.00675 11.0187187,3.21979687 Z M8.86209375,1.24307812 C9.46021875,1.24307812 10.8411094,1.1713125 12.0321094,0.581109375 C11.5208906,1.351125 11.7046406,2.21545312 11.8491094,2.64248437 C11.300625,2.3615625 9.81529687,1.7780625 7.10601562,1.87148437 C7.49685937,1.45289062 8.07473437,1.24307812 8.86209375,1.24307812 Z M6.5619375,3.33267187 C6.58635937,3.111 6.61073437,2.90015625 6.64921875,2.72254687 C7.95159375,3.68798437 8.47607812,4.85498437 8.63132812,5.278125 C8.3115,5.20640625 8.02171875,5.22965625 7.77201562,5.35842187 C7.5676875,5.46398437 7.42504687,5.619 7.3273125,5.76098437 C7.28376562,5.26753125 7.12082812,4.38689062 6.52570312,3.6935625 C6.52378125,3.6913125 6.52110937,3.690375 6.51904687,3.68835937 C6.53489062,3.56901562 6.54904687,3.44953125 6.5619375,3.33267187 Z M6.43804687,6.326625 C5.98228125,6.22035937 5.79089062,5.76117187 5.78207812,5.73946875 C5.77007812,5.70984375 5.74439062,5.687625 5.71326562,5.68045312 C5.70585938,5.67890625 5.69845312,5.67792187 5.69104687,5.67792187 C5.6671875,5.67792187 5.64379687,5.686875 5.6255625,5.7031875 C5.29814062,5.99765625 4.89759375,6.07528125 4.697625,6.09571875 C4.8556875,5.59921875 5.30020313,5.3413125 5.89823438,4.99420312 L5.92579688,4.978125 C6.07485937,4.89159375 6.1824375,4.76025 6.26648438,4.60575 C6.26639063,4.8525 6.27965625,5.12751562 6.3249375,5.35889062 C6.334125,5.405625 6.37514063,5.4380625 6.42107813,5.4380625 C6.4273125,5.4380625 6.43373438,5.43754687 6.44010938,5.43628125 C6.49321875,5.42582812 6.5278125,5.37421875 6.5175,5.32110937 C6.41939063,4.820625 6.4815,4.06785937 6.49054688,3.966375 C7.06092188,4.73629687 7.1364375,5.70792187 7.14496875,6.02479687 C6.810375,5.96690625 6.62395313,5.70689062 6.62198438,5.70417187 C6.60370313,5.67759375 6.57370313,5.66179687 6.54164063,5.66179687 L6.54126563,5.66179687 C6.50934375,5.66179687 6.47948438,5.677125 6.4610625,5.7031875 C6.31598438,5.90854687 6.3725625,6.161625 6.43804687,6.326625 Z M6.09075,3.6435 C6.01476562,3.55003125 5.91253125,3.4471875 5.81132812,3.40195312 C5.83420312,3.31059375 5.85567187,3.21332812 5.87517187,3.1111875 C5.98007812,3.19739062 6.13889062,3.37495312 6.09075,3.6435 Z M5.64895312,3.99398437 C5.67834375,3.99825 5.85707812,4.03279687 5.93123437,4.26225 C5.84807812,4.24795312 5.75015625,4.2555 5.6514375,4.30865625 C5.63573437,4.21678125 5.63259375,4.111875 5.64895312,3.99398437 Z M5.99915625,4.497 C6.02751562,4.51884375 6.06515625,4.52151562 6.09745312,4.50754687 C6.04054687,4.61315625 5.9690625,4.70048437 5.88107812,4.76610937 C5.83298437,4.71759375 5.76229687,4.63082812 5.709,4.5050625 C5.8543125,4.39917187 5.984625,4.4865 5.99915625,4.497 Z M6.33717188,3.05123437 C6.37139062,3.04242187 6.397875,3.01528125 6.40682813,2.98101562 C6.39253125,3.08775 6.37945313,3.1974375 6.3669375,3.31125 C6.325875,3.68414062 6.2810625,4.08796875 6.15398438,4.39448437 C6.1179375,3.98235937 5.84896875,3.83071875 5.69142187,3.80325 C5.6998125,3.77479687 5.70740625,3.74676562 5.71809375,3.71704687 C5.73201562,3.67828125 5.74575,3.63665625 5.75920312,3.5926875 C5.84882812,3.64921875 5.972625,3.80226562 6.04204687,3.9088125 C6.06032812,3.93689062 6.09121875,3.95348437 6.12426562,3.95348437 C6.1265625,3.95348437 6.12885938,3.95348437 6.13115625,3.95325 C6.16678125,3.95071875 6.1981875,3.92896875 6.21314062,3.8968125 C6.44784375,3.39196875 6.13185937,3.03201562 5.91196875,2.896125 C5.9175,2.86017187 5.92303125,2.8243125 5.92804687,2.78779687 C6.05554687,2.84770312 6.19157812,2.97103125 6.24060937,3.02339062 C6.25935937,3.04354687 6.28542187,3.0545625 6.31223437,3.0545625 C6.32057812,3.0545625 6.328875,3.05353125 6.33717188,3.05123437 Z M6.174375,2.42578125 C6.23029687,2.51671875 6.25378125,2.6285625 6.244875,2.7598125 C6.16523437,2.69371875 6.06009375,2.62228125 5.952375,2.58421875 C5.96395312,2.47275 5.972625,2.36085937 5.97764062,2.25042187 C6.03726562,2.28014062 6.11746875,2.33348437 6.174375,2.42578125 Z M6.24525,1.75945312 C6.16471875,1.72425 6.067875,1.7004375 5.9685,1.7113125 C5.95846875,1.6021875 5.94257812,1.50070312 5.92035938,1.40882812 C6.02339062,1.45729687 6.17151562,1.55859375 6.24525,1.75945312 Z M5.61239062,0.301734375 L5.5935,0.5473125 C5.44134375,0.581203125 5.27395312,0.606609375 5.096625,0.61078125 C5.07004688,0.60159375 5.03301562,0.589171875 4.98989063,0.575296875 C5.24240625,0.481875 5.46914062,0.374578125 5.61239062,0.301734375 Z M2.74654687,1.88690625 C2.72639062,1.87003125 2.708625,1.85217187 2.69315625,1.83351562 C2.71242187,1.825875 2.73159375,1.8181875 2.75034375,1.81078125 C2.88646875,1.756125 3.01490625,1.70451562 3.13851562,1.697625 C3.41625,1.68051562 3.49734375,1.79034375 3.51548437,1.82404687 C3.534,1.85854687 3.53104687,1.88892187 3.52007812,1.90396875 C3.47385937,1.96678125 3.39979687,2.00460937 3.2998125,2.01684375 C3.07139062,2.04295312 2.79951562,1.93110937 2.74654687,1.88690625 Z M3.4355625,2.50903125 C3.4059375,2.4875625 3.36684375,2.48428125 3.33454688,2.50110937 C2.99807813,2.66915625 2.66325,2.64796875 2.450625,2.60554687 C2.5783125,2.5185 2.7279375,2.372625 2.8280625,2.14228125 C2.94271875,2.18385937 3.08517188,2.217375 3.226125,2.217375 C3.25879687,2.217375 3.291375,2.2153125 3.3234375,2.21151562 C3.47690625,2.19285937 3.59953125,2.12671875 3.67804687,2.0205 C3.73715625,1.9400625 3.741,1.82896875 3.68798437,1.73090625 C3.646875,1.65478125 3.51009375,1.47932812 3.12778125,1.5020625 C2.971875,1.5105 2.82220312,1.5705 2.67740625,1.62871875 C2.65415625,1.63790625 2.63090625,1.647375 2.60779687,1.65628125 C2.55520312,1.42410937 2.67267187,1.16821875 2.6743125,1.16489062 C2.68889062,1.13371875 2.68617187,1.09720312 2.66714062,1.06860937 C2.612625,0.986625 2.5040625,0.93553125 2.38992187,0.903609375 C2.91857812,0.79303125 3.59728125,0.975609375 3.60557812,0.97790625 C3.64185937,0.987375 3.679875,0.976875 3.70467187,0.948796875 C3.72942187,0.921234375 3.73645312,0.88190625 3.7228125,0.847171875 C3.68334375,0.74784375 3.6815625,0.678609375 3.71746875,0.64134375 C3.86995312,0.482484375 4.58770312,0.6395625 5.04829687,0.80146875 C5.05926562,0.8053125 5.07154687,0.80428125 5.082375,0.80709375 C5.53621875,0.799921875 5.93282812,0.67021875 6.16767187,0.573140625 C5.90259375,1.1488125 5.45170312,1.22976562 5.43046875,1.23332812 C5.37721875,1.24176562 5.34084375,1.29154687 5.349,1.3449375 C5.35715625,1.3985625 5.40735937,1.43610937 5.46084375,1.42715625 C5.47120312,1.42551562 5.5670625,1.40882812 5.6975625,1.3460625 C5.89176562,1.88329687 5.73965625,3.07771875 5.53335937,3.65057812 C5.30254687,4.291875 5.55857812,4.699125 5.71532812,4.873875 C5.09592187,5.23425 4.61165625,5.5404375 4.47614062,6.1695 C4.47595312,6.1700625 4.47548437,6.1704375 4.47529687,6.171 C4.4720625,6.18126562 4.438875,6.29146875 4.400625,6.4880625 C4.16057812,6.32854687 3.71325,5.67379687 3.95404687,4.9063125 C4.01967187,4.696875 4.09682812,4.49207812 4.17140625,4.29389062 C4.39307812,3.70551562 4.6018125,3.14929687 4.446375,2.628375 C4.50703125,2.584875 4.56384375,2.536125 4.61296875,2.47884375 C4.78396875,2.279625 4.84373438,2.025 4.79057812,1.72185937 C4.78139063,1.66823437 4.73067187,1.63195312 4.67704688,1.64217187 C4.62379688,1.65135937 4.58803125,1.70217187 4.5975,1.7555625 C4.64053125,2.00151562 4.59698437,2.19609375 4.46432812,2.350875 C4.20792187,2.65017187 3.68653125,2.712 3.458625,2.72451562 L3.4755,2.6019375 C3.48051563,2.56598437 3.46504687,2.53021875 3.4355625,2.50903125 Z M4.315875,6.98067187 C4.14698437,7.18715625 3.8041875,7.46175 3.6710625,7.56553125 C3.54815625,7.44834375 3.4250625,7.30926562 3.31659375,7.14623437 C3.81839062,7.06110937 4.1195625,6.749625 4.2324375,6.60529687 C4.27007812,6.63726562 4.30584375,6.663 4.3374375,6.67982812 C4.34657812,6.68475 4.35642188,6.68526562 4.366125,6.687 C4.35290625,6.771 4.3404375,6.86620312 4.32857813,6.9703125 C4.32445312,6.973875 4.31953125,6.97626562 4.315875,6.98067187 Z M3.12239062,5.19323437 C3.201375,5.21545312 3.40617188,5.26776562 3.59517188,5.26776562 C3.62976563,5.26776562 3.66079688,5.26139062 3.69323438,5.25740625 C3.68629688,5.37815625 3.69220313,5.49435937 3.70907813,5.6049375 C3.55270313,5.70675 3.18829688,5.71528125 2.99151563,5.70689062 C3.01790625,5.53514062 3.06304688,5.36353125 3.12239062,5.19323437 Z M3.36782813,4.60795312 C3.44010938,4.62520312 3.5818125,4.65403125 3.72492188,4.65403125 C3.76204688,4.65403125 3.79898438,4.65178125 3.8349375,4.6471875 C3.811875,4.71370312 3.78825,4.77965625 3.76692188,4.847625 C3.74442188,4.9194375 3.72885938,4.98984375 3.71634375,5.05954687 C3.71559375,5.0596875 3.71489063,5.05945312 3.7141875,5.05959375 C3.56864063,5.09554687 3.31884375,5.04360937 3.19129688,5.00882812 C3.24548438,4.87354687 3.30454688,4.73948437 3.36782813,4.60795312 Z M3.59198437,4.16217187 C3.61734375,4.11295312 3.64232812,4.06425 3.66721875,4.01559375 C3.75253125,4.03617187 3.92085937,4.07470312 4.03870312,4.08932812 C4.021875,4.13432812 4.00532812,4.179 3.98798437,4.22498437 C3.96192187,4.29417187 3.93571875,4.36528125 3.90960937,4.43610937 C3.89742187,4.43507812 3.88490625,4.4360625 3.87257812,4.44 C3.75632812,4.47585937 3.57478125,4.45134375 3.45717187,4.42692187 C3.50217187,4.33739062 3.54740625,4.24875 3.59198437,4.16217187 Z M3.90314062,3.52223437 C3.97373437,3.54895312 4.08675,3.58448437 4.20084375,3.58448437 C4.20440625,3.58448437 4.2076875,3.5829375 4.21125,3.58289062 C4.18171875,3.68545312 4.14623437,3.79115625 4.10784375,3.89901562 C4.05323438,3.89835937 3.8930625,3.86657812 3.75782812,3.83521875 C3.81032812,3.72909375 3.85898437,3.62479687 3.90314062,3.52223437 Z M4.03860938,3.14746875 C4.0940625,3.15135937 4.14539063,3.1539375 4.18884375,3.1539375 C4.23159375,3.1539375 4.26567188,3.151125 4.29670313,3.14732812 C4.28985938,3.22354687 4.27898438,3.30079687 4.26215625,3.37978125 C4.18771875,3.4018125 4.06607813,3.37326562 3.97598438,3.3399375 C3.99998437,3.27478125 4.0209375,3.21060937 4.03860938,3.14746875 Z M3.11746875,5.90573437 C3.30529688,5.90573437 3.56803125,5.88435937 3.74953125,5.79998437 C3.7749375,5.89279687 3.80709375,5.98026562 3.84370312,6.06164062 C3.50676563,6.29573437 3.13035938,6.34959375 2.9971875,6.36065625 C2.9825625,6.2795625 2.97192188,6.19565625 2.96695312,6.10823437 C2.96301562,6.03979687 2.96564062,5.97103125 2.96967187,5.90221875 C3.0076875,5.904 3.05784375,5.90573437 3.11746875,5.90573437 Z M3.93482813,6.23653125 C3.98545313,6.32254687 4.03935938,6.39951562 4.09354688,6.46396875 C4.01015625,6.5745 3.71615625,6.91242187 3.209625,6.9673125 C3.14207812,6.84145312 3.085125,6.70354687 3.04265625,6.553875 C3.2135625,6.5371875 3.58654688,6.47104687 3.93482813,6.23653125 Z M4.26932812,2.73342187 C4.28685937,2.80439062 4.2969375,2.87657812 4.30059375,2.94984375 L4.30059375,2.94984375 C4.27570312,2.9578125 4.18265625,2.95860937 4.08220312,2.9533125 C4.09026562,2.90301562 4.09490625,2.8535625 4.09696875,2.80476562 C4.15509375,2.78475 4.2129375,2.76079687 4.26932812,2.73342187 Z M2.94867188,8.18840625 C2.92326562,8.1965625 2.90207813,8.21446875 2.89017188,8.2381875 C2.88210938,8.25426562 2.71598438,8.57709375 2.27775,8.514 C2.43276563,8.41185937 2.57475,8.23996875 2.57475,7.9771875 C2.57475,7.96260937 2.5715625,7.9483125 2.56528125,7.93528125 C2.55890625,7.92173437 1.9209375,6.56104687 1.83346875,5.34384375 C1.82976563,5.29275 1.78739063,5.2531875 1.73615625,5.25290625 L1.73564063,5.25290625 C1.6846875,5.25290625 1.64217188,5.292 1.63795313,5.3428125 C1.61254688,5.64904687 1.51115625,5.99634375 1.4060625,6.00501562 C1.36739063,6.00909375 1.27682813,5.97998437 1.24289063,5.9240625 C1.217625,5.8824375 1.22807813,5.82445312 1.27378125,5.7519375 C1.4521875,5.4684375 1.55957813,5.23425 1.50389063,5.0113125 C1.45729688,4.82460937 1.23932813,4.33378125 0.941671875,4.39401562 L0.864046875,4.41164062 C0.6110625,4.47164062 0.545953125,4.45889062 0.514546875,4.34446875 C0.506765625,4.315875 0.510984375,4.292625 0.52809375,4.26885937 C0.570984375,4.20909375 0.6808125,4.16442187 0.80146875,4.15753125 C1.027875,4.14525 1.11815625,4.2418125 1.12059375,4.244625 C1.15045313,4.28090625 1.20140625,4.29060937 1.2425625,4.26890625 C1.28367188,4.24692187 1.30373438,4.19892187 1.29032813,4.15425 C1.28648438,4.14173437 1.1938125,3.84703125 0.79959375,3.79898437 C0.71109375,3.78825 0.689765625,3.73129687 0.687328125,3.68582812 C0.683484375,3.6105 0.731109375,3.52110937 0.81759375,3.50142187 C0.972609375,3.46692187 1.26182813,3.59845312 1.38721875,4.09978125 C1.40039063,4.15265625 1.45476563,4.18303125 1.50609375,4.1713125 C1.5586875,4.15804687 1.59060938,4.10489062 1.57748438,4.05229687 C1.5133125,3.79570312 1.40929688,3.61978125 1.29309375,3.50123437 C1.29510938,3.49757812 1.29820313,3.49490625 1.29975,3.49096875 C1.34671875,3.3714375 1.44351563,3.3466875 1.5135,3.36070312 C1.58029688,3.37476562 1.65028125,3.43171875 1.64592188,3.54942187 C1.63378125,3.87426562 1.8905625,4.37507812 2.02415625,4.55873437 C2.1253125,4.69767187 2.15071875,4.84809375 2.18582813,5.0565 C2.20153125,5.14945312 2.21878125,5.251125 2.24484375,5.36475 C2.374875,5.93067187 2.71664063,6.27351562 2.79707813,6.34809375 C2.90320313,7.0288125 3.28664063,7.504125 3.63820313,7.80660937 C3.48670313,7.91409375 3.18567188,8.11453125 2.94867188,8.18840625 Z M3.82003125,7.6981875 C3.93328125,7.60907812 4.13273437,7.44609375 4.29989062,7.28310937 C4.28582812,7.474125 4.27551562,7.6839375 4.274625,7.92229687 C4.27453125,7.95014062 4.2721875,7.97667187 4.27134375,8.00409375 C4.17445312,7.95201562 4.00645312,7.85217187 3.82003125,7.6981875 Z M9.8776875,7.0445625 L10.0485,6.53873437 C10.2155156,6.59803125 10.3729219,6.66590625 10.5208594,6.74015625 L10.1946094,7.1955 C10.0909687,7.13479687 9.98526562,7.08454687 9.8776875,7.0445625 Z M9.69014062,6.98653125 C9.5985,6.963 9.505875,6.94570312 9.4119375,6.93660937 L9.47540625,6.38325 C9.49823437,6.38751562 9.52157812,6.38995312 9.54421875,6.39482812 C9.6538125,6.41845312 9.75895312,6.44714062 9.86179687,6.47817187 L9.69014062,6.98653125 Z M9.21548437,6.9283125 C9.11873437,6.92920312 9.02090625,6.93796875 8.92223437,6.95367187 L8.86832812,6.33398437 C9.0069375,6.33210937 9.14521875,6.33792187 9.2814375,6.35325 L9.21548437,6.9283125 Z M8.67220312,6.34204687 L8.72878125,6.99304687 C8.62757812,7.01878125 8.52539062,7.05332812 8.42259375,7.09429687 L8.24953125,6.38817187 C8.38828125,6.36684375 8.52951562,6.351 8.67220312,6.34204687 Z M8.370375,8.22604687 C8.29171875,8.19834375 8.21798437,8.16079687 8.14823437,8.119125 L8.49885937,7.4536875 C8.5070625,7.4630625 8.51601562,7.47103125 8.5228125,7.48246875 C8.5576875,7.54120312 8.56289062,7.61859375 8.538375,7.71257812 C8.50575,7.83759375 8.44729687,8.02157812 8.370375,8.22604687 Z M7.93579687,7.57392187 C8.05715625,7.49301562 8.19060937,7.41539062 8.3330625,7.34789062 L7.98492187,8.00864062 C7.85095312,7.90495312 7.747125,7.79671875 7.68839062,7.72917187 C7.77014062,7.68046875 7.85273437,7.62928125 7.93579687,7.57392187 Z M8.05570313,6.42117187 L8.24034375,7.1745 C8.14570313,7.22010937 8.05059375,7.27204687 7.95492188,7.33035937 L7.67090625,6.5064375 C7.793625,6.47503125 7.92295313,6.4464375 8.05570313,6.42117187 Z M7.48120312,6.55776562 L7.7805,7.42607812 C7.78185937,7.42996875 7.78570312,7.43170312 7.7874375,7.4353125 C7.66785937,7.51354687 7.54959375,7.58353125 7.43334375,7.6479375 L7.143375,6.6635625 C7.2466875,6.62859375 7.35932812,6.59264062 7.48120312,6.55776562 Z M6.95798437,6.72871875 L7.25610937,7.74070312 C7.25629687,7.74140625 7.25709375,7.74173437 7.25732812,7.7424375 C7.12710938,7.80909375 7.00228125,7.86801562 6.8874375,7.91775 L6.56315625,6.90557812 C6.56728125,6.89854687 6.571875,6.88940625 6.57585937,6.88284375 C6.62957812,6.85865625 6.765375,6.79959375 6.95798437,6.72871875 Z M6.43823437,7.15823437 L6.70570312,7.99303125 C6.50151562,8.07403125 6.34209375,8.12564062 6.26273437,8.1493125 C6.21173437,7.82484375 6.318375,7.44079687 6.43823437,7.15823437 Z M6.38048437,8.95228125 C6.44690625,8.79267187 6.42721875,8.59603125 6.32048437,8.35185937 C6.3185625,8.3475 6.31664062,8.3431875 6.31485937,8.33859375 C6.4794375,8.2905 6.96079687,8.133375 7.514625,7.82765625 C7.61357812,7.94746875 7.9063125,8.26757812 8.29875,8.40810937 C8.07595312,8.953125 7.74323438,9.56404687 7.40803125,9.61832812 C7.12710937,9.66276562 6.975,9.49523437 6.8281875,9.33201562 C6.700125,9.19003125 6.55467188,9.02910937 6.34832813,9.13790625 C6.33225,9.14639062 6.32015625,9.15726562 6.30609375,9.16696875 C6.29010938,9.15764062 6.26807812,9.14620312 6.24201562,9.13420312 C6.29840625,9.08498437 6.349125,9.0279375 6.38048437,8.95228125 Z M9.70092187,7.62323437 C9.72965625,7.80173437 9.84496875,7.956 10.0437656,8.08190625 C10.1598281,8.15521875 10.2197344,8.23589062 10.2218906,8.32171875 C10.2241875,8.41340625 10.1642813,8.5089375 10.0965,8.58628125 C10.0871719,8.56710937 10.0758281,8.5513125 10.0642031,8.53851562 C9.93904687,8.39957812 9.6669375,8.46215625 9.61354687,8.47621875 C9.6,8.47954687 9.58739062,8.48615625 9.57651562,8.494875 C9.47601562,8.57657812 8.59007812,9.3031875 8.45371875,9.60989062 C8.402625,9.72482812 8.3585625,9.84407812 8.4275625,9.929625 C8.49946875,10.0190156 8.637,10.0090312 8.88215625,9.95821875 C8.90320312,9.95385937 8.9184375,9.95259375 8.92865625,9.95259375 C8.94042187,9.95259375 8.94614062,9.95259375 8.94614062,9.95385937 C8.9544375,9.96792187 8.95992187,10.0468125 8.88051563,10.2261094 C8.86607813,10.2585469 8.8295625,10.2756562 8.79290625,10.26825 C8.53125,10.2141094 8.02940625,10.1518125 7.61132812,10.3453594 C7.39157812,10.4472656 7.23642187,10.4546719 7.05689062,10.4633437 C6.89165625,10.4712656 6.7044375,10.4804531 6.4455,10.5645 C6.385875,10.5836719 6.1880625,10.6401094 6.15192187,10.546125 C6.1216875,10.4671406 6.1805625,10.3289062 6.24304687,10.2883594 C6.62901562,10.3033594 6.78632812,10.3035 6.78632812,10.3035 C6.84046875,10.3035 6.88439062,10.2595781 6.88439062,10.2054375 C6.88439062,10.1512969 6.84046875,10.107375 6.78632812,10.107375 C6.7846875,10.107375 6.62198437,10.107375 6.21820312,10.0910156 C6.1485,10.0882031 6.0275625,10.0713281 6.0015,9.98910937 C5.98209375,9.92807812 6.0163125,9.83995312 6.07785937,9.79298437 C6.13125,9.75159375 6.31115625,9.7970625 6.48698437,9.87290625 C6.54276562,9.90815625 6.60089062,9.93651562 6.6571875,9.955125 C6.70495312,9.97223437 6.7576875,9.94795312 6.77798437,9.9015 C6.79842187,9.855 6.78004688,9.80085937 6.73560937,9.77634375 C6.70073437,9.7569375 6.64378125,9.72703125 6.57510937,9.69642187 C6.46096875,9.61903125 6.37054687,9.50821875 6.36351562,9.42164062 C6.36098437,9.39046875 6.36721875,9.34964062 6.43973437,9.31157812 C6.5026875,9.278625 6.54778125,9.31439062 6.6825,9.46354687 C6.83892187,9.6369375 7.05257812,9.8724375 7.43948437,9.811875 C8.19290625,9.6898125 8.72320312,7.78125 8.72817187,7.762125 C8.766375,7.61578125 8.75409375,7.48809375 8.69151562,7.382625 C8.655375,7.32164062 8.608875,7.28198437 8.56448437,7.25175 C8.93442187,7.118625 9.35146875,7.07310937 9.77967187,7.22142187 C9.73064062,7.31132812 9.67415625,7.45720312 9.70092187,7.62323437 Z M10.3599375,7.30157812 L10.6952344,6.83353125 C10.8173906,6.90210937 10.9320469,6.97410937 11.0398594,7.04854687 L10.6096875,7.49301562 C10.5762656,7.467 10.543875,7.44464062 10.5099375,7.41660937 C10.4605312,7.3756875 10.4105156,7.33739062 10.3599375,7.30157812 Z M11.2005469,7.875375 L11.6312812,7.53215625 C11.71425,7.6123125 11.7899531,7.69064062 11.85675,7.76451562 L11.5084219,8.0120625 C11.4106875,7.97554687 11.3079375,7.93021875 11.2005469,7.875375 Z M11.0133281,7.77384375 C10.9330781,7.72607812 10.8506719,7.6726875 10.7664375,7.61320312 L11.2006875,7.16446875 C11.3027812,7.24167187 11.3984062,7.31976562 11.4857812,7.39739062 L11.0133281,7.77384375 Z M11.7418594,8.08682812 L11.9854687,7.91367187 C12.0652969,8.00995312 12.1299375,8.09535937 12.1765312,8.16107812 C12.0553125,8.15395312 11.9076094,8.13126562 11.7418594,8.08682812 Z M13.7774531,4.75903125 C13.6041562,5.91923437 12.6744375,6.30379687 12.3976406,6.39360937 C12.1649063,5.87010937 11.779125,5.42971875 11.5223906,5.29664062 C11.474625,5.272125 11.4152344,5.29078125 11.3902031,5.33854687 C11.3653125,5.38682812 11.3840625,5.44579687 11.4322031,5.47082812 C11.6278125,5.57221875 12.0239531,5.98467187 12.2526562,6.54829687 C12.4995,7.15635937 12.8941875,7.50117187 13.4255156,7.57317187 C13.5323906,7.58746875 13.6058437,7.630875 13.6502813,7.70545312 C13.7153906,7.81528125 13.7120625,7.98023437 13.6882031,8.1253125 C13.5630469,8.04590625 13.359375,8.02035937 13.2484219,8.10539062 C13.1791875,8.15826562 13.1594063,8.24226562 13.1953125,8.33015625 C13.2195938,8.38964062 13.2307969,8.60315625 13.2416719,8.80978125 C13.2729375,9.40767187 13.3126875,9.87782812 13.5090469,10.0369219 C13.5657656,10.0829062 13.6340625,10.1017969 13.7046563,10.0897969 C14.0923594,10.0284844 14.2338281,10.11075 14.326125,10.2534844 C14.33175,10.2621562 14.3488594,10.2884531 14.302875,10.33725 C14.2331719,10.4107969 14.0869219,10.4539687 13.9884844,10.3982812 C13.7564531,10.2654844 13.5936563,10.3214062 13.3243594,10.414125 C13.27725,10.4302031 13.2256406,10.4478281 13.1688281,10.4664844 C12.9014531,10.5528281 12.6255938,10.5098906 12.4036875,10.4751562 C12.3385781,10.4652187 12.2793281,10.4559844 12.2275781,10.4511562 C12.1011563,10.4391562 11.9859844,10.5019687 11.8745156,10.563 C11.7395625,10.6368281 11.6121094,10.7075625 11.4619219,10.6618125 C11.3922188,10.6408594 11.3695781,10.6058906 11.3584688,10.5810937 C11.3255156,10.5073594 11.3498438,10.4003906 11.373375,10.3324219 C11.4574688,10.3176094 11.533125,10.320375 11.6162813,10.3290469 C11.7363281,10.3410469 11.8729688,10.3553437 12.0450938,10.2920156 C12.0959063,10.2733594 12.1218281,10.2169219 12.1032188,10.1661094 C12.0844688,10.1152969 12.0284063,10.0899844 11.9771719,10.108125 C11.8477969,10.155375 11.7495,10.1459062 11.6364844,10.1339062 C11.5334531,10.1234531 11.41725,10.1116875 11.2775156,10.1487187 C11.2561875,10.1543437 11.2240313,10.1576719 11.199375,10.1178281 C11.1669375,10.06575 11.1683438,9.96946875 11.2347656,9.894375 C11.2858594,9.83639062 11.3848125,9.83817187 11.4762188,9.85757812 C11.5274063,9.88617187 11.5925625,9.90965625 11.6767031,9.92578125 C11.7247031,9.936 11.7723281,9.907125 11.7880313,9.86090625 C11.8037344,9.81440625 11.7827813,9.76359375 11.739,9.74165625 C11.7315938,9.73809375 11.6544844,9.70026562 11.5516875,9.67425 C11.4975469,9.63492187 11.4782813,9.57951562 11.4492656,9.4965 L11.4274219,9.43546875 C11.4143906,9.40073437 11.3976563,9.3744375 11.3794219,9.35451562 C11.4265313,9.33407812 11.4726563,9.32489062 11.5174688,9.32770312 C11.6183438,9.33459375 11.7084844,9.40303125 11.7853594,9.53151562 C12.0398438,9.95545312 12.4619063,9.96032812 12.4797656,9.96032812 C12.5205,9.96032812 12.5570156,9.9350625 12.5714531,9.897 C12.8886563,9.05882812 12.4645781,8.24845312 12.4462969,8.21423437 C12.4460156,8.21367187 12.4454531,8.21339062 12.4451719,8.212875 C12.4449375,8.21240625 12.4450313,8.21189062 12.44475,8.21142187 C12.4070625,8.1463125 11.502,6.61626562 9.58551563,6.20329687 C8.205,5.90475 6.5368125,6.68367187 6.46645313,6.71714062 C6.44985938,6.72478125 6.4359375,6.7370625 6.42595313,6.75239062 C6.22753125,7.05909375 5.89664063,7.87303125 6.14057813,8.4305625 C6.2236875,8.62059375 6.24351563,8.77073437 6.1993125,8.87723437 C6.1696875,8.94848437 6.11198438,9.00571875 6.01378125,9.05854687 C6.00060938,8.93596875 5.958375,8.77635937 5.8321875,8.70689062 C5.7088125,8.63948437 5.54845313,8.67703125 5.35514063,8.81901562 C4.89759375,9.15534375 4.2448125,9.949875 4.30434375,10.2938906 C4.31892188,10.3784062 4.37189063,10.4384531 4.45335938,10.4629687 C4.53215625,10.4864531 4.6291875,10.5066562 4.73132813,10.5275625 C4.93335938,10.5691875 5.171625,10.6179844 5.27732813,10.7055469 C4.99204688,10.6690312 4.43939063,10.6184531 4.22090625,10.7410312 C3.96323438,10.8861094 3.52026563,10.9785469 3.211875,10.8669375 C3.09975,10.8202031 2.84873438,10.7831719 2.70276563,10.9808437 C2.64839063,11.0546719 2.5629375,11.0748281 2.50776563,11.0561719 C2.44364063,11.0352187 2.43023438,10.9685625 2.43023438,10.9164844 C2.43023438,10.6889531 2.64923438,10.6713281 2.71626563,10.6713281 C2.77040625,10.6713281 2.81432813,10.6274062 2.81432813,10.5732656 C2.81432813,10.519125 2.77040625,10.4752031 2.71626563,10.4752031 C2.56607813,10.4752031 2.44251563,10.5240937 2.35767188,10.6074375 C2.27929688,10.5664687 2.228625,10.5180937 2.21025,10.4621719 C2.18507813,10.3858125 2.22121875,10.3066406 2.245125,10.2662812 C2.29054688,10.1890781 2.3709375,10.1481094 2.42015625,10.1283281 C2.53148438,10.2329062 2.661,10.3077187 2.72601563,10.3362656 C2.77504688,10.3574531 2.83317188,10.3352344 2.85525,10.2856875 C2.87695313,10.2361406 2.85421875,10.1781562 2.80467188,10.1564531 C2.67342188,10.0989844 2.4331875,9.92175 2.42184375,9.77310937 C2.417625,9.71873437 2.46782813,9.67734375 2.51967188,9.6643125 C2.55707813,9.65484375 2.65134375,9.6474375 2.70801563,9.77845312 C2.85140625,10.1101875 3.31776563,10.343625 3.33754688,10.3533281 C3.35132813,10.3602187 3.36614063,10.3635469 3.38095313,10.3635469 C3.4048125,10.3635469 3.42834375,10.354875 3.44685938,10.3382812 C3.48834375,10.3005 4.46507813,9.3984375 4.47070313,7.9228125 C4.47407813,7.03078125 4.59810938,6.47432812 4.64414063,6.297375 C4.81748438,6.28903125 5.26059375,6.2356875 5.65851563,5.93053125 C5.7736875,6.13457812 6.066,6.53071875 6.60398438,6.54421875 C6.60473438,6.54421875 6.605625,6.54421875 6.60642188,6.54421875 C6.64167188,6.54421875 6.67425,6.52504687 6.69173438,6.4944375 C6.70959375,6.46275 6.70860938,6.4239375 6.68920313,6.3935625 C6.68728125,6.39051562 6.536625,6.14939062 6.5709375,5.9415 C6.69454688,6.06075 6.9196875,6.2221875 7.24045313,6.23367187 L7.2405,6.23367187 L7.24054688,6.23367187 C7.24171875,6.23367187 7.24284375,6.23367187 7.24401563,6.23367187 C7.26098438,6.23367187 7.27621875,6.22814062 7.29023438,6.22040625 C7.29660938,6.21684375 7.30223438,6.21417187 7.30753125,6.20910937 C7.32009375,6.19823437 7.32928125,6.18435937 7.33504688,6.16823437 C7.3355625,6.16673437 7.33710938,6.16598437 7.33757813,6.16448437 C7.33884375,6.160125 7.47459375,5.73285937 7.861875,5.53289062 C8.10923437,5.40492187 8.4075,5.397 8.74959375,5.50964062 C8.75803125,5.51240625 8.76651563,5.51226562 8.77495313,5.5126875 C8.776875,5.51282812 8.77832813,5.51446875 8.78025,5.51446875 C8.78175,5.51446875 8.78329688,5.51390625 8.78479687,5.51385937 C8.78732812,5.51376562 8.78971875,5.51320312 8.79225,5.512875 C8.79660937,5.5123125 8.80096875,5.51235937 8.80528125,5.51114062 C8.80828125,5.51034375 8.8104375,5.50823437 8.81334375,5.50720312 C8.8198125,5.50485937 8.82567188,5.50195312 8.83153125,5.49825 C8.8366875,5.4950625 8.841375,5.49173437 8.84573437,5.48770312 C8.850375,5.48348437 8.85421875,5.47884375 8.85801563,5.47373437 C8.8618125,5.46857812 8.86514062,5.46351562 8.86785937,5.45775 C8.869125,5.45507812 8.87132813,5.45320312 8.87235937,5.45039062 C8.8854375,5.41471875 9.08826563,4.88507812 9.59409375,4.57251562 C9.59592187,4.57279687 9.597375,4.57396875 9.59920312,4.57415625 C9.61134375,4.57542187 10.8198281,4.70925 11.4886875,5.03592187 C11.6925938,5.13553125 11.9415,5.18479687 12.1878281,5.18479687 C12.4659375,5.18479687 12.740625,5.12198437 12.94275,4.99809375 C13.1633906,4.863 13.2820313,4.66889062 13.2860156,4.43751562 C13.2940781,3.963 13.002,3.59779687 12.7231406,3.495375 C12.5482031,3.43125 12.3797813,3.46982812 12.2732813,3.5998125 C12.1407188,3.76120312 12.1485469,3.97040625 12.2919375,4.09729687 C12.4407188,4.2290625 12.7155,4.25001562 12.9904219,4.006875 C13.022625,4.0693125 13.0483125,4.13826562 13.0656563,4.21190625 C12.7554844,4.42621875 12.4662188,4.49770312 12.2299688,4.4180625 C12.005625,4.34245312 11.8717969,4.14810937 11.8212188,3.99154687 C11.7815156,3.8686875 11.803875,3.71596875 11.88225,3.57295312 C11.9925938,3.37171875 12.1935938,3.22026562 12.4336406,3.1576875 C12.6839063,3.0920625 13.0944844,3.1485 13.4045156,3.42689062 C13.6346719,3.63351562 13.8861094,4.0321875 13.7774531,4.75903125 Z M12.8795156,3.84267187 C12.6868125,4.02398437 12.5094375,4.0280625 12.4219687,3.9504375 C12.3576094,3.89348437 12.3587812,3.80460937 12.4249219,3.72440625 C12.4641094,3.67664062 12.512625,3.6605625 12.5597812,3.6605625 C12.5937656,3.6605625 12.6270937,3.669 12.6556875,3.67945312 C12.7332656,3.70809375 12.8113125,3.7648125 12.8795156,3.84267187 Z" id="Shape"></path>
                </g>
                <circle id="Oval" stroke="#FFFFFF" cx="12" cy="12" r="11.5"></circle>
            </g>
        </g>
    </g>
</svg>