<?xml version="1.0" encoding="UTF-8"?>
<svg width="24px" height="24px" viewBox="0 0 24 24" version="1.1" xmlns="http://www.w3.org/2000/svg" xmlns:xlink="http://www.w3.org/1999/xlink">
    <!-- Generator: Sketch 55.1 (78136) - https://sketchapp.com -->
    <title>Flags/sri_lanka</title>
    <desc>Created with Sketch.</desc>
    <g id="Icons" stroke="none" stroke-width="1" fill="none" fill-rule="evenodd">
        <g id="Flags/sri_lanka">
            <g id="sri_lanka">
                <path d="M12,24 C5.372583,24 0,18.627417 0,12 C0,5.372583 5.372583,0 12,0 C18.627417,0 24,5.372583 24,12 C24,18.627417 18.627417,24 12,24 Z" id="Combined-Shape" fill="#FFD250" fill-rule="nonzero"></path>
                <path d="M18.4744864,1.89473437 C20.3011109,3.0674886 21.7889593,4.72196563 22.7586572,6.67879107 L22.7586563,17.3212109 C21.7889454,19.2780615 20.3010707,20.9325559 18.4744134,22.1053125 L9.10345312,22.1053125 C8.87489062,22.1053125 8.68964062,21.8225156 8.68964062,21.4737187 L8.68964062,2.52632812 C8.68964062,2.17748437 8.8749375,1.89473437 9.10345312,1.89473437 L18.4744864,1.89473437 Z" id="Combined-Shape" fill="#963C3C" fill-rule="nonzero"></path>
                <path d="M4.34484375,2.75845122 L4.34484375,21.2415488 C3.05496099,20.1718902 1.99267212,18.8373379 1.24139062,17.3213055 L1.24139062,6.67869451 C1.99267212,5.1626621 3.05496099,3.82810984 4.34484375,2.75845122 Z" id="Combined-Shape" fill="#5AA587" fill-rule="nonzero"></path>
                <path d="M5.52551361,22.1052656 C5.11408678,21.8411158 4.71984693,21.552527 4.34484375,21.2415488 L4.34484375,2.75845122 C4.71984693,2.44747305 5.11408678,2.1588842 5.52551361,1.89473438 L6.93707813,1.89473438 C7.21940625,1.89473438 7.44829687,2.123625 7.44829687,2.40595313 L7.44829687,21.5940469 C7.44829687,21.876375 7.21940625,22.1052656 6.93707812,22.1052656 L5.52551361,22.1052656 Z" id="Combined-Shape" fill="#FF7350" fill-rule="nonzero"></path>
                <g id="Group" transform="translate(11.250000, 8.156250)" fill="#FFD250" fill-rule="nonzero">
                    <path d="M7.17464063,6.93178125 C7.161375,6.8431875 7.23932813,6.72885937 7.35979688,6.56451562 C7.40339063,6.505125 7.46634375,6.4190625 7.4833125,6.37785937 C7.4720625,6.3770625 7.45664062,6.37795312 7.44520313,6.3785625 C7.37854687,6.38179687 7.27771875,6.38639062 7.18959375,6.2885625 C7.15509375,6.25021875 7.1385,6.20226562 7.14173438,6.14990625 C7.14829688,6.0435 7.23525,5.93882812 7.28910938,5.88351562 C7.15007813,5.78592187 7.01728125,5.68448437 6.89484375,5.562 C6.66084375,5.32790625 6.39389063,5.21521875 6.0991875,5.22135937 C6.07190625,5.51451562 6.2229375,5.7073125 6.3841875,5.9101875 C6.43171875,5.96990625 6.47910938,6.029625 6.52209375,6.09192187 C6.73420313,6.399 6.6898125,6.99182812 6.66295313,7.05459375 C6.63248438,7.12575 6.46476563,7.283625 6.23470313,7.252875 C6.12890625,7.23895312 6.00707813,7.27453125 5.93039062,7.34160937 C5.89739062,7.37048437 5.85801563,7.41848437 5.85801563,7.48284375 C5.85801563,7.48607812 5.85825,7.50239062 5.8633125,7.50539062 C5.89425,7.52404687 6.00970312,7.48757812 6.09234375,7.44290625 C6.115125,7.43048437 6.14353125,7.43414062 6.16275,7.452 C6.32535938,7.60425 6.48857813,7.47271875 6.506625,7.45720312 C6.5289375,7.438125 6.56184375,7.43751562 6.58453125,7.45579687 C6.7509375,7.58990625 6.92442188,7.44328125 6.93178125,7.43695312 C6.95217188,7.41932812 6.98217188,7.41717187 7.00485938,7.43203125 C7.07704688,7.47942187 7.14309375,7.49292187 7.20201563,7.47267187 C7.25348438,7.4548125 7.28076563,7.41614062 7.28395313,7.4068125 C7.28545313,7.38220312 7.25240625,7.25526562 7.23051563,7.1713125 C7.20745313,7.08328125 7.18373437,6.99220312 7.17464063,6.93178125 Z" id="Shape"></path>
                    <path d="M8.9769375,1.31798437 C8.92678125,1.3141875 8.8905,1.32501562 8.86565625,1.349625 C8.82009375,1.394625 8.82384375,1.47576562 8.82389063,1.4765625 C8.82482813,1.49460937 8.81770313,1.51223437 8.80453125,1.52446875 C8.79126563,1.53675 8.77345313,1.54298437 8.75540625,1.54035937 C8.66526563,1.52859375 8.532,1.4334375 8.28464063,1.25217187 C7.8916875,0.964125 7.29773438,0.528890625 6.73110938,0.45721875 C6.07251563,0.373546875 5.48634375,0.5836875 5.33742188,0.956015625 C5.17157813,1.37057812 5.52398438,1.74829687 5.52754688,1.75209375 C5.5455,1.77107812 5.54939063,1.79939062 5.53710938,1.82240625 C5.44420313,1.9974375 5.5145625,2.126625 5.57798438,2.19740625 C5.5978125,2.13895312 5.62757813,2.09901562 5.66854688,2.0745 C5.76740625,2.0154375 5.89645313,2.06428125 6.07495313,2.13192187 C6.18046875,2.17176562 6.29995313,2.217 6.43935938,2.25117187 C6.79682813,2.33878125 7.2328125,2.26064062 7.61746875,2.19178125 C7.75340625,2.16740625 7.88451563,2.14401562 8.00648438,2.12845312 C8.31323438,2.08940625 8.62082813,2.22534375 8.70534375,2.43848437 C8.7463125,2.54170312 8.76820313,2.74889062 8.45479688,2.97679687 C7.89121875,3.38676562 5.32115625,3.19757812 5.16975,3.186 C5.166375,3.18632812 5.16309375,3.18660937 5.15596875,3.187125 C5.21217188,3.25021875 5.27807813,3.3118125 5.3068125,3.31945312 C5.3360625,3.32728125 5.35514063,3.35545312 5.3514375,3.38554687 C5.34773438,3.41559375 5.32242188,3.438375 5.29214063,3.43884375 L5.02889063,3.442875 L5.05307813,3.69628125 C5.0548125,3.7149375 5.047875,3.73345312 5.0341875,3.74625 C5.0205,3.75914062 5.00151563,3.76453125 4.9831875,3.76204687 C4.97292188,3.76040625 4.745625,3.72398437 4.5885,3.63670312 L4.291125,3.82429687 C4.28132813,3.83048437 4.27003125,3.833625 4.2586875,3.833625 C4.252125,3.833625 4.24546875,3.83259375 4.23914063,3.83039062 C4.22175,3.8244375 4.20796875,3.81107812 4.20164063,3.793875 L4.08815625,3.48539062 L3.953625,3.7545 C3.94382813,3.7741875 3.92414063,3.78698437 3.90220313,3.78801562 C3.88035938,3.7903125 3.8595,3.77826562 3.84778125,3.75960937 L3.73246875,3.5758125 C3.67973438,3.64167187 3.59517188,3.737625 3.50864063,3.79748437 C3.49284375,3.80854687 3.47282813,3.81126562 3.45445313,3.80507812 C3.43617188,3.79884375 3.42196875,3.78426562 3.41615625,3.7659375 L3.35573438,3.57520312 C3.30225,3.64279687 3.22495313,3.73242187 3.1430625,3.79954687 C3.12557813,3.81407812 3.10129688,3.8175 3.08034375,3.8083125 C3.05948438,3.79921875 3.045375,3.77920312 3.04396875,3.75651562 L3.02451563,3.44990625 C2.95532813,3.48515625 2.8610625,3.53114062 2.80884375,3.54740625 C2.785125,3.55485937 2.75892188,3.5469375 2.74335938,3.52739062 C2.72770313,3.50784375 2.72564063,3.48079687 2.73815625,3.45914062 C2.8318125,3.29648437 2.91782813,3.093375 2.92429688,2.99235937 C2.8621875,3.06675 2.7751875,3.13790625 2.67801563,3.21698437 C2.47129688,3.38526562 2.21404688,3.59460937 2.02471875,3.96098437 C1.89248438,4.2170625 1.79751563,4.66373437 1.965,5.08017187 C2.10792188,5.4354375 2.41560938,5.70051562 2.87653125,5.8708125 C2.86110938,5.80354687 2.84929688,5.7375 2.84807813,5.6754375 C2.84207813,5.35996875 2.9075625,5.07201562 2.910375,5.05992187 C2.917875,5.02720312 2.95040625,5.00653125 2.983125,5.01445312 C3.01584375,5.02195312 3.0361875,5.05453125 3.0286875,5.08720312 C3.02807813,5.0900625 2.96385938,5.3731875 2.96953125,5.67304687 C2.97239063,5.8198125 3.03548438,6.00103125 3.0965625,6.17615625 C3.17760938,6.40907812 3.26151563,6.64978125 3.22509375,6.85242187 C3.17540625,7.12785937 2.83251563,7.19770312 2.5141875,7.14454687 C2.42371875,7.12935937 2.34140625,7.15167187 2.28225,7.20684375 C2.22220313,7.2628125 2.19145313,7.34864062 2.1999375,7.4364375 C2.20396875,7.47778125 2.21939063,7.486125 2.22445313,7.48889062 C2.26275,7.50960937 2.35279688,7.4814375 2.4015,7.45598437 C2.42601563,7.44309375 2.45629688,7.44839062 2.47504688,7.46934375 C2.6026875,7.6123125 2.774625,7.46967187 2.78179688,7.46339062 C2.80645313,7.44257812 2.84325,7.4445 2.865375,7.468125 C2.91346875,7.51935937 2.964375,7.54490625 3.02109375,7.54617187 C3.12478125,7.5525 3.22317188,7.46020312 3.22420313,7.45940625 C3.24215625,7.44192187 3.2690625,7.43742187 3.29175,7.4476875 C3.49204688,7.53932812 3.5971875,7.486125 3.6015,7.48359375 C3.7753125,7.335375 3.67490625,6.98371875 3.673875,6.98015625 C3.66914063,6.964125 3.67125,6.94678125 3.67973438,6.93239062 C3.68821875,6.91790625 3.70228125,6.90764062 3.71854688,6.90384375 C3.9620625,6.84801563 4.09814063,6.69173438 4.16395313,6.58814062 C4.04367188,6.58696875 3.94804688,6.54478125 3.89175,6.45679687 C3.80104688,6.31476562 3.84459375,6.10082812 4.00279688,5.91182812 C4.27340625,5.5884375 4.438875,4.93401562 4.41403125,4.66753125 C4.4109375,4.63415625 4.43554688,4.60457812 4.46892188,4.6014375 C4.50140625,4.59810937 4.531875,4.62295312 4.53501563,4.65632812 C4.55667188,4.88976562 4.45148438,5.3739375 4.25934375,5.73909375 C4.50271875,5.67178125 4.72485938,5.57325 4.95660938,5.4675 C5.187,5.36240625 5.42526563,5.25375 5.71153125,5.16403125 C6.19546875,5.01248437 6.62226563,5.11753125 6.98057813,5.47603125 C7.15415625,5.64960937 7.34371875,5.77678125 7.5631875,5.92410937 C7.65960938,5.98879687 7.759875,6.05610937 7.8639375,6.1310625 C8.14603125,6.33417188 8.1410625,6.50371875 8.13576563,6.68325 C8.13417188,6.73795312 8.1324375,6.79453125 8.138625,6.85579687 C8.16773438,7.1473125 7.9359375,7.19339062 7.82451563,7.2155625 C7.80923438,7.2185625 7.7949375,7.22142187 7.78242188,7.22451562 C7.76667188,7.22845312 7.747875,7.23234375 7.7270625,7.23651562 C7.61390625,7.2594375 7.44290625,7.29417187 7.40090625,7.43896875 C7.3933125,7.46489062 7.39621875,7.47398437 7.39621875,7.47398437 C7.41407813,7.48214062 7.50670313,7.46109375 7.58048438,7.42757812 C7.59614063,7.42035937 7.61395313,7.4203125 7.62965625,7.42701562 C7.64540625,7.43371875 7.65759375,7.44684375 7.66317188,7.4630625 C7.6846875,7.52610937 7.71820313,7.53684375 7.72921875,7.54040625 C7.80567188,7.56426562 7.93082813,7.49390625 7.96851563,7.46709375 C7.992,7.45054687 8.02364063,7.45232812 8.04482813,7.4716875 C8.10754688,7.52892187 8.16553125,7.5541875 8.21760938,7.54715625 C8.28735938,7.53740625 8.3296875,7.47178125 8.33015625,7.47107812 C8.3401875,7.45485937 8.35729688,7.44426562 8.37632813,7.44253125 C8.39564063,7.4415 8.41410938,7.44829687 8.42695313,7.46235937 C8.42709375,7.46259375 8.48025,7.51865625 8.589,7.5530625 C8.66034375,7.575375 8.67829688,7.54964062 8.68420313,7.54110937 C8.71434375,7.49714062 8.70351563,7.38492187 8.64473438,7.31151562 C8.56771875,7.2151875 8.53195313,7.06875 8.55360938,6.93839062 C8.57353125,6.8184375 8.63821875,6.72060937 8.74054688,6.65540625 C8.92804688,6.5360625 8.9709375,6.40748437 8.95889063,6.38296875 C8.95542188,6.38132812 8.93507813,6.37860937 8.9188125,6.3765 C8.83514063,6.3654375 8.69507813,6.34692188 8.55107813,6.08095312 C8.42390625,5.84625 8.54695313,5.474625 8.68940625,5.04421875 C8.7616875,4.82620312 8.83635938,4.60064062 8.88239063,4.3794375 C9.00989063,3.76757812 8.60925,3.28176562 8.60521875,3.2769375 C8.5845,3.25228125 8.58665625,3.215625 8.6101875,3.19359375 C8.89139063,2.92978125 9.01232813,2.68514062 8.96939063,2.46665625 C8.92471875,2.23879687 8.70407813,2.0795625 8.52871875,2.01239062 C8.31023438,1.928625 7.9115625,1.97625 7.525875,2.02214062 C7.20360938,2.0604375 6.89896875,2.09671875 6.702375,2.05565625 C6.60107813,2.034375 6.526875,1.986375 6.481875,1.91296875 C6.44479688,1.85245312 6.43570313,1.78621875 6.43607813,1.73446875 C6.33839063,1.77117187 6.2724375,1.86164062 6.27164063,1.86276562 C6.26048438,1.87832812 6.24253125,1.88784375 6.22340625,1.88817187 C6.19945313,1.88723437 6.18585938,1.87978125 6.17423438,1.8646875 C6.12454688,1.80046875 6.10457813,1.72959375 6.11498438,1.65403125 C6.12834375,1.55629687 6.1914375,1.47220312 6.2431875,1.41796875 C6.01710938,1.3385625 5.8438125,1.52803125 5.83584375,1.53707812 C5.8160625,1.55896875 5.78357813,1.56365625 5.75859375,1.5485625 C5.64951563,1.48148437 5.58192188,1.34990625 5.5861875,1.2133125 C5.5903125,1.0843125 5.65682813,0.97621875 5.768625,0.916828125 C5.84526563,0.8761875 5.91871875,0.8686875 5.986875,0.894375 C6.05170313,0.918796875 6.09721875,0.96928125 6.1258125,1.01203125 C6.20854688,0.917671875 6.21548438,0.754828125 6.21548438,0.752953125 C6.21595313,0.736640625 6.22284375,0.72121875 6.23479688,0.71015625 C6.24665625,0.69909375 6.26320313,0.692109375 6.27876563,0.69384375 C6.422625,0.699796875 6.53428125,0.751734375 6.61059375,0.848203125 C6.71489063,0.980203125 6.72473438,1.16353125 6.71854688,1.27701562 C6.94828125,1.15973437 6.91917188,0.88903125 6.91767188,0.876375 C6.91523438,0.855515625 6.92367188,0.83484375 6.94003125,0.82171875 C6.95639063,0.8086875 6.97823438,0.80465625 6.99825,0.811921875 C7.24204688,0.897984375 7.33078125,1.11534375 7.3516875,1.27715625 C7.42073438,1.21129687 7.42176563,1.12673437 7.42176563,1.12560937 C7.42176563,1.09785937 7.44060938,1.07367187 7.46746875,1.06678125 C7.49460938,1.05998437 7.5225,1.07217187 7.5358125,1.0965 C7.62984375,1.2684375 7.77328125,1.37540625 7.87823438,1.4353125 L7.80595313,1.26014062 C7.79615625,1.23642187 7.80229688,1.20904687 7.821375,1.19189062 C7.8405,1.17464062 7.8684375,1.1713125 7.89089063,1.1835 C8.01117188,1.24828125 8.10646875,1.32159375 8.20729688,1.39921875 C8.3289375,1.492875 8.45475,1.58967187 8.63198438,1.67292187 C8.805,1.75429687 8.92176563,1.73878125 8.98889063,1.71159375 C9.0585,1.68351562 9.09825,1.63392187 9.11114063,1.59998437 C9.1355625,1.53585937 9.1426875,1.44370312 9.10345313,1.38267187 C9.07846875,1.34367187 9.03585938,1.321875 8.9769375,1.31798437 Z" id="Shape"></path>
                    <path d="M1.80623437,2.30087253 C1.806375,2.30094893 1.80642187,2.30110172 1.80642187,2.30110172 C1.80675,2.30125452 1.80689062,2.30117812 1.80707812,2.30125452 C1.81157812,2.30369932 2.26570312,2.53725353 2.67801562,2.57721063 C2.70065625,2.57942623 2.72071875,2.60211697 2.72990625,2.63588569 C2.73909375,2.6698072 2.736,2.7092295 2.72175,2.73810863 L2.70735937,2.76736976 C2.78915625,2.74735301 2.892,2.72886425 2.99292187,2.72817665 C2.95157812,2.64795686 2.90015625,2.54596311 2.84732812,2.43907978 C2.73703125,2.43579459 2.33357812,2.40722106 2.00521875,2.14929531 C1.92548437,2.08626546 1.78757812,1.97731934 1.722,2.03248 C1.71070312,2.04202997 1.69204687,2.08664746 1.69509375,2.14142613 C1.69917187,2.21087355 1.73854687,2.26763861 1.80623437,2.30087253 Z" id="Shape"></path>
                    <path d="M3.35526374,1.31339063 C3.33043981,1.31339063 3.30782245,1.31646499 3.2879633,1.32302362 C3.18407055,1.35766142 3.13129671,1.48862921 3.11732176,1.590698 C3.10003695,1.72146082 3.12964179,1.89710932 3.26589759,1.99835828 C3.44371049,2.13014589 3.63384341,2.03975968 3.74214931,1.92088438 C3.77635117,1.88378709 3.93982135,1.6888726 3.81901155,1.47592185 L3.81864379,1.47530698 C3.63255625,1.38020674 3.46926994,1.31339063 3.35526374,1.31339063 Z" id="Shape"></path>
                    <path d="M2.57859375,2.777625 C2.60803125,2.84775 2.65364062,2.902125 2.691375,2.93854688 C2.70567187,2.9075625 2.72751562,2.87535937 2.76065625,2.85117187 C2.79309375,2.82754687 2.84925,2.80453125 2.93160937,2.8216875 C2.932875,2.82178125 2.93404687,2.82201563 2.9353125,2.82220312 C2.93765625,2.82271875 2.93953125,2.82253125 2.94192187,2.82309375 C2.94403125,2.82360937 2.94539062,2.82525 2.9475,2.82585937 C2.95045312,2.82689062 2.9535,2.82703125 2.95635937,2.82853125 C2.95846875,2.82965625 2.95978125,2.831625 2.96165625,2.8329375 C2.99264062,2.84610937 3.01846875,2.86734375 3.03215625,2.89935937 C3.0781875,3.00675 2.9971875,3.21515625 2.92570312,3.36351562 C2.97623437,3.33853125 3.0245625,3.31321875 3.05067187,3.29920312 C3.06885937,3.28940625 3.09084375,3.28954687 3.10889062,3.29967187 C3.12698437,3.30970312 3.13870312,3.3283125 3.13996875,3.34884375 L3.157125,3.61978125 C3.25209375,3.51965625 3.32690625,3.41090625 3.32789062,3.4095 C3.34101562,3.39028125 3.36370312,3.380625 3.38690625,3.38371875 C3.40992187,3.38714062 3.42890625,3.4033125 3.4359375,3.42548437 L3.50521875,3.64429687 C3.60215625,3.55509375 3.68671875,3.43565625 3.68775,3.43415625 C3.69951562,3.4175625 3.71873437,3.40870312 3.73898437,3.408375 C3.75932812,3.4089375 3.77803125,3.419625 3.78890625,3.43682812 L3.89339062,3.603375 L4.04245312,3.30529687 C4.05328125,3.28354687 4.07376562,3.26985937 4.10020312,3.27178125 C4.12439062,3.27314062 4.1454375,3.28870312 4.15382812,3.31148437 L4.28985937,3.681375 L4.55535937,3.51389062 C4.57546875,3.50109375 4.60096875,3.501375 4.62107812,3.51454687 C4.70765625,3.57126562 4.8406875,3.60778125 4.92454687,3.626625 L4.90185937,3.388875 C4.90026562,3.37195312 4.90579687,3.35517187 4.91714062,3.34260937 C4.9284375,3.32995312 4.94451562,3.32259375 4.9614375,3.32235937 L5.11335937,3.3200625 C5.07684375,3.28303125 5.04660937,3.2473125 5.03184375,3.22917187 C5.02195312,3.217125 5.01801562,3.20235937 5.01867187,3.18792187 C4.90678125,3.1831875 4.75078125,3.16321875 4.594875,3.09590625 L4.50210937,3.23896875 C4.49325,3.25265625 4.47932812,3.262125 4.46334375,3.26540625 C4.4593125,3.26629687 4.4551875,3.26667187 4.45115625,3.26667187 C4.43920312,3.26667187 4.4274375,3.26310937 4.4173125,3.25640625 L4.0665,3.02104687 L4.00204687,3.19654687 C3.99459375,3.21670312 3.97715625,3.23142187 3.95601562,3.2353125 C3.93492187,3.2394375 3.91340625,3.23165625 3.89925,3.21553125 C3.83896875,3.14639062 3.74432812,3.04045312 3.68803125,2.98232812 C3.63735937,3.03121875 3.54839062,3.1100625 3.45323437,3.16289062 C3.43771875,3.17151562 3.41925,3.172875 3.40270312,3.16678125 C3.38610937,3.1606875 3.37298437,3.14765625 3.36679687,3.13101562 L3.27060937,2.872875 C3.25889062,2.84146875 3.274875,2.80645312 3.306375,2.79473437 C3.3376875,2.78301562 3.37279687,2.79914062 3.38451562,2.8305 L3.45464062,3.01879687 C3.55640625,2.94810937 3.64134375,2.85707812 3.642375,2.85595312 C3.66403125,2.83260937 3.700125,2.82984375 3.724875,2.84976562 C3.76021875,2.87807812 3.85621875,2.98382812 3.92320312,3.05892187 L3.979125,2.906625 C3.98554687,2.88914062 3.99970312,2.87554687 4.01742187,2.86982812 C4.035,2.86373437 4.0545,2.86659375 4.07001562,2.87709375 L4.4338125,3.121125 L4.52175,2.9855625 C4.53867187,2.95945312 4.57251562,2.95035937 4.59979687,2.96428125 C4.76128125,3.04504687 4.93565625,3.06454687 5.0469375,3.0675 C4.97901562,2.94060937 4.9730625,2.77973437 4.97264062,2.74195312 C4.88170312,2.70182812 4.76995312,2.64121875 4.65754687,2.54878125 L4.6138125,2.65682812 C4.60678125,2.67407812 4.59220312,2.68720312 4.57420312,2.69235937 C4.55625,2.69732812 4.53689062,2.69409375 4.52184375,2.68317187 L4.34634375,2.55585937 L4.32928125,2.68739062 C4.32660937,2.70778125 4.31385937,2.72545312 4.29529687,2.73426562 C4.276875,2.743125 4.255125,2.74223437 4.2375,2.73140625 C4.23140625,2.72775 4.08698437,2.63953125 4.00096875,2.54273437 C3.97865625,2.51765625 3.98095312,2.4793125 4.00603125,2.457 C4.03078125,2.4346875 4.0693125,2.43684375 4.09176562,2.4620625 C4.12814062,2.5029375 4.17909375,2.54357812 4.2215625,2.574375 L4.2391875,2.43890625 C4.24195312,2.417625 4.25573437,2.3994375 4.27542187,2.391 C4.29520312,2.38246875 4.31789062,2.38504687 4.33514062,2.3975625 L4.53046875,2.53926562 L4.57720312,2.42385937 C4.58470312,2.40534375 4.60092187,2.39165625 4.6205625,2.38739062 C4.64001562,2.38321875 4.66059375,2.38875 4.675125,2.40248437 C4.82657812,2.54498437 4.99045312,2.62195312 5.09235937,2.6596875 C5.05757812,2.49754687 5.04426562,2.29425 5.04365625,2.2835625 C5.0435625,2.2820625 5.04421875,2.28075 5.04421875,2.27925 C4.94957812,2.22707812 4.81575,2.13707812 4.70010937,1.99575 C4.69954687,2.07065625 4.69345312,2.14678125 4.675125,2.19496875 C4.66879687,2.2115625 4.65557812,2.22454687 4.63889062,2.23054687 C4.62210937,2.2363125 4.60364062,2.2348125 4.58835937,2.2261875 C4.581,2.22201562 4.44885937,2.14607812 4.35046875,2.03526562 C4.33345312,2.09629687 4.3130625,2.16070312 4.29590625,2.18939062 C4.27945312,2.21657812 4.24514062,2.22665625 4.2166875,2.2125 C4.21092187,2.20964062 4.11782812,2.16253125 4.03485937,2.09048437 C4.02679687,2.17139062 4.01428125,2.26275 3.99651562,2.30723437 C3.99009375,2.32335937 3.9770625,2.33592187 3.96070312,2.341875 C3.94434375,2.3475 3.92629687,2.34623437 3.91101562,2.33798437 C3.90548437,2.33498437 3.8000625,2.2771875 3.701625,2.203875 L3.67495312,2.30517187 C3.67035937,2.32246875 3.65840625,2.33695312 3.64223437,2.34464062 C3.62592187,2.35214062 3.60745312,2.352375 3.59104687,2.34501562 C3.5836875,2.3416875 3.41001562,2.2618125 3.31110937,2.14092187 C3.28982812,2.115 3.293625,2.07670312 3.31964062,2.05551562 C3.34551562,2.03423437 3.38385937,2.03803125 3.40504687,2.06404687 C3.45234375,2.12179687 3.52471875,2.17007812 3.57689062,2.20040625 L3.6080625,2.082 C3.6135,2.06142187 3.62915625,2.04520312 3.6495,2.03920312 C3.66975,2.032875 3.69182812,2.03817187 3.70753125,2.05242187 C3.7655625,2.10492187 3.844125,2.15657812 3.89995312,2.19079687 C3.9118125,2.11584375 3.92104687,2.00742187 3.92503125,1.93710937 C3.926625,1.90996875 3.94589062,1.88714062 3.97242187,1.88128125 C3.99914062,1.87528125 4.0261875,1.88775 4.03907812,1.9115625 C4.07245312,1.97310937 4.15270312,2.03296875 4.21321875,2.07084375 C4.2298125,2.01890625 4.25029687,1.94226562 4.26567187,1.876125 C4.271625,1.85071875 4.29295312,1.83201562 4.318875,1.82948437 C4.34479687,1.82625 4.3695,1.84110937 4.3801875,1.86492187 C4.41815625,1.94896875 4.51003125,2.02584375 4.57570312,2.07290625 C4.58282812,1.9843125 4.57626562,1.8585 4.56810937,1.77975 C4.56510937,1.7505 4.5834375,1.72326562 4.61170312,1.71515625 C4.64057812,1.70732812 4.6700625,1.72035937 4.68304687,1.74660937 C4.80525,1.99439062 5.02129687,2.1316875 5.13365625,2.18939062 C5.19496875,1.51907812 4.99842187,1.262625 4.99635937,1.26 C4.98539062,1.24617187 4.98079687,1.22803125 4.98403125,1.21064062 C4.98735937,1.19334375 4.99785937,1.1780625 5.01314062,1.16920312 C5.12221875,1.1060625 5.18845312,0.990703125 5.22904688,0.878765625 C4.98210937,1.11820312 4.59084375,1.21017187 4.40020312,1.24195312 L4.49329687,1.35534375 C4.50745312,1.37264062 4.51101562,1.39640625 4.50248437,1.417125 C4.49385937,1.43784375 4.47464062,1.45209375 4.45232812,1.45429687 C4.21879687,1.47764062 4.04835937,1.44670312 3.93360937,1.40803125 L3.9733125,1.48134375 C3.98376562,1.5005625 3.9830625,1.52395312 3.9714375,1.54246875 C3.95990625,1.56103125 3.93871875,1.57354687 3.91734375,1.57092187 C3.72707812,1.56276562 3.56057812,1.48439062 3.42379687,1.41510937 C3.41732812,1.45978125 3.39525,1.50328125 3.35854687,1.53909375 C3.31364062,1.58292187 3.25645312,1.60560937 3.19982812,1.60560937 C3.15975,1.60560937 3.11985937,1.59421875 3.0849375,1.570875 C3.0163125,1.52507812 2.98157812,1.44370312 2.99432812,1.35853125 C3.00609375,1.28029687 3.05545312,1.21917187 3.12314062,1.19892187 C3.21370312,1.17201562 3.3170625,1.224375 3.44779687,1.29098437 C3.55157812,1.34390625 3.67532812,1.40685937 3.81023437,1.43507812 L3.73504687,1.2961875 C3.72103125,1.2703125 3.72754687,1.23820312 3.75046875,1.21978125 C3.77348437,1.2016875 3.80615625,1.20215625 3.828375,1.22142187 C3.82973437,1.22259375 3.98085937,1.34676562 4.32398437,1.34034375 L4.23745312,1.23482812 C4.22320312,1.21753125 4.21973437,1.193625 4.22835937,1.17290625 C4.23707812,1.1521875 4.2564375,1.1379375 4.27879687,1.13582812 C4.2853125,1.13521875 4.78378125,1.0846875 5.09048437,0.8375625 C4.99064062,0.8668125 4.91329687,0.86221875 4.90734375,0.862078125 C4.89051562,0.86071875 4.875,0.852515625 4.8645,0.839296875 C4.72396875,0.662765625 4.58025,0.608203125 4.50773437,0.59128125 C4.467,0.719578125 4.36846875,0.82340625 4.36364062,0.828375 C4.35060937,0.841875 4.332,0.84853125 4.31348437,0.846703125 C4.29482812,0.844734375 4.27814062,0.83428125 4.26815625,0.818296875 C4.15982812,0.6436875 4.00364062,0.59775 3.91284375,0.586359375 C3.924,0.71540625 3.83376562,0.821484375 3.77371875,0.86559375 C3.750375,0.882515625 3.7185,0.881015625 3.69726562,0.8619375 C3.43659375,0.62896875 3.23535937,0.697921875 3.15389062,0.744421875 C3.17957812,0.8083125 3.16748437,0.86053125 3.15009375,0.89578125 C3.02559375,1.14796875 2.25567187,1.1986875 2.10253125,1.20628125 C2.08354687,1.20764062 2.06451562,1.19892187 2.05232812,1.18382812 C2.04004687,1.16873437 2.035875,1.14871875 2.04084375,1.12996875 C2.05209375,1.08796875 2.04454687,1.04264062 2.01979687,1.0021875 C1.99448437,0.96084375 1.9539375,0.930703125 1.911375,0.921609375 C1.87134375,0.913125 1.79498437,0.918609375 1.74932812,0.968671875 C1.69715625,1.02609375 1.69359375,1.13221875 1.7390625,1.27575 C1.82057812,1.53332812 2.0716875,1.78710937 2.22801562,1.92623437 C2.22660937,1.89421875 2.22754687,1.87064062 2.227875,1.8646875 C2.22923437,1.83876562 2.24685937,1.81654687 2.27184375,1.80942187 C2.29692187,1.8020625 2.3235,1.81171875 2.33835937,1.83304687 C2.39015625,1.90748437 2.4519375,1.95778125 2.49834375,1.98853125 L2.5288125,1.79423437 C2.53307812,1.76732812 2.5546875,1.7465625 2.58173437,1.74328125 C2.60864062,1.74098437 2.63465625,1.75528125 2.64501562,1.78054687 C2.70004687,1.9141875 3.04842187,2.33273437 3.17803125,2.48264062 C3.194625,2.50176562 3.19757812,2.52923437 3.18539062,2.55145312 C3.17320312,2.57357812 3.14859375,2.58553125 3.12346875,2.5824375 C2.90146875,2.55079687 2.57535937,2.62467187 2.57207812,2.625375 C2.54695312,2.63123437 2.52075,2.62040625 2.50701562,2.59846875 C2.49332812,2.57657812 2.49492187,2.54840625 2.51114062,2.52815625 L2.55604687,2.47223437 C2.24784375,2.44021875 1.94775,2.359125 1.8264375,2.32373437 L1.72448437,2.60067187 L1.999125,2.57325 C2.01984375,2.570625 2.041125,2.5801875 2.05378125,2.59739062 C2.06657812,2.61445312 2.0694375,2.63695312 2.061375,2.6566875 L2.00957812,2.78329687 L2.23584375,2.7234375 C2.26579687,2.71514062 2.29659375,2.73117187 2.30789062,2.7598125 C2.33784375,2.83575 2.37464062,2.885625 2.40398437,2.9165625 L2.46773437,2.77565625 C2.47776562,2.75367187 2.49970312,2.73834375 2.52398437,2.73998437 C2.5475625,2.7406875 2.56926562,2.75535938 2.57859375,2.777625 Z" id="Shape"></path>
                    <path d="M1.79203125,5.8835625 C2.03160938,6.04354688 2.22520313,5.86101563 2.32865625,5.72048438 C2.10796875,5.55946875 1.94728125,5.361375 1.85245313,5.12554688 C1.82142188,5.0484375 1.80126563,4.97053125 1.78551563,4.89276563 C1.76296875,4.87504688 1.4296875,4.61109375 1.15059375,4.3025625 C1.13634375,4.33973438 1.11764063,4.3693125 1.10245313,4.38928125 C1.12204688,4.46901563 1.10301563,4.53417188 1.07840625,4.5759375 C1.09532813,4.63279688 1.08173438,4.6891875 1.06204688,4.73039063 C1.10428125,4.79414063 1.11196875,4.85653125 1.08492188,4.91648438 C1.07873438,4.93021875 1.07039063,4.942875 1.06167188,4.95529688 C1.09635938,4.99720313 1.15101563,5.09315625 1.15101563,5.28628125 C1.15101563,5.416125 1.19910938,5.49403125 1.23501563,5.5340625 C1.25596875,5.51596875 1.27889063,5.50575 1.30415625,5.50307813 C1.38079688,5.49454688 1.44375,5.56007813 1.52976563,5.6505 C1.59698438,5.72128125 1.68079688,5.8095 1.79203125,5.8835625 Z" id="Shape"></path>
                    <path d="M0.611675317,4.23698437 C0.6069898,4.23698437 0.602304282,4.23689062 0.597618764,4.23689062 C0.506641629,4.23609375 0.423522498,4.227375 0.346943568,4.21321875 C0.339573639,4.23351562 0.355240839,4.2924375 0.371688958,4.30457812 C0.387844233,4.3164375 0.398630685,4.336125 0.398044995,4.35567187 C0.397459306,4.375125 0.388722767,4.39425 0.371932996,4.40526562 C0.361146543,4.41253125 0.329031224,4.44004687 0.328637242,4.46695312 C0.328250305,4.49310937 0.360414431,4.52025 0.379693384,4.53417187 C0.393749937,4.54429687 0.402828128,4.559625 0.404634004,4.57640625 C0.406439881,4.59323437 0.400924636,4.61001562 0.389308457,4.62276562 C0.381157609,4.632 0.35792525,4.66579687 0.361976271,4.69415625 C0.362805998,4.70015625 0.365441601,4.71853125 0.398386648,4.74004687 C0.412638431,4.749375 0.422351118,4.76395312 0.425230759,4.7803125 C0.428012785,4.79667187 0.423766535,4.81345312 0.413370543,4.82671875 C0.413468158,4.82671875 0.395653429,4.85160937 0.402486476,4.87640625 C0.410051634,4.90382812 0.445632284,4.92496875 0.474038235,4.93776562 C0.527287191,4.96185937 0.603914929,4.97728125 0.683715152,4.98032812 C0.686155526,4.97995313 0.688644707,4.98028125 0.691085081,4.9801875 C0.75839059,4.9820625 0.827453168,4.97578125 0.886559022,4.954875 C0.944444688,4.93439062 0.982904979,4.90467187 1.00076852,4.86651562 C1.00638138,4.85465625 1.01799755,4.82990625 0.968262736,4.774125 C0.948837361,4.75228125 0.947910019,4.7205 0.966017592,4.69767188 C0.966115207,4.69753125 1.00828487,4.64184375 0.982221674,4.59740625 C0.968311544,4.57359375 0.972508987,4.543875 0.992617667,4.52465625 C0.996327035,4.52071875 1.03561705,4.47632812 1.00447788,4.39664062 C0.995497308,4.37371875 1.00174466,4.34784375 1.02038912,4.3310625 C1.02268307,4.32885937 1.07988543,4.27171875 1.07861644,4.18476563 C1.07085605,4.17567187 1.06309566,4.16657813 1.0555305,4.15748438 C0.933170161,4.20721875 0.783087173,4.23698437 0.611675317,4.23698437 Z" id="Shape"></path>
                    <path d="M1.15603125,0.00328125 C0.91040625,0.135375 0.386625,0.549515625 0.37153125,1.68332813 L0.38503125,3.59395312 C0.386671875,3.596625 0.38896875,3.59939063 0.390328125,3.60196875 C0.4220625,3.66173437 0.407015625,3.73926562 0.389203125,3.7929375 C0.540984375,3.84717187 0.73021875,3.82490625 0.811265625,3.80479687 C0.79509375,3.75745312 0.782296875,3.68095312 0.837140625,3.59428125 C0.82865625,1.31582812 1.04596875,0.3465 1.15603125,0.00328125 Z" id="Shape"></path>
                    <path d="M1.18134375,3.94177945 C1.18134375,3.79264578 1.108125,3.67654896 1.03565625,3.63890567 C1.02060937,3.63098834 0.9695625,3.6091797 0.946125,3.65639577 C0.90225,3.74456601 0.9178125,3.806825 0.932765625,3.86721261 C0.94115625,3.90075329 0.94978125,3.93530163 0.943265625,3.97488827 C0.9350625,4.02541522 0.9050625,4.04614422 0.895171875,4.05312587 C0.812765625,4.11056248 0.499453125,4.18584907 0.282890625,4.01425899 C0.253546875,3.99093886 0.2416875,3.93580546 0.25621875,3.89017287 C0.27909375,3.81826913 0.2956875,3.71275275 0.2829375,3.67611711 C0.28190625,3.67309413 0.279046875,3.66467297 0.261984375,3.66114616 C0.245859375,3.6577633 0.229734375,3.65603589 0.21384375,3.65603589 C0.139921875,3.65603589 0.07134375,3.69173584 0.034265625,3.75269926 C0.004453125,3.8017867 -0.004875,3.86418963 0.0058125,3.94343489 C0.0418125,4.21032081 0.259453125,4.37233813 0.588046875,4.37694458 C0.820453125,4.37572099 1.02042187,4.29143744 1.12021875,4.13956869 C1.16076562,4.07781354 1.18134375,4.01123601 1.18134375,3.94177945 Z" id="Shape"></path>
                    <path d="M0.6585,5.2730625 C0.6725625,5.25454688 0.695765625,5.24564063 0.71859375,5.250375 C0.760828125,5.25923438 0.86578125,5.28145313 0.926015625,5.2348125 C0.9470625,5.2186875 0.951796875,5.174625 0.935671875,5.1459375 C0.930140625,5.13604688 0.9133125,5.10623438 0.85003125,5.13042188 C0.790171875,5.15353125 0.704203125,5.17851563 0.650203125,5.12995313 C0.639421875,5.12025 0.632578125,5.10890625 0.627375,5.09723438 C0.61115625,5.09582813 0.594984375,5.09498438 0.579046875,5.09254688 C0.573890625,5.10590625 0.566765625,5.1189375 0.55453125,5.12995313 C0.500765625,5.17842188 0.414703125,5.15353125 0.35475,5.13042188 C0.291703125,5.10646875 0.274546875,5.13604688 0.269109375,5.1459375 C0.252984375,5.174625 0.257625,5.2186875 0.278578125,5.23476563 C0.33890625,5.28126563 0.443953125,5.25928125 0.47840625,5.25201563 C0.500765625,5.24751563 0.528234375,5.25525 0.54253125,5.273625 C0.55678125,5.29214063 0.56278125,5.31632813 0.552328125,5.33714063 C0.538640625,5.36451563 0.47915625,5.48076563 0.42103125,5.553375 C0.49696875,5.66442188 0.562734375,5.862375 0.408703125,6.03839063 C0.396140625,6.05264062 0.37659375,6.05976563 0.3585,6.05896875 C0.339515625,6.0575625 0.32221875,6.04725 0.31190625,6.03121875 C0.303140625,6.01795313 0.272296875,5.9810625 0.23821875,5.97445313 C0.227953125,5.97248438 0.211640625,5.9716875 0.18815625,5.98771875 C0.172265625,5.99873438 0.1633125,6.03510938 0.176765625,6.07485938 C0.20071875,6.14601563 0.275203125,6.18557813 0.38034375,6.18065625 C0.40425,6.17826563 0.430078125,6.19471875 0.439734375,6.21885938 C0.449296875,6.243 0.4425,6.27051563 0.4228125,6.2874375 L0.3238125,6.372375 L0.4854375,6.41175 C0.506859375,6.41695313 0.52378125,6.43340625 0.529640625,6.4546875 C0.529875,6.45571875 0.5540625,6.54182813 0.602390625,6.61453125 C0.650625,6.541875 0.6748125,6.45571875 0.675046875,6.4546875 C0.68090625,6.43340625 0.697828125,6.41695313 0.71925,6.41175 L0.880875,6.372375 L0.78178125,6.2874375 C0.76209375,6.27060938 0.755296875,6.243 0.764859375,6.21885938 C0.774421875,6.19471875 0.7985625,6.17854688 0.82425,6.18065625 C0.928078125,6.18525 1.00382813,6.14601563 1.027875,6.07476563 C1.04132813,6.0350625 1.032375,5.9986875 1.01648438,5.98767188 C0.992625,5.97145313 0.976171875,5.97225 0.966046875,5.97445313 C0.93084375,5.98157813 0.899203125,6.02104688 0.892640625,6.03117188 C0.882375,6.04720313 0.86503125,6.05751563 0.846046875,6.05892188 C0.826359375,6.05995312 0.8083125,6.05273438 0.79584375,6.03834375 C0.641859375,5.86228125 0.707671875,5.664375 0.7835625,5.55332813 C0.7254375,5.48071875 0.665953125,5.36446875 0.652265625,5.33709375 C0.642046875,5.31632813 0.6444375,5.29148438 0.6585,5.2730625 Z" id="Shape"></path>
                </g>
                <path d="M20.455875,9.47353125 C20.4234375,9.423 20.35875,9.36117188 20.2348125,9.35310938 C20.1487031,9.34692188 20.0796562,9.370125 20.0294531,9.42032813 C19.9890469,9.46059375 19.9695937,9.51046875 19.9603125,9.55265625 C19.8774375,9.5090625 19.744875,9.41198438 19.6064062,9.3105 C19.2033281,9.01504688 18.5941406,8.56860938 17.99625,8.493 C17.5112812,8.43140625 16.95975,8.52810938 16.6564219,8.80954688 C16.6609687,8.77232813 16.6623281,8.7474375 16.6625156,8.74317188 C16.6625625,8.742375 16.6619062,8.74176563 16.6619062,8.74096875 C16.662,8.729625 16.6588125,8.71903125 16.6530469,8.7095625 C16.6518281,8.7075 16.6504687,8.706 16.6490156,8.704125 C16.6422656,8.69535938 16.633875,8.6878125 16.6227187,8.68373438 C16.6224844,8.68364063 16.6223906,8.68340625 16.6222031,8.6833125 L16.6220156,8.6833125 C16.6105781,8.67928125 16.599,8.6799375 16.5880312,8.6825625 C16.5859219,8.68307813 16.5840937,8.68340625 16.5820312,8.68410938 C16.5713906,8.6878125 16.5621094,8.69404688 16.5549375,8.703 C16.5544687,8.7035625 16.553625,8.70365625 16.5531562,8.70421875 C16.4271562,8.87339063 16.2542812,8.89560938 16.1905781,8.89771875 C15.9631406,8.627625 15.7228125,8.61928125 15.7124531,8.61904688 C15.6776719,8.62134375 15.6555,8.64065625 15.651,8.67084375 C15.6415312,8.73496875 15.6041719,8.79848438 15.572625,8.84254688 C15.3722344,8.59335938 15.0900469,8.61834375 15.0774844,8.619375 C15.0579375,8.62125 15.0406406,8.6325 15.0308437,8.64951563 C15.0210937,8.6664375 15.0201094,8.6870625 15.0282187,8.70496875 C15.0643594,8.78451563 15.0205312,8.85379688 14.9856094,8.89232813 C14.5910625,8.57615625 14.2874531,8.83373438 14.2843125,8.83659375 C14.2611562,8.8569375 14.2567969,8.89139063 14.2743281,8.91679688 C14.3037656,8.95940625 14.2985156,8.98298438 14.2906875,8.998875 C14.2268437,9.12825 13.7637656,9.212625 13.4168906,9.237375 C13.4150625,9.18857813 13.4002031,9.14001563 13.3730156,9.09548438 C13.3299844,9.02526563 13.2619687,8.97576563 13.1864531,8.95954688 C13.1024531,8.94126563 12.9843281,8.96057813 12.9090469,9.0436875 C12.8249062,9.13621875 12.8128125,9.279375 12.8729062,9.46917188 C12.9667969,9.76575 13.2486562,10.0447031 13.4130937,10.1883281 C13.3730625,10.1735625 13.3333594,10.1573906 13.294875,10.1388281 C13.1980781,10.0916719 13.0360312,10.0128281 12.9163125,10.0750781 C12.8558906,10.1062969 12.8172187,10.1845313 12.82425,10.2609844 C12.8278125,10.2992813 12.8491875,10.3852969 12.9612656,10.4402813 L12.8264531,10.8065156 C12.8192344,10.8261094 12.8226562,10.8480938 12.8354531,10.8646406 C12.8482031,10.8811875 12.8685937,10.8901875 12.8894531,10.8878906 L13.16025,10.8608438 L13.1005312,11.0069063 C13.0918125,11.0282813 13.0959375,11.0527031 13.111125,11.07 C13.1263125,11.08725 13.1494687,11.0948906 13.1723437,11.0885625 L13.4662969,11.01075 C13.5422344,11.1667031 13.6435312,11.2212656 13.6482656,11.2237031 C13.6632187,11.231625 13.6804687,11.2327969 13.6961719,11.2273594 C13.7119687,11.2219219 13.7248594,11.2102031 13.73175,11.1950156 L13.7785781,11.0913281 C13.8271406,11.1592969 13.8796406,11.2043906 13.9120781,11.2292344 C13.8922969,11.2455469 13.8728906,11.261625 13.8514219,11.2790625 C13.6473281,11.4451406 13.3678125,11.6726719 13.1669531,12.0615938 C13.0660781,12.2569219 12.9874687,12.5548125 13.0109062,12.8717344 C12.8646094,12.7487344 12.5887031,12.50475 12.3856406,12.2550938 C12.4101094,12.2384063 12.436125,12.2226563 12.4557656,12.2032031 C12.5192812,12.1403438 12.5527969,12.0659063 12.5527969,11.9881875 C12.5527969,11.8267031 12.4344844,11.7130313 12.3246562,11.6759063 C12.2837344,11.662125 12.2444531,11.6600625 12.2085937,11.6661094 C12.2050312,9.01879688 12.5065312,8.20842188 12.5677969,8.071875 C12.5774531,8.05026563 12.57375,8.025 12.5581406,8.00709375 C12.542625,7.98928125 12.5179687,7.98210938 12.4952812,7.98876563 C12.4554844,8.00048438 11.52075,8.29246875 11.5000781,9.83915625 L11.5131094,11.6844844 C11.3862187,11.6710781 11.2657969,11.7072188 11.1955781,11.7820781 C11.1557344,11.8246875 11.1132656,11.8995 11.1368906,12.0139688 C11.1682969,12.1658438 11.2908281,12.2779219 11.4788437,12.3394688 C11.4736875,12.3593906 11.4719062,12.3819375 11.4744375,12.4071563 C11.4773437,12.4368281 11.486625,12.4734844 11.5037812,12.5053594 C11.4808594,12.5327344 11.4583125,12.5717813 11.4571406,12.6199688 C11.4560156,12.666375 11.4745312,12.7099688 11.5121719,12.7499063 C11.4973125,12.7798594 11.4843281,12.8204531 11.4900469,12.8653594 C11.4935156,12.8920781 11.5047656,12.9276094 11.5364531,12.9619219 C11.5275,12.9884063 11.5219687,13.0230469 11.5315312,13.0611563 C11.5412812,13.1005313 11.5657969,13.1343281 11.6020781,13.16325 C11.5090781,13.146 11.4437344,13.1879531 11.4131719,13.2425625 C11.3672344,13.3245 11.3857969,13.4342813 11.4546094,13.4871563 C11.5106719,13.5302344 11.5773281,13.5440156 11.6380781,13.540875 C11.6071406,13.5932344 11.5745156,13.6416094 11.5539375,13.6576875 C11.5405781,13.6680469 11.5320937,13.6834688 11.5306875,13.7002969 C11.5291875,13.717125 11.5348125,13.7338125 11.5462031,13.7464219 C11.5525312,13.7533594 11.685,13.9027031 11.6061562,14.0577656 C11.5817812,14.03775 11.5502344,14.019 11.5126875,14.0114063 C11.4638906,14.0015156 11.4145312,14.0127656 11.369625,14.0436094 C11.3055,14.0875781 11.2816875,14.1804844 11.3117344,14.2696406 C11.33475,14.3378906 11.3921719,14.407875 11.4901406,14.440125 L11.404875,14.5132031 C11.3875781,14.5279688 11.3800312,14.5513125 11.3853281,14.5734844 C11.390625,14.5956094 11.407875,14.6129531 11.43,14.6183438 L11.6736562,14.6777344 C11.6923125,14.7312656 11.7350156,14.834625 11.8063594,14.9059688 C11.81775,14.9173594 11.8394062,14.9237813 11.8555312,14.9237813 C11.8716562,14.9237813 11.8870781,14.9173594 11.8984687,14.9059688 C11.9698125,14.834625 12.0125156,14.7312656 12.0311719,14.6777344 L12.2748281,14.6183438 C12.2969531,14.6129531 12.3142031,14.5956563 12.3195,14.5734844 C12.3247969,14.5512656 12.3172031,14.5280156 12.2999531,14.5132031 L12.2146875,14.440125 C12.3126094,14.4077813 12.3700781,14.3378906 12.3930937,14.2696406 C12.4231406,14.1805313 12.3993281,14.0875313 12.3352031,14.0436094 C12.2902031,14.0126719 12.2405156,14.0016094 12.1920469,14.0114063 C12.1545469,14.019 12.1230937,14.0376563 12.0986719,14.0576719 C12.0210937,13.9034531 12.1524375,13.7532656 12.1587656,13.7462344 C12.1700156,13.7336719 12.1755469,13.7169844 12.1740469,13.7002031 C12.1725469,13.6834219 12.1641562,13.6679531 12.1508906,13.6576406 C12.1304062,13.6416563 12.0978281,13.5933281 12.0668906,13.5410625 C12.1275469,13.541625 12.1939219,13.5305625 12.250125,13.4871094 C12.2624531,13.4776406 12.2712187,13.4646094 12.2802187,13.452 C12.2845312,13.7185313 12.4534687,13.8240938 12.4607812,13.8285 C12.4895625,13.8456563 12.5265,13.8365625 12.5437969,13.8080156 C12.5580937,13.7846719 12.5666719,13.7801719 12.5664844,13.7799375 C12.5878594,13.7811094 12.6477656,13.84425 12.6915937,13.8902813 C12.7630781,13.9654688 12.8521406,14.059125 12.9745781,14.1407344 C13.0643437,14.2005938 13.1490937,14.2241719 13.2270937,14.2241719 C13.4457656,14.2241719 13.6095469,14.039625 13.6794375,13.9447969 C13.8156562,14.03025 13.9700625,14.1044063 14.1460312,14.1645 C14.1520312,14.1665625 14.1581719,14.1673594 14.1642187,14.1675 C14.1852187,14.2356563 14.2081875,14.3043281 14.2318594,14.3723438 C14.3078437,14.5903594 14.3864062,14.8158281 14.3555625,14.9870625 C14.315625,15.2089688 13.9646719,15.2111719 13.7842031,15.1807969 C13.6558594,15.1599375 13.53675,15.19275 13.449375,15.2741719 C13.362,15.3557813 13.317,15.4791563 13.3291875,15.6042656 C13.3376719,15.6916406 13.3814531,15.7327969 13.41675,15.7518281 C13.4977969,15.7954219 13.6074375,15.7627969 13.6669687,15.7384688 C13.8037031,15.8575781 13.9673437,15.8076094 14.06625,15.7446563 C14.1271406,15.7955156 14.1950156,15.8221406 14.2684687,15.8238281 C14.2709062,15.8239219 14.2732969,15.8239219 14.2757344,15.8239219 C14.3867812,15.8239219 14.4801562,15.7654688 14.5268906,15.72975 C14.7621562,15.8249531 14.8966875,15.7539375 14.9201719,15.7394063 C15.1111406,15.5782969 15.0797812,15.2887031 15.0548437,15.1627969 C15.4473281,15.0439219 15.5738906,14.7028594 15.5793281,14.6876719 C15.5869219,14.6663906 15.5820937,14.6426719 15.5668125,14.6259844 C15.5513906,14.6094375 15.5279062,14.6027344 15.5062969,14.6085 C15.3853125,14.6409844 15.2896875,14.6188594 15.2442187,14.5476094 C15.182625,14.4511875 15.2225625,14.2935 15.3459844,14.1460313 C15.3718594,14.1150938 15.3964219,14.0807813 15.420375,14.0451094 C15.7236562,13.9773281 15.9827812,13.8592969 16.2570469,13.7342344 C16.4841094,13.6307344 16.7189062,13.523625 16.998,13.4361563 C17.0762812,13.4115938 17.1522656,13.3971563 17.2272187,13.3875 C17.2045312,13.7165625 17.3733281,13.9333594 17.5390781,14.1419063 C17.584875,14.1994688 17.6306719,14.2569844 17.6721094,14.3169844 C17.8499062,14.5744219 17.8157344,15.1140938 17.8013437,15.1627969 C17.7886875,15.1904531 17.6695781,15.3118125 17.5007344,15.2886094 C17.3604375,15.2699531 17.2033594,15.316125 17.1004219,15.4062656 C17.0269687,15.4705781 16.9865625,15.5532188 16.9865625,15.6389531 C16.9865625,15.7120313 17.0216719,15.7483125 17.0511562,15.7658906 C17.1390937,15.8181563 17.2846875,15.7622344 17.3626875,15.7249219 C17.435625,15.7812188 17.5104375,15.8020313 17.579625,15.8020313 C17.6656875,15.8020313 17.7430312,15.7700156 17.7972656,15.7343906 C17.9601094,15.8372813 18.1306875,15.777 18.22575,15.7121719 C18.3448594,15.7767656 18.440625,15.7640625 18.5023125,15.7396875 C18.522375,15.7318125 18.5407031,15.7218281 18.5573437,15.7106719 C18.5597812,15.7132031 18.5620781,15.716625 18.5645625,15.7187813 C18.6291562,15.774375 18.7487344,15.7447969 18.8252812,15.7170469 C18.8600625,15.7747031 18.9061875,15.800625 18.9425625,15.81225 C19.0550156,15.8480625 19.1841562,15.7864688 19.2491719,15.7479375 C19.3280156,15.8089219 19.4063906,15.8345156 19.484625,15.8235469 C19.5536719,15.8139844 19.6057031,15.7769063 19.6392187,15.744375 C19.6749844,15.7700625 19.7293125,15.8017969 19.8026719,15.8249531 C19.8350156,15.8352188 19.8634687,15.8394375 19.8885,15.8394375 C19.9731094,15.8394375 20.0173125,15.7912031 20.0346562,15.7659844 C20.104875,15.6634219 20.0682656,15.48975 19.9898906,15.3917813 C19.943625,15.3339844 19.9051875,15.2257969 19.9237031,15.1145156 C19.9335937,15.0552188 19.9645312,14.9723438 20.0560312,14.914125 C20.2209844,14.8091719 20.3292656,14.6670469 20.3317969,14.55225 C20.3329219,14.5048125 20.314875,14.4656719 20.2809375,14.4419063 C20.2510312,14.4209531 20.2175156,14.4165 20.1850312,14.4122344 C20.11275,14.4026719 20.02275,14.3908125 19.9081406,14.1792656 C19.8060469,13.9907344 19.9269844,13.6254375 20.0550937,13.238625 C20.1283125,13.0172813 20.2041562,12.7883906 20.2516406,12.5604844 C20.3691562,11.9962969 20.0858906,11.5417969 19.9833281,11.4002344 C20.2685625,11.1196406 20.3881406,10.8503438 20.338875,10.5994219 C20.2846406,10.3228594 20.0268281,10.1333906 19.8225469,10.0551563 C19.5756562,9.9605625 19.1618906,10.0097813 18.7618125,10.0576875 C18.4498125,10.095 18.1548281,10.1304375 17.9776875,10.0928906 C17.9107031,10.078875 17.8630781,10.0498125 17.8362187,10.0063594 C17.7893906,9.93084375 17.8144687,9.83151563 17.8147031,9.83048438 C17.819625,9.81192188 17.8153125,9.79190625 17.8033125,9.77695313 C17.7912187,9.762 17.7712969,9.7524375 17.7535781,9.75426563 C17.6371875,9.75895313 17.5444687,9.82378125 17.4871406,9.8773125 C17.4838125,9.861 17.48325,9.84426563 17.4856406,9.82692188 C17.5013906,9.71020313 17.6358281,9.60815625 17.6371875,9.607125 C17.6532187,9.59503125 17.6624062,9.57571875 17.661375,9.5555625 C17.6604375,9.53545313 17.6496094,9.517125 17.6323594,9.506625 C17.385,9.35596875 17.154,9.46757813 17.0357344,9.57234375 C16.9857656,9.52340625 16.955625,9.44859375 16.9580156,9.37321875 C16.9595156,9.32371875 16.977,9.23278125 17.0759531,9.1801875 C17.1207187,9.156375 17.1591562,9.15117188 17.1940312,9.16396875 C17.2523906,9.18571875 17.2911562,9.2574375 17.3011875,9.2833125 C17.3076094,9.29985938 17.3210156,9.31289063 17.3377969,9.31875 C17.3545781,9.32484375 17.3732344,9.32301563 17.3884687,9.31401563 C17.5238437,9.23503125 17.5672031,9.06909375 17.5809375,8.97703125 C17.6605781,8.99001563 17.7213281,9.02376563 17.7654375,9.07945313 C17.8891875,9.23554688 17.8386094,9.5105625 17.8380937,9.51332813 C17.8341562,9.53390625 17.8410937,9.555 17.856375,9.56925 C17.8716562,9.5835 17.8932187,9.58879688 17.9134687,9.5835 C18.1883437,9.50985938 18.2763281,9.28664063 18.2899219,9.12164063 C18.5001094,9.25251563 18.4858125,9.52321875 18.4850156,9.53596875 C18.4836562,9.55682813 18.4931719,9.57703125 18.5100937,9.58917188 C18.5271094,9.60145313 18.5490937,9.60403125 18.5684531,9.59629688 C18.6690469,9.55546875 18.7247344,9.48914063 18.7555781,9.42782813 C18.946875,9.67875 19.2129375,9.76584375 19.2256406,9.76992188 C19.2481875,9.7768125 19.2727031,9.77057813 19.2887344,9.75314063 C19.3047187,9.73575 19.3092187,9.71067188 19.3002187,9.68882813 L19.2408281,9.544875 C19.2891562,9.57895313 19.33575,9.61476563 19.3835625,9.65165625 C19.5104062,9.74925 19.6414687,9.85017188 19.8306094,9.93904688 C20.0432812,10.0389375 20.1947812,10.0165313 20.2847812,9.98048438 C20.3745469,9.94420313 20.4456562,9.87646875 20.4750469,9.79935938 C20.5091719,9.7096875 20.5221562,9.57675 20.455875,9.47353125 Z M20.361375,9.75646875 C20.3484844,9.79040625 20.3086875,9.84 20.239125,9.86807813 C20.172,9.89526563 20.0552344,9.91078125 19.8822187,9.82940625 C19.7049844,9.74610938 19.5791719,9.6493125 19.4575312,9.55570313 C19.3567031,9.47803125 19.2614062,9.40471875 19.141125,9.33998438 C19.1186719,9.32779688 19.0907344,9.331125 19.0716094,9.348375 C19.0525312,9.36553125 19.0463906,9.39290625 19.0561875,9.416625 L19.1284687,9.59179688 C19.0235156,9.5319375 18.8800781,9.42492187 18.7860469,9.25298438 C18.7727812,9.22860937 18.7448437,9.21646875 18.7177031,9.22326562 C18.6907969,9.23015625 18.672,9.25434375 18.672,9.28209375 C18.672,9.28321875 18.6709687,9.36773437 18.6019219,9.43364063 C18.5810625,9.27182813 18.4923281,9.05442188 18.2484844,8.96840625 C18.2284687,8.96114063 18.2066719,8.96517188 18.1902656,8.97820313 C18.1739062,8.99132813 18.1654219,9.01195312 18.1679062,9.03285937 C18.1694062,9.04551563 18.1985156,9.31621875 17.9687812,9.4335 C17.9749687,9.32001562 17.965125,9.1366875 17.8608281,9.0046875 C17.7845156,8.90821875 17.6728594,8.85623437 17.529,8.85032812 C17.5134375,8.84859375 17.4968906,8.85553125 17.4850312,8.86664063 C17.4730781,8.87770313 17.4661875,8.893125 17.4657187,8.9094375 C17.4657187,8.9113125 17.4587812,9.07415625 17.3760469,9.16851562 C17.3474062,9.12571875 17.3019375,9.07528125 17.2371094,9.05085937 C17.1689531,9.02517187 17.0954531,9.03267188 17.0188594,9.0733125 C16.9070156,9.13270313 16.8405469,9.24079688 16.8364219,9.36979688 C16.8321562,9.50639062 16.89975,9.63796875 17.0088281,9.70504688 C17.0338125,9.72014062 17.0663437,9.7155 17.0860781,9.6935625 C17.0940469,9.6845625 17.2673437,9.49504687 17.4934219,9.57445312 C17.4417187,9.6286875 17.3785781,9.71278125 17.3652187,9.81051563 C17.3547656,9.886125 17.3747812,9.957 17.4244687,10.0211719 C17.4360937,10.0362656 17.4496875,10.0437188 17.4736406,10.0446562 C17.4927656,10.0443281 17.5107187,10.0348594 17.521875,10.01925 C17.5226719,10.018125 17.588625,9.92765625 17.6863125,9.89095312 C17.6859375,9.94265625 17.6950312,10.0089375 17.7321094,10.0694531 C17.7771094,10.1428594 17.8513125,10.1908594 17.9526094,10.2121406 C18.1492031,10.2532031 18.4538437,10.216875 18.7761094,10.178625 C19.1617969,10.1327344 19.5604687,10.0851563 19.7789531,10.168875 C19.9542656,10.236 20.1749062,10.3952813 20.219625,10.6231406 C20.2625625,10.8416719 20.141625,11.0862656 19.8604219,11.3500781 C19.8368437,11.3721562 19.8347344,11.4087656 19.8554531,11.4334219 C19.8594844,11.43825 20.260125,11.9240625 20.132625,12.5359219 C20.0865937,12.757125 20.0119219,12.9826875 19.9396406,13.2007031 C19.7971875,13.6310625 19.6741406,14.0026875 19.8013125,14.2374375 C19.9453125,14.5034063 20.085375,14.5219219 20.1690469,14.5329844 C20.1853594,14.5351406 20.2056562,14.5378125 20.209125,14.5394531 C20.221125,14.5639688 20.1782812,14.6925469 19.9907812,14.8118906 C19.8884531,14.8770469 19.8237656,14.974875 19.8038437,15.094875 C19.7821875,15.2251875 19.8179062,15.3716719 19.8949687,15.468 C19.95375,15.5414062 19.9645781,15.653625 19.9344375,15.6975937 C19.9284844,15.706125 19.9105312,15.7318594 19.8392344,15.7095469 C19.7304844,15.6751406 19.6773281,15.6190781 19.6771875,15.6188437 C19.6643906,15.6047812 19.645875,15.5979844 19.6265625,15.5990156 C19.6074844,15.60075 19.5904219,15.6113437 19.5803906,15.6275625 C19.5799219,15.6282656 19.5375937,15.6938906 19.4678437,15.7036406 C19.4157187,15.7106719 19.3577812,15.6854531 19.2950625,15.6281719 C19.273875,15.6088125 19.2422344,15.6070781 19.21875,15.6235781 C19.1810156,15.6503906 19.0559062,15.72075 18.9794531,15.6968906 C18.9684844,15.6933281 18.9349219,15.6825937 18.9134062,15.6195469 C18.9077812,15.6033281 18.8955937,15.5902031 18.8798906,15.5835 C18.8641406,15.5767969 18.846375,15.5768437 18.8307187,15.5840625 C18.7569375,15.6175781 18.6643125,15.638625 18.6464531,15.6305625 C18.6464531,15.6305625 18.6435469,15.621375 18.6511406,15.5954531 C18.6931406,15.4506562 18.8640937,15.4159219 18.9772969,15.393 C18.9981094,15.3888281 19.0169062,15.3849375 19.0326562,15.381 C19.0451719,15.3779063 19.0594687,15.3750469 19.07475,15.3720469 C19.1861719,15.3499219 19.4179687,15.3037969 19.3888594,15.0122813 C19.3826719,14.9509688 19.3844531,14.8944375 19.386,14.8397344 C19.3912969,14.6602031 19.3962656,14.4906563 19.1141719,14.2875469 C19.0101094,14.2125938 18.9097969,14.1452813 18.8134219,14.0805938 C18.5939531,13.9332656 18.4043906,13.8060938 18.2308125,13.6325156 C17.8725,13.2740156 17.4456562,13.1690156 16.9617656,13.3205156 C16.6755,13.4101875 16.4371875,13.5188437 16.2068438,13.6239844 C15.9751406,13.7297344 15.753,13.8282656 15.5095781,13.8955781 C15.7016719,13.5304687 15.8069063,13.04625 15.78525,12.8128125 C15.7821094,12.7794375 15.7516406,12.7545937 15.7191562,12.7579219 C15.6857812,12.7611094 15.6611719,12.7906406 15.6642656,12.8240156 C15.6891094,13.0905469 15.5236406,13.7449687 15.2530312,14.0683125 C15.094875,14.2573125 15.0512812,14.47125 15.1419844,14.6132812 C15.1982812,14.7013125 15.2939062,14.7434531 15.4141875,14.744625 C15.348375,14.8482188 15.2122969,15.0045 14.9687812,15.0603281 C14.9524687,15.064125 14.9384062,15.0743906 14.9299687,15.088875 C14.9214844,15.1032656 14.919375,15.1206094 14.9241094,15.1366406 C14.9251406,15.1402031 15.0255937,15.4919063 14.8517344,15.6400781 C14.847375,15.6426094 14.7422813,15.6958125 14.5419844,15.6041719 C14.5192969,15.5939062 14.4923906,15.5984063 14.4744375,15.6158906 C14.4734063,15.6166875 14.3750156,15.7089844 14.2713281,15.7026563 C14.2146094,15.7013906 14.1637031,15.6758438 14.1156094,15.6246094 C14.0934844,15.6009844 14.0566875,15.5990625 14.0320312,15.619875 C14.0248125,15.6261094 13.8529219,15.7687969 13.7252813,15.6258281 C13.7065313,15.604875 13.67625,15.5995781 13.6517344,15.6124687 C13.6030313,15.6379219 13.5129375,15.6660937 13.4746875,15.645375 C13.469625,15.6426094 13.4542031,15.6343125 13.4501719,15.5929219 C13.4416875,15.505125 13.4724844,15.4193437 13.5324844,15.3633281 C13.5916406,15.3081094 13.6739531,15.2858437 13.7644219,15.3010312 C14.08275,15.3541875 14.4256406,15.2843437 14.4753281,15.0089062 C14.5117969,14.8063125 14.4278906,14.5655625 14.3467969,14.3326406 C14.2857656,14.1574687 14.222625,13.9762969 14.2197656,13.8295312 C14.2140937,13.529625 14.2782656,13.2465469 14.2789219,13.2436875 C14.2864219,13.2110156 14.266125,13.1784375 14.2333594,13.1709375 C14.2006406,13.1630156 14.1681094,13.1836875 14.1606094,13.2164062 C14.15775,13.2285 14.0922656,13.5164531 14.0983125,13.8319219 C14.0995312,13.8939844 14.1113437,13.9600781 14.1267656,14.0272969 C13.6658906,13.857 13.3581562,13.5919219 13.2152344,13.2366562 C13.04775,12.8202187 13.1427187,12.3735469 13.2749531,12.1174687 C13.4642812,11.7510937 13.7215312,11.54175 13.92825,11.3734687 C14.0254219,11.2944375 14.1124219,11.2232812 14.1745312,11.1488437 C14.1680156,11.2498125 14.0820469,11.4529687 13.9883906,11.615625 C13.975875,11.6372812 13.9779375,11.6643281 13.9935937,11.683875 C14.0091562,11.7034219 14.0353594,11.7112969 14.0590781,11.7038906 C14.11125,11.6875781 14.2055625,11.6416406 14.27475,11.6063906 L14.2942031,11.913 C14.2956094,11.9356875 14.3097187,11.9557031 14.3305781,11.9647969 C14.3515312,11.9739844 14.3758125,11.9705625 14.3932969,11.9560312 C14.4751406,11.8889062 14.5524844,11.7992812 14.6059687,11.7316875 L14.6663906,11.9224219 C14.6721562,11.94075 14.6864062,11.9553281 14.7046875,11.9615625 C14.7230156,11.96775 14.7430312,11.9650312 14.758875,11.9539687 C14.8454062,11.8941094 14.9299219,11.7981562 14.9827031,11.7322969 L15.0980156,11.9160937 C15.1097344,11.93475 15.1305937,11.9467969 15.1524375,11.9445 C15.1743281,11.9434687 15.1940156,11.9306719 15.2038594,11.9109844 L15.3383906,11.641875 L15.451875,11.9503594 C15.4582031,11.9676094 15.4719844,11.9809687 15.489375,11.986875 C15.4957031,11.9890781 15.5023594,11.9901094 15.5089219,11.9901094 C15.5202187,11.9901094 15.5315625,11.9869687 15.5413594,11.9807812 L15.8387344,11.7931875 C15.9958594,11.8805156 16.2231562,11.9168906 16.2334219,11.9185312 C16.25175,11.9209687 16.2707344,11.915625 16.2844219,11.9027344 C16.2981094,11.8899375 16.3050469,11.8714219 16.3033125,11.8527656 L16.279125,11.5993594 L16.542375,11.5953281 C16.5726562,11.5948594 16.5979687,11.5720781 16.6016719,11.5420312 C16.605375,11.5118906 16.5863437,11.4837656 16.5570469,11.4759375 C16.5283125,11.46825 16.4624062,11.4067031 16.4062031,11.3436094 C16.4133281,11.3430937 16.4166094,11.3428125 16.4199844,11.3424844 C16.5713906,11.3540156 19.1414531,11.54325 19.7050312,11.1332812 C20.0184375,10.905375 19.9965469,10.6981406 19.9555781,10.5949687 C19.8710156,10.3818281 19.5634687,10.2458906 19.2567187,10.2849375 C19.13475,10.3005 19.0036406,10.3239375 18.8677031,10.3482656 C18.4830469,10.417125 18.0470625,10.4952656 17.6895937,10.4076562 C17.5501875,10.3734844 17.4306562,10.32825 17.3251875,10.2884062 C17.1466875,10.2208125 17.0176406,10.1719219 16.9187812,10.2309844 C16.8778125,10.2555 16.8480937,10.2954375 16.8282187,10.3538906 C16.7647969,10.2831094 16.6943906,10.153875 16.7873437,9.97889062 C16.799625,9.955875 16.7957344,9.9275625 16.7777812,9.90857812 C16.7742187,9.90478125 16.4218125,9.5270625 16.5876562,9.1125 C16.7365781,8.74017187 17.32275,8.53003125 17.9813437,8.61370312 C18.5479687,8.685375 19.1419219,9.12060937 19.534875,9.40865625 C19.7822344,9.58992187 19.9155,9.68503125 20.0056406,9.69684375 C20.0236875,9.69946875 20.0414531,9.6931875 20.0547656,9.68095312 C20.0679844,9.66871875 20.0751094,9.65104687 20.074125,9.63304687 C20.0740312,9.63225 20.0703281,9.55110937 20.1158906,9.50610937 C20.1407344,9.4815 20.1770156,9.47067187 20.2271719,9.47446875 C20.2860937,9.47835937 20.3287031,9.50015625 20.3539219,9.53939062 C20.3929219,9.60023438 20.3858437,9.69234375 20.361375,9.75646875 Z M18.4519687,15.6290156 C18.3930469,15.6492656 18.327,15.6357187 18.2548125,15.588375 C18.232125,15.5735156 18.202125,15.575625 18.1817344,15.5932969 C18.174375,15.599625 18.0008906,15.74625 17.8344844,15.6121406 C17.8117969,15.5938594 17.7788906,15.5945156 17.7565781,15.6135469 C17.7385312,15.6290625 17.5753125,15.7605469 17.4127031,15.6083437 C17.3934844,15.5904844 17.3650781,15.5868281 17.3422969,15.59925 C17.2596562,15.6439219 17.1442031,15.6803906 17.1132656,15.6617344 C17.1082031,15.6587344 17.1079687,15.6424219 17.1079687,15.6391875 C17.1079687,15.5748281 17.1473437,15.5268281 17.1803437,15.4979531 C17.2570781,15.430875 17.3788594,15.3952969 17.4846562,15.4092187 C17.7147187,15.4399687 17.8824375,15.2821406 17.9129062,15.2109375 C17.9398125,15.148125 17.9841562,14.5553437 17.7720469,14.2482656 C17.7290156,14.1859687 17.6816719,14.12625 17.6341406,14.0665312 C17.4728906,13.8636563 17.3218125,13.6708594 17.3491406,13.3777031 C17.6438437,13.3715156 17.9107969,13.48425 18.1447969,13.7183437 C18.2672812,13.8408281 18.4000781,13.9422187 18.5390625,14.0398594 C18.4851562,14.0952187 18.39825,14.1998437 18.3916875,14.30625 C18.3884531,14.3586094 18.4050469,14.4065156 18.4395469,14.4449062 C18.527625,14.5427344 18.6285,14.5381406 18.6951562,14.5349062 C18.7066406,14.53425 18.7220625,14.5334063 18.7332656,14.5342031 C18.71625,14.5754063 18.6532969,14.6614687 18.60975,14.7208594 C18.4892812,14.8852031 18.4113281,14.9995313 18.4245937,15.088125 C18.4336875,15.1485469 18.4574062,15.2396719 18.4804219,15.32775 C18.5023125,15.41175 18.5354062,15.5386875 18.5338594,15.56325 C18.5307656,15.5724844 18.5034844,15.6111562 18.4519687,15.6290156 Z M18.7077187,14.7924844 C18.8244375,14.6332031 18.8837812,14.5469062 18.8494219,14.4782813 C18.8142187,14.4077344 18.7421719,14.4108281 18.6895312,14.4135 C18.633,14.4161719 18.579375,14.4185625 18.529875,14.3635313 C18.5169844,14.3492344 18.5117812,14.3338594 18.5129531,14.3137969 C18.5171719,14.2444219 18.5954531,14.154375 18.6405,14.1101719 C18.675375,14.1338438 18.7100156,14.1574688 18.7455937,14.1813281 C18.8409844,14.2453125 18.940125,14.311875 19.0430156,14.3859844 C19.27275,14.5514062 19.2694219,14.6646563 19.2644531,14.8360313 C19.2628125,14.8918594 19.2608906,14.9551406 19.267875,15.0242344 C19.2847031,15.1929375 19.1885625,15.2253281 19.0509375,15.2527031 C19.0335469,15.2561719 19.0173281,15.2594062 19.0030312,15.2629688 C18.9887813,15.2665313 18.9718125,15.2699063 18.9529688,15.2737969 C18.8652188,15.2916094 18.7249219,15.3215625 18.6274219,15.4125469 C18.6194063,15.3796875 18.6095625,15.3415312 18.5979375,15.297 C18.5758125,15.2119219 18.5528438,15.1239844 18.5447344,15.0699375 C18.5379375,15.0242812 18.6484219,14.8735313 18.7077187,14.7924844 Z M12.5540625,13.6592813 C12.5288437,13.6619531 12.5059219,13.6721719 12.4849219,13.6902656 C12.4490156,13.6502344 12.4009219,13.5723281 12.4009219,13.4424844 C12.4009219,13.2493594 12.3462656,13.1534063 12.3115781,13.1115 C12.32025,13.0990313 12.3285937,13.0864219 12.3348281,13.0726875 C12.361875,13.0127344 12.3541875,12.9503438 12.3119531,12.8865938 C12.3316406,12.8453906 12.3452344,12.789 12.3283125,12.7321406 C12.3529219,12.690375 12.3719531,12.6252188 12.3523594,12.5454844 C12.3675469,12.5255156 12.3862969,12.4959844 12.4005,12.4587656 C12.6796406,12.7672969 13.0129219,13.03125 13.0354219,13.0489688 C13.0511719,13.1267344 13.0713281,13.2046406 13.1023594,13.28175 C13.1971875,13.517625 13.357875,13.7156719 13.5785625,13.8766875 C13.4750625,14.0172187 13.2814687,14.19975 13.0419375,14.0397656 C12.93075,13.9656562 12.8469375,13.8774844 12.779625,13.8066094 C12.6936562,13.7162812 12.6307031,13.65075 12.5540625,13.6592813 Z M12.0459375,14.1945 C12.0584531,14.2088906 12.0764531,14.2161094 12.0961406,14.2150781 C12.115125,14.2136719 12.1324219,14.2033594 12.1427344,14.1873281 C12.1492969,14.1772031 12.1809375,14.1377344 12.2161406,14.1306094 C12.2262656,14.1284063 12.2427187,14.1276094 12.2665781,14.1438281 C12.2824687,14.1548438 12.2914219,14.1912188 12.2779687,14.2309219 C12.2539219,14.3021719 12.1781719,14.3414063 12.0743438,14.3368125 C12.0486563,14.3346563 12.0245156,14.350875 12.0149531,14.3750156 C12.0053906,14.3991563 12.0121875,14.4267188 12.031875,14.4435938 L12.1309687,14.5285313 L11.9693437,14.5679063 C11.9479219,14.5731094 11.931,14.5895625 11.9251406,14.6108438 C11.9249062,14.611875 11.9007187,14.6979844 11.8524844,14.7706875 C11.8041562,14.6980313 11.7799687,14.611875 11.7797344,14.6108438 C11.773875,14.5895625 11.7569531,14.5731094 11.7355312,14.5679063 L11.5739062,14.5285313 L11.6729062,14.4435938 C11.6925937,14.4266719 11.6993906,14.3991563 11.6898281,14.3750156 C11.6801719,14.350875 11.6542969,14.3344688 11.6304375,14.3368125 C11.5253437,14.3417344 11.4508594,14.3021719 11.4268594,14.2310156 C11.4134062,14.1912188 11.4223594,14.1548438 11.43825,14.143875 C11.4617344,14.1278438 11.4780469,14.1285938 11.4883125,14.1306094 C11.5223906,14.1372656 11.5532344,14.1741094 11.562,14.187375 C11.5722656,14.2034063 11.5896094,14.2137188 11.6085937,14.215125 C11.6266875,14.2159219 11.6462344,14.2087969 11.6587969,14.1945469 C11.812875,14.0184844 11.7470625,13.8205781 11.671125,13.7095313 C11.72925,13.6369219 11.7887344,13.5206719 11.8024219,13.4932969 C11.812875,13.4724844 11.8068281,13.4482969 11.792625,13.4297813 C11.7783281,13.4114531 11.7508594,13.4036719 11.7285,13.4081719 C11.694,13.4154375 11.589,13.4374219 11.5286719,13.3909219 C11.5077187,13.3748906 11.5030312,13.3308281 11.5192031,13.3020938 C11.5246406,13.2922031 11.5418437,13.262625 11.6048437,13.2865781 C11.6647969,13.3096875 11.7508125,13.3345781 11.804625,13.2861094 C11.8168594,13.2750937 11.8239844,13.2620625 11.8291406,13.2487031 C11.8450781,13.2511406 11.86125,13.2519844 11.8774687,13.2533906 C11.8826719,13.2650625 11.8894687,13.2764063 11.9002969,13.2861094 C11.9542969,13.3346719 12.0402656,13.3096875 12.100125,13.2865781 C12.1634062,13.2623906 12.1802344,13.2922031 12.1857656,13.3020938 C12.2018906,13.3307813 12.1971562,13.3748438 12.1761094,13.3909688 C12.1158281,13.4376094 12.0109219,13.4153906 11.9686875,13.4065313 C11.9458125,13.4017969 11.9226562,13.4107031 11.9085937,13.4292188 C11.8945312,13.4476406 11.8921406,13.4724844 11.9025,13.4932031 C11.9161875,13.5205781 11.9756719,13.6368281 12.0337969,13.7094375 C11.9577656,13.8205313 11.8919531,14.0184844 12.0459375,14.1945 Z M12.2429531,12.4872656 C12.2250937,12.5040469 12.2190937,12.529875 12.2276719,12.5528438 C12.2575781,12.6325781 12.2198437,12.6769219 12.2162812,12.6808594 C12.1969687,12.7000781 12.1929375,12.7297969 12.2062969,12.7536094 C12.2312812,12.7980469 12.1907812,12.8537344 12.1907344,12.853875 C12.1733437,12.87675 12.1741875,12.9085312 12.1928906,12.9303281 C12.2406562,12.9860625 12.2295,13.0108125 12.2241094,13.0227187 C12.2069531,13.0608281 12.1700156,13.0905937 12.1144219,13.1110781 C12.0576562,13.1319844 11.9913281,13.1382656 11.9266875,13.1363906 C11.9242969,13.1365312 11.9219062,13.1361562 11.9196094,13.1365312 C11.8429687,13.1334844 11.7693281,13.1180625 11.7182344,13.0939687 C11.6909531,13.0811719 11.6567812,13.0600312 11.6495156,13.0326094 C11.6429531,13.0078594 11.6600156,12.9829219 11.6599687,12.9829219 C11.6699531,12.9696562 11.6740312,12.952875 11.6713594,12.9365156 C11.6685937,12.9201562 11.6592656,12.9055781 11.6455781,12.89625 C11.6139375,12.8747344 11.6114062,12.8564062 11.6106094,12.8503594 C11.6067187,12.8219531 11.6290312,12.7882031 11.6368594,12.7789687 C11.6480156,12.7662187 11.6533125,12.7494844 11.6515781,12.7326094 C11.6498437,12.7158281 11.641125,12.7005 11.627625,12.690375 C11.6091094,12.6764531 11.5782187,12.6493125 11.5785904,12.6231562 C11.5789687,12.59625 11.6098125,12.5687344 11.6201719,12.5614687 C11.6362969,12.5505 11.6446875,12.5313281 11.64525,12.511875 C11.6458125,12.4923281 11.6354531,12.4726406 11.6199375,12.4607813 C11.6041406,12.4486406 11.5891406,12.3897188 11.5961719,12.3694219 C11.6697187,12.3835781 11.7495469,12.3922969 11.8369219,12.3930937 C11.8414219,12.3930937 11.8459219,12.3931875 11.8504219,12.3931875 C12.0150469,12.3931875 12.1591875,12.3634687 12.2766562,12.3135938 C12.2839219,12.3227344 12.291375,12.3317812 12.2988281,12.340875 C12.3000937,12.427875 12.2451094,12.4850625 12.2429531,12.4872656 Z M11.8380469,12.2716875 C11.5094531,12.2686875 11.2918125,12.1631719 11.2558125,11.9893594 C11.245125,11.9377031 11.2544531,11.8970625 11.2842656,11.8651406 C11.3213437,11.8254375 11.3899219,11.8021875 11.4638437,11.8021875 C11.4797344,11.8021875 11.4958594,11.8033125 11.5119844,11.8055156 C11.5290469,11.8078125 11.5319062,11.81325 11.5329375,11.8152656 C11.5456875,11.8391719 11.5290469,11.9078906 11.5062187,11.9546719 C11.4916875,11.9843906 11.5035469,12.0202969 11.5328906,12.0354844 C11.7494062,12.1472344 12.0627656,12.0982031 12.1451719,12.0607969 C12.1550625,12.0562969 12.1850156,12.04275 12.1932656,12.0098438 C12.1997344,11.9840625 12.1911094,11.9615156 12.1827656,11.9397188 C12.1678125,11.9003906 12.15225,11.8598437 12.196125,11.8024219 C12.2195156,11.7716719 12.2706094,11.785875 12.2856562,11.7910312 C12.3580781,11.8155469 12.4313437,11.8911562 12.4313437,11.9882812 C12.4313437,12.0335156 12.4107656,12.076875 12.3702188,12.1170938 C12.270375,12.216 12.0704531,12.2708906 11.8380469,12.2716875 Z M12.0613125,11.9610937 C11.9802656,11.9812031 11.7909844,12.0034687 11.63925,11.9492344 C11.6570625,11.8955156 11.6720625,11.8180313 11.640375,11.7582656 C11.6390156,11.7556875 11.6367187,11.7529219 11.6350781,11.75025 L11.6215781,9.839625 C11.6366719,8.7058125 12.1604531,8.291625 12.4060781,8.15957812 C12.2960156,8.50279687 12.07875,9.472125 12.0872344,11.750625 C12.0322969,11.83725 12.0450937,11.91375 12.0613125,11.9610937 Z M13.7172187,10.9323281 L13.6534687,11.0732344 C13.624125,11.0422969 13.587375,10.9924219 13.557375,10.9164844 C13.5460781,10.8878438 13.5152812,10.8718125 13.4853281,10.8801094 L13.2590625,10.9399687 L13.3108594,10.8133594 C13.3189219,10.7935781 13.3160625,10.771125 13.3032656,10.7540625 C13.2906094,10.7369063 13.2693281,10.7273438 13.2486094,10.7299219 L12.9739688,10.7573438 L13.0759219,10.4804063 C13.1972344,10.5158438 13.497375,10.5968906 13.8055313,10.6289063 L13.760625,10.6848281 C13.7444062,10.7050781 13.7428125,10.73325 13.7565,10.7551406 C13.7702812,10.7770313 13.7964375,10.7878594 13.8215625,10.7820469 C13.8247969,10.7813438 14.1509531,10.7074688 14.3729531,10.7391094 C14.3980781,10.7422031 14.4226875,10.73025 14.434875,10.708125 C14.4470625,10.6859063 14.4441094,10.6584375 14.4275156,10.6393125 C14.2979062,10.4893594 13.9495312,10.0708594 13.8945,9.93721875 C13.8841406,9.912 13.858125,9.89765625 13.8312187,9.89995313 C13.8041719,9.9031875 13.7825625,9.924 13.7782969,9.95090625 L13.7478281,10.1452031 C13.7014219,10.1144531 13.6396406,10.0641563 13.5878437,9.98971875 C13.5729844,9.96834375 13.5464062,9.95873438 13.5213281,9.96609375 C13.4963437,9.97321875 13.4787187,9.9954375 13.4773594,10.0213594 C13.4770312,10.0273125 13.4760938,10.0508438 13.4775,10.0829063 C13.3211719,9.94378125 13.0700625,9.69 12.9885469,9.43242188 C12.9430781,9.28889063 12.9466406,9.18276563 12.9988125,9.12534375 C13.0444219,9.07528125 13.1208281,9.06984375 13.1608594,9.07828125 C13.2034219,9.087375 13.2439688,9.11751563 13.2692812,9.15885938 C13.2940312,9.19935938 13.3015312,9.2446875 13.2903281,9.28664063 C13.2853594,9.30539063 13.2895312,9.32540625 13.3018125,9.3405 C13.314,9.35559375 13.3330312,9.3643125 13.3520156,9.36295313 C13.5051094,9.35535938 14.2750781,9.3046875 14.3995781,9.05245313 C14.4169687,9.01720313 14.4290625,8.96498438 14.403375,8.90109375 C14.4848438,8.85459375 14.6860781,8.78564063 14.94675,9.01860938 C14.9680313,9.0376875 14.9999063,9.0391875 15.0232031,9.02226563 C15.08325,8.97815625 15.1734844,8.87207813 15.1623281,8.74303125 C15.253125,8.75442188 15.4093125,8.80035938 15.5176406,8.97496875 C15.527625,8.99095313 15.5443125,9.00140625 15.5629687,9.003375 C15.5814844,9.00520313 15.6000469,8.99854688 15.613125,8.98504688 C15.6179531,8.98007813 15.7164844,8.87625 15.7572187,8.74795313 C15.8297344,8.764875 15.9734531,8.8194375 16.1139844,8.99596875 C16.1244844,9.0091875 16.14,9.01739063 16.1568281,9.01875 C16.1627812,9.01884375 16.2400781,9.0234375 16.3399687,8.99423438 C16.0333125,9.2413125 15.5348437,9.29184375 15.5282812,9.2925 C15.5059219,9.29465625 15.4865156,9.30885938 15.4778437,9.32957813 C15.4692187,9.35029688 15.4726875,9.37420313 15.4869375,9.3915 L15.5734687,9.49701563 C15.2303437,9.5034375 15.0791719,9.37926563 15.0778594,9.37809375 C15.0556406,9.35878125 15.0229688,9.3583125 14.9999531,9.37645313 C14.9770313,9.394875 14.9705156,9.42698438 14.9845312,9.45285938 L15.0597187,9.59175 C14.9248125,9.56353125 14.8010156,9.50057813 14.6972812,9.44765625 C14.5665469,9.38104688 14.4631875,9.32873438 14.372625,9.35559375 C14.3049375,9.37584375 14.2555781,9.43696875 14.2438125,9.51520313 C14.2310625,9.600375 14.2657969,9.68175 14.3344219,9.72754688 C14.3693906,9.75089063 14.4092344,9.76228125 14.4493125,9.76228125 C14.5059375,9.76228125 14.563125,9.73959375 14.6080312,9.69576563 C14.6447344,9.65995313 14.6668125,9.61645313 14.6732813,9.57178125 C14.8101094,9.6410625 14.9765625,9.7194375 15.1668281,9.72759375 C15.1882031,9.73021875 15.2093906,9.71770313 15.2209219,9.69914063 C15.2325469,9.680625 15.23325,9.65723438 15.2227969,9.63801563 L15.1830938,9.56470313 C15.2978438,9.603375 15.4682813,9.6343125 15.7018125,9.61096875 C15.724125,9.60876563 15.7433438,9.59451563 15.7519687,9.57379688 C15.7605,9.55307813 15.7569375,9.52935938 15.7427812,9.51201563 L15.6496875,9.398625 C15.8402812,9.36684375 16.2315937,9.274875 16.4785312,9.0354375 C16.4379375,9.147375 16.3717031,9.2626875 16.262625,9.325875 C16.2473437,9.33473438 16.2368437,9.35001563 16.2335156,9.3673125 C16.2302813,9.38470313 16.234875,9.40284375 16.2458437,9.41667188 C16.2479062,9.41929688 16.4444063,9.67575 16.3831406,10.3460625 C16.2707812,10.2883125 16.0546875,10.1510625 15.9325312,9.90328125 C15.9195469,9.87703125 15.8900625,9.86395313 15.8611875,9.87182813 C15.8329688,9.87998438 15.8145937,9.90717188 15.8175937,9.93642188 C15.82575,10.0151719 15.8323125,10.1410313 15.8251875,10.2295781 C15.7595625,10.1825156 15.6676406,10.1056406 15.6296719,10.0215938 C15.6189844,9.99778125 15.5943281,9.98292188 15.5683594,9.98615625 C15.5424375,9.9886875 15.5210625,10.0074375 15.5151562,10.0327969 C15.4998281,10.0988906 15.4793437,10.1755313 15.4627031,10.2275156 C15.4021875,10.1896406 15.3219375,10.1297813 15.2885625,10.0682344 C15.2756719,10.0444219 15.248625,10.0319531 15.2219062,10.0379531 C15.1954219,10.0438125 15.1761094,10.0666406 15.1745156,10.0937813 C15.1705781,10.1640938 15.1612969,10.2725156 15.1494375,10.3474688 C15.0936094,10.3132031 15.0150937,10.2615938 14.9570156,10.2090938 C14.9412656,10.1948438 14.9192344,10.1895469 14.8989844,10.195875 C14.8786406,10.201875 14.8629844,10.2180938 14.8575469,10.2386719 L14.826375,10.3570781 C14.7742031,10.3267969 14.7018281,10.2784688 14.6545312,10.2207188 C14.6333437,10.1947031 14.595,10.1909063 14.569125,10.2121875 C14.5431094,10.233375 14.5393125,10.2716719 14.5605937,10.2975938 C14.6595469,10.4185313 14.8331719,10.4984063 14.8405312,10.5016875 C14.8568906,10.5090469 14.8754062,10.5088125 14.8917187,10.5013125 C14.9079375,10.493625 14.9198906,10.4791875 14.9244375,10.4618438 L14.9511094,10.3605469 C15.0495469,10.4338594 15.1549687,10.4916563 15.1605,10.4946563 C15.1757812,10.5028594 15.1937812,10.504125 15.2101875,10.4985469 C15.2265469,10.4925938 15.239625,10.4800313 15.246,10.4639063 C15.2638125,10.419375 15.2762812,10.3280625 15.2843437,10.2471563 C15.3673125,10.3192031 15.4604062,10.3663125 15.4661719,10.3691719 C15.494625,10.3833281 15.5289844,10.3732969 15.5453906,10.3460625 C15.5625469,10.317375 15.5829375,10.2529688 15.5999531,10.1919375 C15.6983437,10.30275 15.8304844,10.3786406 15.8378437,10.3828594 C15.853125,10.3914844 15.8715937,10.3929844 15.888375,10.3872188 C15.9050625,10.3812188 15.9182812,10.3682344 15.9246094,10.3516406 C15.9429375,10.3035 15.9490312,10.2273281 15.9495937,10.1524219 C16.0652344,10.29375 16.1991094,10.3837031 16.2937031,10.4359219 C16.2937031,10.4374219 16.293,10.4387344 16.2931406,10.4402344 C16.2937969,10.4509219 16.3070625,10.6542188 16.3418437,10.8163594 C16.2398906,10.778625 16.0760625,10.7017031 15.9246094,10.5591563 C15.9100781,10.545375 15.8895,10.5398438 15.8700469,10.5440625 C15.8504531,10.5483281 15.8342344,10.5620156 15.8266875,10.5805313 L15.7799531,10.6959375 L15.584625,10.5542344 C15.567375,10.5417188 15.5446875,10.5391406 15.5249062,10.5476719 C15.5052187,10.5561563 15.4914375,10.5743438 15.4886719,10.5955781 L15.4710469,10.7310469 C15.4285781,10.7002969 15.3776719,10.6596563 15.34125,10.6187344 C15.3187969,10.5935156 15.2802656,10.5913594 15.2555156,10.6136719 C15.2304375,10.6359844 15.2281406,10.6743281 15.2504531,10.6994063 C15.3365156,10.7962031 15.4808906,10.8844688 15.4869844,10.8880781 C15.5046094,10.8989063 15.5263594,10.8997969 15.5447812,10.8909375 C15.5633437,10.8820781 15.5760937,10.8644531 15.5787656,10.8440625 L15.5958281,10.7125313 L15.7713281,10.8398438 C15.786375,10.8507656 15.8057344,10.854 15.8236875,10.8490313 C15.8417344,10.843875 15.8562656,10.83075 15.8632969,10.8135 L15.9070312,10.7054531 C16.0194375,10.7978906 16.1311875,10.8584531 16.222125,10.898625 C16.2225469,10.9364531 16.2285,11.0972813 16.2964219,11.2241719 C16.1851406,11.2212656 16.0107656,11.2017188 15.8492812,11.1209531 C15.822,11.1070313 15.7881562,11.116125 15.7712344,11.1422344 L15.6832969,11.2777969 L15.3195,11.0337656 C15.3039844,11.0232656 15.2844844,11.0204063 15.2669062,11.0265 C15.2491875,11.0321719 15.2350312,11.0458125 15.2286094,11.0632969 L15.1726875,11.2155938 C15.1057031,11.1404531 15.0097031,11.03475 14.9743594,11.0064375 C14.9496094,10.9865156 14.9135625,10.9892813 14.8918594,11.012625 C14.8908281,11.01375 14.8058906,11.1047344 14.704125,11.1754688 L14.634,10.9871719 C14.6222812,10.9558594 14.5871719,10.9397344 14.5558594,10.9514063 C14.5244062,10.963125 14.5084219,10.9981406 14.5200937,11.0295469 L14.6162812,11.2876875 C14.6224687,11.3042813 14.6355937,11.3173594 14.6521875,11.3234531 C14.6687344,11.3295469 14.6872031,11.3281875 14.7027187,11.3195625 C14.797875,11.2667344 14.8868437,11.1878906 14.9375156,11.139 C14.9938125,11.197125 15.0885,11.3031094 15.1487344,11.3722031 C15.1628906,11.3883281 15.1844062,11.3961094 15.2055,11.3919844 C15.2265937,11.3880938 15.2440781,11.3734219 15.2515312,11.3532188 L15.3159844,11.1777188 L15.6667969,11.4130781 C15.6769219,11.4197813 15.6886875,11.4233438 15.7006406,11.4233438 C15.7046719,11.4233438 15.7087969,11.4229688 15.7128281,11.4220781 C15.7288125,11.4188438 15.7427344,11.4093281 15.7515937,11.3956406 L15.8443594,11.2525781 C16.0002656,11.3198906 16.1562656,11.3398594 16.2681562,11.3445938 C16.2675,11.3590313 16.2714375,11.3737969 16.2813281,11.3858438 C16.2960937,11.4039375 16.3263281,11.4397031 16.3628437,11.4767344 L16.2109219,11.4790313 C16.194,11.4792656 16.1779219,11.486625 16.166625,11.4992813 C16.1553281,11.5118438 16.1497969,11.528625 16.1513437,11.5455469 L16.1740312,11.7832969 C16.0902187,11.7644531 15.9571875,11.7279375 15.8705625,11.6712188 C15.8504531,11.6580938 15.8249531,11.6577656 15.8048437,11.6705625 L15.5393437,11.8380469 L15.4033125,11.4681563 C15.3949219,11.445375 15.373875,11.4298125 15.3496875,11.4284531 C15.32325,11.4265781 15.3028125,11.4402188 15.2919375,11.4619688 L15.142875,11.7600469 L15.0383906,11.5935 C15.0275625,11.57625 15.0088125,11.5655625 14.9884687,11.5650469 C14.9682187,11.565375 14.949,11.5742344 14.9372344,11.5908281 C14.9362031,11.5923281 14.8516875,11.7117656 14.7547031,11.8009688 L14.6854219,11.5821563 C14.6783906,11.5600313 14.6594062,11.5438125 14.6363906,11.5403906 C14.6132344,11.5372969 14.5905,11.5469531 14.577375,11.5661719 C14.5764375,11.5675781 14.501625,11.6763281 14.4066094,11.7764531 L14.3894531,11.5055156 C14.3881875,11.4849375 14.3764687,11.466375 14.358375,11.4563438 C14.3403281,11.4462188 14.3183437,11.4460781 14.3001562,11.455875 C14.2740469,11.4698906 14.2257187,11.4952031 14.1751875,11.5201875 C14.2466719,11.3718281 14.3276719,11.1634219 14.2816406,11.0560313 C14.2679062,11.0239688 14.2420781,11.0027344 14.2111406,10.9896094 C14.2092187,10.98825 14.2079531,10.9863281 14.2058437,10.9852031 C14.2029844,10.9837031 14.1999375,10.9835625 14.1969844,10.9825313 C14.1949219,10.9819219 14.1935625,10.9802813 14.1914062,10.9797656 C14.1890156,10.9791563 14.1871406,10.9793906 14.1847969,10.978875 C14.1835312,10.9786875 14.1823594,10.9784531 14.1810937,10.9783594 C14.0987344,10.9612031 14.0425781,10.9842188 14.0101406,11.0078438 C13.977,11.0320313 13.9551562,11.0642344 13.9408594,11.0952188 C13.903125,11.05875 13.8575156,11.0044219 13.8280781,10.9342969 C13.81875,10.9119844 13.7970937,10.8973594 13.7729531,10.8970313 C13.7491875,10.8949688 13.72725,10.9103437 13.7172187,10.9323281 Z M13.2553125,10.2545625 C13.5836719,10.4128125 13.987125,10.4303438 14.0974219,10.4323594 C14.1502031,10.4979375 14.2016719,10.5605156 14.2430156,10.6097344 C14.1420937,10.6101094 14.0392031,10.6215 13.9574531,10.6337813 L13.9718437,10.6158281 C13.9860937,10.5981094 13.9891406,10.5739219 13.98,10.5531094 C13.9708125,10.5323906 13.95075,10.5184688 13.9281094,10.5171094 C13.51575,10.4925938 13.0616719,10.3492969 13.0571719,10.3477969 C13.0569844,10.34775 13.0567969,10.3477969 13.0566562,10.34775 C13.0566562,10.34775 13.0564687,10.3476094 13.0563281,10.3475625 C12.9886406,10.3271719 12.9492656,10.2923438 12.9452812,10.2497344 C12.9421875,10.216125 12.9608437,10.18875 12.9721875,10.1828906 C13.0376719,10.1490469 13.1755781,10.2158906 13.2553125,10.2545625 Z M13.8291562,10.2888281 C13.8422812,10.2794063 13.8519375,10.2659063 13.8545156,10.2497344 L13.8723281,10.135875 C13.90875,10.1888438 13.9528594,10.2474844 13.998375,10.3065469 C13.9513594,10.3032656 13.8935156,10.2977344 13.8291562,10.2888281 Z M13.7712187,10.3522969 C13.7272076,10.3404307 13.6820126,10.3266376 13.6361213,10.3113232 C13.6401603,10.2831285 13.6378622,10.2531082 13.6285307,10.2259277 C13.6259541,10.2184226 13.6235864,10.2105119 13.6212187,10.2022969 C13.6783915,10.270451 13.7311073,10.319234 13.7712187,10.3522969 Z M14.5232344,9.60857813 C14.495625,9.63576563 14.4471562,9.6564375 14.4018281,9.62629687 C14.3670938,9.60314062 14.3595,9.56296875 14.3639531,9.5330625 C14.3675156,9.50971875 14.3809687,9.47976562 14.4074531,9.47184375 C14.4125156,9.47034375 14.4182812,9.46964062 14.4246094,9.46964062 C14.4537187,9.46964062 14.4952969,9.48492187 14.5427812,9.50667187 L14.542875,9.5068125 C14.573625,9.55551562 14.5319531,9.60014062 14.5232344,9.60857813 Z M16.8325781,10.5177656 C16.8499687,10.5288281 16.8719531,10.5301875 16.8908437,10.5214688 C16.9095937,10.5127031 16.9225781,10.4948906 16.92525,10.4743125 C16.935375,10.3979063 16.9540312,10.3510313 16.9808437,10.3349531 C17.0292656,10.3059375 17.1464531,10.350375 17.2820156,10.4017031 C17.3852812,10.4408437 17.5139062,10.4895 17.6604375,10.5254062 C18.0427969,10.6190625 18.4923281,10.538625 18.8888437,10.4676094 C19.0228125,10.4436563 19.1518594,10.4205469 19.2718594,10.4052187 C19.5227344,10.37325 19.7784844,10.4782969 19.8424687,10.6395469 C19.8907969,10.7612344 19.8165469,10.901625 19.6333594,11.0347969 C19.1256094,11.4040313 16.6942031,11.2400625 16.4463281,11.2222969 C16.380375,11.1594844 16.3545937,11.031 16.3469062,10.9462969 C16.3869844,10.9590937 16.4138906,10.9654687 16.4173125,10.9662187 C16.4214375,10.9671094 16.4256094,10.9674844 16.4298281,10.9674844 C16.4472187,10.9674844 16.4640937,10.9599844 16.4757656,10.9465312 C16.4901562,10.92975 16.4944219,10.9065937 16.4868281,10.885875 C16.4489531,10.7825156 16.4281406,10.5915469 16.4194687,10.4937656 C16.4355,10.4981719 16.4525156,10.4965781 16.4667656,10.4877656 C16.4825625,10.4780156 16.4930156,10.4616094 16.4952187,10.4431406 C16.5670312,9.83292187 16.4417344,9.514875 16.3761094,9.39567187 C16.3920469,9.38348437 16.407,9.37035937 16.4212031,9.35667187 C16.4256094,9.64509375 16.5928594,9.8769375 16.6612969,9.9598125 C16.5390937,10.236375 16.7164219,10.444125 16.8325781,10.5177656 Z" id="Shape" fill="#464655" fill-rule="nonzero"></path>
                <path d="M10.7404219,7.39040625 C10.7168438,6.901125 10.6006875,6.10978125 10.2293906,6.0916875 C10.0201406,6.08203125 9.91701563,6.21084375 9.91275,6.21642187 C9.90046875,6.2323125 9.88040625,6.24126562 9.86085938,6.24023437 L9.71896875,6.23170312 L9.744375,6.32573437 C9.75046875,6.34842187 9.74278125,6.37279687 9.72482813,6.38798437 C9.71620313,6.39525 9.51557813,6.56948437 9.6376875,6.79139062 C9.7306875,6.96046875 10.0312969,7.04048437 10.2507656,7.09889062 C10.3487344,7.125 10.4334375,7.14754687 10.4884219,7.17440625 C10.5863438,7.22226562 10.6721719,7.30307812 10.7404219,7.39040625 Z" id="Shape" fill="#FFD250" fill-rule="nonzero"></path>
                <path d="M10.23525,5.970375 C10.0217344,5.95992187 9.88884375,6.066375 9.838875,6.11714062 L9.64204688,6.105375 C9.62339063,6.103875 9.60370313,6.11259375 9.591375,6.1276875 C9.57904688,6.14278125 9.5746875,6.1629375 9.57975,6.181875 L9.61753125,6.32207812 C9.5210625,6.42051562 9.40757813,6.62503125 9.53123438,6.84989062 C9.64921875,7.06453125 9.97884375,7.15223437 10.2195,7.21626562 C10.311375,7.2406875 10.3907344,7.26182812 10.4350781,7.28348437 C10.5773438,7.35309375 10.691625,7.51134375 10.7511094,7.63626563 C10.7613281,7.65778125 10.7828906,7.67090625 10.8059063,7.67090625 C10.8102656,7.67090625 10.814625,7.6704375 10.8190313,7.6695 C10.8466406,7.66340625 10.8663281,7.63903125 10.8666563,7.6108125 C10.8672656,7.54509375 10.875,6.0015 10.23525,5.970375 Z M10.2507187,7.09879687 C10.03125,7.0404375 9.73064062,6.96042187 9.63764062,6.79129687 C9.51553125,6.56939062 9.71615625,6.39515625 9.72478125,6.38789062 C9.74273437,6.37270312 9.75042187,6.34832813 9.74432812,6.32564062 L9.71892187,6.23160937 L9.8608125,6.24014062 C9.88035937,6.24117187 9.90042187,6.23221875 9.91270312,6.21632812 C9.91696875,6.21079687 10.0200937,6.08198437 10.2293437,6.09159375 C10.6006406,6.1096875 10.7167969,6.90103125 10.740375,7.3903125 C10.672125,7.30298437 10.5862969,7.22217187 10.4883281,7.17426562 C10.4334375,7.14745313 10.3487344,7.12490625 10.2507187,7.09879687 Z" id="Shape" fill="#464655" fill-rule="nonzero"></path>
                <path d="M20.8927969,7.39040625 C20.916375,6.901125 21.0325312,6.10978125 21.4038281,6.0916875 C21.6130781,6.08203125 21.7162031,6.21084375 21.7204687,6.21642187 C21.73275,6.2323125 21.7528125,6.24126562 21.7723594,6.24023437 L21.91425,6.23170312 L21.8888437,6.32573437 C21.88275,6.34842187 21.8904375,6.37279687 21.9083906,6.38798437 C21.9170156,6.39525 22.1176406,6.56948437 21.9955312,6.79139062 C21.9025312,6.96046875 21.6019219,7.04048437 21.3824531,7.09889062 C21.2844844,7.125 21.1997812,7.14754687 21.1447969,7.17440625 C21.046875,7.22226562 20.9610469,7.30307812 20.8927969,7.39040625 Z" id="Shape" fill="#FFD250" fill-rule="nonzero"></path>
                <path d="M20.7666094,7.6108125 C20.7669375,7.63903125 20.786625,7.66340625 20.8142344,7.6695 C20.8186406,7.6704375 20.823,7.67090625 20.8273594,7.67090625 C20.850375,7.67090625 20.8719844,7.65778125 20.8821562,7.63626562 C20.9416406,7.51129687 21.0559219,7.35304687 21.1981875,7.28348437 C21.2425312,7.26182812 21.3218906,7.2406875 21.4137656,7.21626562 C21.6544219,7.1521875 21.9840469,7.06448437 22.1020312,6.84989062 C22.2257344,6.62507812 22.11225,6.4205625 22.0157344,6.32207812 L22.0535156,6.181875 C22.0585781,6.16298437 22.0542187,6.14282812 22.0418906,6.1276875 C22.0295625,6.11259375 22.009875,6.103875 21.9912187,6.105375 L21.7943906,6.11714062 C21.7444219,6.066375 21.6115312,5.95992187 21.3980156,5.970375 C20.7582187,6.0015 20.7659531,7.54509375 20.7666094,7.6108125 Z M21.1448437,7.1743125 C21.046875,7.22221875 20.9610469,7.30307812 20.8927969,7.39035938 C20.916375,6.90107813 21.0325312,6.10973438 21.4038281,6.09164063 C21.6130781,6.08198438 21.7162031,6.21079688 21.7204687,6.216375 C21.73275,6.23226563 21.7528125,6.24121875 21.7723594,6.2401875 L21.91425,6.23165625 L21.8888437,6.3256875 C21.88275,6.348375 21.8904375,6.37275 21.9083906,6.3879375 C21.9170156,6.39520313 22.1176406,6.5694375 21.9955312,6.79134375 C21.9025312,6.96042188 21.6019219,7.0404375 21.3824531,7.09884375 C21.2844844,7.12490625 21.1998281,7.14745313 21.1448437,7.1743125 Z" id="Shape" fill="#464655" fill-rule="nonzero"></path>
                <path d="M20.8927969,16.4356875 C20.916375,16.9249688 21.0325312,17.7163125 21.4038281,17.7344063 C21.6130781,17.7440625 21.7162031,17.61525 21.7204687,17.6096719 C21.73275,17.5937813 21.7528125,17.5848281 21.7723594,17.5858594 L21.91425,17.5943906 L21.8888437,17.5003594 C21.88275,17.4776719 21.8904375,17.4532969 21.9083906,17.4381094 C21.9170156,17.4308438 22.1176406,17.2566094 21.9955312,17.0347031 C21.9025312,16.865625 21.6019219,16.7856094 21.3824531,16.7272031 C21.2844844,16.7010938 21.1997812,16.6785469 21.1447969,16.6516875 C21.046875,16.6038281 20.9610469,16.5229688 20.8927969,16.4356875 Z" id="Shape" fill="#FFD250" fill-rule="nonzero"></path>
                <path d="M21.3980156,17.8557187 C21.6115312,17.8661719 21.7444219,17.7597187 21.7943906,17.7089531 L21.9912187,17.7207187 C22.009875,17.7222187 22.0295625,17.7135 22.0418906,17.6984062 C22.0542187,17.6833125 22.0585781,17.6631562 22.0535156,17.6442187 L22.0157344,17.5040156 C22.1122031,17.4055781 22.2256875,17.2010625 22.1020312,16.9762031 C21.9840469,16.7615625 21.6544219,16.6738594 21.4137656,16.6098281 C21.3218906,16.5854062 21.2425312,16.5642656 21.1981875,16.5426094 C21.0559219,16.473 20.9416406,16.31475 20.8821562,16.1898281 C20.8719375,16.1683125 20.850375,16.1551875 20.8273594,16.1551875 C20.823,16.1551875 20.8186406,16.1556562 20.8142344,16.1565937 C20.786625,16.1626875 20.7669375,16.1870625 20.7666094,16.2152813 C20.7659531,16.281 20.7582187,17.8245469 21.3980156,17.8557187 Z M21.3825,16.72725 C21.6019688,16.7856094 21.9025781,16.865625 21.9955781,17.03475 C22.1176875,17.2566562 21.9170625,17.4308906 21.9084375,17.4381562 C21.8904844,17.4533437 21.8827969,17.4777187 21.8888906,17.5004062 L21.9142969,17.5944375 L21.7724063,17.5859062 C21.7528594,17.584875 21.7327969,17.5938281 21.7205156,17.6097187 C21.71625,17.61525 21.613125,17.7440625 21.403875,17.7344531 C21.0325781,17.7163594 20.9164219,16.9250156 20.8928438,16.4357344 C20.9610938,16.5230625 21.046875,16.603875 21.1448906,16.6517812 C21.1998281,16.6786406 21.2844844,16.7011406 21.3825,16.72725 Z" id="Shape" fill="#464655" fill-rule="nonzero"></path>
                <path d="M10.7404219,16.4356875 C10.7168438,16.9249688 10.6006875,17.7163125 10.2293906,17.7344063 C10.0201406,17.7440625 9.91701563,17.61525 9.91275,17.6096719 C9.90046875,17.5937813 9.88040625,17.5848281 9.86085938,17.5858594 L9.71896875,17.5943906 L9.744375,17.5003594 C9.75046875,17.4776719 9.74278125,17.4532969 9.72482813,17.4381094 C9.71620313,17.4308438 9.51557813,17.2566094 9.6376875,17.0347031 C9.7306875,16.865625 10.0312969,16.7856094 10.2507656,16.7272031 C10.3487344,16.7010938 10.4334375,16.6785469 10.4884219,16.6516875 C10.5863438,16.6038281 10.6721719,16.5229688 10.7404219,16.4356875 Z" id="Shape" fill="#FFD250" fill-rule="nonzero"></path>
                <path d="M10.8666563,16.2152813 C10.8663281,16.1870625 10.8466406,16.1626875 10.8190313,16.1565937 C10.814625,16.1556562 10.8102656,16.1551875 10.8059063,16.1551875 C10.7828906,16.1551875 10.7612813,16.1683125 10.7511094,16.1898281 C10.691625,16.3147969 10.5773438,16.4730469 10.4350781,16.5426094 C10.3907344,16.5642656 10.311375,16.5854062 10.2195,16.6098281 C9.97884375,16.6739063 9.64921875,16.7616094 9.53123438,16.9762031 C9.40753125,17.2010625 9.52101563,17.4055312 9.61753125,17.5040156 L9.57975,17.6442187 C9.5746875,17.6631094 9.57904688,17.6832656 9.591375,17.6984062 C9.60370313,17.7135 9.62339063,17.7222187 9.64204688,17.7207187 L9.838875,17.7089531 C9.88884375,17.7597188 10.0217344,17.8661719 10.23525,17.8557187 C10.875,17.8245469 10.8672656,16.281 10.8666563,16.2152813 Z M10.488375,16.6517344 C10.5863437,16.6038281 10.6721719,16.5229688 10.7404219,16.4356875 C10.7168438,16.9249688 10.6006875,17.7163125 10.2293906,17.7344063 C10.0201406,17.7440625 9.91701563,17.61525 9.91275,17.6096719 C9.90046875,17.5937813 9.88040625,17.5848281 9.86085938,17.5858594 L9.71896875,17.5943906 L9.744375,17.5003594 C9.75046875,17.4776719 9.74278125,17.4532969 9.72482813,17.4381094 C9.71620313,17.4308438 9.51557813,17.2566094 9.6376875,17.0347031 C9.7306875,16.865625 10.0312969,16.7856094 10.2507656,16.7272031 C10.3487344,16.7011406 10.4334375,16.6786406 10.488375,16.6517344 Z" id="Shape" fill="#464655" fill-rule="nonzero"></path>
                <circle id="Oval" stroke="#FFFFFF" cx="12" cy="12" r="11.5"></circle>
            </g>
        </g>
    </g>
</svg>