<?xml version="1.0" encoding="UTF-8"?>
<svg width="24px" height="24px" viewBox="0 0 24 24" version="1.1" xmlns="http://www.w3.org/2000/svg" xmlns:xlink="http://www.w3.org/1999/xlink">
    <!-- Generator: Sketch 55.1 (78136) - https://sketchapp.com -->
    <title>Flags/moldova</title>
    <desc>Created with Sketch.</desc>
    <g id="Icons" stroke="none" stroke-width="1" fill="none" fill-rule="evenodd">
        <g id="Flags/moldova">
            <g id="moldova">
                <g id="Group-2" transform="translate(0.500000, 0.500000)" fill-rule="nonzero">
                    <path d="M15.3331836,22.345681 L15.3331836,0.654318955 C19.7998326,2.23298291 23,6.49277188 23,11.5 C23,16.5072281 19.7998326,20.7670171 15.3331836,22.345681 Z" id="Combined-Shape" fill="#FF4B55"></path>
                    <path d="M15.3336328,0.654477735 L15.3336328,22.3455223 C14.1345623,22.7693704 12.8442144,23 11.5,23 C10.1559535,23 8.86575997,22.769428 7.66681641,22.345681 L7.66681641,0.654318955 C8.86575997,0.230571983 10.1559535,0 11.5,0 C12.8442144,0 14.1345623,0.23062958 15.3336328,0.654477735 Z" id="Combined-Shape" fill="#FFE15A"></path>
                    <path d="M7.66681641,0.654318955 L7.66681641,22.345681 C3.20016743,20.7670171 0,16.5072281 0,11.5 C0,6.49277188 3.20016743,2.23298291 7.66681641,0.654318955 Z" id="Combined-Shape" fill="#41479B"></path>
                </g>
                <polygon id="Rectangle-path" fill="#FFCD5A" fill-rule="nonzero" transform="translate(13.100167, 14.177417) rotate(140.807752) translate(-13.100167, -14.177417) " points="12.9673748 13.4352271 13.4673748 13.4352271 13.4673748 14.9196071 12.9673748 14.9196071"></polygon>
                <polygon id="Rectangle-path" fill="#FFBE5A" fill-rule="nonzero" transform="translate(12.836971, 13.855059) rotate(140.831935) translate(-12.836971, -13.855059) " points="12.571423 13.5284093 13.1025191 13.5284093 13.1025191 14.181709 12.571423 14.181709"></polygon>
                <polygon id="Rectangle-path" fill="#FFCD5A" fill-rule="nonzero" transform="translate(11.014545, 14.177030) rotate(39.192248) translate(-11.014545, -14.177030) " points="10.8817535 13.4348404 11.3817535 13.4348404 11.3817535 14.9192205 10.8817535 14.9192205"></polygon>
                <polygon id="Rectangle-path" fill="#FFBE5A" fill-rule="nonzero" transform="translate(11.277194, 13.854958) rotate(39.168065) translate(-11.277194, -13.854958) " points="11.0116463 13.5283081 11.5427424 13.5283081 11.5427424 14.1816078 11.0116463 14.1816078"></polygon>
                <polygon id="Shape" fill="#FFE15A" fill-rule="nonzero" points="11.7253125 13.9493438 11.061375 15.2771719 11.9908594 15.9410625 11.9908594 14.0821406"></polygon>
                <polygon id="Shape" fill="#FFCD5A" fill-rule="nonzero" points="12.2564531 13.9493438 12.9203437 15.2771719 11.9908594 15.9410625 11.9908594 14.0821406"></polygon>
                <path d="M10.1319375,13.9493437 L10.1319375,10.497 L10.6319375,10.497 C10.6319375,10.497 10.6319375,12.7543125 10.6319375,13.1526563 C10.6319375,13.551 10.1319375,13.9493437 10.1319375,13.9493437 Z" id="Shape" fill="#FFBE5A" fill-rule="nonzero"></path>
                <path d="M9.86634375,14.6132812 L9.86634375,10.4970469 L10.3663438,10.4970469 C10.3663438,10.4970469 10.3663438,13.41825 10.3663438,13.8165938 C10.3663438,14.2149375 9.86634375,14.6132812 9.86634375,14.6132812 Z" id="Shape" fill="#FFCD5A" fill-rule="nonzero"></path>
                <path d="M9.60079688,15.144375 L9.60079688,10.497 L10.1007969,10.497 C10.1007969,10.497 10.1007969,13.9493438 10.1007969,14.3476875 C10.1007969,14.7460313 9.60079688,15.144375 9.60079688,15.144375 Z" id="Shape" fill="#FFE15A" fill-rule="nonzero"></path>
                <path d="M10.5302812,10.6297969 C10.5302812,10.6297969 10.5302812,12.5219531 10.5302812,13.1526562 C10.5302812,13.8165469 11.4929531,13.7280469 11.9909063,14.2148906 C12.4888594,13.728 13.4515313,13.8165469 13.4515313,13.1526562 C13.4515313,12.5219531 13.4515313,10.6297969 13.4515313,10.6297969 L10.5302812,10.6297969 L10.5302812,10.6297969 Z" id="Shape" fill="#FF4B55" fill-rule="nonzero"></path>
                <path d="M10.5302812,12.0904219 C10.5302812,12.51075 10.5302812,12.9186094 10.5302812,13.1526562 C10.5302812,13.8165469 11.4929531,13.7280469 11.9909063,14.2148906 C12.4888594,13.728 13.4515313,13.8165469 13.4515313,13.1526562 C13.4515313,12.9186094 13.4515313,12.51075 13.4515313,12.0904219 L10.5302812,12.0904219 Z" id="Shape" fill="#41479B" fill-rule="nonzero"></path>
                <g id="Group" transform="translate(10.640625, 8.625000)" fill="#FFE15A" fill-rule="nonzero">
                    <polygon id="Shape" points="1.35023438 5.19159375 0.951890625 4.926 0.951890625 4.79320312 1.0846875 4.66045313 1.0846875 3.86376563 0.68634375 3.59817188 1.0846875 3.06707813 1.2174375 3.06707813 1.35023438 3.19982813 1.48303125 3.06707813 1.61582813 3.06707813 2.01417187 3.59817188 1.61582813 3.86376563 1.61582813 4.66045313 1.74857812 4.79320312 1.74857812 4.926"></polygon>
                    <path d="M0.81909375,2.13759375 C0.81909375,2.13759375 0.287953125,2.27039063 0.287953125,2.80148438 C0.287953125,3.33257813 0.81909375,3.59817188 0.81909375,3.59817188 L1.08464062,3.19982813 C0.288,2.93428125 0.81909375,2.13759375 0.81909375,2.13759375 Z" id="Shape"></path>
                    <path d="M1.881375,2.13759375 C1.881375,2.13759375 2.41251563,2.27039063 2.41251563,2.80148438 C2.41251563,3.33257813 1.881375,3.59817188 1.881375,3.59817188 L1.61582812,3.19982813 C2.41251563,2.93428125 1.881375,2.13759375 1.881375,2.13759375 Z" id="Shape"></path>
                    <polygon id="Shape" points="0.02240625 3.58266913 0.288 3.832625 0.553546875 3.58266913 0.288 3.332625"></polygon>
                    <polygon id="Shape" points="2.14692187 3.58266913 2.41251562 3.832625 2.6780625 3.58266913 2.41251562 3.332625"></polygon>
                    <polygon id="Shape" points="1.35023438 2.20396875 1.44679688 2.30282813 1.58498437 2.3011875 1.58334375 2.439375 1.68220313 2.5359375 1.58334375 2.63245312 1.58498437 2.77064062 1.44679688 2.769 1.35023438 2.86790625 1.25367188 2.769 1.11553125 2.77064062 1.11717188 2.63245312 1.01826563 2.5359375 1.11717188 2.439375 1.11553125 2.3011875 1.25367188 2.30282813"></polygon>
                    <path d="M0.448546875,4.04526562 L0.5443125,4.15176562 L0.6774375,4.09898437 C0.74634375,4.07165625 0.811078125,4.14665625 0.773953125,4.21082812 L0.702234375,4.3348125 L0.79359375,4.44510937 C0.840890625,4.50220312 0.7895625,4.58695312 0.717046875,4.57148437 L0.576984375,4.541625 L0.500296875,4.66260937 C0.46059375,4.72523437 0.364171875,4.70259375 0.356484375,4.62885937 L0.341625,4.48640625 L0.202875,4.45082812 C0.1310625,4.43240625 0.122765625,4.33373437 0.190546875,4.30359375 L0.321421875,4.24542187 L0.312375,4.1025 C0.307640625,4.02848437 0.398953125,3.99014062 0.448546875,4.04526562 Z" id="Shape"></path>
                    <path d="M2.21709375,4.34803125 C2.24639062,4.197 2.37098437,4.09007812 2.51629687,4.07395312 C2.48653125,4.05792187 2.45479687,4.04470312 2.419875,4.03790625 C2.233875,4.00185937 2.053875,4.12335937 2.01782812,4.30935937 C1.98178125,4.49535937 2.10328125,4.67535937 2.28928125,4.71140625 C2.32420312,4.71820312 2.3585625,4.71773437 2.39217187,4.71403125 C2.26340625,4.64479687 2.18779687,4.4990625 2.21709375,4.34803125 Z" id="Shape"></path>
                    <path d="M0.81909375,2.00479688 L1.08464062,0.67696875 L0.5535,0.278625 L0.686296875,0.145828125 L0.95184375,0.145828125 C0.95184375,0.145828125 1.08464062,0.01303125 1.3501875,0.01303125 C1.61573437,0.01303125 1.88132812,0.145828125 1.88132812,0.544171875 C1.88132812,0.942515625 2.014125,2.00479688 2.014125,2.00479688 L0.81909375,2.00479688 L0.81909375,2.00479688 Z" id="Shape"></path>
                </g>
                <path d="M10.5302812,10.0986562 C10.2369375,10.0986562 9.99914062,10.3364531 9.99914062,10.6297969 L11.061375,10.6297969 C11.061375,10.3364531 10.8235781,10.0986562 10.5302812,10.0986562 Z" id="Shape" fill="#FFAA5A" fill-rule="nonzero"></path>
                <g id="Group" transform="translate(9.562500, 9.421875)" fill="#FFBE5A" fill-rule="nonzero">
                    <path d="M0.834984375,1.20792188 L0.038296875,1.20792188 L0.038296875,0.32409375 C0.038296875,0.152203125 0.17765625,0.01284375 0.349546875,0.01284375 L0.52378125,0.01284375 C0.695671875,0.01284375 0.83503125,0.152203125 0.83503125,0.32409375 L0.834984375,1.20792188 L0.834984375,1.20792188 Z" id="Shape"></path>
                    <path d="M4.38898438,4.52746875 L4.38898438,1.075125 L3.88898438,1.075125 C3.88898438,1.075125 3.88898438,3.3324375 3.88898438,3.73078125 C3.88898438,4.129125 4.38898438,4.52746875 4.38898438,4.52746875 Z" id="Shape"></path>
                </g>
                <path d="M14.2170312,14.6132812 L14.2170312,10.4970469 L13.7170312,10.4970469 C13.7170312,10.4970469 13.7170312,13.41825 13.7170312,13.8165938 C13.7170312,14.2149375 14.2170312,14.6132812 14.2170312,14.6132812 Z" id="Shape" fill="#FFCD5A" fill-rule="nonzero"></path>
                <path d="M14.4825781,15.144375 L14.4825781,10.497 L13.9825781,10.497 C13.9825781,10.497 13.9825781,13.9493438 13.9825781,14.3476875 C13.9825781,14.7460313 14.4825781,15.144375 14.4825781,15.144375 Z" id="Shape" fill="#FFE15A" fill-rule="nonzero"></path>
                <path d="M13.4514844,10.0986562 C13.7448281,10.0986562 13.982625,10.3364531 13.982625,10.6297969 L12.9203906,10.6297969 C12.9203438,10.3364531 13.1581406,10.0986562 13.4514844,10.0986562 Z" id="Shape" fill="#FFAA5A" fill-rule="nonzero"></path>
                <path d="M13.5842344,10.6297969 L14.3809219,10.6297969 L14.3809219,9.74596875 C14.3809219,9.57407812 14.2415625,9.43471875 14.0696719,9.43471875 L13.8954375,9.43471875 C13.7235469,9.43471875 13.5841875,9.57407812 13.5841875,9.74596875 L13.5841875,10.6297969 L13.5842344,10.6297969 Z" id="Shape" fill="#FFBE5A" fill-rule="nonzero"></path>
                <polygon id="Rectangle-path" fill="#FFAA5A" fill-rule="nonzero" transform="translate(14.106988, 13.616954) rotate(31.339120) translate(-14.106988, -13.616954) " points="14.0074026 11.8293843 14.5074026 11.8293843 14.5074026 15.4045241 14.0074026 15.4045241"></polygon>
                <polygon id="Rectangle-path" fill="#FFE15A" fill-rule="nonzero" transform="translate(13.503644, 14.682823) rotate(128.638333) translate(-13.503644, -14.682823) " points="13.238075 14.4752847 13.7692137 14.4752847 13.7692137 14.9752847 13.238075 14.9752847"></polygon>
                <polygon id="Rectangle-path" fill="#FFCD5A" fill-rule="nonzero" transform="translate(14.836408, 12.417384) rotate(31.326352) translate(-14.836408, -12.417384) " points="14.6704274 12.0343304 15.1704274 12.0343304 15.1704274 12.8004377 14.6704274 12.8004377"></polygon>
                <g id="Group" transform="translate(8.953125, 12.187500)" fill="#73AF00" fill-rule="nonzero">
                    <polygon id="Rectangle-path" transform="translate(1.034089, 1.488190) rotate(57.118809) translate(-1.034089, -1.488190) " points="-0.692086666 1.42179105 2.76026477 1.42179105 2.76026477 1.92179105 -0.692086666 1.92179105"></polygon>
                    <path d="M1.33185938,1.37746875 C1.28423438,1.43146875 1.25264063,1.5133125 1.24467187,1.60776563 C1.1791875,1.54167188 1.104,1.49953125 1.03392187,1.48828125 C1.01545312,1.55676563 1.02295312,1.64264063 1.056375,1.7295 C0.96703125,1.698 0.879421875,1.69321875 0.810609375,1.71445313 C0.82996875,1.81228125 0.909703125,1.91854688 1.03190625,1.9914375 C1.15410938,2.064375 1.28545313,2.0840625 1.38075,2.054625 L1.40798438,2.037 C1.4739375,1.9621875 1.50989063,1.8343125 1.49357812,1.6929375 C1.47726562,1.55160937 1.41314062,1.4353125 1.33185938,1.37746875 Z" id="Shape"></path>
                </g>
                <circle id="Oval" fill="#FF4B55" fill-rule="nonzero" cx="10.3476562" cy="14.233125" r="1"></circle>
                <path d="M9.780375,12.7844062 C9.73275,12.8384063 9.70115625,12.92025 9.6931875,13.0147031 C9.62770313,12.9486094 9.55251562,12.9064688 9.4824375,12.8952188 C9.46396875,12.9637031 9.47146875,13.0495781 9.50489062,13.1364375 C9.41554687,13.1049375 9.3279375,13.1001563 9.259125,13.1213906 C9.27848437,13.2192188 9.35821875,13.3254844 9.48042187,13.398375 C9.602625,13.4713125 9.73396875,13.491 9.82926563,13.4615625 L9.8565,13.4439375 C9.92245313,13.369125 9.95840625,13.24125 9.94209375,13.099875 C9.92578125,12.9585 9.86165625,12.8422031 9.780375,12.7844062 Z" id="Shape" fill="#73AF00" fill-rule="nonzero"></path>
                <circle id="Oval" fill="#FF4B55" fill-rule="nonzero" cx="9.8428125" cy="13.4526563" r="1"></circle>
                <path d="M9.27576563,12.0037969 C9.22814063,12.0577969 9.19654688,12.1396406 9.18857812,12.2340938 C9.12309375,12.168 9.04790625,12.1258594 8.97782812,12.1146094 C8.95935937,12.1830938 8.96685937,12.2689688 9.00028125,12.3558281 C8.9109375,12.3243281 8.82332812,12.3195469 8.75451562,12.3407813 C8.773875,12.4386094 8.85360937,12.544875 8.9758125,12.6177656 C9.09801563,12.6907031 9.22935937,12.7103906 9.32465625,12.6809531 L9.35189063,12.6633281 C9.41784375,12.5885156 9.45379688,12.4606406 9.43748438,12.3192656 C9.42121875,12.1779375 9.35704687,12.0616406 9.27576563,12.0037969 Z" id="Shape" fill="#73AF00" fill-rule="nonzero"></path>
                <circle id="Oval" fill="#FF4B55" fill-rule="nonzero" cx="9.3384375" cy="12.6721875" r="1"></circle>
                <g id="Group" transform="translate(10.265625, 8.343750)" fill="#FFE15A" fill-rule="nonzero">
                    <polygon id="Rectangle-path" transform="translate(0.345521, 6.339413) rotate(51.361667) translate(-0.345521, -6.339413) " points="0.0799520858 6.13187489 0.611090738 6.13187489 0.611090738 6.63187489 0.0799520858 6.63187489"></polygon>
                    <polygon id="Rectangle-path" points="0.92859375 0.02859375 1.42859375 0.02859375 1.42859375 0.958078125 0.92859375 0.958078125"></polygon>
                    <polygon id="Rectangle-path" points="0.7959375 0.16171875 1.2959375 0.16171875 1.2959375 0.66171875 0.7959375 0.66171875"></polygon>
                </g>
                <polygon id="Shape" fill="#FF875A" fill-rule="nonzero" points="11.1941719 8.92467846 11.6941719 9.27082812 11.6941719 8.77082812 11.3608582 8.77082812"></polygon>
                <path d="M11.3269688,8.3724375 L11.3269688,8.50528125 L11.4597656,8.50528125 L11.4597656,8.63807813 L11.3269688,8.63807813 L11.3269688,8.770875 L11.5925156,8.770875 C11.5925156,8.770875 11.7253125,8.63807813 11.9908594,8.63807813 C12.2564062,8.63807813 12.522,8.770875 12.522,9.16921875 C12.522,9.5675625 12.6547969,10.6298438 12.6547969,10.6298438 L12.9203438,10.6298438 C12.9203438,10.3365 13.1581406,10.0987031 13.4514844,10.0987031 C13.4976094,10.0987031 13.5415781,10.1064375 13.5842813,10.1175 L13.5842813,9.83315625 C13.5842813,9.61317188 13.7626406,9.4348125 13.982625,9.4348125 C14.2026094,9.4348125 14.3809688,9.61317188 14.3809688,9.83315625 L14.3809688,10.4970469 L14.3809688,10.6298438 L14.3809688,12.9748125 L14.5524375,12.6930938 L14.4957188,12.6585938 L14.8940625,12.0041719 L14.9507813,12.0386719 L14.9507813,12.038625 L15.0358594,12.0904219 L15.1776563,12.1767188 L14.7793125,12.8311406 L14.7225938,12.7965938 L14.3809688,13.3578281 L14.3809688,15.144375 C14.3809688,15.144375 14.0638594,14.8264219 13.9960313,14.474625 C13.9475156,14.4122813 13.8916406,14.3327813 13.8424688,14.2425 L13.6905,14.4921563 L13.8317813,14.6050781 L13.5001406,15.0199688 L13.4120625,14.9495625 L13.2619688,15.1961719 L13.0918594,15.0925781 L13.2552188,14.8241719 L13.1759063,14.7607969 L13.2888281,14.6195156 L12.9404063,14.19225 L12.8374688,14.2761094 L12.5276719,13.8959063 C12.4452188,13.9290938 12.3637031,13.9654688 12.2852813,14.0070938 L12.9202969,15.2771719 L11.9908125,15.9410625 L11.0613281,15.2771719 L11.6963438,14.0070938 C11.6494688,13.98225 11.6018438,13.958625 11.5530938,13.9372031 L11.2769531,14.2761094 L11.1740156,14.19225 L10.8255938,14.6195156 L10.9385156,14.7607969 L10.8257344,14.8509375 L10.9798594,15.0893438 L10.8683438,15.1614375 L10.7214844,14.9342813 L10.6142813,15.0199688 L10.2826406,14.6050781 L10.4316563,14.4859688 L10.3526719,14.3637656 C10.3507969,14.3638594 10.3489219,14.3638594 10.3470938,14.3638594 C10.3037344,14.3638594 10.2611719,14.3445 10.2359063,14.3053594 C10.225125,14.2887188 10.2193125,14.2705781 10.2166875,14.2521563 C10.1917031,14.2506563 10.1663906,14.2470469 10.1400469,14.2408125 C10.0906875,14.3317969 10.0344375,14.4119063 9.98564063,14.474625 C9.9178125,14.8264219 9.60070313,15.144375 9.60070313,15.144375 L9.60070313,13.4506875 C9.56057813,13.4380781 9.520125,13.4220469 9.48032813,13.3983281 C9.358125,13.3254375 9.2784375,13.2191719 9.25903125,13.1213438 C9.28696875,13.1127188 9.31795313,13.1084063 9.35095313,13.1084063 C9.39923438,13.1084063 9.4516875,13.1176875 9.50479688,13.1363906 C9.4875,13.0913906 9.47746875,13.0468594 9.47404688,13.0046719 L9.34345313,12.8026406 C9.34157813,12.8027344 9.33975,12.8027344 9.337875,12.8027344 C9.29446875,12.8027344 9.252,12.783375 9.2266875,12.7442344 C9.21590625,12.7275938 9.21009375,12.7094531 9.20746875,12.6909844 C9.13396875,12.6865781 9.0534375,12.664125 8.97571875,12.6177188 C8.85351563,12.5448281 8.77382813,12.4385625 8.75442188,12.3407344 C8.78235938,12.3321094 8.81334375,12.3277969 8.84634375,12.3277969 C8.894625,12.3277969 8.94707813,12.3370781 9.0001875,12.3557813 C8.9668125,12.2689219 8.95926563,12.1830469 8.97773438,12.1145625 C9.04776563,12.1258125 9.123,12.1679531 9.18848438,12.2340469 C9.19645313,12.1396406 9.22804688,12.0577969 9.27567188,12.00375 C9.35695313,12.0615938 9.42107813,12.1778906 9.43739063,12.3192656 C9.44775,12.4091719 9.43523438,12.4918594 9.40903125,12.5606719 C9.42473438,12.5706094 9.43889063,12.5834063 9.44967188,12.6000469 C9.4760625,12.640875 9.475125,12.6899531 9.45496875,12.7305 L9.5855625,12.9325313 C9.590625,12.9353438 9.59559375,12.9387656 9.60065625,12.9418125 L9.60065625,10.62975 L9.60065625,10.4969531 L9.60065625,9.8330625 C9.60065625,9.61307812 9.77901563,9.43471875 9.999,9.43471875 C10.2189844,9.43471875 10.3973438,9.61307813 10.3973438,9.8330625 L10.3973438,10.1174063 C10.44,10.1063438 10.4840156,10.0986094 10.5301406,10.0986094 C10.8234844,10.0986094 11.0612813,10.3364062 11.0612813,10.62975 L11.459625,10.62975 L11.7251719,9.30192187 L11.592375,9.2023125 L11.3268281,9.00314062 L11.3268281,9.30192187 L11.1940313,9.30192187 L11.1940313,8.63803125 L11.0612344,8.63803125 L11.0612344,8.50523437 L11.1940313,8.50523437 L11.1940313,8.3724375 L11.3269688,8.3724375 L11.3269688,8.3724375 Z M13.4584688,14.4073125 L13.5075469,14.3459531 L13.5336563,14.3668125 L13.7476875,14.0152031 C13.7289844,13.9501875 13.7170781,13.8834844 13.7170781,13.8165937 C13.7170781,13.8100781 13.7170781,13.801125 13.7170781,13.79325 C13.6012031,13.6408594 13.4515313,13.3969687 13.4515313,13.1526562 C13.4515313,13.4323125 13.279875,13.578 13.0449375,13.6898906 L13.2492656,13.9406719 L13.146375,14.0244844 L13.4584688,14.4073125 L13.4584688,14.4073125 Z M10.5360469,14.402625 L10.6070156,14.3459063 L10.6560938,14.4072656 L10.9682344,14.0244844 L10.8653438,13.9406719 L11.0342813,13.7332969 C10.7506406,13.6148438 10.5302813,13.4697188 10.5302813,13.1526563 C10.5302813,13.3304063 10.4509219,13.5079219 10.3630781,13.6502813 C10.4047969,13.7115 10.4362969,13.7897813 10.44675,13.8804844 C10.4571094,13.9703906 10.4445938,14.0530781 10.4183906,14.1218906 C10.4340938,14.1318281 10.44825,14.144625 10.4590313,14.1612656 C10.4854219,14.2020937 10.4844844,14.251125 10.4643281,14.2917188 L10.5360469,14.402625 L10.5360469,14.402625 Z M11.3269688,8.27292188 L11.1941719,8.27292188 C11.1391875,8.27292188 11.0945625,8.3175 11.0945625,8.37253125 L11.0945625,8.40571875 L11.061375,8.40571875 C11.0063906,8.40571875 10.9617656,8.45029688 10.9617656,8.50532813 L10.9617656,8.638125 C10.9617656,8.69310938 11.0063438,8.73773438 11.061375,8.73773438 L11.0945625,8.73773438 L11.0945625,9.3020625 C11.0945625,9.35704688 11.1391406,9.40167188 11.1941719,9.40167188 L11.3269688,9.40167188 C11.3819531,9.40167188 11.4265781,9.35709375 11.4265781,9.3020625 L11.4265781,9.20245313 L11.5327969,9.28214063 L11.6153906,9.3440625 L11.3781563,10.5302813 L11.1532031,10.5302813 C11.1052969,10.2296719 10.84425,9.99914063 10.5303281,9.99914063 C10.5193125,9.99914063 10.50825,9.99946875 10.4971406,10.0001719 L10.4971406,9.83315625 C10.4971406,9.55860938 10.2737813,9.33520313 9.9991875,9.33520313 C9.72459375,9.33520313 9.50123438,9.5585625 9.50123438,9.83315625 L9.50123438,10.4970469 L9.50123438,10.6298438 L9.50123438,12.1569375 C9.46528125,12.05775 9.40682813,11.9748281 9.3335625,11.9227031 C9.316125,11.9102813 9.29592188,11.9042344 9.27585938,11.9042344 C9.24810938,11.9042344 9.2206875,11.9157656 9.20109375,11.9379844 C9.1704375,11.9727656 9.14521875,12.0151875 9.12642188,12.063 C9.08282813,12.0393281 9.03796875,12.0234375 8.99371875,12.0163125 C8.988375,12.0154688 8.98307813,12.0150469 8.97782813,12.0150469 C8.93353125,12.0150469 8.89364063,12.0446719 8.88178125,12.0886875 C8.87010938,12.1319063 8.86621875,12.1793906 8.869875,12.2287969 C8.86204688,12.2284219 8.85426563,12.2282344 8.84653125,12.2282344 C8.80340625,12.2282344 8.762625,12.2340938 8.72521875,12.245625 C8.67646875,12.2606719 8.64698438,12.3100781 8.656875,12.3600938 C8.68260938,12.4902656 8.78278125,12.6185625 8.9248125,12.7032656 C8.99034375,12.7423594 9.0615,12.7691719 9.13373438,12.78225 C9.13664063,12.7877344 9.13978125,12.7930781 9.14315625,12.7982813 C9.175875,12.8488594 9.22710938,12.8835938 9.28575,12.896625 L9.3583125,13.0088438 C9.355875,13.0087969 9.35348438,13.0087969 9.35109375,13.0087969 C9.30796875,13.0087969 9.2671875,13.0146563 9.22978125,13.0261875 C9.18107813,13.0412344 9.15154688,13.0906406 9.16148438,13.1406563 C9.18721875,13.2708281 9.28739063,13.399125 9.42942188,13.4838281 C9.45215625,13.497375 9.47573438,13.509375 9.50123438,13.5202031 L9.50123438,15.144375 C9.50123438,15.1846875 9.52551563,15.2210156 9.56278125,15.2363906 C9.5750625,15.2414531 9.588,15.2439375 9.60079688,15.2439375 C9.62676563,15.2439375 9.65226563,15.2337656 9.67134375,15.2146875 C9.68489063,15.2010938 9.99721875,14.8845938 10.0785938,14.5172344 C10.1120625,14.4732188 10.143,14.4288281 10.171125,14.3844375 C10.2031875,14.4214688 10.2465469,14.4470156 10.2950156,14.45775 L10.2992813,14.4643594 L10.2205781,14.5272656 C10.1999531,14.5437656 10.1867344,14.5677656 10.1837813,14.5940156 C10.180875,14.6202656 10.1884688,14.6466094 10.2049688,14.6672344 L10.5366094,15.082125 C10.5531094,15.10275 10.5771094,15.1159688 10.6033594,15.1189219 C10.6070156,15.1193438 10.6107188,15.1195313 10.614375,15.1195313 C10.636875,15.1195313 10.6588125,15.1118906 10.6765313,15.0977344 L10.6977188,15.0808125 L10.7847656,15.2154844 C10.7991094,15.2376563 10.8216563,15.2532656 10.8474844,15.2587969 C10.8544219,15.2602969 10.8614063,15.261 10.8683906,15.261 C10.8874219,15.261 10.9062188,15.2555625 10.9224844,15.2450625 L10.9868906,15.2034375 L10.9722656,15.2326406 C10.950375,15.2764688 10.9635938,15.3297188 11.0034375,15.3582188 L11.9329219,16.0221094 C11.9502188,16.0344844 11.9705156,16.0406719 11.9908125,16.0406719 C12.0111094,16.0406719 12.0314063,16.0344844 12.0487031,16.0221094 L12.9781875,15.3582188 C13.0180781,15.3297188 13.0312969,15.2764688 13.0093594,15.2326406 L12.418875,14.051625 C12.4439063,14.0398125 12.4700156,14.0280938 12.4973438,14.0163281 L12.7602656,14.3389688 C12.7799531,14.3631094 12.8086406,14.3756719 12.8375156,14.3756719 C12.8596406,14.3756719 12.8818594,14.3683594 12.900375,14.3533125 L12.9261563,14.3323125 L13.1608594,14.620125 L13.0981406,14.6985938 C13.0816406,14.7192188 13.0740469,14.7455625 13.0769531,14.7718125 C13.0799063,14.7980625 13.093125,14.8220625 13.11375,14.8385625 L13.124625,14.8472344 L13.0068281,15.0407813 C12.9782344,15.08775 12.9931406,15.1490156 13.0401094,15.1776094 L13.2102188,15.2812031 C13.2259688,15.2907656 13.243875,15.2957344 13.2620156,15.2957344 C13.2698906,15.2957344 13.2777656,15.2947969 13.2855469,15.2929219 C13.3112344,15.2866875 13.3333594,15.2705156 13.3470938,15.2479219 L13.4383594,15.0979688 C13.4566406,15.1124531 13.4784844,15.1194844 13.5001406,15.1194844 C13.5293906,15.1194844 13.5583125,15.1066875 13.578,15.0820781 L13.9096406,14.6671875 C13.9218281,14.6519063 13.9288125,14.6341406 13.9308281,14.6160469 C14.0390625,14.939625 14.2982344,15.2022656 14.3105156,15.2145938 C14.3295938,15.2337188 14.3550938,15.2438438 14.3810625,15.2438438 C14.3938594,15.2438438 14.4067969,15.2413594 14.4190781,15.2362969 C14.4563438,15.2209219 14.480625,15.1845469 14.480625,15.1442813 L14.480625,13.3856719 L14.758875,12.9285 C14.765625,12.9299063 14.7724688,12.9306094 14.7792656,12.9306094 C14.812875,12.9306094 14.8456875,12.9135938 14.8644375,12.8827969 L15.2627813,12.228375 C15.2765156,12.2058281 15.2807344,12.1787344 15.2745,12.1530469 C15.2682656,12.1274063 15.2520938,12.1052344 15.2295,12.0915 L15.0877031,12.0052031 L15.0026719,11.9534063 L14.9458594,11.9188594 C14.9296875,11.9090156 14.9118281,11.904375 14.8942031,11.904375 C14.8605938,11.904375 14.8277813,11.9213906 14.8090313,11.9521875 L14.4805781,12.4918125 L14.4805781,10.6296563 L14.4805781,10.4968594 L14.4805781,9.83296875 C14.4805781,9.55842188 14.2572188,9.33501563 13.982625,9.33501563 C13.7080781,9.33501563 13.4846719,9.558375 13.4846719,9.83296875 L13.4846719,9.99998438 C13.4735156,9.99928125 13.4625,9.99895313 13.4514844,9.99895313 C13.1375625,9.99895313 12.8765156,10.2294375 12.8286094,10.5300938 L12.7429688,10.5300938 C12.7116094,10.2687188 12.6215625,9.49073438 12.6215625,9.16907813 C12.6215625,8.70403125 12.2957344,8.538375 11.9908594,8.538375 C11.7651094,8.538375 11.619375,8.6244375 11.5568906,8.67117188 L11.5536563,8.67117188 C11.5573125,8.6608125 11.5593281,8.64960938 11.5593281,8.63798438 L11.5593281,8.5051875 C11.5593281,8.45020313 11.51475,8.40557813 11.4597188,8.40557813 L11.4265313,8.40557813 L11.4265313,8.37239063 C11.4265313,8.3175 11.3819531,8.27292188 11.3269688,8.27292188 L11.3269688,8.27292188 Z M10.4789063,13.6500938 C10.5044063,13.6052344 10.5266719,13.5609844 10.54575,13.5173906 C10.6287656,13.6287656 10.7482031,13.7080313 10.8753281,13.77075 L10.7881406,13.8777656 C10.7714531,13.89825 10.7635781,13.9245 10.76625,13.9507969 C10.7689219,13.9770937 10.7819531,14.0012344 10.8024375,14.017875 L10.8280781,14.0387344 L10.6506562,14.256375 C10.6405312,14.2514531 10.6295156,14.2482187 10.6180781,14.2469531 C10.614375,14.2465312 10.6107187,14.2463437 10.6070625,14.2463437 C10.5971719,14.2463437 10.5873281,14.2478437 10.5779531,14.2507031 C10.5825,14.2005937 10.5706406,14.1503906 10.5427031,14.1071719 C10.5393281,14.1019687 10.5357187,14.0969062 10.5319219,14.0919844 C10.5496406,14.0207812 10.5544219,13.9448906 10.5457031,13.8690469 C10.5366563,13.7911875 10.5138281,13.7166094 10.4789063,13.6500938 L10.4789063,13.6500938 Z M13.1990625,13.7214844 C13.2867656,13.6702969 13.3719375,13.6055625 13.4365312,13.5185156 C13.4873438,13.634625 13.5542344,13.7402344 13.6175156,13.8264375 C13.6183125,13.8818906 13.6258594,13.9389844 13.6405312,13.9996406 L13.4893594,14.2480313 C13.4805937,14.2496719 13.4720156,14.2524375 13.4639062,14.256375 L13.2864844,14.0387813 L13.312125,14.0179219 C13.3326094,14.0012344 13.3455937,13.9770938 13.3483125,13.9508438 C13.3509844,13.9245469 13.3431094,13.8982969 13.3264219,13.8778125 L13.1990625,13.7214844 L13.1990625,13.7214844 Z M11.277,14.3757188 C11.3059219,14.3757188 11.3345625,14.3632031 11.35425,14.3390156 L11.5221563,14.1329063 L11.0676094,15.0420469 C11.0663906,15.03975 11.0650313,15.0375 11.0635781,15.03525 L10.9583437,14.8725 L11.0007656,14.8385625 C11.0213906,14.8220625 11.0346563,14.7980625 11.0375625,14.7718125 C11.0404687,14.7455625 11.032875,14.7192188 11.016375,14.6985938 L10.9536562,14.620125 L11.1883594,14.3323125 L11.2141406,14.3533125 C11.2326094,14.3683594 11.254875,14.3757188 11.277,14.3757188 L11.277,14.3757188 Z M13.8211406,14.4690938 L13.8458208,14.4334688 C13.8675159,14.4615 13.8903837,14.4894375 13.9144242,14.5172813 C13.9165564,14.5256719 13.9187952,14.5340156 13.9211406,14.5423125 C13.91613,14.536875 13.910373,14.5318594 13.9039231,14.5273125 L13.8211406,14.4690938 L13.8211406,14.4690938 Z" id="Shape" fill="#FFAA5A" fill-rule="nonzero"></path>
                <circle id="Oval" stroke="#FFFFFF" cx="12" cy="12" r="11.5"></circle>
            </g>
        </g>
    </g>
</svg>