<?xml version="1.0" encoding="UTF-8"?>
<svg width="24px" height="24px" viewBox="0 0 24 24" version="1.1" xmlns="http://www.w3.org/2000/svg" xmlns:xlink="http://www.w3.org/1999/xlink">
    <!-- Generator: Sketch 55.1 (78136) - https://sketchapp.com -->
    <title>Flags/hongkong</title>
    <desc>Created with Sketch.</desc>
    <g id="Icons" stroke="none" stroke-width="1" fill="none" fill-rule="evenodd">
        <g id="Flags/hongkong">
            <g id="hongkong">
                <path d="M12,23.8 C5.48303995,23.8 0.2,18.51696 0.2,12 C0.2,5.48303995 5.48303995,0.2 12,0.2 C18.51696,0.2 23.8,5.48303995 23.8,12 C23.8,18.51696 18.51696,23.8 12,23.8 Z" id="Combined-Shape" fill="#FF4B55" fill-rule="nonzero"></path>
                <path d="M10.3450781,12.6784219 C10.7474063,12.6742969 11.1137344,12.5783438 11.3980313,12.4735313 C8.5155,14.718 5.70782813,11.5964063 6.64157813,9.07359375 C6.66107813,9.02090625 6.73725,9.024375 6.7505625,9.07898438 C6.8248125,9.384 7.0635,9.93351563 7.81265625,9.81998438 C8.56940625,9.70532813 9.04996875,9.6886875 9.5840625,10.3684219 C10.1215781,11.0525625 9.75501563,11.6185313 10.5643125,12.1504688 C10.7580469,12.2778281 11.0592188,12.2958281 11.2989375,12.2851875 C10.6501406,12.5176875 9.56409375,12.6861563 8.68790625,11.7239531 C8.649375,11.681625 8.58478125,11.6758594 8.54109375,11.7128906 L8.54090625,11.7130781 C8.49590625,11.7512344 8.49032813,11.8200469 8.52998438,11.8637344 C9.10485938,12.4973438 9.76082813,12.6844219 10.3450781,12.6784219 Z M8.24160938,11.82225 L8.36826563,11.47425 L8.73848438,11.4814688 C8.78639063,11.4824063 8.80795313,11.4217969 8.77017188,11.3922656 L8.47842188,11.1642656 L8.5996875,10.8143906 C8.61539063,10.7691094 8.56439063,10.729875 8.52464063,10.7566875 L8.21765625,10.9637344 L7.92239063,10.7402813 C7.88414063,10.7113594 7.83107813,10.7477344 7.84429688,10.7938125 L7.94634375,11.1497813 L7.64259375,11.3615625 C7.60326563,11.3889844 7.62145313,11.4506719 7.66935938,11.4523594 L8.0394375,11.4653438 L8.14696875,11.8196719 C8.16089063,11.8655625 8.22520313,11.8672969 8.24160938,11.82225 Z M12.4131094,11.0022656 C12.0936563,11.2468594 11.8580156,11.5433437 11.6932969,11.7976875 C12.6538594,8.27296875 16.7727188,9.08709375 17.5384688,11.6658281 C17.5545,11.7196875 17.4914531,11.762625 17.4480469,11.7269062 C17.2057031,11.5274062 16.6852031,11.2307812 16.1537813,11.7709219 C15.6169688,12.3165469 15.2423906,12.6180469 14.4073594,12.3944062 C13.5668906,12.1693594 13.5208125,11.4966094 12.5542031,11.5562812 C12.3228281,11.5705781 12.0710156,11.73675 11.8855781,11.8890469 C12.2653594,11.3138906 13.0334063,10.52775 14.3115469,10.77225 C14.3677969,10.7830312 14.4229219,10.7489062 14.4356719,10.6930781 L14.4357188,10.6927969 C14.4488438,10.6352344 14.4120469,10.576875 14.3541094,10.5656719 C13.5141563,10.4033906 12.8770313,10.6470937 12.4131094,11.0022656 Z M14.6097656,10.4258906 L14.7170625,10.7803125 L14.4165,10.9965469 C14.3775938,11.0245313 14.3967188,11.0859375 14.444625,11.0869219 L14.8148438,11.094375 L14.927625,11.4470625 C14.9422031,11.4927188 15.0065156,11.4935156 15.0222656,11.4482344 L15.1437656,11.0984531 L15.5140313,11.1001875 C15.5619844,11.100375 15.5826094,11.0394844 15.5444063,11.0105156 L15.2492813,10.786875 L15.3653438,10.4352656 C15.3803906,10.38975 15.3287813,10.3513125 15.2894531,10.3786875 L14.9855625,10.5902344 L14.6870156,10.3711875 C14.6483906,10.3428281 14.5958438,10.38 14.6097656,10.4258906 Z M10.866,11.2454063 C11.0228906,11.6158594 11.2509844,11.9181563 11.4560625,12.141375 C8.28360938,10.3297031 10.1020313,6.5454375 12.7903594,6.44897404 C12.8465156,6.447 12.8722969,6.51876563 12.826875,6.55185938 C12.5730938,6.73659375 12.1557188,7.16634375 12.5457656,7.81598438 C12.9397969,8.4721875 13.1380313,8.91028125 12.7126406,9.6628125 C12.2845313,10.4202656 11.621625,10.2966094 11.4376406,11.2474219 C11.393625,11.475 11.4915469,11.760375 11.5926094,11.9780156 C11.1307031,11.4664688 10.5616875,10.5262031 11.1180938,9.34982813 C11.1426094,9.29803125 11.1233438,9.23610938 11.0724844,9.2098125 L11.07225,9.20967188 C11.0198438,9.18253125 10.9540781,9.20357813 10.9287656,9.256875 C10.5615469,10.0295625 10.6381406,10.7074219 10.866,11.2454063 Z M10.8573281,8.97435938 L11.2272188,8.95921875 L11.3614219,9.3043125 C11.3788125,9.34898438 11.4430313,9.34584375 11.4559688,9.29967188 L11.5558125,8.94309375 L11.9255156,8.92209375 C11.973375,8.919375 11.99025,8.8573125 11.9503125,8.83073438 L11.6420625,8.62560938 L11.736375,8.26753125 C11.7485625,8.22117188 11.69475,8.18592188 11.6571563,8.2156875 L11.3668125,8.44546875 L11.0554219,8.245125 C11.0151094,8.21915625 10.9649531,8.25946875 10.9816406,8.30442188 L11.1104531,8.65157813 L10.8237188,8.88585938 C10.7865938,8.9161875 10.8094219,8.97632813 10.8573281,8.97435938 Z M12.9606094,12.4661719 C12.6280781,12.2396719 12.2725781,12.109125 11.979375,12.0325313 C15.6274688,11.8374375 16.1482031,16.0035 13.9404844,17.5404844 C13.8943594,17.5725938 13.8337969,17.5261875 13.8540938,17.4737813 C13.9673906,17.1810469 14.0854688,16.5937031 13.4057813,16.2588281 C12.7191563,15.9205781 12.3152813,15.6596719 12.2653125,14.7966563 C12.2150156,13.9280625 12.8392031,13.6730156 12.4789688,12.7740469 C12.3927188,12.5588906 12.1558594,12.372 11.9530313,12.2437969 C12.6183281,12.4237031 13.6059375,12.9059531 13.77525,14.1962344 C13.7827031,14.2530469 13.8324375,14.2946719 13.8894375,14.2892344 L13.8897188,14.2891875 C13.9485,14.2836094 13.992375,14.2303125 13.9847813,14.1718125 C13.875,13.323375 13.4435156,12.7950469 12.9606094,12.4661719 Z M14.1977813,14.3706094 L13.8950625,14.5838438 L13.5953438,14.3663906 C13.5565781,14.3382188 13.5042656,14.3756719 13.518375,14.4214688 L13.6275469,14.7752813 L13.3281094,14.9931094 C13.2892969,15.0213281 13.30875,15.0826406 13.3567031,15.0833438 L13.7269688,15.0888281 L13.841625,15.4409063 C13.8564375,15.4865156 13.9207969,15.4869844 13.9362656,15.4416094 L14.0558906,15.0911719 L14.4261563,15.0909375 C14.4741094,15.0909375 14.4944063,15.0298594 14.4560625,15.001125 L14.1597656,14.7790313 L14.2739531,14.4268125 C14.2887656,14.3812031 14.2369688,14.343 14.1977813,14.3706094 Z M11.7528281,13.513125 C11.8673906,13.1274375 11.8836094,12.7491094 11.86725,12.4464844 C13.1631563,15.8622188 9.3530625,17.6259375 7.21720313,15.9905625 C7.17257813,15.9564375 7.1983125,15.884625 7.25442188,15.888 C7.56778125,15.9068438 8.1631875,15.8406563 8.27535938,15.0912656 C8.38865625,14.3342813 8.51428125,13.870125 9.3211875,13.5599531 C10.1332969,13.2477656 10.5661875,13.76475 11.3129063,13.1480625 C11.4916406,13.0004531 11.5975781,12.7179375 11.658,12.4857188 C11.6890781,13.1742656 11.5301719,14.2617188 10.352625,14.8156406 C10.3008281,14.8400156 10.2763125,14.9000625 10.2988125,14.9527031 L10.2989063,14.9529375 C10.3221094,15.0071719 10.3862344,15.0327656 10.4396719,15.0077344 C11.2145156,14.6450156 11.5864688,14.0732344 11.7528281,13.513125 Z M10.315125,15.271125 L10.02,15.047625 L10.1359219,14.6959688 C10.1509219,14.6504531 10.0993594,14.6120156 10.0600312,14.6393906 L9.7561875,14.8510781 L9.45754687,14.632125 C9.418875,14.6037656 9.366375,14.6409375 9.38029687,14.6868281 L9.48773437,15.0412031 L9.18721875,15.2575313 C9.1483125,15.2855625 9.16748437,15.3469688 9.21539062,15.3479063 L9.58560937,15.3552656 L9.69848437,15.7079063 C9.7130625,15.7535625 9.77742187,15.7543125 9.793125,15.7090313 L9.91453125,15.3592031 L10.2847969,15.3607969 C10.33275,15.3609844 10.3533281,15.3000469 10.315125,15.271125 Z" id="Shape" fill="#F5F5F5" fill-rule="nonzero"></path>
                <circle id="Oval" stroke="#FFFFFF" cx="12" cy="12" r="11.5"></circle>
            </g>
        </g>
    </g>
</svg>