<?xml version="1.0" encoding="UTF-8"?>
<svg width="24px" height="24px" viewBox="0 0 24 24" version="1.1" xmlns="http://www.w3.org/2000/svg" xmlns:xlink="http://www.w3.org/1999/xlink">
    <!-- Generator: Sketch 55.1 (78136) - https://sketchapp.com -->
    <title>Regional Coupons/coupon_asian_leagues</title>
    <desc>Created with Sketch.</desc>
    <g id="Icons" stroke="none" stroke-width="1" fill="none" fill-rule="evenodd">
        <g id="Regional-Icons/coupon_asian_leagues">
            <g id="coupon_asian_leagues">
                <circle id="Oval" fill="#415B73" cx="12" cy="12" r="11.8"></circle>
                <path d="M15.9498205,15.1651295 C15.7790828,15.2271645 15.8125586,15.5 15.3074431,15.4697808 C15.1467474,15.460167 15.4104948,16.0043016 15.2202446,16.1330454 C15.0299943,16.2617893 14.866456,16.0599631 15.0274437,15.8449651 C15.0655657,15.7871791 14.9871308,15.4990987 14.901685,15.4850771 C14.4240647,15.4850771 14.2944909,15.7927299 14.3215297,15.9733112 C14.3395555,16.0936988 14.2650643,16.1509092 14.098056,16.1449426 C14.1380767,16.2554158 14.212568,16.3107941 14.3215297,16.3110774 C14.4849722,16.3115023 14.4052228,16.4317482 14.4240647,16.5180024 C14.4670067,16.7198286 14.6977735,16.6709654 14.9130777,16.8417741 C15.128382,17.0125828 14.9823108,17.0164068 14.9818726,17.1073349 C14.9818726,17.1625715 15.2352272,17.5604626 14.9538288,17.6648001 C14.6724305,17.7691375 14.5,17.7735738 14.506005,17.9384339 C14.4372102,18.008542 14.3416861,17.9448074 14.2873513,18.0310615 C14.2514203,18.0845986 14.2755204,18.2333126 14.1580871,18.2133424 C14.0428448,18.1942221 14.1580871,18.090972 14,17.9516248 C13.8419129,17.8122776 13.1059754,17.2817845 13.0529877,17.3159594 C13.042319,17.3228403 12.700688,17.8202929 12.8597487,18.2583816 C13.0643773,18.4789776 13.2149665,18.636048 13.3115161,18.7295926 C13.4144893,18.744464 13.6759855,18.9863485 13.8158633,19.0950086 C13.9557411,19.2036686 14.0097748,19.5988373 14.0623558,19.6492495 C14.1164747,19.7031777 14.4559358,19.8449501 14.5240223,19.8406557 C14.6271599,19.7260021 14.7051394,19.6552635 14.7579607,19.6284398 C14.9288898,19.5416386 14.9818726,19.518575 15.1532547,19.518575 C15.3246368,19.518575 15.3748096,19.5897907 15.4568068,19.4140778 C15.5388041,19.2383649 15.7535504,19.1914842 15.7790828,19.1896949 C15.8749712,19.1821797 15.9492989,19.0411799 15.9941225,19.0068246 C16.0434852,18.97068 16.3929957,18.7509494 16.4190955,18.7509494 C16.5564032,18.7509494 16.4525714,18.843995 16.5115796,18.9148527 C16.539949,18.9499237 16.8750459,18.9148527 16.922368,19.0844819 C16.9696901,19.254111 16.5393816,19.2655628 16.512147,19.3095805 C16.4860472,19.3489459 16.6097291,19.483504 16.7793864,19.483504 C16.9490437,19.483504 16.7503822,19.731778 16.64832,19.8617699 C16.5462577,19.9917618 16.4395215,19.9358485 16.4332802,20.0507239 C16.4276063,20.1666729 16.3101572,20.1455588 16.2114318,20.2182058 C16.1274585,20.279759 16.2034884,20.3609949 16.1541257,20.4293476 C16.1172455,20.4787333 15.8789429,20.4969846 15.8125586,20.5399286 C15.6429098,20.6505097 15.5958167,20.5846621 15.4187919,20.5195302 C15.3047471,20.4773018 14.9796342,20.5 14.800991,20.597277 C14.4522694,20.7551837 14.5154141,20.5195302 14.2757386,20.4506297 C14.036063,20.3817291 13.8592815,20.2477391 13.7726914,20.2017304 C13.6938325,20.1602472 13.3807744,19.7019939 13.059354,19.6334104 C12.7379336,19.564827 12.4002137,19.1847788 12.3497028,19.1338676 C12.1165676,18.7112892 12.1666667,18.5765309 12.5,18.7295926 C12.8333333,18.9991093 13.0555639,19.1675894 13.1666917,19.235033 C13.2565225,19.201094 13.1542082,19.0397328 12.8597487,18.7509494 C12.6351656,18.5892757 12.5,18.2856212 12.5043816,18.090972 C12.5087633,17.8963229 12.8479175,17.3706582 12.6739588,17.3159594 C12.5,17.2612607 12.3288224,16.620469 12.1415655,16.5562431 C11.9543086,16.4920173 11.9505819,16.9661929 11.7252909,16.6709654 C11.5,16.3757379 11.3577134,15.7475391 11.2156832,15.5 C10.7385611,15.276753 10.3333333,15.1946005 10,15.2535427 C9.5,15.3419559 9.2447327,16.3106525 8.49018027,16.6858368 C8,17.0800601 8.31300091,17.7150042 7.92579959,17.7735738 C7.53859828,17.8321433 7.49498229,16.7763399 7.24749114,16.3106525 C7,15.8449651 7.32592603,14.8281859 7.29919683,14.7457559 C7,14.5 6.63885391,15 6.63885391,14.4810449 C6.63885391,13.9620897 6.5,14.2044367 6.24580308,13.665667 C5.99160616,13.1268973 4.91503902,13.5 4.82126769,12.4942252 C4.17757576,12.5 4.18064304,11.2144347 3.95760751,11.2144347 C3.73457198,11.2144347 3.5,11.7313929 3.66314803,11.920189 C3.82629606,12.1089852 3.5,12.838245 3.91028367,12.9191225 C4.32056734,13 4.5,12.8851307 4.81250402,13.677989 C5.12500804,14.4708473 3.66314803,15.2535427 2.44850266,14.2044367 C1.5,13.2076278 2,11.7875427 2.22546713,11.0096342 C2.45093426,10.2317257 2.13584781,10.1831832 2.3179239,9.84159162 C2.5,9.5 3.28236635,9.08484959 3.28543363,8.97607589 C3.5,8.5 3,8.5 2.80386969,8.26989663 C2.71798567,8.23887913 2.5,7.61300546 2.80386969,7.50508155 C3.37672192,7.50169385 3.80906322,7.59304676 4.1008936,7.77914029 C4.53863917,8.05828058 4.1008936,8 4.17757576,8.34977732 C4.86815336,8.5 4.54740285,9.03543164 4.91503902,9.01771582 C5.28267519,9 4.86815336,9.32372015 4.82959319,9.66186007 C4.79103301,10 4.77920205,10.5 5.5,10.3505289 C5.6749393,10.1594083 5.77806332,10.0000212 5.80937206,9.87236764 C5.85633111,9.68090382 5.78176648,8.5 6.1616718,8.51846153 C6.41494201,8.53076922 6.41917779,8.3887119 6.17437913,8.09228957 C6,7.8704932 6.52755523,7.28201049 6.85356395,7.4043809 C7.17957266,7.52675131 7.14057431,7.92063108 7.48542492,7.89556214 C7.83027554,7.8704932 8.00832549,7.57986347 8,7.4358233 C7.46892129,7.15381281 7.73630687,7.01857418 7.96786524,6.82142185 C8.1994236,6.62426952 8.65141492,5.5 9.2447327,5.3223843 C9.83805047,5.1447686 10.1435767,5.40459756 10.3217884,4.95229878 C10.5,4.5 10.9435711,4.22444976 11.0360279,4.24569463 C11.0973736,4.26056603 10.385325,5.31261166 10.4041669,5.39121766 C10.7307381,5.28697619 11.0012435,5.09109855 11.2156832,4.80358474 C11.5,4.4980836 11.7846787,4.37018953 12.2099222,4.19980572 C12.6351656,4.02942192 13.1003116,4.03622027 13.0779642,3.82207205 C13.0556168,3.60664914 12.7721119,3.65763681 12.7256644,3.46388366 C12.7186535,3.42946698 12.6310168,3.26035787 12.700688,3.239113 C12.7449445,3.22551629 13.7726914,3.99500524 13.5170243,4.20532939 C13.4767114,4.23677178 13.1028758,4.64063228 13.3014379,4.57031614 C13.5,4.5 14.5473946,4.24569463 14.7579607,4.30433045 C14.9538288,4.30433045 14.837272,4.55034597 15.3074431,4.52867621 C15.7776143,4.50700645 15.2390865,4.19980572 15.5388041,4.02942192 C15.8385218,3.85903811 15.8760625,4.00010401 16.1373632,4.06553819 C16.3986638,4.13097236 16.2390218,3.7375175 16.7549887,3.83821815 C16.9673057,3.87914945 16.9891924,4.04981699 17.1083784,3.99500524 C17.2209916,3.94359267 17.4435889,3.73581791 17.5018674,3.65593722 C17.5754822,3.55353698 17.1666944,3.5 17.5049347,3.19747307 C17.6135998,3.1002814 17.8241306,2.5042908 18.0622859,2.49996147 C18.3932596,2.49403691 18.7780079,3.1821521 18.7550729,3.239113 C18.7182337,3.33060633 18.1990177,3.21999263 18.2840254,3.43796492 C18.369033,3.65593722 18.5488255,3.87914945 19.0377014,3.83821815 C19.5265773,3.79728685 19.1368675,4.02942192 18.9430537,4.12969767 C18.7492399,4.22997343 19.2224031,4.45601877 18.9605811,4.82907857 C18.9369192,4.90598498 18.8984437,5.06830438 19.2754585,5.5 C19.6524732,5.93169562 19.7317374,6.17175393 19.8658687,6.4725812 C20,6.77340846 19.6625515,6.77340846 19.6020821,6.62426952 C19.53022,6.45261103 18.7550729,5.5 18.7550729,5.0117844 C18.7489383,4.91575761 18.5789242,4.61238097 18.428626,4.75429665 C18.2783278,4.89621234 18.5916304,5.0117844 18.5302846,5.14392745 C18.478579,5.1970396 18.197265,5 18.197265,5.23485546 C18.197265,5.46971092 18.369033,5.82291328 17.9751653,6 C16.98076,6.44709421 16.9958649,7.3716466 17.2788318,7.4358233 C17.4674764,7.47860777 17.7825306,7.44376619 18.2239942,7.33129857 C19.2199572,7.50508155 19.0775761,8.31323615 18.9601429,8.22995629 C18.843586,8.14710132 18.3952921,7.88357815 18.2840254,8 C17.9576795,8.60443786 17.973049,9.46317063 18.0426871,10.1346395 C18.1123252,10.8061084 18.0122583,11.7875427 17.9054346,11.9048927 C17.7986109,12.0222428 17.5941951,11.4345315 17.3134484,11.3244831 C17.1262839,11.2511175 16.9401307,11.1465721 16.7549887,11.0108469 C16.2448712,11 15.9498205,11.2144347 16.1623396,11.4867938 C16.3748588,11.759153 16.512147,11.5 16.9488795,11.5603011 C16.9915294,11.6407483 17.0474708,12.0823582 17.1167038,12.8851307 C17.0207693,14 16.4093602,15.1651295 15.9498205,15.1651295 Z M18.8953119,19.7383341 C18.6923732,19.7706822 18.8195045,19.4733789 18.8253354,19.4436756 C18.8516592,19.3095805 18.8042862,19.261075 18.7796795,19.0991045 C18.7550729,18.937134 18.7862016,18.7616855 18.8931008,18.7616855 C19,18.7616855 19.0377014,19.0068246 18.9254272,19.3074856 C18.8981486,19.3805354 18.965771,19.5538675 18.9229998,19.6383282 C18.9360481,19.6370424 19.1889848,19.688333 19.2199572,19.6537782 C19.2729534,19.5960015 19.2915712,19.6234241 19.4384649,19.5851943 C19.6944418,19.518575 19.8673271,19.5369778 19.8958635,19.564827 C19.964351,19.6305013 19.6667566,19.7489644 19.5387502,19.7527053 C19.5126597,19.7535366 19.340328,19.7527053 19.2224031,19.8113134 C19.1282964,19.8580839 19.0377014,19.7535366 18.8953119,19.7383341 Z M14.9412854,3.7290962 C14.9510352,3.75486712 14.901685,3.92957106 14.5473946,3.87914945 C14.442097,3.91780583 14.3952981,3.99262462 14.268551,4.0146546 C14.0014072,4.06370248 13.9494084,3.80724027 13.9565583,3.80682461 C14.2873513,3.63851643 14.8138884,3.72577092 14.9412854,3.7290962 Z M19.5874218,9.44438377 C19.9004553,9.66186007 19.4384649,10.1346395 19.1368675,10.1843953 C18.9831382,10.2097566 19.8658687,11 19.9004553,11.4729851 C19.9115754,11.6250557 19.7785138,11.7601271 19.5012707,11.8781994 C19.2754585,12 19.3556216,12.3306398 19.1368675,12.3306398 C18.9181134,12.3306398 18.8516592,12.6414022 18.6081887,12.6485704 C18.5211803,12.651132 18.4428427,12.8627731 18.4385619,12.924757 C18.4300003,13.0263768 18.4249938,13.1554045 18.2641193,13.1554045 C18.144792,13.1440197 18.1118192,12.9365433 18.0622859,12.8519887 C17.9223715,12.7686622 17.8933313,12.6984667 17.9751653,12.6414022 C18.2525857,12.2915571 18.4209639,12.105465 18.4802998,12.0831257 C18.6905941,12.0042754 18.8762738,11.991204 18.8966076,11.7875427 C18.9233626,11.5568953 18.9629177,11.4481282 19.2305101,11.4375658 C19.2576218,11.2871741 19.2726046,11.1793699 19.2754585,11.1141533 C19.2754585,10.784416 18.8548698,10.4120911 18.818483,10.3505289 C18.7505253,10.2375243 18.7033184,9.54824218 18.8516592,9.77412109 C18.9505531,9.92470703 19.1958073,9.81479459 19.5874218,9.44438377 Z M8.31300091,17.8202929 C8.38717384,17.8202929 8.57646935,18.1014849 8.65141492,18.1696032 C8.72249732,18.2360866 8.84843678,18.2633339 8.915656,18.332542 C9.12194948,18.5488855 8.88475061,18.7674088 8.54710923,18.7499705 C8.26277965,18.7358019 8.3083651,18.6082846 8.1994236,18.4687785 C8.12679593,18.3750478 7.99622066,18.3668736 8.00008384,18.2371765 C8.00626492,18.1445357 8.25196276,17.8202929 8.31300091,17.8202929 Z M16.16526,21.447356 C16.6848737,21.2822835 16.934267,21.2960002 16.9134401,21.4885063 C16.907489,21.5435128 15.9221142,21.6443788 15.8638605,21.6447945 C15.7124009,21.6456258 15.5573954,21.6460414 15.4104948,21.634403 C15.3107037,21.6256741 14.9920813,21.6871918 14.9262293,21.696752 C14.7884467,21.7167036 14.6486378,21.6389752 14.5154141,21.6202705 C14.4272738,21.6078007 13.5881404,21.7017399 13.5,21.696752 C13.3986892,21.6913484 12.9471234,21.5629095 12.9648528,21.4423681 C13.1188452,21.425326 13.3794402,21.4206089 13.5,21.5 C13.5536947,21.5357468 13.7190315,21.5509359 13.8158633,21.5446204 C14.5,21.5 14.7579607,21.447356 14.9834699,21.5853551 C15.0837676,21.6028128 15.4798927,21.552518 15.5796838,21.5616625 C15.6885929,21.570807 16.0553379,21.527994 16.16526,21.447356 Z M18.7809328,20.6251901 C18.7971398,20.6165718 18.8116103,20.6122626 18.8249232,20.6122626 C18.8816477,20.6122626 18.9134829,20.683364 18.9181134,20.7551837 C18.9262169,20.8650677 18.8897512,20.8959501 18.8173985,20.9462239 C18.7693564,20.9806973 18.6900579,20.994343 18.6483828,21.0410258 C18.6009194,21.0948905 18.6171264,21.1408551 18.5789242,21.1997472 C18.489207,21.3397955 18.3375558,21.2679759 18.2472597,21.3814509 C18.1702765,21.4791256 18.1372837,21.5789549 18.0122583,21.5301175 C17.9352751,21.4992351 17.8924424,21.4626071 17.9607432,21.3663688 C18.0284653,21.2701304 18.1598577,21.3182496 18.2379986,21.2457118 C18.2947231,21.1932834 18.2623091,21.165992 18.2947231,21.1013543 C18.3439228,21.0029614 18.4689482,20.9885975 18.5488255,20.9196506 C18.5928159,20.884459 18.6553286,20.8349035 18.6923732,20.7882207 C18.7230507,20.7508745 18.7462035,20.6460178 18.7809328,20.6251901 Z M17.9214947,18.8558801 C17.8737075,18.95196 17.706632,19.0613748 17.4202683,19.1841245 C17.3650821,19.2077801 17.1884062,19.483504 17.3693956,19.4251959 C17.392313,19.4178127 17.6191936,19.2352446 17.6472388,19.364928 C17.6772406,19.5091404 17.4374528,19.564827 17.4140723,19.7943364 C17.4202683,19.8917335 17.5617987,19.8917335 17.6006055,20.0908326 C17.6472388,20.2017304 17.6472388,20.4223057 17.5617987,20.4223057 C17.4443375,20.4223057 17.3224362,19.9224055 17.245475,19.9224055 C17.1685137,19.9224055 17.3178848,20.5 17.1884062,20.5944996 C17.1365552,20.647772 17.0866608,20.5718991 17.0824215,20.4901071 C17.0765515,20.3970148 17.0915525,20.2980033 17.0723121,20.2119064 C16.936359,20.2017304 16.9298034,19.9433917 16.9490437,19.8820476 C17.0273544,19.5826066 17.0804659,19.4102334 17.1083784,19.364928 C17.1438291,19.3073871 17.1635697,19.2121506 17.3693956,19 C17.5235355,18.8411236 17.7075686,18.7930837 17.9214947,18.8558801 Z M17.3964172,15.3616926 C17.4374528,15.6883724 17.245475,15.8851607 17.4158625,16.0970009 C17.6870808,16.1142322 17.8569326,16.2610337 17.9254178,16.5374053 C17.9275095,16.637003 17.8565047,16.6241811 17.7124033,16.4989396 C17.4962512,16.3110774 17.4372259,16.5 17.3120069,16.3757379 C17.3682804,16.5824705 17.3830117,16.753615 17.3562007,16.8891714 C17.2130126,16.899206 17.2346676,16.7447857 17.2143384,16.620469 C17.2037319,16.5496698 17.25121,16.2636856 17.137883,16.2636856 C16.8576858,16.2636856 16.7793864,16 17.0207693,15.6883724 C17.1118086,15.6242629 17.0958988,15.5991766 17.0327016,15.5155555 C16.9902755,15.4575782 16.9703883,15.3299166 17.0132563,15.2535427 C17.3178848,14.9386592 17.4987106,15.1209401 17.3964172,15.3616926 Z M16.6434192,17.1889692 C16.6818673,17.0974321 16.5461431,16.9365688 16.6829306,16.8891714 C16.819718,16.8417741 16.8919255,16.9885231 16.8750459,17.0800601 C16.862855,17.1629112 16.8872367,17.2678113 16.819718,17.3413082 C16.7521993,17.4174777 16.6499835,17.4047828 16.5552697,17.4442039 C16.3677178,17.5203734 16.363029,17.7655858 16.1867301,17.814361 C16.0666969,17.849105 15.894149,17.7234921 15.9532279,17.6386366 C15.9907383,17.5825117 16.184474,17.6120312 16.2448712,17.5604626 C16.4480354,17.3869961 16.5552697,17.3159594 16.6434192,17.1889692 Z M18.6548353,17.8501793 C18.8050259,17.7735738 18.7550729,18 18.9008622,18.19838 C18.9822236,18.332542 18.8249232,18.4687785 18.7236394,18.5778904 C18.6548353,18.7509494 18.5302846,18.8558801 18.4292412,18.568877 C18.3573842,18.3647748 18.2472597,18.4977188 18.1123252,18.4977188 C18.0764637,18.520015 18.0426871,18.6560854 17.9305155,18.5892757 C17.9104998,18.4374715 17.9684621,18.4635629 18.0622859,18.4033156 C18.1256691,18.3629926 18.1591418,18.1319657 18.369033,18.1319657 C18.5789242,18.1319657 18.5046448,17.9267849 18.6548353,17.8501793 Z M17.925158,17.0807839 C17.9645712,17.1250609 17.9304152,17.1552177 17.82269,17.1712543 C17.7789905,17.2222888 17.8588552,17.3382764 17.8498139,17.4060132 C17.8282153,17.5748912 17.6295918,17.5057626 17.5,17.5261764 C17.3960252,17.5419507 17.3530454,17.6314932 17.3178848,17.7150042 C17.2877472,17.782741 17.1884062,17.9384339 17.1666944,17.8115059 C17.1300813,17.5974652 16.9647723,17.6022643 16.9446805,17.5308159 C16.8964603,17.3572984 17.015504,17.2501258 17.1953251,17.2612607 L17.4302398,17.3413082 C17.5179458,17.324409 17.5407693,17.2773063 17.4987106,17.2 C17.4987106,16.8417741 17.7124033,16.8417741 17.925158,17.0807839 Z" id="map" fill="#00F4BD"></path>
                <circle id="Oval" stroke="#FFFFFF" cx="12" cy="12" r="11.5"></circle>
            </g>
        </g>
    </g>
</svg>