<?xml version="1.0" encoding="UTF-8"?>
<svg width="24px" height="24px" viewBox="0 0 24 24" version="1.1" xmlns="http://www.w3.org/2000/svg" xmlns:xlink="http://www.w3.org/1999/xlink">
    <!-- Generator: Sketch 55.1 (78136) - https://sketchapp.com -->
    <title>Flags/andorra</title>
    <desc>Created with Sketch.</desc>
    <g id="Icons" stroke="none" stroke-width="1" fill="none" fill-rule="evenodd">
        <g id="Flags/andorra">
            <g id="andorra">
                <g id="Group" transform="translate(0.500000, 0.500000)" fill-rule="nonzero">
                    <path d="M6.48054453,21.8589844 C7.98852119,22.5912109 9.67548617,23 11.4608947,23 C13.2463033,23 14.9332683,22.5912109 16.4412449,21.8589844 L17.4391048,11.5 L16.4412449,1.14101562 C14.9332683,0.408789062 13.2463033,0 11.4608947,0 C9.67548617,0 7.98852119,0.408789062 6.48054453,1.14101562 L5.48268461,11.5 L6.48054453,21.8589844 Z" id="Path" fill="#FFDA44"></path>
                    <path d="M16.4412449,21.8589844 C20.4033145,19.9413807 22.9217895,15.9156629 22.9217895,11.5 C22.9217895,7.08433707 20.4033145,3.05861932 16.4412449,1.14101563 L16.4412449,21.8589844 Z" id="Path" fill="#D80027"></path>
                    <path d="M6.48054453,21.8589844 L6.48054453,1.14101563 C2.518475,3.05861932 0,7.08433707 0,11.5 C0,15.9156629 2.518475,19.9413807 6.48054453,21.8589844 Z" id="Path" fill="#0052B4"></path>
                </g>
                <path d="M12,16.171875 L12,12 L15.1190661,12 L15.1190661,13.565625 C15.1190661,13.8375 14.6007782,14.83125 13.3167315,15.6515625 C12.8311284,15.9609375 12.3268482,16.0640625 12,16.171875 Z M8.88093385,8.86875 L12,8.86875 L12,12 L8.88093385,12 L8.88093385,8.86875 Z" id="Shape" fill="#D80027" fill-rule="nonzero"></path>
                <path d="M13.5595331,7.828125 C13.5588485,7.4554984 13.3606265,7.11141244 13.0392463,6.92497929 C12.7178661,6.73854614 12.3219277,6.73795874 12,6.9234375 C11.842623,6.83147495 11.663808,6.7829578 11.4817121,6.7828125 C10.907393,6.7828125 10.4404669,7.2515625 10.4404669,7.828125 L7.84435798,7.828125 L7.84435798,13.0453125 C7.84435798,14.9859375 9.38054475,16.1109375 10.585214,16.6921875 C10.4928101,16.8515529 10.4444531,17.0327907 10.4451362,17.2171875 C10.4467623,17.5883728 10.6443442,17.9308521 10.9642432,18.1169832 C11.2841421,18.3031143 11.6783708,18.3049762 12,18.121875 C12.157377,18.2138375 12.336192,18.2623547 12.5182879,18.2625 C12.8900749,18.2611054 13.2329129,18.0608072 13.4177868,17.7369808 C13.6026607,17.4131544 13.601517,17.0149383 13.414786,16.6921875 C14.6194553,16.1109375 16.155642,14.9859375 16.155642,13.0453125 L16.155642,7.828125 L13.5595331,7.828125 L13.5595331,7.828125 Z M14.6007782,13.0453125 C14.6007782,13.3171875 14.6007782,14.1421875 13.3167315,14.9625 C12.9029809,15.2201188 12.4611891,15.4292955 12,15.5859375 C11.6731518,15.4734375 11.1688716,15.271875 10.6832685,14.9625 C9.39922179,14.1421875 9.39922179,13.3171875 9.39922179,13.040625 L9.39922179,9.3890625 L14.6007782,9.3890625 L14.6007782,13.0453125 L14.6007782,13.0453125 Z" id="Shape" fill="#FF9811" fill-rule="nonzero"></path>
                <circle id="Oval" stroke="#FFFFFF" cx="12" cy="12" r="11.5"></circle>
            </g>
        </g>
    </g>
</svg>