<?xml version="1.0" encoding="UTF-8"?>
<svg width="24px" height="24px" viewBox="0 0 24 24" version="1.1" xmlns="http://www.w3.org/2000/svg" xmlns:xlink="http://www.w3.org/1999/xlink">
    <!-- Generator: Sketch 55.1 (78136) - https://sketchapp.com -->
    <title>Flags/guatemala</title>
    <desc>Created with Sketch.</desc>
    <g id="Icons" stroke="none" stroke-width="1" fill="none" fill-rule="evenodd">
        <g id="Flags/guatemala">
            <g id="guatemala">
                <g id="Group" transform="translate(0.500000, 0.500000)" fill-rule="nonzero">
                    <path d="M7.66681641,0.654318955 L7.66681641,22.345681 C3.20016743,20.7670171 0,16.5072281 0,11.5 C0,6.49277188 3.20016743,2.23298291 7.66681641,0.654318955 Z" id="Combined-Shape" fill="#82AFFF"></path>
                    <path d="M15.3336328,0.654477735 L15.3336328,22.3455223 C14.1345623,22.7693704 12.8442144,23 11.5,23 C10.1559535,23 8.86575997,22.769428 7.66681641,22.345681 L7.66681641,0.654318955 C8.86575997,0.230571983 10.1559535,0 11.5,0 C12.8442144,0 14.1345623,0.23062958 15.3336328,0.654477735 Z" id="Combined-Shape" fill="#F5F5F5"></path>
                    <path d="M15.3331836,22.345681 L15.3331836,0.654318955 C19.7998326,2.23298291 23,6.49277188 23,11.5 C23,16.5072281 19.7998326,20.7670171 15.3331836,22.345681 Z" id="Combined-Shape" fill="#82AFFF"></path>
                </g>
                <polygon id="Shape" fill="#FFC855" fill-rule="nonzero" points="12.3595312 9.641625 11.6095312 10.0677547 12.2995053 10.391625"></polygon>
                <path d="M12,14.6526094 C10.4928281,14.6526094 9.26671875,13.4264062 9.26671875,11.9193281 C9.26671875,10.9830469 9.73795313,10.1221875 10.5272813,9.61645312 L10.5974531,9.726 C9.84567188,10.2077344 9.39689063,11.0276719 9.39689063,11.9193281 C9.39689063,13.3547344 10.5646875,14.5224375 12,14.5224375 L12,14.6526094 Z" id="Shape" fill="#73AF00" fill-rule="nonzero"></path>
                <path d="M10.4356875,15.1935551 C10.5398438,15.2362966 10.7004844,15.1810063 10.8655313,15.0262688 C11.0305781,14.8715314 11.1549375,14.6594279 11.2056563,14.4714785 C11.1015,14.428737 10.9408594,14.4840274 10.7758125,14.6387648 C10.6108125,14.7935966 10.4864531,15.0056057 10.4356875,15.1935551 Z" id="Shape" fill="#73AF00" fill-rule="nonzero"></path>
                <path d="M11.5760238,14.4644531 C11.6187653,14.3602969 11.563475,14.1996562 11.4087376,14.0346094 C11.2540002,13.8695625 11.0418966,13.7452031 10.8539473,13.6944844 C10.8112058,13.7986406 10.8664961,13.9592812 11.0212335,14.1243281 C11.1760653,14.2893281 11.3880745,14.4136875 11.5760238,14.4644531 Z" id="Shape" fill="#73AF00" fill-rule="nonzero"></path>
                <path d="M9.89114062,14.9108799 C9.99103125,15.0047442 10.1539687,14.9955275 10.3285312,14.861401 C10.5030937,14.7272745 10.6415625,14.5049835 10.7054531,14.2852392 C10.6055625,14.1913749 10.442625,14.2005915 10.2680625,14.334718 C10.0935469,14.4688445 9.95507812,14.6911356 9.89114062,14.9108799 Z" id="Shape" fill="#73AF00" fill-rule="nonzero"></path>
                <path d="M11.1274111,14.2470938 C11.2212754,14.1472031 11.2120588,13.9842656 11.0779323,13.8097031 C10.9438058,13.6351875 10.7215147,13.4966719 10.5017704,13.4327813 C10.4079061,13.5326719 10.4171228,13.6956094 10.5512493,13.8701719 C10.6853758,14.0447344 10.9077881,14.1832031 11.1274111,14.2470938 Z" id="Shape" fill="#73AF00" fill-rule="nonzero"></path>
                <path d="M9.38746875,14.4034086 C9.47920312,14.5827615 9.64017187,14.6689888 9.82115625,14.6032993 C10.0021406,14.5376097 10.1538281,14.3380326 10.2319219,14.0970664 C10.1401875,13.9177135 9.97921875,13.8314862 9.79823437,13.8971758 C9.61725,13.9628653 9.4655625,14.1624424 9.38746875,14.4034086 Z" id="Shape" fill="#73AF00" fill-rule="nonzero"></path>
                <path d="M10.6021743,13.9415156 C10.7815271,13.8497812 10.8677545,13.6888125 10.8020649,13.5078281 C10.7363754,13.3268437 10.5367983,13.1751562 10.295832,13.0970625 C10.1164792,13.1887969 10.0302518,13.3497656 10.0959414,13.53075 C10.1616309,13.7117344 10.361208,13.8634219 10.6021743,13.9415156 Z" id="Shape" fill="#73AF00" fill-rule="nonzero"></path>
                <path d="M8.97107813,13.5973192 C9.05189063,13.8355119 9.20573438,14.0211503 9.38732813,14.0651343 C9.56892188,14.1091183 9.72876563,13.9989966 9.8184375,13.8022005 C9.737625,13.5640077 9.58378125,13.3783694 9.4021875,13.3343854 C9.22054688,13.2904014 9.06070313,13.4003614 8.97107813,13.5973192 Z" id="Shape" fill="#73AF00" fill-rule="nonzero"></path>
                <path d="M10.0120099,13.4631094 C10.2502192,13.3822969 10.4358704,13.2284531 10.4798575,13.0468594 C10.5236828,12.8652656 10.4137152,12.7054219 10.2169055,12.61575 C9.97869619,12.6965625 9.79304496,12.8504062 9.74905791,13.032 C9.70507086,13.2136406 9.81503849,13.3734844 10.0120099,13.4631094 Z" id="Shape" fill="#73AF00" fill-rule="nonzero"></path>
                <path d="M8.72728125,12.7510943 C8.79178125,12.9721702 8.9308125,13.1947182 9.10570313,13.3272164 C9.28059375,13.4597147 9.44353125,13.4662169 9.5431875,13.3695423 C9.4786875,13.1484665 9.33965625,12.9259184 9.16476563,12.7934202 C8.98992188,12.6607992 8.8269375,12.6544197 8.72728125,12.7510943 Z" id="Shape" fill="#73AF00" fill-rule="nonzero"></path>
                <path d="M9.58382281,12.9467344 C9.80491059,12.8822344 10.0274707,12.7432031 10.1599761,12.5683125 C10.2924815,12.3934219 10.2989841,12.2304844 10.2023042,12.1308281 C9.98121645,12.1953281 9.75865638,12.3343594 9.62615094,12.50925 C9.49364549,12.6840937 9.48714291,12.8470781 9.58382281,12.9467344 Z" id="Shape" fill="#73AF00" fill-rule="nonzero"></path>
                <path d="M8.62415625,11.9019377 C8.665992,12.0689687 8.78193403,12.2695653 8.94270697,12.4292613 C9.10343161,12.5889573 9.26512243,12.6643006 9.37415625,12.647159 C9.3323205,12.480128 9.21637847,12.2795314 9.05560553,12.1198354 C8.89483258,11.9601394 8.73319007,11.8847961 8.62415625,11.9019377 Z" id="Shape" fill="#73AF00" fill-rule="nonzero"></path>
                <path d="M9.35287596,12.3613594 C9.51990653,12.3195236 9.72050267,12.2035816 9.88019825,12.0428087 C10.0398938,11.882084 10.115237,11.7203932 10.0980954,11.6113594 C9.93106484,11.6531951 9.7304687,11.7691372 9.57077312,11.9299101 C9.41099782,12.090683 9.3357344,12.2523256 9.35287596,12.3613594 Z" id="Shape" fill="#73AF00" fill-rule="nonzero"></path>
                <path d="M8.7219375,11.1367031 C8.74502752,11.2716583 8.84828016,11.4509733 9.00905929,11.6117092 C9.16983841,11.7724451 9.34417653,11.8708474 9.4719375,11.8867031 C9.44884748,11.7517479 9.34559484,11.572433 9.18481571,11.4116971 C9.02403659,11.2509612 8.84969847,11.1525589 8.7219375,11.1367031 Z" id="Shape" fill="#73AF00" fill-rule="nonzero"></path>
                <path d="M9.341625,11.8479375 C9.47658022,11.8248475 9.65589515,11.7215948 9.81663105,11.5608157 C9.97736695,11.4000366 10.0757693,11.2256985 10.091625,11.0979375 C9.95666978,11.1210275 9.77735485,11.2242802 9.61661895,11.3850593 C9.45588305,11.5458384 9.35754124,11.7202333 9.341625,11.8479375 Z" id="Shape" fill="#73AF00" fill-rule="nonzero"></path>
                <path d="M9.1135682,10.3096875 C9.06903979,10.4137031 9.12281714,10.5745313 9.2770933,10.7400469 C9.43136946,10.9055625 9.64409512,11.0305781 9.83336469,11.0819063 C9.8778931,10.9778906 9.82411575,10.8170625 9.66983959,10.6515469 C9.51556343,10.4860781 9.30283778,10.3610156 9.1135682,10.3096875 Z" id="Shape" fill="#73AF00" fill-rule="nonzero"></path>
                <path d="M9.45975,11.4555209 C9.56376562,11.5000494 9.72459375,11.446272 9.89010937,11.2919958 C10.055625,11.1377197 10.1806406,10.924994 10.2319687,10.7357245 C10.1279531,10.691196 9.967125,10.7449734 9.80160937,10.8992496 C9.63609375,11.0536211 9.51107812,11.2662514 9.45975,11.4555209 Z" id="Shape" fill="#73AF00" fill-rule="nonzero"></path>
                <path d="M9.67734534,9.69726562 C9.52225814,9.79157812 9.46606497,9.95357812 9.55635953,10.1333906 C9.64665409,10.3132031 9.85897232,10.46175 10.0988682,10.5361875 C10.2539554,10.441875 10.3101486,10.279875 10.219854,10.1000625 C10.1295595,9.92025 9.91724122,9.77170313 9.67734534,9.69726562 Z" id="Shape" fill="#73AF00" fill-rule="nonzero"></path>
                <path d="M9.69829688,10.936712 C9.79260938,11.0917992 9.95460938,11.1479923 10.1344219,11.0576978 C10.3142344,10.9674032 10.4627813,10.755085 10.5372188,10.5151891 C10.4429063,10.3601019 10.2809063,10.3039087 10.1010938,10.3942033 C9.92128125,10.4844978 9.77278125,10.6969643 9.69829688,10.936712 Z" id="Shape" fill="#73AF00" fill-rule="nonzero"></path>
                <path d="M10.2736484,9.27098437 C10.0533988,9.35704687 9.90711732,9.51464062 9.91340543,9.69670312 C9.91969355,9.87876562 10.076731,10.0355625 10.3027723,10.1203594 C10.5230219,10.0342969 10.6693034,9.87670312 10.6630153,9.69464062 C10.6567272,9.51257812 10.4996897,9.35578125 10.2736484,9.27098437 Z" id="Shape" fill="#73AF00" fill-rule="nonzero"></path>
                <path d="M10.0235156,10.3995692 C10.1095781,10.6198188 10.2671719,10.7661003 10.4492344,10.7598122 C10.6312969,10.7535241 10.7880938,10.5964866 10.8728906,10.3704453 C10.7868281,10.1501957 10.6292344,10.0039142 10.4471719,10.0102023 C10.2651563,10.0164904 10.1083594,10.1735279 10.0235156,10.3995692 Z" id="Shape" fill="#73AF00" fill-rule="nonzero"></path>
                <path d="M10.2420469,10.1961013 C10.3521762,10.2103879 10.5145438,10.1330217 10.6753033,9.97298041 C10.8360629,9.81293915 10.9513088,9.61394151 10.9920469,9.44945033 C10.8819176,9.43516372 10.71955,9.51253 10.5587904,9.67257126 C10.3980309,9.83253444 10.2828337,10.0315321 10.2420469,10.1961013 Z" id="Shape" fill="#73AF00" fill-rule="nonzero"></path>
                <path d="M12,14.6526094 L12,14.5224375 C13.4353594,14.5224375 14.6031094,13.3547344 14.6031094,11.9193281 C14.6031094,11.0276719 14.1542812,10.2077344 13.4025469,9.726 L13.4727187,9.61645312 C14.2620469,10.1221875 14.7332812,10.9830937 14.7332812,11.9193281 C14.7332812,13.4264062 13.5071719,14.6526094 12,14.6526094 Z" id="Shape" fill="#73AF00" fill-rule="nonzero"></path>
                <path d="M13.5643125,15.1935551 C13.4601563,15.2362966 13.2995156,15.1810063 13.1344688,15.0262688 C12.9694219,14.8715314 12.8450625,14.6594279 12.7943438,14.4714785 C12.8985,14.428737 13.0591406,14.4840274 13.2241875,14.6387648 C13.3891875,14.7935966 13.5135469,15.0056057 13.5643125,15.1935551 Z" id="Shape" fill="#73AF00" fill-rule="nonzero"></path>
                <path d="M12.8013692,14.4644531 C12.7586277,14.3602969 12.813918,14.1996562 12.9686554,14.0346094 C13.1233928,13.8695625 13.3354964,13.7452031 13.5234457,13.6944844 C13.5661872,13.7986406 13.5108969,13.9592812 13.3561595,14.1243281 C13.2013277,14.2893281 12.9893185,14.4136875 12.8013692,14.4644531 Z" id="Shape" fill="#73AF00" fill-rule="nonzero"></path>
                <path d="M14.1088594,14.9108799 C14.0089687,15.0047442 13.8460312,14.9955275 13.6714687,14.861401 C13.4969531,14.7272745 13.3584375,14.5049835 13.2945469,14.2852392 C13.3944375,14.1913749 13.557375,14.2005915 13.7319375,14.334718 C13.9065,14.4688445 14.0449219,14.6911356 14.1088594,14.9108799 Z" id="Shape" fill="#73AF00" fill-rule="nonzero"></path>
                <path d="M13.3326923,14.2470938 C13.238828,14.1472031 13.2480447,13.9842656 13.3821712,13.8097031 C13.5162977,13.6351875 13.7385887,13.4966719 13.958333,13.4327813 C14.0521973,13.5326719 14.0429806,13.6956094 13.9088541,13.8701719 C13.7747276,14.0447344 13.5523154,14.1832031 13.3326923,14.2470938 Z" id="Shape" fill="#73AF00" fill-rule="nonzero"></path>
                <path d="M14.6125313,14.4034086 C14.5207969,14.5827615 14.3598281,14.6689888 14.1788438,14.6032993 C13.9978594,14.5376097 13.8461719,14.3380326 13.7680781,14.0970664 C13.8598125,13.9177135 14.0207813,13.8314862 14.2017656,13.8971758 C14.38275,13.9628653 14.5344375,14.1624424 14.6125313,14.4034086 Z" id="Shape" fill="#73AF00" fill-rule="nonzero"></path>
                <path d="M13.923582,13.9415156 C13.7442292,13.8497812 13.6580018,13.6888125 13.7236914,13.5078281 C13.7893809,13.3268437 13.988958,13.1751562 14.2299243,13.0970625 C14.4092771,13.1887969 14.4955045,13.3497656 14.4298149,13.53075 C14.3641254,13.7117344 14.1645483,13.8634219 13.923582,13.9415156 Z" id="Shape" fill="#73AF00" fill-rule="nonzero"></path>
                <path d="M15.0289219,13.597338 C14.9481094,13.8355473 14.7942656,14.0211986 14.6126719,14.0651856 C14.4310781,14.109011 14.2712344,13.9990433 14.1815625,13.8022336 C14.262375,13.5640243 14.4162187,13.3783731 14.5978125,13.334386 C14.7794062,13.290399 14.9392969,13.4003666 15.0289219,13.597338 Z" id="Shape" fill="#73AF00" fill-rule="nonzero"></path>
                <path d="M14.5205966,13.4631094 C14.2823873,13.3822969 14.096736,13.2284531 14.052749,13.0468594 C14.0089237,12.8652656 14.1188913,12.7054219 14.315701,12.61575 C14.5539103,12.6965625 14.7395615,12.8504062 14.7835486,13.032 C14.8275356,13.2136406 14.717568,13.3734844 14.5205966,13.4631094 Z" id="Shape" fill="#73AF00" fill-rule="nonzero"></path>
                <path d="M15.2727188,12.7510943 C15.2082188,12.9721702 15.0691875,13.1947182 14.8942969,13.3272164 C14.7194063,13.4597147 14.5564688,13.4662169 14.4568125,13.3695423 C14.5213125,13.1484665 14.6603438,12.9259184 14.8352344,12.7934202 C15.0100781,12.6607992 15.1730625,12.6544197 15.2727188,12.7510943 Z" id="Shape" fill="#73AF00" fill-rule="nonzero"></path>
                <path d="M14.8796324,12.9467344 C14.6585446,12.8822344 14.4359845,12.7432031 14.3034791,12.5683125 C14.1709736,12.3934219 14.164471,12.2304844 14.2611509,12.1308281 C14.4822387,12.1953281 14.7047988,12.3343594 14.8373042,12.50925 C14.9698097,12.6840937 14.9763123,12.8470781 14.8796324,12.9467344 Z" id="Shape" fill="#73AF00" fill-rule="nonzero"></path>
                <path d="M15.3981094,11.9019377 C15.3562736,12.0689687 15.2403316,12.2695653 15.0795587,12.4292613 C14.918834,12.5889573 14.7571432,12.6643006 14.6481094,12.647159 C14.6899451,12.480128 14.8058872,12.2795314 14.9666601,12.1198354 C15.1273847,11.9601394 15.2890756,11.8847961 15.3981094,11.9019377 Z" id="Shape" fill="#73AF00" fill-rule="nonzero"></path>
                <path d="M14.9561728,12.3613594 C14.7891422,12.3195236 14.588546,12.2035816 14.4288505,12.0428087 C14.2691549,11.8820357 14.1938118,11.7203932 14.2109533,11.6113594 C14.3779839,11.6531951 14.57858,11.7691372 14.7382756,11.9299101 C14.8980509,12.090683 14.9733143,12.2523256 14.9561728,12.3613594 Z" id="Shape" fill="#73AF00" fill-rule="nonzero"></path>
                <path d="M15.408375,11.1367031 C15.385285,11.2716583 15.2820323,11.4509733 15.1212532,11.6117092 C14.9604741,11.7724451 14.786136,11.8708474 14.658375,11.8867031 C14.681465,11.7517479 14.7847177,11.572433 14.9454968,11.4116971 C15.1062192,11.2509612 15.280614,11.1525589 15.408375,11.1367031 Z" id="Shape" fill="#73AF00" fill-rule="nonzero"></path>
                <path d="M14.8274531,11.8479375 C14.6924979,11.8248475 14.513183,11.7215948 14.3524471,11.5608157 C14.1917112,11.4000366 14.0933089,11.2256985 14.0774531,11.0979375 C14.2124083,11.1210275 14.3917233,11.2242802 14.5524592,11.3850593 C14.7131951,11.5458384 14.8115369,11.7202333 14.8274531,11.8479375 Z" id="Shape" fill="#73AF00" fill-rule="nonzero"></path>
                <path d="M15.2677241,10.3096875 C15.3122525,10.4137031 15.2584751,10.5745313 15.104199,10.7400469 C14.9499228,10.9055625 14.7371972,11.0305781 14.5479276,11.0819063 C14.5033992,10.9778906 14.5571765,10.8170625 14.7114527,10.6515469 C14.8657288,10.4860781 15.0784545,10.3610156 15.2677241,10.3096875 Z" id="Shape" fill="#73AF00" fill-rule="nonzero"></path>
                <path d="M14.54025,11.4555209 C14.4362344,11.5000494 14.2754062,11.446272 14.1098906,11.2919958 C13.944375,11.1377197 13.8193594,10.924994 13.7680312,10.7357245 C13.8720469,10.691196 14.032875,10.7449734 14.1983906,10.8992496 C14.3639062,11.0536211 14.4889219,11.2662514 14.54025,11.4555209 Z" id="Shape" fill="#73AF00" fill-rule="nonzero"></path>
                <path d="M14.8355401,9.69726562 C14.9906273,9.79157813 15.0468204,9.95357812 14.9565259,10.1333906 C14.8662313,10.3132031 14.6539131,10.46175 14.4140172,10.5361875 C14.25893,10.441875 14.2027368,10.279875 14.2930314,10.1000625 C14.383326,9.92025 14.5956442,9.77170313 14.8355401,9.69726562 Z" id="Shape" fill="#73AF00" fill-rule="nonzero"></path>
                <path d="M14.3017031,10.936712 C14.2073906,11.0917992 14.0453906,11.1479923 13.8655781,11.0576978 C13.6857656,10.9674032 13.5372188,10.755085 13.4627813,10.5151891 C13.5570938,10.3601019 13.7190938,10.3039087 13.8989063,10.3942033 C14.0786719,10.4846461 14.2272188,10.6969643 14.3017031,10.936712 Z" id="Shape" fill="#73AF00" fill-rule="nonzero"></path>
                <path d="M14.2638973,9.27098437 C14.4841469,9.35704687 14.6304284,9.51464062 14.6241403,9.69670312 C14.6178522,9.87876562 14.4608147,10.0355625 14.2347734,10.1203594 C14.0145238,10.0342969 13.8682423,9.87670312 13.8745304,9.69464062 C13.8808186,9.51257812 14.037856,9.35578125 14.2638973,9.27098437 Z" id="Shape" fill="#73AF00" fill-rule="nonzero"></path>
                <path d="M13.9764844,10.3995692 C13.8904219,10.6198188 13.7328281,10.7661003 13.5507656,10.7598122 C13.3687031,10.7535241 13.2119062,10.5964866 13.1271094,10.3704453 C13.2131719,10.1501957 13.3707656,10.0039142 13.5528281,10.0102023 C13.7348437,10.0164904 13.8916406,10.1735279 13.9764844,10.3995692 Z" id="Shape" fill="#73AF00" fill-rule="nonzero"></path>
                <path d="M13.7865,10.1961013 C13.6763707,10.2103879 13.5140031,10.1330217 13.3532436,9.97298041 C13.192484,9.81293915 13.0772381,9.61394151 13.0365,9.44945033 C13.1466293,9.43516372 13.3089969,9.51253 13.4697564,9.67257126 C13.630516,9.83253444 13.7457132,10.0315321 13.7865,10.1961013 Z" id="Shape" fill="#73AF00" fill-rule="nonzero"></path>
                <path d="M10.507875,14.0472656 L10.0341094,14.5210313 L9.80048437,14.0537813 L10.5013594,13.3529063 L10.7349844,13.5865313 L10.6674844,13.7889844 C10.6350469,13.8862969 10.5803906,13.97475 10.507875,14.0472656 Z" id="Shape" fill="#966446" fill-rule="nonzero"></path>
                <path d="M13.0712344,10.5494062 L10.5013594,13.1192812 C10.4368594,13.1837812 10.4368594,13.2884062 10.5013594,13.3529062 L10.6181719,13.4697187 L11.0854219,13.0024687 L12.9544219,10.8998437 L13.1880469,10.6662187 L13.0712344,10.5494062 Z" id="Shape" fill="#B9B9B9" fill-rule="nonzero"></path>
                <path d="M11.1337969,12.7204688 C11.1028125,12.7514531 11.0854219,12.7934531 11.0854219,12.8372813 L11.0854219,13.0024688 L12.9544219,10.8998438 L11.1337969,12.7204688 Z" id="Shape" fill="#966446" fill-rule="nonzero"></path>
                <polygon id="Shape" fill="#A0A0A0" fill-rule="nonzero" points="13.1880469 10.6662188 13.0712344 10.5494063 12.9544219 10.6662188 13.0712344 10.7830313 13.1880469 10.8998438 14.4729844 9.38128125"></polygon>
                <path d="M13.6222969,14.0472656 L14.0960625,14.5210313 L14.3296875,14.0537813 L13.6288125,13.3529063 L13.3951875,13.5865313 L13.4626875,13.7889844 C13.495125,13.8862969 13.5497344,13.97475 13.6222969,14.0472656 Z" id="Shape" fill="#966446" fill-rule="nonzero"></path>
                <path d="M11.0589375,10.5494062 L13.6288125,13.1192812 C13.6933125,13.1837812 13.6933125,13.2884062 13.6288125,13.3529062 L13.512,13.4697187 L13.04475,13.0024687 L11.17575,10.8998437 L10.942125,10.6662187 L11.0589375,10.5494062 Z" id="Shape" fill="#B9B9B9" fill-rule="nonzero"></path>
                <path d="M12.996375,12.7204688 C13.0273594,12.7514531 13.04475,12.7934531 13.04475,12.8372813 L13.04475,13.0024688 L11.17575,10.8998438 L12.996375,12.7204688 Z" id="Shape" fill="#966446" fill-rule="nonzero"></path>
                <polygon id="Shape" fill="#A0A0A0" fill-rule="nonzero" points="10.942125 10.6662188 11.0589375 10.5494063 11.17575 10.6662188 11.0589375 10.7830313 10.942125 10.8998438 9.6571875 9.38128125"></polygon>
                <path d="M11.1061875,13.9500469 L11.22225,14.0559375 C11.6457656,13.5915938 12.3869531,12.7790156 13.5618281,11.7240938 C13.561875,11.7240938 12.5885156,12.3249375 11.1061875,13.9500469 Z" id="Shape" fill="#B9B9B9" fill-rule="nonzero"></path>
                <path d="M10.7996014,14.6844024 L10.7996014,14.6844024 C10.7306195,14.6246367 10.7257311,14.5230865 10.7886605,14.4575726 L11.2005341,14.0286743 C11.2634635,13.9631604 11.3703892,13.9585177 11.4393711,14.0182834 L11.4393711,14.0182834 C11.5083529,14.0780492 11.5132414,14.1795993 11.450312,14.2451132 L11.0384384,14.6740116 C10.975509,14.7394517 10.8685832,14.7441681 10.7996014,14.6844024 Z" id="Shape" fill="#FFE15A" fill-rule="nonzero"></path>
                <path d="M11.0647601,13.864125 L10.986103,13.9140626 C10.9161431,13.963688 10.7321359,14.1122523 10.7004105,14.3237848 C10.6853136,14.4240501 10.7065915,14.5216625 10.761181,14.614125 C10.7663227,14.5950083 10.7734883,14.5765938 10.783717,14.5605201 L10.8202559,14.503404 C10.795532,14.452218 10.7824589,14.4019683 10.7899527,14.3514846 C10.8098084,14.2190719 10.9336468,14.1010164 11.0113739,14.0424958 L11.3592044,14.4950551 L11.4456834,14.3598335 L11.0647601,13.864125 Z" id="Shape" fill="#FFC855" fill-rule="nonzero"></path>
                <path d="M13.0228125,14.078625 L12.90675,14.1845156 C12.4832344,13.7201719 11.7420469,12.9075938 10.5671719,11.8526719 C10.567125,11.852625 11.5404844,12.4534688 13.0228125,14.078625 Z" id="Shape" fill="#B9B9B9" fill-rule="nonzero"></path>
                <path d="M13.6263242,14.8129337 L13.6263242,14.8129337 C13.695306,14.7531679 13.7001945,14.6516178 13.6372651,14.5861039 L13.2253915,14.1572055 C13.1624621,14.0916917 13.0555363,14.087049 12.9865545,14.1468147 L12.9865545,14.1468147 C12.9175727,14.2065804 12.9126842,14.3081306 12.9756136,14.3736444 L13.3874872,14.8025428 C13.4504166,14.867983 13.5573424,14.8726994 13.6263242,14.8129337 Z" id="Shape" fill="#FFE15A" fill-rule="nonzero"></path>
                <path d="M13.17152,13.9926562 L13.2501776,14.0425938 C13.3201381,14.0922193 13.5041467,14.2407836 13.5358723,14.4523161 C13.5509693,14.5525813 13.5296366,14.6501937 13.4751013,14.7426562 C13.4699596,14.7235395 13.4628487,14.705125 13.4525652,14.6890514 L13.4160261,14.6319353 C13.4407502,14.5807493 13.4538233,14.5304996 13.4463295,14.4800158 C13.4264736,14.3476032 13.3026343,14.2295476 13.2249065,14.171027 L12.8770734,14.6235863 L12.7905937,14.4883647 L13.17152,13.9926562 Z" id="Shape" fill="#FFC855" fill-rule="nonzero"></path>
                <path d="M12.1157813,9.779625 C12.124875,9.75707812 12.1301719,9.73251562 12.1301719,9.7066875 C12.1301719,9.598875 12.04275,9.51145312 11.9349375,9.51145312 C11.827125,9.51145312 11.7397031,9.598875 11.7397031,9.7066875 C11.7397031,9.77095312 11.7711563,9.82748437 11.8190625,9.8630625 C11.7485156,10.4301562 12.3075469,10.4734219 12.5206406,10.5526875 C12.8438906,10.6729219 13.2493594,10.9162969 13.2238594,11.5964062 C13.1990625,12.2575312 12.7809844,12.8954531 12.7809844,12.8954531 L13.1280469,12.4236562 C13.0011094,12.9604219 12.7048125,13.6441406 12.0000469,14.4573281 C12.0000469,14.4573281 12.4819219,13.9859531 12.8840156,13.378125 C12.5881875,14.0741719 12.2603438,14.7176719 12.2603438,14.7176719 C12.2603438,14.7176719 12.8406094,13.9638281 13.3097344,12.6595781 C13.8784219,11.0782969 12.6820781,10.1283281 12.1157813,9.779625 Z" id="Shape" fill="#69B469" fill-rule="nonzero"></path>
                <polygon id="Rectangle-path" fill="#F4E08F" fill-rule="nonzero" points="11.08875 12.114375 11.83875 12.114375 11.83875 12.864375 11.08875 12.864375"></polygon>
                <circle id="Oval" fill="#ECD077" fill-rule="nonzero" cx="11.5785625" cy="12.8647031" r="1"></circle>
                <circle id="Oval" fill="#ECD077" fill-rule="nonzero" cx="11.5785625" cy="11.1725156" r="1"></circle>
                <path d="M12.6507656,10.9431563 C12.7945312,10.9431563 12.9110625,10.8265781 12.9110625,10.6828594 C12.9110625,10.5390938 12.7945312,10.4225625 12.6507656,10.4225625 L11.0888906,10.4225625 C11.2326562,10.4225625 11.3491875,10.5390938 11.3491875,10.6828594 C11.3491875,10.826625 11.2326562,10.9431563 11.0888906,10.9431563 C10.945125,10.9431563 10.8285937,10.8265781 10.8285937,10.6828594 C10.8285937,11.1197813 11.1942656,11.6481563 11.3121562,12.1145625 C11.3121562,12.1145625 11.3491875,12.2310938 11.3491875,12.3748594 C11.3491875,12.518625 11.2326562,12.6351563 11.0888906,12.6351563 L12.6507656,12.6351563 C12.7945312,12.6351563 12.9110625,12.5185781 12.9110625,12.3748594 C12.9110625,11.9379375 12.5453906,11.4095625 12.4275,10.9431563 L12.6507656,10.9431563 L12.6507656,10.9431563 Z" id="Shape" fill="#FCF0A8" fill-rule="nonzero"></path>
                <path d="M11.3492344,10.6828594 C11.3492344,11.0970949 11.2327031,11.4328594 11.0889375,11.4328594 L12.6508125,11.4328594 C12.7945781,11.4328594 12.9111094,11.0969599 12.9111094,10.6828594 L11.3492344,10.6828594 Z" id="Shape" fill="#F4E08F" fill-rule="nonzero"></path>
                <path d="M11.3492344,12.3749063 C11.3492344,12.7891418 11.2327031,13.1249063 11.0889375,13.1249063 L12.6508125,13.1249063 C12.7945781,13.1249063 12.9111094,12.7890067 12.9111094,12.3749063 L11.3492344,12.3749063 Z" id="Shape" fill="#F4E08F" fill-rule="nonzero"></path>
                <circle id="Oval" stroke="#FFFFFF" cx="12" cy="12" r="11.5"></circle>
            </g>
        </g>
    </g>
</svg>