<svg width="24" height="24" viewBox="0 0 24 24" fill="none" xmlns="http://www.w3.org/2000/svg">
<g clip-path="url(#clip0)">
<path d="M12 23.97C18.6274 23.97 24 18.5974 24 11.97C24 5.34258 18.6274 -0.0299988 12 -0.0299988C5.37258 -0.0299988 0 5.34258 0 11.97C0 18.5974 5.37258 23.97 12 23.97Z" fill="#503F32"/>
<path d="M17.04 15.84C16.83 15.2 16.71 14.55 16.64 13.88C16.59 13.38 16.58 12.88 16.56 12.39C16.53 11.79 16.47 11.2 16.31 10.62C16.27 10.46 16.2 10.31 16.15 10.16C17.31 9.79999 18.16 8.74 18.16 7.46C18.16 5.89 16.89 4.62 15.32 4.62C14.22 4.62 13.27 5.25 12.8 6.17C12.66 6.09 12.53 5.99 12.38 5.92C11.89 5.67 11.38 5.48 10.85 5.36C10.39 5.26 9.92 5.18999 9.44 5.24C9.12 5.24999 8.79 5.29 8.46 5.36C8.04 5.46 7.63 5.6 7.26 5.83C6.95 6.02 6.64 6.21 6.36 6.43C5.89 6.79999 5.49 7.25 5.15 7.75C4.92 8.1 4.71 8.45999 4.58 8.85999C4.48 9.18999 4.4 9.52999 4.33 9.87C4.2 10.54 4.26 11.2 4.4 11.86C4.5 12.33 4.65 12.8 4.89 13.23C5.1 13.62 5.32 14.02 5.58 14.38C5.88 14.79 6.23 15.18 6.58 15.55C6.96 15.95 7.39 16.28 7.87 16.55C8.24 16.75 8.64 16.92 9.02 17.1C9.44 17.29 9.9 17.39 10.35 17.46C10.76 17.52 11.19 17.55 11.61 17.56C12.44 17.58 13.26 17.65 14.07 17.82C14.27 17.86 14.47 17.92 14.66 17.98C14.89 18.05 15.13 18.12 15.34 18.22C15.65 18.36 15.96 18.53 16.25 18.7C16.43 18.81 16.58 18.96 16.74 19.1C16.87 19.21 17.06 19.2 17.18 19.07C17.29 18.96 17.28 18.76 17.17 18.65C17.1 18.58 17.03 18.51 16.96 18.45C16.64 18.18 16.3 17.95 15.91 17.79C15.6 17.66 15.28 17.52 14.96 17.42C14.63 17.32 14.28 17.26 13.94 17.18C13.91 17.17 13.89 17.16 13.84 17.13C13.9 17.08 13.95 17.03 14 17C14.2 16.89 14.4 16.8 14.59 16.67C15.23 16.26 15.69 15.7 15.99 15.01C16.02 14.95 16.07 14.9 16.11 14.85C16.12 14.85 16.14 14.86 16.15 14.86C16.16 14.91 16.17 14.95 16.18 15C16.23 15.22 16.26 15.44 16.32 15.65C16.47 16.17 16.64 16.68 16.9 17.15C17.1 17.52 17.33 17.87 17.64 18.16C17.71 18.22 17.82 18.25 17.92 18.25C18.04 18.25 18.12 18.16 18.16 18.05C18.2 17.93 18.17 17.82 18.08 17.72C17.58 17.17 17.27 16.52 17.04 15.84ZM15.76 13.88C15.57 14.6 15.24 15.25 14.69 15.77C14.39 16.06 14.04 16.29 13.65 16.47C12.89 16.83 12.08 16.91 11.1 16.91C10.85 16.87 10.43 16.83 10.03 16.75C9.74 16.69 9.46 16.59 9.18 16.49C8.92 16.39 8.67 16.27 8.42 16.14C7.96 15.91 7.55 15.61 7.18 15.26C6.72 14.83 6.31 14.36 5.96 13.84C5.63 13.36 5.36 12.85 5.17 12.3C4.95 11.67 4.84 11.02 4.89 10.36C4.92 9.93999 5.01 9.52 5.16 9.12C5.46 8.3 5.97 7.63 6.62 7.05C6.99 6.72 7.41 6.45 7.86 6.24C8.55 5.93 9.27 5.8 10.02 5.85C10.45 5.88 10.87 5.98 11.28 6.12C11.74 6.28 12.18 6.49 12.59 6.75C12.53 6.98 12.49 7.21 12.49 7.46C12.49 7.92 12.61 8.34999 12.81 8.72999L12.18 9.35999L10.6 7.78L11.15 7.23C11.25 7.13 11.25 6.97 11.15 6.88C11.05 6.79 10.89 6.78 10.8 6.88L10.25 7.43L9.61 6.79C9.51 6.69 9.35 6.69 9.26 6.79C9.17 6.89 9.16 7.05 9.26 7.14L9.9 7.78L8.53 9.14L7.18 7.79C7.08 7.69 6.92 7.69 6.83 7.79C6.74 7.89 6.73 8.05 6.83 8.14L8.18 9.5L6.8 10.87L6.08 10.16C5.98 10.06 5.82 10.06 5.73 10.16C5.64 10.26 5.63 10.42 5.73 10.51L6.45 11.22L5.91 11.76C5.81 11.86 5.81 12.02 5.91 12.11C5.96 12.16 6.02 12.18 6.09 12.18C6.16 12.18 6.22 12.16 6.27 12.11L6.81 11.57L8.38 13.14L7.47 14.05C7.37 14.15 7.37 14.31 7.47 14.4C7.52 14.45 7.58 14.47 7.65 14.47C7.71 14.47 7.78 14.45 7.83 14.4L8.74 13.49L10.31 15.06L9.8 15.57C9.7 15.67 9.7 15.83 9.8 15.92C9.83 15.97 9.9 16 9.96 16C10.02 16 10.09 15.98 10.14 15.93L10.65 15.42L11.16 15.93C11.2 15.97 11.27 16 11.33 16C11.39 16 11.46 15.98 11.51 15.93C11.61 15.83 11.61 15.67 11.51 15.58L11 15.06L12.38 13.69L13.85 15.15C13.9 15.2 13.96 15.22 14.03 15.22C14.09 15.22 14.16 15.2 14.21 15.15C14.31 15.05 14.31 14.89 14.21 14.8L12.75 13.34L14.12 11.98L14.7 12.56C14.75 12.61 14.81 12.63 14.88 12.63C14.94 12.63 15.01 12.61 15.06 12.56C15.16 12.46 15.16 12.3 15.06 12.21L14.48 11.63L14.96 11.15C15.06 11.05 15.06 10.89 14.96 10.8C14.86 10.7 14.71 10.7 14.61 10.8L14.13 11.28L12.57 9.72L13.12 9.18C13.64 9.86 14.45 10.31 15.37 10.31C15.44 10.31 15.51 10.29 15.58 10.29C15.63 10.44 15.69 10.59 15.74 10.75C15.89 11.3 15.96 11.86 15.97 12.43C15.94 12.9 15.89 13.4 15.76 13.88ZM10.1 11.42L8.72 12.79L7.15 11.22L8.52 9.85L10.1 11.42ZM8.88 9.5L10.25 8.13L11.83 9.71L10.46 11.07L8.88 9.5ZM10.46 11.77L12.03 13.34L10.65 14.71L9.08 13.14L10.46 11.77ZM10.81 11.42L12.18 10.06L13.74 11.62L12.37 12.98L10.81 11.42Z" fill="#DEBB69"/>
<path d="M12 -0.0299988C5.37 -0.0299988 0 5.34 0 11.97C0 18.6 5.37 23.97 12 23.97C18.63 23.97 24 18.6 24 11.97C24 5.34 18.63 -0.0299988 12 -0.0299988ZM19.9 19.61C19.58 19.29 19.65 19.36 19 18.71C18.79 18.5 18.59 18.5 18.38 18.71C18.19 18.9 18 19.09 17.8 19.28C17.51 19.56 17.5 19.73 17.8 20.03C18.44 20.67 18.26 20.5 18.55 20.79C16.72 22.15 14.46 22.97 12 22.97C5.93 22.97 1 18.04 1 11.97C1 5.9 5.93 0.970001 12 0.970001C18.07 0.970001 23 5.9 23 11.97C23 14.94 21.81 17.63 19.9 19.61Z" fill="white"/>
<path fill-rule="evenodd" clip-rule="evenodd" d="M17.12 5.25C17.17 5.29 17.21 5.32 17.25 5.36C18.02 6.06 18.32 7.09 18.12 8.04C17.9 8.05 17.69 8.08 17.48 8.14C17.06 8.26 16.68 8.48 16.36 8.79C16.19 8.96 15.98 9.07 15.75 9.14C15.52 9.2 15.28 9.21 15.05 9.16C14.81 9.11 14.6 9 14.43 8.84C14.26 8.69 14.13 8.49 14.05 8.27C13.97 8.04 13.94 7.8 13.96 7.56C13.98 7.34 14.04 7.12 14.16 6.91C14.3 6.67 14.49 6.47 14.73 6.32C14.97 6.18 15.24 6.09 15.53 6.08C15.89 6.06 16.23 5.96 16.52 5.78C16.74 5.66 16.95 5.47 17.12 5.25ZM15.38 4.61C15.75 4.62 16.11 4.69 16.44 4.83L16.45 4.84C16.58 4.89 16.7 4.97 16.82 5.04C16.69 5.22 16.52 5.37 16.33 5.48C16.09 5.62 15.8 5.71 15.51 5.72C15.16 5.73 14.83 5.84 14.54 6.01C14.25 6.18 14.01 6.43 13.84 6.72C13.7 6.97 13.62 7.24 13.6 7.52C13.58 7.8 13.62 8.09 13.71 8.37C13.8 8.65 13.97 8.9 14.19 9.09C14.41 9.28 14.67 9.42 14.97 9.49C15.27 9.56 15.57 9.55 15.85 9.47C16.13 9.39 16.4 9.24 16.61 9.03C16.88 8.76 17.22 8.57 17.58 8.47C17.72 8.44 17.86 8.41 18 8.4C17.98 8.45 17.97 8.5 17.95 8.55C17.95 8.56 17.94 8.57 17.94 8.58C17.87 8.74 17.79 8.89 17.7 9.03C17.69 9.05 17.68 9.06 17.66 9.08C17.57 9.21 17.47 9.33 17.36 9.44C17.26 9.54 17.15 9.63 17.03 9.72C16.55 10.08 15.97 10.3 15.33 10.3C13.76 10.3 12.49 9.03 12.49 7.46C12.49 7.03 12.59 6.62 12.77 6.25C12.88 6.02 13.02 5.8 13.2 5.6C13.22 5.58 13.23 5.56 13.25 5.54C13.34 5.44 13.44 5.35 13.55 5.27C13.58 5.24 13.62 5.21 13.65 5.18C13.74 5.11 13.84 5.06 13.93 5C13.99 4.97 14.04 4.93 14.1 4.91C14.19 4.87 14.28 4.83 14.37 4.8C14.45 4.77 14.53 4.75 14.6 4.73C14.68 4.71 14.77 4.69 14.85 4.67C14.96 4.65 15.07 4.64 15.18 4.64C15.26 4.62 15.32 4.61 15.38 4.61Z" fill="white"/>
</g>
<defs>
<clipPath id="clip0">
<rect width="24" height="24" fill="white"/>
</clipPath>
</defs>
</svg>
