<?xml version="1.0" encoding="UTF-8"?>
<svg width="24px" height="24px" viewBox="0 0 24 24" version="1.1" xmlns="http://www.w3.org/2000/svg" xmlns:xlink="http://www.w3.org/1999/xlink">
    <!-- Generator: Sketch 63.1 (92452) - https://sketch.com -->
    <title>esports_kog</title>
    <desc>Created with Sketch.</desc>
    <g id="Classifier" stroke="none" stroke-width="1" fill="none" fill-rule="evenodd">
        <g id="esports_kog">
            <g id="Group-62" transform="translate(-0.000000, 0.000000)">
                <path d="M12,0 C18.627417,0 24,5.372583 24,12 C24,18.627417 18.627417,24 12,24 C5.372583,24 0,18.627417 0,12 C0,5.372583 5.372583,0 12,0 Z M12,1 C5.92486775,1 1,5.92486775 1,12 C1,18.0751322 5.92486775,23 12,23 C18.0751322,23 23,18.0751322 23,12 C23,5.92486775 18.0751322,1 12,1 Z" id="Oval" fill="#FFFFFF" fill-rule="nonzero"></path>
                <path d="M12,1 C5.92486775,1 1,5.92486775 1,12 C1,18.0751322 5.92486775,23 12,23 C18.0751322,23 23,18.0751322 23,12 C23,5.92486775 18.0751322,1 12,1 Z" id="Path-Copy" fill="#503F32" fill-rule="nonzero"></path>
                <path d="M7.11220969,14.2827067 C7.35363588,14.5995532 7.73953865,14.8121382 8.07859147,15.0448985 C8.16200063,15.10231 8.41534241,15.0849782 8.42576856,15.0512625 C8.66380963,14.27878 9.35098737,14.3115478 9.92252968,14.2841961 C11.1021735,14.2277325 12.2864211,14.2661873 13.468773,14.2678122 C13.6934214,14.2681815 14.5399232,14.5129503 14.8657332,14.6945845 L14.896,14.714 C14.8509669,14.7285485 14.8131138,14.741096 14.7831443,14.7639342 C14.7696039,14.7740895 14.8056215,14.849239 14.8188911,14.8945995 C14.8614081,14.86129 14.9040605,14.8281159 14.9467129,14.7468732 C15.0799509,14.7960251 15.2037106,14.9123375 15.3494058,14.9853205 C15.4911743,15.0566787 15.6552846,15.0837596 15.8097811,15.1302033 C15.7990841,15.4057514 15.8464757,15.6608535 15.5904258,15.9076958 C14.6783412,16.7867417 13.7142613,17.5164365 12.3645495,17.5134576 C12.1797224,17.5130514 11.9948953,17.6424981 11.8100681,17.7118251 C11.7767586,17.4740549 11.7265236,17.237097 11.7142018,16.9982435 C11.697547,16.6755747 11.7083794,16.3514163 11.7104104,16.0280704 C11.7142018,15.4144173 11.7147434,15.4100844 12.3852664,15.3473921 C12.8723163,15.3018962 13.2324922,14.9794981 13.6483194,14.7796411 C13.6720151,14.7682671 13.6579331,14.6407161 13.6318,14.5800549 C13.6194782,14.5513492 13.5057384,14.5269764 13.4905731,14.5449852 C13.2621458,14.8155233 12.9573503,14.6872953 12.688437,14.6931177 C11.9339632,14.7092308 11.1789479,14.692576 10.4240679,14.701919 C10.1460825,14.7053041 9.86823248,14.7452484 9.59038249,14.7684026 C9.83587081,14.895412 10.0794635,15.0262127 10.3273891,15.1480767 C10.4761986,15.2211951 10.6264976,15.308531 10.7857332,15.338997 C10.9915481,15.3783997 11.322612,15.2902514 11.3923453,15.3950545 C11.5113659,15.5739238 11.4886179,15.8598981 11.490649,16.1011889 C11.4991794,17.0716328 11.4956589,18.0420767 11.4909198,19.0125206 C11.490649,19.074265 11.4442052,19.1356033 11.4191554,19.1970769 C11.37217,19.1666109 11.2837509,19.1350616 11.2845633,19.1056789 C11.302843,18.3872227 10.7850562,17.9944143 10.3543346,17.5460901 C10.3035579,17.4931808 10.2704515,17.4232867 10.3501265,17.3095025 L10.378,17.274 L10.214,17.192 L10.0538989,17.1910071 C9.19619417,17.1587821 8.62505687,16.7788792 8.1188066,16.3537182 C7.7197696,16.0183213 7.09894005,15.7473769 7.17869329,15.034337 C6.66131277,14.94998 6.59699565,14.4185174 6.28556534,14.1310537 C6.23776756,14.0870472 5.27896843,13.9879311 5.18283125,13.9955138 C4.35334341,14.0601017 3.51613751,14.2026826 2.72591696,13.7987711 C2.68096267,13.7757523 2.67256759,13.6811046 2.64738236,13.6197663 C3.543083,13.6197663 4.44040849,13.6536175 5.33394265,13.6090694 C6.04400375,13.5737288 6.64005427,13.6632312 7.11220969,14.2827067 Z M10.5745292,17.1440818 L10.4709178,17.1800918 C10.4433461,17.2044307 10.4197878,17.2273014 10.3998027,17.2488283 L10.378,17.274 L10.4061945,17.2880091 L10.4061945,17.2880091 C10.54864,17.3599089 10.6853985,17.4529318 10.8362391,17.4932823 C10.8955463,17.50926 11.033388,17.4204347 11.050449,17.3565238 C11.0711659,17.279614 11.0268886,17.1415015 10.9636547,17.0977658 C10.9010979,17.0544025 10.7984211,17.0687829 10.5745292,17.1440818 Z M13.008127,16.4295447 C12.7852512,16.4889873 12.5589903,16.5501901 12.3526339,16.6491708 C12.2597464,16.6937189 12.2105946,16.829665 12.1415383,16.9240419 C12.2556843,16.9734645 12.4044938,17.0947869 12.4776122,17.0594464 C12.7038505,16.9496559 12.9129752,16.8041337 13.1063184,16.5737486 L13.202,16.448 L13.16771,16.4418488 C13.0919562,16.4266266 13.0475877,16.4190219 13.008127,16.4295447 Z M8.58473342,15.5645809 C8.48629436,15.5756841 8.39056339,15.6096706 8.29361378,15.6336372 C8.34506749,15.7091929 8.37986644,15.8112879 8.45068298,15.8561067 L8.92896082,16.160541 C9.32894684,16.4109584 9.73895989,16.6425553 10.2075561,16.7756386 C10.4602209,16.8474029 10.6607549,16.9320307 10.8653511,16.726893 C10.930616,16.6614926 10.976789,16.5774064 11.0317632,16.5018507 C10.9354906,16.4762593 10.8361037,16.4222329 10.7438933,16.4323882 C10.6390902,16.444033 10.5407865,16.5130893 10.4397748,16.5570957 C10.475657,16.4411895 10.4862185,16.3052434 10.5562226,16.215741 C10.6067285,16.1511531 10.7361752,16.1481742 10.8302813,16.1177082 C10.7516113,16.0762744 10.6767326,16.0241437 10.5934589,15.9958442 C10.4680743,15.9531918 10.3337531,15.9364016 10.2087748,15.8923951 C9.75530515,15.7328887 10.0860983,16.1238014 9.98386791,16.2092416 C9.54041824,16.1328735 9.10048908,16.0510892 8.90496501,15.5618728 C8.79813088,15.5618728 8.69021351,15.5525299 8.58473342,15.5645809 Z M14.2816061,15.2505779 C14.0812075,15.4364883 13.8626647,15.6029004 13.6519753,15.7775721 L13.5959178,15.397898 L13.5959178,15.397898 C13.4771681,15.4819842 13.3133287,15.5416975 13.251178,15.6565205 C13.1735913,15.7997785 13.1821217,15.9870429 13.4362759,15.9934069 L13.4362759,16.2092416 L13.6519753,15.9934069 L14.0835094,15.9934069 C14.0259895,16.1084465 13.9683831,16.2234862 13.9108979,16.3878174 L13.897,16.426 L13.9894183,16.4341505 C14.369854,16.4258563 14.5126554,16.0459069 14.7663542,15.8424309 C14.841639,15.7819051 15.0424439,15.6887468 14.822547,15.5689138 C14.7426584,15.5251782 14.6188987,15.5618728 14.5150434,15.5618728 C14.5842351,15.4511119 14.7379192,15.2860539 14.707724,15.2394747 C14.5887035,15.0553246 14.4328529,15.1102989 14.2816061,15.2505779 Z M12.4475524,15.8177873 C12.3144498,15.8823752 12.2283326,16.0625986 12.1499334,16.2074814 C12.1279979,16.2475611 12.2069387,16.3422088 12.2210207,16.3722686 C12.3877036,16.3052434 12.5040161,16.2432282 12.6279112,16.2127621 C12.7769915,16.1762029 13.0020338,16.2839849 13.0014931,15.9995001 C13.0013568,15.9389743 12.9661516,15.8301091 12.9359564,15.8259115 C12.7726586,15.8038406 12.5794364,15.7536056 12.4475524,15.8177873 Z M8.75547847,14.9559378 C8.73340753,15.0499085 8.67301714,15.156201 8.69793156,15.2352772 C8.73557401,15.3541623 8.83306523,15.4539554 8.90496501,15.5618728 C9.01271313,15.5618728 9.12061357,15.5618728 9.31212417,15.6148265 L9.364,15.63 L9.38455076,15.6099414 L9.38455076,15.6099414 L9.386,15.607 L9.33636369,15.5618728 L9.33636369,15.5618728 C9.19148089,15.380837 9.049577,15.1973639 8.89900721,15.0213381 C8.86799959,14.9850497 8.80435948,14.9769255 8.75547847,14.9559378 Z M17.6715521,13.605752 C18.8476754,13.6501647 20.0265068,13.619834 21.204255,13.619834 C21.0155011,13.9239525 20.739276,14.0546178 20.384787,14.0528576 C19.5358009,14.0483892 18.686544,14.0542116 17.837558,14.0474414 C17.7433164,14.0467644 17.6217232,14.0200897 17.5607912,13.9582098 C17.3567366,13.7513118 17.2148327,13.8330961 17.0389423,14.0023517 C16.6382805,14.3878483 16.2205576,14.7554714 15.8097405,15.130271 C15.8343841,14.99771 15.8178647,14.8325166 15.891931,14.7392229 C16.0682276,14.5170241 16.3091122,14.3458729 16.4847318,14.1232679 C16.7939956,13.7310011 17.1578275,13.5863891 17.6715521,13.605752 Z M11.775039,4.6 C11.8971738,4.77250531 12.1197788,4.94257334 12.1238409,5.11778673 C12.1400895,5.8118701 12.6187443,6.06087894 13.133823,6.30690888 C13.5542539,6.50784913 13.9673729,6.72436089 14.3856374,6.9301757 C15.0320584,7.24851163 15.4802472,7.79852463 15.9801605,8.28801183 C15.9005427,8.76368777 16.4272661,8.83396269 16.5458805,9.11397916 C16.7085012,9.49839248 16.9178366,9.53102496 17.2479527,9.52398392 C17.8946445,9.51044348 18.5435028,9.54632566 19.1887051,9.51084969 C19.6289051,9.48674769 20.0632826,9.36813337 20.5028056,9.31139889 C20.586621,9.30056653 20.7315037,9.36055072 20.7593971,9.42581568 C20.7901339,9.49771546 20.7472107,9.64313987 20.68506,9.70407188 C20.5128255,9.87319208 20.3137809,10.0148252 20.1252979,10.1672906 C20.1252979,10.052251 20.1252979,9.93721132 20.1574657,9.77135491 L20.176,9.69 L20.125,9.639 L19.2143875,9.68474154 C17.9247693,9.73493869 16.6672841,9.73426708 15.4099723,9.74130812 C15.2618398,9.74225595 15.1142489,9.82092595 14.9663872,9.86344296 C15.1138427,9.93886325 15.2539863,10.0481347 15.4102431,10.081038 C15.5961534,10.1201699 15.8333821,10.1618744 15.9815146,10.0806317 C16.2577397,9.92911413 16.4750639,9.87441072 16.7277287,10.1028381 C16.7879837,10.1574061 16.942751,10.1827267 17.008693,10.1441364 C17.7054844,9.73616275 18.4607706,10.0482701 19.1807162,9.95199749 C19.4102268,9.92126067 19.4945838,10.0260637 19.4813142,10.2535433 C19.4666905,10.5026875 19.4768458,10.7534566 19.4783353,11.0035487 C19.4799601,11.2642023 19.2876858,11.3214784 19.1391471,11.2124778 C18.859943,11.0077462 18.6297554,10.8137116 18.3991616,11.2463289 C18.6277243,11.2069262 18.7950843,11.4090851 18.9600069,11.4331871 C19.2593862,11.4766519 19.386531,11.5448958 19.5606612,11.8249123 C19.8100763,12.2257095 19.6890247,12.2982863 19.3350773,12.3676134 C19.3284425,12.3688321 19.3398165,12.4629382 19.3427954,12.5137148 C19.765799,12.3856222 19.6117087,13.1815297 20.1104034,12.9910156 C20.2001766,12.9568937 20.3825664,13.1651458 20.5221684,13.2614184 C20.3855453,13.3089454 20.2497346,13.3946564 20.1120283,13.3974999 C19.4302667,13.4117174 18.7479635,13.3969583 18.0660666,13.4081968 C17.8460343,13.4117174 17.7821234,13.3455046 17.7386585,13.1191083 C17.6701439,12.7636715 17.5240424,12.421369 17.3902628,12.0816392 C17.3639943,12.0146139 17.2451092,11.9841479 17.1690119,11.9368918 C17.1512739,12.0341122 17.0926437,12.2010659 17.1218911,12.2179915 C17.5421866,12.463886 17.1025283,13.0118679 17.4957429,13.2558668 C17.3994703,13.3052894 17.2994064,13.3999372 17.207873,13.3923545 C17.0976537,13.383147 16.9822891,13.3012273 16.8929221,13.2235051 L16.8408466,13.1559433 L16.8408466,13.1559433 L16.764,12.989 L16.7490359,13.0501495 C16.7304693,13.13696 16.718142,13.2351228 16.6673383,13.2631786 C16.5284133,13.3398176 16.3567204,13.3964167 16.2029009,13.3870737 C16.1379068,13.3830116 16.0428528,13.196018 16.0326975,13.0856634 C15.9888264,12.6075502 16.1407502,12.1014082 15.8098217,11.6679785 C16.02349,11.3113231 15.957548,11.0253488 15.593987,10.8146594 C15.4920274,10.728813 15.8201124,10.3373586 15.3711112,10.5001148 C15.3099084,10.5224566 15.2564236,10.5943563 15.1988767,10.5946272 C14.20406,10.6005849 13.2092433,10.5993663 12.2142911,10.5985539 C11.9246609,10.5984185 11.7850589,10.4199554 11.7099094,10.1672906 C11.3669299,10.107848 11.6021275,10.7262403 11.1502827,10.6172397 C10.8630898,10.5477772 10.5331091,10.6556946 10.2222204,10.6841295 C10.5149649,10.9715932 10.873516,10.7762046 11.1991637,10.8053165 C11.4273203,10.8257626 11.5089692,10.8933294 11.4986785,11.1198611 C11.490148,11.3082088 11.5012511,11.4692047 11.2355875,11.4648717 C10.6621496,11.4555288 10.0884408,11.4590494 9.51500282,11.4664966 C9.4570497,11.467309 9.3997736,11.5301367 9.3422267,11.5641232 C9.39435742,11.6020365 9.44594653,11.6717698 9.49875428,11.672853 C9.9646811,11.6815189 10.4308787,11.6748841 10.8968055,11.67854 C11.4843256,11.6831438 11.721825,11.9146854 11.4588695,12.415682 C11.2885307,12.7399757 11.2821667,12.8825567 11.4825653,13.1254723 C11.5019282,13.1490327 11.3613783,13.3876154 11.2885307,13.3912713 C10.7878049,13.4156441 10.2854543,13.4039993 9.7835099,13.4039993 C9.38921205,13.4039993 8.94779345,13.2960819 8.61645869,13.4405585 C8.38058408,13.5434659 8.30353893,13.9923318 8.13550197,14.2747855 C8.04220828,14.4314485 7.91750076,14.5328665 7.75515079,14.3113447 C7.65048312,14.168493 7.51115191,14.0489308 7.3779139,13.9295041 C7.13946661,13.715565 7.13878959,13.6451547 7.49233069,13.5951904 C7.61595498,13.5777233 7.78561679,13.2763129 7.78493977,13.1050262 C7.78331492,12.6261006 8.13089822,12.3076292 8.25222063,11.8942394 C8.30164327,11.7255254 8.68565037,11.3795669 8.07253889,11.4589139 C7.80024048,11.4939837 7.83463322,11.28519 7.82298843,11.1082163 C7.80728151,10.8728834 7.90910568,10.8019314 8.13374171,10.8108681 C8.49161575,10.8250856 8.85057303,10.8184508 9.20885329,10.8087016 C9.2424336,10.8077538 9.28007604,10.7252925 9.30146995,10.6745158 C9.30675073,10.6620586 9.25597405,10.6045117 9.22997639,10.6036993 C9.01522488,10.5973352 8.7951926,10.6275304 8.58707591,10.5897526 C8.43041293,10.5613176 8.27483318,10.4670761 8.14646973,10.3667414 C8.08052775,10.3151523 8.03313618,10.1750087 8.0548009,10.0962033 C8.07253889,10.0316153 8.1996837,9.97758893 8.2875612,9.95524719 C8.65193466,9.86290134 9.03607717,10.0790069 9.40898111,9.79425127 C9.8016541,9.49419494 10.1830885,9.92654144 10.5814485,9.94983102 C10.7601824,9.96025716 10.940812,9.96079878 11.1181919,9.94292539 C11.1496057,9.93981108 11.206611,9.78179406 11.1890084,9.76622254 C11.0100617,9.60759619 10.8848644,9.35317394 10.48443,9.2984459 L10.371,9.288 L10.3493011,9.30665248 C10.3304574,9.31971314 10.3119194,9.33065949 10.29368,9.33917339 L10.249,9.354 L10.2929868,9.37699985 C10.3725645,9.42912556 10.3554133,9.48006774 10.3404285,9.47943585 C9.61032757,9.44815742 8.91191126,9.70596755 8.19359049,9.72668443 C7.01638394,9.76053555 5.83741713,9.74306837 4.65939815,9.73034035 L4.43397772,9.73297975 C4.2473485,9.73394101 4.06156803,9.71813461 3.86010551,9.58302028 C3.4941072,9.33753196 3.51590732,9.71300858 3.51049114,9.95159127 C3.40081351,9.80603146 3.28152216,9.66642944 3.18755145,9.51139131 C3.15857489,9.46386434 3.19621734,9.31356536 3.2070497,9.31315915 C3.48882642,9.30313922 3.82720222,9.2059188 4.04317236,9.32602257 C4.78099138,9.73643355 5.55103666,9.45194874 6.2988756,9.49405953 C6.58363122,9.51003726 6.88490619,9.23232267 7.17859851,9.08852312 C7.26024741,8.65753066 7.31386759,8.21692448 7.63558863,7.87556978 C8.11261861,7.36969864 8.68307769,6.93884159 9.32178062,6.74629642 C9.92609082,6.56404199 10.4956021,6.17692058 11.1839984,6.27400559 C11.3978021,6.30420079 11.5200724,6.33629165 11.4952933,6.57433273 C11.4879815,6.64555548 11.485815,6.71921552 11.4955641,6.78976125 C11.5506738,7.18798583 11.3655758,7.61207266 11.6232506,7.98849712 C11.6522271,7.60489623 11.6969106,7.22183695 11.7062535,6.83796525 C11.720471,6.26303783 11.7051703,5.68743338 11.7130237,5.11237055 C11.7153256,4.94135469 11.7533743,4.77074505 11.775039,4.6 Z M22,13.3355253 C22,13.430173 21.6942567,13.5402568 21.5153874,13.6133753 C21.425885,13.6500699 21.3088955,13.6198747 21.2042279,13.6198747 C21.2279237,13.5601613 21.2505362,13.4489942 21.2754506,13.4484526 C21.8232972,13.4368078 21.4651523,13.1574684 21.4199272,12.9725058 C21.4548616,12.9725058 21.4899313,12.9749431 21.5244595,12.9720996 C21.79581,12.9502995 21.9997292,13.0999215 22,13.3355253 Z M2.21569934,13.1881646 C2.3053371,13.2601997 2.40066186,13.3261417 2.48231076,13.405895 C2.54608627,13.4683164 2.59293622,13.5479343 2.64736882,13.619834 C2.50573573,13.619834 2.36071754,13.6382491 2.22382361,13.612793 C2.14244551,13.5977631 2.07420166,13.5135415 2,13.460463 C2.07189978,13.369742 2.14379956,13.279021 2.21569934,13.1881646 Z M10.3734672,12.8228433 L9.58527774,12.8321377 C9.6143897,12.8825308 9.63375255,12.9605167 9.6746447,12.9769271 C9.73665995,13.0016154 9.81343429,12.983317 9.88411543,12.983317 C10.0252069,12.983317 10.1671108,12.9915948 10.3067128,12.9760558 C10.3336583,12.973006 10.3515317,12.8762861 10.3734672,12.8228433 Z M3.94207938,11.4620012 C3.88751137,12.2518155 3.85745158,12.2818753 2.86304108,12.5409041 C2.98937346,12.3788249 3.08307336,12.1520224 3.24880844,12.0687486 C3.54222995,11.9212932 3.65772997,11.5994367 3.94207938,11.4620012 Z M10.3734672,12.1754745 L9.58527774,12.1847689 C9.6143897,12.2353072 9.63375255,12.3132931 9.6746447,12.3295583 C9.73665995,12.3542466 9.81343429,12.3359482 9.88411543,12.3359482 C10.0252069,12.3359482 10.1671108,12.3443713 10.3067128,12.3286869 C10.3336583,12.3257824 10.3515317,12.2290625 10.3734672,12.1754745 Z M20.1252573,10.1673583 C19.9694067,10.7896773 19.9867385,11.0366551 20.1156436,11.5666282 C20.1587022,11.7437373 20.1450263,11.8576124 20.3795469,11.9138053 C20.5344496,11.9509061 20.6431794,12.1813646 20.7726261,12.3251641 C20.4618728,12.3271952 20.056878,12.3967931 19.9637197,12.0306594 C19.84998,11.5847724 19.60395,11.1583837 19.686953,10.6622617 C19.7331259,10.3853595 19.8743528,10.2395289 20.1252573,10.1673583 Z M17.1147147,10.7315211 C17.0529702,10.8383552 17.111465,11.0088295 17.0908835,11.146942 C17.0754474,11.2506619 16.9736232,11.4262815 16.9906842,11.4364368 C17.1293384,11.5199814 17.2866784,11.5719767 17.7306697,11.4511959 C17.4448308,11.3266238 17.6377822,11.1990728 17.9674921,11.2463289 C17.9655964,10.9549385 17.7354088,11.0735528 17.5902552,11.0230469 C17.487754,10.9874355 17.3603384,10.898204 17.3309556,10.8054519 C17.2786895,10.6398522 17.2322458,10.5281436 17.1147147,10.7315211 Z M3.72620402,10.1672906 C3.87013898,10.2393258 4.01393854,10.3112256 4.1577381,10.3831254 C4.1577381,10.6567778 4.17574689,10.9323259 4.14785357,11.2031349 C4.13837525,11.2954807 4.01393854,11.3760464 3.94203876,11.4620283 C4.09355637,10.9932579 3.72850589,10.6104695 3.72620402,10.1672906 Z M12.3008146,9.46156246 C12.1976364,9.6048204 12.052212,9.71774774 11.9257442,9.84421552 C12.1046135,9.8799623 12.2822642,9.93209303 12.4628938,9.94739373 L12.5118566,9.95100553 L12.5118566,9.95100553 L12.515,9.951 L12.6035887,9.95533847 C12.730121,9.9593211 12.7922395,9.95309977 12.5926143,9.95181567 L12.5161077,9.95159127 C13.5003629,9.95159127 13.8949315,9.96635036 14.2867921,9.93954027 C14.3681702,9.93398869 14.4392576,9.77488843 14.5150841,9.6864693 C14.442101,9.63095346 14.3704721,9.5294001 14.296135,9.52736904 C13.7596625,9.51369318 13.2217005,9.53698275 12.6867174,9.50705836 C12.5659366,9.50042355 12.4840169,9.20713744 12.3008146,9.46156246 Z M7.41921227,8.95420187 C7.34270874,9.00457234 7.25902877,9.04411045 7.17859851,9.08852312 C7.19552407,9.21323064 7.21231423,9.33793817 7.22923979,9.4627811 C7.3233459,9.40997335 7.41582716,9.3540513 7.51237055,9.30625352 C7.53890983,9.29311929 7.5773647,9.30422245 7.61026799,9.30422245 C8.07389293,9.59249859 8.15581264,9.59249859 8.41375818,9.24613393 C8.46412865,9.17843169 8.44124529,9.05629685 8.45221305,8.95948265 C8.3298074,8.9519 8.20374583,8.92305884 8.08662095,8.94391113 C7.99400429,8.96029507 7.91235539,9.03801725 7.82596733,9.08852312 C7.77315958,8.79239352 7.61419472,8.82570302 7.41921227,8.95420187 Z M12.5893615,6.94046644 C12.4470514,6.92503033 12.1715033,7.0208967 12.1650039,7.08629707 C12.1548615,7.18864351 12.0926218,7.33800202 12.342679,7.5077433 L12.385,7.534 C12.4293189,7.4625482 12.4671455,7.38342866 12.5215239,7.36956324 C13.1411348,7.21168162 13.4527005,7.72229191 13.8678506,8.00962022 C13.7971695,8.00962022 13.7249989,8.00041271 13.6564842,8.0121929 C13.5935212,8.02316067 13.5344848,8.05660557 13.4736882,8.08003055 C13.5344848,8.12850535 13.588782,8.19363491 13.6579737,8.22044499 C13.7193119,8.24414078 13.7971695,8.22531955 13.8678506,8.22531955 L14.08355,8.4411543 L14.08355,8.4411543 C14.3712845,8.72888882 14.659019,9.01648793 14.9467535,9.30422245 L15.0177055,9.48322718 L15.1624529,9.30422245 C15.2237911,9.3296785 15.2843169,9.35730101 15.3467384,9.37991356 C15.4687378,9.42392001 15.6386704,9.53725356 15.7055602,9.49365332 C15.8975638,9.3690812 15.8113111,9.21566792 15.681052,9.05927575 C15.485528,8.82434898 15.3503943,8.53390637 15.135372,8.32199835 C14.894352,8.08422809 14.6154188,7.86121691 14.3129252,7.71443845 C13.746122,7.43929655 13.2416049,7.01087677 12.5893615,6.94046644 Z M12.3529453,8.44020646 C12.283212,8.44711209 12.2119893,8.4411543 12.1415789,8.4411543 L12.153,8.478 L12.1668488,8.48749648 C12.3547394,8.61904193 12.7139337,8.86084048 13.4157351,9.32317908 C13.5484315,9.29880627 13.6811279,9.27456887 13.8138243,9.25033147 C13.7251343,9.12562394 13.6510681,8.98656354 13.5450464,8.87905239 C13.2191278,8.54893626 12.8217156,8.39403354 12.3529453,8.44020646 Z M9.22483102,9.09800143 C9.18935504,9.121291 9.17852268,9.19359699 9.17324191,9.24477989 C9.17134625,9.26170545 9.22198752,9.30043113 9.24988084,9.30151436 C9.33445448,9.30508904 9.4192231,9.30534902 9.59368365,9.30498505 L10.0887116,9.30422245 C10.1932632,9.29037251 10.28575,9.2857881 10.3681493,9.28869318 L10.371,9.288 L10.4067554,9.26144569 C10.5624477,9.12567645 10.7381308,8.87495156 10.9372915,8.67215434 C10.9784544,8.63031436 11.0040459,8.57330907 11.0370846,8.52334482 C10.9777774,8.49599311 10.9199597,8.44887235 10.8588923,8.44413319 C10.2088154,8.39443975 9.72501517,8.76978097 9.22483102,9.09800143 Z M9.382,7.312 L9.33640431,7.3622514 L9.33640431,7.3622514 C8.90210572,7.33258653 8.69809254,7.61012058 8.52109201,7.99752565 L8.516,8.009 L8.90487023,8.00962022 L8.7046722,8.27786151 C8.67224533,8.32315681 8.6409669,8.36916425 8.61185493,8.41651068 C8.57434789,8.4774427 8.5775976,8.56342454 8.56216149,8.63803241 C8.65789246,8.62679384 8.77813163,8.64872936 8.84488604,8.59876511 C9.09023896,8.41515664 9.31785389,8.20798778 9.55223905,8.00962022 C9.55806144,8.262962 9.77010486,8.28895966 9.88398003,8.19458274 C10.0589226,8.04956454 10.0727339,7.85119698 9.76807379,7.79378548 L9.76807379,7.57795073 L9.33640431,7.57795073 C9.33640431,7.52412745 9.33640431,7.47015184 9.38935804,7.33256608 L9.393,7.323 L9.382,7.312 Z M10.5936349,7.47463712 C10.4218066,7.61478075 10.3106395,7.70523095 10.1996079,7.79581654 C10.2904643,7.8671747 10.3745505,7.98402877 10.4739373,7.99892326 C10.6243717,8.02153581 10.8639022,8.07732246 10.8372276,7.79270224 C10.8284263,7.69886694 10.7062914,7.61586399 10.5936349,7.47463712 Z M10.1311281,7.2650656 L10.052,7.317 L10.039,7.328 L10.0645419,7.34903253 C10.0744264,7.35512574 10.0833631,7.35818926 10.0899302,7.35669981 C10.3832163,7.29008081 10.6783981,7.22454504 10.9613935,7.12542896 C11.0197528,7.10511829 11.0698525,6.93870618 11.0504896,6.85692188 C11.034888,6.79131841 10.9252008,6.74793799 10.1311281,7.2650656 Z M10.8044597,6.66356428 C10.5243078,6.79192773 10.251197,6.91040665 9.98783526,7.04730058 C9.95845249,7.06260128 9.97104511,7.18636098 9.98837688,7.2535216 C9.99392846,7.2746447 10.0127497,7.3019287 10.0334666,7.3231872 L10.037,7.326 L10.052,7.317 L10.0871901,7.28671513 C10.234342,7.15726448 10.4573428,6.96323696 10.8044597,6.66356428 Z M12.2310813,6.31394991 C12.2144265,6.33845812 12.1434746,6.39586962 12.1488908,6.44488604 C12.1593169,6.53750271 12.208875,6.69931106 12.2503087,6.70188375 C12.4137419,6.71203908 12.5804248,6.67277178 12.7453475,6.64718034 C12.7529302,6.6459617 12.7636271,6.582457 12.7567215,6.57880107 C12.5842162,6.4887571 12.4096798,6.40277525 12.2310813,6.31394991 Z M3.72624464,10.1673583 C3.65434486,10.0954585 3.58244508,10.0235588 3.5104099,9.95165898 C3.58244508,10.0235588 3.65434486,10.0954585 3.72624464,10.1673583 M21.204255,12.7566982 C21.2761547,12.828598 21.3480545,12.9004977 21.4199543,12.9725329 C21.3480545,12.9004977 21.2761547,12.828598 21.204255,12.7566982 M20.7726532,12.3251641 C20.8445529,12.3970639 20.9164527,12.4689637 20.9884879,12.5408634 C20.9164527,12.4689637 20.8445529,12.3970639 20.7726532,12.3251641 M13.8270939,11.519345 C14.2246414,11.7703849 14.8611779,11.6620613 15.4833615,11.6849446 C15.5222226,11.6862987 15.5934453,11.7951639 15.5861335,11.8447219 C15.5727285,11.9366616 15.517348,12.0946786 15.4707689,12.0979283 C15.0534523,12.1269049 15.0724089,12.2957543 15.2912225,12.5637197 C15.572593,12.9084595 15.4859342,13.5356531 16.1071699,13.6248846 C16.1486037,13.6308424 16.2153581,13.7433636 16.2099419,13.7490505 C15.9877432,13.9830295 15.7625655,14.2147066 15.5227642,14.4302705 C15.503943,14.4473314 15.3531024,14.3628391 15.3070649,14.2956784 C15.1749101,14.1031333 15.0554833,13.9000265 14.9491908,13.6917744 C14.8286808,13.4558998 14.7463549,13.1991729 14.6135231,12.9712872 C14.4857013,12.7523382 14.3148208,12.5587098 14.1627616,12.3538428 C14.1363577,12.5940503 14.0750195,12.8365598 14.0920805,13.073653 C14.1152346,13.3968635 13.9465206,13.424486 13.7046882,13.404717 C13.4781565,13.3861665 13.1789126,13.5091138 13.2123576,13.0713511 C13.2305018,12.8347995 13.1665908,12.5921547 13.1396453,12.3522179 C12.8466301,12.4792273 12.8165703,12.7198411 12.7702619,13.0105545 C12.7182666,13.3376917 12.0876879,13.5536619 11.8145771,13.3879268 C11.787767,13.3716783 11.8176914,13.2402005 11.8405748,13.1683007 C11.9107143,12.9469144 11.9647407,12.7149665 12.0721164,12.5121306 C12.2123955,12.247144 12.1708263,12.1320502 11.8646768,12.099147 C11.8057758,12.0927829 11.7181691,11.9519623 11.7225021,11.8776252 C11.7264288,11.8078919 11.8290654,11.6932043 11.8977155,11.6857571 C12.4771112,11.6240126 13.0588089,11.5824435 13.8270939,11.519345 Z M7.55973504,9.94836096 C7.81971164,9.94635112 7.82526323,10.0902861 7.83122102,10.2870288 C7.83812665,10.5092275 7.77421574,10.6206654 7.53563304,10.6010318 C7.39305213,10.589387 7.24004506,10.6301437 7.10653625,10.5933137 C6.65062936,10.467523 6.5398685,10.842458 6.36655076,11.0993203 C6.26215391,11.2536814 6.25660232,11.4425706 6.53160882,11.4612564 C6.60323779,11.466131 6.68001213,11.4456849 6.74622492,11.4650478 C6.96057022,11.5278754 7.34850405,11.2806269 7.37179362,11.6334909 C7.40510312,12.1344875 6.95298756,11.8089752 6.72997639,11.8906241 C6.60445643,11.9365262 6.41380692,11.908362 6.34800035,11.9902817 C6.22776117,12.1397683 6.16114216,12.3416564 6.11036548,12.5320351 C6.09506478,12.589582 6.20081568,12.7416412 6.25944582,12.7463804 C6.54487846,12.7692637 6.83356081,12.766691 7.1202121,12.7536922 C7.37396009,12.7420474 7.39765588,12.8779935 7.40036397,13.08435 C7.40334287,13.3007263 7.35662832,13.4118934 7.11208783,13.4075604 C6.50195524,13.3967281 5.89128103,13.4040399 5.28087764,13.4040399 C4.70635643,13.4040399 4.13169981,13.4093207 3.55731401,13.3984883 C3.46903029,13.3968635 3.30302439,13.3035698 3.30762815,13.2832591 C3.3364693,13.1563851 3.37736145,13.0117731 3.46537437,12.9244373 C3.55325187,12.8372368 3.69813467,12.7741383 3.8229776,12.7639829 C4.10841024,12.7409642 4.397228,12.7512549 4.6842855,12.7581606 C5.03173339,12.7665556 5.18352182,12.5558663 5.23118419,12.2568932 C5.25731726,12.0918351 5.28141926,11.883583 4.99896551,11.8930613 C4.89131895,11.8965818 4.78204753,11.9044353 4.67602582,11.8911657 C4.50798886,11.8700426 4.34171216,11.8329417 4.17475844,11.8027465 C4.31950583,11.6073579 4.46046189,11.4691099 4.75252936,11.4464974 C5.33354998,11.4015431 5.43875926,11.2883449 5.44227978,10.8937763 C5.44322761,10.7961496 5.33368538,10.6282481 5.25068244,10.6115933 C4.97906105,10.5567545 4.68685818,10.5904702 4.42295485,10.5172164 C4.32871333,10.4910833 4.05682114,10.4037475 4.16582174,10.1713934 C4.21023441,10.0767456 4.34211838,9.96232885 4.43595368,9.9609748 C5.47694333,9.94608031 6.51847459,9.95623565 7.55973504,9.94836096 Z M15.6080016,11.1380324 C15.6082721,11.4701796 15.4323817,11.5131028 15.2099121,11.4554205 C14.565116,11.2883314 13.9162577,11.1720189 13.2507447,11.2506889 C12.8465624,11.2984867 12.4477962,11.3905618 12.0464573,11.4619199 C11.7358394,11.517165 11.7028007,11.3400559 11.7039881,11.0887452 C11.705238,10.8356742 11.8308933,10.8076455 12.0380622,10.8113014 C12.6125834,10.8211859 13.1873754,10.8146865 13.762032,10.8146865 C14.2649243,10.8146865 14.7686289,10.8310705 15.270438,10.8080517 C15.5371848,10.7958653 15.6077305,10.8553079 15.6080016,11.1380324 Z M14.7308646,8.6569755 L14.0834958,8.44114076 L14.0834958,8.22530601 C14.1850492,8.22530601 14.2890398,8.23925268 14.3878851,8.22286873 C14.7717568,8.15949944 14.7361454,8.4182574 14.7308646,8.6569755 Z M8.90492439,8.00960668 C8.97682417,7.9377069 9.04872395,7.86580712 9.12062373,7.79377194 C9.04872395,7.86580712 8.97682417,7.9377069 8.90492439,8.00960668" id="Combined-Shape" fill="#DEBB69"></path>
            </g>
        </g>
    </g>
</svg>