<?xml version="1.0" encoding="UTF-8"?>
<svg width="24px" height="24px" viewBox="0 0 24 24" version="1.1" xmlns="http://www.w3.org/2000/svg" xmlns:xlink="http://www.w3.org/1999/xlink">
    <!-- Generator: Sketch 55.1 (78136) - https://sketchapp.com -->
    <title>Regional Coupons/coupon_south_american_leagues</title>
    <desc>Created with Sketch.</desc>
    <g id="Icons" stroke="none" stroke-width="1" fill="none" fill-rule="evenodd">
        <g id="Regional-Icons/coupon_south_american_leagues">
            <g id="coupon_south_american_leagues">
                <circle id="Oval" fill="#415B73" cx="12" cy="12" r="11.8"></circle>
                <path d="M7.19140668,4.30103012 C7,4.5 7.5,5 6.86609871,5.3612752 C6.62979861,5.54406093 6.76895813,5.71146805 6.6813057,5.92896548 C6.60494869,6.12625104 6.31759331,6.13459942 6.249369,6.33847581 C6.5,7.5 5.5,7.18078406 6.03701518,7.69442953 C6.09243802,7.80837768 6.38717307,8.09412684 6.92122033,8.551677 C7.5,9 7.19140668,10 7.94774773,10.5728653 C8.5,11 9.24400965,11 9.30997488,12.0197725 C8.77095763,14 9.30997488,15 9.02623403,15.3727481 C8.77095763,17 9.30997488,17.5 9.12021189,18.8109652 C9.11885644,19.0574623 9.46856251,19.0306596 9.24400965,19.2701264 C9.12834459,19.3940341 8.91644259,19.4819118 9.11795281,19.700288 C9.21057522,19.8004687 9.36419287,19.7596055 9.4464235,19.9318459 C9.50696693,20.0592687 9.46675525,20.2174486 9.49702696,20.3510228 C9.57338397,20.6814431 9.79296686,20.6107016 10.0622496,20.6708978 C10.3288214,20.7293365 10.3852985,20.9472733 10.6441894,20.9863789 C11,21 11.2198038,20.9354099 10.9148276,20.780745 C10.5931341,20.6159742 10.1187266,20.0702534 10.433191,19.7086364 C10.5520188,19.5715471 10.9139239,19.4586242 10.8750677,19.2463995 C10.8262715,18.9766148 10.3532195,19.1264463 10.433191,18.7933896 C10.7435891,18.5 11.4222176,18.0543377 11.0499207,17.8724308 C10.5,17.8724308 10.7883189,17.5090563 10.8859113,17.4659962 C12,17.5 11,17 11.4836647,16.8455793 C11.7723755,16.8350339 12.6985996,16.8121857 12.7220941,16.4540839 C12.7406186,16.1632085 12.1058162,15.4579896 12.7749566,15.7009715 C12.9425806,15.7620466 13.5,16 14,15.5 C14.5,15 14.8063242,14.3423815 14.8926212,14.1389445 C15.0173226,13.8441146 14.654062,13.5 15.0204853,13.1859103 C15.0859938,13.0715501 15.3106149,12.6051604 15.7474583,12.5 C15.8941098,12.4646969 16.1700192,12.531785 16.5751863,12.7012645 C18,12 17.7494578,10.9256945 17.7345478,10.4116096 C18.5,10 18.8948129,8.8645218 18.9829172,8.45764781 C18.3639284,7.09598203 17.7345478,7.69442953 16.5417519,7.18078406 C16.5317842,7.09944269 16.9625487,6.7347159 16.1216215,6.54067247 C16.0858444,6.53241692 15.4948928,6.70316848 15.4948928,6.34243031 C15,6 14.7141536,6.26949177 14.654062,6.26597666 C14.5,5.92896548 15,5.3612752 14.3156514,4.80896353 C14.1394429,4.66440463 13.757206,4.5 13.0044795,4.55192111 C12.6764606,4.47942196 12.4914586,3.34272323 11.3142335,3.34272323 C10.433191,3.5 10,3 9.75320699,3.13708929 C9.48392428,3.12390763 9.4464235,3.5 8.77095763,3.65776498 C8,3 7.5,3.65776498 7.19140668,4.30103012 Z" id="coupon_southamerica" fill="#00F4BD"></path>
                <circle id="Oval" stroke="#FFFFFF" cx="12" cy="12" r="11.5"></circle>
            </g>
        </g>
    </g>
</svg>