<?xml version="1.0" encoding="UTF-8"?>
<svg width="24px" height="24px" viewBox="0 0 24 24" version="1.1" xmlns="http://www.w3.org/2000/svg" xmlns:xlink="http://www.w3.org/1999/xlink">
    <!-- Generator: Sketch 55.1 (78136) - https://sketchapp.com -->
    <title>Flags/macau</title>
    <desc>Created with Sketch.</desc>
    <g id="Icons" stroke="none" stroke-width="1" fill="none" fill-rule="evenodd">
        <g id="Flags/macau">
            <g id="macau">
                <path d="M12,23.5 C5.64872538,23.5 0.5,18.3512746 0.5,12 C0.5,5.64872538 5.64872538,0.5 12,0.5 C18.3512746,0.5 23.5,5.64872538 23.5,12 C23.5,18.3512746 18.3512746,23.5 12,23.5 Z" id="Combined-Shape" fill="#5AA587" fill-rule="nonzero"></path>
                <g id="Group" transform="translate(5.250000, 7.500000)" fill="#F5F5F5" fill-rule="nonzero">
                    <path d="M8.26139063,7.76301563 C8.96948438,7.93228125 9.72534375,7.94545313 10.4811563,7.7578125 C11.8127813,7.42715625 12.8660625,6.55898438 13.4782031,5.44425 C12.4157344,4.74525 11.0786719,4.47060938 9.74704688,4.80126563 C9.031125,4.97901563 8.40309375,5.31984375 7.87382813,5.76351563 C7.87879688,5.75685938 7.88301563,5.75029688 7.8879375,5.7436875 C9.84885938,3.975375 12.0379219,4.5463125 12.0379219,4.5463125 L12.5558438,4.1038125 C12.5558438,4.1038125 10.3477969,3.34096875 8.37,4.97695313 C9.59404688,2.60709375 8.27325,0.574125 8.27325,0.574125 L7.96860938,1.18340625 C7.96860938,1.18340625 9.06707813,3.19776563 7.782,5.5479375 C7.78045313,5.549625 7.779,5.55154688 7.77745313,5.55323438 C8.090625,4.92417188 8.27325,4.21907813 8.27325,3.46814063 C8.27325,2.09610938 7.6845,0.864609375 6.75009375,0.001875 C5.8156875,0.864609375 5.2269375,2.0960625 5.2269375,3.46814063 C5.2269375,4.21907813 5.4095625,4.92417188 5.72273438,5.55323438 C5.7211875,5.5515 5.71973438,5.549625 5.7181875,5.5479375 C4.43310937,3.19776563 5.53157813,1.18340625 5.53157813,1.18340625 L5.2269375,0.574125 C5.2269375,0.574125 3.90614062,2.60704688 5.1301875,4.97695313 C3.15239063,3.34096875 0.94434375,4.1038125 0.94434375,4.1038125 L1.46226562,4.5463125 C1.46226562,4.5463125 3.65132813,3.975375 5.61225,5.7436875 C5.61721875,5.75029688 5.62139063,5.75685938 5.62635938,5.76351563 C5.09704688,5.31984375 4.46901562,4.97901563 3.75314062,4.80126563 C2.42151562,4.47065625 1.08445312,4.74529688 0.021984375,5.44425 C0.634078125,6.55903125 1.68740625,7.42720313 3.01903125,7.7578125 C3.77484375,7.94545313 4.53065625,7.93228125 5.23879688,7.76301563 C2.60053125,8.50064063 0.875015625,6.91157813 0.875015625,6.91157813 L0.21028125,7.06040625 C0.21028125,7.06040625 2.87667187,9.9196875 6.7501875,7.11482813 C10.6236563,9.9196875 13.2900938,7.06040625 13.2900938,7.06040625 L12.6253594,6.91157813 C12.6251719,6.91157813 10.8996563,8.50064063 8.26139063,7.76301563 Z" id="Shape"></path>
                    <path d="M2.90034375,11.0542969 C3.17564062,11.334816 3.46345313,11.5848672 3.76153125,11.8042969 L9.73842188,11.8042969 C10.0365,11.5847903 10.3243125,11.334739 10.5996094,11.0542969 L2.90034375,11.0542969 Z" id="Shape"></path>
                    <path d="M4.29703125,11.7272344 C5.06395312,12.2114726 5.88932812,12.4772344 6.75,12.4772344 C7.61067187,12.4772344 8.43604688,12.2114726 9.20296875,11.7272344 L4.29703125,11.7272344 Z" id="Shape"></path>
                    <path d="M1.27978125,9.68760937 C1.37203125,9.94368723 1.46639062,10.1949182 1.56435937,10.4376094 L11.9356875,10.4376094 C12.0336562,10.1949182 12.1280156,9.94368723 12.2202656,9.68760937 L1.27978125,9.68760937 Z" id="Shape"></path>
                    <path d="M1.94826562,10.3498594 C2.10089062,10.6119532 2.25839062,10.863061 2.42175,11.0998594 L11.07825,11.0998594 C11.2416094,10.863061 11.3991563,10.6120455 11.5517344,10.3498594 L1.94826562,10.3498594 Z" id="Shape"></path>
                    <path d="M9.79635937,8.87545313 C8.09020312,8.87545313 6.922875,7.73517188 6.91125,7.72354688 L6.74957812,7.56290625 L6.58846875,7.723875 C6.57684375,7.73545313 5.4170625,8.8755 3.70364062,8.8755 L0.65446875,8.8755 C0.758578125,9.03239063 0.86915625,9.18440625 0.984703125,9.3324375 L3.70364062,9.3324375 C5.2363125,9.3324375 6.349125,8.5306875 6.75,8.19271875 C7.150875,8.5306875 8.26364062,9.3324375 9.79635937,9.3324375 L12.5152969,9.3324375 C12.6308437,9.18435938 12.7414687,9.03234375 12.8455312,8.8755 L9.79635937,8.87545313 L9.79635937,8.87545313 Z" id="Shape"></path>
                </g>
                <g id="Group" transform="translate(5.531250, 4.312500)" fill="#FFE15A" fill-rule="nonzero">
                    <path d="M6.38878125,0.094875 L6.12145312,0.896390625 L5.27653125,0.902953125 C5.19548437,0.9035625 5.16192187,1.00696875 5.22707812,1.05510938 L5.90676562,1.55704688 L5.65190625,2.36264063 C5.62748437,2.43989063 5.71542187,2.50378125 5.78132812,2.45667188 L6.46875,1.96532813 L7.15617187,2.45667188 C7.22207812,2.50378125 7.3100625,2.43989063 7.28559375,2.36264063 L7.03073437,1.55704688 L7.71042187,1.05510938 C7.775625,1.00696875 7.74201562,0.9035625 7.66096875,0.902953125 L6.81604687,0.896390625 L6.54871875,0.094875 C6.523125,0.018 6.414375,0.018 6.38878125,0.094875 Z" id="Shape"></path>
                    <path d="M2.39015625,1.7355 L2.54489062,2.29748438 L2.06329687,2.62579688 C2.017125,2.65729688 2.0375625,2.7294375 2.0934375,2.73196875 L2.67571875,2.75845313 L2.83917187,3.31795313 C2.85482812,3.371625 2.92978125,3.3744375 2.94946875,3.322125 L3.15459375,2.77654688 L3.73720312,2.79398438 C3.79307812,2.79567188 3.81890625,2.72526563 3.77526562,2.69039063 L3.31978125,2.3266875 L3.51642187,1.77796875 C3.53526562,1.72532813 3.47629687,1.67901563 3.42965625,1.70976563 L2.943,2.03057813 L2.48189062,1.674 C2.43759375,1.639875 2.37529687,1.68164063 2.39015625,1.7355 Z" id="Shape"></path>
                    <path d="M0.058921875,4.56595313 L0.480375,4.96860938 L0.235828125,5.49773438 C0.212390625,5.54845313 0.267,5.599875 0.31621875,5.57334375 L0.82940625,5.29692188 L1.25704688,5.69296875 C1.2980625,5.7309375 1.36382813,5.69489063 1.35379688,5.63985938 L1.2495,5.06639063 L1.75832813,4.78204688 C1.807125,4.75476563 1.79310938,4.68107813 1.73775,4.673625 L1.16010938,4.595625 L1.04695313,4.02384375 C1.03607813,3.969 0.9616875,3.95953125 0.937453125,4.00992188 L0.68475,4.53520313 L0.105984375,4.46615625 C0.050484375,4.4595 0.018515625,4.52732813 0.058921875,4.56595313 Z" id="Shape"></path>
                    <path d="M10.6799062,1.7355 L10.5251719,2.29748438 L11.0068125,2.62579688 C11.0529844,2.65729688 11.0325469,2.7294375 10.9766719,2.73196875 L10.3943906,2.75845313 L10.2309375,3.31795313 C10.2152812,3.371625 10.1403281,3.3744375 10.1206406,3.322125 L9.91551562,2.77654688 L9.33290625,2.79398438 C9.27703125,2.79567188 9.25120312,2.72526563 9.29489062,2.69039063 L9.750375,2.3266875 L9.55373437,1.77796875 C9.53489062,1.72532813 9.59385937,1.67901563 9.6405,1.70976563 L10.1271562,2.03057813 L10.5882656,1.674 C10.6324219,1.639875 10.6947187,1.68164063 10.6799062,1.7355 Z" id="Shape"></path>
                    <path d="M13.0111406,4.56595313 L12.5896875,4.96860938 L12.8342344,5.49773438 C12.8576719,5.54845313 12.8030625,5.599875 12.7538438,5.57334375 L12.2406563,5.29692188 L11.8130156,5.69296875 C11.772,5.7309375 11.7062344,5.69489063 11.7162656,5.63985938 L11.8205625,5.06639063 L11.3117344,4.78204688 C11.2629375,4.75476563 11.2769531,4.68107813 11.3323125,4.673625 L11.9099531,4.595625 L12.0231094,4.02384375 C12.0339844,3.969 12.108375,3.95953125 12.1326094,4.00992188 L12.3853125,4.53520313 L12.9640781,4.46615625 C13.0195313,4.4595 13.0515469,4.52732813 13.0111406,4.56595313 Z" id="Shape"></path>
                </g>
                <circle id="Oval" stroke="#FFFFFF" cx="12" cy="12" r="11.5"></circle>
            </g>
        </g>
    </g>
</svg>