<?xml version="1.0" encoding="UTF-8"?>
<svg width="24px" height="24px" viewBox="0 0 24 24" version="1.1" xmlns="http://www.w3.org/2000/svg" xmlns:xlink="http://www.w3.org/1999/xlink">
    <!-- Generator: Sketch 55.1 (78136) - https://sketchapp.com -->
    <title>Flags/iraq</title>
    <desc>Created with Sketch.</desc>
    <g id="Icons" stroke="none" stroke-width="1" fill="none" fill-rule="evenodd">
        <g id="Flags/iraq">
            <g id="iraq">
                <g id="Group-2" transform="translate(0.500000, 0.500000)" fill-rule="nonzero">
                    <path d="M22.3479017,7.67310547 L0.652098256,7.67310547 C2.22898507,3.20317163 6.49042212,0 11.5,0 C16.5095779,0 20.7710149,3.20317163 22.3479017,7.67310547 Z" id="Combined-Shape" fill="#FF4B55"></path>
                    <path d="M0.659091524,15.3466602 L22.3409085,15.3466602 C20.7584456,19.8062681 16.5021908,23 11.5,23 C6.49780917,23 2.2415544,19.8062681 0.659091524,15.3466602 Z" id="Combined-Shape" fill="#464655"></path>
                    <path d="M0.652098256,7.67310547 L22.3479017,7.67310547 C22.7702335,8.87027134 23,10.1583033 23,11.5 C23,12.8489158 22.7677543,14.1435878 22.3410679,15.3462109 L0.658932132,15.3462109 C0.232245685,14.1435878 0,12.8489158 0,11.5 C0,10.1583033 0.229766484,8.87027134 0.652098256,7.67310547 Z" id="Combined-Shape" fill="#F5F5F5"></path>
                    <g id="Group" transform="translate(6.468750, 9.613281)" fill="#73AF00">
                        <path d="M7.37010742,1.13614171 C7.32841992,1.0996227 7.27905078,0.969316217 7.29445898,0.91227412 C7.31067578,0.852364829 7.28547461,0.857571052 7.37064648,0.900126267 C7.52472852,0.967128094 7.62441016,0.936569828 7.72233984,0.796605425 L7.80930859,0.68093673 L7.91083203,0.766198065 C7.96698438,0.808753279 8.02497852,0.83916064 8.04133008,0.833048987 C8.08849805,0.81478948 8.17915039,0.619895651 8.17730859,0.552893824 C8.1754668,0.461671741 8.21535742,0.486042902 8.23530273,0.58345209 C8.27699023,0.766198065 8.20030859,1.08136319 8.09514648,1.12391841 C8.04447461,1.14821411 7.99730664,1.14217791 7.91748047,1.0996227 C7.8232793,1.03865707 7.80867969,1.03865707 7.75800781,1.0996227 C7.65293555,1.23966255 7.50249219,1.25196131 7.37010742,1.13614171" id="Shape"></path>
                        <path d="M8.04505462,0.697953354 C7.84884485,0.587611019 7.61311581,0.201447614 7.68192789,0.107027394 C7.75039331,0.0202553506 7.81920539,0.00454182355 8.00588199,0.0281121142 C8.33988925,0.0753222244 8.41875448,0.162094268 8.37906187,0.477407743 C8.32012961,0.713666881 8.24178437,0.792582161 8.04505462,0.697953354" id="Shape"></path>
                        <path d="M4.35764648,1.56013672 C4.14871484,1.679 3.83799023,1.69943945 3.83799023,2.02885156 C3.38293164,2.04578711 2.84633984,2.06618164 2.36230664,2.05598437 C2.49347852,1.88658398 3.32367969,1.11922852 3.6689043,0.815107422 C3.72604492,0.764794922 3.74545117,0.667359375 3.71220898,0.598853516 L3.70326953,0.580435547 C3.65349609,0.477789062 3.51810156,0.453351562 3.43566992,0.532189453 C3.0916582,0.861242187 2.75074609,1.16792383 2.69522266,1.22052734 C2.24982227,1.67064453 2.11923437,1.80181641 2.04924609,1.87225391 C1.99942773,1.92238672 1.97171094,1.99026367 1.97207031,2.06092578 L1.97211523,2.06550781 C1.97287891,2.21235742 2.09214648,2.33104102 2.23904102,2.33104102 L4.18779687,2.33104102 C4.29821484,2.33104102 4.16241602,1.94727344 4.30499805,1.94727344 C4.40414062,1.94727344 4.41325977,2.08500391 4.40890234,2.23082031 C4.40557812,2.34177734 4.31420703,2.42950977 4.20320508,2.42968945 C3.36069531,2.43085742 2.48364062,2.43889844 1.65833594,2.43966211 C1.59014453,2.43970703 1.53542969,2.3844082 1.53542969,2.31626172 L1.53542969,2.16783984 C1.53542969,2.04196875 1.39563281,1.96874609 1.29042578,2.03788086 C1.2865625,2.04039648 1.28278906,2.04282227 1.27901562,2.04520312 C1.22407617,2.07952344 1.19591016,2.14686133 1.21738281,2.208 C1.23130859,2.24766602 1.23732812,2.29604687 1.2387207,2.34658398 C1.24051758,2.41342773 1.18611719,2.46845703 1.11931836,2.47052344 C0.846373047,2.47887891 0.549753906,2.48130469 0.465480469,2.32039453 C0.417953125,2.22965234 0.316833984,2.18679687 0.225193359,2.23257227 L0.212974609,2.23868164 C0.116482422,2.28692773 0.0778046875,2.40628516 0.130722656,2.50030664 C0.231257812,2.67905078 0.322988281,2.88636523 0.275371094,3.17683008 C0.236558594,3.26838086 0.163425781,3.32565625 0.0841835937,3.37727148 C-0.00381835938,3.4345918 0.051390625,3.56868359 0.154666016,3.5495918 C0.405060547,3.50332227 0.577560547,3.30508203 0.63034375,3.0715332 L4.51249219,3.0715332 C4.65489453,3.0715332 4.77029883,2.95612891 4.77029883,2.81372656 L4.77029883,1.97117187 C4.73463086,1.71978906 4.46460547,1.72994141 4.35764648,1.56013672 Z" id="Shape"></path>
                        <path d="M9.28175781,0.446837891 C9.33898828,0.483673828 9.39644336,0.520554687 9.46027734,0.551056641 C9.53017578,0.584433594 9.55685938,0.669740234 9.51602539,0.735550781 C9.50519922,0.752980469 9.49621484,0.772386719 9.49104883,0.796015625 L9.49104883,2.46697461 C9.60524023,2.49069336 9.67078125,2.46823242 9.7228457,2.43233984 C9.78155859,2.39186523 9.86107031,2.42128906 9.87957813,2.49019922 C9.91897461,2.6367793 9.98348242,2.77994531 10.0178926,2.91030859 C10.0394102,2.99175195 9.97822656,3.07148828 9.89395313,3.07148828 L9.23935156,3.07148828 C9.18140234,3.07148828 9.13441406,3.0245 9.13441406,2.96655078 L9.13441406,0.527337891 C9.13441406,0.451689453 9.21810352,0.405914062 9.28175781,0.446837891 Z" id="Shape"></path>
                        <path d="M8.48915625,0.853740234 C8.48965039,1.31513281 8.49504102,1.81219336 8.49580469,2.3067832 C8.49589453,2.3708418 8.44391992,2.42281641 8.37981641,2.42281641 L8.37231445,2.42281641 C8.30830078,2.42281641 8.25641602,2.37093164 8.25641602,2.30691797 L8.25641602,1.13490625 C8.25641602,1.07111719 8.18144141,1.03697656 8.13346484,1.07902344 L7.97983203,1.21176758 C7.94843164,1.23890039 7.93032813,1.2779375 7.93023828,1.31944531 C7.92969922,1.51009375 7.92808203,2.06514844 7.92736328,2.30745703 C7.92718359,2.37133594 7.87534375,2.42286133 7.81146484,2.42286133 L7.80095313,2.42286133 C7.73725391,2.42286133 7.68550391,2.37169531 7.68505469,2.30799609 C7.68393164,2.14668164 7.68191016,1.84772656 7.68110156,1.62352148 C7.68087695,1.55901367 7.60455469,1.52532227 7.55603906,1.56781836 C7.39688086,1.70730078 7.36013477,1.73883594 7.276625,1.82513086 C7.2834082,1.86928906 7.31741406,1.82513086 7.33776367,1.85904687 L7.33776367,2.08325195 C6.75791211,1.9740918 6.71460742,2.43728125 6.73634961,2.9343418 C6.73962891,3.00900195 6.80094727,3.06816406 6.87569727,3.06816406 L8.69620117,3.06816406 C8.76371875,3.06816406 8.81843359,3.01344922 8.81843359,2.94593164 L8.81843359,0.682722656 C8.81843359,0.607119141 8.72872461,0.568306641 8.67297656,0.619337891 C8.62850391,0.660037109 8.58102148,0.70078125 8.54023242,0.737662109 C8.50739453,0.767400391 8.48906641,0.809357422 8.48915625,0.853740234 Z M7.14931641,2.40583594 C7.11364844,2.30395313 7.31408984,2.2665332 7.33780859,2.35826367 C7.34634375,2.47034375 7.19347461,2.47375781 7.14931641,2.40583594 Z" id="Shape"></path>
                        <path d="M1.37149282,3.25144531 C1.56794186,3.25144531 1.72598828,3.41649066 1.72598828,3.61069187 C1.72598828,3.81478296 1.5680686,3.97019531 1.37149282,3.97019531 C1.17035435,3.97019531 1.00723828,3.81478296 1.00723828,3.61069187 C1.00723828,3.4166191 1.17035435,3.25144531 1.37149282,3.25144531" id="Shape"></path>
                        <path d="M5.275625,0.498048828 C5.30963086,0.518488281 5.34458008,0.538029297 5.38182031,0.55559375 C5.44902344,0.587353516 5.47552734,0.670863281 5.43442383,0.732810547 C5.42207031,0.751453125 5.41151367,0.772611328 5.40531445,0.799384766 L5.40531445,2.46692969 C5.52633398,2.49383789 5.59250391,2.46746875 5.64524219,2.42843164 C5.69780078,2.38957422 5.7734043,2.4164375 5.79025,2.47955273 C5.82048242,2.59275586 5.86594336,2.70470117 5.90102734,2.81098633 C5.94397266,2.94094531 5.84757031,3.07485742 5.71069336,3.07485742 L5.20015625,3.07485742 C5.11745508,3.07485742 5.05043164,3.00783398 5.05043164,2.92513281 L5.05043164,0.627244141 C5.05043164,0.511660156 5.17652734,0.438482422 5.275625,0.498048828 Z" id="Shape"></path>
                    </g>
                </g>
                <circle id="Oval" stroke="#FFFFFF" cx="12" cy="12" r="11.5"></circle>
            </g>
        </g>
    </g>
</svg>