<?xml version="1.0" encoding="UTF-8"?>
<svg width="24px" height="24px" viewBox="0 0 24 24" version="1.1" xmlns="http://www.w3.org/2000/svg" xmlns:xlink="http://www.w3.org/1999/xlink">
    <!-- Generator: Sketch 55.1 (78136) - https://sketchapp.com -->
    <title>Flags/angola</title>
    <desc>Created with Sketch.</desc>
    <g id="Icons" stroke="none" stroke-width="1" fill="none" fill-rule="evenodd">
        <g id="Flags/angola">
            <g id="angola">
                <path d="M0.1,11.9230822 C0.1,5.39337422 5.40542571,0.1 11.95,0.1 C18.4945743,0.1 23.8,5.39337422 23.8,11.9230822 C23.2861914,11.9230822 11.95,13.465625 11.95,13.465625 L0.1,11.9230822 Z" id="Path" fill="#D80027" fill-rule="nonzero"></path>
                <path d="M23.9,11.9 C23.9,18.527417 18.5721885,23.9 12,23.9 C5.42781148,23.9 0.1,18.527417 0.1,11.9" id="Path" fill="#333333" fill-rule="nonzero"></path>
                <circle id="Oval" stroke="#FFFFFF" cx="12" cy="12" r="11.5"></circle>
                <g id="Group" transform="translate(6.984375, 6.000000)" fill="#FFDA44" fill-rule="nonzero">
                    <polygon id="Path" points="3.3703125 3.54375 4.3875 4.284375 3.9984375 5.4796875 5.015625 4.734375 6.0328125 5.4703125 5.64375 4.275 6.6609375 3.5390625 5.4046875 3.5390625 5.015625 2.34375 4.6265625 3.5390625"></polygon>
                    <path d="M8.015625,0.8015625 C7.1035166,0.275734839 6.06844089,0.000792851786 5.015625,0.00464669163 L5.015625,1.565625 C5.79430664,1.56466335 6.5593358,1.77007287 7.2328125,2.1609375 C9.21707495,3.44572927 9.8464149,6.06013884 8.66418727,8.10716722 C7.48195965,10.1541956 4.90293511,10.915667 2.7984375,9.8390625 C2.20240638,9.49546161 1.69511474,9.01706633 1.3171875,8.4421875 L0.009375,9.3046875 C1.156392,11.0384914 3.11860286,12.0556641 5.19655249,11.9936216 C7.27450212,11.931579 9.17253099,10.7991487 10.2140625,9 C11.8693128,6.12877157 10.8853594,2.45940168 8.015625,0.8015625 Z" id="Path"></path>
                    <path d="M1.55625,4.9546875 C1.35605421,5.31943085 1.30927834,5.74886069 1.42625129,6.14815181 C1.54322424,6.54744293 1.81432409,6.88375059 2.1796875,7.0828125 L7.2609375,9.8578125 C6.9140625,10.490625 7.1015625,11.2640625 7.7296875,11.60625 L9.103125,12.35625 C9.4063671,12.5233161 9.76362696,12.5628418 10.0960552,12.4661034 C10.4284835,12.369365 10.7087506,12.1443156 10.875,11.840625 L11.625,10.4671875 L1.55625,4.9546875 Z" id="Path"></path>
                </g>
            </g>
        </g>
    </g>
</svg>