<svg xmlns="http://www.w3.org/2000/svg" width="16" height="16" viewBox="0 0 16 16">
    <g fill="#FFF" fill-rule="nonzero">
        <circle cx="4.566" cy="2.492" r="2.492"/>
        <path d="M5.504 12.395v-.79c0-1.863 1.06-3.474 2.595-4.312A3.682 3.682 0 0 0 5.34 6.031H3.704A3.713 3.713 0 0 0 .001 9.734V13.031c0 .55.45 1 1 1H5.504v-1.636z"/>
        <circle cx="11.522" cy="4.461" r="2.492"/>
        <path d="M12.296 8H10.66a3.713 3.713 0 0 0-3.703 3.703V15c0 .55.45 1 1 1h7.041c.55 0 1-.45 1-1V11.703A3.713 3.713 0 0 0 12.296 8z"/>
    </g>
</svg>
