<?xml version="1.0" encoding="utf-8"?>
<!-- Generator: Adobe Illustrator 22.1.0, SVG Export Plug-In . SVG Version: 6.00 Build 0)  -->
<svg version="1.1" id="圖層_1" xmlns="http://www.w3.org/2000/svg" xmlns:xlink="http://www.w3.org/1999/xlink" x="0px" y="0px"
	 width="24px" height="58px" viewBox="0 0 24 58" style="enable-background:new 0 0 24 58;" xml:space="preserve">
<style type="text/css">
	.st0{fill:#666666;}
	.st1{fill:#C34235;}
</style>
<g>
	<path class="st0" d="M8.3,55.7l-6.1-6.1l-0.8,0.8c-1.7,1.7-1.7,4.5,0,6.2c0.8,0.8,1.9,1.2,3,1.2c1.2,0,2.3-0.5,3.1-1.3
		C7.4,56.5,8.3,55.7,8.3,55.7z M21,47.5l-3.3,1.3c-0.3,0.1-0.6,0.1-0.8-0.2L16.1,48c-0.3-0.3-0.3-0.8,0-1.1c0,0,0,0,0.1-0.1l1.7-1.3
		c1-0.8,2.4-0.5,3.1,0.2c0.5,0.5,0.7,1,0.6,1.3C21.6,47.3,21.2,47.5,21,47.5z M14.2,50.3l-5,2c0,0,0,0-0.1,0c-0.1,0-0.2-0.1-0.2-0.2
		C8.9,52.1,9,52,9,52l4.1-2.8c0.3-0.2,0.7-0.2,1,0.1l0.3,0.3C14.7,49.9,14.5,50.2,14.2,50.3z M7.5,50.6c0,0-0.1,0-0.1,0
		c-0.1,0-0.1,0-0.1-0.1c0,0-0.1-0.1-0.1-0.1c0,0,0-0.1,0-0.1l2.9-3.7c0.3-0.3,0.8-0.2,1.1,0.2c0.2,0.3,0.2,0.7,0,0.9
		C11.2,47.7,7.5,50.6,7.5,50.6z M5.8,48.8c0,0-0.1,0.1-0.2,0.1c-0.1,0-0.2-0.1-0.2-0.2c0,0,0-0.1,0-0.1l2-5c0.1-0.2,0.4-0.5,0.7-0.1
		l0.3,0.3c0.3,0.3,0.3,0.7,0.1,1C8.6,44.7,5.8,48.8,5.8,48.8z M9,40.1l1.4-3.3c0.1-0.2,0.3-0.6,0.5-0.6c0.3-0.1,0.8,0.1,1.3,0.7
		c0.7,0.7,1,2,0.2,3.1L11,41.6c-0.3,0.3-0.7,0.4-1.1,0.1c0,0-0.1,0-0.1-0.1L9.1,41C8.9,40.7,8.8,40.4,9,40.1z M14.2,41.3
		c0.7-0.6,1.7-0.6,2.3,0h0c0.6,0.7,0.6,1.7,0,2.3l-2.2,1.7c-0.3,0.2-0.7,0.2-1-0.1L13,44.8l-0.4-0.4c-0.3-0.3-0.3-0.7-0.1-1
		C12.6,43.5,14.2,41.3,14.2,41.3z M22.7,44C22,43.3,21,42.9,20,42.8c-0.4,0-0.6-0.3-0.7-0.7c-0.1-0.9-0.4-1.8-1.1-2.5l0,0
		c0,0,0,0,0,0c-0.7-0.6-1.5-1-2.5-1.1c-0.4,0-0.6-0.3-0.7-0.7c-0.1-1-0.5-2-1.2-2.7c-1-1-2.3-1.5-3.4-1.3c-0.7,0.1-1.7,0.6-2.3,2.1
		l-1.9,4.5c0,0,0,0,0,0L3.6,47c-0.1,0.3-0.1,0.6,0.2,0.8l6.2,6.2c0.2,0.2,0.5,0.3,0.8,0.2l6.6-2.7l0,0l4.5-1.8
		c1.5-0.6,1.9-1.5,2.1-2.2C24.2,46.4,23.7,45.1,22.7,44z"/>
	<path class="st0" d="M9.8,54.7L3.1,48c-0.1-0.1-0.1-0.4,0-0.5l0.3-0.3c0.1-0.1,0.4-0.1,0.5,0l6.7,6.7c0.1,0.1,0.1,0.4,0,0.5
		l-0.3,0.3C10.2,54.9,10,54.9,9.8,54.7 M7.4,56.3l-5.9-5.9c-0.1-0.1-0.1-0.4,0-0.5c0,0,0,0,0,0l0.3-0.3c0.1-0.1,0.4-0.1,0.5,0
		l5.9,5.9c0.1,0.1,0.1,0.4,0,0.5l-0.3,0.3C7.8,56.4,7.6,56.4,7.4,56.3C7.4,56.3,7.4,56.3,7.4,56.3"/>
</g>
<g>
	<path class="st1" d="M8.2,22l-6.1-6.1l-0.8,0.8c-1.7,1.7-1.7,4.5,0,6.2c0.8,0.8,1.9,1.2,3,1.2c1.2,0,2.3-0.5,3.1-1.3
		C7.4,22.8,8.2,22,8.2,22z M21,13.9l-3.3,1.3c-0.3,0.1-0.6,0.1-0.8-0.2l-0.7-0.7c-0.3-0.3-0.3-0.8,0-1.1c0,0,0,0,0.1-0.1l1.7-1.3
		c1-0.8,2.4-0.5,3.1,0.2c0.5,0.5,0.7,1,0.6,1.3C21.6,13.6,21.2,13.8,21,13.9z M14.2,16.6l-5,2c0,0,0,0-0.1,0c-0.1,0-0.2-0.1-0.2-0.2
		c0-0.1,0-0.1,0.1-0.2l4.1-2.8c0.3-0.2,0.7-0.2,1,0.1l0.3,0.3C14.7,16.2,14.5,16.5,14.2,16.6z M7.5,16.9c0,0-0.1,0-0.1,0
		c-0.1,0-0.1,0-0.1-0.1c0,0-0.1-0.1-0.1-0.1c0,0,0-0.1,0-0.1l2.9-3.7c0.3-0.3,0.8-0.2,1.1,0.2c0.2,0.3,0.2,0.7,0,0.9
		C11.2,14,7.5,16.9,7.5,16.9z M5.8,15.1c0,0-0.1,0.1-0.2,0.1c-0.1,0-0.2-0.1-0.2-0.2c0,0,0-0.1,0-0.1l2-5c0.1-0.2,0.4-0.5,0.7-0.1
		L8.5,10c0.3,0.3,0.3,0.7,0.1,1C8.6,11,5.8,15.1,5.8,15.1z M8.9,6.4l1.4-3.3c0.1-0.2,0.3-0.6,0.5-0.6c0.3-0.1,0.8,0.1,1.3,0.7
		c0.7,0.7,1,2,0.2,3.1L11,7.9c-0.3,0.3-0.7,0.4-1.1,0.1c0,0-0.1,0-0.1-0.1L9.1,7.3C8.9,7,8.8,6.7,8.9,6.4z M14.2,7.6
		c0.7-0.6,1.7-0.6,2.3,0h0c0.6,0.7,0.6,1.7,0,2.3l-2.2,1.7c-0.3,0.2-0.7,0.2-1-0.1L13,11.2l-0.4-0.4c-0.3-0.3-0.3-0.7-0.1-1
		C12.6,9.8,14.2,7.6,14.2,7.6z M22.7,10.4C22,9.7,21,9.2,20,9.1c-0.4,0-0.6-0.3-0.7-0.7c-0.1-0.9-0.4-1.8-1.1-2.5l0,0c0,0,0,0,0,0
		c-0.7-0.6-1.5-1-2.5-1.1c-0.4,0-0.6-0.3-0.7-0.7c-0.1-1-0.5-2-1.2-2.7c-1-1-2.3-1.5-3.4-1.3C9.7,0.3,8.7,0.8,8.1,2.2L6.3,6.7
		c0,0,0,0,0,0l-2.7,6.6c-0.1,0.3-0.1,0.6,0.2,0.8l6.2,6.3c0.2,0.2,0.5,0.3,0.8,0.2l6.6-2.7l0,0l4.5-1.8c1.5-0.6,1.9-1.5,2.1-2.2
		C24.2,12.7,23.7,11.4,22.7,10.4z"/>
	<path class="st1" d="M9.8,21.1l-6.7-6.7c-0.1-0.1-0.1-0.4,0-0.5l0.3-0.3c0.1-0.1,0.4-0.1,0.5,0l6.7,6.7c0.1,0.1,0.1,0.4,0,0.5
		l-0.3,0.3C10.2,21.2,9.9,21.2,9.8,21.1 M7.4,22.6l-5.9-5.9c-0.1-0.1-0.1-0.4,0-0.5c0,0,0,0,0,0l0.3-0.3c0.1-0.1,0.4-0.1,0.5,0
		l5.9,5.9c0.1,0.1,0.1,0.4,0,0.5l-0.3,0.3C7.8,22.7,7.6,22.7,7.4,22.6C7.4,22.6,7.4,22.6,7.4,22.6"/>
</g>
</svg>
