<svg xmlns="http://www.w3.org/2000/svg" width="16" height="16" viewBox="0 0 16 16">
    <g fill="#000" fill-rule="evenodd" opacity=".6">
        <path d="M15.782 1.25l-.97-.969a.961.961 0 0 0-1.359 0l-.929.928L14.7 3.383 15.782 2.3a.742.742 0 0 0 0-1.05M7.492 6.242L5.867 7.867l-.549 2.467a.247.247 0 0 0 .3.294l2.422-.587.59-.589 5.503-5.503-2.175-2.174-4.466 4.467z"/>
        <path d="M15.05 13.676c.058-.103.12-.201.166-.31a3.38 3.38 0 0 0 .284-1.38L15.48 9.5s-.01-1.587-.013-1.586l-.002-.185a.863.863 0 1 0-1.726.014l.003.45-.001 3.863c0 .23-.046.45-.131.65l-.001.002a1.674 1.674 0 0 1-1.506.984l-4.88.04H3.938c-.322 0-.63-.094-.896-.263a1.677 1.677 0 0 1-.739-1.375l-.043-5.28v-2.87c0-.691.422-1.286 1.022-1.541.026-.011.054-.017.08-.026.069-.025.138-.05.21-.065.105-.022.214-.035.327-.036l1.18-.01 3.117-.007a.862.862 0 0 0 0-1.726h-.171c.002-.01-3.597 0-3.597 0h-.49c-.014 0-.028.005-.043.005h-.01c-.04 0-.075.01-.114.012a3.355 3.355 0 0 0-.543.06A3.418 3.418 0 0 0 .5 3.982l.02 2.485v5.59c0 .838.32 1.65.899 2.284.012.015.155.17.183.192l.046.038c.167.152.348.284.538.399a3.353 3.353 0 0 0 1.819.526l3.583-.03h4.476a3.41 3.41 0 0 0 2.86-1.557c.049-.073.084-.156.127-.233"/>
    </g>
</svg>
