<svg xmlns="http://www.w3.org/2000/svg" width="16" height="17" viewBox="0 0 16 17">
    <g fill="none" fill-rule="evenodd">
        <path fill="#FEFEFE" d="M16 8.954a8 8 0 1 1-16 0 8 8 0 0 1 16 0"/>
        <path fill="#CF202C" d="M12.425 9.805c-1.111 0-2.224.003-3.335-.004-.16-.001-.209.032-.209.201.007 2.234.003 4.467.008 6.701.001.144-.04.18-.179.19-.485.034-.969.032-1.452-.003-.12-.009-.146-.044-.146-.158.003-2.25.001-4.498.005-6.748 0-.14-.028-.183-.177-.183-2.244.005-4.489.003-6.733.007-.14.001-.172-.038-.18-.172a9.899 9.899 0 0 1 0-1.453c.01-.124.047-.153.167-.152 1.75.003 3.499.002 5.248.002.494 0 .99-.006 1.485.004.148.003.192-.028.191-.186-.006-2.223-.004-4.445-.004-6.669 0-.217 0-.217.209-.235a8.515 8.515 0 0 1 1.42 0c.117.01.146.043.146.158-.004 1.576-.003 3.15-.003 4.726 0 .684.004 1.369-.004 2.054 0 .132.046.15.162.15 2.245-.003 4.488 0 6.733-.005.152 0 .19.04.2.188.03.48.032.957-.003 1.436-.01.124-.047.154-.168.153-1.127-.004-2.254-.002-3.381-.002"/>
        <path fill="#273375" d="M3.387 15.611l3.27-3.077v1.381l-.001 2.778c0 .185 0 .184-.19.15a8.21 8.21 0 0 1-3.04-1.21c-.02-.013-.044-.024-.04-.022l-.025 1.484M9.318 5.423c0-1.438.002-2.844-.003-4.25 0-.148.085-.116.171-.1a8.193 8.193 0 0 1 2.7.991c.14.082.294.148.404.271-.112.11-.22.224-.336.332l-2.8 2.636c-.036.034-.074.066-.136.12M11.212 7.206c.048-.048.07-.073.097-.097 1.026-.966 2.054-1.93 3.078-2.9.087-.081.129-.093.204.012a7.365 7.365 0 0 1 1.248 2.844c.015.072.042.144-.096.143-1.5-.002-2.997-.002-4.531-.002M4.733 10.723c-.01.053-.056.074-.087.104-1.018.96-2.04 1.917-3.055 2.88-.095.091-.135.093-.213-.017a7.335 7.335 0 0 1-1.242-2.83c-.016-.078-.04-.15.105-.15 1.484.005 2.967.003 4.45.003.014 0 .027.006.042.01M11.244 10.712h1.348c1.035 0 2.07.003 3.105-.002.144-.001.166.04.141.16a7.383 7.383 0 0 1-1.257 2.84c-.065.088-.1.09-.183.013-1.033-.978-2.07-1.953-3.107-2.929-.02-.02-.055-.03-.047-.082M6.617 5.418c-.236-.23-.47-.461-.708-.687a780.717 780.717 0 0 0-2.441-2.298c-.076-.071-.114-.108.003-.182a8.429 8.429 0 0 1 3.033-1.182c.093-.017.155-.024.155.104-.005 1.39-.003 2.78-.003 4.169 0 .018-.002.035-.004.053l-.035.023M4.772 7.206c-1.542 0-3.034 0-4.526.002-.111.001-.135-.032-.115-.128a7.366 7.366 0 0 1 1.277-2.893c.073-.101.11-.04.162.009l2.508 2.36c.221.21.444.416.694.65M9.327 12.485a353.665 353.665 0 0 0 3.173 2.994c.098.09.098.127-.018.2a8.354 8.354 0 0 1-3.005 1.17c-.095.017-.164.028-.163-.11.005-1.39.003-2.78.003-4.169 0-.014.003-.028.01-.085"/>
        <path fill="#CF202C" d="M6.646 7.206l-1.157.001a.185.185 0 0 1-.138-.055c-1.178-1.11-2.357-2.22-3.538-3.326-.063-.06-.046-.094.002-.146.139-.142.279-.283.409-.433.081-.094.131-.097.227-.006.612.586 1.232 1.165 1.85 1.746l2.23 2.1c.033.03.062.063.115.12M9.357 10.713c.37 0 .738.002 1.104-.002.076 0 .128.023.18.072 1.166 1.1 2.332 2.198 3.502 3.295.064.061.08.1.01.167-.142.139-.277.284-.409.432-.075.086-.124.093-.216.006-.87-.825-1.745-1.646-2.617-2.468-.492-.463-.982-.924-1.471-1.387-.034-.03-.093-.05-.083-.115M9.318 7.175c0-.36.002-.706-.002-1.053a.2.2 0 0 1 .072-.156c1.172-1.1 2.344-2.203 3.513-3.307.063-.058.103-.062.166-.007.157.139.317.275.481.406.082.064.075.105.001.172-.442.41-.878.825-1.317 1.238L9.464 7.07c-.039.037-.067.087-.146.105M6.655 10.744l.001 1.066c0 .061-.027.102-.069.141-1.172 1.101-2.343 2.202-3.513 3.305-.06.056-.105.066-.169.01a14.868 14.868 0 0 0-.483-.406c-.082-.064-.069-.104.003-.172.634-.59 1.264-1.187 1.896-1.781l2.186-2.056c.04-.037.07-.087.148-.107"/>
    </g>
</svg>
