<?xml version="1.0" encoding="utf-8"?>
<!-- Generator: Adobe Illustrator 22.1.0, SVG Export Plug-In . SVG Version: 6.00 Build 0)  -->
<svg version="1.1" id="圖層_1" xmlns="http://www.w3.org/2000/svg" xmlns:xlink="http://www.w3.org/1999/xlink" x="0px" y="0px"
	 width="27px" height="14px" viewBox="0 0 27 14" style="enable-background:new 0 0 27 14;" xml:space="preserve">
<style type="text/css">
	.st0{opacity:0.87;fill:none;stroke:#38BB8F;enable-background:new    ;}
	.st1{enable-background:new    ;}
	.st2{fill:#38BB8F;}
</style>
<path class="st0" d="M7,0.5h13c3.6,0,6.5,2.9,6.5,6.5l0,0c0,3.6-2.9,6.5-6.5,6.5H7c-3.6,0-6.5-2.9-6.5-6.5l0,0
	C0.5,3.4,3.4,0.5,7,0.5z"/>
<g>
	<path d="M298.7,416.5c0-0.3-0.5-0.3-0.9-0.3v-0.4c0.4,0,0.9-0.2,1.5-0.5v1l0.4-0.4c0.4-0.4,1-0.6,1.7-0.6c1.2,0,1.5,0.9,1.5,1.6
		v3.2c0,0.3,0.2,0.5,0.4,0.5h0.5v0.4h-2.4v-0.4h0.4c0.3,0,0.5-0.2,0.5-0.5v-3.2c0-0.6-0.3-1.2-1.2-1.2c-0.7,0-1.6,0.5-1.8,1.3v3.2
		c0,0.3,0.2,0.4,0.4,0.4h0.5v0.4h-2.3v-0.4h0.4c0.3,0,0.5,0,0.5-0.4V416.5z"/>
	<path d="M305.2,417.9v0.3c0,1.3,0.9,2.6,2.1,2.6c0.9,0,1.4-0.6,2-1.4l0.3,0.2c-0.9,1.2-1.5,1.5-2.4,1.5c-1.8,0-2.6-1.6-2.6-3
		c0-1.9,1.2-3.1,2.5-3.1c1.3,0,2.4,1.1,2.4,2.8H305.2z M308.8,417.6c0-0.7-0.2-1.2-0.5-1.6c-0.3-0.3-0.7-0.5-1.2-0.5
		c-0.9,0-1.7,0.9-1.9,2.1H308.8z"/>
	<path d="M316.1,421h-0.2l-1.6-4.3l-1.3,4.2h-0.2l-1.9-4.9c-0.1-0.3-0.4-0.3-0.8-0.3v-0.4h2.1v0.4c-0.4,0-0.7,0-0.7,0.2
		c0,0,0,0,0,0.1l1.5,3.8l1.1-3.7v0h0c0-0.1,0-0.1,0-0.2c0-0.2-0.1-0.2-0.3-0.2h-0.5v-0.4h2.1v0.4c-0.5,0-0.7,0-0.7,0.3
		c0,0,0,0.1,0,0.2l1.4,3.7l1.3-3.8c0,0,0-0.1,0-0.1c0-0.2-0.1-0.3-0.3-0.3h-0.5v-0.4h2v0.4c-0.6,0-0.8,0-0.9,0.4L316.1,421z"/>
	<path d="M320.9,420.3c0,0.3-0.3,0.6-0.6,0.6c-0.4,0-0.5-0.3-0.5-0.6c0-0.4,0.3-0.5,0.5-0.5C320.7,419.8,320.9,420,320.9,420.3z"/>
	<path d="M322.5,419.2c0.3,0.6,0.6,1,1,1.2c0.4,0.3,0.8,0.4,1.2,0.4c0.7,0,1.3-0.4,1.3-1.1c0-0.8-0.6-1.1-1.4-1.4
		c-0.9-0.2-1.6-0.5-1.8-0.8c-0.2-0.2-0.3-0.6-0.3-1c0-0.6,0.6-1.4,1.7-1.4c0.5,0,0.9,0.1,1.3,0.3l0.3-0.3h0.1l0.6,1.6h-0.2
		c-0.5-0.7-1-1.3-2-1.3c-0.8,0-1.2,0.5-1.2,1.1c0,0.6,0.4,0.9,1.6,1.1c1.1,0.3,1.9,0.6,1.9,1.9c0,0.7-0.6,1.6-1.8,1.6
		c-0.5,0-1-0.2-1.5-0.5L323,421h-0.2l-0.5-1.7L322.5,419.2z"/>
	<path d="M330.5,421h-0.2l-1.8-4.8c-0.1-0.2-0.2-0.5-0.7-0.5h-0.4v-0.4h2.4v0.4c-0.5,0-0.8,0-0.8,0.3c0,0.1,0,0.1,0.1,0.2l1.4,3.7
		l1.5-3.7c0-0.1,0-0.1,0-0.2c0-0.2-0.3-0.3-0.5-0.3h-0.4v-0.4h2.2v0.4c-0.6,0-0.8,0-1,0.5L330.5,421z"/>
	<path d="M336.7,419.8c1.5,0.3,2.5,0.6,2.5,1.2c0,0.4-0.5,1.3-2.9,1.3c-1.4,0-2.7-0.2-2.7-1c0-0.2,0.1-0.4,0.3-0.6
		c0.2-0.2,0.6-0.4,1.2-0.6c-0.8-0.2-0.9-0.3-0.9-0.6c0-0.5,0.6-0.7,0.9-0.8l-0.3-0.2c-0.5-0.4-0.7-0.8-0.7-1.3
		c0-1.3,1.2-1.8,2.2-1.8c0.6,0,1.1,0.2,1.5,0.5c0.3-0.3,0.8-0.6,1.2-0.6c0.4,0,0.4,0.3,0.4,0.3c0,0.2-0.1,0.3-0.4,0.3
		c-0.1,0-0.4-0.1-0.5-0.1h-0.1c-0.1,0-0.3,0.1-0.5,0.3c0.3,0.3,0.4,0.7,0.4,1.1c0,1-0.9,1.7-2.2,1.7c-0.5,0-1.4,0-1.4,0.4
		c0,0.1,0,0.1,0.1,0.2c0.1,0.1,0.5,0.2,1.3,0.3v0L336.7,419.8z M335.7,420.1c-0.6,0.2-1.5,0.5-1.5,1.1c0,0.6,1.7,0.6,2.1,0.6
		c1.7,0,2.3-0.5,2.3-0.8c0-0.3-0.8-0.5-1.8-0.7L335.7,420.1z M334.7,417c0,0.9,0.9,1.3,1.5,1.3c0.9,0,1.5-0.5,1.5-1.3
		c0-1-0.8-1.4-1.5-1.4C335.3,415.6,334.7,416.2,334.7,417z"/>
</g>
<g class="st1">
	<path class="st2" d="M4.6,10V4.3h0.8l3,4.5V4.3h0.7V10H8.3l-3-4.5V10H4.6z"/>
	<path class="st2" d="M10.4,10V4.3h4.1v0.7h-3.4v1.8h3.2v0.7h-3.2v1.9h3.5V10H10.4z"/>
	<path class="st2" d="M16.7,10l-1.5-5.7H16L16.9,8C17,8.4,17,8.8,17.1,9.2c0.1-0.6,0.2-1,0.3-1.1l1.1-3.9h0.9l0.8,2.9
		c0.2,0.7,0.4,1.4,0.4,2c0.1-0.4,0.2-0.8,0.3-1.2l0.9-3.7h0.8L21,10h-0.7l-1.2-4.4C19,5.3,18.9,5,18.9,5c-0.1,0.3-0.1,0.5-0.2,0.7
		L17.5,10H16.7z"/>
</g>
</svg>
