<?xml version="1.0" encoding="utf-8"?>
<!-- Generator: Adobe Illustrator 22.1.0, SVG Export Plug-In . SVG Version: 6.00 Build 0)  -->
<svg version="1.1" id="圖層_1" xmlns="http://www.w3.org/2000/svg" xmlns:xlink="http://www.w3.org/1999/xlink" x="0px" y="0px"
	 width="11px" height="7px" viewBox="0 0 11 7" style="enable-background:new 0 0 11 7;" xml:space="preserve">
<style type="text/css">
	.st0{filter:url(#Adobe_OpacityMaskFilter);}
	.st1{fill:#FFFFFF;}
	.st2{mask:url(#b_1_);fill:#010202;}
</style>
<g>
	<defs>
		<filter id="Adobe_OpacityMaskFilter" filterUnits="userSpaceOnUse" x="0" y="0" width="11" height="7">
			<feColorMatrix  type="matrix" values="1 0 0 0 0  0 1 0 0 0  0 0 1 0 0  0 0 0 1 0"/>
		</filter>
	</defs>
	<mask maskUnits="userSpaceOnUse" x="0" y="0" width="11" height="7" id="b_1_">
		<g class="st0">
			<path id="a_1_" class="st1" d="M0,3.5V7h11V0H0V3.5z"/>
		</g>
	</mask>
	<path class="st2" d="M11,0.4C11,0.2,10.8,0,10.6,0l0,0l0,0H0.4C0.2,0,0,0.2,0,0.4c0,0.1,0,0.2,0.1,0.2l5.1,6.2h0
		C5.3,6.9,5.4,7,5.5,7c0.1,0,0.2-0.1,0.3-0.2h0l5.1-6.2C11,0.6,11,0.5,11,0.4"/>
</g>
</svg>
