<?xml version="1.0" encoding="utf-8"?>
<!-- Generator: Adobe Illustrator 22.1.0, SVG Export Plug-In . SVG Version: 6.00 Build 0)  -->
<svg version="1.1" id="圖層_1" xmlns="http://www.w3.org/2000/svg" xmlns:xlink="http://www.w3.org/1999/xlink" x="0px" y="0px"
	 width="24px" height="58px" viewBox="0 0 24 58" style="enable-background:new 0 0 24 58;" xml:space="preserve">
<style type="text/css">
	.st0{fill:#666666;}
	.st1{fill:#C34235;}
</style>
<g>
	<path class="st0" d="M6.7,46.9c0,0.1,0.1,0.2,0.2,0.1c1.2-0.2,2.6-0.6,3.9-1.4c0.1,0,0.1-0.1,0.1-0.1c0-4.3,1.9-7.1,3.6-8.9
		c0.5-0.5,1-1,1.6-1.4c0.1-0.1,0.1-0.3,0-0.3c-1.2-0.4-2.4-0.7-3.6-0.7c-0.1,0-0.1,0-0.1,0.1c0,0-0.1,0.1-0.1,0.1
		C6,38.3,6.3,44.6,6.7,46.9 M18.4,36.1c-0.1,0-0.1,0-0.2,0c-0.7,0.4-2.3,1.5-3.5,3.3c-0.1,0.1,0,0.2,0,0.2c0,0,0,0,0,0
		c0.9,0.4,2.4,1.1,3.8,2.3c1.7,1.4,3.7,3.7,4.5,7.1c0,0.2,0.3,0.2,0.3,0C24.7,44.2,22.7,39,18.4,36.1 M15.8,51.8
		c-1.1,0.8-2.3,1.5-3.5,2c-1.6,0.6-3.3,1-5,1c-1.1,0-2.3-0.1-3.6-0.5c-0.2,0-0.3,0.2-0.2,0.3c2.2,2.2,5.3,3.5,8.4,3.5
		c1.8,0,3.5-0.4,5-1.1c0.1,0,0.1-0.1,0.1-0.2c0-2-0.3-3.6-0.9-4.9C16,51.7,15.9,51.7,15.8,51.8C15.8,51.7,15.8,51.7,15.8,51.8"/>
	<path class="st0" d="M4.8,46.8c-0.2-1.4-0.2-2.8,0-4.1c0.3-2.2,1.1-5,3.5-7.6c0.1-0.1,0-0.3-0.2-0.3c-4.4,1.5-7.7,5.6-8,10.5
		c0,0.1,0,0.1,0.1,0.2c0.5,0.3,2.2,1.3,4.5,1.6C4.7,47,4.8,47,4.8,46.8C4.8,46.9,4.8,46.9,4.8,46.8 M13.8,41.4c-0.1,0-0.2,0-0.2,0.1
		c0,0,0,0,0,0c-0.5,1.2-0.7,2.5-0.7,3.9c0,0.1,0,0.1,0.1,0.2c1.6,0.9,2.9,2.1,3.9,3.7l0.5,0.8c0.7,1.4,1.4,3.1,1.5,5.4
		c0,0.1,0.2,0.2,0.3,0.1c0.9-0.7,1.7-1.5,2.3-2.4c0,0,0,0,0,0l0,0c0-0.1,0-0.1,0-0.2l0-0.1C21.5,45.3,15.9,42.3,13.8,41.4 M14.9,50
		c0.1-0.1,0.1-0.2,0-0.2c-0.8-1-1.7-1.9-2.9-2.6c-0.1,0-0.1,0-0.2,0c-2,1.2-3.9,1.7-5.7,1.7c-0.1,0-0.1,0-0.2,0c-0.1,0-0.1,0-0.2,0
		c-2.3,0-4.2-0.7-5.5-1.2c-0.1,0-0.2,0-0.2,0.1c0,0,0,0.1,0,0.1c0.2,1,0.5,2,0.9,3c0.1,0.1,0.2,0.2,0.2,0.2c0.2,0.1,0.5,0.3,0.6,0.3
		C8,54.6,13,51.5,14.9,50"/>
</g>
<g>
	<path class="st1" d="M6.7,12.7c0,0.1,0.1,0.2,0.2,0.1c1.2-0.2,2.6-0.6,3.9-1.4c0.1,0,0.1-0.1,0.1-0.1c0-4.3,1.9-7.1,3.6-8.9
		c0.5-0.5,1-1,1.6-1.4c0.1-0.1,0.1-0.3,0-0.3c-1.2-0.4-2.4-0.7-3.6-0.7c-0.1,0-0.1,0-0.1,0.1c0,0-0.1,0.1-0.1,0.1
		C6,4.1,6.3,10.4,6.7,12.7 M18.4,1.9c-0.1,0-0.1,0-0.2,0c-0.7,0.4-2.3,1.5-3.5,3.3c-0.1,0.1,0,0.2,0,0.2c0,0,0,0,0,0
		c0.9,0.4,2.4,1.1,3.8,2.3c1.7,1.4,3.7,3.7,4.5,7.1c0,0.2,0.3,0.2,0.3,0C24.7,10,22.7,4.7,18.4,1.9 M15.8,17.5
		c-1.1,0.8-2.3,1.5-3.5,2c-1.6,0.6-3.3,1-5,1c-1.1,0-2.3-0.1-3.6-0.5c-0.2,0-0.3,0.2-0.2,0.3c2.2,2.2,5.3,3.5,8.4,3.5
		c1.8,0,3.5-0.4,5-1.1c0.1,0,0.1-0.1,0.1-0.2c0-2-0.3-3.6-0.9-4.9C16,17.5,15.9,17.5,15.8,17.5C15.8,17.5,15.8,17.5,15.8,17.5"/>
	<path class="st1" d="M4.8,12.6c-0.2-1.4-0.2-2.8,0-4.1c0.3-2.2,1.1-5,3.5-7.6c0.1-0.1,0-0.3-0.2-0.3C3.6,2.1,0.3,6.2,0,11.1
		c0,0.1,0,0.1,0.1,0.2c0.5,0.3,2.2,1.3,4.5,1.6C4.7,12.8,4.8,12.8,4.8,12.6C4.8,12.7,4.8,12.6,4.8,12.6 M13.8,7.2
		c-0.1,0-0.2,0-0.2,0.1c0,0,0,0,0,0c-0.5,1.2-0.7,2.5-0.7,3.9c0,0.1,0,0.1,0.1,0.2c1.6,0.9,2.9,2.1,3.9,3.7l0.5,0.8
		c0.7,1.4,1.4,3.1,1.5,5.4c0,0.1,0.2,0.2,0.3,0.1c0.9-0.7,1.7-1.5,2.3-2.4c0,0,0,0,0,0l0,0c0-0.1,0-0.1,0-0.2l0-0.1
		C21.5,11.1,15.9,8.1,13.8,7.2 M14.9,15.8c0.1-0.1,0.1-0.2,0-0.2c-0.8-1-1.7-1.9-2.9-2.6c-0.1,0-0.1,0-0.2,0c-2,1.2-3.9,1.7-5.7,1.7
		c-0.1,0-0.1,0-0.2,0c-0.1,0-0.1,0-0.2,0c-2.3,0-4.2-0.7-5.5-1.2c-0.1,0-0.2,0-0.2,0.1c0,0,0,0.1,0,0.1c0.2,1,0.5,2,0.9,3
		c0.1,0.1,0.2,0.2,0.2,0.2c0.2,0.1,0.5,0.3,0.6,0.3C8,20.4,13,17.3,14.9,15.8"/>
</g>
</svg>
