<svg width="56" height="56" viewBox="0 0 56 56" fill="none" xmlns="http://www.w3.org/2000/svg">
<path d="M29.1984 27.9819L33.8646 23.3174C33.9072 23.2769 33.9411 23.2282 33.9643 23.1743C33.9875 23.1203 33.9994 23.0622 33.9994 23.0035C33.9994 22.9448 33.9875 22.8867 33.9643 22.8327C33.9411 22.7787 33.9072 22.73 33.8646 22.6895L33.3104 22.1289C33.2251 22.0462 33.1109 22 32.992 22C32.8732 22 32.759 22.0462 32.6737 22.1289L28.0075 26.7934L23.3413 22.1289C23.256 22.0462 23.1418 22 23.0229 22C22.9041 22 22.7899 22.0462 22.7046 22.1289L22.1504 22.6895C22.1076 22.7307 22.0735 22.78 22.0502 22.8346C22.027 22.8892 22.015 22.9479 22.015 23.0072C22.015 23.0665 22.027 23.1252 22.0502 23.1798C22.0735 23.2344 22.1076 23.2838 22.1504 23.3249L26.8166 27.9819L22.1354 32.639C22.0926 32.6801 22.0585 32.7294 22.0353 32.784C22.012 32.8386 22 32.8973 22 32.9566C22 33.016 22.012 33.0747 22.0353 33.1293C22.0585 33.1839 22.0926 33.2332 22.1354 33.2743L22.6896 33.8275C22.7749 33.9102 22.8891 33.9564 23.008 33.9564C23.1268 33.9564 23.241 33.9102 23.3263 33.8275L28.0075 29.2079L32.6737 33.8649C32.7149 33.9076 32.7644 33.9416 32.8191 33.9648C32.8738 33.988 32.9326 34 32.992 34C33.0515 34 33.1103 33.988 33.165 33.9648C33.2197 33.9416 33.2691 33.9076 33.3104 33.8649L33.8646 33.3117C33.9074 33.2706 33.9415 33.2212 33.9647 33.1666C33.988 33.1121 34 33.0533 34 32.994C34 32.9347 33.988 32.876 33.9647 32.8214C33.9415 32.7668 33.9074 32.7175 33.8646 32.6763L29.1984 27.9819Z" fill="white"/>
</svg>
