<?xml version="1.0" encoding="utf-8"?>
<!-- Generator: Adobe Illustrator 22.1.0, SVG Export Plug-In . SVG Version: 6.00 Build 0)  -->
<svg version="1.1" id="圖層_1" xmlns="http://www.w3.org/2000/svg" xmlns:xlink="http://www.w3.org/1999/xlink" x="0px" y="0px"
	 width="16px" height="16px" viewBox="0 0 16 16" style="enable-background:new 0 0 16 16;" xml:space="preserve">
<style type="text/css">
	.st0{clip-path:url(#SVGID_2_);}
</style>
<g>
	<defs>
		<rect id="SVGID_1_" y="0" width="16" height="16"/>
	</defs>
	<clipPath id="SVGID_2_">
		<use xlink:href="#SVGID_1_"  style="overflow:visible;"/>
	</clipPath>
	<g class="st0">
		<path d="M15.6,6.8l-1,0.6c-0.6,0.3-0.6,1.1,0,1.4l1,0.6c0.4,0.2,0.5,0.7,0.3,1.1L14,13.7c-0.2,0.3-0.4,0.4-0.7,0.4
			c-0.1,0-0.3,0-0.4-0.1l-1-0.6c-0.1-0.1-0.3-0.1-0.4-0.1c-0.4,0-0.8,0.3-0.8,0.8v1.1c0,0.5-0.4,0.8-0.8,0.8H6.2
			c-0.5,0-0.8-0.4-0.8-0.8v-1.1c0-0.5-0.4-0.8-0.8-0.8c-0.1,0-0.3,0-0.4,0.1l-1,0.6C3,14,2.8,14.1,2.7,14.1c-0.3,0-0.6-0.1-0.7-0.4
			l-1.8-3.2C-0.1,10.1,0,9.6,0.4,9.3l1-0.6c0.6-0.3,0.6-1.1,0-1.4l-1-0.6C0,6.5-0.1,6,0.1,5.6L2,2.4C2.1,2.2,2.4,2,2.7,2
			C2.8,2,3,2,3.1,2.1l1,0.6c0.1,0.1,0.3,0.1,0.4,0.1c0.4,0,0.8-0.3,0.8-0.8V0.8C5.3,0.4,5.7,0,6.2,0h3.7c0.5,0,0.8,0.4,0.8,0.8V2
			c0,0.5,0.4,0.8,0.8,0.8c0.1,0,0.3,0,0.4-0.1l1-0.6C13,2,13.2,2,13.3,2c0.3,0,0.6,0.1,0.7,0.4l1.8,3.2C16.1,6,16,6.5,15.6,6.8z
			 M5.5,8c0,1.4,1.1,2.5,2.5,2.5c1.4,0,2.5-1.1,2.5-2.5c0-1.4-1.1-2.5-2.5-2.5S5.5,6.7,5.5,8z"/>
	</g>
</g>
</svg>
