<?xml version="1.0" encoding="utf-8"?>
<!-- Generator: Adobe Illustrator 21.0.2, SVG Export Plug-In . SVG Version: 6.00 Build 0)  -->
<svg version="1.1" id="Layer_1" xmlns="http://www.w3.org/2000/svg" xmlns:xlink="http://www.w3.org/1999/xlink" x="0px" y="0px"
	 viewBox="0 0 16 16" style="enable-background:new 0 0 16 16;" xml:space="preserve">
<style type="text/css">
	.st0{fill:#FFFFFF;}
	.st1{fill:#2A81BA;}
	.st2{fill-rule:evenodd;clip-rule:evenodd;fill:#2A81BA;}
</style>
<circle class="st0" cx="4.191" cy="9.627" r="0.215"/>
<path class="st1" d="M5.017,9.695L5.017,9.693H0.225C0.101,9.693,0,9.794,0,9.918v4.831c0,0.124,0.101,0.225,0.225,0.225
	c0.063,0,0.119-0.026,0.16-0.068l0,0l4.789-4.823c0,0,0,0,0,0l0,0l0,0c0.041-0.041,0.067-0.098,0.067-0.161
	C5.242,9.797,5.141,9.697,5.017,9.695z"/>
<path class="st2" d="M15.716,9.263h-1.341c-0.314,0-0.376,0.301-0.376,0.301c-0.001,0-0.002,0-0.003,0
	c-0.758,2.601-3.14,4.51-5.985,4.51c-1.991,0-3.764-0.931-4.909-2.381L2.72,12.078L2.649,12.15l-0.941,0.884
	C3.208,14.827,5.492,16,8.011,16c3.927,0,7.198-2.773,7.987-6.467C16.008,9.441,15.991,9.263,15.716,9.263z"/>
<circle class="st0" cx="11.809" cy="6.373" r="0.215"/>
<path class="st1" d="M10.983,6.305l0.001,0.002h4.792C15.899,6.307,16,6.206,16,6.082V1.25c0-0.124-0.101-0.225-0.225-0.225
	c-0.063,0-0.119,0.026-0.16,0.068l0,0l-4.789,4.823c0,0,0,0,0,0l0,0l0,0c-0.041,0.041-0.067,0.098-0.067,0.161
	C10.758,6.203,10.859,6.303,10.983,6.305z"/>
<path class="st2" d="M0.284,6.737h1.341c0.314,0,0.376-0.301,0.376-0.301c0.001,0,0.002,0,0.003,0c0.758-2.601,3.14-4.51,5.985-4.51
	c1.991,0,3.764,0.931,4.909,2.381l0.382-0.385l0.071-0.072l0.941-0.884C12.792,1.173,10.508,0,7.989,0
	C4.062,0,0.791,2.773,0.002,6.467C-0.008,6.559,0.009,6.737,0.284,6.737z"/>
</svg>
