<?xml version="1.0" encoding="UTF-8"?>
<svg width="32px" height="32px" viewBox="0 0 32 32" version="1.1" xmlns="http://www.w3.org/2000/svg" xmlns:xlink="http://www.w3.org/1999/xlink">
    <!-- Generator: Sketch 55.1 (78136) - https://sketchapp.com -->
    <title>Illustrations/contact_phone</title>
    <desc>Created with Sketch.</desc>
    <g id="Icons" stroke="none" stroke-width="1" fill="none" fill-rule="evenodd">
        <g id="Illustrations/contact_phone">
            <rect fill="#FFFFFF" x="0" y="0" width="32" height="32"></rect>
            <g id="contact_phone">
                <circle id="Oval" fill="#E7DFD9" cx="16" cy="16" r="16"></circle>
                <g id="phone-receiver" transform="translate(8.000000, 8.000000)" fill-rule="nonzero">
                    <path d="M16,4.03215625 C16,1.8053125 13.7267813,0 10.9229063,0 C8.1188125,0 5.8458125,1.8053125 5.8458125,4.03215625 C5.8458125,6.021625 7.6600625,7.67446875 10.0464063,8.00428125 L10.0391875,8.00428125 C10.1644063,8.77346875 9.933375,9.5901875 9.34571875,10.1834375 C10.606625,10.1834375 11.6475,9.23378125 11.8055938,8.00440625 L11.798375,8.00440625 C14.1850313,7.674875 16,6.02190625 16,4.03215625 Z" id="Path" fill="#FFFFFF"></path>
                    <g id="Group" transform="translate(8.750000, 3.656250)" fill="#A59A93">
                        <path d="M0.52759375,1.02691667 C0.251451375,1.02691667 0.02759375,0.803059042 0.02759375,0.526916667 C0.02759375,0.250774292 0.251451375,0.0269166667 0.52759375,0.0269166667 C0.803736125,0.0269166667 1.02759375,0.250774292 1.02759375,0.526916667 C1.02759375,0.803059042 0.803736125,1.02691667 0.52759375,1.02691667 Z M4.10696875,1.02691667 C3.83082638,1.02691667 3.60696875,0.803059042 3.60696875,0.526916667 C3.60696875,0.250774292 3.83082638,0.0269166667 4.10696875,0.0269166667 C4.38311112,0.0269166667 4.60696875,0.250774292 4.60696875,0.526916667 C4.60696875,0.803059042 4.38311112,1.02691667 4.10696875,1.02691667 Z M2.3174375,1.02691667 C2.04129513,1.02691667 1.8174375,0.803059042 1.8174375,0.526916667 C1.8174375,0.250774292 2.04129513,0.0269166667 2.3174375,0.0269166667 C2.59357987,0.0269166667 2.8174375,0.250774292 2.8174375,0.526916667 C2.8174375,0.803059042 2.59357987,1.02691667 2.3174375,1.02691667 Z" id="Combined-Shape"></path>
                    </g>
                    <path d="M10.9374375,12.8673125 C10.169,12.0989063 9.346,11.4520625 9.346,11.4520625 L8.146875,12.6511875 L3.3488125,7.853125 L4.5479375,6.65396875 C4.5479375,6.65396875 3.901125,5.83096875 3.1326875,5.06253125 C2.36425,4.294125 1.54125,3.64728125 1.54125,3.64728125 C1.54125,3.64728125 0.10446875,4.9690625 0.0078125,6.0174375 C-0.12146875,7.4206875 1.36390625,9.97196875 3.69596875,12.3040625 C6.02803125,14.6360938 8.5793125,16.1214688 9.9825625,15.9922188 C11.0309063,15.8955313 12.3527188,14.45875 12.3527188,14.45875 C12.3527188,14.45875 11.705875,13.6356875 10.9374375,12.8673125 Z" id="Path" fill="#A59A93"></path>
                </g>
            </g>
        </g>
    </g>
</svg>