<svg xmlns="http://www.w3.org/2000/svg" width="16" height="16" viewBox="0 0 16 16">
    <path fill-opacity=".64" fill-rule="evenodd" d="M16 14.292v.332c0 .712-.548 1.303-1.244 1.37l-.132.006H1.377c-.713 0-1.304-.549-1.37-1.244L0 14.624v-.332h7.6v.617h.8v-.617H16zM7.6 8.328v5.324H3.932V8.328H7.6zm4.468 0v5.324H8.4V8.328h3.668zm3.931-5.98v11.304h-3.291V2.349h3.291zm-12.708 0v11.304H0V2.349h3.291zm4.309 0v5.339H3.932V2.35L7.6 2.348zm4.468 0v5.34L8.4 7.686V2.348h3.668zM14.624 0c.713 0 1.303.548 1.37 1.244l.006.132v.332H8.4v-.602h-.8v.602H0v-.332C0 .664.548.073 1.244.006L1.377 0h13.247z"/>
</svg>
