<?xml version="1.0" encoding="UTF-8"?>
<svg width="16px" height="16px" viewBox="0 0 16 16" version="1.1" xmlns="http://www.w3.org/2000/svg" xmlns:xlink="http://www.w3.org/1999/xlink">
    <!-- Generator: Sketch 55.1 (78136) - https://sketchapp.com -->
    <title>Content Center/match_tracker_badminton_normal</title>
    <desc>Created with Sketch.</desc>
    <g id="Icons" stroke="none" stroke-width="1" fill="none" fill-rule="evenodd">
        <g id="Content-Center/match_tracker_badminton_normal">
            <g id="match_tracker_badminton_normal">
                <path d="M1.6919619,0.380952381 L14.3091048,0.380952381 C15.0298667,0.380952381 15.618819,0.970666667 15.618819,1.69142857 L15.618819,14.3085714 C15.618819,15.0293333 15.0298667,15.6190476 14.3091048,15.6190476 L1.6919619,15.6190476 C0.9712,15.6190476 0.38072381,15.0293333 0.38072381,14.3085714 L0.38072381,1.69142857 C0.38072381,0.970666667 0.9712,0.380952381 1.6919619,0.380952381" id="Fill-1" fill="#409D8B"></path>
                <path d="M1.6919619,0.761904762 C1.1792,0.761904762 0.76167619,1.17866667 0.76167619,1.69142857 L0.76167619,14.3085714 C0.76167619,14.8213333 1.1792,15.2380952 1.6919619,15.2380952 L14.3091048,15.2380952 C14.8211048,15.2380952 15.2378667,14.8213333 15.2378667,14.3085714 L15.2378667,1.69142857 C15.2378667,1.17866667 14.8211048,0.761904762 14.3091048,0.761904762 L1.6919619,0.761904762 Z M14.3091048,16 L1.6919619,16 C0.758628571,16 -0.000228571429,15.2411429 -0.000228571429,14.3085714 L-0.000228571429,1.69142857 C-0.000228571429,0.758857143 0.758628571,0 1.6919619,0 L14.3091048,0 C15.2409143,0 15.9997714,0.758857143 15.9997714,1.69142857 L15.9997714,14.3085714 C15.9997714,15.2411429 15.2409143,16 14.3091048,16 L14.3091048,16 Z" id="Fill-3" fill="#11773C"></path>
                <polygon id="Fill-6" fill="#D6EDEB" points="5.18171429 13.9954286 5.75314286 13.9954286 5.75314286 1.86438095 5.18171429 1.86438095"></polygon>
                <polygon id="Fill-8" fill="#D6EDEB" points="10.247619 13.9253333 10.8190476 13.9253333 10.8190476 2.07695238 10.247619 2.07695238"></polygon>
                <polygon id="Fill-9" fill="#D6EDEB" points="2.04647619 8.21561905 5.50019048 8.21561905 5.50019048 7.64419048 2.04647619 7.64419048"></polygon>
                <polygon id="Fill-10" fill="#D6EDEB" points="10.5005714 8.25066667 13.9535238 8.25066667 13.9535238 7.6792381 10.5005714 7.6792381"></polygon>
                <path d="M13.6421333,2.33257143 L2.32708571,2.36304762 L2.35832381,13.6773333 L13.6421333,13.6468571 L13.6421333,2.33257143 Z M13.6726095,14.2182857 L2.32708571,14.2182857 C2.02994286,14.2182857 1.78689524,13.976 1.78689524,13.6773333 L1.78689524,2.33257143 C1.78689524,2.03390476 2.02994286,1.79161905 2.32708571,1.79161905 L13.6726095,1.79161905 C13.9712762,1.79161905 14.2135619,2.03390476 14.2135619,2.33257143 L14.2135619,13.6773333 C14.2135619,13.976 13.9712762,14.2182857 13.6726095,14.2182857 L13.6726095,14.2182857 Z" id="Fill-11" fill="#D6EDEB"></path>
                <polygon id="Fill-12" fill="#1B5B4F" points="7.61904762 15.6190476 8.38095238 15.6190476 8.38095238 0.380952381 7.61904762 0.380952381"></polygon>
                <path d="M1.6919619,0.761904762 C1.1792,0.761904762 0.76167619,1.17866667 0.76167619,1.69142857 L0.76167619,14.3085714 C0.76167619,14.8213333 1.1792,15.2380952 1.6919619,15.2380952 L14.3091048,15.2380952 C14.8211048,15.2380952 15.2378667,14.8213333 15.2378667,14.3085714 L15.2378667,1.69142857 C15.2378667,1.17866667 14.8211048,0.761904762 14.3091048,0.761904762 L1.6919619,0.761904762 Z M14.3091048,16 L1.6919619,16 C0.758628571,16 -0.000228571429,15.2411429 -0.000228571429,14.3085714 L-0.000228571429,1.69142857 C-0.000228571429,0.758857143 0.758628571,0 1.6919619,0 L14.3091048,0 C15.2409143,0 15.9997714,0.758857143 15.9997714,1.69142857 L15.9997714,14.3085714 C15.9997714,15.2411429 15.2409143,16 14.3091048,16 L14.3091048,16 Z" id="Fill-13" fill="#1D5B50"></path>
            </g>
        </g>
    </g>
</svg>