<svg xmlns="http://www.w3.org/2000/svg" width="16" height="16" viewBox="0 0 16 16">
    <path fill-opacity=".64" fill-rule="evenodd" d="M15.873 13.79v.964c0 .645-.486 1.176-1.11 1.24l-.126.006h-13.4c-.641 0-1.168-.49-1.23-1.119L0 14.754v-.963l7.553-.001v.848h.794v-.848h7.526zM3.993 2.85v10.3H.012V2.85h3.98zm11.894 0v10.3H11.91V2.85h3.978zm-8.334-.001v10.3H4.628V2.85h2.925zm3.72 0v10.3H8.347v-10.3h2.926zM14.651 0c.683 0 1.236.56 1.236 1.247v.963h-7.54v-.62h-.794v.62H.013v-.963C.014.558.568 0 1.25 0h13.401z"/>
</svg>
