<?xml version="1.0" encoding="utf-8"?>
<!-- Generator: Adobe Illustrator 23.1.0, SVG Export Plug-In . SVG Version: 6.00 Build 0)  -->
<svg version="1.1" id="圖層_1" xmlns="http://www.w3.org/2000/svg" xmlns:xlink="http://www.w3.org/1999/xlink" x="0px" y="0px"
	 viewBox="0 0 56 112" style="enable-background:new 0 0 56 112;" xml:space="preserve">
<style type="text/css">
	.st0{fill:#FFFFFF;}
	.st1{fill:#F2F2F2;}
	.st2{fill:#D7D7D7;}
	.st3{fill:#E0E0E0;}
	.st4{fill:#A59A93;}
	.st5{fill:#B7AEA9;}
	.st6{fill:#E1DDDB;}
	.st7{opacity:0.584;fill:#E1DDDB;enable-background:new    ;}
	.st8{opacity:0.584;fill:#FFFFFF;enable-background:new    ;}
	.st9{fill:#C3C3C3;}
	.st10{fill:#775C48;}
	.st11{fill:#685647;}
	.st12{fill:#503F32;}
	.st13{fill:#6C5D50;}
	.st14{fill:#86786D;}
</style>
<g>
	<circle class="st0" cx="27.8" cy="27.8" r="27.8"/>
	<path class="st1" d="M55.5,27.8c0-0.9,0-1.7-0.1-2.5l-12-12L11.9,42.1l13.3,13.3c0.8,0.1,1.7,0.1,2.5,0.1
		C43.1,55.5,55.5,43.1,55.5,27.8z"/>
	<circle class="st2" cx="27.8" cy="27.8" r="21.4"/>
	<path class="st3" d="M27.8,6.4C27.7,6.4,27.7,6.4,27.8,6.4v42.7l0,0c11.8,0,21.4-9.6,21.4-21.4C49.1,16,39.5,6.4,27.8,6.4z"/>
	<circle class="st4" cx="27.8" cy="27.8" r="19"/>
	<path class="st5" d="M27.8,8.8C27.7,8.8,27.7,8.8,27.8,8.8v37.9l0,0c10.5,0,19-8.5,19-19C46.7,17.3,38.2,8.8,27.8,8.8z"/>
	<rect x="26.7" y="9.7" class="st0" width="2.2" height="3.3"/>
	<rect x="27.7" y="9.7" class="st6" width="1.1" height="3.3"/>
	<rect x="26.7" y="42.6" class="st0" width="2.2" height="3.3"/>
	<rect x="27.7" y="42.6" class="st7" width="1.1" height="3.3"/>
	<rect x="42.6" y="26.7" class="st8" width="3.3" height="2.2"/>
	<rect x="9.6" y="26.7" class="st0" width="3.3" height="2.2"/>
	<path class="st8" d="M39.8,41.3L37.5,39l1.5-1.5l2.3,2.3L39.8,41.3z"/>
	<path class="st0" d="M16.5,18.1l-2.3-2.3l1.5-1.5l2.3,2.3L16.5,18.1z"/>
	<path class="st8" d="M39,18.1l-1.5-1.5l2.3-2.3l1.5,1.5L39,18.1z"/>
	<path class="st0" d="M15.7,41.3l-1.5-1.5l2.3-2.3L18,39L15.7,41.3z"/>
	<path class="st9" d="M25.6,25.6l14.8-10.5L30,30L15,40.5L25.6,25.6z"/>
	<path class="st3" d="M40.4,15.1l-12.7,9v7.5L30,30L40.4,15.1z"/>
	<path class="st0" d="M25.6,25.6l14.8-10.5L30,30L25.6,25.6z"/>
	<path class="st0" d="M40.4,15.1l-12.7,9v3.6L30,30L40.4,15.1z"/>
</g>
<g>
	<circle class="st0" cx="28" cy="84.2" r="27.8"/>
	<path class="st1" d="M55.8,84.2c0-0.9,0-1.7-0.1-2.5l-12-12L12.2,98.6l13.3,13.3c0.8,0.1,1.7,0.1,2.5,0.1
		C43.3,112,55.8,99.6,55.8,84.2z"/>
	<circle class="st10" cx="28" cy="84.2" r="21.4"/>
	<path class="st11" d="M28,62.9C28,62.9,28,62.9,28,62.9l0,42.7c0,0,0,0,0,0c11.8,0,21.4-9.6,21.4-21.4C49.4,72.4,39.8,62.9,28,62.9
		z"/>
	<circle class="st12" cx="28" cy="84.2" r="19"/>
	<path class="st13" d="M28,65.3C28,65.3,28,65.3,28,65.3l0,37.9c0,0,0,0,0,0c10.5,0,19-8.5,19-19C47,73.8,38.5,65.3,28,65.3z"/>
	<rect x="26.9" y="66.1" class="st0" width="2.2" height="3.3"/>
	<rect x="28" y="66.1" class="st6" width="1.1" height="3.3"/>
	<rect x="26.9" y="99.1" class="st0" width="2.2" height="3.3"/>
	<rect x="28" y="99.1" class="st7" width="1.1" height="3.3"/>
	<rect x="42.8" y="83.2" class="st8" width="3.3" height="2.2"/>
	<rect x="9.9" y="83.2" class="st0" width="3.3" height="2.2"/>
	<path class="st8" d="M40,97.8l-2.3-2.3l1.5-1.5l2.3,2.3L40,97.8z"/>
	<path class="st0" d="M16.8,74.6l-2.3-2.3l1.5-1.5l2.3,2.3L16.8,74.6z"/>
	<path class="st8" d="M39.2,74.6L37.7,73l2.3-2.3l1.5,1.5L39.2,74.6z"/>
	<path class="st0" d="M16,97.8l-1.5-1.5l2.3-2.3l1.5,1.5L16,97.8z"/>
	<path class="st14" d="M25.8,82.1l14.8-10.5L30.3,86.5L15.3,97L25.8,82.1z"/>
	<path class="st14" d="M40.7,71.5l-12.7,9v7.5l2.3-1.6L40.7,71.5z"/>
	<path class="st0" d="M25.8,82.1l14.8-10.5L30.3,86.5L25.8,82.1z"/>
	<path class="st0" d="M40.7,71.5l-12.7,9v3.6l2.3,2.3L40.7,71.5z"/>
</g>
</svg>
