<?xml version="1.0" encoding="UTF-8"?>
<svg width="16px" height="16px" viewBox="0 0 16 16" version="1.1" xmlns="http://www.w3.org/2000/svg" xmlns:xlink="http://www.w3.org/1999/xlink">
    <!-- Generator: Sketch 55.1 (78136) - https://sketchapp.com -->
    <title>Content Center/match_tracker_volleyball_normal</title>
    <desc>Created with Sketch.</desc>
    <g id="Icons" stroke="none" stroke-width="1" fill="none" fill-rule="evenodd">
        <g id="Content-Center/match_tracker_volleyball_normal">
            <g id="match_tracker_volleyball_normal">
                <path d="M15.8660571,13.3318095 L0.627961905,13.3318095 L0.627961905,14.1912381 C0.627961905,14.8464762 1.15900952,15.3775238 1.81424762,15.3775238 L14.6790095,15.3775238 C15.3350095,15.3775238 15.8660571,14.8464762 15.8660571,14.1912381 L15.8660571,13.3318095 Z" id="Fill-1" fill="#5B9968"></path>
                <path d="M15.6190476,2.61386667 L0.380952381,2.61386667 L0.380952381,1.7544381 C0.380952381,1.0999619 0.912,0.568152381 1.568,0.568152381 L14.432,0.568152381 C15.088,0.568152381 15.6190476,1.0999619 15.6190476,1.7544381 L15.6190476,2.61386667 Z" id="Fill-3" fill="#5B9968"></path>
                <polygon id="Clip-6" points="0 16 16 16 16 0 0 0"></polygon>
                <polygon id="Fill-5" fill="#F69662" points="0.380952381 13.6342857 15.6190476 13.6342857 15.6190476 2.58361905 0.380952381 2.58361905"></polygon>
                <path d="M15.6190476,3.15550476 L0.380952381,3.15550476 C0.212571429,3.15550476 0.0761904762,3.0183619 0.0761904762,2.85074286 C0.0761904762,2.6823619 0.212571429,2.54521905 0.380952381,2.54521905 L15.6190476,2.54521905 C15.7874286,2.54521905 15.9238095,2.6823619 15.9238095,2.85074286 C15.9238095,3.0183619 15.7874286,3.15550476 15.6190476,3.15550476" id="Fill-7" fill="#FEFEFE"></path>
                <path d="M15.6190476,13.5803429 L0.380952381,13.5803429 C0.212571429,13.5803429 0.0761904762,13.4432 0.0761904762,13.275581 C0.0761904762,13.1072 0.212571429,12.9700571 0.380952381,12.9700571 L15.6190476,12.9700571 C15.7874286,12.9700571 15.9238095,13.1072 15.9238095,13.275581 C15.9238095,13.4432 15.7874286,13.5803429 15.6190476,13.5803429" id="Fill-8" fill="#FEFEFE"></path>
                <path d="M4.50521905,13.5676952 C4.3368381,13.5676952 4.20045714,13.4305524 4.20045714,13.2629333 L4.20045714,3.04655238 C4.20045714,2.87893333 4.3368381,2.74179048 4.50521905,2.74179048 C4.6736,2.74179048 4.80998095,2.87893333 4.80998095,3.04655238 L4.80998095,13.2629333 C4.80998095,13.4305524 4.6736,13.5676952 4.50521905,13.5676952" id="Fill-9" fill="#FEFEFE"></path>
                <path d="M11.494781,13.5803429 C11.3264,13.5803429 11.190019,13.4432 11.190019,13.275581 L11.190019,3.0592 C11.190019,2.89158095 11.3264,2.7544381 11.494781,2.7544381 C11.6631619,2.7544381 11.7995429,2.89158095 11.7995429,3.0592 L11.7995429,13.275581 C11.7995429,13.4432 11.6631619,13.5803429 11.494781,13.5803429" id="Fill-10" fill="#FEFEFE"></path>
                <path d="M1.6912,0.761904762 C1.1784381,0.761904762 0.76167619,1.17942857 0.76167619,1.69219048 L0.76167619,14.3078095 C0.76167619,14.8205714 1.1784381,15.2380952 1.6912,15.2380952 L14.3083429,15.2380952 C14.8203429,15.2380952 15.2378667,14.8205714 15.2378667,14.3078095 L15.2378667,1.69219048 C15.2378667,1.17942857 14.8203429,0.761904762 14.3083429,0.761904762 L1.6912,0.761904762 Z M14.3083429,16 L1.6912,16 C0.758628571,16 -0.000228571429,15.2411429 -0.000228571429,14.3078095 L-0.000228571429,1.69219048 C-0.000228571429,0.758857143 0.758628571,0 1.6912,0 L14.3083429,0 C15.2409143,0 15.9997714,0.758857143 15.9997714,1.69219048 L15.9997714,14.3078095 C15.9997714,15.2411429 15.2409143,16 14.3083429,16 L14.3083429,16 Z" id="Fill-11" fill="#2B663B"></path>
                <path d="M8,16 C7.78971429,16 7.61904762,15.8293333 7.61904762,15.6190476 L7.61904762,0.380952381 C7.61904762,0.170666667 7.78971429,0 8,0 C8.21028571,0 8.38095238,0.170666667 8.38095238,0.380952381 L8.38095238,15.6190476 C8.38095238,15.8293333 8.21028571,16 8,16" id="Fill-12" fill="#2B663B"></path>
            </g>
        </g>
    </g>
</svg>