<?xml version="1.0" encoding="utf-8"?>
<!-- Generator: Adobe Illustrator 23.0.3, SVG Export Plug-In . SVG Version: 6.00 Build 0)  -->
<svg version="1.1" id="Layer_1" xmlns="http://www.w3.org/2000/svg" xmlns:xlink="http://www.w3.org/1999/xlink" x="0px" y="0px"
	 width="80px" height="16px" viewBox="0 0 80 16" style="enable-background:new 0 0 80 16;" xml:space="preserve">
<style type="text/css">
	.st0{fill-rule:evenodd;clip-rule:evenodd;fill:#5FAA45;}
	.st1{fill-rule:evenodd;clip-rule:evenodd;fill:#ECF5EE;}
	.st2{fill-rule:evenodd;clip-rule:evenodd;fill:#177C3E;}
	.st3{fill-rule:evenodd;clip-rule:evenodd;fill:#94D96B;}
	.st4{fill-rule:evenodd;clip-rule:evenodd;fill:#23C160;}
	.st5{fill-rule:evenodd;clip-rule:evenodd;fill-opacity:0.64;}
</style>
<title>Content Center/match_tracker_football_normal</title>
<desc>Created with Sketch.</desc>
<g id="Icons">
	<g>
		<g id="match_tracker_football_normal">
			<path id="Fill-1" class="st0" d="M14.3,15.6H1.7c-0.7,0-1.3-0.6-1.3-1.3V1.7C0.4,1,1,0.4,1.7,0.4h12.6c0.7,0,1.3,0.6,1.3,1.3
				v12.6C15.6,15,15,15.6,14.3,15.6"/>
			<path id="Fill-3" class="st1" d="M8,15.9c-0.2,0-0.3-0.1-0.3-0.3V0.4c0-0.2,0.1-0.3,0.3-0.3c0.2,0,0.3,0.1,0.3,0.3v15.2
				C8.3,15.8,8.2,15.9,8,15.9"/>
			<path id="Fill-7" class="st1" d="M2.4,12.5h-2c-0.2,0-0.3-0.1-0.3-0.3c0-0.2,0.1-0.3,0.3-0.3h2c0.3,0,0.6-0.2,0.6-0.6V4.7
				c0-0.3-0.2-0.6-0.6-0.6h-2C0.2,4.2,0.1,4,0.1,3.8c0-0.2,0.1-0.3,0.3-0.3h2c0.6,0,1.2,0.5,1.2,1.2v6.6C3.6,11.9,3.1,12.5,2.4,12.5
				"/>
			<path id="Fill-9" class="st1" d="M15.6,12.5h-2c-0.6,0-1.2-0.5-1.2-1.2V4.7c0-0.6,0.5-1.2,1.2-1.2h2c0.2,0,0.3,0.1,0.3,0.3
				c0,0.2-0.1,0.3-0.3,0.3h-2c-0.3,0-0.6,0.2-0.6,0.6v6.6c0,0.3,0.2,0.6,0.6,0.6h2c0.2,0,0.3,0.1,0.3,0.3
				C15.9,12.3,15.8,12.5,15.6,12.5"/>
			<path id="Combined-Shape" class="st2" d="M14.3,16H1.7C0.8,16,0,15.2,0,14.3V1.7C0,0.8,0.8,0,1.7,0h12.6C15.2,0,16,0.8,16,1.7
				v12.6C16,15.2,15.2,16,14.3,16z M1.7,0.8c-0.5,0-0.9,0.4-0.9,0.9v12.6c0,0.5,0.4,0.9,0.9,0.9h12.6c0.5,0,0.9-0.4,0.9-0.9V1.7
				c0-0.5-0.4-0.9-0.9-0.9H1.7z"/>
			<path id="Path" class="st1" d="M8,10.5c-1.4,0-2.5-1.1-2.5-2.5S6.6,5.5,8,5.5s2.5,1.1,2.5,2.5S9.4,10.5,8,10.5"/>
			<path class="st0" d="M8,6.1C7,6.1,6.1,7,6.1,8C6.1,9,7,9.9,8,9.9C9,9.9,9.9,9,9.9,8C9.9,7,9,6.1,8,6.1"/>
		</g>
	</g>
</g>
<g id="Icons_1_">
	<g>
		<g id="match_tracker_football_active">
			<path id="Fill-1_1_" class="st3" d="M46.3,15.6H33.7c-0.7,0-1.3-0.6-1.3-1.3V1.7c0-0.7,0.6-1.3,1.3-1.3h12.6
				c0.7,0,1.3,0.6,1.3,1.3v12.6C47.6,15,47,15.6,46.3,15.6"/>
			<path id="Fill-3_1_" class="st1" d="M40,15.9c-0.2,0-0.3-0.1-0.3-0.3V0.4c0-0.2,0.1-0.3,0.3-0.3s0.3,0.1,0.3,0.3v15.2
				C40.3,15.8,40.2,15.9,40,15.9"/>
			<path id="Fill-7_1_" class="st1" d="M34.4,12.5h-2c-0.2,0-0.3-0.1-0.3-0.3c0-0.2,0.1-0.3,0.3-0.3h2c0.3,0,0.6-0.2,0.6-0.6V4.7
				c0-0.3-0.2-0.6-0.6-0.6h-2c-0.2,0-0.3-0.1-0.3-0.3c0-0.2,0.1-0.3,0.3-0.3h2c0.6,0,1.2,0.5,1.2,1.2v6.6
				C35.6,11.9,35.1,12.5,34.4,12.5"/>
			<path id="Fill-9_1_" class="st1" d="M47.6,12.5h-2c-0.6,0-1.2-0.5-1.2-1.2V4.7c0-0.6,0.5-1.2,1.2-1.2h2c0.2,0,0.3,0.1,0.3,0.3
				c0,0.2-0.1,0.3-0.3,0.3h-2c-0.3,0-0.6,0.2-0.6,0.6v6.6c0,0.3,0.2,0.6,0.6,0.6h2c0.2,0,0.3,0.1,0.3,0.3
				C47.9,12.3,47.8,12.5,47.6,12.5"/>
			<path id="Combined-Shape_1_" class="st4" d="M46.3,16H33.7c-0.9,0-1.7-0.8-1.7-1.7V1.7C32,0.8,32.8,0,33.7,0h12.6
				C47.2,0,48,0.8,48,1.7v12.6C48,15.2,47.2,16,46.3,16z M33.7,0.8c-0.5,0-0.9,0.4-0.9,0.9v12.6c0,0.5,0.4,0.9,0.9,0.9h12.6
				c0.5,0,0.9-0.4,0.9-0.9V1.7c0-0.5-0.4-0.9-0.9-0.9H33.7z"/>
			<path id="Path_1_" class="st1" d="M40,10.5c-1.4,0-2.5-1.1-2.5-2.5s1.1-2.5,2.5-2.5s2.5,1.1,2.5,2.5S41.4,10.5,40,10.5"/>
			<path class="st3" d="M40,6.1c-1,0-1.9,0.8-1.9,1.9c0,1,0.8,1.9,1.9,1.9c1,0,1.9-0.8,1.9-1.9C41.9,7,41,6.1,40,6.1"/>
		</g>
	</g>
</g>
<path class="st5" d="M71.7,0v5.4c-1.3,0.2-2.3,1.2-2.3,2.6s1,2.4,2.3,2.6V16h-6.3c-0.8,0-1.4-0.6-1.4-1.4v-1.9h2.1
	c0.7,0,1.2-0.5,1.2-1.2V4.5c0-0.7-0.6-1.2-1.2-1.2H64V1.4C64,0.6,64.6,0,65.4,0H71.7z M78.6,0C79.4,0,80,0.6,80,1.4v1.9h-2.1
	c-0.7,0-1.2,0.5-1.2,1.2v6.9c0,0.7,0.5,1.2,1.2,1.2H80v1.9c0,0.8-0.6,1.4-1.4,1.4h-6.3v-5.4c1.3-0.2,2.3-1.2,2.3-2.6
	c0-1.3-1-2.4-2.3-2.6V0H78.6z M66.1,4c0.3,0,0.6,0.3,0.6,0.6v6.9c0,0.3-0.3,0.6-0.6,0.6H64V4H66.1z M80,4V12h-2.1
	c-0.3,0-0.6-0.3-0.6-0.6V4.5c0-0.3,0.3-0.6,0.6-0.6L80,4L80,4z M72.3,6.1C73.2,6.2,74,7,74,8c0,1-0.7,1.8-1.6,1.9V6.1z M71.7,6.1
	v3.9C70.8,9.8,70,9,70,8C70,7,70.8,6.2,71.7,6.1L71.7,6.1z"/>
</svg>
