<?xml version="1.0" encoding="utf-8"?>
<!-- Generator: Adobe Illustrator 23.0.3, SVG Export Plug-In . SVG Version: 6.00 Build 0)  -->
<svg version="1.1" id="Layer_1" xmlns="http://www.w3.org/2000/svg" xmlns:xlink="http://www.w3.org/1999/xlink" x="0px" y="0px"
	 width="16px" height="16px" viewBox="0 0 16 16" style="enable-background:new 0 0 16 16;" xml:space="preserve">
<style type="text/css">
	.st0{fill-rule:evenodd;clip-rule:evenodd;fill:#A78025;fill-opacity:0.64;}
</style>
<title>Button Icons/competition_filter_normal</title>
<desc>Created with Sketch.</desc>
<path class="st0" d="M11.8,7.8c0.2-0.3,0.4-0.6,0.6-1c1.9-0.9,3.3-2.5,3.6-4.3c0-0.4-0.1-0.7-0.3-1c-0.3-0.2-0.7-0.4-1-0.4h-1.3V0.8
	C13.4,0.4,13,0,12.5,0H3.6c-0.5,0-0.9,0.4-1,0.8v0.3H1.3c-0.4,0-0.7,0.1-1,0.4C0.1,1.8,0,2.1,0,2.5c0.4,1.8,1.7,3.4,3.5,4.3
	c0.2,0.4,0.4,0.7,0.6,1c0.7,1,1.6,1.7,2.5,2c0.1,0.8-0.5,1.6-1.5,1.8c-0.2,0.1-0.3,0.2-0.3,0.4v1.7H4c-0.7,0-1.3,0.5-1.3,1.1v0.9
	c0,0.2,0.2,0.4,0.4,0.4h9.8c0.2,0,0.4-0.2,0.4-0.4v-0.9c0-0.6-0.6-1.1-1.3-1.1h-0.9V12c0-0.2-0.1-0.4-0.3-0.4c-1-0.2-1.6-1-1.5-1.8
	C10.3,9.5,11.1,8.8,11.8,7.8z M13.3,2.6V1.9h1.3c0.2,0,0.3,0,0.4,0.1c0.1,0.1,0.1,0.2,0.1,0.3c-0.2,1.3-1,2.5-2.3,3.3
	C13.1,4.7,13.3,3.7,13.3,2.6z M0.9,2.3C0.8,2.2,0.9,2.1,1,2c0.1-0.1,0.2-0.1,0.4-0.1h1.2v0.7c0,1,0.2,2.1,0.5,3
	C2,4.8,1.1,3.6,0.9,2.3z M7.1,11.3c0.2-0.4,0.4-0.9,0.4-1.3c0.2,0,0.3,0,0.5,0s0.3,0,0.5,0c0,0.6,0.2,1.2,0.7,1.6H6.8
	C6.9,11.5,7,11.4,7.1,11.3z M12.1,14.4c0.2,0,0.4,0.2,0.4,0.4v0.5H3.6v-0.5c0-0.2,0.2-0.4,0.4-0.4H12.1z"/>
</svg>
