<svg xmlns="http://www.w3.org/2000/svg" width="16" height="16" viewBox="0 0 16 16">
    <path fill-opacity=".64" fill-rule="evenodd" d="M14.624 0C15.381 0 16 .62 16 1.377v13.246c0 .758-.62 1.377-1.376 1.377H1.376C.619 16 0 15.38 0 14.623V1.377C0 .619.62 0 1.376 0h13.248zM8.4.97h-.8v.51l-5.556.001c-.313 0-.568.255-.568.568v11.912c0 .313.255.568.568.568H7.6v.512h.8v-.512h5.556c.313 0 .568-.255.568-.568V2.05c0-.313-.255-.568-.568-.568H8.4V.97zM5.04 8.226v5.727l-2.964.008-.015-5.735H5.04zm2.56-6.16v11.88l-1.96.005V2.07l1.96-.005zm2.759-.007v11.88l-1.96.005V2.064l1.96-.005zm3.565 6.204v5.666l-2.965.008V8.263h2.965zm0-6.214v5.614h-2.965V2.057l2.965-.008zm-8.884.024v5.553H2.059L2.044 2.08l2.996-.008z"/>
</svg>
