<svg xmlns="http://www.w3.org/2000/svg" width="14" height="16" viewBox="0 0 14 16">
    <g fill="#FFF" fill-rule="evenodd">
        <path d="M13.25 11.822h-.256c-.685-.176-1.028-1.924-1.028-5.248 0-2.98-1.322-4.777-3.966-5.393v-.17c0-.558-.448-1.01-1-1.01S6 .452 6 1.01v.17c-2.644.616-3.966 2.413-3.966 5.393 0 3.324-.343 5.073-1.028 5.248H.75a.757.757 0 0 0-.75.76c0 .415.338.757.75.757h12.5c.412 0 .75-.342.75-.758a.757.757 0 0 0-.75-.759M7.679 14.172H6.322a.324.324 0 0 0-.322.322V15.06c0 .519.449.94 1 .94.552 0 1-.421 1-.94V14.494a.323.323 0 0 0-.321-.322"/>
    </g>
</svg>
