<?xml version="1.0" encoding="utf-8"?>
<!-- Generator: Adobe Illustrator 22.1.0, SVG Export Plug-In . SVG Version: 6.00 Build 0)  -->
<svg version="1.1" id="圖層_1" xmlns="http://www.w3.org/2000/svg" xmlns:xlink="http://www.w3.org/1999/xlink" x="0px" y="0px"
	 width="24px" height="58px" viewBox="0 0 24 58" style="enable-background:new 0 0 24 58;" xml:space="preserve">
<style type="text/css">
	.st0{fill:#666666;}
	.st1{fill:#C34235;}
</style>
<g>
	<path class="st0" d="M15.4,54.8l-0.6-1.1C14.5,53.3,14,53,13.4,53h-3.1c-0.6,0-1.1,0.3-1.4,0.8l-0.6,1c-1.5-0.6-2.8-1.6-3.9-2.9
		L5.6,50c0.3-0.5,0.3-1.1,0-1.6l-1.5-2.7C3.8,45.3,3.3,45,2.7,45H2.6c0.2-1.5,0.7-3,1.5-4.3h2.3c0.6,0,1.1-0.3,1.4-0.8l1.5-2.7
		c0.1-0.1,0.1-0.3,0.2-0.4c0.8-0.2,1.7-0.4,2.5-0.4c0.8,0,1.7,0.1,2.5,0.3c0,0.1,0.1,0.3,0.2,0.4l1.5,2.7c0.3,0.5,0.8,0.8,1.4,0.8
		h2.3c0.9,1.3,1.4,2.7,1.5,4.3h-0.1c-0.6,0-1.1,0.3-1.4,0.8l-1.5,2.7c-0.3,0.5-0.3,1.1,0,1.6l1.1,1.8C18.4,53.2,17,54.2,15.4,54.8
		 M12,34C5.4,34,0,39.4,0,46s5.4,12,12,12c6.6,0,12-5.4,12-12S18.6,34,12,34"/>
	<path class="st0" d="M14.8,42.3c-0.3-0.5-0.8-0.8-1.4-0.8h-3.1c-0.6,0-1.1,0.3-1.4,0.8L7.5,45c-0.3,0.5-0.3,1.1,0,1.6L9,49.2
		c0.3,0.5,0.8,0.8,1.4,0.8h3.1c0.6,0,1.1-0.3,1.4-0.8l1.5-2.7c0.3-0.5,0.3-1.1,0-1.6L14.8,42.3z"/>
</g>
<g>
	<path class="st1" d="M15.4,20.8l-0.6-1.1C14.5,19.3,14,19,13.4,19h-3.1c-0.6,0-1.1,0.3-1.4,0.8l-0.6,1c-1.5-0.6-2.8-1.6-3.9-2.9
		L5.6,16c0.3-0.5,0.3-1.1,0-1.6l-1.5-2.7C3.8,11.3,3.3,11,2.7,11H2.6c0.2-1.5,0.7-3,1.5-4.3h2.3C7,6.7,7.5,6.4,7.8,6l1.5-2.7
		C9.4,3.2,9.4,3,9.5,2.9c0.8-0.2,1.7-0.4,2.5-0.4c0.8,0,1.7,0.1,2.5,0.3c0,0.1,0.1,0.3,0.2,0.4L16.2,6c0.3,0.5,0.8,0.8,1.4,0.8h2.3
		c0.9,1.3,1.4,2.7,1.5,4.3h-0.1c-0.6,0-1.1,0.3-1.4,0.8l-1.5,2.7c-0.3,0.5-0.3,1.1,0,1.6l1.1,1.8C18.4,19.2,17,20.2,15.4,20.8 M12,0
		C5.4,0,0,5.4,0,12s5.4,12,12,12c6.6,0,12-5.4,12-12S18.6,0,12,0"/>
	<path class="st1" d="M14.8,8.3c-0.3-0.5-0.8-0.8-1.4-0.8h-3.1C9.8,7.5,9.3,7.8,9,8.3L7.5,11c-0.3,0.5-0.3,1.1,0,1.6L9,15.2
		c0.3,0.5,0.8,0.8,1.4,0.8h3.1c0.6,0,1.1-0.3,1.4-0.8l1.5-2.7c0.3-0.5,0.3-1.1,0-1.6L14.8,8.3z"/>
</g>
</svg>
