<svg width="16" height="16" viewBox="0 0 16 16" fill="none" xmlns="http://www.w3.org/2000/svg">
<g clip-path="url(#clip0_1588:14503)">
<g clip-path="url(#clip1_1588:14503)">
<path d="M15.27 6.20966L9.80998 0.789658C9.33202 0.313347 8.68475 0.0458984 8.00998 0.0458984C7.3352 0.0458984 6.68794 0.313347 6.20998 0.789658L0.749977 6.24966C0.512625 6.48652 0.324319 6.76786 0.195837 7.07759C0.0673551 7.38732 0.0012207 7.71934 0.0012207 8.05466C0.0012207 8.38997 0.0673551 8.722 0.195837 9.03173C0.324319 9.34146 0.512625 9.6228 0.749977 9.85966L6.20998 15.3097C6.44598 15.5467 6.72648 15.7348 7.03538 15.8631C7.34427 15.9915 7.67548 16.0576 8.00998 16.0576C8.34448 16.0576 8.67568 15.9915 8.98458 15.8631C9.29347 15.7348 9.57397 15.5467 9.80998 15.3097L15.27 9.78966C15.7402 9.31255 16.0038 8.66955 16.0038 7.99966C16.0038 7.32976 15.7402 6.68677 15.27 6.20966ZM7.01998 4.29966C6.99973 4.16366 7.01163 4.02482 7.05472 3.89425C7.09782 3.76368 7.17091 3.64503 7.26813 3.54781C7.36535 3.45058 7.484 3.3775 7.61457 3.3344C7.74514 3.29131 7.88398 3.27941 8.01998 3.29966C8.15597 3.27941 8.29482 3.29131 8.42539 3.3344C8.55595 3.3775 8.6746 3.45058 8.77183 3.54781C8.86905 3.64503 8.94214 3.76368 8.98523 3.89425C9.02833 4.02482 9.04023 4.16366 9.01998 4.29966V5.78966C9.03401 5.98274 9.03401 6.17658 9.01998 6.36966L8.63998 9.26966C8.63998 9.62966 8.40998 9.72966 8.08998 9.72966C7.76998 9.72966 7.59998 9.62966 7.54998 9.26966L7.15998 6.36966C7.15998 6.16966 7.15998 5.96966 7.15998 5.78966L7.01998 4.29966ZM8.01998 12.5197C7.75476 12.5197 7.50041 12.4143 7.31287 12.2268C7.12533 12.0392 7.01998 11.7849 7.01998 11.5197C7.01998 11.2544 7.12533 11.0001 7.31287 10.8126C7.50041 10.625 7.75476 10.5197 8.01998 10.5197C8.28519 10.5197 8.53955 10.625 8.72708 10.8126C8.91462 11.0001 9.01998 11.2544 9.01998 11.5197C9.01998 11.7849 8.91462 12.0392 8.72708 12.2268C8.53955 12.4143 8.28519 12.5197 8.01998 12.5197Z" fill="white"/>
</g>
</g>
<defs>
<clipPath id="clip0_1588:14503">
<rect width="16" height="16" fill="white"/>
</clipPath>
<clipPath id="clip1_1588:14503">
<rect width="16.02" height="16.02" fill="white"/>
</clipPath>
</defs>
</svg>
