<?xml version="1.0" encoding="utf-8"?>
<!-- Generator: Adobe Illustrator 23.0.3, SVG Export Plug-In . SVG Version: 6.00 Build 0)  -->
<svg version="1.1" id="圖層_1" xmlns="http://www.w3.org/2000/svg" xmlns:xlink="http://www.w3.org/1999/xlink" x="0px" y="0px"
	width="56" height="112" viewBox="0 0 56 112" style="enable-background:new 0 0 56 112;" xml:space="preserve">
<style type="text/css">
	.st0{clip-path:url(#SVGID_2_);}
	.st1{fill-opacity:0.64;}
	.st2{opacity:0.4;fill-opacity:0.64;enable-background:new    ;}
	.st3{clip-path:url(#SVGID_4_);}
	.st4{fill:#E4534D;}
	.st5{opacity:0.4;fill:#E4534D;enable-background:new    ;}
</style>
<title>Members - Normal</title>
<g>
	<defs>
		<rect id="SVGID_1_" x="20" y="20" width="16" height="16"/>
	</defs>
	<clipPath id="SVGID_2_">
		<use xlink:href="#SVGID_1_"  style="overflow:visible;"/>
	</clipPath>
	<g class="st0">
		<path class="st1" d="M34.4,29.2h-2.2c-0.4,0-0.8,0.2-1.1,0.5c-0.3,0.3-0.5,0.7-0.5,1.1c0-0.4-0.2-0.8-0.5-1.1
			c-0.3-0.3-0.7-0.5-1.1-0.5h-2.2c-0.2,0-0.4,0-0.6,0.1c-0.2,0.1-0.4,0.2-0.5,0.3c-0.1,0.1-0.3,0.3-0.3,0.5
			c-0.1,0.2-0.1,0.4-0.1,0.6c0-0.4-0.2-0.8-0.5-1.1c-0.3-0.3-0.7-0.5-1.1-0.5h-2.2c-0.4,0-0.8,0.2-1.1,0.5c-0.3,0.3-0.5,0.7-0.5,1.1
			v3.9c0,0.7,0.6,1.3,1.3,1.3c0,0,0,0,0,0h13.3c0.4,0,0.7-0.1,0.9-0.4c0.2-0.2,0.4-0.6,0.4-0.9v-3.9c0-0.2,0-0.4-0.1-0.6
			c-0.1-0.2-0.2-0.4-0.3-0.5c-0.2-0.1-0.3-0.3-0.5-0.3C34.8,29.2,34.6,29.2,34.4,29.2z"/>
		<path class="st2" d="M27.4,20.4l-1.2,1.9c-0.1,0.1-0.1,0.2-0.1,0.4c0,0.1,0,0.2,0.1,0.4c0.1,0.1,0.1,0.2,0.2,0.3
			c0.1,0.1,0.2,0.1,0.4,0.1h2.6c0.1,0,0.2,0,0.4-0.1c0.1-0.1,0.2-0.2,0.3-0.3c0-0.1,0.1-0.2,0.1-0.4c0-0.1-0.1-0.2-0.1-0.4l-1.2-1.9
			c-0.1-0.1-0.2-0.2-0.3-0.2C28.3,20,28.1,20,28,20c-0.1,0-0.3,0-0.4,0.1C27.5,20.2,27.4,20.3,27.4,20.4z"/>
		<path class="st2" d="M22.3,25.2c-0.1,0-0.2-0.1-0.3-0.2c-0.1-0.1-0.2-0.2-0.1-0.4v-1.7c0-0.2,0-0.4,0.1-0.6
			c0.1-0.2,0.2-0.3,0.3-0.5c0.1-0.1,0.3-0.2,0.5-0.3c0.2-0.1,0.4-0.1,0.6-0.1h1.4c0.1,0,0.3,0.1,0.4,0.1c0.1,0.1,0.2,0.2,0.1,0.4
			c0,0.1-0.1,0.3-0.1,0.4c-0.1,0.1-0.2,0.1-0.4,0.1h-1.4c-0.1,0-0.2,0-0.3,0.1c-0.1,0.1-0.1,0.2-0.1,0.3v1.8c0,0.1-0.1,0.2-0.2,0.3
			C22.6,25.1,22.4,25.2,22.3,25.2z"/>
		<path class="st2" d="M33.7,25.2c-0.1,0-0.3-0.1-0.4-0.2c-0.1-0.1-0.2-0.2-0.1-0.4v-1.7c0-0.1-0.1-0.2-0.1-0.3
			c-0.1-0.1-0.2-0.1-0.3-0.1h-1.4c-0.1,0-0.2-0.1-0.3-0.1c-0.1-0.1-0.2-0.2-0.2-0.3c0-0.2,0.1-0.3,0.2-0.4c0.1-0.1,0.2-0.1,0.4-0.2
			h1.4c0.2,0,0.4,0,0.6,0.1c0.2,0.1,0.3,0.2,0.5,0.3c0.1,0.1,0.2,0.3,0.3,0.5c0.1,0.2,0.1,0.4,0.1,0.6v1.8c0,0.1-0.1,0.3-0.2,0.4
			C34,25.1,33.9,25.2,33.7,25.2z"/>
		<path class="st1" d="M23.2,26h-1c-0.5,0-0.9,0.4-0.9,0.9l0,0v1c0,0.5,0.4,0.9,0.9,0.9h1c0.5,0,0.8-0.4,0.8-0.8v-1
			C24,26.4,23.7,26,23.2,26C23.2,26,23.2,26,23.2,26z"/>
		<path class="st1" d="M28.5,26h-1c-0.5,0-0.9,0.4-0.9,0.8c0,0,0,0,0,0v1c0,0.5,0.4,0.9,0.9,0.9c0,0,0,0,0,0h1
			c0.5,0,0.9-0.4,0.9-0.9v-1C29.4,26.4,29,26,28.5,26z"/>
		<path class="st1" d="M33.8,26h-1c-0.5,0-0.9,0.4-0.9,0.9v1c0,0.5,0.4,0.9,0.9,0.9h1c0.5,0,0.9-0.4,0.9-0.9v-1
			C34.7,26.4,34.3,26,33.8,26z"/>
		<path class="st2" d="M28.6,24.1h-1.2c-1.7,0-3.1,1.4-3.1,3.1v2.1c0.3,0.1,0.5,0.3,0.7,0.6c0.2,0.3,0.3,0.6,0.3,0.9
			c0-0.2,0-0.4,0.1-0.6c0.1-0.2,0.2-0.4,0.3-0.5c0.1-0.1,0.3-0.3,0.5-0.3c0.2-0.1,0.4-0.1,0.6-0.1H29c0.4,0,0.8,0.2,1.1,0.5
			c0.3,0.3,0.5,0.7,0.5,1.1c0-0.3,0.1-0.6,0.3-0.9c0.2-0.3,0.4-0.5,0.7-0.6v-2.1C31.6,25.5,30.3,24.2,28.6,24.1z M29.3,27.9
			c0,0.2-0.1,0.4-0.2,0.6c-0.2,0.2-0.4,0.3-0.6,0.2h-1c-0.2,0-0.4-0.1-0.6-0.2c-0.2-0.2-0.2-0.4-0.2-0.6v-1c0-0.5,0.4-0.9,0.8-0.9
			c0,0,0,0,0,0h1c0.5,0,0.9,0.4,0.9,0.8c0,0,0,0,0,0V27.9z"/>
	</g>
</g>
<g>
	<defs>
		<rect id="SVGID_3_" x="20" y="76" width="16" height="16"/>
	</defs>
	<clipPath id="SVGID_4_">
		<use xlink:href="#SVGID_3_"  style="overflow:visible;"/>
	</clipPath>
	<g class="st3">
		<path class="st4" d="M34.4,85.2h-2.2c-0.4,0-0.8,0.2-1.1,0.5c-0.3,0.3-0.5,0.7-0.5,1.1c0-0.4-0.2-0.8-0.5-1.1
			c-0.3-0.3-0.7-0.5-1.1-0.5h-2.2c-0.2,0-0.4,0-0.6,0.1c-0.2,0.1-0.4,0.2-0.5,0.3c-0.1,0.1-0.3,0.3-0.3,0.5
			c-0.1,0.2-0.1,0.4-0.1,0.6c0-0.4-0.2-0.8-0.5-1.1c-0.3-0.3-0.7-0.5-1.1-0.5h-2.2c-0.4,0-0.8,0.2-1.1,0.5c-0.3,0.3-0.5,0.7-0.5,1.1
			v3.9c0,0.7,0.6,1.3,1.3,1.3c0,0,0,0,0,0h13.3c0.4,0,0.7-0.1,0.9-0.4c0.2-0.2,0.4-0.6,0.4-0.9v-3.9c0-0.2,0-0.4-0.1-0.6
			c-0.1-0.2-0.2-0.4-0.3-0.5c-0.1-0.1-0.3-0.3-0.5-0.3C34.9,85.2,34.6,85.2,34.4,85.2z"/>
		<path class="st5" d="M27.4,76.4l-1.2,1.9c-0.1,0.2-0.1,0.5,0,0.7c0.1,0.1,0.1,0.2,0.2,0.3c0.1,0.1,0.2,0.1,0.4,0.1h2.6
			c0.1,0,0.2,0,0.4-0.1c0.1-0.1,0.2-0.2,0.3-0.3c0.1-0.1,0.1-0.2,0.1-0.4c0-0.1-0.1-0.2-0.1-0.4l-1.2-1.9c-0.1-0.1-0.2-0.2-0.3-0.2
			C28.3,76,28.1,76,28,76c-0.1,0-0.3,0-0.4,0.1C27.5,76.2,27.4,76.3,27.4,76.4z"/>
		<path class="st5" d="M22.3,81.2c-0.1,0-0.2-0.1-0.3-0.2c-0.1-0.1-0.2-0.2-0.1-0.3v-1.7c0-0.2,0-0.4,0.1-0.6
			c0.2-0.4,0.4-0.6,0.8-0.8c0.2-0.1,0.4-0.1,0.6-0.1h1.4c0.1,0,0.3,0.1,0.4,0.2c0.1,0.1,0.2,0.2,0.1,0.3c0,0.1-0.1,0.3-0.1,0.4
			c-0.1,0.1-0.2,0.1-0.4,0.1h-1.4c-0.1,0-0.2,0.1-0.3,0.1c-0.1,0.1-0.1,0.2-0.1,0.3v1.8c0,0.1-0.1,0.3-0.2,0.3
			C22.6,81.1,22.5,81.2,22.3,81.2z"/>
		<path class="st5" d="M33.7,81.2c-0.1,0-0.3-0.1-0.4-0.2c-0.1-0.1-0.2-0.2-0.1-0.3v-1.8c0-0.1-0.1-0.2-0.1-0.3
			c-0.1-0.1-0.2-0.1-0.3-0.1h-1.4c-0.1,0-0.3,0-0.4-0.1c-0.1-0.1-0.2-0.2-0.1-0.4c0-0.1,0.1-0.3,0.1-0.3c0.1-0.1,0.2-0.1,0.4-0.2
			h1.4c0.2,0,0.4,0,0.6,0.1c0.4,0.1,0.6,0.4,0.8,0.8c0.1,0.2,0.1,0.4,0.1,0.6v1.8c0,0.1-0.1,0.3-0.2,0.3
			C34,81.1,33.9,81.2,33.7,81.2z"/>
		<path class="st4" d="M23.2,82h-1c-0.5,0-0.9,0.4-0.9,0.9l0,0v1c0,0.5,0.4,0.9,0.9,0.9h1c0.5,0,0.8-0.4,0.8-0.8v-1
			C24,82.4,23.7,82,23.2,82C23.2,82,23.2,82,23.2,82z"/>
		<path class="st4" d="M28.5,82h-1c-0.5,0-0.9,0.4-0.9,0.8c0,0,0,0,0,0v1c0,0.5,0.4,0.9,0.9,0.9c0,0,0,0,0,0h1
			c0.5,0,0.9-0.4,0.9-0.9v-1C29.4,82.4,29,82,28.5,82L28.5,82z"/>
		<path class="st4" d="M33.8,82h-1c-0.5,0-0.9,0.4-0.9,0.9l0,0v1c0,0.5,0.4,0.9,0.9,0.9h1c0.5,0,0.9-0.4,0.9-0.9v-1
			C34.7,82.4,34.3,82,33.8,82L33.8,82z"/>
		<path class="st5" d="M28.6,80.1h-1.2c-1.7,0-3.1,1.4-3.1,3.1v2.1c0.3,0.1,0.5,0.3,0.7,0.6c0.2,0.3,0.3,0.6,0.3,0.9
			c0-0.2,0-0.4,0.1-0.6c0.1-0.2,0.2-0.4,0.3-0.5c0.1-0.1,0.3-0.3,0.5-0.3c0.2-0.1,0.4-0.1,0.6-0.1h2.2c0.4,0,0.8,0.2,1.1,0.5
			c0.3,0.3,0.5,0.7,0.5,1.1c0-0.3,0.1-0.6,0.3-0.9c0.2-0.3,0.4-0.5,0.7-0.6v-2.1C31.6,81.5,30.3,80.1,28.6,80.1z M29.3,83.9
			c0,0.2-0.1,0.4-0.2,0.6c-0.2,0.2-0.4,0.3-0.6,0.2h-1c-0.2,0-0.4-0.1-0.6-0.2c-0.2-0.2-0.2-0.4-0.2-0.6v-1c0-0.5,0.4-0.9,0.8-0.9
			c0,0,0,0,0,0h1c0.5,0,0.9,0.4,0.9,0.8l0,0V83.9z"/>
	</g>
</g>
</svg>
