<svg xmlns="http://www.w3.org/2000/svg" xmlns:xlink="http://www.w3.org/1999/xlink" width="16" height="16" viewBox="0 0 16 16">
    <defs>
        <path id="a" d="M15.994 15.993V0H0v15.993z"/>
    </defs>
    <g fill="none" fill-rule="evenodd">
        <mask id="b" fill="#fff">
            <use xlink:href="#a"/>
        </mask>
        <path fill="#FFF" d="M8.993 8.06c0 .55-.45 1-1 1s-1-.45-1-1v-3c0-.55.45-1 1-1s1 .45 1 1v3zm-1 3.881c-.55 0-1-.449-1-1 0-.55.45-1 1-1s1 .45 1 1c0 .551-.45 1-1 1zm7.194-5.902L9.954.809a2.773 2.773 0 0 0-3.914 0L.806 6.04a2.778 2.778 0 0 0 0 3.914l5.234 5.232a2.775 2.775 0 0 0 3.913 0l5.234-5.232a2.776 2.776 0 0 0 0-3.915z" mask="url(#b)"/>
    </g>
</svg>
