<svg width="40" height="40" viewBox="0 0 40 40" fill="none" xmlns="http://www.w3.org/2000/svg">
<path fill-rule="evenodd" clip-rule="evenodd" d="M20 0C31.0457 0 40 8.9543 40 20C40 31.0457 31.0457 40 20 40C8.9543 40 0 31.0457 0 20C0 8.9543 8.9543 0 20 0ZM20 3.75C11.0254 3.75 3.75 11.0254 3.75 20C3.75 28.9746 11.0254 36.25 20 36.25C28.9746 36.25 36.25 28.9746 36.25 20C36.25 11.0254 28.9746 3.75 20 3.75Z" fill="#D8D8D8"/>
<path fill-rule="evenodd" clip-rule="evenodd" d="M40 20C40 31.0457 31.0457 40 20 40C8.9543 40 0 31.0457 0 20C0 9.0144 8.85714 0.0974952 19.8199 0.000794037C19.8382 0.000265888 19.8566 0 19.875 0L19.9043 0.000224169L20 0V0.00410057C20.9773 0.0684238 21.75 0.88147 21.75 1.875C21.75 2.86853 20.9773 3.68158 20 3.7459V3.75C11.0254 3.75 3.75 11.0254 3.75 20C3.75 28.9746 11.0254 36.25 20 36.25C28.9746 36.25 36.25 28.9746 36.25 20H36.2541C36.2514 19.9587 36.25 19.917 36.25 19.875C36.25 18.8395 37.0895 18 38.125 18C39.1605 18 40 18.8395 40 19.875C40 19.917 39.9986 19.9587 39.9959 20H40Z" fill="#31ADA1"/>
</svg>
