<?xml version="1.0" encoding="utf-8"?>
<!-- Generator: Adobe Illustrator 16.0.2, SVG Export Plug-In . SVG Version: 6.00 Build 0)  -->
<!DOCTYPE svg PUBLIC "-//W3C//DTD SVG 1.1//EN" "http://www.w3.org/Graphics/SVG/1.1/DTD/svg11.dtd">
<svg version="1.1" id="圖層_1" xmlns="http://www.w3.org/2000/svg" xmlns:xlink="http://www.w3.org/1999/xlink" x="0px" y="0px"
	 width="16px" height="16px" viewBox="0 0 16 16" enable-background="new 0 0 16 16" xml:space="preserve">
<g>
	<path d="M15,0.001H5.072c-0.55,0-1,0.45-1,1v2h7.788c0.55,0,1,0.45,1,1v9H15c0.55,0,1-0.45,1-1v-11C16,0.451,15.55,0.001,15,0.001z
		"/>
	<path d="M10.928,3.001H1c-0.55,0-1,0.45-1,1v11c0,0.55,0.45,1,1,1h9.928c0.551,0,1-0.45,1-1v-11
		C11.928,3.451,11.479,3.001,10.928,3.001z M9.928,13.001h-7.99v-1H9.93v1H9.928z M9.928,10.001h-7.99v-1H9.93v1H9.928z
		 M9.928,7.001h-7.99v-1H9.93v1H9.928z"/>
</g>
</svg>
