<?xml version="1.0" encoding="utf-8"?>
<!-- Generator: Adobe Illustrator 16.0.0, SVG Export Plug-In . SVG Version: 6.00 Build 0)  -->
<!DOCTYPE svg PUBLIC "-//W3C//DTD SVG 1.1//EN" "http://www.w3.org/Graphics/SVG/1.1/DTD/svg11.dtd">
<svg version="1.1" id="Layer_1" xmlns="http://www.w3.org/2000/svg" xmlns:xlink="http://www.w3.org/1999/xlink" x="0px" y="0px"
	 width="16px" height="32px" viewBox="0 -18 16 32" enable-background="new 0 -18 16 32" xml:space="preserve">
<g opacity="0.4">
	<path d="M7.78,2.644c1.855-0.121,3.457,1.286,3.578,3.141c0.009,0.146,0.009,0.291,0,0.436c-0.008,0.141-0.039,0.275-0.064,0.411
		l2.182,2.182c0.907-0.697,1.715-1.515,2.4-2.43c0.168-0.225,0.168-0.533,0-0.758C13.829,2.905,11.055,1.232,8,1.232
		c-0.64,0-1.264,0.09-1.875,0.23L7.37,2.708C7.505,2.683,7.64,2.652,7.78,2.644"/>
	<g transform="translate(0 -.026)">
		<defs>
			<filter id="Adobe_OpacityMaskFilter" filterUnits="userSpaceOnUse" x="0" y="-1.949" width="15.987" height="15.974">
				<feColorMatrix  type="matrix" values="1 0 0 0 0  0 1 0 0 0  0 0 1 0 0  0 0 0 1 0"/>
			</filter>
		</defs>
		<mask maskUnits="userSpaceOnUse" x="0" y="-1.949" width="15.987" height="15.974" id="b">
			<g filter="url(#Adobe_OpacityMaskFilter)">
				<path id="a" fill="#FFFFFF" d="M15.986,14.026H0V-1.949h15.986V14.026z"/>
			</g>
		</mask>
		<path mask="url(#b)" d="M8.219,9.385C6.363,9.505,4.762,8.098,4.642,6.242c-0.009-0.145-0.009-0.29,0-0.435
			c0.034-0.539,0.21-1.035,0.474-1.474l1.156,1.155C5.975,6.443,6.507,7.458,7.461,7.755c0.351,0.109,0.727,0.109,1.077,0.001
			l1.153,1.153C9.252,9.172,8.757,9.35,8.219,9.385z M1.435-1.704c-0.326-0.325-0.853-0.325-1.179,0
			c-0.323,0.326-0.323,0.851,0,1.177l3.147,3.147C2.184,3.365,1.074,4.387,0.125,5.648c-0.167,0.224-0.167,0.532,0,0.756
			C2.171,9.124,4.943,10.796,8,10.796c1.028-0.006,2.047-0.199,3.005-0.574l3.56,3.561c0.326,0.324,0.854,0.324,1.18,0
			c0.324-0.326,0.324-0.854,0-1.18L1.435-1.704z"/>
	</g>
</g>
<path opacity="0.4" enable-background="new    " d="M8.118-8.105c-1.093,0.07-1.997-0.873-1.925-2.019
	c0.056-0.946,0.789-1.712,1.693-1.774c1.092-0.072,1.995,0.872,1.924,2.019C9.75-8.93,9.018-8.164,8.118-8.105 M8.219-6.479
	C6.189-6.345,4.514-8.1,4.643-10.23c0.104-1.758,1.463-3.182,3.139-3.292c2.029-0.133,3.705,1.62,3.576,3.752
	C11.25-8.018,9.893-6.594,8.219-6.48 M8-15c-3.057,0-5.829,1.754-7.875,4.602c-0.166,0.238-0.166,0.554,0,0.792
	C2.171-6.753,4.943-5,8-5s5.829-1.753,7.875-4.602c0.166-0.238,0.166-0.554,0-0.792C13.829-13.246,11.057-15,8-15"/>
</svg>
