<svg xmlns="http://www.w3.org/2000/svg" width="16" height="16" viewBox="0 0 16 16">
    <g fill="#FFF" fill-rule="evenodd">
        <path d="M12.755 12.755a.981.981 0 0 1-1.254.1 2.298 2.298 0 0 1-.302-.247s-2.048-2.067-2.15-2.175a4 4 0 0 1-4.878-6.262 4 4 0 0 1 6.262 4.878c.108.102 2.175 2.15 2.175 2.15.123.136.246.3.247.301a.982.982 0 0 1-.1 1.255m3.22-5.197c-.008-.112-.008-.225-.019-.337-.015-.162-.044-.32-.068-.478-.017-.099-.027-.199-.046-.299-.03-.155-.072-.305-.112-.457-.027-.102-.048-.204-.079-.305-.042-.139-.093-.275-.143-.41-.04-.11-.076-.223-.12-.332-.052-.12-.11-.237-.166-.355-.057-.12-.11-.24-.172-.357-.057-.106-.122-.207-.184-.31-.072-.122-.14-.245-.22-.364-.068-.1-.144-.195-.216-.293-.083-.113-.162-.228-.252-.338-.109-.132-.227-.255-.344-.379-.062-.067-.118-.138-.183-.203-.086-.086-.179-.16-.268-.242-.103-.094-.2-.19-.308-.279-.134-.11-.275-.209-.414-.31-.07-.05-.138-.106-.212-.155a7.898 7.898 0 0 0-.459-.279c-.07-.04-.137-.085-.209-.124a8.056 8.056 0 0 0-.478-.23c-.076-.034-.15-.073-.228-.106a7.847 7.847 0 0 0-.493-.18c-.08-.028-.16-.06-.244-.085a7.659 7.659 0 0 0-.536-.138C9.728.195 9.655.173 9.58.158a8.212 8.212 0 0 0-.695-.106C8.86.05 8.833.044 8.808.042a8.032 8.032 0 0 0-1.626 0c-.016.001-.03.005-.047.006a7.85 7.85 0 0 0-.728.111c-.062.013-.123.031-.185.045a8.05 8.05 0 0 0-.574.148c-.067.02-.13.047-.197.07a8.174 8.174 0 0 0-.542.197c-.056.024-.11.052-.166.076A8.2 8.2 0 0 0 4.2.957l-.12.072a8.282 8.282 0 0 0-.548.331c-.027.02-.052.041-.079.06-.39.27-.766.572-1.114.92-.347.347-.65.722-.92 1.113-.018.027-.04.052-.059.08a8.282 8.282 0 0 0-.33.546c-.024.041-.05.08-.073.121a8.2 8.2 0 0 0-.262.543c-.024.056-.052.11-.076.165a8.412 8.412 0 0 0-.198.543c-.022.066-.049.13-.069.197a8.05 8.05 0 0 0-.148.574c-.014.062-.032.123-.045.185a7.881 7.881 0 0 0-.11.727l-.008.048a8.032 8.032 0 0 0 0 1.626l.011.077c.026.232.06.465.107.695.014.075.036.148.054.222.041.18.084.36.138.536.025.083.057.163.085.244.056.165.113.331.18.493.033.077.072.152.106.228.073.161.146.321.231.478.038.072.083.14.123.21.09.155.18.31.28.458.048.074.103.141.154.212.101.14.2.28.31.414.088.107.185.205.28.308.08.09.155.182.241.268.065.065.136.121.203.183.124.117.247.234.38.344.11.09.224.17.337.252.098.072.192.148.293.216.12.08.242.148.364.22.103.062.204.127.31.184.117.062.237.115.357.172.118.055.234.114.356.165.108.045.22.081.33.121.136.05.272.101.411.143.101.031.203.052.305.08.152.04.303.08.457.111.1.02.2.03.3.045.157.025.315.054.477.07.112.01.225.01.337.017.148.008.293.021.442.021.205 0 .407-.014.61-.03.063-.005.127-.006.192-.013l.195-.024a8.644 8.644 0 0 0 .774-.135c.105-.024.21-.054.314-.082a6.74 6.74 0 0 0 .287-.08c.04-.012.08-.022.117-.035.116-.038.23-.082.342-.125.081-.03.161-.059.241-.092.034-.014.067-.025.1-.039.132-.058.357-.168.505-.242l.054-.027.088-.045c.154-.083.3-.176.446-.27.05-.03.101-.059.15-.092l.015-.009c.061-.04.38-.264.475-.338l.097-.083c.082-.066.16-.14.24-.21.084-.075.172-.153.252-.228.053-.049.108-.092.158-.144.052-.05.095-.106.144-.158.075-.08.153-.168.23-.252.068-.08.142-.158.208-.24l.083-.097c.074-.096.297-.414.338-.475.004-.004.006-.01.01-.015.032-.049.06-.1.091-.15.094-.147.187-.292.27-.446l.045-.088.027-.054c.074-.148.184-.373.242-.506.014-.032.025-.065.04-.099.032-.08.061-.16.091-.24.043-.114.087-.227.125-.343.013-.038.023-.078.035-.117a6.74 6.74 0 0 0 .08-.287c.028-.104.058-.209.082-.314a9.012 9.012 0 0 0 .072-.367c.024-.134.045-.269.063-.407l.024-.195c.007-.065.008-.129.013-.193.017-.202.031-.404.031-.609 0-.149-.014-.294-.022-.442"/>
        <path d="M5.4 5.4a2.218 2.218 0 1 0 3.136 3.138A2.218 2.218 0 0 0 5.4 5.4"/>
    </g>
</svg>
